<?xml version="1.0" encoding="UTF-8"?>
<svg width="24px" height="24px" viewBox="0 0 24 24" version="1.1" xmlns="http://www.w3.org/2000/svg" xmlns:xlink="http://www.w3.org/1999/xlink">
    <!-- Generator: Sketch 64 (93537) - https://sketch.com -->
    <title>Combined Shape</title>
    <desc>Created with Sketch.</desc>
    <g id="Page-1" stroke="none" stroke-width="1" fill="none" fill-rule="evenodd">
        <path d="M12,0 C18.627417,0 24,5.372583 24,12 C24,18.627417 18.627417,24 12,24 C5.372583,24 0,18.627417 0,12 C0,5.372583 5.372583,0 12,0 Z M8.84340244,13.1759676 C7.0410022,14.2165838 6.42345427,16.5213041 7.46407053,18.3237043 C8.5046868,20.1261046 10.809407,20.7436525 12.6118073,19.7030362 L12.6118073,19.7030362 L12.1118073,18.8370108 L11.9574618,18.9198332 C10.6588327,19.5652992 9.06516699,19.0968847 8.33009594,17.8237043 C7.56562205,16.4995967 8.01929482,14.8064669 9.34340244,14.041993 L9.34340244,14.041993 Z M17.1062016,16.2008457 C16.4650317,15.0903068 15.0452701,14.7098829 13.9347312,15.3510528 C12.8241923,15.9922227 12.4437684,17.4119843 13.0849383,18.5225232 C13.7261082,19.6330621 15.1458698,20.013486 16.2564087,19.3723161 C17.3669476,18.7311462 17.7473716,17.3113846 17.1062016,16.2008457 Z M14.0106317,10.8391613 C13.3694617,9.72862238 11.9497002,9.34819841 10.8391613,9.98936833 C9.72862238,10.6305383 9.34819841,12.0502998 9.98936833,13.1608387 C10.6305383,14.2713776 12.0502998,14.6518016 13.1608387,14.0106317 C14.2713776,13.3694617 14.6518016,11.9497002 14.0106317,10.8391613 Z M16.5920485,5.77349677 C15.5514323,3.97109653 13.246712,3.3535486 11.4443118,4.39416486 L11.4443118,4.39416486 L11.9443118,5.26019026 C13.2684194,4.49571638 14.9615493,4.94938915 15.7260231,6.27349677 C16.490497,7.59760438 16.0368243,9.29073422 14.7127166,10.0552081 L14.7127166,10.0552081 L15.2127166,10.9212335 C17.0151169,9.88061725 17.6326648,7.57589701 16.5920485,5.77349677 Z M10.9150617,5.47747682 C10.2738918,4.36693793 8.8541302,3.98651396 7.74359131,4.62768389 C6.63305242,5.26885382 6.25262845,6.6886154 6.89379838,7.79915429 C7.5349683,8.90969318 8.95472989,9.29011715 10.0652688,8.64894722 C11.1758077,8.00777729 11.5562316,6.58801571 10.9150617,5.47747682 Z" id="Combined-Shape" fill="#FFFFFF" transform="translate(12.000000, 12.000000) scale(-1, 1) translate(-12.000000, -12.000000) "></path>
    </g>
</svg>