<?xml version="1.0" encoding="UTF-8"?>
<svg width="24px" height="16px" viewBox="0 0 24 16" version="1.1" xmlns="http://www.w3.org/2000/svg" xmlns:xlink="http://www.w3.org/1999/xlink">
    <!-- Generator: Sketch 64 (93537) - https://sketch.com -->
    <title>Combined Shape</title>
    <desc>Created with Sketch.</desc>
    <g id="Page-1" stroke="none" stroke-width="1" fill="none" fill-rule="evenodd">
        <path d="M21.1276728,8.85716546 C22.0402286,8.33030117 23.2179358,8.64586688 23.7448001,9.5584226 C24.2716644,10.4709783 23.9560987,11.6486856 23.043543,12.1755499 C22.1309873,12.7024142 20.95328,12.3868485 20.4264157,11.4742927 C19.8995514,10.561737 20.2151171,9.38402975 21.1276728,8.85716546 Z M17.6799288,8.18104782 L18.6247352,9.81750051 C19.3206547,11.0228685 17.8734491,13.160505 15.3900019,14.5943239 C12.9065546,16.0281428 10.3317043,16.2126414 9.63578479,15.0072735 L9.63578479,15.0072735 L8.6909784,13.3708208 C9.3868979,14.5761887 11.9617482,14.3916902 14.4451955,12.9578712 C16.9286427,11.5240523 18.3758483,9.38641576 17.6799288,8.18104782 L17.6799288,8.18104782 Z M3.84289885,6.41883221 C3.87054458,6.60640235 3.92797938,6.78353363 4.01610336,6.9476509 L3.88878952,7.07532087 C2.36710148,8.62083783 1.65016633,10.0441307 2.13933465,10.8913951 C2.70426004,11.8698745 4.73882394,11.8393901 7.32859352,10.9858185 L7.32101856,10.9768918 L7.32101856,10.9768918 L7.29927111,10.9476178 L7.29927111,10.9476178 L7.23088441,10.8418638 L6.28607801,9.20541112 C6.93982057,10.3377265 9.25164626,10.2435388 11.5881907,9.03935801 L11.8146129,8.91985283 L11.8146129,8.91985283 L12.0405786,8.79295254 L12.0405786,8.79295254 L12.2631776,8.66022102 C14.6094838,7.22994497 15.9498595,5.1844798 15.2750284,4.01563816 L15.2750284,4.01563816 L16.2198348,5.65209085 C16.2322201,5.6735428 16.2439266,5.69529004 16.2549606,5.71732333 C18.0661611,4.01484431 18.9649093,2.40795881 18.4319513,1.48484846 C17.9632564,0.673045076 16.4829616,0.555744333 14.5132817,1.02679564 L14.4795711,0.962423781 C14.3976123,0.820466981 14.2949675,0.693962496 14.173776,0.582790295 C17.371952,-0.339720581 19.9359533,-0.190994004 20.7393647,1.20055527 C21.6057011,2.70109392 20.1969312,5.25197591 17.4040315,7.73875027 C17.8784681,8.9654508 16.4529509,10.9706352 14.0866359,12.3368278 C11.7746736,13.6716399 9.38349536,13.9237088 8.50280886,12.9796389 C4.75860624,14.3055941 1.6408431,14.3088328 0.739422834,12.7475271 C-0.102599908,11.2891009 1.20457431,8.83845969 3.84289885,6.41883221 Z M14.0151448,1.83345575 L14.9599512,3.46990844 C15.6558708,4.67527638 14.2089486,6.81340388 11.7255014,8.24722282 C9.24205411,9.68104176 6.66692031,9.86504934 5.9710008,8.6596814 L5.9710008,8.6596814 L5.02619441,7.02322871 C5.72211391,8.22859665 8.29724771,8.04458907 10.780695,6.61077013 C13.2641422,5.17695119 14.7110644,3.03882369 14.0151448,1.83345575 L14.0151448,1.83345575 Z M7.89311474,1.60933449 C10.376562,0.175515545 12.9514123,-0.00898301865 13.6476153,1.19687591 C14.3435348,2.40224385 12.8963292,4.53988036 10.4128819,5.9736993 C7.92943469,7.40751824 5.35458436,7.59201681 4.65866486,6.38664887 C3.96246188,5.18078994 5.40966749,3.04315343 7.89311474,1.60933449 Z M0.717342757,0.433883947 C1.40175954,0.0387357305 2.28504,0.275410016 2.68018822,0.959826804 C3.07533644,1.64424359 2.83866215,2.52752405 2.15424536,2.92267227 C1.46982858,3.31782048 0.586548117,3.0811462 0.1913999,2.39672941 C-0.203748317,1.71231262 0.0329259687,0.829032164 0.717342757,0.433883947 Z" id="Combined-Shape" fill="#FFFFFF" transform="translate(12.000000, 7.901574) scale(-1, 1) translate(-12.000000, -7.901574) "></path>
    </g>
</svg>