<?xml version="1.0" encoding="UTF-8"?>
<svg width="21px" height="18px" viewBox="0 0 21 18" version="1.1" xmlns="http://www.w3.org/2000/svg" xmlns:xlink="http://www.w3.org/1999/xlink">
    <!-- Generator: Sketch 64 (93537) - https://sketch.com -->
    <title>Combined Shape</title>
    <desc>Created with Sketch.</desc>
    <g id="Page-1" stroke="none" stroke-width="1" fill="none" fill-rule="evenodd">
        <path d="M14.3892648,2.73244333 C16.3356627,2.04264738 18.5577899,2.81552764 19.6275957,4.6684857 C20.834099,6.75821062 20.1181064,9.43033151 18.0283814,10.6368348 C17.0815267,11.1835016 16.0151063,11.3354804 15.0196291,11.1438181 L16.7313356,14.1080996 L18.239962,13.2370937 L17.1772611,17.2031474 L13.2112074,16.1404465 L14.7198337,15.2694407 L13.4045183,12.9923834 L13.4069688,12.9912879 L10.1124096,7.284944 L11.621036,6.41393814 L7.65498225,5.35123725 L6.59228135,9.31729099 L8.10090775,8.44628514 L11.0934734,13.6315361 L11.0806264,13.6765289 C10.6824861,14.8982111 9.87089202,15.9896739 8.70738783,16.7212326 L8.52076115,16.8337175 C5.80411876,18.4021718 2.3303616,17.4713813 0.761907381,14.7547389 C-0.6059306,12.3855741 -0.072977462,9.44058839 1.88759693,7.68567593 C1.62457501,5.03713112 2.89461237,2.35522776 5.34978677,0.937732161 C8.42428335,-0.837329266 12.2866746,-0.0115412079 14.3892648,2.73244333 Z" id="Combined-Shape" fill="#FFFFFF" transform="translate(10.106839, 8.797812) scale(-1, 1) translate(-10.106839, -8.797812) "></path>
    </g>
</svg>