<?xml version="1.0" encoding="UTF-8"?>
<svg width="354px" height="267px" viewBox="0 0 354 267" version="1.1" xmlns="http://www.w3.org/2000/svg" xmlns:xlink="http://www.w3.org/1999/xlink">
    <!-- Generator: Sketch 59.1 (86144) - https://sketch.com -->
    <title>Illustration</title>
    <desc>Created with Sketch.</desc>
    <defs>
        <path d="M104.340021,209.458269 C95.3384984,209.458269 86.1867846,208.287501 77.0804115,205.836827 C56.0721348,200.181424 38.2887072,188.514852 25.0775942,173.185733 L25.0775942,102.280586 C25.0775942,97.9979293 21.6076226,94.526589 17.327188,94.526589 L0.124686609,94.526589 C0.364141574,92.1123414 0.690027029,89.6912903 1.10234297,87.2699557 L21.7776498,87.2699557 C23.6011914,87.2699557 25.0775942,85.791897 25.0775942,83.9687028 L25.0775942,83.1335741 C25.0775942,81.3103799 23.6011914,79.8323212 21.7776498,79.8323212 L2.64817355,79.8323212 C2.83520346,79.0683457 3.03215163,78.3059293 3.23760115,77.5425208 C12.1866991,44.2710335 36.2002065,19.061543 65.9719682,7.34848045 C65.987554,7.34323609 66.0045567,7.33544043 66.0201425,7.32991259 C74.1276059,4.12405029 82.6530528,1.93559358 91.4108702,0.838955652 L91.4292898,0.844200011 L91.4647121,0.838955652 C95.675719,0.31763805 99.9419846,0.0508844533 104.242256,0.0508844533 C113.233861,0.0508844533 122.371405,1.21754165 131.463609,3.66580673 C136.835052,5.11225756 142.010963,6.9484918 146.941752,9.16331204 L146.944586,9.16331204 C175.731606,21.9734377 196.567022,46.8674163 204.915357,75.9927419 C204.921025,76.0113098 204.925276,76.0297359 204.930943,76.048162 C209.439498,91.7812381 210.298135,108.76233 206.805493,125.741295 C206.519281,127.136011 206.203313,128.526475 205.857591,129.919774 C205.690398,130.594453 205.514703,131.271968 205.333341,131.946647 C202.730508,141.623198 198.853888,150.616564 193.933017,158.794929 C193.162228,160.076254 192.364517,161.339152 191.542718,162.580789 C187.694436,168.392106 183.304901,173.752691 178.46196,178.610101 L183.463593,185.55675 L162.748613,200.479077 L158.35341,194.371525 C142.291508,204.066501 123.659361,209.458269 104.340021,209.458269 M102.186344,175.849017 C102.891956,175.870278 103.598986,175.880199 104.307433,175.880199 C112.274624,175.880199 120.382087,174.53084 128.312439,171.687547 C139.627749,167.630965 149.283876,161.000395 156.854337,152.694464 C156.95777,152.58249 157.05837,152.471933 157.160386,152.358542 C157.423928,152.065141 157.686053,151.768906 157.943928,151.472671 C158.442675,150.900043 158.927252,150.323164 159.406162,149.736363 C166.612481,140.89891 171.614114,130.43287 173.961907,119.277978 C174.255204,117.881844 174.507411,116.472955 174.717111,115.056978 C176.162342,105.316644 175.598418,95.1509512 172.743378,85.1649835 C172.312643,83.657443 171.826648,82.1551468 171.29248,80.6583785 C164.480057,61.640633 150.40889,47.3124781 133.321157,39.6769753 C124.281377,35.6374017 114.401381,33.4700642 104.300348,33.4700642 C101.402802,33.4700642 98.4854183,33.6486558 95.5666182,34.0125009 C90.4601348,34.6482023 85.3437331,35.8535543 80.2953424,37.6631416 C79.6067322,37.9097682 78.9266235,38.1667417 78.2507654,38.4316527 C43.4490325,52.1032706 25.1909457,90.469865 36.432577,126.071548 C36.7088712,126.947498 37.003585,127.820613 37.3153015,128.69231 C37.6114322,129.517234 37.918898,130.329401 38.2405328,131.135898 C39.5185706,134.334957 41.0077254,137.396528 42.6824933,140.302187 C43.3073432,141.386493 43.9576972,142.450956 44.6335553,143.492741 C44.9651083,144.003003 45.3009121,144.506178 45.6438002,145.006518 C45.9016748,145.382127 46.1638001,145.75632 46.4287591,146.126259 C59.228973,164.030784 79.663408,174.92771 101.401385,175.820669 C101.66351,175.832008 101.924218,175.840512 102.186344,175.849017" id="path-1"></path>
        <polyline id="path-3" points="70.0384519 59.3888188 28.7912715 59.3888188 0.128937289 19.5671275 27.2907815 0.00141739424 70.0384519 59.3888188"></polyline>
    </defs>
    <g id="--Ideation:-Landing-page" stroke="none" stroke-width="1" fill="none" fill-rule="evenodd">
        <g id="Home---Dark-mode" transform="translate(-960.000000, -18.000000)">
            <g id="Illustration" transform="translate(960.000000, 18.000000)">
                <g id="Donat-Charts" transform="translate(175.374977, 81.606151)">
                    <g id="3" transform="translate(56.647541, 0.000000)">
                        <path d="M11.3764999,22.5 C8.37001757,22.5 5.56852266,21.3379453 3.38199006,19.2189043 C1.67376146,17.5100003 0.580495154,15.3909593 0.238849435,13.0668498 C-0.376112861,9.51232949 0.85381173,5.82109681 3.38199006,3.29191887 C5.36353523,1.30959021 7.9600427,0.147535485 10.7615376,0.0108231636 C13.9730074,-0.125889158 17.0478188,1.03616557 19.3026806,3.29191887 C21.4208841,5.41095985 22.5824795,8.2819186 22.5824795,11.2895897 C22.5824795,14.2972607 21.4208841,17.0998633 19.3026806,19.2872605 C17.1844771,21.3379453 14.3829822,22.5 11.3764999,22.5 Z M11.330845,1.6875 C11.1515175,1.6875 11.0319658,1.6875 10.8526383,1.6875 C8.46160465,1.80703125 6.24989855,2.76328125 4.57617501,4.49648437 C2.42424475,6.64804687 1.40805546,9.75585938 1.88626218,12.8039063 C2.18514139,14.7761719 3.14155484,16.5691406 4.57617501,18.0035156 C6.36945023,19.7964844 8.76048386,20.8125 11.330845,20.8125 C13.9012062,20.8125 16.2922398,19.7964844 18.085515,18.0035156 C19.8787902,16.2105469 20.8949795,13.8199219 20.8949795,11.25 C20.8949795,8.68007812 19.8787902,6.28945312 18.085515,4.49648437 C16.2922398,2.70351562 13.8414303,1.6875 11.330845,1.6875 Z" id="Shape" fill="#026A6A" opacity="0.8"></path>
                        <path d="M19.3026806,3.29191887 C21.4208841,5.41095985 22.5824795,8.2819186 22.5824795,11.2895897 C22.5824795,14.2972607 21.4208841,17.0998633 19.3026806,19.2872605 C17.2208229,21.302758 14.4789215,22.4598595 11.5310791,22.498975 L11.5306034,20.8078744 L11.6650581,20.8067577 C14.1079921,20.7226821 16.3702083,19.7185292 18.085515,18.0035156 C19.8787902,16.2105469 20.8949795,13.8199219 20.8949795,11.25 C20.8949795,8.68007812 19.8787902,6.28945312 18.085515,4.49648437 C16.339834,2.75110175 13.9710581,1.74197822 11.5306034,1.68964255 L11.5307219,0.00287440645 C14.4606146,0.0674068086 17.2285394,1.21695756 19.3026806,3.29191887 Z" id="Combined-Shape" fill="#FEC64D"></path>
                    </g>
                    <g id="2" transform="translate(28.323770, 0.000000)">
                        <path d="M11.3764999,22.5 C8.37001757,22.5 5.56852266,21.3379453 3.38199006,19.2189043 C1.67376146,17.5100003 0.580495154,15.3909593 0.238849435,13.0668498 C-0.376112861,9.51232949 0.85381173,5.82109681 3.38199006,3.29191887 C5.36353523,1.30959021 7.9600427,0.147535485 10.7615376,0.0108231636 C13.9730074,-0.125889158 17.0478188,1.03616557 19.3026806,3.29191887 C21.4208841,5.41095985 22.5824795,8.2819186 22.5824795,11.2895897 C22.5824795,14.2972607 21.4208841,17.0998633 19.3026806,19.2872605 C17.1844771,21.3379453 14.3829822,22.5 11.3764999,22.5 Z M11.330845,1.6875 C11.1515175,1.6875 11.0319658,1.6875 10.8526383,1.6875 C8.46160465,1.80703125 6.24989855,2.76328125 4.57617501,4.49648437 C2.42424475,6.64804687 1.40805546,9.75585938 1.88626218,12.8039063 C2.18514139,14.7761719 3.14155484,16.5691406 4.57617501,18.0035156 C6.36945023,19.7964844 8.76048386,20.8125 11.330845,20.8125 C13.9012062,20.8125 16.2922398,19.7964844 18.085515,18.0035156 C19.8787902,16.2105469 20.8949795,13.8199219 20.8949795,11.25 C20.8949795,8.68007812 19.8787902,6.28945312 18.085515,4.49648437 C16.2922398,2.70351562 13.8414303,1.6875 11.330845,1.6875 Z" id="Shape" fill="#026A6A" opacity="0.8"></path>
                        <path d="M19.3026806,3.29191887 C21.4208841,5.41095985 22.5824795,8.2819186 22.5824795,11.2895897 C22.5824795,14.2972607 21.4208841,17.0998633 19.3026806,19.2872605 C17.1844771,21.3379453 14.3829822,22.5 11.3764999,22.5 C8.37001757,22.5 5.56852266,21.3379453 3.38199006,19.2189043 C1.67376146,17.5100003 0.580495154,15.3909593 0.238849435,13.0668498 C0.134418618,12.4632332 0.0831900654,11.8556741 0.0824868497,11.2505328 L1.77017277,11.2501605 C1.76690658,11.7664792 1.80501677,12.2860553 1.88626218,12.8039062 C2.18514139,14.7761719 3.14155484,16.5691406 4.57617501,18.0035156 C6.36945023,19.7964844 8.76048386,20.8125 11.330845,20.8125 C13.9012062,20.8125 16.2922398,19.7964844 18.085515,18.0035156 C19.8787902,16.2105469 20.8949795,13.8199219 20.8949795,11.25 C20.8949795,8.68007812 19.8787902,6.28945312 18.085515,4.49648437 C16.3399269,2.75119462 13.9713102,1.74208562 11.530993,1.68965092 L11.5314784,0.00289109238 C14.461091,0.0676046862 17.2287179,1.21713615 19.3026806,3.29191887 Z" id="Combined-Shape" fill="#F3753F"></path>
                    </g>
                    <g id="1">
                        <path d="M11.3764999,22.5 C8.37001757,22.5 5.56852266,21.3379453 3.38199006,19.2189043 C1.67376146,17.5100003 0.580495154,15.3909593 0.238849435,13.0668498 C-0.376112861,9.51232949 0.85381173,5.82109681 3.38199006,3.29191887 C5.36353523,1.30959021 7.9600427,0.147535485 10.7615376,0.0108231636 C13.9730074,-0.125889158 17.0478188,1.03616557 19.3026806,3.29191887 C21.4208841,5.41095985 22.5824795,8.2819186 22.5824795,11.2895897 C22.5824795,14.2972607 21.4208841,17.0998633 19.3026806,19.2872605 C17.1844771,21.3379453 14.3829822,22.5 11.3764999,22.5 Z M11.330845,1.6875 C11.1515175,1.6875 11.0319658,1.6875 10.8526383,1.6875 C8.46160465,1.80703125 6.24989855,2.76328125 4.57617501,4.49648437 C2.42424475,6.64804687 1.40805546,9.75585938 1.88626218,12.8039063 C2.18514139,14.7761719 3.14155484,16.5691406 4.57617501,18.0035156 C6.36945023,19.7964844 8.76048386,20.8125 11.330845,20.8125 C13.9012062,20.8125 16.2922398,19.7964844 18.085515,18.0035156 C19.8787902,16.2105469 20.8949795,13.8199219 20.8949795,11.25 C20.8949795,8.68007812 19.8787902,6.28945312 18.085515,4.49648437 C16.2922398,2.70351562 13.8414303,1.6875 11.330845,1.6875 Z" id="Shape" fill="#026A6A" opacity="0.8"></path>
                        <path d="M19.3026806,3.29191887 C21.4117011,5.40177326 22.5723899,8.25704002 22.582414,11.2504803 L20.8949795,11.25 L20.8949795,11.25 C20.8949795,8.68007812 19.8787902,6.28945312 18.085515,4.49648437 C16.339834,2.75110175 13.9710581,1.74197822 11.5306034,1.68964255 L11.5307219,0.00287440645 C14.4606146,0.0674068086 17.2285394,1.21695756 19.3026806,3.29191887 Z" id="Combined-Shape" fill="#008AB6"></path>
                    </g>
                </g>
                <g id="Chart" transform="translate(245.808432, 178.021626) scale(-1, 1) translate(-245.808432, -178.021626) translate(210.808432, 146.521626)">
                    <g id="Group-11" transform="translate(3.106853, 1.607143)" stroke="#046363" stroke-width="1.5">
                        <line x1="0.45008699" y1="60.5836127" x2="0.45008699" y2="7.04098202" id="Path"></line>
                        <line x1="13.0100715" y1="60.5836127" x2="13.0100715" y2="1.66603518" id="Path"></line>
                        <line x1="25.5700561" y1="60.5836127" x2="25.5700561" y2="-5.68434189e-14" id="Path"></line>
                        <line x1="38.1300406" y1="60.5836127" x2="38.1300406" y2="1.85303913" id="Path"></line>
                        <line x1="50.6900251" y1="60.5836127" x2="50.6900251" y2="8.7070172" id="Path"></line>
                        <line x1="63.2500097" y1="60.5836127" x2="63.2500097" y2="12.2260915" id="Path"></line>
                    </g>
                    <path d="M66.5357143,9.85346027 C68.3109153,9.85346027 69.75,11.292545 69.75,13.067746 C69.75,14.842947 68.3109153,16.2820317 66.5357143,16.2820317 C64.7605133,16.2820317 63.3214286,14.842947 63.3214286,13.067746 C63.3214286,11.292545 64.7605133,9.85346027 66.5357143,9.85346027 Z M53.9757298,7.12266576 C55.7509307,7.12266576 57.1900155,8.5617505 57.1900155,10.3369515 C57.1900155,12.1121525 55.7509307,13.5512372 53.9757298,13.5512372 C52.2005288,13.5512372 50.761444,12.1121525 50.761444,10.3369515 C50.761444,8.5617505 52.2005288,7.12266576 53.9757298,7.12266576 Z M3.73787937,5.75935627 C5.51308036,5.75935627 6.95216509,7.19844101 6.95216509,8.97364199 C6.95216509,10.748843 5.51308036,12.1879277 3.73787937,12.1879277 C1.96267839,12.1879277 0.523593659,10.748843 0.523593659,8.97364199 C0.523593659,7.19844101 1.96267839,5.75935627 3.73787937,5.75935627 Z M16.2978639,1.93666151 C18.0730649,1.93666151 19.5121496,3.37574624 19.5121496,5.15094723 C19.5121496,6.92614821 18.0730649,8.36523294 16.2978639,8.36523294 C14.5226629,8.36523294 13.0835782,6.92614821 13.0835782,5.15094723 C13.0835782,3.37574624 14.5226629,1.93666151 16.2978639,1.93666151 Z M41.4157452,1.93666151 C43.1909462,1.93666151 44.6300309,3.37574624 44.6300309,5.15094723 C44.6300309,6.92614821 43.1909462,8.36523294 41.4157452,8.36523294 C39.6405442,8.36523294 38.2014595,6.92614821 38.2014595,5.15094723 C38.2014595,3.37574624 39.6405442,1.93666151 41.4157452,1.93666151 Z M28.8557607,0.571264257 C30.6309617,0.571264257 32.0700464,2.01034899 32.0700464,3.78554997 C32.0700464,5.56075095 30.6309617,6.99983569 28.8557607,6.99983569 C27.0805597,6.99983569 25.641475,5.56075095 25.641475,3.78554997 C25.641475,2.01034899 27.0805597,0.571264257 28.8557607,0.571264257 Z" id="Combined-Shape" fill="#046363"></path>
                </g>
                <g id="лупа" transform="translate(101.378501, 13.944597)">
                    <g id="Group-54" transform="translate(0.000000, 10.447755)">
                        <mask id="mask-2" fill="white">
                            <use xlink:href="#path-1"></use>
                        </mask>
                        <g id="Clip-53"></g>
                        <path d="M104.340021,209.458269 C95.3384984,209.458269 86.1867846,208.287501 77.0804115,205.836827 C56.0721348,200.181424 38.2887072,188.514852 25.0775942,173.185733 L25.0775942,102.280586 C25.0775942,97.9979293 21.6076226,94.526589 17.327188,94.526589 L0.124686609,94.526589 C0.364141574,92.1123414 0.690027029,89.6912903 1.10234297,87.2699557 L21.7776498,87.2699557 C23.6011914,87.2699557 25.0775942,85.791897 25.0775942,83.9687028 L25.0775942,83.1335741 C25.0775942,81.3103799 23.6011914,79.8323212 21.7776498,79.8323212 L2.64817355,79.8323212 C2.83520346,79.0683457 3.03215163,78.3059293 3.23760115,77.5425208 C12.1866991,44.2710335 36.2002065,19.061543 65.9719682,7.34848045 C65.987554,7.34323609 66.0045567,7.33544043 66.0201425,7.32991259 C74.1276059,4.12405029 82.6530528,1.93559358 91.4108702,0.838955652 L91.4292898,0.844200011 L91.4647121,0.838955652 C95.675719,0.31763805 99.9419846,0.0508844533 104.242256,0.0508844533 C113.233861,0.0508844533 122.371405,1.21754165 131.463609,3.66580673 C136.835052,5.11225756 142.010963,6.9484918 146.941752,9.16331204 L146.944586,9.16331204 C175.731606,21.9734377 196.567022,46.8674163 204.915357,75.9927419 C204.921025,76.0113098 204.925276,76.0297359 204.930943,76.048162 C209.439498,91.7812381 210.298135,108.76233 206.805493,125.741295 C206.519281,127.136011 206.203313,128.526475 205.857591,129.919774 C205.690398,130.594453 205.514703,131.271968 205.333341,131.946647 C202.730508,141.623198 198.853888,150.616564 193.933017,158.794929 C193.162228,160.076254 192.364517,161.339152 191.542718,162.580789 C187.694436,168.392106 183.304901,173.752691 178.46196,178.610101 L183.463593,185.55675 L162.748613,200.479077 L158.35341,194.371525 C142.291508,204.066501 123.659361,209.458269 104.340021,209.458269 M102.186344,175.849017 C102.891956,175.870278 103.598986,175.880199 104.307433,175.880199 C112.274624,175.880199 120.382087,174.53084 128.312439,171.687547 C139.627749,167.630965 149.283876,161.000395 156.854337,152.694464 C156.95777,152.58249 157.05837,152.471933 157.160386,152.358542 C157.423928,152.065141 157.686053,151.768906 157.943928,151.472671 C158.442675,150.900043 158.927252,150.323164 159.406162,149.736363 C166.612481,140.89891 171.614114,130.43287 173.961907,119.277978 C174.255204,117.881844 174.507411,116.472955 174.717111,115.056978 C176.162342,105.316644 175.598418,95.1509512 172.743378,85.1649835 C172.312643,83.657443 171.826648,82.1551468 171.29248,80.6583785 C164.480057,61.640633 150.40889,47.3124781 133.321157,39.6769753 C124.281377,35.6374017 114.401381,33.4700642 104.300348,33.4700642 C101.402802,33.4700642 98.4854183,33.6486558 95.5666182,34.0125009 C90.4601348,34.6482023 85.3437331,35.8535543 80.2953424,37.6631416 C79.6067322,37.9097682 78.9266235,38.1667417 78.2507654,38.4316527 C43.4490325,52.1032706 25.1909457,90.469865 36.432577,126.071548 C36.7088712,126.947498 37.003585,127.820613 37.3153015,128.69231 C37.6114322,129.517234 37.918898,130.329401 38.2405328,131.135898 C39.5185706,134.334957 41.0077254,137.396528 42.6824933,140.302187 C43.3073432,141.386493 43.9576972,142.450956 44.6335553,143.492741 C44.9651083,144.003003 45.3009121,144.506178 45.6438002,145.006518 C45.9016748,145.382127 46.1638001,145.75632 46.4287591,146.126259 C59.228973,164.030784 79.663408,174.92771 101.401385,175.820669 C101.66351,175.832008 101.924218,175.840512 102.186344,175.849017" id="Fill-52" fill="#026A6A" mask="url(#mask-2)"></path>
                    </g>
                    <path d="M225.541073,80.561287 L204.915357,86.4404966 L172.743378,95.6127382 C172.312643,94.1051977 171.828065,92.6030433 171.29248,91.1061332 C164.480057,72.0883877 150.40889,57.7602328 133.321157,50.1245883 L146.941752,19.6110667 L146.944586,19.6110667 L155.698152,1.47792889e-12 C190.393618,15.4381164 215.498133,45.4537073 225.541073,80.561287" id="Fill-55" fill="#008383"></path>
                    <path d="M148.377065,16.3999601 L133.321157,50.1245883 C121.688463,44.9262949 108.660129,42.8281262 95.5666182,44.4601139 L91.0353934,7.80785793 C104.491629,6.13604142 118.491951,6.98378491 132.388841,10.7248553 C137.934561,12.216521 143.28475,14.1135614 148.377065,16.3999601" id="Fill-56" fill="#009392"></path>
                    <path d="M95.5666182,44.4601139 C90.4601348,45.095957 85.3437331,46.3014508 80.2953424,48.111038 C79.6067322,48.3573811 78.9266235,48.6143547 78.2507654,48.8794074 L62.3178004,8.36418517 C71.218724,4.83770829 80.5815548,2.43210678 90.2008433,1.22916429 L90.2220967,1.23469212 L95.5666182,44.4601139" id="Fill-57" fill="#00A2A2"></path>
                    <g id="Group-60" transform="translate(159.117116, 193.291612)">
                        <mask id="mask-4" fill="white">
                            <use xlink:href="#path-3"></use>
                        </mask>
                        <g id="Clip-59"></g>
                        <polyline id="Fill-58" fill="#026A6A" mask="url(#mask-4)" points="70.0384519 59.3888188 28.7912715 59.3888188 0.128937289 19.5671275 27.2907815 0.00141739424 70.0384519 59.3888188"></polyline>
                    </g>
                </g>
                <g id="woman" transform="translate(169.267466, 0.562524)">
                    <path d="M14.0924809,7.39854288 C14.0924809,7.39854288 12.6061598,4.66920853 11.7602745,3.68695432 C10.9158062,2.70498358 8.10610677,1.96822206 8.48725106,0.713261194 C8.86981225,-0.541699669 12.6330808,0.00399711442 13.6702467,1.23160227 C14.7059957,2.4594909 17.8699184,2.89604833 17.9790192,3.41410592 C18.08812,3.93258874 16.8809269,6.76978679 16.202235,7.23369993 C15.52496,7.69761306 14.0924809,7.39854288 14.0924809,7.39854288" id="Fill-61" fill="#616D73"></path>
                    <path d="M7.77455374,9.70960419 C7.77455374,9.70960419 5.35450001,7.78946021 4.18839684,7.22377817 C3.02229367,6.65837961 0.151667878,7.09819704 0.00431097615,5.79476129 C-0.143045925,4.49118381 3.52670768,3.49688175 4.96627125,4.21209888 C6.40441794,4.92703254 9.48049325,4.07092642 9.7865422,4.5033734 C10.0925912,4.93582038 10.1110108,8.0195033 9.67177385,8.71445169 C9.23395382,9.40954183 7.77455374,9.70960419 7.77455374,9.70960419" id="Fill-62" fill="#57646B"></path>
                    <path d="M13.1516638,14.7090372 C13.1516638,14.7090372 14.2086661,7.47862565 14.1604918,6.22437349 C14.1463228,5.86619796 16.335423,5.99929128 16.2334066,6.68814488 C16.0109544,8.18803147 17.0211993,13.9996313 16.8455045,15.0636692 C16.6698098,16.1277071 13.0609826,15.3790394 13.1516638,14.7090372" id="Fill-63" fill="#EEA886"></path>
                    <path d="M9.84038415,16.7870789 C9.84038415,16.7870789 7.85956734,9.7664417 7.39766013,8.5990758 C7.1922106,8.07945907 9.21128353,7.27466262 9.48474393,8.20149672 C9.9140626,9.65560147 13.109157,14.5990474 13.3712822,15.6453678 C13.6319906,16.6915465 10.0231634,17.4378046 9.84038415,16.7870789" id="Fill-64" fill="#EEA886"></path>
                    <path d="M11.2147706,21.6658916 C11.2147706,21.6658916 9.08801382,14.4907585 8.76071147,13.7269247 L12.1144979,11.6534187 C12.1144979,11.6534187 13.6702467,16.2368464 13.8884483,17.3826679 C14.1066498,18.5284894 11.2147706,21.6658916 11.2147706,21.6658916" id="Fill-65" fill="#005E7D"></path>
                    <path d="M70.5939343,2.70852707 C70.5939343,2.70852707 67.3549163,3.5276392 65.8133364,5.97831385 C64.2717565,8.42884675 62.9398768,11.2514456 60.043747,12.5317779 C57.1476171,13.8122518 57.1291975,17.1116621 57.3544835,17.6203649 C57.5811864,18.1292095 66.4778594,28.1336033 68.4190032,28.5201267 C70.360147,28.9067918 73.9944782,28.6380539 73.6062495,26.0673259 C73.2166038,23.4967397 69.4079947,17.9669178 71.5460866,15.1772025 C73.6841786,12.3874871 74.222598,9.81775137 74.222598,9.81775137 L70.5939343,2.70852707" id="Fill-66" fill="#222E33"></path>
                    <path d="M70.0285939,14.6728936 C70.0285939,14.6728936 69.9336621,14.6412857 69.7763869,14.6268283 C69.5921908,14.6096778 69.3229811,14.6149222 69.018349,14.7175415 C68.9418368,14.7431964 68.8412374,14.7949313 68.7222183,14.8650923 C67.9514284,15.3188002 66.1307205,16.5506575 65.8841811,16.5801393 C65.6008024,16.614015 65.8402574,12.363108 65.8402574,12.363108 C65.8402574,12.363108 66.8094124,10.6467853 66.9326821,9.51698031 C67.0545349,8.38717536 70.0285939,14.6728936 70.0285939,14.6728936" id="Fill-67" fill="#EEA886"></path>
                    <path d="M47.2421161,19.1151489 C47.2421161,19.1151489 43.6828802,16.6188342 39.5101295,17.3962749 C35.3373788,18.1738574 34.8882236,20.125184 33.4557445,20.2134877 C32.0246823,20.3017914 27.2384168,19.8925897 23.3107886,21.0385529 C19.3831604,22.1842327 16.069047,22.3071207 15.6198919,21.9797027 C15.1693198,21.6522846 18.073951,15.1046319 18.073951,14.2044448 L13.2055057,12.9357352 C13.2055057,12.9357352 11.8155334,18.7464847 11.2700295,20.0562987 C10.6862694,21.4571094 9.56550685,24.0940297 11.1609287,26.3858144 C12.7563505,28.6774574 17.2153137,27.644744 19.9159123,28.106531 C22.615094,28.5683181 34.6997768,28.2722244 36.8109478,28.1591164 C39.1006473,28.03637 46.0150866,27.7089519 46.0150866,27.7089519 L47.2421161,19.1151489" id="Fill-68" fill="#006D90"></path>
                    <path d="M76.4726246,6.17646556 C76.4726246,6.17646556 76.7007444,9.69387112 75.9200362,10.7484124 C75.6069028,11.1705124 75.3957857,11.400272 75.2526795,11.5238688 C75.0528975,11.6982083 74.8970392,11.9181879 74.8091919,12.168358 C74.5669031,12.8448803 74.4195462,13.7970857 74.2268487,14.0001983 C74.0171485,14.2218788 73.4107182,13.6580393 73.1896828,13.6569054 C72.9700644,13.6556298 70.8291386,15.5046206 70.3162233,15.1261763 C69.8047248,14.7475903 66.6804751,11.5760289 66.9426004,9.40160442 C67.2047256,7.22717992 68.1639624,3.9806384 71.6821084,4.00053183 C75.2002544,4.02046718 76.2034149,5.30193332 76.4726246,6.17646556" id="Fill-69" fill="#EEA886"></path>
                    <path d="M65.8416743,22.9618151 C65.7750803,23.1063894 64.4814567,25.1726667 63.0645634,26.3716405 C62.4751358,26.8695711 61.8672886,27.2178248 61.3147002,27.2178248 C61.1460899,27.2178248 60.9817303,27.2202344 60.8216214,27.2243449 C59.1964448,27.2682841 57.9467449,27.5176037 55.7505603,27.6271683 C53.470779,27.7408433 47.9378107,27.4224966 47.7734511,27.4224966 C47.6105084,27.4224966 46.0150866,27.7089519 46.0150866,27.7089519 C45.4426617,27.0132948 46.9559037,19.1559699 47.2421161,19.1151489 C47.5283286,19.0741862 49.368873,19.7698433 51.1286544,19.4833879 C52.887019,19.1969326 53.5827136,19.0332235 56.2011324,15.963998 C58.8195512,12.8949143 61.43797,12.1171901 62.5417298,12.3628245 C63.6469066,12.6083172 65.8416743,12.3628245 65.8416743,12.3628245 C65.8416743,12.3628245 65.938023,22.7572852 65.8416743,22.9618151" id="Fill-70" fill="#B08814"></path>
                    <path d="M74.9948049,8.69503339 C74.9948049,8.69503339 75.6508265,10.3943474 75.9979653,10.6285009 C75.9979653,10.6285009 77.263251,9.28991376 76.4513712,5.98681821 C75.6380744,2.68372267 72.5733343,2.37302985 70.5939343,2.70852707 C68.1313738,3.12594967 65.6503937,11.4630626 65.779331,12.2750878 C65.9068514,13.0872547 68.6669595,7.96649275 71.0841794,8.37852926 C73.5028163,8.7907075 73.5226528,8.9255017 74.9948049,8.69503339" id="Fill-71" fill="#222E33"></path>
                    <path d="M69.7820545,14.6329231 C69.5978584,14.6157726 69.3286486,14.6288127 69.0240166,14.7315737 C68.9475044,14.7572286 68.8412374,14.7949313 68.7222183,14.8650923 C68.1568779,13.9826226 67.6326274,11.8901235 67.6142078,11.8192538 C67.9925183,12.6247589 69.7820545,14.6329231 69.7820545,14.6329231" id="Fill-72" fill="#A77860"></path>
                    <path d="M63.0645634,26.3716405 C62.4751358,26.8695711 61.8672886,27.2178248 61.3147002,27.2178248 C61.1460899,27.2178248 60.9817303,27.2202344 60.8216214,27.2243449 L61.6249999,20.7111348 L63.0645634,26.3716405" id="Fill-73" fill="#C29941"></path>
                    <path d="M75.7925158,37.5879063 L74.222598,39.0167815 C72.8680481,38.2907921 69.4731718,35.8466375 68.819984,35.2900268 C68.1342076,34.7063438 63.5675606,30.8846237 62.9398768,30.0134932 C62.3079424,29.142221 61.5059808,20.1400667 61.5881606,19.7278884 C61.6689236,19.3210963 65.5582956,19.1120306 66.0003663,20.0646613 C66.0003663,20.0646613 66.2029821,25.1987467 66.3078322,26.0582546 C66.4070147,26.9179042 66.7357339,27.694211 67.3251615,28.4172238 C68.1398752,29.4179042 69.8769863,31.741722 71.5574218,33.6201946 C71.9584026,34.0679495 75.2739329,37.1412854 75.7925158,37.5879063" id="Fill-74" fill="#EEA886"></path>
                    <path d="M77.064886,37.6584926 C77.064886,37.6584926 78.0057031,38.3741349 78.9550216,39.2931734 C79.7895718,40.0995289 80.6368739,41.1577555 80.4229231,41.3574663 C80.131043,41.6304565 79.5628688,40.721765 78.6829781,39.9750817 C77.8725151,39.287929 77.9178557,39.5531235 77.9178557,39.5531235 C77.9178557,39.5531235 77.9093544,39.4770094 78.6489727,40.3902365 C79.4424329,41.3720655 80.2628141,42.538014 80.0191085,42.7062587 C79.8646671,42.8118546 79.8575826,42.8400607 79.5104438,42.5279505 C79.6719696,42.7483553 79.6351304,42.8209259 79.5486999,42.8927878 C79.1052123,43.2644285 77.7138231,41.9931676 77.1612347,41.4882918 C77.5834689,41.8786422 77.8512617,42.2083281 77.42336,42.2587873 C76.9331149,42.3164753 75.0443962,40.4344592 74.3047779,39.8222866 C73.4971487,39.1544105 77.064886,37.6584926 77.064886,37.6584926" id="Fill-77" fill="#EEA886"></path>
                    <path d="M48.8417887,19.4281096 C48.8417887,19.4281096 48.0908352,24.8085381 48.4606444,27.4553801 C48.4606444,27.4553801 48.8517069,27.7459459 49.6309982,27.510942 C49.6309982,27.510942 49.8251126,21.6375437 50.2615157,19.5526985 C50.2615157,19.5526985 50.0206439,19.371272 48.8417887,19.4281096" id="Fill-78" fill="#007BA3"></path>
                    <path d="M66.3191673,20.179045 C66.3191673,20.179045 66.5642899,13.3421022 64.3426012,13.4267206 C61.5314849,13.5337339 61.1106676,16.9734662 61.4918119,20.7111348 C61.4918119,20.7111348 65.6914836,20.7520975 66.3191673,20.179045" id="Fill-75" fill="#B08814"></path>
                    <path d="M75.0358948,36.9186128 C75.0358948,36.9186128 75.245595,37.2480152 75.5488102,37.3503511 C76.0716438,37.5271001 76.8452675,37.1867838 77.2278287,37.8722356 C77.608973,38.5578292 75.7670117,40.2704667 75.2710991,40.3745034 C74.7766033,40.4782567 73.9831431,39.7076194 73.3639607,38.1873224 C72.7433615,36.6670253 75.0358948,36.9186128 75.0358948,36.9186128" id="Fill-76" fill="#EEA886"></path>
                </g>
                <g id="men" transform="translate(299.464285, 131.521626)">
                    <path d="M0.0922461244,0.26527005 L1.43262717,6.49330035 C1.02031122,5.98587321 0.296278757,5.1765411 0.0624913655,5.41749812 C-0.273312343,5.76050753 0.844616458,7.45996323 1.03589705,8.19275605 C1.21159182,8.86318353 1.44254542,9.90922048 1.73159165,10.5286218 L2.23742256,11.5477282 L4.47469705,10.6320915 C4.47469705,10.6320915 4.36984695,6.19139538 4.28625024,5.19213244 C4.14881159,3.56638124 1.02172812,0.045573942 0.718512956,0.00872169168 C0.171592148,-0.0564784435 0.0922461244,0.26527005 0.0922461244,0.26527005" id="Fill-92" fill="#EEA987"></path>
                    <path d="M45.9329945,118.148532 C45.9329945,118.148532 46.5620951,119.667978 47.0934301,120.270371 C47.6247651,120.872764 49.658007,121.948566 49.6693701,123.7359 C49.6806773,125.674895 46.2418773,125.136285 44.8958286,125.066833 C43.5511969,124.995963 43.4491806,123.959848 42.8824233,122.861368 C42.3170829,121.764305 41.7460749,121.949983 41.6398079,121.064112 C41.5335409,120.179658 42.0733772,118.196723 42.0733772,118.196723 L45.9329945,118.148532" id="Fill-93" fill="#616D73"></path>
                    <path d="M14.2300073,118.497211 C14.2300073,118.497211 12.3554575,120.465971 10.4539867,120.878433 C8.55109903,121.289477 7.22063623,121.816748 7.20643992,122.944994 C7.19229837,124.074657 12.6813429,124.820207 14.857691,123.680622 C18.1066273,121.981166 18.4367635,122.494263 18.7966544,121.643826 C19.1565453,120.794807 18.3645019,118.522724 18.3871722,118.253419 C18.416927,117.918914 14.2300073,118.497211 14.2300073,118.497211" id="Fill-94" fill="#616D73"></path>
                    <path d="M19.2273899,61.6597017 C19.2273899,61.6597017 17.2593251,75.9612096 16.4559467,80.7959414 C15.5151295,86.4485096 15.1963285,91.1188236 14.9342033,94.0443253 C14.605484,97.7238808 13.9721327,117.07273 13.7411791,118.148532 C13.5102255,119.225751 18.8915862,118.688559 18.8915862,118.688559 C18.8915862,118.688559 22.7937103,93.5978462 23.7756174,89.6801685 C24.6895135,86.0303783 27.2044991,70.9861558 28.0390492,71.982584 C28.8721825,72.9790121 34.1118539,90.5802138 34.7296193,93.4589415 C35.3473848,96.3362518 41.3040042,118.868568 41.3040042,118.868568 C41.3040042,118.868568 45.7572998,119.826727 46.8893975,118.923846 C46.8893975,118.923846 43.0042761,98.224221 42.6103798,92.8282011 C42.4601891,90.771562 41.2430777,68.3129503 37.7660216,59.2146966 C35.9297279,54.4068953 19.2273899,61.6597017 19.2273899,61.6597017" id="Fill-95" fill="#009392"></path>
                    <path d="M25.00123,27.3615958 C25.00123,27.3615958 19.7941472,28.4388154 19.1763818,28.9859296 C18.5047743,29.569896 17.3216684,35.2749078 17.2508238,36.8652242 C17.1799791,38.4541231 17.8785075,45.0931978 18.5501149,47.5665507 C19.2203054,50.0384863 19.067281,62.9424435 18.7668996,64.9735694 C18.7668996,64.9735694 29.2136538,67.0174519 39.5229693,65.6751796 C39.5229693,65.6751796 37.7419344,54.4678433 38.1542504,51.0802711 C38.6827516,46.7387925 39.9551218,36.7390761 39.9551218,36.7390761 C39.9551218,36.7390761 38.5779015,30.0064534 37.6597546,29.2297214 C36.7416078,28.451572 30.3599204,27.1872563 30.3599204,27.1872563 L25.00123,27.3615958" id="Fill-96" fill="#B08814"></path>
                    <path d="M27.1549078,11.2529102 C27.1549078,11.2529102 20.8894057,8.93405324 21.2818852,17.2612444 C21.6729477,25.589853 23.1408492,26.4360374 27.2625917,25.2723567 C31.3829174,24.1100934 31.7286394,18.8543955 32.2656419,16.3257642 C32.8026445,13.7971329 29.2037355,11.6157631 27.1549078,11.2529102" id="Fill-97" fill="#EEA886"></path>
                    <path d="M23.9697317,28.6797724 C23.9697317,28.6797724 27.2243356,31.3203779 30.3599204,27.1872563 C30.3599204,27.1872563 30.2210649,23.8351189 31.1803017,20.704095 C32.1395384,17.5730711 24.6200858,24.8797385 24.6200858,24.8797385 C24.6994318,24.9350168 24.7150176,25.248261 24.669677,25.6848184 C24.6314209,26.0547583 24.550658,26.5125766 24.4288052,26.9788993 C24.1539279,28.0249363 24.2176881,27.8392577 23.9697317,28.6797724" id="Fill-98" fill="#EEA886"></path>
                    <path d="M31.3942525,20.456051 C31.3942525,20.456051 31.4126722,18.2307421 30.4874408,18.0266373 C29.5622095,17.8211151 29.0861334,19.1081091 29.0861334,19.1081091 L28.3422644,19.0670047 C28.3422644,19.0670047 29.0067874,16.8133478 28.1254797,16.2959989 C27.2441721,15.7800674 21.9690784,16.2336336 21.3073893,15.4739103 C20.6457001,14.7156044 21.6063537,10.2068733 23.0445004,9.76464627 C24.484064,9.32241926 28.414526,8.42520871 30.9110919,10.6491003 C30.9110919,10.6491003 33.1469495,10.6632742 33.1427049,13.3435667 C33.1384482,15.1153095 32.1466229,19.2498485 31.3942525,20.456051" id="Fill-99" fill="#28353B"></path>
                    <path d="M24.4288052,26.9788993 C29.2844984,26.1610629 30.0099478,23.3999789 30.0212829,23.3560397 C28.1325642,25.791123 24.669677,25.6848184 24.669677,25.6848184 C24.6314209,26.0547583 24.550658,26.5125766 24.4288052,26.9788993" id="Fill-100" fill="#A77860"></path>
                    <path d="M32.0488572,27.5444396 C32.0488572,27.5444396 29.1116375,33.4833215 24.7886961,33.0028249 C20.4643378,32.5223282 22.970822,28.3778675 23.3845548,27.7173617 C23.3845548,27.7173617 25.9788864,26.0519235 32.0488572,27.5444396" id="Fill-102" fill="#EEA886"></path>
                    <path d="M4.76657707,22.7508123 C3.54521506,20.3724248 0.860202284,11.1905449 0.860202284,11.1905449 L4.66031007,10.3968041 C4.66031007,10.3968041 6.68221678,15.0160919 7.64428732,18.2137333 C8.113279,19.7714496 8.74096273,21.3022354 8.88123516,21.5474446 C9.0215076,21.7940712 15.4938761,26.6982553 16.199489,27.0582734 C16.9051018,27.4182916 19.6142018,28.3580239 20.9106591,29.6747832 C22.2071165,30.9901251 21.5751821,32.7930505 21.5751821,32.7930505 C18.827826,36.3294492 13.7510974,31.7328396 13.7510974,31.7328396 C13.7510974,31.7328396 6.47676726,26.0816888 4.76657707,22.7508123" id="Fill-103" fill="#B08814"></path>
                    <path d="M11.1029238,29.5486351 C11.1029238,29.5486351 17.0992162,36.0998313 17.3060826,38.5278276 C17.4534395,40.2598834 18.5345291,33.3174864 18.5345291,33.3174864 L11.1029238,29.5486351" id="Fill-104" fill="#B08814"></path>
                    <g id="book" transform="translate(0.860202, 40.386031)">
                        <polyline id="Fill-89" fill="#E3E7E8" points="5.68434189e-14 4.47471362 45.7614024 1.53220318 46.0121925 28.2940239 4.83302299 28.2940239 5.68434189e-14 4.47471362"></polyline>
                        <polyline id="Fill-90" fill="#C9CFD1" points="1.9822337 1.98151715 45.7614024 1.53220318 46.0121925 28.2940239 4.83302299 28.2940239 1.9822337 1.98151715"></polyline>
                        <polygon id="Fill-105" fill="#0098C9" points="4.83302299 28.2940239 49.7216191 28.2940239 49.7216191 1.03739239e-12 4.83302299 1.03739239e-12"></polygon>
                    </g>
                    <path d="M43.603622,70.1017018 C43.603622,70.1017018 43.816156,69.5815181 43.7991532,69.3093784 C43.7991532,69.3093784 43.7283086,68.8161252 43.6999707,68.463194 C43.6914693,68.3498025 43.6858018,68.2520023 43.6900525,68.1882196 C43.7028045,67.9231668 43.8133222,67.3434526 43.6659653,66.694286 C43.5200253,66.0479543 42.7733225,63.8127235 42.7733225,63.8127235 L40.7556665,64.1132111 L39.0029695,63.8750889 C39.0029695,63.8750889 37.6965939,67.6892968 37.7631878,68.3086981 C37.7702723,68.3682286 37.7787737,68.4277592 37.7915257,68.4830376 C37.8992096,69.0018039 38.1967572,69.3433959 38.2831877,69.6084486 C38.3157762,69.7062488 38.7054219,70.6530682 38.9973019,70.7437814 C39.4025334,70.8699295 39.7340864,70.7933902 39.9593724,70.6091289 C39.9593724,70.6091289 40.7641678,70.8217381 41.2728325,70.5892854 C41.2728325,70.5892854 42.009617,70.8089815 42.5607885,70.3384066 C42.5607885,70.3384066 43.3315784,70.4773113 43.603622,70.1017018" id="Fill-106" fill="#EFAA88"></path>
                    <path d="M33.923407,34.2444622 C34.5014995,37.7227477 35.6491831,39.2081769 36.1096734,40.0203438 C36.5715806,40.8339281 39.4237868,46.2526263 39.4124516,47.053454 C39.3855307,49.1412757 39.433705,54.6521045 39.3685279,55.0730706 C39.2551765,55.7931069 38.7904355,64.0962024 38.7904355,64.0962024 L43.1955567,65.1635002 C43.1955567,65.1635002 44.0641123,55.8001939 44.4565917,52.971075 C44.6152838,51.8357422 44.9553382,48.7203096 44.5628587,45.6176336 C44.1845482,42.6226796 42.0152846,36.0048659 41.7248215,35.4775952 C41.4343583,34.951742 39.3076015,27.3360827 34.7919626,29.0851472 C34.1090201,29.3501999 33.3849876,31.0028816 33.923407,34.2444622 Z" id="Fill-107" fill="#B08814"></path>
                    <path d="M2.14957517,11.2118058 C2.14957517,11.2118058 3.18957484,12.3570603 3.599057,11.852468 C4.00853916,11.3478756 4.47469705,10.6320915 4.47469705,10.6320915 L2.14957517,11.2118058" id="Fill-91" fill="#EEA987"></path>
                    <path d="M29.4403567,17.0812353 C29.7180678,16.3484425 31.2794842,16.4405731 31.1193752,17.6042538 C30.9592663,18.7679345 29.6684765,20.5595208 29.1498936,20.2235984 C28.6313106,19.8876759 29.0592124,18.0932548 29.4403567,17.0812353" id="Fill-101" fill="#EEA886"></path>
                </g>
                <g id="Board-with-charts" transform="translate(41.626553, 104.224673)">
                    <rect id="Rectangle" fill="#008383" x="0.689771586" y="14.5661354" width="84.3716478" height="101" rx="5"></rect>
                    <path d="M18.7160268,46.7820892 C15.0962895,46.7820892 11.637653,45.1790163 9.2966619,42.4264367 C8.52516351,41.5193043 7.87565963,40.4888587 7.38045542,39.3478564 C7.27149633,39.0969776 7.1696217,38.8390118 7.07624844,38.5767939 C6.13514792,35.9446928 6.13996535,33.2048697 6.91500598,30.7272646 C8.03364323,27.1525963 10.756062,24.127877 14.5526275,22.7700133 C15.8062947,22.3221167 17.0837657,22.0882467 18.3455092,22.049977 C18.4686372,22.0457248 18.5913401,22.0443074 18.7140431,22.0443074 C23.7894965,22.0443074 28.5471408,25.1951748 30.3539631,30.2496027 C32.6528725,36.678903 29.3057455,43.7559525 22.8778674,46.0563833 C21.5023474,46.5482191 20.0976394,46.7820892 18.7160268,46.7820892 M18.7148932,25.1398965 C18.6227952,25.1398965 18.5299887,25.1413139 18.4377489,25.1441487 C17.491831,25.1724965 16.5338694,25.346836 15.5943275,25.6841759 C12.7477889,26.7018649 10.7068958,28.9696957 9.86837834,31.6499882 C9.2873104,33.5067747 9.2833431,35.5605789 9.98895596,37.5350091 C10.0592339,37.7306095 10.1356044,37.9233751 10.2175008,38.113306 C10.5881601,38.9679947 11.0757131,39.741892 11.6535222,40.4208238 C13.409053,42.4845498 16.0014009,43.6865001 18.71546,43.6865001 C19.7510673,43.6865001 20.8049525,43.5107432 21.8360258,43.1422207 C26.6553049,41.4186693 29.165048,36.1119453 27.4413973,31.2913875 C26.0864222,27.5012753 22.5198185,25.1398965 18.7148932,25.1398965" id="Clip-124" fill="#026A6A" opacity="0.8"></path>
                    <path d="M3.29994446,7.43763455 C1.47753632,7.43763455 2.27373675e-13,5.95957583 2.27373675e-13,4.13638162 L2.27373675e-13,3.30125293 C2.27373675e-13,1.47805872 1.47753632,0 3.29994446,0 L81.8294589,0 C83.5890253,0 85.0270942,1.37788113 85.1241791,3.11392425 L85.1294033,3.30125293 L85.1294033,4.13638162 C85.1294033,5.89670707 83.7520092,7.33528908 82.0167072,7.4324085 L81.8294589,7.43763455 L3.29994446,7.43763455 Z" id="Path" fill="#008383"></path>
                    <g id="Group-2" transform="translate(7.146995, 23.988972)">
                        <g id="Chart" opacity="0.8" transform="translate(0.444361, 32.786355)">
                            <polyline id="Fill-130" fill="#00A9A8" points="45.9723778 14.0265334 58.9302919 14.7579089 69.259444 0.506009745 68.5609156 -7.81597009e-13 58.5080577 13.8706201 45.6011517 13.1420794 30.8019848 30.0246622 15.3086818 26.6668553 -9.23705556e-14 41.1157722 0.591836324 41.7436778 15.5699569 27.6051703 31.1156849 30.9757338 45.9723778 14.0265334"></polyline>
                            <path d="M33.2065944,30.0133231 C33.475379,31.2549604 32.6870196,32.4795891 31.4455377,32.748894 C30.2040558,33.0181989 28.97986,32.2287103 28.7110754,30.9870729 C28.4422907,29.7454356 29.2306501,28.520807 30.472132,28.251502 C31.7136139,27.9821971 32.9378097,28.7716857 33.2065944,30.0133231" id="Fill-131" fill="#00B2B1"></path>
                            <path d="M48.0301319,13.2427144 C48.2989166,14.4857692 47.5104154,15.7089804 46.2689335,15.9782853 C45.0275933,16.2475902 43.8032559,15.4581016 43.5346129,14.2164643 C43.2656865,12.9748269 44.0541877,11.7501983 45.2955279,11.4808934 C46.5370098,11.2130059 47.7613472,12.0010771 48.0301319,13.2427144" id="Fill-132" fill="#00B2B1"></path>
                            <path d="M60.8430979,13.7558111 C61.1108907,14.9988659 60.323098,16.2234945 59.0818995,16.491382 C57.840701,16.7606869 56.6165052,15.9711983 56.3472955,14.729561 C56.0780857,13.4879236 56.8672953,12.263295 58.1084938,11.9939901 C59.3496923,11.7261026 60.5738881,12.5141738 60.8430979,13.7558111" id="Fill-133" fill="#00B2B1"></path>
                            <path d="M17.6747519,26.8624557 C17.9435365,28.104093 17.1550354,29.3287217 15.9136952,29.5980266 C14.6722133,29.8659141 13.4478758,29.0778429 13.1790912,27.8362055 C12.9103065,26.5931508 13.6988076,25.3685222 14.9401478,25.1006346 C16.1816297,24.8313297 17.4058255,25.6194009 17.6747519,26.8624557" id="Fill-134" fill="#00B2B1"></path>
                        </g>
                        <g id="Bar-chart" transform="translate(31.444361, 0.000000)">
                            <path d="M2.79042963,7.27548465 L2.79042963,22.7931168 L-1.45661261e-13,22.7931168 L-1.45661261e-13,7.27548465 L2.79042963,7.27548465 Z M7.68990492,3.13811085 L7.68990492,22.7931168 L4.89933359,22.7931168 L4.89933359,3.13811085 L7.68990492,3.13811085 Z M12.8312439,5.30247186 L12.8312439,22.7931168 L10.0406726,22.7931168 L10.0406726,5.30247186 L12.8312439,5.30247186 Z M18.1137054,10.3271345 L18.1137054,22.7931168 L15.3231341,22.7931168 L15.3231341,10.3271345 L18.1137054,10.3271345 Z M23.4913822,12.3823561 L23.4913822,22.7931168 L20.7006692,22.7931168 L20.7006692,12.3823561 L23.4913822,12.3823561 Z M28.3909992,4.72559241 L28.3909992,22.7931168 L25.5997194,22.7931168 L25.5997194,4.72559241 L28.3909992,4.72559241 Z M33.531488,8.03946015 L33.531488,22.7931168 L30.7416251,22.7931168 L30.7416251,8.03946015 L33.531488,8.03946015 Z M38.815083,-3.17612603e-12 L38.815083,22.7931168 L36.0238033,22.7931168 L36.0238033,-3.17612603e-12 L38.815083,-3.17612603e-12 Z" id="Combined-Shape" fill="#026A6A" opacity="0.8"></path>
                            <path d="M23.4913822,17.2468531 L23.4913822,22.7931168 L20.7006692,22.7931168 L20.7006692,17.2468531 L23.4913822,17.2468531 Z M28.3909992,14.5268736 L28.3909992,22.7931168 L25.5997194,22.7931168 L25.5997194,14.5268736 L28.3909992,14.5268736 Z M33.531488,15.4155798 L33.531488,22.7931168 L30.7416251,22.7931168 L30.7416251,15.4155798 L33.531488,15.4155798 Z M38.815083,5.85383822 L38.815083,22.7931168 L36.0238033,22.7931168 L36.0238033,5.85383822 L38.815083,5.85383822 Z M2.79042963,12.9521486 L2.79042963,22.7931168 L2.48689958e-14,22.7931168 L2.48689958e-14,12.9521486 L2.79042963,12.9521486 Z M7.68990492,10.3271345 L7.68990492,22.7931168 L4.89933359,22.7931168 L4.89933359,10.3271345 L7.68990492,10.3271345 Z M12.8312439,11.7005895 L12.8312439,22.7931168 L10.0406726,22.7931168 L10.0406726,11.7005895 L12.8312439,11.7005895 Z M18.1137054,15.0343007 L18.1137054,22.7931168 L15.3231341,22.7931168 L15.3231341,15.0343007 L18.1137054,15.0343007 Z" id="Combined-Shape" fill="#00A2A2"></path>
                        </g>
                    </g>
                </g>
                <g id="code" transform="translate(96.626553, 57.216662) scale(1, -1) translate(-96.626553, -57.216662) translate(41.626553, 35.716662)" fill="#009392">
                    <path d="M85.7402998,40.2449825 L85.7402998,42.5081404 L33.2499172,42.5081404 L33.2499172,40.2449825 L85.7402998,40.2449825 Z M72.8475697,31.6847135 L72.8475697,33.9478713 L38.7754388,33.9478713 L38.7754388,31.6847135 L72.8475697,31.6847135 Z M103.234945,25.1467018 L103.234945,27.4098596 L47.9843344,27.4098596 L47.9843344,25.1467018 L103.234945,25.1467018 Z M109.684073,18.6086901 L109.684073,20.871848 L57.1932299,20.871848 L57.1932299,18.6086901 L109.684073,18.6086901 Z M100.475177,12.0701754 L100.475177,14.3333333 L47.9843344,14.3333333 L47.9843344,12.0701754 L100.475177,12.0701754 Z M91.2658213,5.53216374 L91.2658213,7.79532164 L38.7754388,7.79532164 L38.7754388,5.53216374 L91.2658213,5.53216374 Z M85.7402998,-6.43929354e-15 L85.7402998,2.26315789 L33.2499172,2.26315789 L33.2499172,-6.43929354e-15 L85.7402998,-6.43929354e-15 Z" id="Combined-Shape" opacity="0.4"></path>
                    <path d="M29.555482,40.2449825 L29.555482,42.5081404 L13.8541322,42.5081404 L13.8541322,40.2449825 L29.555482,40.2449825 Z M35.0975967,31.6847135 L35.0975967,33.9478713 L19.3962469,33.9478713 L19.3962469,31.6847135 L35.0975967,31.6847135 Z M44.3341466,25.1467018 L44.3341466,27.4098596 L28.6327968,27.4098596 L28.6327968,25.1467018 L44.3341466,25.1467018 Z M53.5706965,18.6086901 L53.5706965,20.871848 L37.8693467,20.871848 L37.8693467,18.6086901 L53.5706965,18.6086901 Z M44.3341466,12.0701754 L44.3341466,14.3333333 L28.6327968,14.3333333 L28.6327968,12.0701754 L44.3341466,12.0701754 Z M35.0975967,5.53216374 L35.0975967,7.79532164 L19.3962469,7.79532164 L19.3962469,5.53216374 L35.0975967,5.53216374 Z M29.555482,-6.43929354e-15 L29.555482,2.26315789 L13.8541322,2.26315789 L13.8541322,-6.43929354e-15 L29.555482,-6.43929354e-15 Z" id="Combined-Shape" opacity="0.6"></path>
                    <path d="M6.23391417,40.2449825 L6.23391417,42.5081404 L-3.87245791e-13,42.5081404 L-3.87245791e-13,40.2449825 L6.23391417,40.2449825 Z M6.23391417,31.6847135 L6.23391417,33.9478713 L-3.87245791e-13,33.9478713 L-3.87245791e-13,31.6847135 L6.23391417,31.6847135 Z M6.23391417,25.1467018 L6.23391417,27.4098596 L-3.87245791e-13,27.4098596 L-3.87245791e-13,25.1467018 L6.23391417,25.1467018 Z M6.23391417,18.6086901 L6.23391417,20.871848 L-3.87245791e-13,20.871848 L-3.87245791e-13,18.6086901 L6.23391417,18.6086901 Z M6.23391417,12.0701754 L6.23391417,14.3333333 L-3.87245791e-13,14.3333333 L-3.87245791e-13,12.0701754 L6.23391417,12.0701754 Z M6.23391417,5.53216374 L6.23391417,7.79532164 L-3.87245791e-13,7.79532164 L-3.87245791e-13,5.53216374 L6.23391417,5.53216374 Z M6.23391417,-6.43929354e-15 L6.23391417,2.26315789 L-3.87245791e-13,2.26315789 L-3.87245791e-13,-6.43929354e-15 L6.23391417,-6.43929354e-15 Z" id="Combined-Shape" opacity="0.8"></path>
                </g>
                <path d="M346.724678,64.7166617 L353.975099,71.7166617 L346.724678,78.7166617 L345.030654,77.0815054 L350.587052,71.7166617 L345.030654,66.3518179 L346.724678,64.7166617 Z M286.238216,64.7166617 L287.858587,66.3518179 L282.543772,71.7166617 L287.863988,77.0815054 L286.243617,78.7166617 L279.308432,71.7166617 L286.238216,64.7166617 Z M293.092383,70.1611061 L293.092383,72.1055506 L290.975099,72.1055506 L290.975099,70.1611061 L293.092383,70.1611061 Z M301.863988,70.1611061 L301.863988,72.1055506 L299.746704,72.1055506 L299.746704,70.1611061 L301.863988,70.1611061 Z M297.62942,70.1611061 L297.62942,72.1055506 L295.512136,72.1055506 L295.512136,70.1611061 L297.62942,70.1611061 Z M306.314605,70.1611061 L306.314605,72.1055506 L304.197321,72.1055506 L304.197321,70.1611061 L306.314605,70.1611061 Z M315.08621,70.1611061 L315.08621,72.1055506 L312.968926,72.1055506 L312.968926,70.1611061 L315.08621,70.1611061 Z M310.851642,70.1611061 L310.851642,72.1055506 L308.734358,72.1055506 L308.734358,70.1611061 L310.851642,70.1611061 Z M319.536827,70.1611061 L319.536827,72.1055506 L317.419543,72.1055506 L317.419543,70.1611061 L319.536827,70.1611061 Z M328.308432,70.1611061 L328.308432,72.1055506 L326.191148,72.1055506 L326.191148,70.1611061 L328.308432,70.1611061 Z M324.073864,70.1611061 L324.073864,72.1055506 L321.95658,72.1055506 L321.95658,70.1611061 L324.073864,70.1611061 Z M332.759049,70.1611061 L332.759049,72.1055506 L330.641766,72.1055506 L330.641766,70.1611061 L332.759049,70.1611061 Z M341.530654,70.1611061 L341.530654,72.1055506 L339.41337,72.1055506 L339.41337,70.1611061 L341.530654,70.1611061 Z M337.296087,70.1611061 L337.296087,72.1055506 L335.178803,72.1055506 L335.178803,70.1611061 L337.296087,70.1611061 Z" id="Combined-Shape" fill="#00A2A2" opacity="0.6"></path>
                <g id="men4" transform="translate(0.500000, 140.867006)">
                    <path d="M4.06356834,53.7641772 C4.06356834,53.7641772 4.496996,54.4757091 4.55126301,55.0554233 C4.59433656,55.5132417 4.98001492,56.1992605 5.14706663,56.5791222 C5.31426004,56.9575664 5.85168766,58.6726135 5.87095741,59.1190926 C5.87889201,59.3005191 5.47196026,60.4514432 5.52962782,60.8185483 C5.58715369,61.1870708 5.79770403,61.9156115 5.46756789,61.9638029 C5.13729007,62.0134117 4.76294686,61.4152713 4.76294686,61.4152713 C4.76294686,61.4152713 4.79411852,61.7540285 4.51484885,61.8830114 C3.97161197,62.1353076 3.68384094,61.9127767 3.68384094,61.9127767 C3.68384094,61.9127767 3.48349223,62.2855514 3.23199367,62.3351602 C2.67727995,62.4457169 2.40566151,62.2246034 2.40566151,62.2246034 C2.40566151,62.2246034 2.16124742,62.4329604 1.77797778,62.4258734 C1.2878744,62.4159516 1.08185811,61.9921508 1.08185811,61.9921508 C1.08185811,61.9921508 0.460833789,62.1182989 0.280888342,61.827733 C0.100801206,61.5385846 0.131972858,61.2295927 0.0574442711,60.9673747 C-0.0172260049,60.7037394 0.0393080371,58.3324388 0.844386801,56.6258962 C1.64974894,54.9179361 0.639362343,53.2539153 0.639362343,53.2539153 L4.06356834,53.7641772" id="Fill-164" fill="#EEA886"></path>
                    <path d="M4.85022749,61.1927404 C4.85022749,61.1927404 4.90548633,59.0652317 4.34567179,58.6130829 C3.78599895,58.1595167 3.72238044,58.9277444 3.72238044,58.9277444 C3.72238044,58.9277444 3.79832592,58.1680211 3.18665309,58.0659687 C2.57498026,57.9639163 2.5491928,58.8653791 2.5491928,58.8653791 C2.5491928,58.8653791 2.44901844,58.2799952 1.80645734,58.4004738 C1.16389624,58.5209523 1.31692071,59.2665016 1.31692071,59.2665016 C1.31692071,59.2665016 0.70326423,58.5351262 0.305258906,59.2381538 C-0.367056957,60.4259301 0.280888342,61.827733 0.280888342,61.827733 C0.280888342,61.827733 0.470326974,62.1494815 1.08185811,61.9921508 C1.08185811,61.9921508 1.49091521,62.8170742 2.40566151,62.2246034 C2.40566151,62.2246034 3.34251135,62.7405349 3.68384094,61.9127767 C3.68384094,61.9127767 4.71647277,62.4046125 4.85022749,61.1927404" id="Fill-165" fill="#DB9C7C"></path>
                    <path d="M11.2781056,23.1172789 C11.2781056,23.1172789 7.63753996,35.2558432 6.40725152,39.7333916 C6.02143148,41.1380293 5.08769881,54.5479962 4.92291412,55.0880234 C4.75812943,55.6280506 0.140190839,56.3679304 0.140190839,56.3679304 C0.140190839,56.3679304 0.699721996,39.5916522 0.751863669,38.6760155 C0.804147031,37.7617962 5.84729529,19.0266791 7.31392153,18.357669 C8.41272227,17.8573288 8.99279838,18.271208 10.3773865,19.3002362 C12.3206556,20.7431435 11.2781056,23.1172789 11.2781056,23.1172789" id="Fill-166" fill="#008AB6"></path>
                    <path d="M56.4113991,3.79394316 C56.4113991,3.79394316 56.3317697,4.26593544 56.1964564,4.45444887 C56.1964564,4.45444887 55.9238462,4.78044955 55.7440424,5.02282397 C55.687225,5.10078065 55.639334,5.16881557 55.6132632,5.21700698 C55.5034539,5.41544217 55.3222333,5.88459967 54.924653,6.28713963 C54.5280646,6.6896796 52.9820923,7.9695866 52.9820923,7.9695866 L51.6575805,6.84559296 L50.2824856,6.22902647 C50.2824856,6.22902647 51.0524254,2.88114126 51.3788776,2.46300996 C51.4110411,2.42190553 51.4441964,2.38363589 51.4782018,2.34961842 C51.7890682,2.02220035 52.1576021,1.90880881 52.340098,1.75573024 C52.4075421,1.70045186 53.1148552,1.19018993 53.3670622,1.25539007 C53.7170349,1.34752069 53.9229095,1.55162547 54.0026806,1.78691291 C54.0026806,1.78691291 54.6802389,1.99526986 54.9442061,2.39214025 C54.9442061,2.39214025 55.5754321,2.56506235 55.7628871,3.15328096 C55.7628871,3.15328096 56.383628,3.39849016 56.4113991,3.79394316" id="Fill-167" fill="#EFAA88"></path>
                    <path d="M8.32402475,105.99799 C8.32402475,105.99799 7.99218835,108.302673 7.95081506,108.648517 C7.90930009,108.994361 4.25881623,108.444412 4.25881623,108.444412 L3.9632523,105.701754 C3.9632523,105.701754 7.86778512,105.673407 8.32402475,105.99799" id="Fill-170" fill="#424773"></path>
                    <path d="M7.98949625,108.355116 C7.98949625,108.355116 9.14610624,109.744163 10.2647435,110.34939 C11.3833807,110.954617 13.1413202,111.194157 13.802726,111.820645 C14.280219,112.272794 15.5419625,114.220294 10.8959694,114.180607 C6.24997637,114.14092 4.00986808,114.455581 3.51211347,113.710032 C3.01435886,112.963065 4.23232033,108.199203 4.23232033,108.199203 C4.23232033,108.199203 5.33267965,108.596073 7.98949625,108.355116" id="Fill-171" fill="#57646B"></path>
                    <path d="M34.4797331,105.99799 C34.4797331,105.99799 34.1478967,108.302673 34.1063817,108.648517 C34.0648667,108.994361 30.4145246,108.444412 30.4145246,108.444412 L30.1189606,105.701754 C30.1189606,105.701754 34.0234934,105.673407 34.4797331,105.99799" id="Fill-172" fill="#424773"></path>
                    <path d="M36.4204518,110.34939 C37.5390891,110.954617 41.6555891,111.452123 42.3171366,112.078611 C42.7946296,112.53076 43.5887983,114.350694 37.0515361,114.180607 C32.4072433,114.060128 30.1655764,114.455581 29.6678218,113.710032 C29.1700672,112.963065 30.3881703,108.199203 30.3881703,108.199203 C30.3881703,108.199203 31.4246278,108.623004 34.1452046,108.355116 C34.1452046,108.355116 35.3018146,109.744163 36.4204518,110.34939 Z" id="Fill-173" fill="#57646B"></path>
                    <path d="M29.4031461,47.5233903 C29.4031461,47.5233903 31.9879845,61.0297401 32.3291724,64.045955 C32.6703604,67.06217 32.8977717,78.6422809 33.0683657,80.5274153 C33.2391013,82.4125496 34.6620872,105.137632 35.1156348,107.995098 L29.0996476,107.995098 C29.0996476,107.995098 24.481709,91.4328466 24.481709,83.5974912 C24.481709,76.3706987 21.4477513,67.9855805 19.1694318,62.6692312 C17.7963835,68.0478165 14.2822796,79.8484863 13.4497779,81.8200788 C12.4260725,84.243823 8.47393206,107.995098 8.47393206,107.995098 L8.47393206,107.995098 L3.76828778,107.887376 C3.76828778,107.887376 3.31799909,98.0846778 3.40343776,95.0146018 C3.48859305,91.9459433 5.83950238,78.3588021 6.41376923,72.6197728 C6.92909332,67.4717969 8.42873317,62.0927858 8.17270055,57.164506 C8.02004873,54.2245389 9.17910892,51.0984441 10.1392011,49.0545435 C9.93341952,48.2860603 9.7587697,47.4408857 9.62076549,46.5057013 C9.62076549,46.5057013 27.4863729,44.4816623 29.4031461,47.5233903 Z" id="Combined-Shape" fill="#007373"></path>
                    <path d="M17.070507,0.9520677 C17.070507,0.9520677 21.6744183,-0.76864891 23.7972079,2.73798445 C25.9201391,6.24320041 25.715398,13.2621367 23.3949519,14.1253298 C21.0742223,14.9885229 17.5882398,14.5362427 16.4001748,12.3436652 C15.2121098,10.1495389 14.1393799,6.97741063 14.1909548,4.85840623 C14.242388,2.73940184 15.8617553,1.56438201 17.070507,0.9520677" id="Fill-176" fill="#EEA886"></path>
                    <path d="M22.8950719,14.2854953 C22.8950719,14.2854953 22.7036496,15.5285501 23.0201836,16.1422818 C23.3368592,16.7545961 17.0556296,16.7701875 17.0556296,16.7701875 C17.0556296,16.7701875 16.5456897,13.4378936 15.5789434,10.6229486 C14.6123388,7.80800365 22.8950719,14.2854953 22.8950719,14.2854953" id="Fill-177" fill="#EEA886"></path>
                    <path d="M18.0107574,0.402118734 C23.5930846,-1.54970285 25.8134794,4.18463011 24.8572044,5.19055221 L24.8067443,5.2368505 C23.9968835,5.88105618 24.197064,7.22687201 24.3477705,7.85951708 L24.4427444,8.20203925 L23.6579272,8.15243045 L23.1953116,7.4763334 L23.1886783,7.52365169 C23.1632558,7.64330244 23.0405868,7.96306658 22.449459,8.16943919 C21.7105491,8.42882233 19.5517705,10.7831142 17.7820708,11.0609234 C16.0125128,11.3387327 15.5789434,10.6229486 15.5789434,10.6229486 C15.4295637,10.4338512 15.2881687,10.2074427 15.1552478,9.95067582 C10.6165434,2.49707423 14.885682,1.49650639 15.6476343,1.37999458 L15.7593139,1.36594682 C16.8581633,0.719939997 18.0107574,0.402118734 18.0107574,0.402118734 Z" id="Path" fill="#28353B"></path>
                    <path d="M23.3931099,16.0671599 C23.3931099,16.0671599 23.3731317,14.8978097 22.8429302,14.7858355 C22.3125871,14.6738614 16.9894607,14.1607646 16.3385399,14.417313 L16.3385399,15.7808463 C16.3385399,15.7808463 17.5926322,16.5519087 23.3931099,16.0671599" id="Fill-179" fill="#E2D2CA"></path>
                    <path d="M23.0781345,6.57487066 C22.978952,6.15957415 21.9215245,4.97038038 21.5167181,6.24320041 C21.11177,7.51602044 22.1283909,9.22823268 22.6954316,9.08082368 C23.2624723,8.93483208 23.3297748,7.62941198 23.0781345,6.57487066" id="Fill-180" fill="#EEA886"></path>
                    <path d="M32.1975431,17.8403201 C28.5477677,17.3584061 23.3929682,16.0671599 23.3929682,16.0671599 L16.3383982,15.7808463 C16.3383982,15.7808463 9.86376268,17.2067449 7.31392153,18.357669 C7.07205785,18.4668084 7.07106602,24.1363853 6.40725152,25.6232319 L8.52139799,30.0837716 C8.52139799,30.0837716 9.74261831,38.9226421 9.99595883,42.8530763 C10.1122858,44.6574192 7.47743102,59.7725114 7.47743102,59.7725114 C7.47743102,59.7725114 10.3007326,60.6045218 15.1154776,61.1346273 C19.930081,61.6661501 31.9600717,60.943279 32.0357338,60.3734865 C32.1119627,59.8051115 29.7060779,39.191947 29.5996692,38.1246491 C29.4361597,36.4861414 30.1641595,27.7790885 30.1641595,27.7790885 C31.275854,26.9173128 41.0362651,22.384486 43.6990326,20.0231072 C44.4117299,19.3909494 47.4193693,16.4611955 48.2743227,15.449176 C51.3019403,11.8674208 53.7840539,8.79592744 54.0859939,8.13258693 C54.4290237,7.75697746 50.7962511,5.78112989 50.4666817,5.67057313 C50.1783439,5.57419033 46.085931,10.879497 44.5104874,12.5860396 C43.8081334,13.3471804 40.8883414,15.4718543 40.8883414,15.4718543 C40.8883414,15.4718543 34.4805832,17.9707204 32.1975431,17.8403201" id="Fill-182" fill="#008AB6"></path>
                </g>
                <g id="men3" transform="translate(102.126553, 147.000000)">
                    <path d="M23.6464067,108.972584 C23.6464067,108.972584 22.4108758,110.822283 20.6765984,111.221989 C18.9437379,111.621694 17.2349646,112.258104 17.2221884,113.352332 C17.2094606,114.44656 22.235181,115.099979 24.2188316,113.995829 C27.1815555,112.348817 27.4819369,112.846322 27.8106561,112.022816 C28.1379585,111.19931 27.4153429,108.998097 27.4365963,108.735879 C27.4635173,108.412713 23.6464067,108.972584 23.6464067,108.972584" id="Fill-184" fill="#616D73"></path>
                    <path d="M23.8391042,108.059782 C23.8391042,108.059782 23.6138182,108.954158 23.6464067,108.972584 C23.6804122,108.99101 27.5541984,109.453081 27.4365963,108.735879 C27.3416644,108.154747 27.2070596,107.52259 27.2070596,107.52259 L23.8391042,108.059782" id="Fill-185" fill="#81807E"></path>
                    <path d="M36.6832418,108.849271 C36.6832418,108.849271 35.8019342,110.619596 34.2957767,111.221989 C32.684769,111.866903 31.3939792,112.606783 31.423734,113.674081 C31.4520718,114.739961 35.3598635,115.821433 38.2021514,113.774716 C39.9987721,112.480635 40.5669463,112.474965 40.8559926,111.659963 C41.1436219,110.846379 40.3558292,108.730209 40.3657475,108.473661 C40.3799164,108.157582 36.6832418,108.849271 36.6832418,108.849271" id="Fill-186" fill="#616D73"></path>
                    <path d="M36.6393182,107.930799 C36.6393182,107.930799 36.6506533,108.832262 36.6832418,108.849271 C36.7172473,108.866279 40.4606793,109.175271 40.3657475,108.473661 C40.2906521,107.916625 40.0030228,107.243363 40.0030228,107.243363 L36.6393182,107.930799" id="Fill-187" fill="#81807E"></path>
                    <path d="M22.912456,53.8713827 C22.912456,53.8713827 19.433983,69.2203449 18.6391059,73.8949111 C17.9632478,77.8735368 17.4248283,82.0179976 17.74788,84.8896383 C18.1488608,88.4458804 23.1816658,106.877675 22.9719655,107.920877 C22.7608484,108.962662 28.237141,108.08813 28.237141,108.08813 C28.237141,108.08813 24.4101122,87.527409 25.1752346,83.7018619 C25.740575,80.8670734 30.7025353,62.0412431 31.463407,63.0064886 C32.2228618,63.9717341 33.1665127,80.7749428 33.7290194,83.5629573 C34.2929429,86.3523891 36.0215527,108.391452 36.0215527,108.391452 C36.0215527,108.391452 39.8868376,108.961245 40.9183359,108.08813 C40.9183359,108.08813 41.3887444,89.2693865 41.0302704,84.0406191 C40.8928318,82.0477628 43.3638937,60.146187 40.1957203,51.3285774 C38.5209524,46.6696025 22.912456,53.8713827 22.912456,53.8713827" id="Fill-188" fill="#007BA3"></path>
                    <path d="M7.7715344,39.9185538 C10.2510976,39.5712922 18.0510952,43.0268993 18.7595418,42.7660988 C19.2469531,42.5875071 20.390386,38.8583429 21.2079334,36.0363109 C21.691094,34.3680379 22.0594863,33.0158438 22.1104944,32.9038696 L22.1133282,32.8982001 C22.1062438,32.973322 21.9801402,34.2489768 22.1402492,35.9257542 C22.1501674,36.0334761 22.1629195,36.1440329 22.1756715,36.256007 C22.1785053,36.2843549 22.182756,36.3141202 22.1855898,36.3438855 C22.2592682,36.9434432 22.3712028,37.5841054 22.5369793,38.2318546 C22.7849356,39.1885957 22.9025378,40.4472418 22.9464615,41.7753402 L22.9464615,41.7795924 L22.9478784,41.8107751 C22.9478784,41.8419577 22.9507121,41.871723 22.9507121,41.9029057 C22.9507121,41.9142448 22.952129,41.9270014 22.952129,41.9397579 C23.0201399,44.3564151 22.8543634,46.9615857 22.7849356,48.3477973 C22.6758348,50.496567 23.3814477,51.4632299 23.4027011,51.4901604 L23.4027011,51.4915777 L24.1508208,51.3866906 L24.6906571,51.3101513 L24.6963247,51.3087339 L25.4175234,51.2080989 L28.2470592,50.8098111 L29.2714731,50.6652369 L29.5137618,50.6312194 L31.3047149,50.3789233 L36.3573564,49.6688087 L36.9127786,49.5908521 L37.1408984,49.558252 L39.0466198,49.2889471 L39.9066741,49.1684686 L39.9095079,49.1684686 C39.9095079,49.1684686 40.6420417,43.9793883 40.6973005,41.1743651 C40.7483087,38.5975423 42.1269458,33.3673576 42.3522319,32.5296776 L42.3564826,32.5126688 L42.3621501,32.4899905 C42.3664008,32.4758166 42.3692346,32.46306 42.3734853,32.4531383 L42.377736,32.4347121 L42.3791528,32.43046 L42.3805697,32.4247904 L42.3819866,32.4148686 C42.3819866,32.4148686 46.506563,36.7492602 47.3056908,38.6400641 C47.5508133,39.2141088 48.2960992,40.7746599 49.2454177,42.6753856 C49.8957717,41.4351656 50.3024201,40.5733899 50.3024201,40.357946 C50.3024201,40.3310155 50.3024201,40.3026676 50.3010032,40.2729023 C50.2400768,38.4033593 48.2819303,30.8217175 46.7360997,25.8679246 C45.5359911,23.4541022 44.5002421,21.5023504 44.1686891,21.2642281 C43.6642751,20.9027926 41.5474365,19.9956603 39.6998076,19.2628674 C39.6388812,19.2387717 39.5793717,19.214676 39.5198622,19.1919977 C39.3484181,19.1225454 39.1783909,19.0573453 39.0126144,18.9921451 C38.9304346,18.9609625 38.8496717,18.9283624 38.7689088,18.8985971 C38.7249851,18.8815884 38.6810614,18.8645797 38.6385546,18.8489883 C38.6031322,18.8348144 38.5677099,18.8220578 38.5322876,18.8078839 C37.6084732,18.4563701 36.9056941,18.2111609 36.761171,18.2026566 C36.7370838,18.2012392 36.6988277,18.2026566 36.6464026,18.204074 C36.5854762,18.2054913 36.5061302,18.2083261 36.4126152,18.2154131 C35.2705992,18.2820306 31.8629709,18.6009443 30.7662955,18.7058315 C30.5665135,18.7242576 30.4432438,18.7355968 30.4248242,18.7384316 L30.4219904,18.7384316 C30.4219904,18.7384316 29.8991568,18.9765538 29.112781,19.3351546 L29.112781,19.336572 L29.0391026,19.369172 C28.5644433,19.5874507 28.0132718,19.8780166 27.4323456,20.1969303 C26.2917465,20.8220011 25.0335453,21.5519592 23.987878,22.0494645 C22.9648811,22.5370482 21.5621567,23.21598 21.4431377,23.3109454 L16.2544745,38.280046 L7.25153457,36.6344513 L7.7715344,39.9185538" id="Fill-189" fill="#C9CFD1"></path>
                    <path d="M23.4027011,51.4901604 C23.4027011,51.4901604 23.0229737,51.9451439 22.912456,53.8713827 C22.912456,53.8713827 38.5436227,52.0471963 40.1957203,51.3285774 C40.1957203,51.3285774 40.2608974,49.2053208 39.9095079,49.1684686 C39.5255298,49.1287815 23.4027011,51.4901604 23.4027011,51.4901604" id="Fill-190" fill="#616D73"></path>
                    <path d="M36.7328331,17.6725511 C36.6832418,20.1260605 31.9338156,21.4697503 31.9338156,21.4697503 C31.9338156,21.4697503 29.9473312,18.9779712 30.4219904,18.7384316 C30.6076034,18.6448836 30.6841157,18.2735263 30.706786,17.8568124 C30.7280394,17.4585246 30.7025353,17.0219672 30.679865,16.7427405 C30.6656961,16.5698184 30.652944,16.4578442 30.652944,16.4578442 C30.652944,16.4578442 31.3316359,15.7420602 32.1945239,14.8887888 C33.7035153,13.3962727 35.777847,11.4842078 35.7806808,12.2453486 C35.7806808,12.2850356 35.7750133,12.333227 35.7636781,12.3885054 C35.3981196,14.1007176 36.7328331,17.6725511 36.7328331,17.6725511" id="Fill-191" fill="#EEA886"></path>
                    <path d="M36.3389368,49.5454954 C36.3389368,49.5454954 36.6789912,51.6970999 36.7087459,52.258388 L37.4327784,52.1138138 C37.4327784,52.1138138 37.2329964,49.8374787 37.1153943,49.4547822 L36.3389368,49.5454954" id="Fill-192" fill="#007BA3"></path>
                    <path d="M24.7062429,51.2392816 C24.7062429,51.2392816 24.4327825,53.1952856 24.4256981,53.933748 L25.1908204,53.8345304 C25.1908204,53.8345304 25.3480956,51.3923601 25.4345261,51.1372292 L24.7062429,51.2392816" id="Fill-193" fill="#007BA3"></path>
                    <path d="M34.9036239,14.0766219 L34.902207,14.0780393 C34.8937056,14.0922133 34.6925068,14.3927008 34.3482017,14.8264235 C33.6185017,15.7434775 32.2483659,17.2501676 30.706786,17.8568124 C30.7280394,17.4585246 30.7025353,17.0219672 30.679865,16.7427405 C30.5225899,16.7384883 30.3638978,16.7214796 30.2080395,16.6860447 C30.6302737,15.9475823 31.2409547,15.1736851 31.2409547,15.1736851 L32.1945239,14.8887888 L34.9036239,14.0766219" id="Fill-194" fill="#A77860"></path>
                    <path d="M35.8146863,12.2779486 C35.4037872,13.1723244 35.0141416,13.8200736 34.9036239,14.0766219 L34.902207,14.0780393 C34.8313623,14.2438744 34.6344142,14.5174315 34.3482017,14.8264235 C33.5646597,15.669773 32.1109272,16.7824275 30.679865,16.7427405 C30.5225899,16.7384883 30.3638978,16.7214796 30.2080395,16.6860447 C29.631364,16.5598966 28.9484214,16.2920091 28.5729447,15.5563815 C25.6102208,9.75356947 27.7553973,5.00671615 27.7553973,5.00671615 C27.7553973,5.00671615 35.85861,2.71478966 37.1253126,5.15554255 C38.0151215,6.8663374 36.7795906,10.1773704 35.8146863,12.2779486" id="Fill-195" fill="#EEA886"></path>
                    <path d="M27.7553973,5.00671615 C27.7553973,5.00671615 27.0030269,4.96561172 26.8174139,3.53829572 C26.6332178,2.12798845 27.0044438,1.73678764 27.0044438,1.73678764 C27.0044438,1.73678764 30.3497289,0.336402125 31.5512544,0.154975661 C32.7527799,-0.0278681959 35.7055855,-0.202207688 36.3984463,0.590115694 C36.3984463,0.590115694 38.0802986,0.198914883 38.539372,2.99259894 C39.2662383,7.42337334 36.0612257,11.7265823 36.0612257,11.7265823 C36.0612257,11.7265823 36.0881467,8.83226322 35.4505447,8.44814938 C34.8115258,8.06403554 34.2617712,8.97683743 34.2617712,8.97683743 L32.9553956,9.21070748 C32.9553956,9.21070748 34.9390462,4.92734208 32.5600824,4.76859392 C30.1811186,4.60984577 29.1170317,5.25476015 27.7553973,5.00671615" id="Fill-196" fill="#222E33"></path>
                    <path d="M34.2971936,7.82307852 C34.4218802,6.5474237 36.7271655,6.05984008 36.5727242,7.39644285 C36.4182828,8.73446301 35.2833513,10.0186222 34.7576839,9.97326558 C34.2334334,9.92790897 34.2022617,8.79541097 34.2971936,7.82307852" id="Fill-197" fill="#EEA886"></path>
                    <path d="M42.3522319,32.5296776 L42.3564826,32.5126688 L42.3621501,32.4899905 L42.3734853,32.4531383 L42.377736,32.4347121 L42.3791528,32.43046 L42.3805697,32.4247904 C42.3805697,32.4247904 44.8133755,36.2276591 44.6291794,39.5316051 C44.6008415,40.0461192 44.089343,41.3458698 43.3454741,43.011308 L43.3440572,43.0141428 C43.0734306,43.6222049 42.7716323,44.277041 42.4514144,44.9602251 C42.4386624,44.9332946 42.4273272,44.9035293 42.4159921,44.8751814 C41.9512511,43.7398486 41.6480359,42.6739682 41.6480359,41.7427401 C41.6480359,41.7427401 41.8534854,34.494186 42.3522319,32.5296776 Z M50.3024201,40.357946 C50.3024201,40.3310155 50.3024201,40.3026676 50.3010032,40.2729023 C50.2570795,38.4076115 49.3389327,30.9393612 47.7931021,25.9869857 C47.0435655,23.5816677 46.8707046,21.9006381 46.5802414,21.6936986 C46.0772443,21.332263 41.5998615,20.0069994 39.6998076,19.2628674 C39.6388812,19.2387717 39.5793717,19.214676 39.5198622,19.1919977 C39.3484181,19.1225454 39.1783909,19.0573453 39.0126144,18.9921451 C38.9304346,18.9609625 38.8496717,18.9283624 38.7689088,18.8985971 C38.7249851,18.8815884 38.6810614,18.8645797 38.6385546,18.8489883 C38.6031322,18.8348144 38.5677099,18.8220578 38.5322876,18.8078839 L38.5223693,18.8192231 C38.353759,19.0077365 37.4738683,20.0069994 36.4253673,21.4995156 C34.464387,24.2903648 31.9083115,28.8076003 32.3007909,32.9804089 C32.4254775,34.3198465 32.5813358,36.2432505 32.8406273,38.4005245 C32.8632976,38.5862032 32.8873847,38.7718818 32.910055,38.9589778 C32.9738152,39.4564832 33.043243,39.9639104 33.1183383,40.4770071 C33.1636789,40.7845816 33.2118533,41.094991 33.2614446,41.4068177 C33.7800275,44.6427288 35.4094548,46.8481942 36.8546859,49.4859649 C36.867438,49.5072258 36.8787731,49.5299041 36.8915252,49.5525824 C36.8986096,49.565339 36.9056941,49.5780955 36.9127786,49.5908521 C36.9425333,49.6461304 36.973705,49.7028262 37.0048766,49.759522 C37.0544679,49.8516526 37.1026423,49.9452006 37.1522335,50.0387486 C37.1805714,50.0926096 37.2089093,50.1464706 37.2358302,50.2003316 C37.5135413,50.7318544 37.7841679,51.2747164 38.0462932,51.8204132 C38.2163204,52.171927 38.3835138,52.5248581 38.5464565,52.8777893 C38.5634592,52.9146416 38.5790451,52.9500764 38.5960478,52.9869287 C38.5960478,52.9869287 38.8624237,53.60633 39.203895,54.4000707 C39.3299985,54.6920539 39.4646034,55.0067155 39.6006251,55.3242118 C39.6941401,55.5424905 39.7890719,55.7607692 39.8783362,55.9733783 C39.9590991,56.159057 40.0356114,56.3390661 40.1092898,56.5105708 C40.2736494,56.8932672 40.4167556,57.2291896 40.5159382,57.4630597 C40.5910335,57.6373992 40.6406248,57.7564603 40.6562106,57.7975647 C41.1535402,59.0420369 41.5134311,60.0030302 41.6792076,60.4509268 C41.7443847,60.6323532 41.779807,60.7301534 41.779807,60.7301534 L46.7800234,57.9690694 C47.7293419,57.4942424 47.2334292,54.9344284 46.8763721,53.933748 C46.5802414,53.103155 46.1622579,52.211614 45.6918493,51.2903078 C45.4991519,50.9132809 45.297953,50.5320018 45.0925035,50.147888 C46.6567537,47.4123171 48.2408404,44.5917026 49.2454177,42.6753856 C49.8957717,41.4351656 50.3024201,40.5733899 50.3024201,40.357946 L50.3024201,40.357946 Z" id="Fill-198" fill="#008AB6"></path>
                    <path d="M4.44948641,34.8471172 L15.7713139,37.3133831 L21.1696773,23.1933017 C21.2886963,23.0997537 22.8359438,22.2663259 23.8603576,21.7787422 C24.9272783,21.2698977 26.2761607,20.6434094 27.4734355,20.0906257 C28.0458604,19.825573 28.5842798,19.5789464 29.0391026,19.369172 L29.0773587,19.3989373 C29.0773587,19.3989373 28.4085851,21.6256637 27.5442802,27.1818491 L27.5428633,27.1832665 C27.5131085,27.3703625 27.4847707,27.5602933 27.4550159,27.7544764 C27.4521821,27.7771547 27.4493483,27.799833 27.4450976,27.8225113 C27.4252611,27.9500768 27.4054246,28.080477 27.387005,28.2122947 C27.3841712,28.227886 27.3813374,28.2434774 27.3799206,28.2590687 C27.3657516,28.3469472 27.3529996,28.4376604 27.3402475,28.5269562 C27.307659,28.7466523 27.2750704,28.9706006 27.2424819,29.1988011 C26.8570869,31.9031893 26.3158337,36.5054684 25.7958339,41.1531041 L25.7958339,41.1545215 C25.3849348,44.8170683 24.4483683,48.5759978 24.1508208,51.381021 L24.1508208,51.3866906 C24.0913112,51.9352221 23.9510388,52.668015 23.7611751,53.4943558 C23.7399217,53.5879038 23.7172514,53.6828692 23.6945811,53.7792521 C22.8571972,57.3184855 21.2306037,62.3303915 21.2306037,62.3303915 L20.7573613,61.8924167 L19.354637,60.5969184 C19.0315853,60.2992656 18.9097325,59.8428646 19.0400867,59.4233159 C19.8179611,56.9131107 22.461884,48.0274662 22.9464615,41.7795924 L22.9464615,41.7753402 C23.098069,39.8122492 22.5242273,37.9625497 22.1926742,36.2106504 C22.1855898,36.2248244 22.1813391,36.2404157 22.1756715,36.256007 C21.8965435,37.0299043 21.5890777,37.8732539 21.2773612,38.6925077 C20.442811,40.893721 19.5898413,42.9347687 19.2342011,43.0637516 C18.4421577,43.3557348 3.53388997,39.2778916 3.43074014,38.6925077 L4.44948641,34.8471172" id="Fill-199" fill="#008AB6"></path>
                    <path d="M29.112781,19.336572 C29.112781,19.336572 28.2484761,22.1571865 27.2424819,29.1973837 C26.8570869,31.9031893 26.3158337,36.5068858 25.7958339,41.1531041 L25.2574144,27.8551114 L26.3583405,26.6630828 L25.3792672,25.4398716 L27.4734355,20.0906257 C28.0458604,19.825573 28.5842798,19.5789464 29.0391026,19.369172 L29.112781,19.336572" id="Fill-201" fill="#2CA9D2"></path>
                    <path d="M38.6484728,18.8362318 L36.7328331,17.6725511 C36.7328331,17.6725511 36.6789912,18.7242576 31.9338156,21.4697503 L33.2812811,25.2655321 L38.6484728,18.8362318" id="Fill-202" fill="#E3E7E8"></path>
                    <path d="M30.6713636,18.2026566 C30.6713636,18.2026566 30.746459,19.336572 31.9338156,21.4697503 L29.3040616,24.898427 L29.112781,19.336572 L30.6713636,18.2026566" id="Fill-203" fill="#E3E7E8"></path>
                    <path d="M29.3068954,50.8806808 C29.020683,49.4420257 29.2927265,45.1303124 29.3040616,44.9474685 L29.5491842,44.9630599 C29.5463504,45.0069991 29.2672224,49.4250169 29.5463504,50.8324894 L29.3068954,50.8806808" id="Fill-205" fill="#AFB6B9"></path>
                    <path d="M31.3018812,50.2173403 C31.3018812,50.2173403 29.0022634,50.4923148 28.2413917,50.6822456 L28.3405742,53.2604858 L31.3528893,52.9387373 L31.3018812,50.2173403" id="Fill-206" fill="#959EA2"></path>
                    <path d="M30.798884,23.7942768 C30.798884,23.7942768 28.2328903,30.2746033 28.6522907,37.5274097 C29.0858601,45.0481035 29.7971405,47.77517 29.7971405,47.77517 L31.3783934,49.759522 L32.0769218,47.3201865 C32.0769218,47.3201865 29.9544156,37.7329318 31.3245515,28.4022255 C31.5725078,26.7126916 31.9409,23.5079632 31.9409,23.5079632 L30.798884,23.7942768" id="Fill-207" fill="#B08814"></path>
                    <path d="M38.5067835,54.3972359 C38.5067835,54.3972359 37.9570289,55.4985513 37.4058574,55.6828125 C36.8561028,55.8656564 36.0527243,56.7614495 36.0527243,56.7614495 L39.9293444,58.8024972 C39.9293444,58.8024972 40.9608427,56.7841278 41.0061833,55.4985513 C41.0529407,54.2143921 38.5067835,54.3972359 38.5067835,54.3972359" id="Fill-208" fill="#EEA886"></path>
                    <path d="M38.1383913,54.5007057 L37.8819336,55.0180546 C37.8819336,55.0180546 40.3430772,56.8181453 41.0076001,56.9329542 L41.2343031,56.245518 L38.1383913,54.5007057" id="Fill-209" fill="#DECBC4"></path>
                    <path d="M37.8819336,54.523384 C37.8819336,54.523384 39.7267286,56.0499176 41.2810606,56.7529452 L46.5093968,47.3456996 L43.8002968,42.1070105 C43.8002968,42.1070105 38.0037864,53.60633 37.8819336,54.523384" id="Fill-210" fill="#008AB6"></path>
                    <path d="M22.2649358,32.9237132 C22.1799222,34.6628559 22.1926742,36.209233 22.1926742,36.209233 L22.1926742,36.2106504 C22.1912573,36.2191548 22.1898405,36.2659288 22.1855898,36.3438855 C22.182756,36.3141202 22.1785053,36.2843549 22.1756715,36.256007 C21.8965435,37.0299043 21.5890777,37.8732539 21.2773612,38.6925077 C21.2050996,37.7428536 21.18668,36.8569822 21.2079334,36.0363109 C21.33262,31.1576399 22.8671154,28.5978259 22.8671154,28.5978259 C22.514309,29.4496799 22.3456987,31.2738663 22.2649358,32.9237132" id="Fill-211" fill="#006D90"></path>
                    <path d="M45.6918493,51.2903078 L41.5063466,56.3475704 L45.0925035,50.147888 C45.297953,50.5320018 45.4991519,50.9132809 45.6918493,51.2903078" id="Fill-212" fill="#006D90"></path>
                    <path d="M15.2966546,44.9503033 L5.63301737,44.9503033 C4.97061976,44.9503033 4.39436926,44.4967372 4.23836931,43.8532402 L0.04096465,26.5156738 C-0.177661984,25.6127937 0.506414094,24.7425136 1.43561271,24.7425136 L11.0983998,24.7425136 C11.7615059,24.7425136 12.3381815,25.1960798 12.4940397,25.8409941 L16.6908776,43.1771431 C16.9090792,44.0800232 16.2247197,44.9503033 15.2966546,44.9503033" id="Fill-213" fill="#AFB6B9"></path>
                    <path d="M3.47664748,40.1311629 C3.94946477,39.6931881 4.86166067,39.4380571 5.64265225,38.916456 C6.42406889,38.3948549 5.77158953,37.8562451 5.77158953,37.8562451 C6.57425958,37.5812706 6.48782909,37.2141655 6.38439588,36.9647041 C6.24554034,36.6273643 5.36961691,36.7223297 5.36961691,36.7223297 C5.36961691,36.7223297 6.15485917,36.5494076 6.47932773,36.4062508 C6.8023794,36.263094 6.69186172,35.6989711 6.19453218,35.5203794 C5.69776939,35.3417877 3.67118693,35.8421279 3.67118693,35.8421279 C3.67118693,35.8421279 4.00160644,35.680545 5.00108297,35.1787874 C6.00055949,34.6770298 6.22003626,34.2206289 5.63060865,34.0009328 C5.2209848,33.8492716 4.41590604,34.1681853 2.87078392,35.2071353 C1.70737284,35.9895369 1.80202131,36.0901719 1.80202131,36.0901719 C1.80202131,36.0901719 2.91201551,40.6541814 3.47664748,40.1311629" id="Fill-214" fill="#EEA886"></path>
                    <path d="M37.2131599,24.898427 L34.9036239,26.2024297 L35.8897816,27.210197 L33.2614446,41.4082351 C32.7258589,38.0801934 32.4821533,34.9194043 32.3007909,32.9818263 C31.6957775,26.5298477 38.1313068,19.2543631 38.5322876,18.8078839 C38.8411703,18.9255276 39.1755571,19.0545105 39.5198622,19.1919977 L37.2131599,24.898427" id="Fill-200" fill="#2CA9D2"></path>
                    <path d="M31.9409,21.4697503 C31.9409,21.4697503 32.4509816,23.5079632 32.2667855,24.0791731 C32.2667855,24.0791731 31.1460229,24.4873826 30.3412275,23.9771207 C30.3412275,23.9771207 30.9122355,22.5498047 31.9409,21.4697503" id="Fill-204" fill="#B08814"></path>
                </g>
                <path d="M216.590345,212.411116 L230.600586,255.453127 L229.331049,255.867006 L224.615064,241.381116 L206.945064,241.381116 L202.230131,255.867006 L200.959178,255.453127 L205.540064,241.381116 L181.540064,241.381116 L186.121472,255.453127 L184.851935,255.867006 L180.136064,241.381116 L162.464064,241.381116 L157.749601,255.867006 L156.480064,255.453127 L170.490305,212.411116 L216.590345,212.411116 Z M167.452064,226.059116 L162.899064,240.045116 L179.701064,240.045116 L175.415064,226.879116 L167.452486,226.879876 L167.452064,226.059116 Z M210.260064,226.879116 L176.819064,226.879116 L181.105064,240.045116 L205.974064,240.045116 L210.260064,226.879116 Z M219.894064,226.879116 L211.665064,226.879116 L207.380064,240.045116 L224.180064,240.045116 L219.894064,226.879116 Z M171.300064,214.238116 L167.620064,225.543116 L174.980064,225.543116 L171.300064,214.238116 Z M214.53585,213.746301 L172.5448,213.746301 L176.384064,225.543116 L210.695064,225.543116 L214.53585,213.746301 Z M215.779064,214.238116 L212.099064,225.543116 L219.459064,225.543116 L215.779064,214.238116 Z" id="подставка" fill="#009392"></path>
                <g id="men2" transform="translate(170.308432, 97.297630)">
                    <path d="M22.7373971,21.2607255 C22.7373971,21.2607255 23.8114022,19.3809773 22.1082964,14.3429912 C20.4604496,9.47055675 14.758871,9.9122168 12.9480814,13.0338859 C11.1358749,16.155555 11.7479728,18.0944085 14.4145659,21.6187593 C17.082576,25.1432519 21.6293865,22.8720193 22.7373971,21.2607255" id="Fill-219" fill="#EEA886"></path>
                    <path d="M9.49511243,107.940053 C9.49511243,107.940053 9.21315067,110.008031 9.17772834,110.319858 C9.142306,110.630267 6.03930971,110.135597 6.03930971,110.135597 L5.78710271,107.673583 C5.78710271,107.673583 9.10688367,107.64807 9.49511243,107.940053" id="Fill-220" fill="#EEA886"></path>
                    <path d="M30.9808822,107.940053 C30.9808822,107.940053 30.6989204,110.008031 30.6634981,110.319858 C30.6280758,110.630267 27.5250795,110.135597 27.5250795,110.135597 L27.2728725,107.673583 C27.2728725,107.673583 30.5926534,107.64807 30.9808822,107.940053" id="Fill-222" fill="#EEA886"></path>
                    <path d="M9.21031688,110.056223 C9.21031688,110.056223 10.1936408,111.30353 11.1443762,111.846392 C12.0951116,112.389254 13.589934,112.604698 14.1524407,113.167403 C14.5576721,113.574195 15.6302603,115.321842 11.6813788,115.286407 C7.73108029,115.250973 5.82677572,115.533034 5.40454152,114.862607 C4.98089043,114.192179 6.01663942,109.915901 6.01663942,109.915901 C6.01663942,109.915901 6.98296064,110.18804 9.21031688,110.056223" id="Fill-221" fill="#394851"></path>
                    <path d="M30.6960866,110.056223 C30.6960866,110.056223 31.6794106,111.30353 32.630146,111.846392 C33.5808814,112.389254 37.0806078,112.835733 37.6431144,113.398438 C38.0483459,113.80523 38.724204,115.439486 33.1671485,115.286407 C29.2182669,115.177268 27.3125455,115.533034 26.8903113,114.862607 C26.4666602,114.192179 27.5024092,109.915901 27.5024092,109.915901 C27.5024092,109.915901 28.7294388,110.134179 30.6960866,110.056223" id="Fill-223" fill="#394851"></path>
                    <path d="M26.5176683,55.906093 C26.5176683,55.906093 28.8569591,68.9829723 29.1360871,71.5923951 C29.4152151,74.2018179 29.6008281,84.2171256 29.7411006,85.847129 C29.881373,87.4785498 30.6719994,107.183165 31.4172853,109.605491 L27.1212649,109.605491 C27.1212649,109.605491 22.7090592,95.2798877 22.7090592,88.5033258 C22.7090592,82.252971 20.2245839,74.9997965 18.3589165,70.4017024 C17.2344074,75.0539389 14.3572687,85.2602002 13.6749476,86.9654531 C12.8361468,89.0617792 9.59996254,109.605491 9.59996254,109.605491 L9.59996254,109.605491 L5.7460128,109.513361 C5.7460128,109.513361 5.37762055,101.034508 5.44846522,98.3783115 C5.51789299,95.7235321 7.44345096,83.9719164 7.91244263,79.0082018 C8.33467683,74.5561665 9.36759204,69.891522 9.15789183,65.6294175 C8.94819163,61.367313 10.5393628,56.4206071 10.5393628,56.4206071 L10.5393628,56.4206071 L10.5750153,56.4128935 C11.3638453,56.2430497 24.9932554,53.3502847 26.5176683,55.906093 Z" id="Combined-Shape" fill="#B08814"></path>
                    <path d="M22.1890594,25.3361592 C22.1890594,25.3361592 24.6558706,25.5878884 25.3600665,25.7221157 C26.0642625,25.8563429 30.8080212,24.8736635 31.7814269,24.7728867 C32.7534157,24.67211 36.9034961,21.8282502 37.0366841,21.4926112 C37.1712889,21.1568305 39.5615879,15.1031397 39.6961928,13.7940344 C39.8293807,12.4849291 42.0241484,13.1606009 41.8357016,14.0630558 C41.4843121,15.7501802 41.0323231,19.8465913 40.7843668,21.0338007 C40.516574,22.3158338 39.799626,25.2193659 39.3972283,25.576691 C38.9948306,25.9340161 35.258483,28.7771672 31.6014814,29.9847871 C27.943063,31.1938244 25.1900393,32.9726542 25.1900393,32.9726542 L7.16432298,32.9726542 C7.16432298,32.9726542 0.153535016,22.9471412 0.0033443279,21.4367659 C-0.148263253,19.9262489 4.90012751,9.88684544 5.90612175,8.62805761 C6.91353287,7.36926979 8.37009917,9.03910194 8.37009917,9.03910194 C8.37009917,9.03910194 5.35353337,17.8921464 4.95113567,19.151076 C4.54732109,20.409722 8.45936344,25.9403944 9.53336855,25.9571196 C10.6059568,25.9738449 13.3632311,25.6214807 14.5888438,25.5710214 C15.8130396,25.5207039 17.1052463,24.9836533 17.1052463,24.9836533 L22.1890594,25.3361592" id="Fill-228" fill="#EEA886"></path>
                    <path d="M21.1788144,22.59095 C21.1788144,22.59095 20.6942369,24.0021077 21.1788144,25.0091664 C21.6633919,26.016225 14.9855739,25.4119898 14.9855739,25.4119898 C14.9855739,25.4119898 15.2873722,23.3306881 14.4145659,21.6187593 C13.5431765,19.9068306 21.1788144,22.59095 21.1788144,22.59095" id="Fill-226" fill="#EEA886"></path>
                    <path d="M29.9564683,32.0329218 C29.9564683,32.0329218 27.7503655,33.4999248 27.5491666,36.017217 C27.3479678,38.5345092 26.5431724,42.5131348 26.1393578,43.8724159 C25.7369601,45.231697 26.4921643,55.0995957 26.5927637,55.805458 C26.6933631,56.509903 12.6448662,58.185263 10.4869377,56.509903 C10.4869377,56.509903 9.88334119,47.295423 9.63113419,44.6774958 C9.38034408,42.0595687 8.17173411,35.715312 7.76933641,34.8592059 C7.36693872,34.0045172 2.48432447,27.1531169 2.28312562,26.250095 C2.28312562,26.250095 4.80802945,22.2221441 6.62023596,22.1718266 C6.62023596,22.1718266 9.49794622,25.5452249 10.4359296,25.6963191 C11.3753298,25.8472716 17.1264997,24.792872 17.1264997,24.7842259 C17.1264997,24.7842259 17.7541834,25.6393398 21.092384,24.6322812 C21.092384,24.6322812 25.0653527,25.0808865 25.712873,25.1633789 C26.494998,25.2634469 31.9372851,24.4800531 31.9372851,24.4800531 C31.9372851,24.4800531 34.1193008,28.1676877 33.7381565,30.0301437 L29.9564683,32.0329218" id="Fill-229" fill="#008AB6"></path>
                    <path d="M39.5700893,14.58083 C39.5700893,14.58083 40.0617512,12.2473738 39.4694898,11.5773716 C39.1308523,11.1960925 38.3189725,10.1863408 38.245294,10.0377979 C38.1716156,9.88953849 37.3002262,9.3887731 37.3002262,9.14767434 C37.3002262,8.90657558 38.153196,8.60977323 38.8942312,9.29607552 C39.6352664,9.98223607 40.1000074,10.1306373 40.396138,10.0563658 C40.6922687,9.98223607 41.1187536,7.51554487 41.1555928,6.9033723 C41.1924321,6.29134147 41.4290533,4.67777986 41.8116144,4.78904531 C42.1941756,4.90031076 42.175756,5.60503917 42.175756,5.60503917 C42.175756,5.60503917 42.6206605,4.3809775 42.9167912,4.62207627 C43.2143388,4.86317503 43.1774996,5.456638 43.1774996,5.456638 C43.1774996,5.456638 43.7329217,4.77047744 43.8816955,5.27124283 C44.0304693,5.77200821 43.8816955,6.21721175 43.8816955,6.21721175 C43.8816955,6.21721175 44.4569542,5.90184153 44.4937934,6.6808414 C44.5306326,7.45984128 44.3266,9.74113731 43.9185347,10.5571312 C43.5104695,11.3732668 41.9844754,13.5078625 41.8016962,14.3415738 C41.618917,15.1754268 39.5700893,14.58083 39.5700893,14.58083" id="Fill-230" fill="#EEA886"></path>
                    <path d="M7.8784372,10.482718 C7.8784372,10.482718 9.55462195,7.6626704 10.1256299,7.41108292 C10.6966379,7.1593537 11.5014333,7.0166221 12.2056293,6.51316366 C12.9112421,6.00970523 13.842141,5.59001479 13.7911329,5.42219532 C13.7415416,5.25437584 12.9112421,5.32141859 12.0214332,5.70737504 C11.1316242,6.09347323 10.7419785,5.90694415 10.6583818,5.70553242 C10.5747851,5.5041207 11.1316242,4.08233254 11.4008339,3.74655184 C11.6686267,3.41091289 13.5814327,1.48637498 13.2626317,1.20105352 C12.9438307,0.91573206 11.7026322,1.97310817 11.5014333,2.19124514 C11.5014333,2.19124514 12.4918417,0.110085172 12.1050299,0.00945018108 C11.7196349,-0.0913265496 10.9984362,0.647135851 10.9984362,0.647135851 C10.9984362,0.647135851 11.0820329,-1.13183566 9.16922698,1.75497119 C9.16922698,1.75497119 9.57162467,0.798230077 8.98503085,1.11714378 C8.39702014,1.43605749 7.82742904,3.23189599 7.64181602,4.13831961 C7.45761989,5.04445975 6.62023596,7.93169182 5.90612175,8.62805761 C5.19342442,9.32442341 7.8784372,10.482718 7.8784372,10.482718" id="Fill-231" fill="#EEA886"></path>
                    <path d="M14.4145659,21.6187593 C14.4145659,21.6187593 15.2987073,21.6968578 17.1775078,21.0479747 C19.0577252,20.3989498 19.1965807,17.1118709 19.6032291,17.5010873 C20.4335286,18.2956785 21.2156537,17.7474304 21.5287871,17.2774225 C21.5287871,17.2774225 20.6120571,16.0689522 21.0371251,15.4871118 C21.4621931,14.9052715 22.153637,14.4806202 22.153637,14.4806202 C22.153637,14.4806202 20.8316756,8.10829915 14.8183805,11.011406 C7.77075331,14.4130105 14.4145659,21.6187593 14.4145659,21.6187593" id="Fill-232" fill="#28353B"></path>
                    <path d="M21.1788144,25.0091664 L20.9662805,24.0881436 C20.9662805,24.0881436 17.1279165,24.0100452 15.0337483,24.3137927 L14.8127129,25.4148246 C14.8127129,25.4148246 17.4948919,26.6315158 21.1788144,25.0091664" id="Fill-233" fill="#008AB6"></path>
                    <path d="M39.6607704,14.051008 C39.6607704,14.051008 41.0464921,14.0850254 41.7180995,14.6922371 C41.7180995,14.6922371 41.7620232,15.0776266 41.6061649,15.381516 C41.6061649,15.381516 40.4046394,14.82122 39.4850757,14.7161911 C39.4850757,14.7161911 39.4992446,14.2124492 39.6607704,14.051008" id="Fill-235" fill="#F3753F"></path>
                    <path d="M41.2944484,14.3962852 C41.4219688,14.6994659 41.2802795,15.0489953 40.9770643,15.176986 C40.6738491,15.3049767 40.3238765,15.1629538 40.1963561,14.8597731 C40.0688357,14.5567343 40.210525,14.2072048 40.5137402,14.0790724 C40.8169554,13.9512234 41.1655111,14.0932463 41.2944484,14.3962852" id="Fill-236" fill="#394851"></path>
                    <path d="M10.2290632,57.4992442 C10.2290632,57.4992442 12.6306973,59.9669275 26.7316192,57.1137129 L26.5176683,55.906093 L10.4869377,56.509903 L10.2290632,57.4992442" id="Fill-227" fill="#B08814"></path>
                    <path d="M20.2309128,16.6955822 C19.8823571,16.1160097 18.5929842,15.7249506 18.4413766,17.3668601 C18.3237745,18.6396801 20.746662,20.0300021 20.7679154,18.8440684 C20.7905857,17.6578511 20.4632833,17.0813969 20.2309128,16.6955822" id="Fill-234" fill="#EEA886"></path>
                </g>
            </g>
        </g>
    </g>
</svg>