<?xml version="1.0" encoding="UTF-8"?>
<svg width="810px" height="612px" viewBox="0 0 810 612" version="1.1" xmlns="http://www.w3.org/2000/svg" xmlns:xlink="http://www.w3.org/1999/xlink">
    <!-- Generator: Sketch 64 (93537) - https://sketch.com -->
    <title>illustration-vantage</title>
    <desc>Created with Sketch.</desc>
    <defs>
        <path d="M239.394853,480.764452 C218.742009,480.764452 197.744571,478.077217 176.851161,472.452245 C128.650353,459.471536 87.848549,432.693538 57.5373373,397.508986 L57.5373373,234.762132 C57.5373373,224.932255 49.5759306,216.964572 39.7550201,216.964572 L0.286077501,216.964572 C0.835476339,211.423209 1.5831789,205.866229 2.52918517,200.308599 L49.9660363,200.308599 C54.1499197,200.308599 57.5373373,196.916047 57.5373373,192.731314 L57.5373373,190.814463 C57.5373373,186.62973 54.1499197,183.237178 49.9660363,183.237178 L6.07589602,183.237178 C6.50501227,181.483644 6.95688469,179.733688 7.42826238,177.981455 C27.9608248,101.614223 83.0567508,43.7514944 151.364256,16.8667878 C151.400016,16.8547506 151.439026,16.8368574 151.474786,16.8241694 C170.076325,9.46583196 189.636874,4.4427207 209.730568,1.92563443 L209.772829,1.93767168 L209.854101,1.92563443 C219.515719,0.729066863 229.304121,0.116793844 239.170544,0.116793844 C259.800633,0.116793844 280.765561,2.79459363 301.626462,8.41403671 C313.950552,11.73404 325.826019,15.9487036 337.139085,21.0323265 L337.145587,21.0323265 C403.193728,50.4350952 450.997929,107.573637 470.152118,174.424286 C470.165122,174.466904 470.174876,174.509197 470.187878,174.55149 C480.532182,210.663235 482.502215,249.639521 474.488793,288.610925 C473.832117,291.812183 473.107168,295.003681 472.313953,298.201686 C471.93035,299.75026 471.527241,301.305344 471.111129,302.853918 C465.139261,325.064269 456.244851,345.706523 444.954541,364.478124 C443.186064,367.419118 441.355818,370.317817 439.470305,373.167716 C430.640914,386.506291 420.569686,398.81031 409.458177,409.959405 L420.933785,425.903879 L373.405909,460.154732 L363.321677,446.136217 C326.469694,468.388859 283.720612,480.764452 239.394853,480.764452 M234.453517,403.621956 C236.072453,403.670756 237.694643,403.693528 239.320084,403.693528 C257.599787,403.693528 276.201325,400.596377 294.396505,394.070236 C320.358039,384.759262 342.512789,369.540277 359.882245,350.475876 C360.119559,350.218865 360.350373,349.965106 360.584435,349.704842 C361.189099,349.031406 361.790511,348.351465 362.382172,347.671524 C363.526484,346.357185 364.638284,345.033089 365.737082,343.686219 C382.27106,323.401829 393.746668,299.379383 399.13338,273.775831 C399.806312,270.571319 400.384969,267.337531 400.866099,264.087473 C404.181997,241.730722 402.888145,218.397656 396.337621,195.477108 C395.349354,192.016887 394.234301,188.568703 393.00872,185.133207 C377.378486,141.48224 345.09399,108.595176 305.888369,91.0695929 C285.147748,81.7976582 262.479359,76.8230214 239.303829,76.8230214 C232.655779,76.8230214 225.962215,77.2329383 219.265401,78.0680631 C207.549227,79.527173 195.810297,82.293788 184.227409,86.4472896 C182.647481,87.0133656 181.087058,87.6031906 179.536388,88.2112343 C99.6882564,119.591365 57.7974079,207.653273 83.5898953,289.368947 C84.223817,291.379493 84.9000002,293.383533 85.6151939,295.384318 C86.294628,297.277746 87.000069,299.141893 87.738019,300.993026 C90.6703135,308.335748 94.086989,315.362897 97.9295301,322.032185 C99.3631684,324.520966 100.855323,326.964202 102.405993,329.355386 C103.166699,330.526578 103.937158,331.681503 104.723871,332.829921 C105.315531,333.692047 105.916944,334.550923 106.524859,335.400035 C135.893315,376.495855 182.777516,401.507303 232.652528,403.55689 C233.253941,403.582916 233.852102,403.602435 234.453517,403.621956" id="path-1"></path>
        <polyline id="path-3" points="160.694284 136.313706 66.0578956 136.313706 0.295830144 44.9119501 62.615213 0.0032533104 160.694284 136.313706"></polyline>
    </defs>
    <g id="illustration-vantage" stroke="none" stroke-width="1" fill="none" fill-rule="evenodd">
        <g id="Donat-Charts" transform="translate(400.000000, 186.000000)" fill-rule="nonzero">
            <g id="3" transform="translate(130.289344, 0.000000)">
                <path d="M26.1659498,51.8478261 C19.2510404,51.8478261 12.8076021,49.1700479 7.77857714,44.2870403 C3.84965136,40.3491311 1.33513885,35.4661236 0.5493537,30.1105669 C-0.86505958,21.9197158 1.96376698,13.4138318 7.77857714,7.58572609 C12.336131,3.01775135 18.3080982,0.339973074 24.7515365,0.0249403335 C32.137917,-0.290092408 39.2099832,2.38768588 44.3961654,7.58572609 C49.2680334,12.4687336 51.9397028,19.0844211 51.9397028,26.0151415 C51.9397028,32.9458616 49.2680334,39.4040328 44.3961654,44.4445568 C39.5242973,49.1700479 33.0808591,51.8478261 26.1659498,51.8478261 Z M26.0609435,3.88858696 C25.6484902,3.88858696 25.3735213,3.88858696 24.9610681,3.88858696 C19.4616907,4.16402853 14.3747667,6.36756114 10.5252025,10.361464 C5.57576292,15.3194124 3.23852756,22.4808934 4.33840301,29.5046536 C5.0258252,34.0494396 7.22557613,38.1810631 10.5252025,41.486362 C14.6497355,45.6179858 20.1491129,47.9592391 26.0609435,47.9592391 C31.9727743,47.9592391 37.4721515,45.6179858 41.5966845,41.486362 C45.7212175,37.3547385 48.0584528,31.845907 48.0584528,25.923913 C48.0584528,20.0019191 45.7212175,14.4930876 41.5966845,10.361464 C37.4721515,6.22984034 31.8352897,3.88858696 26.0609435,3.88858696 Z" id="Shape" fill="#026A6A" opacity="0.8"></path>
                <path d="M44.3961654,7.58572609 C49.2680334,12.4687336 51.9397028,19.0844211 51.9397028,26.0151415 C51.9397028,32.9458616 49.2680334,39.4040328 44.3961654,44.4445568 C39.6078927,49.0889641 33.3015194,51.7553284 26.5214819,51.8454641 L26.5203878,47.9485801 L26.8296336,47.9460069 C32.4483818,47.7522674 37.6514791,45.4383499 41.5966845,41.486362 C45.7212175,37.3547385 48.0584528,31.845907 48.0584528,25.923913 C48.0584528,20.0019191 45.7212175,14.4930876 41.5966845,10.361464 C37.5816182,6.33949534 32.1334336,4.01412372 26.5203878,3.89352414 L26.5206604,0.00662363225 C33.2594136,0.155328733 39.6256406,2.80429351 44.3961654,7.58572609 Z" id="Combined-Shape" fill="#FEC64D"></path>
            </g>
            <g id="2" transform="translate(65.144671, 0.000000)">
                <path d="M26.1659498,51.8478261 C19.2510404,51.8478261 12.8076021,49.1700479 7.77857714,44.2870403 C3.84965136,40.3491311 1.33513885,35.4661236 0.5493537,30.1105669 C-0.86505958,21.9197158 1.96376698,13.4138318 7.77857714,7.58572609 C12.336131,3.01775135 18.3080982,0.339973074 24.7515365,0.0249403335 C32.137917,-0.290092408 39.2099832,2.38768588 44.3961654,7.58572609 C49.2680334,12.4687336 51.9397028,19.0844211 51.9397028,26.0151415 C51.9397028,32.9458616 49.2680334,39.4040328 44.3961654,44.4445568 C39.5242973,49.1700479 33.0808591,51.8478261 26.1659498,51.8478261 Z M26.0609435,3.88858696 C25.6484903,3.88858696 25.3735213,3.88858696 24.9610681,3.88858696 C19.4616907,4.16402853 14.3747667,6.36756114 10.5252025,10.361464 C5.57576292,15.3194124 3.23852756,22.4808934 4.33840301,29.5046536 C5.0258252,34.0494396 7.22557613,38.1810631 10.5252025,41.486362 C14.6497355,45.6179858 20.1491129,47.9592391 26.0609435,47.9592391 C31.9727743,47.9592391 37.4721515,45.6179858 41.5966845,41.486362 C45.7212175,37.3547385 48.0584529,31.845907 48.0584529,25.923913 C48.0584529,20.0019191 45.7212175,14.4930876 41.5966845,10.361464 C37.4721515,6.22984034 31.8352897,3.88858696 26.0609435,3.88858696 Z" id="Shape" fill="#026A6A" opacity="0.8"></path>
                <path d="M44.3961654,7.58572609 C49.2680334,12.4687336 51.9397028,19.0844211 51.9397028,26.0151415 C51.9397028,32.9458616 49.2680334,39.4040328 44.3961654,44.4445568 C39.5242973,49.1700479 33.0808591,51.8478261 26.1659498,51.8478261 C19.2510404,51.8478261 12.8076021,49.1700479 7.77857714,44.2870403 C3.84965136,40.3491311 1.33513885,35.4661236 0.5493537,30.1105669 C0.309162821,28.7196243 0.19133715,27.3195968 0.189719754,25.9251408 L4.07139737,25.9242829 C4.06388513,27.1140608 4.15153857,28.3113448 4.33840301,29.5046534 C5.0258252,34.0494396 7.22557613,38.1810631 10.5252025,41.486362 C14.6497355,45.6179858 20.1491129,47.9592391 26.0609435,47.9592391 C31.9727743,47.9592391 37.4721515,45.6179858 41.5966845,41.486362 C45.7212175,37.3547385 48.0584528,31.845907 48.0584528,25.923913 C48.0584528,20.0019191 45.7212175,14.4930876 41.5966845,10.361464 C37.5818319,6.33970934 32.1340135,4.01437121 26.5212839,3.89354342 L26.5224003,0.00666208244 C33.2605093,0.155784712 39.6260512,2.80470504 44.3961654,7.58572609 Z" id="Combined-Shape" fill="#F3753F"></path>
            </g>
            <g id="1">
                <path d="M26.1659498,51.8478261 C19.2510404,51.8478261 12.8076021,49.1700479 7.77857714,44.2870403 C3.84965136,40.3491311 1.33513885,35.4661236 0.5493537,30.1105669 C-0.86505958,21.9197158 1.96376698,13.4138318 7.77857714,7.58572609 C12.336131,3.01775135 18.3080982,0.339973074 24.7515365,0.0249403335 C32.137917,-0.290092408 39.2099832,2.38768588 44.3961654,7.58572609 C49.2680334,12.4687336 51.9397029,19.0844211 51.9397029,26.0151415 C51.9397029,32.9458616 49.2680334,39.4040328 44.3961654,44.4445568 C39.5242973,49.1700479 33.0808591,51.8478261 26.1659498,51.8478261 Z M26.0609435,3.88858696 C25.6484903,3.88858696 25.3735213,3.88858696 24.9610681,3.88858696 C19.4616907,4.16402853 14.3747667,6.36756114 10.5252025,10.361464 C5.57576293,15.3194124 3.23852756,22.4808934 4.33840301,29.5046536 C5.0258252,34.0494396 7.22557613,38.1810631 10.5252025,41.486362 C14.6497355,45.6179858 20.1491129,47.9592391 26.0609435,47.9592391 C31.9727743,47.9592391 37.4721515,45.6179858 41.5966845,41.486362 C45.7212175,37.3547385 48.0584529,31.845907 48.0584529,25.923913 C48.0584529,20.0019191 45.7212175,14.4930876 41.5966845,10.361464 C37.4721515,6.22984034 31.8352897,3.88858696 26.0609435,3.88858696 Z" id="Shape" fill="#026A6A" opacity="0.8"></path>
                <path d="M44.3961654,7.58572609 C49.2469125,12.4475645 51.9164968,19.0270922 51.9395522,25.9250198 L48.0584529,25.923913 L48.0584529,25.923913 C48.0584529,20.0019191 45.7212175,14.4930876 41.5966845,10.361464 C37.5816182,6.33949534 32.1334336,4.01412372 26.5203878,3.89352414 L26.5206604,0.00662363225 C33.2594136,0.155328733 39.6256406,2.80429351 44.3961654,7.58572609 Z" id="Combined-Shape" fill="#008AB6"></path>
            </g>
        </g>
        <g id="Chart" transform="translate(561.000000, 407.500000) scale(-1, 1) translate(-561.000000, -407.500000) translate(481.000000, 336.000000)">
            <g id="Group-11" transform="translate(5.845762, 2.698980)" stroke="#646969" stroke-width="1.5">
                <line x1="1.33520008" y1="139.438474" x2="1.33520008" y2="16.2054348" id="Path"></line>
                <line x1="30.2231644" y1="139.438474" x2="30.2231644" y2="3.83452541" id="Path"></line>
                <line x1="59.111129" y1="139.438474" x2="59.111129" y2="-2.27373675e-13" id="Path"></line>
                <line x1="87.9990934" y1="139.438474" x2="87.9990934" y2="4.26493133" id="Path"></line>
                <line x1="116.887058" y1="139.438474" x2="116.887058" y2="20.0399602" id="Path"></line>
                <line x1="145.775022" y1="139.438474" x2="145.775022" y2="28.1394169" id="Path"></line>
            </g>
            <path d="M152.032143,21.678599 C156.115105,21.678599 159.425,24.9907782 159.425,29.0765583 C159.425,33.1623383 156.115105,36.4745174 152.032143,36.4745174 C147.949181,36.4745174 144.639286,33.1623383 144.639286,29.0765583 C144.639286,24.9907782 147.949181,21.678599 152.032143,21.678599 Z M123.144179,15.3934371 C127.227141,15.3934371 130.537036,18.7056162 130.537036,22.7913963 C130.537036,26.8771764 127.227141,30.1893555 123.144179,30.1893555 C119.061216,30.1893555 115.751321,26.8771764 115.751321,22.7913963 C115.751321,18.7056162 119.061216,15.3934371 123.144179,15.3934371 Z M7.59712255,12.2556613 C11.6800848,12.2556613 14.9899797,15.5678404 14.9899797,19.6536205 C14.9899797,23.7394006 11.6800848,27.0515796 7.59712255,27.0515796 C3.5141603,27.0515796 0.204265416,23.7394006 0.204265416,19.6536205 C0.204265416,15.5678404 3.5141603,12.2556613 7.59712255,12.2556613 Z M36.485087,3.45739554 C40.5680493,3.45739554 43.8779441,6.76957468 43.8779441,10.8553547 C43.8779441,14.9411348 40.5680493,18.2533139 36.485087,18.2533139 C32.4021247,18.2533139 29.0922299,14.9411348 29.0922299,10.8553547 C29.0922299,6.76957468 32.4021247,3.45739554 36.485087,3.45739554 Z M94.256214,3.45739554 C98.3391763,3.45739554 101.649071,6.76957468 101.649071,10.8553547 C101.649071,14.9411348 98.3391763,18.2533139 94.256214,18.2533139 C90.1732517,18.2533139 86.8633569,14.9411348 86.8633569,10.8553547 C86.8633569,6.76957468 90.1732517,3.45739554 94.256214,3.45739554 Z M65.3682496,0.31481456 C69.4512119,0.31481456 72.7611067,3.62699371 72.7611067,7.71277374 C72.7611067,11.7985538 69.4512119,15.1107329 65.3682496,15.1107329 C61.2852873,15.1107329 57.9753925,11.7985538 57.9753925,7.71277374 C57.9753925,3.62699371 61.2852873,0.31481456 65.3682496,0.31481456 Z" id="Combined-Shape" fill="#3A5252" fill-rule="nonzero"></path>
        </g>
        <g id="Fill-52-Clipped" transform="translate(230.000000, 54.980477)">
            <mask id="mask-2" fill="white">
                <use xlink:href="#path-1"></use>
            </mask>
            <g id="path-1"></g>
            <path d="M239.394853,480.764452 C218.742009,480.764452 197.744571,478.077217 176.851161,472.452245 C128.650353,459.471536 87.848549,432.693538 57.5373373,397.508986 L57.5373373,234.762132 C57.5373373,224.932255 49.5759306,216.964572 39.7550201,216.964572 L0.286077501,216.964572 C0.835476339,211.423209 1.5831789,205.866229 2.52918517,200.308599 L49.9660363,200.308599 C54.1499197,200.308599 57.5373373,196.916047 57.5373373,192.731314 L57.5373373,190.814463 C57.5373373,186.62973 54.1499197,183.237178 49.9660363,183.237178 L6.07589602,183.237178 C6.50501227,181.483644 6.95688469,179.733688 7.42826238,177.981455 C27.9608248,101.614223 83.0567508,43.7514944 151.364256,16.8667878 C151.400016,16.8547506 151.439026,16.8368574 151.474786,16.8241694 C170.076325,9.46583196 189.636874,4.4427207 209.730568,1.92563443 L209.772829,1.93767168 L209.854101,1.92563443 C219.515719,0.729066863 229.304121,0.116793844 239.170544,0.116793844 C259.800633,0.116793844 280.765561,2.79459363 301.626462,8.41403671 C313.950552,11.73404 325.826019,15.9487036 337.139085,21.0323265 L337.145587,21.0323265 C403.193728,50.4350952 450.997929,107.573637 470.152118,174.424286 C470.165122,174.466904 470.174876,174.509197 470.187878,174.55149 C480.532182,210.663235 482.502215,249.639521 474.488793,288.610925 C473.832117,291.812183 473.107168,295.003681 472.313953,298.201686 C471.93035,299.75026 471.527241,301.305344 471.111129,302.853918 C465.139261,325.064269 456.244851,345.706523 444.954541,364.478124 C443.186064,367.419118 441.355818,370.317817 439.470305,373.167716 C430.640914,386.506291 420.569686,398.81031 409.458177,409.959405 L420.933785,425.903879 L373.405909,460.154732 L363.321677,446.136217 C326.469694,468.388859 283.720612,480.764452 239.394853,480.764452 M234.453517,403.621956 C236.072453,403.670756 237.694643,403.693528 239.320084,403.693528 C257.599787,403.693528 276.201325,400.596377 294.396505,394.070236 C320.358039,384.759262 342.512789,369.540277 359.882245,350.475876 C360.119559,350.218865 360.350373,349.965106 360.584435,349.704842 C361.189099,349.031406 361.790511,348.351465 362.382172,347.671524 C363.526484,346.357185 364.638284,345.033089 365.737082,343.686219 C382.27106,323.401829 393.746668,299.379383 399.13338,273.775831 C399.806312,270.571319 400.384969,267.337531 400.866099,264.087473 C404.181997,241.730722 402.888145,218.397656 396.337621,195.477108 C395.349354,192.016887 394.234301,188.568703 393.00872,185.133207 C377.378486,141.48224 345.09399,108.595176 305.888369,91.0695929 C285.147748,81.7976582 262.479359,76.8230214 239.303829,76.8230214 C232.655779,76.8230214 225.962215,77.2329383 219.265401,78.0680631 C207.549227,79.527173 195.810297,82.293788 184.227409,86.4472896 C182.647481,87.0133656 181.087058,87.6031906 179.536388,88.2112343 C99.6882564,119.591365 57.7974079,207.653273 83.5898953,289.368947 C84.223817,291.379493 84.9000002,293.383533 85.6151939,295.384318 C86.294628,297.277746 87.000069,299.141893 87.738019,300.993026 C90.6703135,308.335748 94.086989,315.362897 97.9295301,322.032185 C99.3631684,324.520966 100.855323,326.964202 102.405993,329.355386 C103.166699,330.526578 103.937158,331.681503 104.723871,332.829921 C105.315531,333.692047 105.916944,334.550923 106.524859,335.400035 C135.893315,376.495855 182.777516,401.507303 232.652528,403.55689 C233.253941,403.582916 233.852102,403.602435 234.453517,403.621956" id="Fill-52" fill="#414545" fill-rule="nonzero" mask="url(#mask-2)"></path>
        </g>
        <path d="M747.475189,215.910356 L700.152118,229.404762 L626.337621,250.457584 C625.349354,246.997363 624.237552,243.549505 623.00872,240.113684 C607.378486,196.462717 575.09399,163.575652 535.888369,146.049744 L567.139085,76.0128027 L567.145587,76.0128027 L587.229526,31 C666.833842,66.4347317 724.432946,135.328785 747.475189,215.910356" id="Fill-55" fill="#4D7E7E" fill-rule="nonzero"></path>
        <path d="M570.432227,68.6424281 L535.888369,146.049744 C509.198638,134.118228 479.306789,129.302353 449.265401,133.048214 L438.869084,48.9211857 C469.742699,45.0839061 501.864649,47.029711 533.749289,55.6164986 C546.473235,59.0402825 558.748561,63.394513 570.432227,68.6424281" id="Fill-56" fill="#607A7A" fill-rule="nonzero"></path>
        <path d="M449.265401,133.048214 C437.549227,134.507649 425.810297,137.27459 414.227409,141.428091 C412.647481,141.993516 411.087058,142.583342 409.536388,143.191711 L372.980235,50.1981101 C393.402267,42.1038738 414.884087,36.5823553 436.954316,33.8212708 L437.003079,33.8339587 L449.265401,133.048214" id="Fill-57" fill="#8D9B9B" fill-rule="nonzero"></path>
        <g id="Fill-58-Clipped" transform="translate(595.073903, 474.657519)">
            <mask id="mask-4" fill="white">
                <use xlink:href="#path-3"></use>
            </mask>
            <g id="path-3"></g>
            <polyline id="Fill-58" fill="#425454" fill-rule="nonzero" mask="url(#mask-4)" points="160.694284 136.313706 66.0578956 136.313706 0.295830144 44.9119501 62.615213 0.0032533104 160.694284 136.313706"></polyline>
        </g>
        <rect id="Rectangle" fill="#2E3D3D" fill-rule="nonzero" x="95.5800582" y="271.401655" width="193.269937" height="231.603448" rx="5"></rect>
        <path d="M136.872759,345.27617 C128.581035,345.27617 120.658345,341.600158 115.295842,335.288208 C113.528572,333.20806 112.040755,330.845142 110.906392,328.228705 C110.6568,327.653414 110.423436,327.061872 110.209546,326.460579 C108.053769,320.424899 108.064804,314.142201 109.840188,308.460796 C112.402648,300.263712 118.638886,293.327718 127.33567,290.213996 C130.207443,289.186923 133.133742,288.650635 136.024015,288.562878 C136.306064,288.553128 136.58714,288.549877 136.868215,288.549877 C148.494544,288.549877 159.392869,295.775142 163.531753,307.365468 C168.797859,322.108519 161.130603,338.336926 146.406278,343.612051 C143.255377,344.739882 140.037616,345.27617 136.872759,345.27617 M136.870162,295.648383 C136.659194,295.648383 136.446602,295.651634 136.235309,295.658134 C134.068497,295.723139 131.874096,296.122917 129.72189,296.896472 C123.20133,299.230138 118.526261,304.430509 116.605471,310.576697 C115.27442,314.834501 115.265332,319.544086 116.881678,324.071659 C117.042664,324.520191 117.217605,324.962222 117.405205,325.397753 C118.254274,327.357643 119.37111,329.13227 120.694696,330.68913 C124.716087,335.421468 130.654372,338.177664 136.871461,338.177664 C139.243724,338.177664 141.657856,337.774635 144.019734,336.929575 C155.059245,332.977293 160.808308,320.808426 156.859945,309.754389 C153.756107,301.063269 145.586096,295.648383 136.870162,295.648383" id="Clip-124" fill="#026A6A" fill-rule="nonzero" opacity="0.8"></path>
        <path d="M101.559175,255.055265 C97.384589,255.055265 94,251.665924 94,247.485151 L94,245.570114 C94,241.389342 97.384589,238 101.559175,238 L281.446551,238 C285.477186,238 288.771367,241.159624 288.993759,245.14055 L289.005726,245.570114 L289.005726,247.485151 C289.005726,251.521759 285.850533,254.820577 281.87548,255.043282 L281.446551,255.055265 L101.559175,255.055265 Z" id="Path" fill="#668585" fill-rule="nonzero"></path>
        <g id="Group-2" transform="translate(111.371605, 293.009194)" fill-rule="nonzero">
            <g id="Chart" opacity="0.8" transform="translate(0.017897, 75.182504)">
                <polyline id="Fill-130" fill="#00A9A8" points="105.308819 32.1642921 134.991483 33.8414118 158.652447 1.16033269 157.05233 -1.7922828e-12 134.024272 31.8067668 104.458452 30.1361476 70.5580349 68.8496564 35.0675618 61.1498578 -2.11593017e-13 94.282719 1.35571809 95.7225715 35.6660641 63.3015112 71.276627 71.030562 105.308819 32.1642921"></polyline>
                <path d="M76.0662686,68.8236547 C76.6819728,71.6708575 74.8760798,74.4790578 72.0322201,75.0966018 C69.1883604,75.7141458 66.3840979,73.9037667 65.7683936,71.0565637 C65.1526892,68.2093609 66.9585822,65.4011609 69.8024419,64.7836167 C72.6463016,64.1660727 75.4505641,65.9764517 76.0662686,68.8236547" id="Fill-131" fill="#00B2B1"></path>
                <path d="M110.022511,30.3669141 C110.638216,33.2173673 108.831998,36.0223171 105.988138,36.6398611 C103.144603,37.2574051 100.340016,35.4470261 99.7246365,32.5998233 C99.1086074,29.7526203 100.914825,26.9444202 103.75836,26.3268762 C106.60222,25.7125825 109.406807,27.5197113 110.022511,30.3669141" id="Fill-132" fill="#00B2B1"></path>
                <path d="M139.373143,31.5434979 C139.986575,34.3939511 138.18198,37.2021512 135.33877,37.8164449 C132.495559,38.4339889 129.691297,36.6236099 129.074619,33.7764071 C128.45794,30.9292041 130.265781,28.1210041 133.108992,27.5034601 C135.952202,26.8891663 138.756465,28.6962951 139.373143,31.5434979" id="Fill-133" fill="#00B2B1"></path>
                <path d="M40.4875131,61.5983898 C41.1032173,64.4455926 39.2969997,67.2537929 36.4534646,67.8713369 C33.6096049,68.4856306 30.8050178,66.6785018 30.1893136,63.8312988 C29.5736091,60.9808458 31.3798267,58.1726457 34.2233618,57.5583518 C37.0672215,56.9408078 39.871484,58.7479365 40.4875131,61.5983898" id="Fill-134" fill="#00B2B1"></path>
            </g>
            <g id="Bar-chart" transform="translate(71.029525, 0.000000)">
                <path d="M6.39203066,16.6834389 L6.39203066,52.2669747 L-3.33665912e-13,52.2669747 L-3.33665912e-13,16.6834389 L6.39203066,16.6834389 Z M17.6152473,7.19601281 L17.6152473,52.2669747 L11.2228921,52.2669747 L11.2228921,7.19601281 L17.6152473,7.19601281 Z M29.3925006,12.1591165 L29.3925006,52.2669747 L23.0001454,52.2669747 L23.0001454,12.1591165 L29.3925006,12.1591165 Z M41.4930228,23.6811877 L41.4930228,52.2669747 L35.1006676,52.2669747 L35.1006676,23.6811877 L41.4930228,23.6811877 Z M53.8116546,28.3940235 L53.8116546,52.2669747 L47.4189748,52.2669747 L47.4189748,28.3940235 L53.8116546,28.3940235 Z M65.0351958,10.8362723 L65.0351958,52.2669747 L58.6412177,52.2669747 L58.6412177,10.8362723 L65.0351958,10.8362723 Z M76.8105016,18.4353138 L76.8105016,52.2669747 L70.4197691,52.2669747 L70.4197691,18.4353138 L76.8105016,18.4353138 Z M88.9136204,-7.28318555e-12 L88.9136204,52.2669747 L82.5196424,52.2669747 L82.5196424,-7.28318555e-12 L88.9136204,-7.28318555e-12 Z" id="Combined-Shape" fill="#026A6A" opacity="0.8"></path>
                <path d="M53.8116546,39.5488183 L53.8116546,52.2669747 L47.4189748,52.2669747 L47.4189748,39.5488183 L53.8116546,39.5488183 Z M65.0351958,33.3116239 L65.0351958,52.2669747 L58.6412177,52.2669747 L58.6412177,33.3116239 L65.0351958,33.3116239 Z M76.8105016,35.3495192 L76.8105016,52.2669747 L70.4197691,52.2669747 L70.4197691,35.3495192 L76.8105016,35.3495192 Z M88.9136204,13.4234566 L88.9136204,52.2669747 L82.5196424,52.2669747 L82.5196424,13.4234566 L88.9136204,13.4234566 Z M6.39203066,29.7006166 L6.39203066,52.2669747 L5.69673508e-14,52.2669747 L5.69673508e-14,29.7006166 L6.39203066,29.7006166 Z M17.6152473,23.6811877 L17.6152473,52.2669747 L11.2228921,52.2669747 L11.2228921,23.6811877 L17.6152473,23.6811877 Z M29.3925006,26.8306621 L29.3925006,52.2669747 L23.0001454,52.2669747 L23.0001454,26.8306621 L29.3925006,26.8306621 Z M41.4930228,34.4752068 L41.4930228,52.2669747 L35.1006676,52.2669747 L35.1006676,34.4752068 L41.4930228,34.4752068 Z" id="Combined-Shape" fill="#00A2A2"></path>
            </g>
        </g>
        <path d="M290.423232,174.789474 L290.423232,180 L170.172538,180 L170.172538,174.789474 L290.423232,174.789474 Z M260.88716,155.080947 L260.88716,160.291473 L182.831005,160.291473 L182.831005,155.080947 L260.88716,155.080947 Z M330.501874,140.028316 L330.501874,145.238842 L203.927748,145.238842 L203.927748,140.028316 L330.501874,140.028316 Z M345.27624,124.975684 L345.27624,130.186211 L225.02449,130.186211 L225.02449,124.975684 L345.27624,124.975684 Z M324.179496,109.921895 L324.179496,115.132421 L203.927748,115.132421 L203.927748,109.921895 L324.179496,109.921895 Z M303.0817,94.869263 L303.0817,100.079789 L182.831005,100.079789 L182.831005,94.869263 L303.0817,94.869263 Z M290.423232,82.1324209 L290.423232,87.3429472 L170.172538,87.3429472 L170.172538,82.1324209 L290.423232,82.1324209 Z" id="Combined-Shape" fill="#628383" fill-rule="nonzero" opacity="0.4" transform="translate(257.724389, 131.066210) scale(-1, 1) rotate(-180.000000) translate(-257.724389, -131.066210) "></path>
        <path d="M161.708922,174.789474 L161.708922,180 L125.738557,180 L125.738557,174.789474 L161.708922,174.789474 Z M174.405403,155.080947 L174.405403,160.291473 L138.435038,160.291473 L138.435038,155.080947 L174.405403,155.080947 Z M195.565499,140.028316 L195.565499,145.238842 L159.595134,145.238842 L159.595134,140.028316 L195.565499,140.028316 Z M216.725596,124.975684 L216.725596,130.186211 L180.755231,130.186211 L180.755231,124.975684 L216.725596,124.975684 Z M195.565499,109.921895 L195.565499,115.132421 L159.595134,115.132421 L159.595134,109.921895 L195.565499,109.921895 Z M174.405403,94.869263 L174.405403,100.079789 L138.435038,100.079789 L138.435038,94.869263 L174.405403,94.869263 Z M161.708922,82.1324209 L161.708922,87.3429472 L125.738557,87.3429472 L125.738557,82.1324209 L161.708922,82.1324209 Z" id="Combined-Shape" fill="#628383" fill-rule="nonzero" opacity="0.6" transform="translate(171.232077, 131.066210) scale(-1, 1) rotate(-180.000000) translate(-171.232077, -131.066210) "></path>
        <path d="M108.281331,174.789474 L108.281331,180 L94,180 L94,174.789474 L108.281331,174.789474 Z M108.281331,155.080947 L108.281331,160.291473 L94,160.291473 L94,155.080947 L108.281331,155.080947 Z M108.281331,140.028316 L108.281331,145.238842 L94,145.238842 L94,140.028316 L108.281331,140.028316 Z M108.281331,124.975684 L108.281331,130.186211 L94,130.186211 L94,124.975684 L108.281331,124.975684 Z M108.281331,109.921895 L108.281331,115.132421 L94,115.132421 L94,109.921895 L108.281331,109.921895 Z M108.281331,94.869263 L108.281331,100.079789 L94,100.079789 L94,94.869263 L108.281331,94.869263 Z M108.281331,82.1324209 L108.281331,87.3429472 L94,87.3429472 L94,82.1324209 L108.281331,82.1324209 Z" id="Combined-Shape" fill="#628383" fill-rule="nonzero" opacity="0.8" transform="translate(101.140665, 131.066210) scale(-1, 1) rotate(-180.000000) translate(-101.140665, -131.066210) "></path>
        <path d="M793.395241,148 L810,164 L793.395241,180 L789.515624,176.2625 L802.240767,164 L789.515624,151.7375 L793.395241,148 Z M654.870443,148 L658.581382,151.7375 L646.409506,164 L658.593751,176.2625 L654.882812,180 L639,164 L654.870443,148 Z M670.567709,160.444444 L670.567709,164.888889 L665.718751,164.888889 L665.718751,160.444444 L670.567709,160.444444 Z M690.656251,160.444444 L690.656251,164.888889 L685.807292,164.888889 L685.807292,160.444444 L690.656251,160.444444 Z M680.958334,160.444444 L680.958334,164.888889 L676.109376,164.888889 L676.109376,160.444444 L680.958334,160.444444 Z M700.848958,160.444444 L700.848958,164.888889 L696,164.888889 L696,160.444444 L700.848958,160.444444 Z M720.9375,160.444444 L720.9375,164.888889 L716.088542,164.888889 L716.088542,160.444444 L720.9375,160.444444 Z M711.239583,160.444444 L711.239583,164.888889 L706.390625,164.888889 L706.390625,160.444444 L711.239583,160.444444 Z M731.130208,160.444444 L731.130208,164.888889 L726.281249,164.888889 L726.281249,160.444444 L731.130208,160.444444 Z M751.218749,160.444444 L751.218749,164.888889 L746.369791,164.888889 L746.369791,160.444444 L751.218749,160.444444 Z M741.520833,160.444444 L741.520833,164.888889 L736.671874,164.888889 L736.671874,160.444444 L741.520833,160.444444 Z M761.411457,160.444444 L761.411457,164.888889 L756.562501,164.888889 L756.562501,160.444444 L761.411457,160.444444 Z M781.499999,160.444444 L781.499999,164.888889 L776.65104,164.888889 L776.65104,160.444444 L781.499999,160.444444 Z M771.802084,160.444444 L771.802084,164.888889 L766.953126,164.888889 L766.953126,160.444444 L771.802084,160.444444 Z" id="Combined-Shape" fill="#00A2A2" fill-rule="nonzero" opacity="0.6"></path>
        <path d="M494.866646,486 L527,585.047588 L524.088238,586 L513.271835,552.665301 L472.744598,552.665301 L461.930607,586 L459.015598,585.047588 L469.522143,552.665301 L414.476659,552.665301 L424.984402,585.047588 L422.07264,586 L411.256499,552.665301 L370.724674,552.665301 L359.911762,586 L357,585.047588 L389.133354,486 L494.866646,486 Z M382.16496,517.40656 L371.722373,549.590919 L410.258799,549.590919 L400.428593,519.293531 L382.165928,519.295279 L382.16496,517.40656 Z M480.347755,519.293531 L403.648754,519.293531 L413.47896,549.590919 L470.517549,549.590919 L480.347755,519.293531 Z M502.44393,519.293531 L483.57021,519.293531 L473.742297,549.590919 L512.274136,549.590919 L502.44393,519.293531 Z M390.990586,490.204263 L382.550279,516.219149 L399.430894,516.219149 L390.990586,490.204263 Z M490.154535,489.072506 L393.845465,489.072506 L402.651055,516.219149 L481.345455,516.219149 L490.154535,489.072506 Z M493.005923,490.204263 L484.565615,516.219149 L501.44623,516.219149 L493.005923,490.204263 Z" id="подставка" fill="#009392" fill-rule="nonzero"></path>
        <g id="woman" transform="translate(386.000000, 0.000000)" fill-rule="nonzero">
            <path d="M32.3605117,17.0338545 C32.3605117,17.0338545 28.9474781,10.7500382 27.0050748,8.48856925 C25.0659253,6.22775289 18.614023,4.531488 19.4892432,1.64215949 C20.367717,-1.24716901 29.0092967,0.00920265878 31.3909369,2.83554941 C33.7693235,5.66254882 41.0346274,6.66764616 41.2851552,7.8603834 C41.535683,9.05409966 38.7636099,15.5862533 37.2051322,16.6543324 C35.6499081,17.7224115 32.3605117,17.0338545 32.3605117,17.0338545" id="Fill-61" fill="#616D73"></path>
            <path d="M17.852679,22.3546701 C17.852679,22.3546701 12.2955185,17.9338735 9.61780015,16.6314893 C6.94008176,15.3297577 0.348274387,16.3423606 0.00989927857,13.3414272 C-0.328475828,10.3401674 8.09836578,8.05096031 11.4040303,9.697623 C14.7064412,11.3436331 21.7700215,9.37259804 22.4728006,10.3682318 C23.1755798,11.3638655 23.2178767,18.4635076 22.2092585,20.0635051 C21.203894,21.6638289 17.852679,22.3546701 17.852679,22.3546701" id="Fill-62" fill="#57646B"></path>
            <path d="M30.2001169,33.8649926 C30.2001169,33.8649926 32.6273073,17.2182311 32.5166849,14.3305343 C32.4841487,13.5058976 37.5109713,13.8123218 37.2767115,15.398287 C36.7658953,18.8515143 39.0857169,32.2317093 38.6822696,34.6814709 C38.2788225,37.1312326 29.991886,35.4075558 30.2001169,33.8649926" id="Fill-63" fill="#EEA886"></path>
            <path d="M22.5964377,38.6493212 C22.5964377,38.6493212 18.0478954,22.4855286 16.9872196,19.7978722 C16.5154466,18.6015453 21.1518363,16.7486418 21.7797824,18.8825157 C22.7656252,22.2303383 30.1025087,33.6117603 30.7044258,36.0207305 C31.3030895,38.4293745 23.016153,40.1475036 22.5964377,38.6493212" id="Fill-64" fill="#EEA886"></path>
            <path d="M25.7524362,49.8819365 C25.7524362,49.8819365 20.8687725,33.362444 20.1171893,31.6038499 L27.8184767,26.829964 C27.8184767,26.829964 31.3909369,37.3825068 31.8919924,40.020561 C32.3930477,42.6586151 25.7524362,49.8819365 25.7524362,49.8819365" id="Fill-65" fill="#005E7D"></path>
            <path d="M162.10459,6.23591116 C162.10459,6.23591116 154.666845,8.12177397 151.126921,13.7640249 C147.586996,19.4059495 144.528606,25.904491 137.878234,28.8522328 C131.227861,31.8003007 131.185565,39.3966174 131.702888,40.5678169 C132.223465,41.7393428 152.652862,64.7727146 157.110304,65.6626173 C161.567745,66.5528462 169.913246,65.9341241 169.021758,60.0154713 C168.127016,54.0971449 159.381321,41.3656945 164.291014,34.9428616 C169.200706,28.5200284 170.437077,22.6036601 170.437077,22.6036601 L162.10459,6.23591116" id="Fill-66" fill="#222E33"></path>
            <path d="M160.806401,33.7817783 C160.806401,33.7817783 160.588409,33.7090066 160.227259,33.675721 C159.80429,33.6362349 159.186105,33.6483093 158.486579,33.8845723 C158.310885,33.9436382 158.079878,34.0627488 157.806575,34.2242823 C156.036613,35.2688656 151.855729,38.1050022 151.289601,38.1728789 C150.63888,38.2508717 151.188739,28.4638998 151.188739,28.4638998 C151.188739,28.4638998 153.414206,24.5123662 153.69727,21.9111872 C153.97708,19.3100084 160.806401,33.7817783 160.806401,33.7817783" id="Fill-67" fill="#EEA886"></path>
            <path d="M108.481896,44.0092963 C108.481896,44.0092963 100.308836,38.2619671 90.726964,40.0518887 C81.1450921,41.8421368 80.1136986,46.334726 76.8243022,46.5380298 C73.5381594,46.7413337 62.5474756,45.7992181 53.5284775,48.4375985 C44.5094794,51.0753264 36.8992931,51.3582546 35.8678999,50.6044318 C34.8332529,49.8506087 41.5031467,34.7757804 41.5031467,32.7032566 L30.3237538,29.7822741 C30.3237538,29.7822741 27.1319656,43.1605113 25.879327,46.1761296 C24.5388408,49.4012519 21.965238,55.4723009 25.6287992,60.7487355 C29.2923604,66.0248438 39.5314611,63.6472013 45.7328357,64.7103853 C51.9309566,65.7735696 79.6809689,65.0918655 84.5288431,64.831454 C89.7866716,64.5488519 105.664273,63.7950288 105.664273,63.7950288 L108.481896,44.0092963" id="Fill-68" fill="#006D90"></path>
            <path d="M175.603805,14.2202347 C175.603805,14.2202347 176.127635,22.3184475 174.334898,24.7463448 C173.615851,25.7181565 173.131063,26.2471379 172.802449,26.5316979 C172.343691,26.9330842 171.985794,27.4395489 171.78407,28.0155219 C171.227703,29.5730965 170.889328,31.7653834 170.446838,32.2330147 C169.965304,32.7433954 168.57276,31.4452533 168.065198,31.4426427 C167.560889,31.4397058 162.644689,35.6966846 161.466883,34.8253826 C160.292331,33.9537544 153.118128,26.6517875 153.720045,21.6455544 C154.321962,16.6393212 156.524654,9.16472562 164.60336,9.21031728 C172.682066,9.25642444 174.985619,12.2067767 175.603805,14.2202347" id="Fill-69" fill="#EEA886"></path>
            <path d="M151.191993,52.8655743 C151.039073,53.1984314 148.06853,57.9556745 144.814923,60.7161025 C143.461423,61.8625009 142.065626,62.6642943 140.796719,62.6642943 C140.40954,62.6642943 140.032121,62.669842 139.664464,62.6793057 C135.932577,62.780468 133.062896,63.3544829 128.019805,63.6067363 C122.784752,63.8684532 110.079417,63.1355154 109.701999,63.1355154 C109.327834,63.1355154 105.664273,63.7950288 105.664273,63.7950288 C104.349816,62.1933997 107.824668,44.1032795 108.481896,44.0092963 C109.139125,43.9149868 113.36556,45.516616 117.40654,44.8571024 C121.444266,44.197589 123.041787,43.8206774 129.054452,36.754321 C135.067118,29.6882911 141.079783,27.8977167 143.614343,28.4632471 C146.152156,29.0284512 151.191993,28.4632471 151.191993,28.4632471 C151.191993,28.4632471 151.413238,52.3946799 151.191993,52.8655743" id="Fill-70" fill="#B08814"></path>
            <path d="M172.210293,20.0187978 C172.210293,20.0187978 173.716713,23.9311719 174.513846,24.4702695 C174.513846,24.4702695 177.419317,21.3884061 175.555001,13.7836047 C173.68743,6.17880336 166.649879,5.46348733 162.10459,6.23591116 C156.449821,7.19695389 150.752756,26.3917023 151.048834,28.2612487 C151.341659,30.1311213 157.679685,18.3414601 163.230338,19.2901022 C168.784245,20.2390708 168.829795,20.5494109 172.210293,20.0187978" id="Fill-71" fill="#222E33"></path>
            <path d="M160.240273,33.6897532 C159.817304,33.6502671 159.199119,33.6802897 158.499594,33.916879 C158.323899,33.9759449 158.079878,34.0627488 157.806575,34.2242823 C156.508386,32.1925497 155.304552,27.3749355 155.262255,27.2117704 C156.130968,29.0663054 160.240273,33.6897532 160.240273,33.6897532" id="Fill-72" fill="#A77860"></path>
            <path d="M144.814923,60.7161025 C143.461423,61.8625009 142.065626,62.6642943 140.796719,62.6642943 C140.40954,62.6642943 140.032121,62.669842 139.664464,62.6793057 L141.509259,47.6837755 L144.814923,60.7161025" id="Fill-73" fill="#C29941"></path>
            <path d="M174.042073,86.5395982 L170.437077,89.8293342 C167.326629,88.1578702 159.530987,82.5306305 158.031074,81.2491315 C156.456329,79.9053032 145.969954,71.1064592 144.528606,69.1008332 C143.077497,67.0948809 141.235956,46.3689908 141.424665,45.4200221 C141.610121,44.4834543 150.541271,44.002117 151.556397,46.195383 C151.556397,46.195383 152.021663,58.0157191 152.262429,59.9945862 C152.490182,61.9737794 153.245019,63.7610904 154.598519,65.4257013 C156.469343,67.7295934 160.458265,73.0797786 164.317043,77.4046341 C165.237813,78.4355116 172.851253,85.5113315 174.042073,86.5395982" id="Fill-74" fill="#EEA886"></path>
            <path d="M176.963812,86.7021109 C176.963812,86.7021109 179.124207,88.3497524 181.304124,90.4656783 C183.220498,92.3221712 185.166155,94.7585534 184.67486,95.2183526 C184.004617,95.846865 182.699921,93.7547613 180.679431,92.0356532 C178.818368,90.453604 178.922483,91.0641681 178.922483,91.0641681 C178.922483,91.0641681 178.902962,90.8889286 180.601345,92.9914747 C182.423364,95.2519648 184.307203,97.9363578 183.747582,98.3237119 C183.392939,98.566828 183.376671,98.6317677 182.579538,97.9131884 C182.950449,98.420632 182.865855,98.5877131 182.667385,98.7531626 C181.649006,99.6088005 178.453964,96.681944 177.185057,95.5195555 C178.154632,96.4182693 178.769564,97.1773135 177.786975,97.293487 C176.661227,97.4263036 172.324169,93.0932898 170.625786,91.6838691 C168.77123,90.1462009 176.963812,86.7021109 176.963812,86.7021109" id="Fill-77" fill="#EEA886"></path>
            <path d="M112.155218,44.7298337 C112.155218,44.7298337 110.430807,57.1173319 111.279998,63.211224 C111.279998,63.211224 112.177994,63.880201 113.967477,63.3391455 C113.967477,63.3391455 114.413222,49.8166704 115.415332,45.0166779 C115.415332,45.0166779 114.862219,44.5989751 112.155218,44.7298337" id="Fill-78" fill="#007BA3"></path>
            <path d="M152.288458,46.4587315 C152.288458,46.4587315 152.851332,30.7178632 147.749677,30.9126823 C141.294521,31.1590618 140.3282,39.0784454 141.20342,47.6837755 C141.20342,47.6837755 150.84711,47.7780849 152.288458,46.4587315" id="Fill-75" fill="#B08814"></path>
            <path d="M172.304647,84.9986667 C172.304647,84.9986667 172.786181,85.7570583 173.482453,85.9926688 C174.683034,86.3996026 176.459503,85.6160836 177.337977,87.1942168 C178.213197,88.7726765 173.983508,92.7157257 172.844746,92.955252 C171.709237,93.1941259 169.887217,91.4198679 168.465391,87.9196492 C167.040312,84.4194303 172.304647,84.9986667 172.304647,84.9986667" id="Fill-76" fill="#EEA886"></path>
        </g>
        <g id="men" transform="translate(685.000000, 301.000000)" fill-rule="nonzero">
            <path d="M0.211623462,0.608436861 L3.28661527,14.8933635 C2.34071398,13.7295028 0.679698325,11.8731776 0.143362544,12.4258489 C-0.627010669,13.2125927 1.93764952,17.1105506 2.3764697,18.7913214 C2.77953418,20.3290479 3.3093689,22.7282914 3.97247496,24.1489817 L5.13291058,26.486456 L10.2654815,24.3863051 C10.2654815,24.3863051 10.024943,14.2008989 9.83316232,11.9089387 C9.51786188,8.18003316 2.34396451,0.104530708 1.64835325,0.020004515 C0.393652575,-0.129541827 0.211623462,0.608436861 0.211623462,0.608436861" id="Fill-92" fill="#EEA987"></path>
            <path d="M105.375693,270.991474 C105.375693,270.991474 106.818924,274.476553 108.037869,275.858232 C109.256814,277.239911 113.92131,279.707425 113.947442,283.806945 C113.973319,288.254323 106.084307,287.018939 102.996313,286.859641 C99.9115694,286.69709 99.677532,284.320604 98.377324,281.801074 C97.0803667,279.284795 95.7704071,279.710675 95.5266181,277.678797 C95.2828291,275.650168 96.5212771,271.102008 96.5212771,271.102008 L105.375693,270.991474" id="Fill-93" fill="#616D73"></path>
            <path d="M32.6453109,271.791222 C32.6453109,271.791222 28.3448731,276.30687 23.9826754,277.252914 C19.6172272,278.195705 16.564989,279.405081 16.5323584,281.992883 C16.4999786,284.583935 29.0924925,286.293967 34.0852911,283.680157 C41.5387332,279.782198 42.2961045,280.959064 43.1217366,279.008458 C43.9473686,277.061105 42.1303279,271.84974 42.1823362,271.232048 C42.2505972,270.464811 32.6453109,271.791222 32.6453109,271.791222" id="Fill-94" fill="#616D73"></path>
            <path d="M44.1098945,141.425824 C44.1098945,141.425824 39.5949223,174.228489 37.7518777,185.317675 C35.5935324,198.282693 34.8621654,208.994762 34.2608193,215.704841 C33.5066986,224.144457 32.0537162,268.52396 31.5238815,270.991474 C30.9940467,273.462238 43.3395213,272.230108 43.3395213,272.230108 C43.3395213,272.230108 52.291453,214.680774 54.5440634,205.69499 C56.6406486,197.323645 62.4103215,162.817453 64.3248776,165.102911 C66.2361834,167.388369 78.256606,207.759379 79.6738325,214.362175 C81.0910592,220.96172 94.7562449,272.642985 94.7562449,272.642985 C94.7562449,272.642985 104.972629,274.840667 107.569794,272.769774 C107.569794,272.769774 98.6568687,225.292062 97.7532242,212.915477 C97.4086691,208.198265 94.6164724,156.686053 86.6396966,135.817836 C82.4270228,124.790419 44.1098945,141.425824 44.1098945,141.425824" id="Fill-95" fill="#009392"></path>
            <path d="M57.3557629,62.7579459 C57.3557629,62.7579459 45.4101024,65.2287115 43.9928759,66.4836004 C42.4521293,67.8230154 39.7379452,80.9083203 39.5754193,84.5559507 C39.4128932,88.20033 41.0153996,103.428049 42.5561459,109.101057 C44.0936418,114.770814 43.7425858,144.367985 43.0534756,149.026679 C43.0534756,149.026679 67.0195587,153.714632 90.6703413,150.635928 C90.6703413,150.635928 86.5844377,124.930212 87.5303392,117.160304 C88.7427831,107.202469 91.66175,84.2666111 91.66175,84.2666111 C91.66175,84.2666111 88.5022446,68.8243257 86.3959076,67.0427737 C84.2895708,65.2579707 69.6492292,62.358072 69.6492292,62.358072 L57.3557629,62.7579459" id="Fill-96" fill="#B08814"></path>
            <path d="M62.2965532,25.8102464 C62.2965532,25.8102464 47.9227543,20.4915983 48.8231484,39.5912669 C49.7202918,58.6941866 53.0878305,60.6350382 62.5435927,57.965961 C71.9961046,55.3001349 72.7892316,43.2453992 74.0211785,37.445602 C75.2531256,31.6458048 66.996805,26.6425043 62.2965532,25.8102464" id="Fill-97" fill="#EEA886"></path>
            <path d="M54.9893845,65.7813827 C54.9893845,65.7813827 62.4558287,71.8380096 69.6492292,62.358072 C69.6492292,62.358072 69.3306783,54.6694394 71.5312804,47.4879639 C73.7318822,40.3064885 56.4813733,57.065432 56.4813733,57.065432 C56.6634024,57.1922211 56.699158,57.9106939 56.5951414,58.9120041 C56.5073774,59.7605171 56.3220978,60.8105924 56.0425531,61.8801738 C55.4119522,64.2794174 55.5582256,63.8535355 54.9893845,65.7813827" id="Fill-98" fill="#EEA886"></path>
            <path d="M72.0221087,46.9190376 C72.0221087,46.9190376 72.0643656,41.8149561 69.941776,41.346811 C67.8191865,40.8754148 66.7270119,43.8273296 66.7270119,43.8273296 L65.0204889,43.7330505 C65.0204889,43.7330505 66.5449829,38.5639485 64.5231593,37.3773308 C62.501336,36.1939641 50.3996504,37.2342866 48.8816578,35.4917466 C47.3636649,33.7524577 49.5675173,23.411003 52.866795,22.3966887 C56.1693233,21.3823743 65.1862655,19.3244866 70.9136814,24.4253174 C70.9136814,24.4253174 76.0430018,24.4578273 76.033278,30.6054824 C76.0234988,34.6692416 73.7481349,44.1524303 72.0221087,46.9190376" id="Fill-99" fill="#28353B"></path>
            <path d="M56.0425531,61.8801738 C67.1820846,60.0043427 68.8463508,53.6713802 68.8723549,53.570599 C64.539412,59.1558297 56.5951414,58.9120041 56.5951414,58.9120041 C56.5073774,59.7605171 56.3220978,60.8105924 56.0425531,61.8801738" id="Fill-100" fill="#A77860"></path>
            <path d="M73.5238489,63.1773257 C73.5238489,63.1773257 66.7855213,76.7990469 56.8681852,75.6969555 C46.9475985,74.5948639 52.6977681,65.0889183 53.6469198,63.5739487 C53.6469198,63.5739487 59.5986217,59.754015 73.5238489,63.1773257" id="Fill-102" fill="#EEA886"></path>
            <path d="M10.9350886,52.1824187 C8.13314043,46.7272283 1.97340524,25.6672022 1.97340524,25.6672022 L10.6912996,23.846638 C10.6912996,23.846638 15.3297914,34.4416711 17.5368944,41.7759438 C18.6128165,45.3488011 20.0527969,48.8598891 20.3745983,49.4223134 C20.6963998,49.9879887 35.5447746,61.2364745 37.1635336,62.0622303 C38.7822924,62.8879863 44.9972865,65.043404 47.9715121,68.06359 C50.9457379,71.080525 49.496006,75.2158063 49.496006,75.2158063 C43.1932479,83.32707 31.5466352,72.7840527 31.5466352,72.7840527 C31.5466352,72.7840527 14.8584661,59.8222862 10.9350886,52.1824187" id="Fill-103" fill="#B08814"></path>
            <path d="M25.4714134,67.7742503 C25.4714134,67.7742503 39.2276136,82.8004067 39.7021895,88.3693824 C40.0402436,92.3421135 42.5203903,76.4186791 42.5203903,76.4186791 L25.4714134,67.7742503" id="Fill-104" fill="#B08814"></path>
            <g id="book" transform="translate(1.973405, 92.631452)">
                <polyline id="Fill-89" fill="#E3E7E8" points="1.3040549e-13 10.2634304 104.982041 3.51433904 105.557383 64.8966104 11.0875233 64.8966104 1.3040549e-13 10.2634304"></polyline>
                <polyline id="Fill-90" fill="#C9CFD1" points="4.54747731 4.54490838 104.982041 3.51433904 105.557383 64.8966104 11.0875233 64.8966104 4.54747731 4.54490838"></polyline>
                <polygon id="Fill-105" fill="#0098C9" points="11.0875233 64.8966104 114.067244 64.8966104 114.067244 2.37941588e-12 11.0875233 2.37941588e-12"></polygon>
            </g>
            <path d="M100.031839,160.788824 C100.031839,160.788824 100.519417,159.595704 100.48041,158.971511 C100.48041,158.971511 100.317884,157.84016 100.252874,157.030659 C100.233371,156.770579 100.220369,156.546259 100.23012,156.399964 C100.259375,155.792025 100.512916,154.462364 100.174862,152.973402 C99.840058,151.490943 98.127034,146.364104 98.127034,146.364104 L93.4982937,147.053318 L89.4774006,146.507148 C89.4774006,146.507148 86.4804213,155.255609 86.6331955,156.6763 C86.6494482,156.812842 86.6689514,156.949384 86.698206,157.076174 C86.9452456,158.266042 87.6278548,159.049535 87.8261365,159.657473 C87.9008983,159.881793 88.7947914,162.053466 89.4643985,162.26153 C90.3940472,162.55087 91.1546688,162.375316 91.6715014,161.952685 C91.6715014,161.952685 93.5177967,162.440336 94.6847334,161.90717 C94.6847334,161.90717 96.3750037,162.411077 97.639456,161.331742 C97.639456,161.331742 99.4077387,161.650341 100.031839,160.788824" id="Fill-106" fill="#EFAA88"></path>
            <path d="M77.8242866,78.5448379 C79.1504989,86.5228102 81.7834201,89.9298661 82.839839,91.7926933 C83.8995084,93.6587716 90.442805,106.087373 90.4168007,107.924192 C90.355041,112.712926 90.4655585,125.352843 90.3160346,126.318392 C90.0559931,127.969904 88.9898226,147.014306 88.9898226,147.014306 L99.0956889,149.462314 C99.0956889,149.462314 101.088258,127.986159 101.988652,121.497148 C102.35271,118.893091 103.132835,111.747377 102.232441,104.630922 C101.364552,97.7615429 96.3880058,82.5825892 95.7216493,81.3732144 C95.0552926,80.1670908 90.1762623,62.6994278 79.8168554,66.711171 C78.2501049,67.3191093 76.5890892,71.109784 77.8242866,78.5448379 Z" id="Fill-107" fill="#B08814"></path>
            <path d="M4.93137833,25.7159673 C4.93137833,25.7159673 7.31725993,28.3427812 8.25666018,27.1854226 C9.19606043,26.0280639 10.2654815,24.3863051 10.2654815,24.3863051 L4.93137833,25.7159673" id="Fill-91" fill="#EEA987"></path>
            <path d="M67.5396418,39.1783889 C68.1767438,37.4976181 71.7588167,37.7089335 71.3915078,40.3780107 C71.0241992,43.0470879 68.0629755,47.1563612 66.8732853,46.3858725 C65.6835949,45.6153836 66.665252,41.4996082 67.5396418,39.1783889" id="Fill-101" fill="#EEA886"></path>
        </g>
        <g id="men4" transform="translate(-1.000000, 322.000000)" fill-rule="nonzero">
            <path d="M9.33907811,123.42385 C9.33907811,123.42385 10.3352013,125.05728 10.4599203,126.388102 C10.5589138,127.439094 11.4452974,129.013955 11.8292233,129.885985 C12.2134748,130.754761 13.4486155,134.691913 13.4929021,135.716873 C13.5111378,136.133366 12.5759087,138.775487 12.7084429,139.618233 C12.8406515,140.464232 13.3245479,142.136708 12.5658139,142.247339 C11.8067544,142.361223 10.9464217,140.988101 10.9464217,140.988101 C10.9464217,140.988101 11.0180619,141.76577 10.3762316,142.06187 C9.12773979,142.641054 8.46637128,142.1302 8.46637128,142.1302 C8.46637128,142.1302 8.00592074,142.985961 7.42791528,143.099846 C6.1530469,143.353646 5.52880101,142.846046 5.52880101,142.846046 C5.52880101,142.846046 4.9670774,143.324361 4.08622963,143.308092 C2.95985169,143.285315 2.48637566,142.312416 2.48637566,142.312416 C2.48637566,142.312416 1.05910923,142.602008 0.6455504,141.93497 C0.23166593,141.271186 0.303306042,140.561848 0.132021044,139.959886 C-0.0395895902,139.354671 0.0903395239,133.91099 1.94060826,129.993362 C3.79152827,126.072479 1.4694117,122.252466 1.4694117,122.252466 L9.33907811,123.42385" id="Fill-164" fill="#EEA886"></path>
            <path d="M11.1470141,140.477248 C11.1470141,140.477248 11.2740124,135.593228 9.98742113,134.555251 C8.70115548,133.514021 8.55494452,135.277605 8.55494452,135.277605 C8.55494452,135.277605 8.72948589,133.533544 7.32371149,133.299267 C5.91793709,133.06499 5.85867117,135.134435 5.85867117,135.134435 C5.85867117,135.134435 5.62844589,133.790598 4.15168266,134.067175 C2.67491943,134.343751 3.02660725,136.055273 3.02660725,136.055273 C3.02660725,136.055273 1.61627393,134.37629 0.701559942,135.990197 C-0.843587042,138.716918 0.6455504,141.93497 0.6455504,141.93497 C0.6455504,141.93497 1.08092691,142.673592 2.48637566,142.312416 C2.48637566,142.312416 3.42648934,144.206153 5.52880101,142.846046 C5.52880101,142.846046 7.68191205,144.030445 8.46637128,142.1302 C8.46637128,142.1302 10.8396129,143.259284 11.1470141,140.477248" id="Fill-165" fill="#DB9C7C"></path>
            <path d="M25.9198567,53.0692316 C25.9198567,53.0692316 17.5529427,80.9351531 14.7254377,91.2140468 C13.8387285,94.4386064 11.6927815,125.223226 11.3140658,126.462941 C10.9353501,127.702655 0.322192981,129.401162 0.322192981,129.401162 C0.322192981,129.401162 1.60813301,90.8886624 1.72796738,88.7866791 C1.84812739,86.6879495 13.4385208,43.6786372 16.8091881,42.1428227 C19.3345021,40.9942157 20.6676594,41.9443384 23.849783,44.3066292 C28.3158927,47.6190425 25.9198567,53.0692316 25.9198567,53.0692316" id="Fill-166" fill="#008AB6"></path>
            <path d="M129.647251,8.70957386 C129.647251,8.70957386 129.464243,9.79310397 129.153259,10.2258652 C129.153259,10.2258652 128.526734,10.9742494 128.113501,11.5306568 C127.982921,11.7096182 127.872855,11.8658027 127.812938,11.9764334 C127.560569,12.4319716 127.14408,13.508994 126.230343,14.4330858 C125.318885,15.3571775 121.765861,18.2953988 121.765861,18.2953988 L118.721808,15.7151004 L115.561502,14.2996782 C115.561502,14.2996782 117.331013,6.6140982 118.08128,5.65421417 C118.1552,5.55985269 118.231399,5.47199891 118.309552,5.39390663 C119.023999,4.64226863 119.87098,4.38196109 120.290401,4.03054594 C120.445404,3.90364601 122.070983,2.7322621 122.650617,2.88193894 C123.45494,3.0934388 123.92809,3.56199238 124.111424,4.10213051 C124.111424,4.10213051 125.668619,4.58044559 126.275281,5.49152197 C126.275281,5.49152197 127.725993,5.88849096 128.156811,7.23883629 C128.156811,7.23883629 129.583426,7.80175132 129.647251,8.70957386" id="Fill-167" fill="#EFAA88"></path>
            <path d="M19.1306534,243.334516 C19.1306534,243.334516 18.3680118,248.625267 18.2729258,249.419204 C18.1775142,250.213142 9.78780572,248.95065 9.78780572,248.95065 L9.10852722,242.654461 C9.10852722,242.654461 18.0821026,242.589387 19.1306534,243.334516" id="Fill-170" fill="#424773"></path>
            <path d="M18.3618247,248.745658 C18.3618247,248.745658 21.0199986,251.934426 23.5909017,253.323817 C26.1618048,254.713208 30.2019815,255.263108 31.7220545,256.701307 C32.8194507,257.739284 35.7192471,262.210066 25.0416139,262.118959 C14.3639808,262.027851 9.21566173,262.750203 8.07169938,261.038682 C6.92773703,259.323906 9.72691164,248.387736 9.72691164,248.387736 C9.72691164,248.387736 12.2558076,249.298811 18.3618247,248.745658" id="Fill-171" fill="#57646B"></path>
            <path d="M79.2428954,243.334516 C79.2428954,243.334516 78.4802538,248.625267 78.3848422,249.419204 C78.2894305,250.213142 69.9000478,248.95065 69.9000478,248.95065 L69.2207691,242.654461 C69.2207691,242.654461 78.1943445,242.589387 79.2428954,243.334516" id="Fill-172" fill="#424773"></path>
            <path d="M83.7031436,253.323817 C86.2740469,254.713208 95.7347749,255.855308 97.2551736,257.293507 C98.3525698,258.331484 100.177765,262.509419 85.1535303,262.118959 C74.4798048,261.842381 69.3279037,262.750203 68.1839413,261.038682 C67.039979,259.323906 69.8394791,248.387736 69.8394791,248.387736 C69.8394791,248.387736 72.221513,249.360635 78.4740667,248.745658 C78.4740667,248.745658 81.1322406,251.934426 83.7031436,253.323817 Z" id="Fill-173" fill="#57646B"></path>
            <path d="M67.5756516,109.097174 C67.5756516,109.097174 73.5162451,140.103056 74.3003787,147.027236 C75.0845125,153.951416 75.6071595,180.535323 75.9992264,184.862936 C76.3916188,189.190549 79.6619899,241.359433 80.7043537,247.919181 L66.8781375,247.919181 C66.8781375,247.919181 56.2649803,209.898013 56.2649803,191.910762 C56.2649803,175.32056 49.2922004,156.071246 44.0560626,143.866757 C40.9004603,156.214118 32.8241864,183.304351 30.9108931,187.830442 C28.5581666,193.394515 19.4751772,247.919181 19.4751772,247.919181 L19.4751772,247.919181 L8.66045086,247.671889 C8.66045086,247.671889 7.62557686,225.168304 7.8219359,218.120477 C8.01764368,211.075905 13.4206107,179.884554 14.740417,166.709739 C15.9247583,154.891777 19.371299,142.543439 18.7828732,131.229822 C18.4320418,124.480681 21.0958468,117.304254 23.3023745,112.612169 C22.8294378,110.847999 22.4280497,108.907772 22.1108821,106.760914 C22.1108821,106.760914 63.170436,102.114425 67.5756516,109.097174 Z" id="Combined-Shape" fill="#007373"></path>
            <path d="M39.2322178,2.18561629 C39.2322178,2.18561629 49.8131368,-1.76455054 54.6918287,6.28545995 C59.570846,14.3322166 59.1003007,30.4452529 53.7673456,32.4268441 C48.433739,34.4084352 40.422095,33.3700965 37.6916298,28.3367619 C34.9611646,23.299811 32.4957678,16.0177079 32.6142996,11.1532108 C32.7325058,6.28871379 36.4542095,3.59127696 39.2322178,2.18561629" id="Fill-176" fill="#EEA886"></path>
            <path d="M52.6184986,32.7945283 C52.6184986,32.7945283 52.1785631,35.6481498 52.906036,37.0570643 C53.6338343,38.462725 39.1980259,38.4985174 39.1980259,38.4985174 C39.1980259,38.4985174 38.0260588,30.8487297 35.8042383,24.386595 C33.5827436,17.9244606 52.6184986,32.7945283 52.6184986,32.7945283" id="Fill-177" fill="#EEA886"></path>
            <path d="M41.3931442,0.923124746 C54.2227032,-3.55757872 59.3257158,9.60645521 57.127961,11.9157025 L57.0119913,12.0219872 C55.1507323,13.5008594 55.6107962,16.5903844 55.9571568,18.0427175 L56.1754301,18.8290292 L54.3717274,18.7151447 L53.3085232,17.163061 L53.2932782,17.2716874 C53.234851,17.5463639 52.9529276,18.2804311 51.5943707,18.7541908 C49.8961742,19.3496443 44.9347708,24.7542796 40.8675662,25.3920328 C36.8006873,26.0297864 35.8042383,24.386595 35.8042383,24.386595 C35.4609271,23.9524932 35.1359667,23.432738 34.8304818,22.8432906 C24.3994243,5.73241388 34.2109534,3.43545815 35.9621069,3.16798756 L36.2187741,3.13573879 C38.7441999,1.65273182 41.3931442,0.923124746 41.3931442,0.923124746 Z" id="Path" fill="#28353B"></path>
            <path d="M53.7631122,36.8846106 C53.7631122,36.8846106 53.7171974,34.2001892 52.4986641,33.9431354 C51.2798054,33.6860818 39.0459535,32.50819 37.5499777,33.0971359 L37.5499777,36.2273341 C37.5499777,36.2273341 40.4321898,37.9974252 53.7631122,36.8846106" id="Fill-179" fill="#E2D2CA"></path>
            <path d="M53.0392214,15.0936161 C52.8112756,14.1402398 50.3810475,11.4102645 49.450703,14.3322166 C48.5200328,17.2541687 50.8564773,21.1848124 52.1596761,20.8464126 C53.4628749,20.5112667 53.6175526,17.5144762 53.0392214,15.0936161" id="Fill-180" fill="#EEA886"></path>
            <path d="M73.9978622,40.9551696 C65.6097819,39.8488627 53.7627866,36.8846106 53.7627866,36.8846106 L37.549652,36.2273341 C37.549652,36.2273341 22.6693493,39.5007013 16.8091881,42.1428227 C16.2533259,42.3933688 16.2510465,55.4087454 14.7254377,58.822028 L19.5842656,69.0618757 C19.5842656,69.0618757 22.3909298,89.352848 22.9731685,98.3757578 C23.2405165,102.517901 17.184973,137.216896 17.184973,137.216896 C17.184973,137.216896 23.6736135,139.126902 34.7390801,140.34384 C45.8042212,141.564032 73.4520946,139.904571 73.6259847,138.596526 C73.8011774,137.291734 68.2718632,89.9710783 68.0273099,87.5209336 C67.6515249,83.7594898 69.3246473,63.7711249 69.3246473,63.7711249 C71.8795943,61.7927876 94.3114163,51.3869939 100.43111,45.9660896 C102.069063,44.5148751 108.981358,37.7891792 110.94625,35.4659345 C117.904459,27.2434704 123.608966,20.1923899 124.302898,18.6695909 C125.091265,17.8073222 116.742261,13.2714634 115.98483,13.0176635 C115.322159,12.7964021 105.916789,24.9755409 102.296032,28.8931692 C100.68185,30.6404837 93.9714513,35.517996 93.9714513,35.517996 C93.9714513,35.517996 79.2448491,41.2545234 73.9978622,40.9551696" id="Fill-182" fill="#008AB6"></path>
        </g>
        <g id="men3" transform="translate(232.000000, 336.000000)" fill-rule="nonzero">
            <path d="M54.2476389,250.163149 C54.2476389,250.163149 51.4131857,254.409415 47.4345493,255.327001 C43.4591634,256.244584 39.5390364,257.70556 39.509671,260.217527 C39.4805273,262.729494 51.0101211,264.229517 55.560849,261.694773 C62.3576861,257.913806 63.0467964,259.055904 63.8009169,257.165421 C64.5517871,255.274938 62.8940219,250.221718 62.9427797,249.619757 C63.0045397,248.87788 54.2476389,250.163149 54.2476389,250.163149" id="Fill-184" fill="#616D73"></path>
            <path d="M54.6897096,248.067673 C54.6897096,248.067673 54.172877,250.12085 54.2476389,250.163149 C54.3256515,250.205449 63.2125728,251.266203 62.9427797,249.619757 C62.7249948,248.28568 62.4161956,246.834467 62.4161956,246.834467 L54.6897096,248.067673" id="Fill-185" fill="#81807E"></path>
            <path d="M84.1556724,249.880066 C84.1556724,249.880066 82.133849,253.944116 78.6785465,255.327001 C74.9827054,256.807499 72.0214817,258.506006 72.0897427,260.956151 C72.154753,263.403041 81.1196869,265.885724 87.6402297,261.187174 C91.7618889,258.216414 93.0653474,258.203398 93.7284536,256.332437 C94.3883091,254.464731 92.5810199,249.606741 92.6037737,249.017796 C92.6362788,248.292188 84.1556724,249.880066 84.1556724,249.880066" id="Fill-186" fill="#616D73"></path>
            <path d="M84.0549065,247.771573 C84.0549065,247.771573 84.0809105,249.841019 84.1556724,249.880066 C84.233685,249.91911 92.8215584,250.628448 92.6037737,249.017796 C92.431496,247.739035 91.7716405,246.193459 91.7716405,246.193459 L84.0549065,247.771573" id="Fill-187" fill="#81807E"></path>
            <path d="M52.5638696,123.669957 C52.5638696,123.669957 44.5838434,158.905835 42.7603018,169.637013 C41.2098038,178.770554 39.9746061,188.284794 40.7157247,194.877083 C41.6356218,203.040978 53.1814686,245.353967 52.7003914,247.748796 C52.216064,250.140372 64.7793235,248.132751 64.7793235,248.132751 C64.7793235,248.132751 55.9996692,200.932487 57.75495,192.150361 C59.0519074,185.642673 70.435228,142.425115 72.1807572,144.640983 C73.9230359,146.85685 76.0878821,185.431173 77.3783386,191.831485 C78.6720455,198.23505 82.6376797,248.829072 82.6376797,248.829072 C82.6376797,248.829072 91.505098,250.137119 93.8714765,248.132751 C93.8714765,248.132751 94.9506489,204.931461 94.1282674,192.92803 C93.8129671,188.353125 99.4818738,138.074725 92.2137113,117.83256 C88.3715967,107.137174 52.5638696,123.669957 52.5638696,123.669957" id="Fill-188" fill="#007BA3"></path>
            <path d="M17.8288142,91.6391148 C23.5172239,90.841923 41.411336,98.7747949 43.0365959,98.1760877 C44.1547748,97.7661033 46.7779444,89.2052394 48.6534943,82.7268355 C49.7619215,78.8970609 50.6070568,75.7928936 50.7240754,75.5358398 L50.7305765,75.5228246 C50.714324,75.6952783 50.4250275,78.623738 50.7923364,82.4730357 C50.8150899,82.7203277 50.8443447,82.9741277 50.8735993,83.2311813 C50.8801004,83.2962582 50.889852,83.364589 50.8963531,83.4329198 C51.06538,84.8092957 51.3221711,86.2800333 51.7024819,87.7670401 C52.2713228,89.9633849 52.5411161,92.8527986 52.6418823,95.9016505 L52.6418823,95.9114121 L52.6451328,95.9829968 C52.6451328,96.0545812 52.6516336,96.1229119 52.6516336,96.1944966 C52.6516336,96.2205272 52.6548842,96.2498119 52.6548842,96.2790964 C52.8109092,101.826901 52.4305984,107.807466 52.2713228,110.989726 C52.0210328,115.922554 53.6397918,118.141676 53.6885496,118.203499 L53.6885496,118.206752 L55.4048242,117.965968 L56.6432722,117.79026 L56.6562743,117.787007 L58.310789,117.555984 L64.802077,116.641653 L67.152203,116.309761 L67.7080418,116.231669 L71.8166989,115.652485 L83.4080529,114.022309 L84.6822568,113.843347 L85.2055904,113.768509 L89.5775395,113.150279 L91.5506053,112.873702 L91.5571064,112.873702 C91.5571064,112.873702 93.2376251,100.961378 93.3643953,94.5220208 C93.4814141,88.6065319 96.6441698,76.599847 97.1610026,74.6768251 L97.1707542,74.6377788 L97.1837561,74.5857173 C97.1935077,74.553179 97.2000088,74.5238943 97.2097604,74.5011175 L97.219512,74.4588173 L97.2227623,74.449056 L97.2260128,74.4360406 L97.2292634,74.4132636 C97.2292634,74.4132636 106.691527,84.3635191 108.52482,88.7041472 C109.08716,90.0219541 110.796933,93.6044366 112.974782,97.9678417 C114.46677,95.120728 115.39967,93.1423907 115.39967,92.6478065 C115.39967,92.5859834 115.39967,92.5209065 115.396419,92.4525757 C115.256647,88.1607553 110.764428,70.7559428 107.218111,59.3837573 C104.464921,53.8424607 102.088791,49.3619174 101.328169,48.8152715 C100.170984,47.9855413 95.3147073,45.903081 91.0760292,44.2208434 C90.9362569,44.1655281 90.7997351,44.1102127 90.6632133,44.0581512 C90.2699003,43.8987129 89.8798379,43.7490362 89.4995272,43.5993592 C89.310997,43.5277748 89.1257174,43.4529363 88.9404378,43.3846055 C88.8396717,43.3455595 88.7389056,43.3065134 88.64139,43.270721 C88.5601268,43.2381826 88.4788639,43.2088979 88.397601,43.1763596 C86.278262,42.3694061 84.6660041,41.8064911 84.3344511,41.7869682 C84.2791922,41.7837143 84.1914283,41.7869682 84.0711589,41.7902221 C83.9313866,41.7934757 83.7493575,41.7999834 83.5348231,41.8162527 C80.914904,41.9691833 73.0974038,42.7012982 70.5815014,42.9420827 C70.123178,42.9843827 69.8403828,43.0104135 69.7981261,43.0169212 L69.791625,43.0169212 C69.791625,43.0169212 68.5921832,43.563567 66.7881446,44.3867897 L66.7881446,44.3900435 L66.6191177,44.4648818 C65.5301935,44.9659738 64.2657412,45.633012 62.9330281,46.3651269 C60.3163596,47.8000721 57.429898,49.475802 55.0310142,50.6179011 C52.684139,51.7372237 49.4661242,53.295815 49.1930806,53.5138225 L37.2896768,87.8776708 L16.6358734,84.0999578 L17.8288142,91.6391148" id="Fill-189" fill="#C9CFD1"></path>
            <path d="M53.6885496,118.203499 C53.6885496,118.203499 52.8174103,119.247983 52.5638696,123.669957 C52.5638696,123.669957 88.423605,119.482259 92.2137113,117.83256 C92.2137113,117.83256 92.3632352,112.958302 91.5571064,112.873702 C90.6762154,112.782594 53.6885496,118.203499 53.6885496,118.203499" id="Fill-190" fill="#616D73"></path>
            <path d="M84.2694406,40.5700304 C84.1556724,46.2024345 73.2599299,49.2870789 73.2599299,49.2870789 C73.2599299,49.2870789 68.702701,43.5668208 69.791625,43.0169212 C70.2174431,42.8021676 70.3929713,41.9496604 70.4449796,40.9930302 C70.4937374,40.0787 70.435228,39.076516 70.3832197,38.4355086 C70.3507146,38.0385396 70.3214598,37.7814858 70.3214598,37.7814858 C70.3214598,37.7814858 71.8784588,36.1382947 73.8580254,34.1794804 C77.3198292,30.7531825 82.0785902,26.3637466 82.0850912,28.1110611 C82.0850912,28.2021687 82.0720893,28.3127994 82.0460851,28.4396994 C81.2074508,32.370343 84.2694406,40.5700304 84.2694406,40.5700304" id="Fill-191" fill="#EEA886"></path>
            <path d="M83.3657962,113.739224 C83.3657962,113.739224 84.145921,118.67856 84.2141818,119.967082 L85.8751975,119.63519 C85.8751975,119.63519 85.4168741,114.409516 85.147081,113.530978 L83.3657962,113.739224" id="Fill-192" fill="#007BA3"></path>
            <path d="M56.6790278,117.627568 C56.6790278,117.627568 56.0516775,122.117873 56.0354251,123.813126 L57.7907056,123.585357 C57.7907056,123.585357 58.1515134,117.978983 58.3497952,117.393291 L56.6790278,117.627568" id="Fill-193" fill="#007BA3"></path>
            <path d="M80.0730195,32.3150277 L80.069769,32.3182815 C80.0502658,32.3508201 79.5886921,33.0406349 78.7988157,34.0363113 C77.124798,36.1415483 73.9815453,39.6003848 70.4449796,40.9930302 C70.4937374,40.0787 70.435228,39.076516 70.3832197,38.4355086 C70.0224121,38.4257471 69.6583538,38.386701 69.3007965,38.3053548 C70.2694514,36.610102 71.6704255,34.8335032 71.6704255,34.8335032 L73.8580254,34.1794804 L80.0730195,32.3150277" id="Fill-194" fill="#A77860"></path>
            <path d="M82.1631039,28.1858994 C81.220453,30.2390751 80.3265601,31.726082 80.0730195,32.3150277 L80.069769,32.3182815 C79.9072429,32.6989812 79.4554208,33.3269732 78.7988157,34.0363113 C77.0012781,35.9723485 73.6662448,38.5266162 70.3832197,38.4355086 C70.0224121,38.4257471 69.6583538,38.386701 69.3007965,38.3053548 C67.9778351,38.0157626 66.4110844,37.4007861 65.5496967,35.712041 C58.7528595,22.390803 63.6741467,11.4936788 63.6741467,11.4936788 C63.6741467,11.4936788 82.26387,6.23221278 85.1698348,11.8353325 C87.2111611,15.7627224 84.3767078,23.3637025 82.1631039,28.1858994" id="Fill-195" fill="#EEA886"></path>
            <path d="M63.6741467,11.4936788 C63.6741467,11.4936788 61.9481205,11.3993173 61.5223025,8.12269626 C61.099735,4.88512131 61.9513711,3.98706032 61.9513711,3.98706032 C61.9513711,3.98706032 69.6258487,0.77226227 72.3822895,0.355770213 C75.1387304,-0.0639756845 81.9128138,-0.464198519 83.502318,1.35470038 C83.502318,1.35470038 87.360685,0.456639384 88.4138534,6.86996626 C90.0813702,17.0414831 82.7286943,26.9201541 82.7286943,26.9201541 C82.7286943,26.9201541 82.7904542,20.2758043 81.3277202,19.3940125 C79.8617357,18.5122207 78.6005339,20.6076964 78.6005339,20.6076964 L75.6035546,21.1445806 C75.6035546,21.1445806 80.1542825,11.3114636 74.6966596,10.947033 C69.2390368,10.5826025 66.7978963,12.0631016 63.6741467,11.4936788" id="Fill-196" fill="#222E33"></path>
            <path d="M78.6817971,17.9590672 C78.9678428,15.0306075 84.2564385,13.9112851 83.902132,16.9796601 C83.5478252,20.051289 80.9441589,22.9992718 79.738216,22.8951488 C78.5355237,22.7910258 78.4640121,20.1912043 78.6817971,17.9590672" id="Fill-197" fill="#EEA886"></path>
            <path d="M97.1610026,74.6768251 L97.1707542,74.6377788 L97.1837561,74.5857173 L97.2097604,74.5011175 L97.219512,74.4588173 L97.2227623,74.449056 L97.2260128,74.4360406 C97.2260128,74.4360406 102.807156,83.1661044 102.384588,90.7508152 C102.319578,91.9319606 101.14614,94.9157359 99.4396171,98.7390027 L99.4363665,98.7455104 C98.8155173,100.14141 98.1231565,101.644685 97.3885389,103.213038 C97.3592843,103.151215 97.33328,103.082885 97.307276,103.017808 C96.2411055,100.411479 95.5454941,97.9645879 95.5454941,95.8268121 C95.5454941,95.8268121 96.0168194,79.1866531 97.1610026,74.6768251 Z M115.39967,92.6478065 C115.39967,92.5859834 115.39967,92.5209065 115.396419,92.4525757 C115.295653,88.1705168 113.189316,71.0260118 109.642999,59.6570802 C107.923474,54.1353067 107.526911,50.2762475 106.860554,49.8011864 C105.706619,48.9714559 95.4349764,45.9291117 91.0760292,44.2208434 C90.9362569,44.1655281 90.7997351,44.1102127 90.6632133,44.0581512 C90.2699003,43.8987129 89.8798379,43.7490362 89.4995272,43.5993592 C89.310997,43.5277748 89.1257174,43.4529363 88.9404378,43.3846055 C88.8396717,43.3455595 88.7389056,43.3065134 88.64139,43.270721 C88.5601268,43.2381826 88.4788639,43.2088979 88.397601,43.1763596 L88.3748472,43.2023904 C87.9880354,43.6351516 85.9694626,45.9291117 83.5640779,49.3554097 C79.0653584,55.7622288 73.2014205,66.1322303 74.1018144,75.7115474 C74.3878601,78.7864302 74.7454174,83.2018968 75.3402626,88.1542475 C75.392271,88.5805013 75.4475296,89.0067547 75.4995379,89.4362621 C75.6458113,90.5783614 75.8050869,91.7432378 75.9773643,92.9211293 C76.081381,93.6272134 76.1918987,94.3398054 76.305667,95.0556511 C77.4953572,102.484177 81.2334551,107.547159 84.5489853,113.602563 C84.5782401,113.651371 84.6042442,113.703432 84.633499,113.755494 C84.6497514,113.784778 84.6660041,113.814063 84.6822568,113.843347 C84.7505176,113.970247 84.8220291,114.100401 84.8935404,114.230555 C85.0073087,114.442055 85.1178265,114.656808 85.2315945,114.871562 C85.296605,114.995208 85.3616155,115.118854 85.4233752,115.2425 C86.0604771,116.462692 86.6813264,117.708914 87.2826726,118.961644 C87.672735,119.768598 88.0562964,120.578805 88.4301061,121.389012 C88.4691123,121.473612 88.5048682,121.554958 88.5438744,121.639558 C88.5438744,121.639558 89.154972,123.061488 89.9383474,124.883641 C90.2276436,125.553932 90.5364431,126.276286 90.8484929,127.005147 C91.0630273,127.506239 91.280812,128.007331 91.4855948,128.495408 C91.6708744,128.921661 91.8464026,129.3349 92.0154295,129.728615 C92.3924898,130.607153 92.7207923,131.378314 92.9483288,131.915198 C93.1206063,132.315421 93.2343745,132.588744 93.2701302,132.683105 C94.4110628,135.53998 95.2366949,137.746087 95.6170057,138.774302 C95.7665296,139.190793 95.8477925,139.415309 95.8477925,139.415309 L107.318877,133.07682 C109.496726,131.986783 108.359043,126.11034 107.539912,123.813126 C106.860554,121.906373 105.90165,119.859705 104.822478,117.744707 C104.380407,116.879184 103.918833,116.0039 103.447508,115.122108 C107.036082,108.842189 110.670163,102.367039 112.974782,97.9678417 C114.46677,95.120728 115.39967,93.1423907 115.39967,92.6478065 L115.39967,92.6478065 Z" id="Fill-198" fill="#008AB6"></path>
            <path d="M10.2076453,79.9968604 L36.1812495,85.658549 L48.5657303,53.2437535 C48.8387739,53.0289998 52.3883417,51.1157395 54.7384674,49.9964169 C57.186109,48.8282869 60.280604,47.3900877 63.0272932,46.1210886 C64.3405033,45.5126198 65.5757007,44.9464509 66.6191177,44.4648818 L66.7068817,44.5332126 C66.7068817,44.5332126 65.1726364,49.6450019 63.1898193,62.400071 L63.1865687,62.4033248 C63.1183077,62.8328322 63.0532975,63.2688472 62.9850365,63.7146241 C62.9785354,63.7666856 62.9720343,63.8187471 62.9622827,63.8708085 C62.9167755,64.1636546 62.8712682,64.4630081 62.8290115,64.7656157 C62.8225104,64.8014079 62.8160093,64.8372003 62.812759,64.8729925 C62.7802537,65.074731 62.7509991,65.2829769 62.7217443,65.487969 C62.6469824,65.9923148 62.5722203,66.5064222 62.4974585,67.0302912 C61.613317,73.2386259 60.3716185,83.8038579 59.1786778,94.4732129 L59.1786778,94.4764667 C58.2360269,102.8844 56.0874332,111.513595 55.4048242,117.952953 L55.4048242,117.965968 C55.2683022,119.225206 54.9465008,120.907443 54.5109311,122.804434 C54.4621733,123.019188 54.410165,123.237195 54.3581566,123.458457 C52.4370995,131.583306 48.7055026,143.088899 48.7055026,143.088899 L47.6198289,142.083461 L44.4018143,139.109447 C43.6606957,138.42614 43.381151,137.378402 43.6801989,136.415264 C45.4647343,130.652706 51.5302045,110.254357 52.6418823,95.9114121 L52.6418823,95.9016505 C52.9896877,91.3950764 51.6732273,87.1488097 50.9126055,83.1270583 C50.8963531,83.1595969 50.8866015,83.1953891 50.8735993,83.2311813 C50.2332469,85.0077803 49.5278841,86.9438176 48.8127698,88.8245394 C46.8982135,93.8777595 44.9414006,98.5632951 44.1255202,98.859395 C42.3084794,99.5296868 8.10715934,90.1683772 7.8705215,88.8245394 L10.2076453,79.9968604" id="Fill-199" fill="#008AB6"></path>
            <path d="M66.7881446,44.3900435 C66.7881446,44.3900435 64.8053275,50.8651934 62.4974585,67.0270374 C61.613317,73.2386259 60.3716185,83.8071117 59.1786778,94.4732129 L57.9434801,63.945647 L60.4691341,61.209164 L58.2230248,58.4010965 L63.0272932,46.1210886 C64.3405033,45.5126198 65.5757007,44.9464509 66.6191177,44.4648818 L66.7881446,44.3900435" id="Fill-201" fill="#2CA9D2"></path>
            <path d="M88.6641435,43.2414365 L84.2694406,40.5700304 C84.2694406,40.5700304 84.145921,42.9843827 73.2599299,49.2870789 L76.3511743,58.0008737 L88.6641435,43.2414365" id="Fill-202" fill="#E3E7E8"></path>
            <path d="M70.3637165,41.7869682 C70.3637165,41.7869682 70.5359942,44.3900435 73.2599299,49.2870789 L67.2269648,57.1581281 L66.7881446,44.3900435 L70.3637165,41.7869682" id="Fill-203" fill="#E3E7E8"></path>
            <path d="M67.2334659,116.804345 C66.576861,113.501694 67.2009608,103.6035 67.2269648,103.183754 L67.7893049,103.219546 C67.7828039,103.320415 67.1424514,113.462647 67.7828039,116.693715 L67.2334659,116.804345" id="Fill-205" fill="#AFB6B9"></path>
            <path d="M71.810198,115.281546 C71.810198,115.281546 66.5346043,115.912792 64.7890751,116.348807 L65.0166114,122.26755 L71.9272166,121.528927 L71.810198,115.281546" id="Fill-206" fill="#959EA2"></path>
            <path d="M70.6562633,54.6233833 C70.6562633,54.6233833 64.7695719,69.4999589 65.7317257,86.1498797 C66.7263849,103.414777 68.3581459,109.675173 68.3581459,109.675173 L71.985726,114.230555 L73.5882324,108.630689 C73.5882324,108.630689 68.7189534,86.6216869 71.8622064,65.2016307 C72.4310473,61.3230485 73.2761824,53.9661068 73.2761824,53.9661068 L70.6562633,54.6233833" id="Fill-207" fill="#B08814"></path>
            <path d="M88.3390916,124.877133 C88.3390916,124.877133 87.0778898,127.40537 85.8134376,127.82837 C84.5522358,128.248116 82.709191,130.304545 82.709191,130.304545 L91.6026136,134.990081 C91.6026136,134.990081 93.9689921,130.356606 94.0730087,127.40537 C94.1802757,124.457387 88.3390916,124.877133 88.3390916,124.877133" id="Fill-208" fill="#EEA886"></path>
            <path d="M87.4939565,125.114664 L86.9056124,126.302317 C86.9056124,126.302317 92.5517653,130.434699 94.0762591,130.69826 L94.5963424,129.120146 L87.4939565,125.114664" id="Fill-209" fill="#DECBC4"></path>
            <path d="M86.9056124,125.166725 C86.9056124,125.166725 91.1377891,128.671115 94.7036096,130.285022 L106.698028,108.689258 L100.483034,96.6630502 C100.483034,96.6630502 87.185157,123.061488 86.9056124,125.166725" id="Fill-210" fill="#008AB6"></path>
            <path d="M51.0783821,75.5813938 C50.8833509,79.5738605 50.9126055,83.1238045 50.9126055,83.1238045 L50.9126055,83.1270583 C50.909355,83.1465815 50.9061047,83.2539583 50.8963531,83.4329198 C50.889852,83.364589 50.8801004,83.2962582 50.8735993,83.2311813 C50.2332469,85.0077803 49.5278841,86.9438176 48.8127698,88.8245394 C48.6469932,86.6444639 48.6047365,84.6108113 48.6534943,82.7268355 C48.93954,71.5271038 52.459853,65.6506612 52.459853,65.6506612 C51.6504736,67.6062217 51.2636617,71.7939192 51.0783821,75.5813938" id="Fill-211" fill="#006D90"></path>
            <path d="M104.822478,117.744707 L95.2204422,129.354422 L103.447508,115.122108 C103.918833,116.0039 104.380407,116.879184 104.822478,117.744707" id="Fill-212" fill="#006D90"></path>
            <path d="M35.0923253,103.190261 L12.9228046,103.190261 C11.4031865,103.190261 10.0812001,102.149031 9.72331783,100.671786 L0.0939777265,60.8707642 C-0.407577493,58.7980655 1.16177351,56.8002051 3.29346445,56.8002051 L25.4610348,56.8002051 C26.9822782,56.8002051 28.3052399,57.8414354 28.662797,59.3219343 L38.2908368,99.1197024 C38.791417,101.192401 37.2214158,103.190261 35.0923253,103.190261" id="Fill-213" fill="#AFB6B9"></path>
            <path d="M7.97583834,92.1271914 C9.06053683,91.1217536 11.1532215,90.5360615 12.9449081,89.3386468 C14.7375698,88.1412321 13.2407054,86.9047714 13.2407054,86.9047714 C15.0821249,86.2735256 14.8838432,85.4307799 14.6465553,84.8581033 C14.3280043,84.0836885 12.3185329,84.301696 12.3185329,84.301696 C12.3185329,84.301696 14.119971,83.904727 14.8643401,83.5760888 C15.6054586,83.2474506 15.3519181,81.9524206 14.2109856,81.5424362 C13.0713533,81.1324518 8.42213472,82.2810588 8.42213472,82.2810588 C8.42213472,82.2810588 9.18015595,81.9101207 11.4730727,80.7582598 C13.7659894,79.6063988 14.2694949,78.5586611 12.9172787,78.0543153 C11.9775534,77.7061539 10.130608,78.4382689 6.58591605,80.8233367 C3.91691416,82.6194586 4.13404889,82.8504816 4.13404889,82.8504816 C4.13404889,82.8504816 6.68050617,93.3278599 7.97583834,92.1271914" id="Fill-214" fill="#EEA886"></path>
            <path d="M85.3713668,57.1581281 L80.0730195,60.1516647 L82.3353813,62.4651479 L76.305667,95.0589049 C75.0769704,87.4188788 74.5178811,80.1628064 74.1018144,75.7148012 C72.7138425,60.9033025 87.4777038,44.2013205 88.397601,43.1763596 C89.1062142,43.4464286 89.8733369,43.7425285 90.6632133,44.0581512 L85.3713668,57.1581281" id="Fill-200" fill="#2CA9D2"></path>
            <path d="M73.2761824,49.2870789 C73.2761824,49.2870789 74.4463696,53.9661068 74.023802,55.2774061 C74.023802,55.2774061 71.4526408,56.2145131 69.6063454,55.0431293 C69.6063454,55.0431293 70.916305,51.7665082 73.2761824,49.2870789" id="Fill-204" fill="#B08814"></path>
        </g>
        <g id="men2" transform="translate(389.000000, 222.000000)" fill-rule="nonzero">
            <path d="M52.0433756,48.753043 C52.0433756,48.753043 54.5016539,44.4425859 50.603434,32.8899626 C46.8316958,21.7169663 33.7814158,22.7297385 29.6367196,29.8880487 C25.4887803,37.0463589 26.8898044,41.4923505 32.9933397,49.5740515 C39.1001184,57.6560776 49.5072624,52.4479063 52.0433756,48.753043" id="Fill-219" fill="#EEA886"></path>
            <path d="M21.7332573,247.517708 C21.7332573,247.517708 21.0878782,252.259795 21.0068004,252.974847 C20.9257226,253.686647 13.8233089,252.552317 13.8233089,252.552317 L13.2460351,246.906664 C13.2460351,246.906664 20.8446448,246.848161 21.7332573,247.517708" id="Fill-220" fill="#EEA886"></path>
            <path d="M70.911797,247.517708 C70.911797,247.517708 70.2664178,252.259795 70.1853401,252.974847 C70.1042624,253.686647 63.0018486,252.552317 63.0018486,252.552317 L62.4245748,246.906664 C62.4245748,246.906664 70.0231844,246.848161 70.911797,247.517708" id="Fill-222" fill="#EEA886"></path>
            <path d="M21.081392,252.370304 C21.081392,252.370304 23.3321112,255.230508 25.5082389,256.475347 C27.6843666,257.720186 31.1058489,258.214221 32.3933643,259.504562 C33.3208939,260.437378 35.7759291,264.444914 26.7373781,264.363657 C17.6955838,264.282404 13.3368422,264.929199 12.370395,263.39184 C11.4007048,261.854479 13.7714191,252.048532 13.7714191,252.048532 C13.7714191,252.048532 15.983221,252.672574 21.081392,252.370304" id="Fill-221" fill="#394851"></path>
            <path d="M70.2599316,252.370304 C70.2599316,252.370304 72.5106509,255.230508 74.6867786,256.475347 C76.8629063,257.720186 84.8733912,258.744008 86.1609063,260.034349 C87.0884362,260.967165 88.6354003,264.714683 75.9159177,264.363657 C66.8773665,264.11339 62.5153819,264.929199 61.5489348,263.39184 C60.5792445,261.854479 62.9499588,252.048532 62.9499588,252.048532 C62.9499588,252.048532 65.7584933,252.549066 70.2599316,252.370304" id="Fill-223" fill="#394851"></path>
            <path d="M60.6959963,128.198455 C60.6959963,128.198455 66.0503731,158.185092 66.689266,164.168768 C67.328159,170.152444 67.7530065,193.118581 68.0740747,196.856348 C68.3951426,200.597364 70.2047986,245.782085 71.9106752,251.336729 L62.0775619,251.336729 C62.0775619,251.336729 51.9785133,218.486639 51.9785133,202.947282 C51.9785133,188.614571 46.2918254,171.982292 42.02152,161.438387 C39.4476436,172.106446 32.8621928,195.510459 31.3004356,199.42078 C29.3805138,204.227873 21.9732476,251.336729 21.9732476,251.336729 L21.9732476,251.336729 L13.1519849,251.125466 C13.1519849,251.125466 12.3087759,231.682579 12.4709315,225.591645 C12.629844,219.503962 17.0372322,192.556291 18.110702,181.17398 C19.0771492,170.965002 21.4413773,160.26849 20.9613969,150.495044 C20.4814164,140.721597 24.1234304,129.378289 24.1234304,129.378289 L24.1234304,129.378289 L24.205035,129.360601 C26.0105792,128.971131 57.2067846,122.337722 60.6959963,128.198455 Z" id="Combined-Shape" fill="#B08814"></path>
            <path d="M50.7882915,58.098434 C50.7882915,58.098434 56.4345483,58.6756751 58.0463744,58.9834722 C59.6582008,59.2912691 70.5161374,57.0378835 72.7441549,56.8067919 C74.9689293,56.5757005 84.4680022,50.0544358 84.7728547,49.2847809 C85.0809501,48.514801 90.552079,34.6330617 90.8601746,31.6311478 C91.1650269,28.629234 96.1886063,30.1786193 95.7572726,32.2480417 C94.952981,36.1167925 93.9184284,45.5102869 93.350884,48.2326809 C92.737936,51.1725154 91.0969217,57.8306149 90.1758781,58.6499983 C89.2548345,59.4693817 80.70275,65.9890213 72.3322796,68.7582187 C63.9585664,71.5306663 57.6572011,75.609707 57.6572011,75.609707 L16.3983393,75.609707 C16.3983393,75.609707 0.351424592,52.6201686 0.00765479497,49.1567218 C-0.339358112,45.6929501 11.2158474,22.6715594 13.5184564,19.7850287 C15.8243086,16.898498 19.158227,20.7275958 19.158227,20.7275958 C19.158227,20.7275958 12.253643,41.0285426 11.3325994,43.9153984 C10.4083127,46.8016039 19.362543,59.4840078 21.8208213,59.5223605 C24.2758567,59.5607133 30.5869512,58.7527057 33.3922425,58.6369973 C36.1942906,58.5216141 39.1520082,57.2901015 39.1520082,57.2901015 L50.7882915,58.098434" id="Fill-228" fill="#EEA886"></path>
            <path d="M48.475953,51.8033853 C48.475953,51.8033853 47.3668089,55.0393159 48.475953,57.3486057 C49.585097,59.6578953 34.3003136,58.2723214 34.3003136,58.2723214 C34.3003136,58.2723214 34.9910964,53.4996813 32.9933397,49.5740515 C30.9988262,45.6484219 48.475953,51.8033853 48.475953,51.8033853" id="Fill-226" fill="#EEA886"></path>
            <path d="M68.5670274,73.4548034 C68.5670274,73.4548034 63.5175033,76.8187931 63.0569813,82.5912045 C62.5964596,88.3636159 60.7543724,97.487016 59.8300856,100.603988 C58.909042,103.72096 60.6376205,126.349073 60.8678814,127.967688 C61.0981422,129.583053 28.9426937,133.424827 24.0034352,129.583053 C24.0034352,129.583053 22.6218698,108.453298 22.044596,102.45012 C21.4705653,96.446942 18.7041914,81.8989051 17.7831478,79.9357653 C16.8621042,77.9758756 5.68634268,62.264906 5.22582086,60.1941834 C5.22582086,60.1941834 11.0050452,50.9576753 15.1529845,50.842292 C15.1529845,50.842292 21.7397436,58.5778433 23.8866833,58.9243179 C26.036866,59.2704676 39.2006549,56.8526203 39.2006549,56.8327939 C39.2006549,56.8327939 40.6373531,58.7936585 48.2781234,56.484369 C48.2781234,56.484369 57.3718073,57.5130673 58.8539093,57.7022309 C60.6441065,57.9316972 73.100897,56.1352942 73.100897,56.1352942 C73.100897,56.1352942 78.0952885,64.5914218 77.2228915,68.8622261 L68.5670274,73.4548034" id="Fill-229" fill="#008AB6"></path>
            <path d="M90.5715377,33.4353516 C90.5715377,33.4353516 91.6968972,28.0844951 90.3412767,26.5481107 C89.566173,25.6737983 87.7078704,23.3583332 87.5392285,23.017709 C87.3705868,22.6777348 85.3760733,21.529428 85.3760733,20.9765636 C85.3760733,20.4236992 87.3284264,19.7431007 89.0245736,21.3168628 C90.7207209,22.8903 91.7844614,23.2305993 92.4622714,23.0602871 C93.1400817,22.8903 94.1162582,17.2339219 94.2005791,15.8301468 C94.2849001,14.4266968 94.8264998,10.7266331 95.7021396,10.9817763 C96.5777797,11.2369195 96.5356193,12.8529346 96.5356193,12.8529346 C96.5356193,12.8529346 97.5539563,10.0460346 98.2317665,10.598899 C98.9128199,11.1517634 98.8284991,12.5126354 98.8284991,12.5126354 C98.8284991,12.5126354 100.099799,10.9391983 100.440325,12.0875051 C100.780852,13.2358119 100.440325,14.2567097 100.440325,14.2567097 C100.440325,14.2567097 101.757029,13.5335332 101.841349,15.3198605 C101.92567,17.1061878 101.458662,22.3374356 100.524646,24.208594 C99.5906302,26.0800773 96.0977992,30.9749261 95.679438,32.8867123 C95.2610767,34.7988235 90.5715377,33.4353516 90.5715377,33.4353516" id="Fill-230" fill="#EEA886"></path>
            <path d="M18.0328674,24.0379568 C18.0328674,24.0379568 21.869468,17.5712959 23.1764418,16.9943798 C24.4834156,16.4171387 26.3255029,16.0898403 27.9373293,14.935358 C29.5523986,13.7808758 31.6831227,12.8184822 31.5663709,12.4336548 C31.4528619,12.0488274 29.5523986,12.2025633 27.5157249,13.0876014 C25.4790509,13.9729645 24.5871952,13.545234 24.3958517,13.0833761 C24.2045081,12.6215182 25.4790509,9.36121082 26.095242,8.59123094 C26.70819,7.82157611 31.0863904,3.40841159 30.3566903,2.75413997 C29.6269903,2.09986834 26.7860248,4.52454115 26.3255029,5.02475179 C26.3255029,5.02475179 28.5924377,0.252436688 27.7070684,0.0216702428 C26.8249421,-0.209421226 25.1741984,1.48394945 25.1741984,1.48394945 C25.1741984,1.48394945 25.365542,-2.59541625 20.9873418,4.02433049 C20.9873418,4.02433049 21.9083854,1.83042414 20.5657373,2.56172625 C19.2198461,3.29302838 17.9161154,7.41107184 17.4912678,9.48959497 C17.0696633,11.567468 15.1529845,18.1881899 13.5184564,19.7850287 C11.8871715,21.3818675 18.0328674,24.0379568 18.0328674,24.0379568" id="Fill-231" fill="#EEA886"></path>
            <path d="M32.9933397,49.5740515 C32.9933397,49.5740515 35.0170412,49.7531394 39.3174067,48.2651834 C43.6210155,46.7769021 43.9388403,39.2392902 44.8696133,40.1318036 C46.7700766,41.9538835 48.560274,40.6966938 49.2770016,39.6189171 C49.2770016,39.6189171 47.1787085,36.8477697 48.1516419,35.5135495 C49.1245753,34.1793295 50.7072136,33.2055601 50.7072136,33.2055601 C50.7072136,33.2055601 47.6813908,18.5931687 33.9176265,25.2502931 C17.7863909,33.0505241 32.9933397,49.5740515 32.9933397,49.5740515" id="Fill-232" fill="#28353B"></path>
            <path d="M48.475953,57.3486057 L47.9894865,55.2366052 C47.9894865,55.2366052 39.2038978,55.0575174 34.4105794,55.7540419 L33.904654,58.2788219 C33.904654,58.2788219 40.0438637,61.0688207 48.475953,57.3486057" id="Fill-233" fill="#008AB6"></path>
            <path d="M90.7790967,32.2204149 C90.7790967,32.2204149 93.9508597,32.2984203 95.4880944,33.6908196 C95.4880944,33.6908196 95.5886309,34.5745575 95.2318885,35.2714074 C95.2318885,35.2714074 92.4817302,33.9865907 90.376951,33.7457486 C90.376951,33.7457486 90.4093821,32.5906163 90.7790967,32.2204149" id="Fill-235" fill="#F3753F"></path>
            <path d="M94.5184041,33.0121712 C94.8102841,33.7073959 94.4859731,34.508903 93.7919472,34.8023989 C93.0979213,35.0958948 92.2968729,34.7702216 92.0049929,34.0749969 C91.7131128,33.3800976 92.0374239,32.5785903 92.7314498,32.2847695 C93.4254757,31.9915985 94.223281,32.3172717 94.5184041,33.0121712" id="Fill-236" fill="#394851"></path>
            <path d="M23.4131891,131.851715 C23.4131891,131.851715 28.9102627,137.510368 61.1857062,130.967652 L60.6959963,128.198455 L24.0034352,129.583053 L23.4131891,131.851715" id="Fill-227" fill="#B08814"></path>
            <path d="M46.3063115,38.2846971 C45.5085063,36.9556774 42.5572749,36.0589384 42.210262,39.8240068 C41.9410839,42.7427147 47.4868041,45.9308669 47.5354508,43.2113982 C47.5873406,40.4912792 46.8381818,39.1694101 46.3063115,38.2846971" id="Fill-234" fill="#EEA886"></path>
        </g>
    </g>
</svg>