<?xml version="1.0" encoding="UTF-8"?>
<svg width="581px" height="287px" viewBox="0 0 581 287" version="1.1" xmlns="http://www.w3.org/2000/svg" xmlns:xlink="http://www.w3.org/1999/xlink">
    <!-- Generator: Sketch 59.1 (86144) - https://sketch.com -->
    <title>Illlustration</title>
    <desc>Created with Sketch.</desc>
    <defs>
        <path d="M57.6263767,99.2527534 C80.6159897,99.2527534 99.2527534,80.6159897 99.2527534,57.6263767 C99.2527534,34.6367637 80.6159897,16 57.6263767,16 C34.6367637,16 16,34.6367637 16,57.6263767 C16,80.6159897 34.6367637,99.2527534 57.6263767,99.2527534 Z" id="path-1"></path>
    </defs>
    <g id="Vantage-Launcher" stroke="none" stroke-width="1" fill="none" fill-rule="evenodd">
        <g id="Vantage-Launcher---Slide-3" transform="translate(-754.000000, -64.000000)">
            <g id="Illlustration" transform="translate(1036.000000, 207.500000) scale(-1, 1) translate(-1036.000000, -207.500000) translate(733.000000, 48.000000)">
                <g id="Cloud" transform="translate(417.292306, 136.500000) scale(-1, 1) translate(-417.292306, -136.500000) translate(237.292306, 0.000000)">
                    <path d="M293.122673,102.702373 C283.403741,53.4065479 240.126253,16.4200718 188.12315,16.4200718 C146.832298,16.4200718 110.975477,39.850683 93.1152354,74.1298815 C50.1298996,78.7069336 16.707681,115.128582 16.707681,159.282527 C16.707681,206.572239 55.1354416,245 102.425154,245 L288.136607,245 C327.557686,245 359.558097,212.999589 359.558097,173.578511 C359.558097,135.851916 330.28444,105.273312 293.122673,102.702373 Z" id="cloud" fill="#055D5D" transform="translate(188.132889, 130.710036) scale(-1, 1) translate(-188.132889, -130.710036) "></path>
                    <g id="Data-bubble" transform="translate(219.540342, 108.607626) rotate(-10.000000) translate(-219.540342, -108.607626) translate(162.040342, 51.107626)">
                        <mask id="mask-2" fill="white">
                            <use xlink:href="#path-1"></use>
                        </mask>
                        <use id="Combined-Shape" fill="#02908F" opacity="0.4" transform="translate(57.626377, 57.626377) rotate(30.000000) translate(-57.626377, -57.626377) " xlink:href="#path-1"></use>
                        <path d="M85.7859695,92.8152425 C86.5926226,92.8152425 87.2465441,93.469164 87.2465441,94.2758171 C87.2465441,95.0824702 86.5926226,95.7363917 85.7859695,95.7363917 C84.9793164,95.7363917 84.3253949,95.0824702 84.3253949,94.2758171 C84.3253949,93.469164 84.9793164,92.8152425 85.7859695,92.8152425 Z M95.1578068,92.8152425 C95.9644599,92.8152425 96.6183814,93.469164 96.6183814,94.2758171 C96.6183814,95.0824702 95.9644599,95.7363917 95.1578068,95.7363917 C94.3511537,95.7363917 93.6972321,95.0824702 93.6972321,94.2758171 C93.6972321,93.469164 94.3511537,92.8152425 95.1578068,92.8152425 Z M57.6704576,92.8152425 C58.4771107,92.8152425 59.1310322,93.469164 59.1310322,94.2758171 C59.1310322,95.0824702 58.4771107,95.7363917 57.6704576,95.7363917 C56.8638045,95.7363917 56.209883,95.0824702 56.209883,94.2758171 C56.209883,93.469164 56.8638045,92.8152425 57.6704576,92.8152425 Z M67.0422949,92.8152425 C67.848948,92.8152425 68.5028695,93.469164 68.5028695,94.2758171 C68.5028695,95.0824702 67.848948,95.7363917 67.0422949,95.7363917 C66.2356418,95.7363917 65.5817203,95.0824702 65.5817203,94.2758171 C65.5817203,93.469164 66.2356418,92.8152425 67.0422949,92.8152425 Z M76.4141322,92.8152425 C77.2207853,92.8152425 77.8747068,93.469164 77.8747068,94.2758171 C77.8747068,95.0824702 77.2207853,95.7363917 76.4141322,95.7363917 C75.6074791,95.7363917 74.9535576,95.0824702 74.9535576,94.2758171 C74.9535576,93.469164 75.6074791,92.8152425 76.4141322,92.8152425 Z M38.9267831,92.8152425 C39.7334361,92.8152425 40.3873577,93.469164 40.3873577,94.2758171 C40.3873577,95.0824702 39.7334361,95.7363917 38.9267831,95.7363917 C38.12013,95.7363917 37.4662084,95.0824702 37.4662084,94.2758171 C37.4662084,93.469164 38.12013,92.8152425 38.9267831,92.8152425 Z M48.2986203,92.8152425 C49.1052734,92.8152425 49.759195,93.469164 49.759195,94.2758171 C49.759195,95.0824702 49.1052734,95.7363917 48.2986203,95.7363917 C47.4919672,95.7363917 46.8380457,95.0824702 46.8380457,94.2758171 C46.8380457,93.469164 47.4919672,92.8152425 48.2986203,92.8152425 Z M20.1831085,92.8152425 C20.9897616,92.8152425 21.6436831,93.469164 21.6436831,94.2758171 C21.6436831,95.0824702 20.9897616,95.7363917 20.1831085,95.7363917 C19.3764554,95.7363917 18.7225339,95.0824702 18.7225339,94.2758171 C18.7225339,93.469164 19.3764554,92.8152425 20.1831085,92.8152425 Z M29.5549458,92.8152425 C30.3615989,92.8152425 31.0155204,93.469164 31.0155204,94.2758171 C31.0155204,95.0824702 30.3615989,95.7363917 29.5549458,95.7363917 C28.7482927,95.7363917 28.0943711,95.0824702 28.0943711,94.2758171 C28.0943711,93.469164 28.7482927,92.8152425 29.5549458,92.8152425 Z M48.2986203,82.4212275 C49.1052734,82.4212275 49.759195,83.075149 49.759195,83.8818021 C49.759195,84.6884552 49.1052734,85.3423767 48.2986203,85.3423767 C47.4919672,85.3423767 46.8380457,84.6884552 46.8380457,83.8818021 C46.8380457,83.075149 47.4919672,82.4212275 48.2986203,82.4212275 Z M20.1831085,82.4212275 C20.9897616,82.4212275 21.6436831,83.075149 21.6436831,83.8818021 C21.6436831,84.6884552 20.9897616,85.3423767 20.1831085,85.3423767 C19.3764554,85.3423767 18.7225339,84.6884552 18.7225339,83.8818021 C18.7225339,83.075149 19.3764554,82.4212275 20.1831085,82.4212275 Z M29.5549458,82.4212275 C30.3615989,82.4212275 31.0155204,83.075149 31.0155204,83.8818021 C31.0155204,84.6884552 30.3615989,85.3423767 29.5549458,85.3423767 C28.7482927,85.3423767 28.0943711,84.6884552 28.0943711,83.8818021 C28.0943711,83.075149 28.7482927,82.4212275 29.5549458,82.4212275 Z M85.7859695,82.4212275 C86.5926226,82.4212275 87.2465441,83.075149 87.2465441,83.8818021 C87.2465441,84.6884552 86.5926226,85.3423767 85.7859695,85.3423767 C84.9793164,85.3423767 84.3253949,84.6884552 84.3253949,83.8818021 C84.3253949,83.075149 84.9793164,82.4212275 85.7859695,82.4212275 Z M95.1578068,82.4212275 C95.9644599,82.4212275 96.6183814,83.075149 96.6183814,83.8818021 C96.6183814,84.6884552 95.9644599,85.3423767 95.1578068,85.3423767 C94.3511537,85.3423767 93.6972321,84.6884552 93.6972321,83.8818021 C93.6972321,83.075149 94.3511537,82.4212275 95.1578068,82.4212275 Z M57.6704576,82.4212275 C58.4771107,82.4212275 59.1310322,83.075149 59.1310322,83.8818021 C59.1310322,84.6884552 58.4771107,85.3423767 57.6704576,85.3423767 C56.8638045,85.3423767 56.209883,84.6884552 56.209883,83.8818021 C56.209883,83.075149 56.8638045,82.4212275 57.6704576,82.4212275 Z M67.0422949,82.4212275 C67.848948,82.4212275 68.5028695,83.075149 68.5028695,83.8818021 C68.5028695,84.6884552 67.848948,85.3423767 67.0422949,85.3423767 C66.2356418,85.3423767 65.5817203,84.6884552 65.5817203,83.8818021 C65.5817203,83.075149 66.2356418,82.4212275 67.0422949,82.4212275 Z M76.4141322,82.4212275 C77.2207853,82.4212275 77.8747068,83.075149 77.8747068,83.8818021 C77.8747068,84.6884552 77.2207853,85.3423767 76.4141322,85.3423767 C75.6074791,85.3423767 74.9535576,84.6884552 74.9535576,83.8818021 C74.9535576,83.075149 75.6074791,82.4212275 76.4141322,82.4212275 Z M38.9267831,82.4212275 C39.7334361,82.4212275 40.3873577,83.075149 40.3873577,83.8818021 C40.3873577,84.6884552 39.7334361,85.3423767 38.9267831,85.3423767 C38.12013,85.3423767 37.4662084,84.6884552 37.4662084,83.8818021 C37.4662084,83.075149 38.12013,82.4212275 38.9267831,82.4212275 Z M85.7859695,72.0272125 C86.5926226,72.0272125 87.2465441,72.681134 87.2465441,73.4877871 C87.2465441,74.2944402 86.5926226,74.9483617 85.7859695,74.9483617 C84.9793164,74.9483617 84.3253949,74.2944402 84.3253949,73.4877871 C84.3253949,72.681134 84.9793164,72.0272125 85.7859695,72.0272125 Z M20.1831085,72.0272125 C20.9897616,72.0272125 21.6436831,72.681134 21.6436831,73.4877871 C21.6436831,74.2944402 20.9897616,74.9483617 20.1831085,74.9483617 C19.3764554,74.9483617 18.7225339,74.2944402 18.7225339,73.4877871 C18.7225339,72.681134 19.3764554,72.0272125 20.1831085,72.0272125 Z M29.5549458,72.0272125 C30.3615989,72.0272125 31.0155204,72.681134 31.0155204,73.4877871 C31.0155204,74.2944402 30.3615989,74.9483617 29.5549458,74.9483617 C28.7482927,74.9483617 28.0943711,74.2944402 28.0943711,73.4877871 C28.0943711,72.681134 28.7482927,72.0272125 29.5549458,72.0272125 Z M67.0422949,72.0272125 C67.848948,72.0272125 68.5028695,72.681134 68.5028695,73.4877871 C68.5028695,74.2944402 67.848948,74.9483617 67.0422949,74.9483617 C66.2356418,74.9483617 65.5817203,74.2944402 65.5817203,73.4877871 C65.5817203,72.681134 66.2356418,72.0272125 67.0422949,72.0272125 Z M76.4141322,72.0272125 C77.2207853,72.0272125 77.8747068,72.681134 77.8747068,73.4877871 C77.8747068,74.2944402 77.2207853,74.9483617 76.4141322,74.9483617 C75.6074791,74.9483617 74.9535576,74.2944402 74.9535576,73.4877871 C74.9535576,72.681134 75.6074791,72.0272125 76.4141322,72.0272125 Z M57.6704576,72.0272125 C58.4771107,72.0272125 59.1310322,72.681134 59.1310322,73.4877871 C59.1310322,74.2944402 58.4771107,74.9483617 57.6704576,74.9483617 C56.8638045,74.9483617 56.209883,74.2944402 56.209883,73.4877871 C56.209883,72.681134 56.8638045,72.0272125 57.6704576,72.0272125 Z M38.9267831,72.0272125 C39.7334361,72.0272125 40.3873577,72.681134 40.3873577,73.4877871 C40.3873577,74.2944402 39.7334361,74.9483617 38.9267831,74.9483617 C38.12013,74.9483617 37.4662084,74.2944402 37.4662084,73.4877871 C37.4662084,72.681134 38.12013,72.0272125 38.9267831,72.0272125 Z M95.1578068,72.0272125 C95.9644599,72.0272125 96.6183814,72.681134 96.6183814,73.4877871 C96.6183814,74.2944402 95.9644599,74.9483617 95.1578068,74.9483617 C94.3511537,74.9483617 93.6972321,74.2944402 93.6972321,73.4877871 C93.6972321,72.681134 94.3511537,72.0272125 95.1578068,72.0272125 Z M48.2986203,72.0272125 C49.1052734,72.0272125 49.759195,72.681134 49.759195,73.4877871 C49.759195,74.2944402 49.1052734,74.9483617 48.2986203,74.9483617 C47.4919672,74.9483617 46.8380457,74.2944402 46.8380457,73.4877871 C46.8380457,72.681134 47.4919672,72.0272125 48.2986203,72.0272125 Z M85.7859695,61.6331975 C86.5926226,61.6331975 87.2465441,62.287119 87.2465441,63.0937721 C87.2465441,63.9004252 86.5926226,64.5543467 85.7859695,64.5543467 C84.9793164,64.5543467 84.3253949,63.9004252 84.3253949,63.0937721 C84.3253949,62.287119 84.9793164,61.6331975 85.7859695,61.6331975 Z M95.1578068,61.6331975 C95.9644599,61.6331975 96.6183814,62.287119 96.6183814,63.0937721 C96.6183814,63.9004252 95.9644599,64.5543467 95.1578068,64.5543467 C94.3511537,64.5543467 93.6972321,63.9004252 93.6972321,63.0937721 C93.6972321,62.287119 94.3511537,61.6331975 95.1578068,61.6331975 Z M57.6704576,61.6331975 C58.4771107,61.6331975 59.1310322,62.287119 59.1310322,63.0937721 C59.1310322,63.9004252 58.4771107,64.5543467 57.6704576,64.5543467 C56.8638045,64.5543467 56.209883,63.9004252 56.209883,63.0937721 C56.209883,62.287119 56.8638045,61.6331975 57.6704576,61.6331975 Z M67.0422949,61.6331975 C67.848948,61.6331975 68.5028695,62.287119 68.5028695,63.0937721 C68.5028695,63.9004252 67.848948,64.5543467 67.0422949,64.5543467 C66.2356418,64.5543467 65.5817203,63.9004252 65.5817203,63.0937721 C65.5817203,62.287119 66.2356418,61.6331975 67.0422949,61.6331975 Z M76.4141322,61.6331975 C77.2207853,61.6331975 77.8747068,62.287119 77.8747068,63.0937721 C77.8747068,63.9004252 77.2207853,64.5543467 76.4141322,64.5543467 C75.6074791,64.5543467 74.9535576,63.9004252 74.9535576,63.0937721 C74.9535576,62.287119 75.6074791,61.6331975 76.4141322,61.6331975 Z M38.9267831,61.6331975 C39.7334361,61.6331975 40.3873577,62.287119 40.3873577,63.0937721 C40.3873577,63.9004252 39.7334361,64.5543467 38.9267831,64.5543467 C38.12013,64.5543467 37.4662084,63.9004252 37.4662084,63.0937721 C37.4662084,62.287119 38.12013,61.6331975 38.9267831,61.6331975 Z M48.2986203,61.6331975 C49.1052734,61.6331975 49.759195,62.287119 49.759195,63.0937721 C49.759195,63.9004252 49.1052734,64.5543467 48.2986203,64.5543467 C47.4919672,64.5543467 46.8380457,63.9004252 46.8380457,63.0937721 C46.8380457,62.287119 47.4919672,61.6331975 48.2986203,61.6331975 Z M20.1831085,61.6331975 C20.9897616,61.6331975 21.6436831,62.287119 21.6436831,63.0937721 C21.6436831,63.9004252 20.9897616,64.5543467 20.1831085,64.5543467 C19.3764554,64.5543467 18.7225339,63.9004252 18.7225339,63.0937721 C18.7225339,62.287119 19.3764554,61.6331975 20.1831085,61.6331975 Z M29.5549458,61.6331975 C30.3615989,61.6331975 31.0155204,62.287119 31.0155204,63.0937721 C31.0155204,63.9004252 30.3615989,64.5543467 29.5549458,64.5543467 C28.7482927,64.5543467 28.0943711,63.9004252 28.0943711,63.0937721 C28.0943711,62.287119 28.7482927,61.6331975 29.5549458,61.6331975 Z M85.7859695,50.8821385 C86.5926226,50.8821385 87.2465441,51.5360601 87.2465441,52.3427131 C87.2465441,53.1493662 86.5926226,53.8032878 85.7859695,53.8032878 C84.9793164,53.8032878 84.3253949,53.1493662 84.3253949,52.3427131 C84.3253949,51.5360601 84.9793164,50.8821385 85.7859695,50.8821385 Z M95.1578068,50.8821385 C95.9644599,50.8821385 96.6183814,51.5360601 96.6183814,52.3427131 C96.6183814,53.1493662 95.9644599,53.8032878 95.1578068,53.8032878 C94.3511537,53.8032878 93.6972321,53.1493662 93.6972321,52.3427131 C93.6972321,51.5360601 94.3511537,50.8821385 95.1578068,50.8821385 Z M57.6704576,50.8821385 C58.4771107,50.8821385 59.1310322,51.5360601 59.1310322,52.3427131 C59.1310322,53.1493662 58.4771107,53.8032878 57.6704576,53.8032878 C56.8638045,53.8032878 56.209883,53.1493662 56.209883,52.3427131 C56.209883,51.5360601 56.8638045,50.8821385 57.6704576,50.8821385 Z M67.0422949,50.8821385 C67.848948,50.8821385 68.5028695,51.5360601 68.5028695,52.3427131 C68.5028695,53.1493662 67.848948,53.8032878 67.0422949,53.8032878 C66.2356418,53.8032878 65.5817203,53.1493662 65.5817203,52.3427131 C65.5817203,51.5360601 66.2356418,50.8821385 67.0422949,50.8821385 Z M76.4141322,50.8821385 C77.2207853,50.8821385 77.8747068,51.5360601 77.8747068,52.3427131 C77.8747068,53.1493662 77.2207853,53.8032878 76.4141322,53.8032878 C75.6074791,53.8032878 74.9535576,53.1493662 74.9535576,52.3427131 C74.9535576,51.5360601 75.6074791,50.8821385 76.4141322,50.8821385 Z M38.9267831,50.8821385 C39.7334361,50.8821385 40.3873577,51.5360601 40.3873577,52.3427131 C40.3873577,53.1493662 39.7334361,53.8032878 38.9267831,53.8032878 C38.12013,53.8032878 37.4662084,53.1493662 37.4662084,52.3427131 C37.4662084,51.5360601 38.12013,50.8821385 38.9267831,50.8821385 Z M48.2986203,50.8821385 C49.1052734,50.8821385 49.759195,51.5360601 49.759195,52.3427131 C49.759195,53.1493662 49.1052734,53.8032878 48.2986203,53.8032878 C47.4919672,53.8032878 46.8380457,53.1493662 46.8380457,52.3427131 C46.8380457,51.5360601 47.4919672,50.8821385 48.2986203,50.8821385 Z M20.1831085,50.8821385 C20.9897616,50.8821385 21.6436831,51.5360601 21.6436831,52.3427131 C21.6436831,53.1493662 20.9897616,53.8032878 20.1831085,53.8032878 C19.3764554,53.8032878 18.7225339,53.1493662 18.7225339,52.3427131 C18.7225339,51.5360601 19.3764554,50.8821385 20.1831085,50.8821385 Z M29.5549458,50.8821385 C30.3615989,50.8821385 31.0155204,51.5360601 31.0155204,52.3427131 C31.0155204,53.1493662 30.3615989,53.8032878 29.5549458,53.8032878 C28.7482927,53.8032878 28.0943711,53.1493662 28.0943711,52.3427131 C28.0943711,51.5360601 28.7482927,50.8821385 29.5549458,50.8821385 Z M85.7859695,40.4881235 C86.5926226,40.4881235 87.2465441,41.1420451 87.2465441,41.9486982 C87.2465441,42.7553512 86.5926226,43.4092728 85.7859695,43.4092728 C84.9793164,43.4092728 84.3253949,42.7553512 84.3253949,41.9486982 C84.3253949,41.1420451 84.9793164,40.4881235 85.7859695,40.4881235 Z M95.1578068,40.4881235 C95.9644599,40.4881235 96.6183814,41.1420451 96.6183814,41.9486982 C96.6183814,42.7553512 95.9644599,43.4092728 95.1578068,43.4092728 C94.3511537,43.4092728 93.6972321,42.7553512 93.6972321,41.9486982 C93.6972321,41.1420451 94.3511537,40.4881235 95.1578068,40.4881235 Z M57.6704576,40.4881235 C58.4771107,40.4881235 59.1310322,41.1420451 59.1310322,41.9486982 C59.1310322,42.7553512 58.4771107,43.4092728 57.6704576,43.4092728 C56.8638045,43.4092728 56.209883,42.7553512 56.209883,41.9486982 C56.209883,41.1420451 56.8638045,40.4881235 57.6704576,40.4881235 Z M67.0422949,40.4881235 C67.848948,40.4881235 68.5028695,41.1420451 68.5028695,41.9486982 C68.5028695,42.7553512 67.848948,43.4092728 67.0422949,43.4092728 C66.2356418,43.4092728 65.5817203,42.7553512 65.5817203,41.9486982 C65.5817203,41.1420451 66.2356418,40.4881235 67.0422949,40.4881235 Z M76.4141322,40.4881235 C77.2207853,40.4881235 77.8747068,41.1420451 77.8747068,41.9486982 C77.8747068,42.7553512 77.2207853,43.4092728 76.4141322,43.4092728 C75.6074791,43.4092728 74.9535576,42.7553512 74.9535576,41.9486982 C74.9535576,41.1420451 75.6074791,40.4881235 76.4141322,40.4881235 Z M38.9267831,40.4881235 C39.7334361,40.4881235 40.3873577,41.1420451 40.3873577,41.9486982 C40.3873577,42.7553512 39.7334361,43.4092728 38.9267831,43.4092728 C38.12013,43.4092728 37.4662084,42.7553512 37.4662084,41.9486982 C37.4662084,41.1420451 38.12013,40.4881235 38.9267831,40.4881235 Z M48.2986203,40.4881235 C49.1052734,40.4881235 49.759195,41.1420451 49.759195,41.9486982 C49.759195,42.7553512 49.1052734,43.4092728 48.2986203,43.4092728 C47.4919672,43.4092728 46.8380457,42.7553512 46.8380457,41.9486982 C46.8380457,41.1420451 47.4919672,40.4881235 48.2986203,40.4881235 Z M20.1831085,40.4881235 C20.9897616,40.4881235 21.6436831,41.1420451 21.6436831,41.9486982 C21.6436831,42.7553512 20.9897616,43.4092728 20.1831085,43.4092728 C19.3764554,43.4092728 18.7225339,42.7553512 18.7225339,41.9486982 C18.7225339,41.1420451 19.3764554,40.4881235 20.1831085,40.4881235 Z M29.5549458,40.4881235 C30.3615989,40.4881235 31.0155204,41.1420451 31.0155204,41.9486982 C31.0155204,42.7553512 30.3615989,43.4092728 29.5549458,43.4092728 C28.7482927,43.4092728 28.0943711,42.7553512 28.0943711,41.9486982 C28.0943711,41.1420451 28.7482927,40.4881235 29.5549458,40.4881235 Z M85.7859695,30.0941085 C86.5926226,30.0941085 87.2465441,30.7480301 87.2465441,31.5546832 C87.2465441,32.3613362 86.5926226,33.0152578 85.7859695,33.0152578 C84.9793164,33.0152578 84.3253949,32.3613362 84.3253949,31.5546832 C84.3253949,30.7480301 84.9793164,30.0941085 85.7859695,30.0941085 Z M95.1578068,30.0941085 C95.9644599,30.0941085 96.6183814,30.7480301 96.6183814,31.5546832 C96.6183814,32.3613362 95.9644599,33.0152578 95.1578068,33.0152578 C94.3511537,33.0152578 93.6972321,32.3613362 93.6972321,31.5546832 C93.6972321,30.7480301 94.3511537,30.0941085 95.1578068,30.0941085 Z M57.6704576,30.0941085 C58.4771107,30.0941085 59.1310322,30.7480301 59.1310322,31.5546832 C59.1310322,32.3613362 58.4771107,33.0152578 57.6704576,33.0152578 C56.8638045,33.0152578 56.209883,32.3613362 56.209883,31.5546832 C56.209883,30.7480301 56.8638045,30.0941085 57.6704576,30.0941085 Z M67.0422949,30.0941085 C67.848948,30.0941085 68.5028695,30.7480301 68.5028695,31.5546832 C68.5028695,32.3613362 67.848948,33.0152578 67.0422949,33.0152578 C66.2356418,33.0152578 65.5817203,32.3613362 65.5817203,31.5546832 C65.5817203,30.7480301 66.2356418,30.0941085 67.0422949,30.0941085 Z M76.4141322,30.0941085 C77.2207853,30.0941085 77.8747068,30.7480301 77.8747068,31.5546832 C77.8747068,32.3613362 77.2207853,33.0152578 76.4141322,33.0152578 C75.6074791,33.0152578 74.9535576,32.3613362 74.9535576,31.5546832 C74.9535576,30.7480301 75.6074791,30.0941085 76.4141322,30.0941085 Z M38.9267831,30.0941085 C39.7334361,30.0941085 40.3873577,30.7480301 40.3873577,31.5546832 C40.3873577,32.3613362 39.7334361,33.0152578 38.9267831,33.0152578 C38.12013,33.0152578 37.4662084,32.3613362 37.4662084,31.5546832 C37.4662084,30.7480301 38.12013,30.0941085 38.9267831,30.0941085 Z M48.2986203,30.0941085 C49.1052734,30.0941085 49.759195,30.7480301 49.759195,31.5546832 C49.759195,32.3613362 49.1052734,33.0152578 48.2986203,33.0152578 C47.4919672,33.0152578 46.8380457,32.3613362 46.8380457,31.5546832 C46.8380457,30.7480301 47.4919672,30.0941085 48.2986203,30.0941085 Z M20.1831085,30.0941085 C20.9897616,30.0941085 21.6436831,30.7480301 21.6436831,31.5546832 C21.6436831,32.3613362 20.9897616,33.0152578 20.1831085,33.0152578 C19.3764554,33.0152578 18.7225339,32.3613362 18.7225339,31.5546832 C18.7225339,30.7480301 19.3764554,30.0941085 20.1831085,30.0941085 Z M29.5549458,30.0941085 C30.3615989,30.0941085 31.0155204,30.7480301 31.0155204,31.5546832 C31.0155204,32.3613362 30.3615989,33.0152578 29.5549458,33.0152578 C28.7482927,33.0152578 28.0943711,32.3613362 28.0943711,31.5546832 C28.0943711,30.7480301 28.7482927,30.0941085 29.5549458,30.0941085 Z M85.7859695,19.7000935 C86.5926226,19.7000935 87.2465441,20.3540151 87.2465441,21.1606682 C87.2465441,21.9673212 86.5926226,22.6212428 85.7859695,22.6212428 C84.9793164,22.6212428 84.3253949,21.9673212 84.3253949,21.1606682 C84.3253949,20.3540151 84.9793164,19.7000935 85.7859695,19.7000935 Z M95.1578068,19.7000935 C95.9644599,19.7000935 96.6183814,20.3540151 96.6183814,21.1606682 C96.6183814,21.9673212 95.9644599,22.6212428 95.1578068,22.6212428 C94.3511537,22.6212428 93.6972321,21.9673212 93.6972321,21.1606682 C93.6972321,20.3540151 94.3511537,19.7000935 95.1578068,19.7000935 Z M57.6704576,19.7000935 C58.4771107,19.7000935 59.1310322,20.3540151 59.1310322,21.1606682 C59.1310322,21.9673212 58.4771107,22.6212428 57.6704576,22.6212428 C56.8638045,22.6212428 56.209883,21.9673212 56.209883,21.1606682 C56.209883,20.3540151 56.8638045,19.7000935 57.6704576,19.7000935 Z M67.0422949,19.7000935 C67.848948,19.7000935 68.5028695,20.3540151 68.5028695,21.1606682 C68.5028695,21.9673212 67.848948,22.6212428 67.0422949,22.6212428 C66.2356418,22.6212428 65.5817203,21.9673212 65.5817203,21.1606682 C65.5817203,20.3540151 66.2356418,19.7000935 67.0422949,19.7000935 Z M76.4141322,19.7000935 C77.2207853,19.7000935 77.8747068,20.3540151 77.8747068,21.1606682 C77.8747068,21.9673212 77.2207853,22.6212428 76.4141322,22.6212428 C75.6074791,22.6212428 74.9535576,21.9673212 74.9535576,21.1606682 C74.9535576,20.3540151 75.6074791,19.7000935 76.4141322,19.7000935 Z M38.9267831,19.7000935 C39.7334361,19.7000935 40.3873577,20.3540151 40.3873577,21.1606682 C40.3873577,21.9673212 39.7334361,22.6212428 38.9267831,22.6212428 C38.12013,22.6212428 37.4662084,21.9673212 37.4662084,21.1606682 C37.4662084,20.3540151 38.12013,19.7000935 38.9267831,19.7000935 Z M48.2986203,19.7000935 C49.1052734,19.7000935 49.759195,20.3540151 49.759195,21.1606682 C49.759195,21.9673212 49.1052734,22.6212428 48.2986203,22.6212428 C47.4919672,22.6212428 46.8380457,21.9673212 46.8380457,21.1606682 C46.8380457,20.3540151 47.4919672,19.7000935 48.2986203,19.7000935 Z M20.1831085,19.7000935 C20.9897616,19.7000935 21.6436831,20.3540151 21.6436831,21.1606682 C21.6436831,21.9673212 20.9897616,22.6212428 20.1831085,22.6212428 C19.3764554,22.6212428 18.7225339,21.9673212 18.7225339,21.1606682 C18.7225339,20.3540151 19.3764554,19.7000935 20.1831085,19.7000935 Z M29.5549458,19.7000935 C30.3615989,19.7000935 31.0155204,20.3540151 31.0155204,21.1606682 C31.0155204,21.9673212 30.3615989,22.6212428 29.5549458,22.6212428 C28.7482927,22.6212428 28.0943711,21.9673212 28.0943711,21.1606682 C28.0943711,20.3540151 28.7482927,19.7000935 29.5549458,19.7000935 Z" id="Combined-Shape" fill="#02908F" mask="url(#mask-2)" transform="translate(57.670458, 57.718243) rotate(10.000000) translate(-57.670458, -57.718243) "></path>
                        <path d="M36.7883827,73.2018565 C38.54914,73.2018565 39.9897595,71.7612369 39.9897595,70.0004796 C39.9897595,68.2397224 38.54914,66.7991028 36.7883827,66.7991028 C35.0276254,66.7991028 33.5870058,68.2397224 33.5870058,70.0004796 C33.5870058,71.7612369 35.0276254,73.2018565 36.7883827,73.2018565 Z" id="Path" fill="#00B2B1" mask="url(#mask-2)"></path>
                    </g>
                    <g id="Arrows" transform="translate(186.535709, 105.391294) rotate(-10.000000) translate(-186.535709, -105.391294) translate(85.035709, 16.391294)">
                        <path d="M193.106217,54.8928538 L193.391316,55.3865026 C198.881272,64.9534114 202.266785,75.9200763 202.883534,87.6883376 C204.775601,123.791125 179.96372,155.114863 145.718282,162.47884 L146.081997,159.507738 C166.366893,150.264395 179.967404,129.308782 178.73,105.697716 C177.759554,87.1805041 167.883567,71.2415724 153.469856,61.8137222 C164.602165,53.2496665 179.457816,50.5022881 193.106217,54.8928538 Z" id="Combined-Shape" fill="#02908F"></path>
                        <path d="M176.503926,72.0351553 C179.026569,78.9534752 181.043409,83.9236713 182.554446,86.9457436 C184.065482,89.967816 186.363527,93.62739 189.448581,97.9244657 C184.98265,96.7042097 181.375116,95.9127456 178.625977,95.5500734 C182.666207,117.4738 174.6469,140.377391 157.074839,154.910767 C149.812743,151.43965 143.545201,146.222532 138.814888,139.803066 C142.683637,138.738453 146.479622,137.168655 150.115278,135.069608 C164.917059,126.523795 173.450414,111.290279 174.101511,95.3901115 C171.382963,95.6257667 167.868656,96.470898 163.55927,97.9244657 C166.594409,93.5229764 168.887331,89.7715273 170.438036,86.6701183 C171.98874,83.5687092 174.010704,78.6903882 176.503926,72.0351553 Z" id="Combined-Shape" fill="#065D5E"></path>
                        <path d="M151.449123,146.704405 C153.971767,153.622725 155.988607,158.592921 157.499643,161.614993 C159.010679,164.637065 161.308724,168.296639 164.393778,172.593715 C158.039206,170.857413 153.42258,169.989262 150.5439,169.989262 C147.66522,169.989262 143.652076,170.857413 138.504468,172.593715 C141.539607,168.192226 143.832528,164.440777 145.383233,161.339368 C146.933937,158.237959 148.955901,153.359638 151.449123,146.704405 Z" id="Triangle" fill="#02908F" transform="translate(151.449123, 159.649060) scale(1, -1) rotate(-60.000000) translate(-151.449123, -159.649060) "></path>
                        <path d="M118.473391,1.74190515 C154.688292,8.108439 183.385134,32.0085571 197.329843,63.1418928 L155.23985,63.1419101 C149.100082,59.122045 142.056709,56.2549839 134.363875,54.9025934 C104.086016,49.5797992 75.2130078,69.7363019 69.8741973,99.9234084 C68.6046316,107.101903 68.7802222,114.201193 70.1926009,120.92459 L0.180674416,120.923487 L0.177614251,69.0176211 C17.8287822,21.9999609 67.0945895,-7.29039761 118.473391,1.74190515 Z" id="Combined-Shape" fill="#02908F"></path>
                    </g>
                    <circle id="Oval" fill="#016A6A" transform="translate(90.322504, 167.704773) rotate(-10.000000) translate(-90.322504, -167.704773) " cx="90.3225039" cy="167.704773" r="77.25"></circle>
                    <g id="Chart" transform="translate(188.028426, 171.589746)">
                        <path d="M6.26388002,0.410254329 C9.57758851,0.410254329 12.26388,3.09654583 12.26388,6.41025433 C12.26388,9.47591834 9.96469645,12.0045793 6.99660345,12.3659629 L6.99626646,100.410254 L5.49626646,100.410254 L5.49606847,12.3615859 C2.5449629,11.9846243 0.263880015,9.46382704 0.263880015,6.41025433 C0.263880015,3.09654583 2.95017152,0.410254329 6.26388002,0.410254329 Z M24.26388,12.4102543 C27.5775885,12.4102543 30.26388,15.0965458 30.26388,18.4102543 C30.26388,21.4759183 27.9646964,24.0045793 24.9966035,24.3659629 L24.9962665,100.410254 L23.4962665,100.410254 L23.4960685,24.3615859 C20.5449629,23.9846243 18.26388,21.463827 18.26388,18.4102543 C18.26388,15.0965458 20.9501715,12.4102543 24.26388,12.4102543 Z M42.26388,8.41025433 C45.5775885,8.41025433 48.26388,11.0965458 48.26388,14.4102543 C48.26388,17.3014402 46.2189588,19.7150092 43.4965777,20.2835 L43.4962665,100.410254 L41.4962665,100.410254 L41.4960685,20.3615859 C38.5449629,19.9846243 36.26388,17.463827 36.26388,14.4102543 C36.26388,11.0965458 38.9501715,8.41025433 42.26388,8.41025433 Z M60.26388,21.4102543 C63.5775885,21.4102543 66.26388,24.0965458 66.26388,27.4102543 C66.26388,30.3014402 64.2189588,32.7150092 61.4965777,33.2835 L61.4962665,100.410254 L59.9962665,100.410254 L59.9958038,33.4043726 C56.8064969,33.2641443 54.26388,30.6341293 54.26388,27.4102543 C54.26388,24.0965458 56.9501715,21.4102543 60.26388,21.4102543 Z M96.26388,37.4102543 C99.5775885,37.4102543 102.26388,40.0965458 102.26388,43.4102543 C102.26388,46.3014402 100.218959,48.7150092 97.4965777,49.2835 L97.4962665,100.410254 L95.9962665,100.410254 L95.9958038,49.4043726 C92.8064969,49.2641443 90.26388,46.6341293 90.26388,43.4102543 C90.26388,40.0965458 92.9501715,37.4102543 96.26388,37.4102543 Z M78.26388,43.4102543 C81.5775885,43.4102543 84.26388,46.0965458 84.26388,49.4102543 C84.26388,52.3014402 82.2189588,54.7150092 79.4965777,55.2835 L79.4962665,100.410254 L77.9962665,100.410254 L77.9958038,55.4043726 C74.8064969,55.2641443 72.26388,52.6341293 72.26388,49.4102543 C72.26388,46.0965458 74.9501715,43.4102543 78.26388,43.4102543 Z" id="Combined-Shape" fill="#008383" opacity="0.6"></path>
                        <path d="M42.26388,20.4102543 C45.56388,20.4102543 48.26388,17.7102543 48.26388,14.4102543 C48.26388,11.1102543 45.56388,8.41025433 42.26388,8.41025433 C38.96388,8.41025433 36.26388,11.1102543 36.26388,14.4102543 C36.26388,17.7102543 38.96388,20.4102543 42.26388,20.4102543 Z" id="Path" fill="#00B2B1"></path>
                    </g>
                </g>
                <path d="M138.037146,163 C204.00366,163 259.040849,209.794003 271.76569,271.998987 L4.30860213,271.998987 C17.0334432,209.794003 72.0706321,163 138.037146,163 Z" id="Circle" fill="#102E30" opacity="0.6"></path>
                <g id="Data-circle" opacity="0.6" transform="translate(185.002506, 75.000000)" fill="#008383">
                    <path d="M69.8177497,97.2249565 C63.6607548,99.9447043 56.8345975,101.457447 49.6496986,101.457447 C42.4647998,101.457447 35.6386424,99.9447043 29.4816475,97.2249565 Z M84.0467395,87.6993572 C81.0562845,90.5645584 77.6981393,93.0593912 74.0486488,95.1086628 L25.2507484,95.1086628 C21.6012579,93.0593912 18.2431127,90.5645584 15.2526578,87.6993572 Z M91.7718363,78.1758625 C90.1290332,80.8225596 88.2363016,83.3023901 86.1259652,85.583518 L13.173432,85.583518 C11.0630957,83.3023901 9.17036405,80.8225596 7.5275609,78.1758625 Z M96.3227887,68.6508225 C95.4258049,71.2244987 94.3155498,73.700566 93.0128045,76.0585566 L6.28659277,76.0585566 C4.98384747,73.700566 3.87359231,71.2244987 2.9766085,68.6508225 Z M98.5784081,59.1253022 C98.2473889,61.6610931 97.7179002,64.1356838 97.0057774,66.5334775 L2.29361985,66.5334775 C1.58149707,64.1356838 1.0520083,61.6610931 0.720989175,59.1253022 Z M98.9336363,50.6584777 C98.9669095,51.3908073 98.9837239,52.1273545 98.9837239,52.867769 C98.9837239,54.2623912 98.9240692,55.6432902 98.807136,57.0081257 L0.492261264,57.0081257 C0.375328034,55.6432902 0.315673364,54.2623912 0.315673364,52.867769 C0.315673364,52.1273545 0.332487754,51.3908073 0.365760966,50.6584777 L0.365760966,50.6584777 Z" id="Combined-Shape"></path>
                    <path d="M49.6496986,0.835573516 C76.8961866,0.835573516 98.9837239,22.589856 98.9837239,49.4252513 C98.9837239,50.1656658 98.9669095,50.902213 98.9336363,51.6345426 L0.365760966,51.6345426 C0.332487754,50.902213 0.315673364,50.1656658 0.315673364,49.4252513 C0.315673364,22.589856 22.4032107,0.835573516 49.6496986,0.835573516 Z M81.7052646,42.9221792 C80.6416834,42.9221792 79.7794805,43.7914906 79.7794805,44.8638407 C79.7794805,45.9361908 80.6416834,46.8055023 81.7052646,46.8055023 C82.7688459,46.8055023 83.6310488,45.9361908 83.6310488,44.8638407 C83.6310488,43.7914906 82.7688459,42.9221792 81.7052646,42.9221792 Z M92.5219651,42.9221792 C91.4583839,42.9221792 90.5961809,43.7914906 90.5961809,44.8638407 C90.5961809,45.9361908 91.4583839,46.8055023 92.5219651,46.8055023 C93.5855463,46.8055023 94.4477493,45.9361908 94.4477493,44.8638407 C94.4477493,43.7914906 93.5855463,42.9221792 92.5219651,42.9221792 Z M49.2551633,42.9221792 C48.1915821,42.9221792 47.3293791,43.7914906 47.3293791,44.8638407 C47.3293791,45.9361908 48.1915821,46.8055023 49.2551633,46.8055023 C50.3187445,46.8055023 51.1809475,45.9361908 51.1809475,44.8638407 C51.1809475,43.7914906 50.3187445,42.9221792 49.2551633,42.9221792 Z M60.0718638,42.9221792 C59.0082825,42.9221792 58.1460796,43.7914906 58.1460796,44.8638407 C58.1460796,45.9361908 59.0082825,46.8055023 60.0718638,46.8055023 C61.135445,46.8055023 61.9976479,45.9361908 61.9976479,44.8638407 C61.9976479,43.7914906 61.135445,42.9221792 60.0718638,42.9221792 Z M70.8885642,42.9221792 C69.824983,42.9221792 68.96278,43.7914906 68.96278,44.8638407 C68.96278,45.9361908 69.824983,46.8055023 70.8885642,46.8055023 C71.9521454,46.8055023 72.8143484,45.9361908 72.8143484,44.8638407 C72.8143484,43.7914906 71.9521454,42.9221792 70.8885642,42.9221792 Z M27.6217624,42.9221792 C26.5581812,42.9221792 25.6959782,43.7914906 25.6959782,44.8638407 C25.6959782,45.9361908 26.5581812,46.8055023 27.6217624,46.8055023 C28.6853437,46.8055023 29.5475466,45.9361908 29.5475466,44.8638407 C29.5475466,43.7914906 28.6853437,42.9221792 27.6217624,42.9221792 Z M38.4384629,42.9221792 C37.3748816,42.9221792 36.5126787,43.7914906 36.5126787,44.8638407 C36.5126787,45.9361908 37.3748816,46.8055023 38.4384629,46.8055023 C39.5020441,46.8055023 40.364247,45.9361908 40.364247,44.8638407 C40.364247,43.7914906 39.5020441,42.9221792 38.4384629,42.9221792 Z M5.98836153,42.9221792 C4.92478029,42.9221792 4.06257734,43.7914906 4.06257734,44.8638407 C4.06257734,45.9361908 4.92478029,46.8055023 5.98836153,46.8055023 C7.05194276,46.8055023 7.91414571,45.9361908 7.91414571,44.8638407 C7.91414571,43.7914906 7.05194276,42.9221792 5.98836153,42.9221792 Z M16.805062,42.9221792 C15.7414807,42.9221792 14.8792778,43.7914906 14.8792778,44.8638407 C14.8792778,45.9361908 15.7414807,46.8055023 16.805062,46.8055023 C17.8686432,46.8055023 18.7308462,45.9361908 18.7308462,44.8638407 C18.7308462,43.7914906 17.8686432,42.9221792 16.805062,42.9221792 Z M38.4384629,30.9257111 C37.3748816,30.9257111 36.5126787,31.7950226 36.5126787,32.8673726 C36.5126787,33.9397227 37.3748816,34.8090342 38.4384629,34.8090342 C39.5020441,34.8090342 40.364247,33.9397227 40.364247,32.8673726 C40.364247,31.7950226 39.5020441,30.9257111 38.4384629,30.9257111 Z M5.98836153,30.9257111 C4.92478029,30.9257111 4.06257734,31.7950226 4.06257734,32.8673726 C4.06257734,33.9397227 4.92478029,34.8090342 5.98836153,34.8090342 C7.05194276,34.8090342 7.91414571,33.9397227 7.91414571,32.8673726 C7.91414571,31.7950226 7.05194276,30.9257111 5.98836153,30.9257111 Z M16.805062,30.9257111 C15.7414807,30.9257111 14.8792778,31.7950226 14.8792778,32.8673726 C14.8792778,33.9397227 15.7414807,34.8090342 16.805062,34.8090342 C17.8686432,34.8090342 18.7308462,33.9397227 18.7308462,32.8673726 C18.7308462,31.7950226 17.8686432,30.9257111 16.805062,30.9257111 Z M81.7052646,30.9257111 C80.6416834,30.9257111 79.7794805,31.7950226 79.7794805,32.8673726 C79.7794805,33.9397227 80.6416834,34.8090342 81.7052646,34.8090342 C82.7688459,34.8090342 83.6310488,33.9397227 83.6310488,32.8673726 C83.6310488,31.7950226 82.7688459,30.9257111 81.7052646,30.9257111 Z M92.5219651,30.9257111 C91.4583839,30.9257111 90.5961809,31.7950226 90.5961809,32.8673726 C90.5961809,33.9397227 91.4583839,34.8090342 92.5219651,34.8090342 C93.5855463,34.8090342 94.4477493,33.9397227 94.4477493,32.8673726 C94.4477493,31.7950226 93.5855463,30.9257111 92.5219651,30.9257111 Z M49.2551633,30.9257111 C48.1915821,30.9257111 47.3293791,31.7950226 47.3293791,32.8673726 C47.3293791,33.9397227 48.1915821,34.8090342 49.2551633,34.8090342 C50.3187445,34.8090342 51.1809475,33.9397227 51.1809475,32.8673726 C51.1809475,31.7950226 50.3187445,30.9257111 49.2551633,30.9257111 Z M60.0718638,30.9257111 C59.0082825,30.9257111 58.1460796,31.7950226 58.1460796,32.8673726 C58.1460796,33.9397227 59.0082825,34.8090342 60.0718638,34.8090342 C61.135445,34.8090342 61.9976479,33.9397227 61.9976479,32.8673726 C61.9976479,31.7950226 61.135445,30.9257111 60.0718638,30.9257111 Z M70.8885642,30.9257111 C69.824983,30.9257111 68.96278,31.7950226 68.96278,32.8673726 C68.96278,33.9397227 69.824983,34.8090342 70.8885642,34.8090342 C71.9521454,34.8090342 72.8143484,33.9397227 72.8143484,32.8673726 C72.8143484,31.7950226 71.9521454,30.9257111 70.8885642,30.9257111 Z M27.6217624,30.9257111 C26.5581812,30.9257111 25.6959782,31.7950226 25.6959782,32.8673726 C25.6959782,33.9397227 26.5581812,34.8090342 27.6217624,34.8090342 C28.6853437,34.8090342 29.5475466,33.9397227 29.5475466,32.8673726 C29.5475466,31.7950226 28.6853437,30.9257111 27.6217624,30.9257111 Z M81.7052646,18.929243 C80.6416834,18.929243 79.7794805,19.7985545 79.7794805,20.8709046 C79.7794805,21.9432546 80.6416834,22.8125661 81.7052646,22.8125661 C82.7688459,22.8125661 83.6310488,21.9432546 83.6310488,20.8709046 C83.6310488,19.7985545 82.7688459,18.929243 81.7052646,18.929243 Z M16.805062,18.929243 C15.7414807,18.929243 14.8792778,19.7985545 14.8792778,20.8709046 C14.8792778,21.9432546 15.7414807,22.8125661 16.805062,22.8125661 C17.8686432,22.8125661 18.7308462,21.9432546 18.7308462,20.8709046 C18.7308462,19.7985545 17.8686432,18.929243 16.805062,18.929243 Z M60.0718638,18.929243 C59.0082825,18.929243 58.1460796,19.7985545 58.1460796,20.8709046 C58.1460796,21.9432546 59.0082825,22.8125661 60.0718638,22.8125661 C61.135445,22.8125661 61.9976479,21.9432546 61.9976479,20.8709046 C61.9976479,19.7985545 61.135445,18.929243 60.0718638,18.929243 Z M70.8885642,18.929243 C69.824983,18.929243 68.96278,19.7985545 68.96278,20.8709046 C68.96278,21.9432546 69.824983,22.8125661 70.8885642,22.8125661 C71.9521454,22.8125661 72.8143484,21.9432546 72.8143484,20.8709046 C72.8143484,19.7985545 71.9521454,18.929243 70.8885642,18.929243 Z M49.2551633,18.929243 C48.1915821,18.929243 47.3293791,19.7985545 47.3293791,20.8709046 C47.3293791,21.9432546 48.1915821,22.8125661 49.2551633,22.8125661 C50.3187445,22.8125661 51.1809475,21.9432546 51.1809475,20.8709046 C51.1809475,19.7985545 50.3187445,18.929243 49.2551633,18.929243 Z M27.6217624,18.929243 C26.5581812,18.929243 25.6959782,19.7985545 25.6959782,20.8709046 C25.6959782,21.9432546 26.5581812,22.8125661 27.6217624,22.8125661 C28.6853437,22.8125661 29.5475466,21.9432546 29.5475466,20.8709046 C29.5475466,19.7985545 28.6853437,18.929243 27.6217624,18.929243 Z M38.4384629,18.929243 C37.3748816,18.929243 36.5126787,19.7985545 36.5126787,20.8709046 C36.5126787,21.9432546 37.3748816,22.8125661 38.4384629,22.8125661 C39.5020441,22.8125661 40.364247,21.9432546 40.364247,20.8709046 C40.364247,19.7985545 39.5020441,18.929243 38.4384629,18.929243 Z M49.2551633,6.93277498 C48.1915821,6.93277498 47.3293791,7.80208647 47.3293791,8.87443653 C47.3293791,9.94678659 48.1915821,10.8160981 49.2551633,10.8160981 C50.3187445,10.8160981 51.1809475,9.94678659 51.1809475,8.87443653 C51.1809475,7.80208647 50.3187445,6.93277498 49.2551633,6.93277498 Z M60.0718638,6.93277498 C59.0082825,6.93277498 58.1460796,7.80208647 58.1460796,8.87443653 C58.1460796,9.94678659 59.0082825,10.8160981 60.0718638,10.8160981 C61.135445,10.8160981 61.9976479,9.94678659 61.9976479,8.87443653 C61.9976479,7.80208647 61.135445,6.93277498 60.0718638,6.93277498 Z M70.8885642,6.93277498 C69.824983,6.93277498 68.96278,7.80208647 68.96278,8.87443653 C68.96278,9.94678659 69.824983,10.8160981 70.8885642,10.8160981 C71.9521454,10.8160981 72.8143484,9.94678659 72.8143484,8.87443653 C72.8143484,7.80208647 71.9521454,6.93277498 70.8885642,6.93277498 Z M27.6217624,6.93277498 C26.5581812,6.93277498 25.6959782,7.80208647 25.6959782,8.87443653 C25.6959782,9.94678659 26.5581812,10.8160981 27.6217624,10.8160981 C28.6853437,10.8160981 29.5475466,9.94678659 29.5475466,8.87443653 C29.5475466,7.80208647 28.6853437,6.93277498 27.6217624,6.93277498 Z M38.4384629,6.93277498 C37.3748816,6.93277498 36.5126787,7.80208647 36.5126787,8.87443653 C36.5126787,9.94678659 37.3748816,10.8160981 38.4384629,10.8160981 C39.5020441,10.8160981 40.364247,9.94678659 40.364247,8.87443653 C40.364247,7.80208647 39.5020441,6.93277498 38.4384629,6.93277498 Z" id="Combined-Shape"></path>
                </g>
                <g id="Gears" transform="translate(512.002506, 170.500000) scale(-1, 1) translate(-512.002506, -170.500000) translate(454.002506, 110.000000)" fill="#0D3E40" opacity="0.8">
                    <path d="M27.5541858,13 C27.7896186,13.0060041 28.0252506,13.0151455 28.2610342,13.0275024 L28.0599038,16.8686451 L28.0623953,16.8688209 L28.263703,13.0276421 C30.5422626,13.1470563 32.7700546,13.5589175 34.9056937,14.248015 L33.7251371,17.9088163 C35.5848691,18.5089466 37.3329591,19.3466387 38.9357792,20.3845449 L41.0260261,17.1556058 C42.9232483,18.3840954 44.6529337,19.8553998 46.1708572,21.529023 L43.3216534,24.1130542 C44.6146353,25.5386524 45.7230031,27.1314652 46.6116256,28.8524753 L50.0295789,27.0881694 C51.0660696,29.0956446 51.8379173,31.2323846 52.3213758,33.4494309 L48.5632673,34.2690653 C48.9345673,35.9718202 49.1090447,37.7440712 49.062781,39.5592541 L49.0426486,40.057 L49.0450743,40.0147449 L52.888998,40.1904999 L52.8803348,40.3670888 C52.7638255,42.5902199 52.368945,44.7650865 51.7096773,46.8533915 L48.0416225,45.6955686 C47.4543249,47.5558543 46.6297876,49.3058619 45.6050741,50.9122195 L48.8479492,52.9807796 C47.6321574,54.8866892 46.1723124,56.6265212 44.5086555,58.155895 L41.9050765,55.3245426 C40.4886179,56.6266052 38.904049,57.7450841 37.1903481,58.6448832 L38.978658,62.0503387 C36.9780534,63.1008004 34.8464476,63.887453 32.6328839,64.3861998 L31.7882645,60.6336276 C29.851135,61.07017 27.822616,61.2516599 25.7421036,61.1426248 L26.0451144,61.1557715 L25.8952757,65 L25.5418605,64.9838594 C23.3785532,64.8704853 21.2615962,64.4937953 19.2252346,63.8663771 L20.3578322,60.1904552 C18.4889391,59.6146369 16.7297951,58.799876 15.1139276,57.7834082 L13.0662222,61.0394921 C11.1528362,59.8359168 9.40407121,58.387282 7.86441165,56.7335535 L10.6801368,54.1130817 C9.36782362,52.7036389 8.23856665,51.1248111 7.32755943,49.4156849 L3.93332785,51.2252074 C2.87043328,49.2311785 2.07050719,47.1046169 1.55795345,44.8946175 L5.30500613,44.025839 C4.87900061,42.1891078 4.68256287,40.2690318 4.74613023,38.2994153 L0.901648589,38.1763644 C0.907340273,37.9997965 0.914795379,37.8231239 0.924074753,37.6460629 C1.0343011,35.5428188 1.39321646,33.4838892 1.98950434,31.4998777 L5.67321312,32.6068869 C6.23613436,30.7339298 7.03855325,28.9696663 8.04332943,27.3475378 L4.77348947,25.3218709 C5.96399394,23.3999369 7.40076574,21.6411173 9.04411098,20.0900381 L11.6842079,22.8873704 C13.0844512,21.5657286 14.6550386,20.426147 16.3569067,19.5037981 L14.5251232,16.1215281 C16.5118766,15.0448933 18.6328655,14.2303075 20.8389352,13.7025169 L21.7345893,17.4432367 C23.5685036,17.004543 25.486823,16.7950198 27.4556507,16.845188 L27.5541858,13 Z M25.6440095,24.6681389 C17.7244871,25.3610073 11.8661266,32.3427296 12.558995,40.262252 C13.2518634,48.1817744 20.2335857,54.0401349 28.1531081,53.3472665 C36.0726305,52.654398 41.930991,45.6726758 41.2381226,37.7531534 C40.5452541,29.833631 33.5635319,23.9752705 25.6440095,24.6681389 Z" id="Combined-Shape"></path>
                    <path d="M79.9556114,48.2032939 C80.2815953,48.2116072 80.6078551,48.2242645 80.9343246,48.241374 L80.6558163,53.5596495 L80.6592862,53.5601229 L80.9380199,48.2415675 C84.0929485,48.4069103 87.1775837,48.9771796 90.1346224,49.9313146 L88.4985511,54.9996472 C91.0739686,55.8305844 93.4947721,56.9905515 95.7143811,58.4278155 L98.6089287,53.9572096 C101.235852,55.6581952 103.630801,57.6953859 105.732541,60.0127103 L101.788041,63.5912081 C103.578138,65.5650134 105.112648,67.7703064 106.342939,70.1530754 L111.075387,67.70999 C112.510527,70.4895709 113.57924,73.448134 114.248644,76.5178905 L109.044937,77.6519817 C109.572342,80.0703154 109.813015,82.589897 109.731214,85.1710308 L109.712596,85.6081385 L115.034582,85.8516783 L115.022587,86.096186 C114.861266,89.1743676 114.314509,92.1857213 113.401677,95.0772205 L108.322757,93.4743188 C107.509538,96.0501432 106.367822,98.4732673 104.948929,100.697481 L109.439284,103.561296 C107.75588,106.200248 105.734556,108.609246 103.431031,110.726841 L99.8264897,106.806126 C97.8652293,108.609057 95.6711869,110.157787 93.2983358,111.40372 L95.7741115,116.119147 C93.0040434,117.573633 90.0525894,118.662844 86.987655,119.353417 L85.8169016,114.157836 C83.3414005,114.715591 80.7581208,114.972527 78.1099455,114.890031 L77.8650984,114.879294 L77.658659,120.203294 L77.1693149,120.180945 C74.1739663,120.023966 71.2427951,119.502395 68.4232174,118.633662 L69.9909527,113.543777 C67.4035254,112.746527 64.9680316,111.618502 62.7308802,110.211242 L59.8953542,114.719514 C57.2460505,113.053025 54.8246836,111.047223 52.6928472,108.757445 L56.590194,105.12765 C54.7738081,103.176575 53.2107468,100.991119 51.9496962,98.6253544 L47.2498081,101.130504 C45.778108,98.3695411 44.670518,95.4250711 43.9608282,92.3650719 L49.1489216,91.1615728 C48.5592651,88.619033 48.2873138,85.9611547 48.3751799,83.2347082 L43.0520984,83.0628754 C43.0599792,82.8183967 43.0703016,82.5737731 43.08315,82.3286117 C43.2357711,79.4164276 43.7327308,76.565602 44.5583602,73.8185091 L49.6588385,75.3514293 C50.4382365,72.7581643 51.5492307,70.3153896 52.9404,68.0694052 L48.4131088,65.2643458 C50.0614996,62.6032064 52.050876,60.1679178 54.3262771,58.0202697 L57.9818063,61.8934892 C59.9211216,60.0630376 62.0964233,58.4848034 64.4535806,57.2075263 L61.9153709,52.5254097 C64.6662603,51.0346845 67.6030141,49.9067965 70.6575722,49.1760096 L71.895982,54.3558808 C74.4358254,53.748164 77.0926063,53.4579083 79.8193554,53.5274048 L79.9556114,48.2032939 Z M77.310752,64.3591785 C66.3452594,65.3185348 58.2336833,74.9855348 59.1930396,85.9510273 C60.1523959,96.9165199 69.8193959,105.028096 80.7848884,104.06874 C91.750381,103.109383 99.8619571,93.4423834 98.9026008,82.4768909 C97.9432445,71.5113983 88.2762445,63.3998222 77.310752,64.3591785 Z" id="Combined-Shape"></path>
                    <path d="M78.9034985,0.203293852 C79.0891282,0.208027838 79.274915,0.215235473 79.4608213,0.224978408 L79.3022009,3.25315028 L79.3042022,3.25371037 L79.4629255,0.22508858 C81.2594821,0.319242122 83.0160105,0.643978787 84.6998797,1.18730567 L83.768319,4.07346883 C85.2346395,4.546574 86.6129434,5.20698325 87.8767183,6.02525158 L89.5255264,3.47982921 C91.0214131,4.44844602 92.3852036,5.60851294 93.5820279,6.92810045 L91.3350995,8.96502369 C92.3547429,10.0891638 93.2287906,11.3451855 93.9295321,12.7023129 L96.6244816,11.3112736 C97.4417146,12.8940905 98.0502868,14.5788279 98.4314752,16.3268836 L95.4685104,16.9738638 C95.793679,18.4653723 95.927317,20.0245021 95.8435675,21.6225365 L95.8487856,21.5034684 L98.8790235,21.6419572 L98.8721929,21.7811908 C98.7803298,23.5340442 98.4689817,25.2488428 97.9491745,26.895391 L95.0571043,25.982334 C94.5940506,27.4491215 93.9439371,28.8289579 93.1359878,30.0955296 L95.692812,31.7266009 C94.7342069,33.2293372 93.5831753,34.6011279 92.2714458,35.8069803 L90.2184257,33.57475 C89.101595,34.6013517 87.8522196,35.4832051 86.5010317,36.192639 L87.9112555,38.8775993 C86.3338556,39.705848 84.6531665,40.3260933 82.9078566,40.719336 L82.2416192,37.7606419 C80.7143539,38.104792 79.1150425,38.2478664 77.4747414,38.1619019 L77.7134892,38.1714904 L77.5955117,41.2032939 L77.3168574,41.1905676 C75.6111728,41.1011765 73.9420336,40.8041709 72.3364408,40.3094758 L73.2295064,37.41117 C71.7561319,36.957219 70.369269,36.3149161 69.0953433,35.5136095 L67.4802964,38.0805857 C65.9716652,37.1316129 64.5928312,35.98942 63.3788689,34.6855187 L65.5981869,32.6185473 C64.5639446,31.5076128 63.6739321,30.2632344 62.9558662,28.9161948 L60.2793605,30.3423997 C59.441309,28.7701846 58.8105981,27.0934726 58.4064692,25.350973 L61.360977,24.6664095 C61.0250511,23.2182281 60.8701289,21.7043297 60.9202092,20.1513676 L57.888998,20.0538889 C57.8934857,19.9146719 57.8993638,19.7753723 57.9066802,19.6357665 C57.9935894,17.9774395 58.2765804,16.3540526 58.7467304,14.7897359 L61.6511146,15.6628312 C62.0949946,14.1858654 62.7277623,12.7946222 63.5201222,11.5154793 L60.9417956,9.9186151 C61.8804626,8.40324408 63.0133019,7.0164825 64.3090164,5.79351619 L66.3910007,7.99875647 C67.4950733,6.95672048 68.7334532,6.05823615 70.0753402,5.33103615 L68.6305838,2.66449871 C70.1970624,1.81561354 71.8693806,1.17334398 73.6087817,0.757201446 L74.3138154,3.70689144 C75.7602305,3.36078732 77.2732471,3.19548882 78.8261123,3.23508448 L78.9034985,0.203293852 Z M77.397398,9.40317261 C71.1531592,9.94947272 66.5340672,15.4542922 67.0803673,21.698531 C67.6266674,27.9427698 73.1314869,32.5618618 79.3757257,32.0155616 C85.6199645,31.4692615 90.2390565,25.9644421 89.6927563,19.7202033 C89.1464562,13.4759645 83.6416368,8.8568725 77.397398,9.40317261 Z" id="Combined-Shape"></path>
                </g>
                <g id="men-with-chart" transform="translate(106.502506, 161.500000) scale(-1, 1) translate(-106.502506, -161.500000) translate(3.002506, 19.000000)">
                    <g id="chart" transform="translate(97.202502, 48.671372) rotate(11.000000) translate(-97.202502, -48.671372) translate(4.202502, 18.171372)">
                        <polyline id="Path" stroke="#027474" stroke-width="2" stroke-linecap="round" points="6.88217826 29.141771 38.8357137 7.64177104 67.8971058 56.2311337 97.8558466 12.3482298 132.260961 44.0879722"></polyline>
                        <circle id="Oval" fill="#00B2B1" cx="5.38217826" cy="27.641771" r="5"></circle>
                        <circle id="Oval" fill="#00A2A2" cx="38.8357137" cy="7.09978348" r="6.5"></circle>
                        <circle id="Oval" fill="#2CC0BF" cx="66.5283889" cy="54.7300203" r="5.5"></circle>
                        <circle id="Oval" fill="#00B2B1" cx="97.9692915" cy="12.0997835" r="5"></circle>
                        <circle id="Oval" fill="#00B2B1" cx="178.617862" cy="38.7022831" r="6.5"></circle>
                    </g>
                    <g id="men" transform="translate(128.868178, 62.829019)">
                        <path d="M59.473496,206.41878 C60.2803039,205.508662 61.4413202,205.789077 62.6220148,205.789077 C65.7951314,205.848111 69.0518805,206.172802 71.9445821,207.579797 C72.7320848,207.912457 73.4128734,208.455386 73.9124063,209.149136 C74.4123091,209.870612 74.3964754,210.830527 73.8730498,211.535123 C73.4518013,211.930742 72.9289232,212.201548 72.3627447,212.317333 L72.3627447,212.317333 L63.0746144,215.116563 C60.9969827,215.741577 58.7418445,216.366591 56.6831297,215.84996 C56.6236618,216.129737 56.5039436,216.400576 56.3249772,216.641627 C55.9037287,217.037246 55.3808506,217.308052 54.8146721,217.423837 L54.8146721,217.423837 L45.5265417,220.218148 C43.1553135,220.931484 40.5479464,221.64974 38.2751094,220.665828 C37.621365,220.401354 37.0469339,219.972649 36.6073784,219.421179 C35.8799451,218.351787 35.6637586,217.015034 36.0170311,215.770865 C36.1366228,215.14594 36.4498772,214.574509 36.9123912,214.137571 C37.5464257,213.701818 38.2931664,213.45917 39.0622391,213.438993 C39.7182729,213.419922 40.361862,213.255244 40.9464308,212.956876 C41.5859737,212.538714 41.5072607,212.012321 41.930343,211.520365 C42.7322313,210.610246 43.8981672,210.89558 45.0788617,210.89558 C47.8987379,210.948043 50.7846625,211.206422 53.4189877,212.25077 C53.3694326,211.723957 53.4173896,211.186074 53.5651037,210.664361 C53.6859572,210.03989 53.9990117,209.468824 54.4604638,209.031067 C55.0954933,208.597336 55.8416222,208.354887 56.6103117,208.332489 C57.2653815,208.317753 57.9083223,208.15281 58.4895839,207.850372 C59.1291268,207.43221 59.0504138,206.910736 59.473496,206.41878 Z" id="Combined-Shape" fill="#005E7D"></path>
                        <path d="M48.5373128,107.530693 C54.0109256,106.980697 59.5170757,106.82615 65.0129212,107.068254 C65.3755743,107.064541 65.7363276,107.121065 66.0804659,107.235519 C67.2906778,107.727475 67.4776211,109.311574 67.590771,110.605418 C68.082727,115.859509 70.3752423,120.754472 71.5264194,125.900332 C72.2024487,129.134895 72.5094234,132.435699 72.4414577,135.739453 C72.3749616,137.215514 72.401251,138.694294 72.5201707,140.167058 C72.6677575,141.480581 73.0121267,142.769505 73.19907,144.078109 C73.4066218,145.836118 73.4839056,147.607068 73.4302894,149.376475 C73.4865707,152.150782 73.3303279,154.925326 72.9629311,157.675774 C72.2053188,162.364115 73.5286806,167.022939 73.882889,171.765396 C74.059415,175.082303 74.4323152,178.385837 74.9996292,181.658632 C75.270205,183.041028 75.6096547,184.408666 75.796598,185.800902 C76.3475888,189.938252 75.5407809,194.198592 76.4115431,198.281827 C76.8149471,200.190617 77.543042,202.335545 76.4705778,203.968839 C76.1360477,204.460795 75.6440917,204.878958 75.2800442,205.375833 C74.8641772,205.848155 74.732807,206.506883 74.9356749,207.102599 C75.147216,207.550279 75.6391721,207.845453 75.7621611,208.32265 C75.954024,209.075343 75.1668943,209.690288 74.4584776,210.010059 C69.1207543,212.420644 62.2382891,210.723396 58.6371707,206.103928 C59.2570353,206.005537 60.0146477,205.557857 60.0294064,204.928153 C59.9821125,204.302127 59.8462927,203.685969 59.6260024,203.098077 C59.3362614,202.036703 59.2875164,200.923972 59.4833351,199.841328 C59.6260024,199.083715 59.8818195,198.36546 60.0392455,197.602928 C60.1869367,196.766531 60.2854968,195.9222 60.3344191,195.074274 C60.6005115,192.026984 61.1993441,189.017974 62.1202196,186.100995 C63.0155796,183.272248 61.7955286,180.409063 61.4757572,177.457327 C61.3281703,176.060172 61.3921246,174.618741 60.9050881,173.300298 C60.6099145,172.523008 60.1327171,171.82443 59.842463,171.04714 C59.1684832,169.231822 59.5718872,167.214802 59.9802107,165.325691 C57.0727504,160.07652 56.103597,153.818838 55.006535,147.920285 L53.1616998,137.982773 C52.8862044,136.506905 52.5861112,134.976921 51.6858316,133.786388 C50.729546,138.173695 50.3540835,142.667667 50.5690913,147.152834 C50.6806604,148.445138 50.6641817,149.745306 50.5198957,151.034367 C50.2935959,152.46104 49.6983291,153.80408 49.3490403,155.201235 C48.5865084,158.285799 49.0341884,161.52287 48.8570843,164.695987 C48.7882104,165.979992 48.6258649,167.254158 48.5717497,168.538164 C48.3306913,174.205498 50.2394808,179.715405 52.1236725,185.062968 C53.2797692,188.344315 53.5355864,192.073342 54.0914967,195.507195 C54.5834528,198.798381 55.129524,202.089567 55.3902607,205.41027 C55.6313192,208.460398 55.7395495,211.761423 57.6384999,214.157249 C55.901895,215.283828 54.111175,216.430086 52.0793964,216.818731 C49.7116483,217.18917 47.2889203,216.719244 45.2313681,215.49045 C43.1854659,214.267143 41.3567806,212.71276 39.8198515,210.890661 C40.2183359,210.752913 40.3610031,210.172405 40.4003596,209.754242 C40.9907069,203.526079 38.6243982,197.455341 37.7290382,191.256695 C37.2814647,188.151329 37.2022028,185.00397 37.4928993,181.880012 C37.6060492,180.704237 37.7683947,179.528462 37.8126707,178.347768 C38.0488097,172.193397 35.0823146,166.265327 35.1905449,160.106037 C35.2397406,157.218255 33.7146768,154.374749 32.9669036,151.585358 C32.3224411,149.125578 32.3027629,146.518211 32.2880042,143.960039 L32.1650152,123.789841 C32.1650152,121.064404 32.1650152,118.270094 33.0456165,115.697163 C34.1279199,112.59784 32.8881906,109.040998 32.7012473,105.764571 C37.8133212,107.384754 43.1939002,107.984825 48.5373128,107.530693 L48.5373128,107.530693 Z" id="Path" fill="#90771A"></path>
                        <path d="M48.9407168,34.7605527 C54.5784882,34.7605527 59.148805,39.3308695 59.148805,44.9686409 C59.148805,48.6828883 57.1651186,51.9338209 54.1993892,53.7197953 C54.0059671,54.4447399 53.8125245,55.1907546 53.8848752,55.7178808 C54.1308532,57.562716 55.1196849,59.2156884 56.0839188,60.809626 C56.6644269,61.7935382 57.4072806,62.8414046 58.5436991,62.9496349 C55.5860663,64.5018162 52.4791618,65.7511709 49.2703273,66.6786618 C48.1796955,67.0450947 47.0362032,67.2295826 45.8856697,67.2248262 C44.9107063,67.1519962 43.9563309,66.9071564 43.0667614,66.5015576 C39.1247005,64.784869 36.1886975,61.3537895 35.1019929,57.193749 C36.3729352,57.2276064 37.6439818,57.1303408 38.8949741,56.9034949 C39.6093525,56.8486292 40.275226,56.5209772 40.754568,55.9884567 C41.0396348,55.4897515 41.172993,54.9187045 41.1382937,54.3453234 C41.1647622,53.4295138 41.178414,52.5122801 41.1769507,51.5951547 C39.6523286,49.8119336 38.7326286,47.497691 38.7326286,44.9686409 C38.7326286,39.3308695 43.3029453,34.7605527 48.9407168,34.7605527 Z M1.66373955,4.87914173 C3.00186003,3.56093825 5.22550142,3.10809991 6.83419773,4.09201203 C8.08376612,4.83486568 8.7725046,6.22218177 9.39728879,7.53570444 C10.3221662,9.50352868 11.6701258,11.3237661 12.0833689,13.4391771 C13.2197874,19.2590173 17.8835308,23.7800935 19.7529638,29.4080708 C20.4220241,31.4152515 20.7368759,33.5700191 21.7945815,35.4050152 C22.2941688,36.2067292 22.8532931,36.9697694 23.4672321,37.6876913 C26.4055381,41.3635612 28.9312924,45.3509865 30.9990793,49.5782692 C31.8895198,51.4132653 30.7973773,53.6959414 30.1824323,55.6342483 C29.6322061,57.3305913 29.3613784,59.1050945 29.3805439,60.888339 C26.5517966,60.519372 24.2100857,58.4580761 22.7096197,55.9982958 C21.2091538,53.5385155 20.3925067,50.7884811 19.3692381,48.1269988 C17.5686789,43.4386576 15.1187378,39.0405704 13.0328441,34.45554 C10.9469504,29.8705095 10.7354093,24.8427186 9.0971956,20.0953426 C8.17937963,17.4721903 6.28257699,15.3056751 3.80374841,14.0492027 C2.84443409,13.5670857 1.77688945,13.2030382 1.06355316,12.4011499 C0.513933088,11.7372084 0.171759952,10.9262581 0.0796410439,10.0692781 C-0.226251572,8.18715544 0.358988977,6.26967476 1.66373955,4.87914173 Z M54.9425807,1.4994036 C55.7682862,1.51765455 56.550507,1.87320948 57.1071874,2.48331572 C57.9186831,3.40912751 58.54645,4.48100614 58.9569421,5.64167362 C59.7588305,7.53078488 60.5754776,9.49860912 60.5016842,11.5451463 C60.4328103,13.2473143 59.798187,15.1462647 60.7968578,16.5286612 C64.063446,21.0644961 66.537985,26.2743107 69.1256739,31.2283082 C69.7857497,32.4087734 70.348445,33.6411091 70.8081636,34.9130591 C71.4401225,36.9744074 71.7390555,39.1234032 71.6936845,41.2789705 C71.6936845,45.3080906 71.162372,49.3224521 70.6113812,53.3171353 C70.2620924,55.8211916 69.8045732,58.5466282 67.9105424,60.2045201 C65.9427182,57.6857051 63.9650548,55.2259248 61.4560789,53.2581005 C61.3296467,49.7795501 61.8724287,46.3090854 63.0549361,43.0352536 C63.5075357,41.7807657 64.0388482,40.5065995 63.9945722,39.1733986 C63.9306179,37.9336693 63.3402706,36.7972508 62.8040385,35.675591 C60.9542837,31.8137359 59.6555197,27.7206615 58.376434,23.6374262 L55.9166537,15.9383139 C55.1146717,15.3502173 54.3891757,14.664384 53.7569666,13.8966963 C52.4457588,12.3806843 51.579158,10.5317088 51.2529103,8.55405348 C50.9358199,6.56221448 51.4340858,4.5265945 52.6353068,2.90639793 C53.1657019,2.12681709 54.0066666,1.61399 54.9425807,1.4994036 Z" id="Combined-Shape" fill="#F7A17D"></path>
                        <path d="M49.3982359,61.9214467 C49.6277343,59.1629832 51.5981062,56.861573 54.2882791,56.2098369 C55.3410651,55.973698 56.4824032,56.0032153 57.4220392,55.4817419 C59.0356551,54.5814623 59.5226916,52.3873383 61.0723532,51.3788284 C62.6220148,50.3703185 64.8210584,50.9311484 66.169018,52.2053146 C67.5169776,53.4794808 68.2007965,55.2947986 68.7517873,57.07076 C69.5743656,59.4720937 70.0207581,61.9861629 70.0751491,64.5238943 C70.0956676,64.9880852 70.0220363,65.4516278 69.8586884,65.8866126 C69.5669717,66.3943719 69.1985818,66.8540295 68.766546,67.2493308 C67.5984182,68.5602609 67.0595563,70.3151546 67.2906778,72.0557415 C67.4304816,73.6760441 67.282246,75.3083022 66.8528369,76.8769109 C65.8689248,81.2159633 64.8850126,85.5500962 64.0929634,89.9285051 C63.9071152,90.7343382 63.8457295,91.5638741 63.9109397,92.3882854 C64.063446,93.5738995 64.7177476,94.6955594 64.5750803,95.8811735 C64.4357565,96.4331069 64.3322302,96.9934635 64.265148,97.5587436 C64.2972939,97.9865955 64.3969162,98.4066693 64.5603217,98.8033924 C65.6770619,102.045383 68.6927525,109.473919 68.6632352,112.907773 C63.4239032,111.564733 55.700193,111.264639 50.2886764,111.240042 C48.8004949,111.224467 47.3125731,111.290159 45.8315545,111.436824 C42.2747122,111.82055 38.6342374,112.858577 35.1856254,111.899263 C31.9829914,111.008822 29.1493245,108.45557 25.8384603,108.775342 C25.1202044,106.89607 25.9663688,100.62363 26.6403487,98.7246795 C29.2678897,91.2474103 29.7786328,83.1895862 28.1162168,75.4403992 C27.5111109,72.6559279 28.3425166,69.699272 27.6685368,66.934479 C27.5453546,66.2803164 27.2946103,65.6567988 26.9306027,65.0994829 C26.5578834,64.5368573 25.9228425,64.204482 25.248113,64.2188815 C25.1867995,59.7716251 25.5990859,55.3304766 26.4780032,50.9705049 C26.8026941,49.4208433 27.4619153,47.5907667 29.0509333,47.3251105 C30.4579277,47.084052 31.6386222,48.2745857 32.7701211,49.1453479 C33.9302875,50.0434035 35.2739915,50.6749443 36.7057696,50.9951027 C37.2822197,51.0637731 37.8347181,51.2659066 38.3193855,51.5854499 C38.9933653,52.1462798 39.0917565,53.1547898 39.6427473,53.8386087 C40.6266594,55.0635793 42.825703,54.9602685 43.5242806,56.3721824 C43.6770109,56.7927478 43.8002976,57.2234292 43.8932476,57.6611073 C44.2236994,58.5000784 44.7869513,59.2271854 45.5167026,59.7568401 C46.6125181,60.7870535 47.945858,61.5306145 49.3982359,61.9214467 Z" id="Path" fill="#008AB6"></path>
                        <path d="M40.6463376,34.1160903 C40.4692335,33.4421105 40.4987508,32.6402221 41.0399025,32.1876225 C41.3104783,31.9760814 41.6646867,31.8973685 41.9549408,31.6956665 C42.3640038,31.3518783 42.6987759,30.9283917 42.9388529,30.4510177 C44.4547357,28.3297173 47.2803789,27.6123907 49.6245357,28.7537693 C51.4004971,29.6835662 52.4729613,31.5431601 54.0521402,32.7976481 C54.8540286,33.4470301 55.7838256,33.929147 56.5906335,34.578529 C58.2064829,35.9743137 59.3552266,37.8322221 59.8818195,39.9014935 C60.4046939,41.9561997 60.7097489,44.0602542 60.7919382,46.1788528 C60.8759016,46.8146905 60.8509469,47.4601848 60.7181448,48.0876424 C60.5546508,48.6139534 60.3107066,49.1117987 59.9949694,49.5635105 C58.3715144,52.0232908 56.2315056,54.2567713 53.5503451,55.526018 C50.8691845,56.7952646 47.6075159,57.0018861 44.9607923,55.6736048 C44.6945167,55.5660167 44.4654157,55.3830779 44.3015712,55.1472118 C44.1511293,54.7880331 44.1150547,54.3912127 44.1982604,54.0107933 C44.3417271,52.5071925 44.0442869,50.9943498 43.3422568,49.6569822 C42.8503008,48.6730701 42.1123667,47.8269056 41.7188018,46.8085566 C41.3528342,45.6686792 41.1961637,44.4719829 41.2563632,43.2763121 C41.2120871,40.1819085 41.4236282,37.097344 40.6463376,34.1160903 Z" id="Path" fill="#D45925"></path>
                    </g>
                </g>
                <circle id="Oval" fill="#00A2A2" cx="507.002506" cy="37.5" r="5"></circle>
                <circle id="Oval" fill="#00A2A2" cx="254.5" cy="42.5" r="3"></circle>
                <circle id="Oval" fill="#009392" cx="56" cy="33" r="3.5"></circle>
                <g id="programmer" transform="translate(125.002506, 186.000000)">
                    <g id="notebook" opacity="0.8" transform="translate(72.429056, 54.409116)">
                        <path d="M44.5087617,0.426540194 L46.6745842,9.36053829 C46.6987298,9.46013947 46.6949799,9.56446651 46.6637458,9.66207715 L36.8391508,40.3638994 C36.7589778,40.6144407 36.5147177,40.7749647 36.2529306,40.7491544 C35.9911435,40.723344 35.7829347,40.5182097 35.753233,40.2568355 L34.3941172,28.2966079 C34.3850906,28.217176 34.3932371,28.1367318 34.4180051,28.0607223 L43.4358935,0.385142177 C43.5132005,0.147887785 43.7386253,-0.00920278609 43.9879713,0.000418556266 C44.2373174,0.0100398986 44.4499668,0.184034132 44.5087617,0.426540194 Z" id="Path" fill="#009392"></path>
                        <path d="M0.0533676605,42.8400525 C0.386641456,43.8398688 34.7136929,42.5067787 35.0469642,42.1735075 C35.3375356,41.7561497 35.5832889,41.3093159 35.7801478,40.8404173 C36.0934445,40.1738723 36.3800543,39.5073272 36.3800543,39.5073272 L35.0469693,28.715968 L1.05317892,27.5095238 C1.05317892,27.5095238 0.203316426,36.654519 0.0300090876,40.8404173 C-0.013270888,41.8968874 -0.013270888,42.6400761 0.0533676605,42.8400525 Z" id="Path" fill="#009392"></path>
                        <polygon id="Path" fill="#000000" fill-rule="nonzero" opacity="0.1" points="30.7144479 30.1758205 31.3808587 39.507345 16.3837026 39.507345 16.3837026 30.1758205"></polygon>
                        <polygon id="Path" fill="#000000" fill-rule="nonzero" opacity="0.1" points="11.384735 33.1750491 11.474147 33.1573187 11.0514029 37.1745272 2.71962135 37.1745272 2.71962135 33.1750491"></polygon>
                        <path d="M0.0533676605,42.8400525 C0.386641456,43.8398688 34.7136929,42.5067787 35.0469642,42.1735075 C35.3375356,41.7561497 35.5832889,41.3093159 35.7801478,40.8404173 L0.0300166864,40.8404173 C-0.013270888,41.8968874 -0.013270888,42.6400761 0.0533676605,42.8400525 Z" id="Path" fill="#000000" fill-rule="nonzero" opacity="0.1"></path>
                    </g>
                    <path d="M30.160588,66.7485103 L37.8378286,66.7485103 L56.756744,59.3454559 C56.756744,59.3454559 70.1919151,53.8617138 69.0951659,64.2808255 C67.9984166,74.6999372 66.0791065,88.6834788 66.0791065,88.6834788 C66.0791065,88.6834788 60.0469897,85.9416078 56.7567398,86.7641687 C53.46649,87.5867296 55.6599906,70.0387518 55.6599906,70.0387518 C55.6599906,70.0387518 28.7896483,82.9255483 26.3219635,81.2804265 C23.8542787,79.6353047 23.3059061,68.1194417 23.3059061,68.1194417 L30.160588,66.7485103 Z" id="Path" fill="#B08814" fill-rule="nonzero" opacity="0.8"></path>
                    <path d="M42.2561295,42.7061526 L51.5471881,56.0552102 L73.2079725,74.1515605 C73.2079725,74.1515605 93.2236371,78.8127438 90.4817639,82.1029895 C87.7398908,85.3932352 71.014476,78.8127438 71.014476,78.8127438 C71.014476,78.8127438 46.0634439,60.7163914 45.240883,59.3454538 C44.4183221,57.9745162 35.3701459,45.0877239 35.3701459,45.0877239 L42.2561295,42.7061526 Z" id="Path" fill="#F1A88B" fill-rule="nonzero"></path>
                    <path d="M33.9391194,30.9322775 L43.8430735,43.7167883 C43.8430735,43.7167883 42.3748766,49.4747188 40.0257597,50.0230935 C37.6766429,50.5714681 27.6929053,42.8942274 27.6929053,42.8942274 L33.9391194,30.9322775 Z" id="Path" fill="#B53D0A"></path>
                    <circle id="Oval" fill="#F8B79D" fill-rule="nonzero" cx="38.1069814" cy="15.6717174" r="10.6095995"></circle>
                    <path d="M37.3996752,25.1024726 C37.3996752,25.1024726 33.8631409,31.2324635 33.1558347,34.5332279 C32.4485286,37.8339923 22.5462353,27.931699 22.5462353,27.931699 L21.249507,24.5130505 C21.249507,24.5130505 30.5623764,20.151326 29.8550703,16.6147916 C29.1477641,13.0782573 37.3996752,25.1024726 37.3996752,25.1024726 Z" id="Path" fill="#F8B79D" fill-rule="nonzero"></path>
                    <path d="M42.2248236,48.1037833 L53.4664983,62.90989 L80.3368406,82.9255525 C80.3368406,82.9255525 99.8041285,87.0383612 95.4171273,90.0544185 C91.0301261,93.0704759 78.4175242,87.3125475 78.4175242,87.3125475 C78.4175242,87.3125475 51.2729998,72.7806271 45.5150672,66.7485103 C39.7571346,60.7163935 29.0638387,50.5714681 29.0638387,50.5714681 L42.2248236,48.1037833 Z" id="Path" fill="#F8B79D" fill-rule="nonzero"></path>
                    <path d="M27.1445306,71.1355053 L30.4347805,76.3450611 L50.0712864,70.1672824 C54.3798406,68.8117841 59.1043775,69.3105565 62.9259581,71.7181532 C66.353299,73.8773763 68.5467954,77.3047152 63.6114258,82.3771779 C53.7406887,92.5221033 47.1601973,87.0383612 47.1601973,87.0383612 C47.1601973,87.0383612 13.9835458,102.667029 8.49980364,94.9897881 C3.01606151,87.3125475 2.74188357,83.4739271 2.74188357,83.4739271 C2.74188357,83.4739271 23.8542849,70.3129423 27.1445306,71.1355053 Z" id="Path" fill="#B08814" fill-rule="nonzero"></path>
                    <path d="M68.272605,87.7548603 C68.272605,87.7548603 77.0465928,93.5127908 66.6274811,96.2546618 C56.2083694,98.9965329 48.5311287,95.1579126 48.5311287,95.1579126 C48.5311287,95.1579126 39.4829525,95.1579126 39.4829525,90.4967292 C39.4829525,85.8355459 42.4990119,85.2871734 42.4990119,85.2871734 L51.8213786,86.6581089 C51.8213786,86.6581089 63.0630491,83.6420537 68.272605,87.7548603 Z" id="Path" fill="#006D90"></path>
                    <path d="M46.8105317,13.0028121 C47.5326585,13.3247283 48.2487305,13.7057496 49.0338131,13.7991942 C49.8188957,13.8926389 50.7129012,13.6185389 51.0843951,12.9206365 C51.2850532,12.5436738 51.307982,12.1002683 51.3173392,11.6733301 C51.3457387,10.3786679 51.2521041,8.97907866 50.4316785,7.97715195 C49.9095432,7.33950505 49.1473554,6.93753488 48.6068767,6.31536443 C48.2196519,5.8696151 47.9619369,5.32932272 47.6844431,4.8081425 C46.6333275,2.83398587 45.0770314,0.936684679 42.9141148,0.367555603 C42.0109349,0.129900635 41.0634634,0.141497669 40.1296352,0.154680514 L34.6828193,0.231523404 C33.8013838,0.243959036 32.9063516,0.258410531 32.0625563,0.513534516 C30.309383,1.0436132 29.0328868,2.51791296 27.8637994,3.92782696 C26.9891498,4.98264811 26.1121851,6.04838001 25.4557629,7.25119593 C24.5146286,9.00647478 24.0387427,10.9735477 24.0734671,12.964912 C24.0661726,13.4756336 24.1321127,13.9847646 24.2692763,14.4767767 C24.4297376,14.9280215 24.628542,15.3646981 24.8635114,15.7820218 C25.8849696,17.788339 26.4914737,20.2943626 25.3411239,22.2296606 C27.3394028,21.413385 29.316568,20.3431089 30.6347468,18.6337739 C31.2244413,17.8690936 31.6869034,16.9739287 32.4727798,16.4127914 C33.2586563,15.8516541 34.5391734,15.8029778 35.0433935,16.6265266 C35.2167055,16.9596776 35.305951,17.3301446 35.3033591,17.7056707 C35.340184,18.3238381 35.3391788,18.9658232 35.6012731,19.5268888 C35.8633675,20.0879544 36.48769,20.540658 37.08376,20.3727645 C38.1102713,20.0836306 38.0119688,18.5081364 38.8026206,17.7924603 C39.4030681,17.2489515 40.3294331,17.3528518 41.1008366,17.1061245 C41.9996102,16.8186572 42.6739924,16.0400307 43.0582463,15.1781733 C43.3503224,14.5230735 43.3461025,12.8087732 43.8987875,12.4540118 C44.5918823,12.0091119 46.1680736,12.716409 46.8105317,13.0028121 Z" id="Path" fill="#F3753F"></path>
                    <path d="M20.2700542,24.7311123 C20.8251245,24.5830142 21.4095084,24.5845017 21.9638175,24.7354238 C23.7238852,25.2079458 27.6694764,26.4588509 28.5154578,28.362307 C29.6122071,30.8299918 33.4508274,34.6686121 33.4508274,34.6686121 C33.4508274,34.6686121 38.6603833,39.878168 37.563634,43.4426021 C36.4668848,47.0070361 32.3540782,51.1198427 32.3540782,51.1198427 C32.3540782,51.1198427 33.4508274,68.1194458 27.9670832,72.5064408 C22.483339,76.8934357 20.2898426,73.8773763 20.2898426,77.9901829 C20.2898426,82.1029895 3.29024778,94.9897881 0,87.0383612 C0,87.0383612 1.64512389,72.2322524 1.09674926,67.0226966 C0.556282888,61.8882723 1.34749625,29.8539336 20.2700542,24.7311123 Z" id="Path" fill="#C54B17"></path>
                    <path d="M29.0638408,31.6525527 C29.0638408,31.6525527 45.7892576,43.9909767 42.7731982,49.2005326 C42.7731982,49.2005326 32.6282728,54.1359001 30.4347763,53.8617159 C28.2412799,53.5875317 19.7414763,43.9909788 17.5479798,43.1684158 C15.3544834,42.3458528 14.2577341,27.5397461 29.0638408,31.6525527 Z" id="Path" fill="#C54B17"></path>
                </g>
            </g>
        </g>
    </g>
</svg>