<?xml version="1.0" encoding="UTF-8"?>
<svg width="810px" height="612px" viewBox="0 0 810 612" version="1.1" xmlns="http://www.w3.org/2000/svg" xmlns:xlink="http://www.w3.org/1999/xlink">
    <!-- Generator: Sketch 64 (93537) - https://sketch.com -->
    <title>illustration-editor</title>
    <desc>Created with Sketch.</desc>
    <defs>
        <circle id="path-1" cx="90.5273927" cy="90.6476241" r="90.2167449"></circle>
        <linearGradient x1="99.982811%" y1="50.0000413%" x2="0.0187255522%" y2="50.0000413%" id="linearGradient-3">
            <stop stop-color="#808080" stop-opacity="0.25" offset="0%"></stop>
            <stop stop-color="#808080" stop-opacity="0.12" offset="54%"></stop>
            <stop stop-color="#808080" stop-opacity="0.1" offset="100%"></stop>
        </linearGradient>
        <linearGradient x1="37.9069742%" y1="28.8867188%" x2="68.0625833%" y2="100%" id="linearGradient-4">
            <stop stop-color="#0098C9" offset="0%"></stop>
            <stop stop-color="#008BB8" offset="100%"></stop>
        </linearGradient>
        <path d="M0.498259765,0.125374218 C0.644653631,7.1384905 0.714006655,12.8490285 0.706318835,17.2569885 C3.97131263,22.7198693 17.0492609,24.8351299 25.0601994,19.2592074 C22.5749655,15.859738 20.2543883,12.9255629 17.5036203,6.34395029 C15.5723755,1.72316612 11.8312884,6.60837374 0.498259765,0.125374218 Z" id="path-5"></path>
    </defs>
    <g id="illustration-editor" stroke="none" stroke-width="1" fill="none" fill-rule="evenodd">
        <g transform="translate(0.000000, 32.000000)">
            <path d="M292.5,357 C420.560578,357 531.415453,430.693041 585,538 L0,538 C53.5845457,430.693041 164.43942,357 292.5,357 Z" id="Combined-Shape" fill="#005E7D" fill-rule="nonzero" opacity="0.3"></path>
            <g id="data-bubble" transform="translate(568.000000, 0.000000)">
                <g id="Oval" opacity="0.3" fill="#005E7D" fill-rule="nonzero">
                    <circle id="path-1" cx="90.5273927" cy="90.6476241" r="90.2167449"></circle>
                </g>
                <g id="Combined-Shape-Clipped">
                    <mask id="mask-2" fill="white">
                        <use xlink:href="#path-1"></use>
                    </mask>
                    <g id="path-1"></g>
                    <path d="M184.676991,206.905485 C186.710679,206.905485 188.359308,208.554115 188.359308,210.587802 C188.359308,212.62149 186.710679,214.270118 184.676991,214.270118 C182.643305,214.270118 180.994676,212.62149 180.994676,210.587802 C180.994676,208.554115 182.643305,206.905485 184.676991,206.905485 Z M208.304726,206.905485 C210.338412,206.905485 211.987042,208.554115 211.987042,210.587802 C211.987042,212.62149 210.338412,214.270118 208.304726,214.270118 C206.271038,214.270118 204.62241,212.62149 204.62241,210.587802 C204.62241,208.554115 206.271038,206.905485 208.304726,206.905485 Z M113.793793,206.905485 C115.82748,206.905485 117.476109,208.554115 117.476109,210.587802 C117.476109,212.62149 115.82748,214.270118 113.793793,214.270118 C111.760106,214.270118 110.111476,212.62149 110.111476,210.587802 C110.111476,208.554115 111.760106,206.905485 113.793793,206.905485 Z M137.421526,206.905485 C139.455213,206.905485 141.103842,208.554115 141.103842,210.587802 C141.103842,212.62149 139.455213,214.270118 137.421526,214.270118 C135.387839,214.270118 133.73921,212.62149 133.73921,210.587802 C133.73921,208.554115 135.387839,206.905485 137.421526,206.905485 Z M161.049259,206.905485 C163.082946,206.905485 164.731575,208.554115 164.731575,210.587802 C164.731575,212.62149 163.082946,214.270118 161.049259,214.270118 C159.015572,214.270118 157.366943,212.62149 157.366943,210.587802 C157.366943,208.554115 159.015572,206.905485 161.049259,206.905485 Z M66.538326,206.905485 C68.5720131,206.905485 70.2206422,208.554115 70.2206422,210.587802 C70.2206422,212.62149 68.5720131,214.270118 66.538326,214.270118 C64.504639,214.270118 62.8560099,212.62149 62.8560099,210.587802 C62.8560099,208.554115 64.504639,206.905485 66.538326,206.905485 Z M90.1660593,206.905485 C92.1997464,206.905485 93.8483754,208.554115 93.8483754,210.587802 C93.8483754,212.62149 92.1997464,214.270118 90.1660593,214.270118 C88.1323723,214.270118 86.4837432,212.62149 86.4837432,210.587802 C86.4837432,208.554115 88.1323723,206.905485 90.1660593,206.905485 Z M19.2828597,206.905485 C21.3165467,206.905485 22.9651758,208.554115 22.9651758,210.587802 C22.9651758,212.62149 21.3165467,214.270118 19.2828597,214.270118 C17.2491726,214.270118 15.6005435,212.62149 15.6005435,210.587802 C15.6005435,208.554115 17.2491726,206.905485 19.2828597,206.905485 Z M42.9105928,206.905485 C44.9442798,206.905485 46.5929089,208.554115 46.5929089,210.587802 C46.5929089,212.62149 44.9442798,214.270118 42.9105928,214.270118 C40.8769057,214.270118 39.2282767,212.62149 39.2282767,210.587802 C39.2282767,208.554115 40.8769057,206.905485 42.9105928,206.905485 Z M90.1660593,180.700698 C92.1997464,180.700698 93.8483754,182.349327 93.8483754,184.383013 C93.8483754,186.416701 92.1997464,188.065329 90.1660593,188.065329 C88.1323723,188.065329 86.4837432,186.416701 86.4837432,184.383013 C86.4837432,182.349327 88.1323723,180.700698 90.1660593,180.700698 Z M19.2828597,180.700698 C21.3165467,180.700698 22.9651758,182.349327 22.9651758,184.383013 C22.9651758,186.416701 21.3165467,188.065329 19.2828597,188.065329 C17.2491726,188.065329 15.6005435,186.416701 15.6005435,184.383013 C15.6005435,182.349327 17.2491726,180.700698 19.2828597,180.700698 Z M42.9105928,180.700698 C44.9442798,180.700698 46.5929089,182.349327 46.5929089,184.383013 C46.5929089,186.416701 44.9442798,188.065329 42.9105928,188.065329 C40.8769057,188.065329 39.2282767,186.416701 39.2282767,184.383013 C39.2282767,182.349327 40.8769057,180.700698 42.9105928,180.700698 Z M184.676991,180.700698 C186.710679,180.700698 188.359308,182.349327 188.359308,184.383013 C188.359308,186.416701 186.710679,188.065329 184.676991,188.065329 C182.643305,188.065329 180.994676,186.416701 180.994676,184.383013 C180.994676,182.349327 182.643305,180.700698 184.676991,180.700698 Z M208.304726,180.700698 C210.338412,180.700698 211.987042,182.349327 211.987042,184.383013 C211.987042,186.416701 210.338412,188.065329 208.304726,188.065329 C206.271038,188.065329 204.62241,186.416701 204.62241,184.383013 C204.62241,182.349327 206.271038,180.700698 208.304726,180.700698 Z M113.793793,180.700698 C115.82748,180.700698 117.476109,182.349327 117.476109,184.383013 C117.476109,186.416701 115.82748,188.065329 113.793793,188.065329 C111.760106,188.065329 110.111476,186.416701 110.111476,184.383013 C110.111476,182.349327 111.760106,180.700698 113.793793,180.700698 Z M137.421526,180.700698 C139.455213,180.700698 141.103842,182.349327 141.103842,184.383013 C141.103842,186.416701 139.455213,188.065329 137.421526,188.065329 C135.387839,188.065329 133.73921,186.416701 133.73921,184.383013 C133.73921,182.349327 135.387839,180.700698 137.421526,180.700698 Z M161.049259,180.700698 C163.082946,180.700698 164.731575,182.349327 164.731575,184.383013 C164.731575,186.416701 163.082946,188.065329 161.049259,188.065329 C159.015572,188.065329 157.366943,186.416701 157.366943,184.383013 C157.366943,182.349327 159.015572,180.700698 161.049259,180.700698 Z M66.538326,180.700698 C68.5720131,180.700698 70.2206422,182.349327 70.2206422,184.383013 C70.2206422,186.416701 68.5720131,188.065329 66.538326,188.065329 C64.504639,188.065329 62.8560099,186.416701 62.8560099,184.383013 C62.8560099,182.349327 64.504639,180.700698 66.538326,180.700698 Z M184.676991,154.495909 C186.710679,154.495909 188.359308,156.144539 188.359308,158.178226 C188.359308,160.211913 186.710679,161.860542 184.676991,161.860542 C182.643305,161.860542 180.994676,160.211913 180.994676,158.178226 C180.994676,156.144539 182.643305,154.495909 184.676991,154.495909 Z M19.2828597,154.495909 C21.3165467,154.495909 22.9651758,156.144539 22.9651758,158.178226 C22.9651758,160.211913 21.3165467,161.860542 19.2828597,161.860542 C17.2491726,161.860542 15.6005435,160.211913 15.6005435,158.178226 C15.6005435,156.144539 17.2491726,154.495909 19.2828597,154.495909 Z M42.9105928,154.495909 C44.9442798,154.495909 46.5929089,156.144539 46.5929089,158.178226 C46.5929089,160.211913 44.9442798,161.860542 42.9105928,161.860542 C40.8769057,161.860542 39.2282767,160.211913 39.2282767,158.178226 C39.2282767,156.144539 40.8769057,154.495909 42.9105928,154.495909 Z M137.421526,154.495909 C139.455213,154.495909 141.103842,156.144539 141.103842,158.178226 C141.103842,160.211913 139.455213,161.860542 137.421526,161.860542 C135.387839,161.860542 133.73921,160.211913 133.73921,158.178226 C133.73921,156.144539 135.387839,154.495909 137.421526,154.495909 Z M161.049259,154.495909 C163.082946,154.495909 164.731575,156.144539 164.731575,158.178226 C164.731575,160.211913 163.082946,161.860542 161.049259,161.860542 C159.015572,161.860542 157.366943,160.211913 157.366943,158.178226 C157.366943,156.144539 159.015572,154.495909 161.049259,154.495909 Z M113.793793,154.495909 C115.82748,154.495909 117.476109,156.144539 117.476109,158.178226 C117.476109,160.211913 115.82748,161.860542 113.793793,161.860542 C111.760106,161.860542 110.111476,160.211913 110.111476,158.178226 C110.111476,156.144539 111.760106,154.495909 113.793793,154.495909 Z M66.538326,154.495909 C68.5720131,154.495909 70.2206422,156.144539 70.2206422,158.178226 C70.2206422,160.211913 68.5720131,161.860542 66.538326,161.860542 C64.504639,161.860542 62.8560099,160.211913 62.8560099,158.178226 C62.8560099,156.144539 64.504639,154.495909 66.538326,154.495909 Z M208.304726,154.495909 C210.338412,154.495909 211.987042,156.144539 211.987042,158.178226 C211.987042,160.211913 210.338412,161.860542 208.304726,161.860542 C206.271038,161.860542 204.62241,160.211913 204.62241,158.178226 C204.62241,156.144539 206.271038,154.495909 208.304726,154.495909 Z M90.1660593,154.495909 C92.1997464,154.495909 93.8483754,156.144539 93.8483754,158.178226 C93.8483754,160.211913 92.1997464,161.860542 90.1660593,161.860542 C88.1323723,161.860542 86.4837432,160.211913 86.4837432,158.178226 C86.4837432,156.144539 88.1323723,154.495909 90.1660593,154.495909 Z M184.676991,128.291121 C186.710679,128.291121 188.359308,129.93975 188.359308,131.973437 C188.359308,134.007124 186.710679,135.655753 184.676991,135.655753 C182.643305,135.655753 180.994676,134.007124 180.994676,131.973437 C180.994676,129.93975 182.643305,128.291121 184.676991,128.291121 Z M208.304726,128.291121 C210.338412,128.291121 211.987042,129.93975 211.987042,131.973437 C211.987042,134.007124 210.338412,135.655753 208.304726,135.655753 C206.271038,135.655753 204.62241,134.007124 204.62241,131.973437 C204.62241,129.93975 206.271038,128.291121 208.304726,128.291121 Z M113.793793,128.291121 C115.82748,128.291121 117.476109,129.93975 117.476109,131.973437 C117.476109,134.007124 115.82748,135.655753 113.793793,135.655753 C111.760106,135.655753 110.111476,134.007124 110.111476,131.973437 C110.111476,129.93975 111.760106,128.291121 113.793793,128.291121 Z M137.421526,128.291121 C139.455213,128.291121 141.103842,129.93975 141.103842,131.973437 C141.103842,134.007124 139.455213,135.655753 137.421526,135.655753 C135.387839,135.655753 133.73921,134.007124 133.73921,131.973437 C133.73921,129.93975 135.387839,128.291121 137.421526,128.291121 Z M161.049259,128.291121 C163.082946,128.291121 164.731575,129.93975 164.731575,131.973437 C164.731575,134.007124 163.082946,135.655753 161.049259,135.655753 C159.015572,135.655753 157.366943,134.007124 157.366943,131.973437 C157.366943,129.93975 159.015572,128.291121 161.049259,128.291121 Z M66.538326,128.291121 C68.5720131,128.291121 70.2206422,129.93975 70.2206422,131.973437 C70.2206422,134.007124 68.5720131,135.655753 66.538326,135.655753 C64.504639,135.655753 62.8560099,134.007124 62.8560099,131.973437 C62.8560099,129.93975 64.504639,128.291121 66.538326,128.291121 Z M90.1660593,128.291121 C92.1997464,128.291121 93.8483754,129.93975 93.8483754,131.973437 C93.8483754,134.007124 92.1997464,135.655753 90.1660593,135.655753 C88.1323723,135.655753 86.4837432,134.007124 86.4837432,131.973437 C86.4837432,129.93975 88.1323723,128.291121 90.1660593,128.291121 Z M19.2828597,128.291121 C21.3165467,128.291121 22.9651758,129.93975 22.9651758,131.973437 C22.9651758,134.007124 21.3165467,135.655753 19.2828597,135.655753 C17.2491726,135.655753 15.6005435,134.007124 15.6005435,131.973437 C15.6005435,129.93975 17.2491726,128.291121 19.2828597,128.291121 Z M42.9105928,128.291121 C44.9442798,128.291121 46.5929089,129.93975 46.5929089,131.973437 C46.5929089,134.007124 44.9442798,135.655753 42.9105928,135.655753 C40.8769057,135.655753 39.2282767,134.007124 39.2282767,131.973437 C39.2282767,129.93975 40.8769057,128.291121 42.9105928,128.291121 Z M184.676991,101.186174 C186.710679,101.186174 188.359308,102.834803 188.359308,104.86849 C188.359308,106.902177 186.710679,108.550806 184.676991,108.550806 C182.643305,108.550806 180.994676,106.902177 180.994676,104.86849 C180.994676,102.834803 182.643305,101.186174 184.676991,101.186174 Z M208.304726,101.186174 C210.338412,101.186174 211.987042,102.834803 211.987042,104.86849 C211.987042,106.902177 210.338412,108.550806 208.304726,108.550806 C206.271038,108.550806 204.62241,106.902177 204.62241,104.86849 C204.62241,102.834803 206.271038,101.186174 208.304726,101.186174 Z M113.793793,101.186174 C115.82748,101.186174 117.476109,102.834803 117.476109,104.86849 C117.476109,106.902177 115.82748,108.550806 113.793793,108.550806 C111.760106,108.550806 110.111476,106.902177 110.111476,104.86849 C110.111476,102.834803 111.760106,101.186174 113.793793,101.186174 Z M137.421526,101.186174 C139.455213,101.186174 141.103842,102.834803 141.103842,104.86849 C141.103842,106.902177 139.455213,108.550806 137.421526,108.550806 C135.387839,108.550806 133.73921,106.902177 133.73921,104.86849 C133.73921,102.834803 135.387839,101.186174 137.421526,101.186174 Z M161.049259,101.186174 C163.082946,101.186174 164.731575,102.834803 164.731575,104.86849 C164.731575,106.902177 163.082946,108.550806 161.049259,108.550806 C159.015572,108.550806 157.366943,106.902177 157.366943,104.86849 C157.366943,102.834803 159.015572,101.186174 161.049259,101.186174 Z M66.538326,101.186174 C68.5720131,101.186174 70.2206422,102.834803 70.2206422,104.86849 C70.2206422,106.902177 68.5720131,108.550806 66.538326,108.550806 C64.504639,108.550806 62.8560099,106.902177 62.8560099,104.86849 C62.8560099,102.834803 64.504639,101.186174 66.538326,101.186174 Z M90.1660593,101.186174 C92.1997464,101.186174 93.8483754,102.834803 93.8483754,104.86849 C93.8483754,106.902177 92.1997464,108.550806 90.1660593,108.550806 C88.1323723,108.550806 86.4837432,106.902177 86.4837432,104.86849 C86.4837432,102.834803 88.1323723,101.186174 90.1660593,101.186174 Z M19.2828597,101.186174 C21.3165467,101.186174 22.9651758,102.834803 22.9651758,104.86849 C22.9651758,106.902177 21.3165467,108.550806 19.2828597,108.550806 C17.2491726,108.550806 15.6005435,106.902177 15.6005435,104.86849 C15.6005435,102.834803 17.2491726,101.186174 19.2828597,101.186174 Z M42.9105928,101.186174 C44.9442798,101.186174 46.5929089,102.834803 46.5929089,104.86849 C46.5929089,106.902177 44.9442798,108.550806 42.9105928,108.550806 C40.8769057,108.550806 39.2282767,106.902177 39.2282767,104.86849 C39.2282767,102.834803 40.8769057,101.186174 42.9105928,101.186174 Z M184.676991,74.9813855 C186.710679,74.9813855 188.359308,76.6300146 188.359308,78.6637016 C188.359308,80.6973886 186.710679,82.3460177 184.676991,82.3460177 C182.643305,82.3460177 180.994676,80.6973886 180.994676,78.6637016 C180.994676,76.6300146 182.643305,74.9813855 184.676991,74.9813855 Z M208.304726,74.9813855 C210.338412,74.9813855 211.987042,76.6300146 211.987042,78.6637016 C211.987042,80.6973886 210.338412,82.3460177 208.304726,82.3460177 C206.271038,82.3460177 204.62241,80.6973886 204.62241,78.6637016 C204.62241,76.6300146 206.271038,74.9813855 208.304726,74.9813855 Z M113.793793,74.9813855 C115.82748,74.9813855 117.476109,76.6300146 117.476109,78.6637016 C117.476109,80.6973886 115.82748,82.3460177 113.793793,82.3460177 C111.760106,82.3460177 110.111476,80.6973886 110.111476,78.6637016 C110.111476,76.6300146 111.760106,74.9813855 113.793793,74.9813855 Z M137.421526,74.9813855 C139.455213,74.9813855 141.103842,76.6300146 141.103842,78.6637016 C141.103842,80.6973886 139.455213,82.3460177 137.421526,82.3460177 C135.387839,82.3460177 133.73921,80.6973886 133.73921,78.6637016 C133.73921,76.6300146 135.387839,74.9813855 137.421526,74.9813855 Z M161.049259,74.9813855 C163.082946,74.9813855 164.731575,76.6300146 164.731575,78.6637016 C164.731575,80.6973886 163.082946,82.3460177 161.049259,82.3460177 C159.015572,82.3460177 157.366943,80.6973886 157.366943,78.6637016 C157.366943,76.6300146 159.015572,74.9813855 161.049259,74.9813855 Z M66.538326,74.9813855 C68.5720131,74.9813855 70.2206422,76.6300146 70.2206422,78.6637016 C70.2206422,80.6973886 68.5720131,82.3460177 66.538326,82.3460177 C64.504639,82.3460177 62.8560099,80.6973886 62.8560099,78.6637016 C62.8560099,76.6300146 64.504639,74.9813855 66.538326,74.9813855 Z M90.1660593,74.9813855 C92.1997464,74.9813855 93.8483754,76.6300146 93.8483754,78.6637016 C93.8483754,80.6973886 92.1997464,82.3460177 90.1660593,82.3460177 C88.1323723,82.3460177 86.4837432,80.6973886 86.4837432,78.6637016 C86.4837432,76.6300146 88.1323723,74.9813855 90.1660593,74.9813855 Z M19.2828597,74.9813855 C21.3165467,74.9813855 22.9651758,76.6300146 22.9651758,78.6637016 C22.9651758,80.6973886 21.3165467,82.3460177 19.2828597,82.3460177 C17.2491726,82.3460177 15.6005435,80.6973886 15.6005435,78.6637016 C15.6005435,76.6300146 17.2491726,74.9813855 19.2828597,74.9813855 Z M42.9105928,74.9813855 C44.9442798,74.9813855 46.5929089,76.6300146 46.5929089,78.6637016 C46.5929089,80.6973886 44.9442798,82.3460177 42.9105928,82.3460177 C40.8769057,82.3460177 39.2282767,80.6973886 39.2282767,78.6637016 C39.2282767,76.6300146 40.8769057,74.9813855 42.9105928,74.9813855 Z M184.676991,48.7765971 C186.710679,48.7765971 188.359308,50.4252262 188.359308,52.4589132 C188.359308,54.4926002 186.710679,56.1412293 184.676991,56.1412293 C182.643305,56.1412293 180.994676,54.4926002 180.994676,52.4589132 C180.994676,50.4252262 182.643305,48.7765971 184.676991,48.7765971 Z M208.304726,48.7765971 C210.338412,48.7765971 211.987042,50.4252262 211.987042,52.4589132 C211.987042,54.4926002 210.338412,56.1412293 208.304726,56.1412293 C206.271038,56.1412293 204.62241,54.4926002 204.62241,52.4589132 C204.62241,50.4252262 206.271038,48.7765971 208.304726,48.7765971 Z M113.793793,48.7765971 C115.82748,48.7765971 117.476109,50.4252262 117.476109,52.4589132 C117.476109,54.4926002 115.82748,56.1412293 113.793793,56.1412293 C111.760106,56.1412293 110.111476,54.4926002 110.111476,52.4589132 C110.111476,50.4252262 111.760106,48.7765971 113.793793,48.7765971 Z M137.421526,48.7765971 C139.455213,48.7765971 141.103842,50.4252262 141.103842,52.4589132 C141.103842,54.4926002 139.455213,56.1412293 137.421526,56.1412293 C135.387839,56.1412293 133.73921,54.4926002 133.73921,52.4589132 C133.73921,50.4252262 135.387839,48.7765971 137.421526,48.7765971 Z M161.049259,48.7765971 C163.082946,48.7765971 164.731575,50.4252262 164.731575,52.4589132 C164.731575,54.4926002 163.082946,56.1412293 161.049259,56.1412293 C159.015572,56.1412293 157.366943,54.4926002 157.366943,52.4589132 C157.366943,50.4252262 159.015572,48.7765971 161.049259,48.7765971 Z M66.538326,48.7765971 C68.5720131,48.7765971 70.2206422,50.4252262 70.2206422,52.4589132 C70.2206422,54.4926002 68.5720131,56.1412293 66.538326,56.1412293 C64.504639,56.1412293 62.8560099,54.4926002 62.8560099,52.4589132 C62.8560099,50.4252262 64.504639,48.7765971 66.538326,48.7765971 Z M90.1660593,48.7765971 C92.1997464,48.7765971 93.8483754,50.4252262 93.8483754,52.4589132 C93.8483754,54.4926002 92.1997464,56.1412293 90.1660593,56.1412293 C88.1323723,56.1412293 86.4837432,54.4926002 86.4837432,52.4589132 C86.4837432,50.4252262 88.1323723,48.7765971 90.1660593,48.7765971 Z M19.2828597,48.7765971 C21.3165467,48.7765971 22.9651758,50.4252262 22.9651758,52.4589132 C22.9651758,54.4926002 21.3165467,56.1412293 19.2828597,56.1412293 C17.2491726,56.1412293 15.6005435,54.4926002 15.6005435,52.4589132 C15.6005435,50.4252262 17.2491726,48.7765971 19.2828597,48.7765971 Z M42.9105928,48.7765971 C44.9442798,48.7765971 46.5929089,50.4252262 46.5929089,52.4589132 C46.5929089,54.4926002 44.9442798,56.1412293 42.9105928,56.1412293 C40.8769057,56.1412293 39.2282767,54.4926002 39.2282767,52.4589132 C39.2282767,50.4252262 40.8769057,48.7765971 42.9105928,48.7765971 Z M184.676991,22.5718087 C186.710679,22.5718087 188.359308,24.2204378 188.359308,26.2541248 C188.359308,28.2878118 186.710679,29.9364409 184.676991,29.9364409 C182.643305,29.9364409 180.994676,28.2878118 180.994676,26.2541248 C180.994676,24.2204378 182.643305,22.5718087 184.676991,22.5718087 Z M208.304726,22.5718087 C210.338412,22.5718087 211.987042,24.2204378 211.987042,26.2541248 C211.987042,28.2878118 210.338412,29.9364409 208.304726,29.9364409 C206.271038,29.9364409 204.62241,28.2878118 204.62241,26.2541248 C204.62241,24.2204378 206.271038,22.5718087 208.304726,22.5718087 Z M113.793793,22.5718087 C115.82748,22.5718087 117.476109,24.2204378 117.476109,26.2541248 C117.476109,28.2878118 115.82748,29.9364409 113.793793,29.9364409 C111.760106,29.9364409 110.111476,28.2878118 110.111476,26.2541248 C110.111476,24.2204378 111.760106,22.5718087 113.793793,22.5718087 Z M137.421526,22.5718087 C139.455213,22.5718087 141.103842,24.2204378 141.103842,26.2541248 C141.103842,28.2878118 139.455213,29.9364409 137.421526,29.9364409 C135.387839,29.9364409 133.73921,28.2878118 133.73921,26.2541248 C133.73921,24.2204378 135.387839,22.5718087 137.421526,22.5718087 Z M161.049259,22.5718087 C163.082946,22.5718087 164.731575,24.2204378 164.731575,26.2541248 C164.731575,28.2878118 163.082946,29.9364409 161.049259,29.9364409 C159.015572,29.9364409 157.366943,28.2878118 157.366943,26.2541248 C157.366943,24.2204378 159.015572,22.5718087 161.049259,22.5718087 Z M66.538326,22.5718087 C68.5720131,22.5718087 70.2206422,24.2204378 70.2206422,26.2541248 C70.2206422,28.2878118 68.5720131,29.9364409 66.538326,29.9364409 C64.504639,29.9364409 62.8560099,28.2878118 62.8560099,26.2541248 C62.8560099,24.2204378 64.504639,22.5718087 66.538326,22.5718087 Z M90.1660593,22.5718087 C92.1997464,22.5718087 93.8483754,24.2204378 93.8483754,26.2541248 C93.8483754,28.2878118 92.1997464,29.9364409 90.1660593,29.9364409 C88.1323723,29.9364409 86.4837432,28.2878118 86.4837432,26.2541248 C86.4837432,24.2204378 88.1323723,22.5718087 90.1660593,22.5718087 Z M19.2828597,22.5718087 C21.3165467,22.5718087 22.9651758,24.2204378 22.9651758,26.2541248 C22.9651758,28.2878118 21.3165467,29.9364409 19.2828597,29.9364409 C17.2491726,29.9364409 15.6005435,28.2878118 15.6005435,26.2541248 C15.6005435,24.2204378 17.2491726,22.5718087 19.2828597,22.5718087 Z M42.9105928,22.5718087 C44.9442798,22.5718087 46.5929089,24.2204378 46.5929089,26.2541248 C46.5929089,28.2878118 44.9442798,29.9364409 42.9105928,29.9364409 C40.8769057,29.9364409 39.2282767,28.2878118 39.2282767,26.2541248 C39.2282767,24.2204378 40.8769057,22.5718087 42.9105928,22.5718087 Z" id="Combined-Shape" fill="#006D90" fill-rule="nonzero" mask="url(#mask-2)"></path>
                </g>
            </g>
            <g id="men-with-chart" transform="translate(505.000000, 197.000000)">
                <g id="chart" transform="translate(0.803172, 0.000000)">
                    <polyline id="Path" stroke="#008AB6" stroke-width="2" stroke-linecap="round" points="9.56631624 84.5058314 51.8667729 50.0028503 91.9733034 70.4751328 132.079834 7.6560741 178.138839 53.0920084"></polyline>
                    <path d="M10.2910637,74.1398919 C15.4945344,74.1398919 19.7127808,78.3473364 19.7127808,83.5374823 C19.7127808,88.7276281 15.4945344,92.9350726 10.2910637,92.9350726 C5.08759299,92.9350726 0.869346534,88.7276281 0.869346534,83.5374823 C0.869346534,78.3473364 5.08759299,74.1398919 10.2910637,74.1398919 Z M91.4796928,60.3601908 C96.6831636,60.3601908 100.90141,64.5676353 100.90141,69.7577812 C100.90141,74.9479269 96.6831636,79.1553716 91.4796928,79.1553716 C86.2762221,79.1553716 82.0579756,74.9479269 82.0579756,69.7577812 C82.0579756,64.5676353 86.2762221,60.3601908 91.4796928,60.3601908 Z M241.475208,43.0107933 C246.678679,43.0107933 250.896925,47.2182377 250.896925,52.4083836 C250.896925,57.5985293 246.678679,61.805974 241.475208,61.805974 C236.271737,61.805974 232.053491,57.5985293 232.053491,52.4083836 C232.053491,47.2182377 236.271737,43.0107933 241.475208,43.0107933 Z M53.0680766,41.5650101 C58.2715474,41.5650101 62.4897938,45.7724546 62.4897938,50.9626005 C62.4897938,56.1527462 58.2715474,60.3601908 53.0680766,60.3601908 C47.8646059,60.3601908 43.6463595,56.1527462 43.6463595,50.9626005 C43.6463595,45.7724546 47.8646059,41.5650101 53.0680766,41.5650101 Z M134.239794,0.0501022291 C139.443265,0.0501022291 143.661511,4.25754675 143.661511,9.44769259 C143.661511,14.6378384 139.443265,18.8452829 134.239794,18.8452829 C129.036323,18.8452829 124.818077,14.6378384 124.818077,9.44769259 C124.818077,4.25754675 129.036323,0.0501022291 134.239794,0.0501022291 Z" id="Combined-Shape" fill="#008AB6" fill-rule="nonzero"></path>
                </g>
                <path d="M55.5958326,183 C56.4986739,183 57.3645372,183.461493 58.0029424,184.282959 C58.6413476,185.104426 59,186.218572 59,187.380299 L58.9997219,342 L37,342 L37.0002781,187.380299 C37.0002781,184.961127 38.5243758,183 40.4044456,183 L55.5958326,183 Z M108.595875,222 C110.475922,222 112,223.96496 112,226.388859 L111.999444,342 L90,342 L90.0005562,226.388859 C90.0005562,223.96496 91.5246346,222 93.4046806,222 L108.595875,222 Z M161.595919,111 C163.475941,111 165,112.961028 165,115.380078 L164.999166,342 L143,342 L143.000834,115.380078 C143.000834,112.961028 144.524894,111 146.404916,111 L161.595919,111 Z M214.595962,199 C216.475961,199 218,200.627712 218,202.635594 L217.998889,342 L196,342 L196.001112,202.635594 C196.001112,200.627712 197.525152,199 199.405151,199 L214.595962,199 Z" id="Shape" fill="#006D90" fill-rule="nonzero" opacity="0.6"></path>
                <g id="men" transform="translate(174.904078, 42.700705)" fill-rule="nonzero">
                    <path d="M0.114300087,12.4142787 C0.245325584,13.6477197 0.736305384,14.8157079 1.52640163,15.7735165 C2.55017524,16.9284747 4.08230542,17.4566568 5.45910443,18.1468147 C9.0221843,19.9658498 11.7437281,23.0866013 13.0562107,26.8582973 C15.4073597,33.7035367 15.7109617,40.9431522 18.7046169,47.5489491 C21.6982722,54.1547459 25.214405,60.4999731 27.7985508,67.2677458 C29.2671365,71.1058687 30.4391807,75.0989251 32.5926356,78.5919691 C33.6351746,80.3098796 34.9653536,81.83674 36.5253384,83.1061651 C36.3629467,85.5850995 36.2994021,88.0358643 36.3135231,90.5147987 C37.2832525,90.495733 38.1949504,90.9743452 38.7282167,91.7824356 C39.2507072,92.5853344 39.6105031,93.4825209 39.787293,94.4233459 C40.7545826,98.4164023 39.5613567,102.670028 40.4297991,106.684212 C42.8157028,117.850165 42.0830354,129.455129 38.3116468,140.234336 C37.3443572,142.966798 36.1299499,152.009274 37.1607841,154.720609 C41.0017003,154.333275 44.404865,156.685447 47.9986635,158.241823 C48.2892381,160.366401 48.1158238,162.528529 47.4903069,164.580007 C46.1982339,168.291367 46.2052944,172.326678 46.226476,176.24931 L46.4029887,205.306365 C46.4029887,208.989555 46.4524123,212.722041 47.3773387,216.292553 C48.4293544,220.313779 50.6392933,224.412471 50.5686882,228.567503 C50.3780545,237.511387 54.6143592,246.032724 54.2754548,254.906182 C54.2119102,256.610449 53.9789135,258.300632 53.8165218,259.990814 C53.3995529,264.493349 53.5132977,269.02912 54.1554262,273.505232 C55.4404385,282.420946 58.8365427,291.188767 57.9892819,300.153778 C57.9327978,300.759427 57.728043,301.562263 57.1561419,301.794664 C57.8621926,302.590457 58.6106064,303.37921 59.3731414,304.132749 C59.2188419,304.389372 59.0089671,304.608334 58.7588772,304.77361 C57.9245758,305.208198 57.0025375,305.448951 56.0617632,305.477853 C54.9579972,305.506736 53.8862818,305.854092 52.9763213,306.477878 C52.3148772,307.110869 51.8660105,307.932505 51.6913089,308.830048 C51.1829857,310.624777 51.4929144,312.551718 52.5385699,314.097784 C53.1689921,314.889341 53.9933562,315.505426 54.9320819,315.88656 C58.1940365,317.295046 61.9361056,316.273894 65.3392704,315.245699 L78.669509,311.217431 C79.4825922,311.048975 80.2329168,310.658928 80.8370847,310.090642 C81.1135062,309.764936 81.2964772,309.370731 81.3666229,308.949769 C84.3108546,309.654013 87.5445671,308.787794 90.5452828,307.893405 L103.875521,303.858094 C104.689746,303.692841 105.440907,303.30236 106.043097,302.731306 C106.528853,302.142017 106.727933,301.368367 106.586756,300.618578 C106.685603,300.576324 106.784451,300.548154 106.883298,300.498857 C107.900011,300.041099 109.00145,299.14671 108.754332,298.069219 C108.57782,297.364976 107.871769,296.956515 107.568167,296.308612 C107.277555,295.451277 107.465786,294.504483 108.062402,293.822636 C108.58488,293.118393 109.290931,292.533872 109.771045,291.794416 C111.310236,289.442245 110.265281,286.35062 109.686319,283.597031 C108.436609,277.716604 109.594533,271.575607 108.803756,265.617714 C108.535457,263.610622 108.048282,261.638743 107.659954,259.645735 C106.837082,254.935107 106.292484,250.180314 106.028976,245.405947 C105.52062,238.588878 103.621343,231.870402 104.708661,225.109671 C105.236669,221.141737 105.4609,217.139452 105.37941,213.137545 C105.456229,210.58821 105.345317,208.036689 105.047566,205.503554 C104.772206,203.616182 104.285031,201.764024 104.073216,199.869612 C103.901367,197.740213 103.863637,195.602157 103.960248,193.468045 C104.057601,188.71071 103.617069,183.957588 102.646993,179.298681 C101.234892,172.897115 98.5801406,166.770202 97.4504595,160.354551 C97.8317268,160.43906 98.2129943,160.523569 98.5801406,160.622163 C98.6225037,155.692465 94.2944125,144.97389 92.6916773,140.297718 C92.4570678,139.724929 92.3141156,139.118937 92.2680467,138.501899 C92.3649501,137.688142 92.5135191,136.881337 92.7128588,136.086346 C92.9176135,134.382079 92.006808,132.762321 91.7596903,131.058053 C91.6634177,129.859225 91.7515157,128.652762 92.020929,127.4805 C93.1576708,121.177528 94.5697722,114.923852 95.9818738,108.677219 C96.5975539,106.414796 96.810244,104.062128 96.610259,101.726343 C96.2782371,99.2217308 97.050878,96.6965273 98.7284114,94.803637 C99.3487865,94.2327137 99.8774433,93.5700221 100.295844,92.8387997 C100.530653,92.2113137 100.63631,91.5430726 100.606506,90.8739625 C100.578464,87.9771288 100.150821,85.0979287 99.3356149,82.3174132 C100.578264,80.0708789 101.037197,77.3102472 101.397283,74.7045492 C102.18806,68.950886 102.978837,63.1690531 102.950595,57.3590504 C103.013503,54.259587 102.584574,51.1697013 101.679704,48.2038947 C101.018728,46.3722311 100.211231,44.5965176 99.2650099,42.8939046 C95.5511829,35.7599255 91.9997475,28.2526979 87.3115704,21.7173253 C85.8994689,19.7313607 86.7890928,16.9918566 86.8879399,14.5410918 C86.9938476,11.5832723 85.8218032,8.74517403 84.6709405,6.02679706 C84.0838022,4.35376504 83.1828627,2.80744794 82.0161896,1.47034653 C81.2187456,0.594917442 80.0951761,0.0855118282 78.9095662,0.0618610392 C77.564511,0.225780613 76.3566648,0.963017641 75.598188,2.08303771 C73.8735078,4.42629187 73.1592057,7.35985476 73.6141855,10.2311262 C74.0832393,13.0766345 75.3263279,15.7391423 77.2079838,17.9284994 C78.1168835,19.0301414 79.1578463,20.0164053 80.3075467,20.8651916 C81.474884,24.5648135 82.6516353,28.2620879 83.8378006,31.9570148 C85.7017746,37.8374416 87.5657487,43.7460383 90.1922575,49.309556 C90.9618529,50.9222718 91.8091137,52.5631573 91.9009004,54.3448916 C91.9997475,56.2674742 91.1948497,58.0985053 90.5523435,59.9084092 C89.1987626,63.6806877 88.4320562,67.6374016 88.2788599,71.6410932 C88.072449,71.7323802 87.8740619,71.8407425 87.6857773,71.9650449 C85.4617174,73.4157849 84.7627271,76.5778349 82.4468805,77.8736414 C81.0983236,78.6271812 79.4602857,78.5778843 77.9493371,78.9229632 C77.8151875,78.9229632 77.6810378,78.9933875 77.5398277,79.0356421 C77.4833436,78.753945 77.4268596,78.4792903 77.391557,78.1905507 C77.3698792,78.0104417 77.3698792,77.8283928 77.391557,77.6482838 C80.9916482,75.6739901 84.0158119,72.8007474 86.1677681,69.3100498 C86.6212059,68.6635906 86.9713356,67.9508699 87.2056627,67.1973215 C87.3962307,66.2943428 87.4320399,65.3656859 87.3115704,64.4507748 C87.1936358,61.3970993 86.7558569,58.3640975 86.0053764,55.4012556 C85.2521121,52.4240922 83.6038864,49.7479762 81.2818968,47.7320521 C80.1239735,46.8024518 78.7895376,46.1052515 77.6386748,45.1686085 C75.3934334,43.3587048 73.8542427,40.6825823 71.2842178,39.3374787 C67.9055759,37.6962198 63.8320618,38.7470686 61.6748669,41.8164132 C61.3329957,42.5034983 60.8522039,43.1125402 60.2627653,43.6051897 C59.8132025,43.8173326 59.3748724,44.0523905 58.9495108,44.3094324 C58.1728551,44.929166 58.130492,46.1193363 58.3846703,47.0841489 C58.866454,49.0666102 59.1362598,51.0944143 59.1895682,53.1335939 C54.4834964,58.6421728 54.465571,66.7386124 59.1472051,72.2678692 C59.1472051,73.5777607 59.1472051,74.8876522 59.0977815,76.1975438 C59.0977815,76.4440287 59.0977815,76.6975561 59.048358,76.9440411 C58.2341093,76.6610521 57.5052694,76.1764032 56.9302056,75.5355555 C56.1394287,74.5496157 55.9982187,73.0988757 55.0309291,72.2889966 C54.3353391,71.8315654 53.5423984,71.5422081 52.7150826,71.4439053 C50.6588849,70.9779672 48.7305537,70.0667597 47.0666763,68.7748252 C45.7604825,67.7677582 44.404865,66.4789939 42.8797954,66.183212 C40.2482412,61.2596731 37.176207,56.5832822 33.7011353,52.211036 C32.8198157,51.1760277 32.0173843,50.0766869 31.3005627,48.9222224 C29.7825536,46.2813121 29.3306811,43.1756017 28.370452,40.281164 C25.687459,32.1682877 18.9940977,25.6610847 17.3631204,17.2665111 C16.7700378,14.2241826 14.8354586,11.5762298 13.5080832,8.77334374 C12.6113987,6.87893078 11.6229277,4.87888139 9.82955871,3.79434756 C7.52077269,2.38586208 4.32942319,3.03376541 2.4089651,4.92817838 C0.525101672,6.93562674 -0.32202182,9.69927695 0.114300087,12.4142787 L0.114300087,12.4142787 Z M83.9437081,297.414273 C83.1094069,297.848861 82.1873684,298.089614 81.2465943,298.118516 C80.7721081,298.16776 80.3006959,298.242993 79.8344927,298.343874 C79.65798,296.864964 79.5591329,295.364928 79.4461647,293.907145 C79.0719579,289.125337 78.3235441,284.37874 77.5821908,279.639187 C76.8055349,274.709488 76.4383885,269.314988 74.7579877,264.582477 C72.0538131,256.878061 69.3143362,248.941246 69.6603011,240.779072 C69.7379666,238.926914 69.9709634,237.08884 70.0698105,235.243725 C70.2957468,230.673189 69.6532406,226.00406 70.7758613,221.560288 C71.2771574,219.539111 72.1314788,217.609486 72.4562621,215.553097 C72.6634195,213.696012 72.6870683,211.823111 72.5268673,209.961411 C72.2182885,203.498848 72.7570887,197.023762 74.1296025,190.700371 C75.4428568,192.411681 75.8735479,194.623003 76.2477547,196.742773 L78.8954452,211.06707 C80.4699384,219.56728 81.8608584,228.581588 86.0336185,236.145155 C85.4475964,238.870574 84.8686348,241.779097 85.8359242,244.384796 C86.2524943,245.511584 86.9373635,246.497523 87.3609939,247.638396 C88.0670447,249.53281 87.9681977,251.617368 88.1800128,253.62446 C88.6389458,257.849916 90.3899518,262.004948 89.1049393,266.082515 C87.7831653,270.28705 86.9237906,274.622508 86.5419751,279.012411 C86.4717665,280.233231 86.3303166,281.448935 86.1183445,282.653345 C85.8924083,283.737879 85.5252619,284.766074 85.3205071,285.878777 C85.0381952,287.440282 85.1081405,289.044904 85.5252619,290.576076 C85.8422741,291.424705 86.0371967,292.313835 86.1042235,293.216987 C86.1042235,294.118417 84.9957239,294.766321 84.1060998,294.90717 C84.3673387,295.245205 84.649759,295.569158 84.9392398,295.886067 C84.7692867,296.483855 84.422294,297.016512 83.9437081,297.414273 L83.9437081,297.414273 Z" id="Shape" fill="url(#linearGradient-3)"></path>
                    <path d="M85.3558097,295.491691 C86.513733,294.188842 88.1800128,294.59026 89.8745347,294.59026 C94.4285621,294.674769 99.1026182,295.139569 103.254197,297.153704 C104.384413,297.629912 105.361475,298.407123 106.0784,299.400239 C106.795856,300.433042 106.773131,301.807175 106.021916,302.815816 C105.417344,303.382149 104.666914,303.769813 103.85434,303.935562 L103.85434,303.935562 L90.5241014,307.942703 C87.5424071,308.837388 84.3059745,309.732074 81.3514089,308.992647 C81.2650339,309.3947 81.0933976,309.781509 80.8370847,310.125854 C80.2325127,310.692189 79.4820829,311.079853 78.669509,311.2456 L78.669509,311.2456 L65.3392704,315.245699 C61.9361056,316.266852 58.1940365,317.295046 54.9320819,315.88656 C53.993834,315.507963 53.1694159,314.894264 52.5385699,314.104826 C51.4945644,312.573976 51.1842955,310.660392 51.6913089,308.879345 C51.8629458,307.984755 52.3125255,307.166743 52.9763213,306.541259 C53.8862818,305.917473 54.9579972,305.570118 56.0617632,305.541234 C57.0032969,305.513935 57.92697,305.278196 58.7659377,304.851077 C59.6838037,304.25247 59.5708355,303.498931 60.1780393,302.794689 C61.328902,301.491839 63.0022423,301.9003 64.6967641,301.9003 C68.7438727,301.975402 72.8857758,302.345283 76.6665716,303.840328 C76.5953056,303.086232 76.6641282,302.316194 76.8761399,301.569305 C77.0495878,300.675366 77.4988806,299.857875 78.1611524,299.231219 C79.0725408,298.610326 80.1433782,298.263257 81.2465943,298.231196 C82.1867443,298.2101 83.109487,297.973981 83.9437081,297.541037 C84.8615741,296.94243 84.748606,296.195933 85.3558097,295.491691 Z" id="Combined-Shape" fill="#005E7D"></path>
                    <path d="M69.6603011,153.931858 C77.5159793,153.144531 85.418355,152.923294 93.3059414,153.26987 C93.8264177,153.264554 94.3441675,153.345468 94.8380716,153.509312 C96.5749564,154.213554 96.8432558,156.481216 97.0056475,158.333374 C97.7116982,165.854688 101.001895,172.861903 102.654054,180.228282 C103.624285,184.858609 104.064852,189.583761 103.967308,194.313136 C103.871873,196.426139 103.909604,198.543036 104.080276,200.65132 C104.292091,202.53165 104.786327,204.376765 105.054626,206.250051 C105.352503,208.766669 105.46342,211.301811 105.38647,213.834745 C105.467245,217.806208 105.243006,221.77801 104.715722,225.71532 C103.628404,232.426754 105.52768,239.095932 106.036037,245.884832 C106.289385,250.633037 106.824568,255.362096 107.638772,260.047154 C108.0271,262.026075 108.514275,263.983871 108.782574,265.976877 C109.573351,271.89956 108.415428,277.998301 109.665138,283.843517 C110.244099,286.575977 111.289054,289.646477 109.749864,291.984562 C109.269749,292.688805 108.563699,293.287411 108.041221,293.998696 C107.444373,294.674832 107.255831,295.617811 107.546985,296.470589 C107.850587,297.11145 108.556638,297.533994 108.733151,298.217111 C109.008511,299.294601 107.878829,300.174905 106.862116,300.632663 C99.2014653,304.083453 89.323815,301.653815 84.1555234,295.040975 C85.0451474,294.900127 86.1324656,294.259267 86.1536471,293.357835 C86.0857715,292.461669 85.8908441,291.579629 85.5746855,290.738053 C85.1588518,289.21868 85.0888935,287.625788 85.3699307,286.075965 C85.5746855,284.991432 85.9418318,283.963238 86.1677681,282.871661 C86.3797332,281.674346 86.5211858,280.465673 86.5913986,279.251853 C86.973292,274.889611 87.832731,270.582166 89.1543629,266.406466 C90.4393754,262.35707 88.6883694,258.258377 88.2294364,254.03292 C88.0176211,252.032871 88.1094077,249.96944 87.4104175,248.082069 C86.986787,246.969366 86.3019178,245.969341 85.8853478,244.856637 C84.9180582,242.257982 85.49702,239.370587 86.0830421,236.666294 C81.910282,229.152025 80.519362,220.194056 78.9448687,211.750187 L76.2971783,197.524483 C75.9017898,195.411755 75.4710989,193.22156 74.1790259,191.517292 C72.8065738,197.797791 72.2677135,204.230983 72.5762908,210.651568 C72.7364136,212.50152 72.7127637,214.362733 72.5056856,216.208042 C72.1809024,218.250347 71.3265809,220.172929 70.8252848,222.172979 C69.7309062,226.588582 70.3734123,231.222499 70.1192341,235.764865 C70.020387,237.602938 69.7873902,239.426926 69.7097247,241.265 C69.3637598,249.377876 72.1032367,257.265395 74.8074111,264.920513 C76.4666305,269.617813 76.833777,274.955973 77.6316144,279.871587 C78.3376651,284.582971 79.1213815,289.294355 79.4955883,294.047993 C79.8415532,298.414298 79.9968844,303.139767 82.7222403,306.569429 C80.2298812,308.182145 77.6598563,309.823031 74.7438666,310.379383 C71.3456964,310.909671 67.8686197,310.236964 64.9156399,308.477926 C61.97938,306.726743 59.3548679,304.501621 57.1490814,301.893257 C57.7209825,301.69607 57.9257373,300.865063 57.9822214,300.266456 C58.8294822,291.350744 55.433378,282.660387 54.1483657,273.78693 C53.5060123,269.34155 53.3922563,264.836057 53.8094613,260.364064 C53.971853,258.680923 54.2048497,256.997783 54.2683943,255.3076 C54.6072987,246.497523 50.3498125,238.011399 50.5051436,229.194279 C50.5757488,225.060374 48.3869913,220.989852 47.3137942,216.996795 C46.3888677,213.475582 46.3606256,209.743094 46.3394441,206.081033 L46.1629314,177.20708 C46.1629314,173.305576 46.1629314,169.305477 47.4267623,165.622287 C48.980074,161.185557 47.2008261,156.093883 46.9325267,151.403626 C54.2693278,153.722944 61.9914848,154.581954 69.6603011,153.931858 L69.6603011,153.931858 Z" id="Path" fill="#008AB6"></path>
                    <path d="M70.2392627,49.7602713 C78.3305399,49.7602713 84.8898162,56.3027507 84.8898162,64.3733082 C84.8898162,69.6906664 82.0424672,74.3446936 77.7856068,76.9012343 C77.5088244,77.9386391 77.2312431,79.006475 77.3350729,79.761012 C77.6880984,82.4019223 79.1072604,84.768178 80.4911199,87.0499243 C81.3242598,88.4584099 82.3903964,89.9584469 84.0213738,90.1133803 C79.7766067,92.335352 75.3176063,94.1238227 70.7123167,95.4515403 C69.1470519,95.9760947 67.5059226,96.2401919 65.8546875,96.2335115 C64.4554291,96.1291258 63.0857183,95.7786338 61.8090165,95.198013 C56.1514072,92.7405466 51.9376829,87.8289029 50.3780545,81.8737402 C52.2020991,81.9222075 54.0262935,81.7829704 55.821706,81.4582371 C56.8469754,81.3796959 57.8026307,80.910657 58.4905778,80.1483455 C58.8997031,79.4344413 59.0910976,78.6169787 59.0412975,77.7961748 C59.0792834,76.4852266 59.0988764,75.1722399 59.0967778,73.8594082 C56.9085708,71.3063475 55.5887092,67.9935682 55.5887092,64.3733082 C55.5887092,56.3027507 62.1479854,49.7602713 70.2392627,49.7602713 Z M2.38778357,6.98456718 C4.30824166,5.09762671 7.49959116,4.44929332 9.80837718,5.85777879 C11.6017461,6.92118533 12.5902172,8.90714987 13.4869017,10.787478 C14.8142771,13.6044489 16.7488563,16.2101471 17.3419389,19.2383909 C18.9729161,27.5695825 25.6662775,34.0415733 28.3492705,42.0981103 C29.3094994,44.9714206 29.7613719,48.0560039 31.2793812,50.6828293 C31.9963842,51.8304954 32.7988343,52.9227993 33.6799537,53.9505156 C37.8969834,59.2125805 41.5219224,64.9206416 44.4895911,70.9720627 C45.767543,73.5988881 44.2001103,76.8665744 43.3175468,79.6412907 C42.5278673,82.0696321 42.1391778,84.609861 42.166684,87.1626032 C38.1068922,86.6344212 34.7460904,83.6836441 32.5926356,80.1624304 C30.4391807,76.6412167 29.2671365,72.7044998 27.7985508,68.8945466 C25.214405,62.1831132 21.6982722,55.8871832 18.7046169,49.3236408 C15.7109617,42.7600984 15.4073597,35.5627376 13.0562107,28.7667951 C11.7389698,25.0117119 9.01669622,21.9103116 5.45910443,20.1116519 C4.08230542,19.421494 2.55017524,18.9003544 1.52640163,17.7524387 C0.737592,16.8019962 0.24650829,15.6411082 0.114300087,14.4143281 C-0.324714157,11.7200402 0.51521765,8.97513682 2.38778357,6.98456718 Z M78.8530821,2.14641956 C80.038127,2.17254607 81.160763,2.68152847 81.9597055,3.55490504 C83.1243566,4.880219 84.0253219,6.4146299 84.6144564,8.07614344 C85.7653192,10.7804356 86.9373635,13.5974065 86.8314559,16.5270564 C86.7326087,18.9637362 85.8218032,21.6821133 87.2550863,23.6610353 C91.9432635,30.1541533 95.4946989,37.612084 99.2085258,44.7038083 C100.155861,46.3936627 100.963436,48.1577702 101.623219,49.9785865 C102.530201,52.9294387 102.959227,56.0057595 102.894111,59.0914875 C102.894111,64.8592356 102.131576,70.6058563 101.340799,76.3243074 C100.839503,79.908903 100.182876,83.8104078 97.4645805,86.1837058 C94.6403774,82.5779829 91.8020532,79.0567693 88.2011944,76.2397984 C88.01974,71.2601993 88.7987356,66.2921753 90.4958594,61.6056341 C91.1454261,59.8098152 91.9079609,57.9858265 91.8444163,56.0773287 C91.7526297,54.302637 90.9053688,52.6758361 90.1357734,51.0701627 C87.4810225,45.5418573 85.6170486,39.6825577 83.7813166,33.8373429 L80.2510626,22.815944 C79.1000655,21.9740746 78.0588404,20.9922935 77.1514997,19.8933366 C75.2696665,17.7231419 74.025929,15.0763048 73.5577014,12.2452605 C73.1026162,9.39391199 73.8177227,6.47989035 75.541704,4.16055379 C76.3029222,3.0445717 77.5098669,2.31045176 78.8530821,2.14641956 Z" id="Combined-Shape" fill="#F7A17D"></path>
                    <path d="M70.8958899,88.641513 C71.2252638,84.6927296 74.0531233,81.3982252 77.9140345,80.4652547 C79.4249833,80.1272183 81.063021,80.1694728 82.411578,79.4229755 C84.7274245,78.1342113 85.4264148,74.9932887 87.6504747,73.5495911 C89.8745347,72.1058935 93.0305817,72.9087302 94.9651607,74.7327188 C96.8997398,76.5567075 97.8811504,79.1553633 98.6719273,81.6976796 C99.8524841,85.135226 100.493142,88.7341553 100.571204,92.3669571 C100.600652,93.0314536 100.494977,93.6950221 100.260542,94.3177094 C99.8418725,95.0445747 99.3131627,95.7025819 98.6931088,96.2684618 C97.0166226,98.1450787 96.243253,100.657236 96.5749564,103.148913 C96.7756018,105.468402 96.5628552,107.805004 95.9465712,110.050492 C94.5344698,116.261913 93.1223682,122.466292 91.9856264,128.734052 C91.7188988,129.887615 91.6307987,131.075108 91.7243877,132.255266 C91.9432635,133.952491 92.8823109,135.558164 92.6775563,137.255389 C92.4776001,138.045491 92.32902,138.84765 92.2327443,139.656857 C92.2788798,140.269334 92.4218567,140.870676 92.6563747,141.438591 C94.25911,146.079551 98.5872011,156.713617 98.5448382,161.62923 C91.0253975,159.706648 79.9404003,159.27706 72.1738419,159.241848 C70.0380176,159.219554 67.902566,159.313592 65.7770218,159.523546 C60.6722747,160.072853 55.447499,161.558806 50.4980831,160.185533 C45.9016926,158.910853 41.8348401,155.255834 37.0831185,155.713592 C36.0522844,153.023384 37.2666917,144.044289 38.2339813,141.325912 C42.0050037,130.622086 42.7380175,119.087185 40.3521336,107.994104 C39.483691,104.00809 40.6769169,99.7755907 39.7096273,95.8177465 C39.5328375,94.8813026 39.1729715,93.9887274 38.6505512,93.1909212 C38.1156278,92.3855138 37.2042231,91.9097135 36.2358576,91.9303267 C36.147861,85.5640099 36.7395705,79.2064369 38.0009845,72.9650696 C38.466978,70.746705 39.413086,68.1269219 41.69363,67.7466308 C43.7129352,67.4015519 45.4074571,69.1058193 47.0313739,70.352329 C48.6964339,71.6379095 50.6249054,72.54197 52.67978,73.0002817 C53.5070959,73.0985845 54.3000365,73.3879418 54.9956266,73.845373 C55.9629161,74.6482097 56.1041263,76.0919073 56.8949032,77.0708047 C58.3070047,78.8243692 61.4630516,78.6764782 62.4656438,80.6976549 C62.6848409,81.2997009 62.8617808,81.9162279 62.9951818,82.5427709 C63.4694431,83.7437711 64.277817,84.784636 65.3251493,85.5428449 C66.8978536,87.0176115 68.8114506,88.0820305 70.8958899,88.641513 Z" id="Path" fill="#00A2A2"></path>
                    <path d="M58.3352468,48.8377132 C58.0810684,47.8729008 58.1234315,46.7249851 58.9000873,46.0770817 C59.2884152,45.7742573 59.7967718,45.6615785 60.2133417,45.372839 C60.8004253,44.8807009 61.2808871,44.2744732 61.6254433,43.5911049 C63.8010243,40.5544306 67.8563613,39.5275663 71.2206733,41.1614675 C73.7695165,42.4924862 75.3087072,45.1545237 77.5751303,46.9503428 C78.725993,47.8799432 80.060429,48.5701011 81.2183522,49.4997014 C83.5374043,51.4977889 85.1860707,54.1574137 85.9418318,57.1196079 C86.6922564,60.0609518 87.1300684,63.0729385 87.2480258,66.1057453 C87.3685293,67.0159567 87.3327144,67.9399919 87.1421182,68.8382072 C86.9074731,69.5916295 86.5573667,70.3043028 86.1042235,70.9509353 C83.7742561,74.4721491 80.7029351,77.6694111 76.8549584,79.4863573 C73.0069817,81.3033036 68.3258652,81.5990855 64.5273119,79.6976302 C64.1451558,79.5436162 63.8163522,79.2817363 63.5812039,78.9440905 C63.3652912,78.4299205 63.3135173,77.861866 63.4329332,77.3172898 C63.6388354,75.1648618 63.2119519,72.9992039 62.2044049,71.0847415 C61.4983542,69.676256 60.439278,68.4649585 59.8744373,67.007176 C59.349204,65.3754239 59.124352,63.6623345 59.2107497,61.9507131 C59.1472051,57.5210263 59.4508069,53.1054243 58.3352468,48.8377132 Z" id="Path" fill="#D45925"></path>
                </g>
            </g>
            <g id="Men-Left" transform="translate(97.000000, 270.000000)">
                <path d="M5.35605764,253.906654 L0,270.648219 C0,270.648219 14.6664676,283.253037 24.1954921,280.64415 C25.6307564,280.244285 27.0932432,279.979117 28.567784,279.851394 C30.5417453,279.685636 33.9367014,278.078504 31.8405731,276.024544 C25.0763803,269.394223 16.0617431,257.077677 16.0617431,257.077677 L5.35605764,253.906654 Z" id="Path" fill="#005E7D" fill-rule="nonzero"></path>
                <path d="M94.7130045,257.391623 L92.0843319,271.992659 C92.0843319,271.992659 105.534595,271.417763 128.338662,278.290377 C128.338662,278.290377 137.112023,274.566622 129.799777,269.987059 C129.799777,269.987059 121.319973,270.561954 116.055956,261.68374 C110.79194,252.805526 107.576153,253.955317 107.576153,253.955317 L94.7130045,257.391623 Z" id="Path" fill="#005E7D" fill-rule="nonzero"></path>
                <path d="M25.6336181,148.652835 L28.1700387,193.467993 C28.4417656,198.244388 26.8619332,202.941223 23.7608723,206.576426 C22.3589372,208.245516 20.7616182,209.739131 19.003441,211.024989 C12.9580863,215.354924 0,260.987299 0,260.987299 C0,260.987299 14.6862693,261.85065 18.7143154,264.743863 C18.7143154,264.743863 19.5751213,253.19078 21.8815555,252.037448 C24.1879898,250.884117 41.1741222,217.107988 41.1741222,217.107988 L58.1733968,173.182543 C58.1733968,173.182543 71.7097345,196.578692 83.2287636,200.618647 L83.2287636,210.438438 C83.2287636,210.438438 89.5632439,239.317852 91.8696782,242.494457 C94.1761123,245.671059 91.8696782,258.377475 91.8696782,258.377475 C91.8696782,258.377475 98.493284,266.753955 113.751234,257.797515 C113.751234,257.797515 108.855811,252.307657 109.151507,245.664469 C109.447204,239.021281 102.527901,202.635329 102.527901,202.635329 C102.527901,202.635329 103.388707,188.795353 96.4825465,180.109121 C89.5763859,171.422889 78.0507857,138.253083 78.0507857,138.253083 L70.1261143,121.150828 L25.6336181,148.652835 Z" id="Path" fill="#8F791D" fill-rule="nonzero"></path>
                <path d="M63.0482292,99.4450025 L63.6209555,104.895012 L54.7827489,104.319261 L45.9054927,96.5597033 L37.0672861,71.6322877 L31.366057,62.7473979 L27.083627,57.3039308 L28.7952974,50.708961 C28.7952974,50.708961 29.5762877,51.3632239 30.8974629,52.4100445 C35.2384672,55.7533277 45.4303902,62.6950568 52.8758309,60.7780666 C53.2203328,60.6917106 53.5593711,60.5846553 53.8911183,60.4574778 L65.0007049,79.6600932 L63.0482292,99.4450025 Z" id="Path" fill="#F5F5F5" fill-rule="nonzero"></path>
                <path d="M30.9564092,47.9996585 L29.7972996,54.509145 C29.7972996,54.509145 36.5201352,67.3784 42.302436,70.5159725 C48.0847369,73.6535451 61.1462459,101.331882 61.1462459,101.331882 C61.1462459,101.331882 59.9805128,80.5470914 60.5633793,77.9432967 C61.1462459,75.3395021 49.1214739,52.7378259 49.1214739,50.6512479 C53.2541074,52.1565461 53.7396349,53.477645 55.1895023,53.9933951 C56.6393697,54.509145 61.0354345,56.1368265 62.2923422,57.1716662 C63.54925,58.206506 66.2867805,60.9621101 66.7516191,62.9811887 C67.3344857,70.395494 82.0168415,81.9336121 82.0168415,81.9336121 C83.1684009,83.7276856 85.8057778,85.1807162 89.1727686,86.3541745 C88.6723334,91.5233807 88.3335213,96.7401281 88.15932,101.998568 C76.7325841,100.532516 67.2133565,90.45453 67.2133565,90.45453 C64.4597836,93.9762725 67.4584311,106.746071 67.7704975,108.03559 L67.7962231,108.140805 C68.39896,123.54225 79.7184928,135.526215 79.7184928,135.526215 L79.7184928,135.526215 L81.7519022,146.650927 C78.26795,146.084602 68.6903932,126.113498 68.6903932,126.113498 C68.6903932,126.113498 70.1475596,148.13509 59.9805128,153.837401 C49.813466,159.539711 19.3454432,153.837401 19.3454432,153.837401 C19.3454432,153.837401 17.603467,131.893922 19.3454432,127.877568 C21.0874192,123.861215 19.9283096,110.191293 19.9283096,110.191293 C19.9283096,110.191293 15.2852479,104.176528 8.90021001,90.5066058 C4.83339131,81.7838938 5.11820108,75.7300714 5.86665469,72.475328 C6.23607156,70.8730028 7.24892866,69.4855121 8.67501158,68.6282214 C12.3775387,66.3954676 20.6635162,60.9665557 23.1208286,55.700381 C26.319971,48.8524012 30.9564092,47.9996585 30.9564092,47.9996585 L30.9564092,47.9996585 Z" id="Combined-Shape" fill="url(#linearGradient-4)" fill-rule="nonzero"></path>
                <g id="Head" transform="translate(43.943565, 33.177710) rotate(10.000000) translate(-43.943565, -33.177710) translate(21.443565, 3.677710)">
                    <g id="Path" transform="translate(11.565217, 35.707692)" fill="#F8B79D" fill-rule="nonzero">
                        <path d="M0.498259765,0.125374218 C0.644653631,7.1384905 0.714006655,12.8490285 0.706318835,17.2569885 C3.97131263,22.7198693 17.0492609,24.8351299 25.0601994,19.2592074 C22.5749655,15.859738 20.2543883,12.9255629 17.5036203,6.34395029 C15.5723755,1.72316612 11.8312884,6.60837374 0.498259765,0.125374218 Z" id="path-5"></path>
                    </g>
                    <g id="Path-Clipped" transform="translate(11.565217, 35.707692)">
                        <mask id="mask-6" fill="white">
                            <use xlink:href="#path-5"></use>
                        </mask>
                        <g id="path-5"></g>
                        <path d="M1.86224301,2.34471393 L3.20504022,-1.87175412 C13.3631701,3.38496175 18.6156665,1.1492656 18.6156665,1.1492656 L22.0981327,8.23694297 C20.6115771,9.2769662 21.4004807,12.0659715 15.5137205,11.6414723 C10.657639,11.3018728 4.69421172,7.49337202 1.86224301,2.34471393 Z" id="Path" fill="#F79E7A" fill-rule="nonzero" mask="url(#mask-6)"></path>
                    </g>
                    <g id="Group-8" transform="translate(0.212988, 0.073684)" fill-rule="nonzero">
                        <path d="M6.43862111,19.4502499 C5.67536341,27.5680472 12.2084896,43.3178066 21.0700045,44.3181831 C29.9315193,45.3185596 35.3178161,29.2308079 36.0810739,21.1130108 C36.8443314,12.9952136 32.7126982,7.55521521 23.8276467,6.54280416 C19.57231,6.06512885 15.3485766,7.15709208 12.0869226,9.57813755 C8.82526867,11.999183 6.79328839,15.5506821 6.43862111,19.4502499 Z" id="Path" fill="#F8B79D" transform="translate(21.274205, 25.397836) rotate(-10.000000) translate(-21.274205, -25.397836) "></path>
                        <path d="M14.9753198,5.60721527 C15.5157461,5.57077786 15.7416084,5.19856957 16.4773035,4.77602749 C19.3405094,3.11966273 22.9485688,3.37652668 26.0661725,4.31358238 C33.8502552,6.66655034 34.763774,12.5395831 36.9960979,12.0655704 C39.2284218,11.5915576 42.4904266,15.5892641 39.2845415,18.8238458 C36.0786564,22.0584276 31.6938948,22.2733079 26.9515439,18.826226 C23.9107245,16.6268241 19.5487,14.5119427 15.7297517,14.7358313 C15.1300713,14.6910699 14.5460156,14.9001021 14.1219883,15.311246 C13.4476518,16.208904 13.3733228,18.2036433 13.225585,19.2981032 C12.9222757,21.9830303 12.8132919,24.6911611 12.8994683,27.4017555 C12.470348,27.3615722 12.2270572,26.8928431 12.0981668,26.478197 C11.7761045,25.4904085 11.609286,24.4586748 11.3283945,23.4705104 C10.9872902,22.3490133 10.3065546,20.5454551 8.86087087,21.1351403 C8.11658985,21.5128456 7.56522233,22.1772537 7.33173084,22.9777821 C6.66278018,24.6897112 6.52678855,27.3071731 7.8188963,28.8436832 C8.85762713,30.0722151 8.89476781,32.03916 8.94361597,33.5366219 C8.96380376,34.0121138 9.23640187,35.2996207 8.99198856,35.6845992 C8.55067745,36.3659171 7.4633086,36.0797316 6.97136436,35.5234934 C6.44377638,34.7579777 6.17007728,33.8521072 6.1897209,32.9364633 C5.80112393,28.5029758 4.90911731,24.1142929 3.53078055,19.854446 C3.16965929,18.880873 2.90299202,17.87742 2.73448341,16.858027 C2.58090287,14.6208148 3.10952489,12.4074507 4.2511684,10.5075991 C5.19863836,8.49207561 6.71252472,6.80237024 8.61500995,5.63695186 C10.7269006,4.4977771 12.2772414,5.01757256 14.3893266,5.52121204 C14.5797825,5.57982839 14.7774822,5.60884375 14.9753198,5.60721527 L14.9753198,5.60721527 Z" id="Path" fill="#D45925" transform="translate(21.667198, 19.826771) rotate(-10.000000) translate(-21.667198, -19.826771) "></path>
                    </g>
                </g>
                <path d="M27.248843,77.8019867 C27.248843,77.8019867 34.362546,100.123342 38.507698,102.877357 C42.65285,105.631372 67.8415797,119.684395 75.252814,116.377062 C75.252814,116.377062 77.0312397,124.645395 74.3669821,126.569433 C74.3669821,126.569433 46.7371433,125.5634 46.5139949,125.469084 C46.5139949,125.469084 28.4389682,123.262099 25.4771793,115.000054 C22.5153905,106.738009 18.9585389,92.6786985 18.9585389,92.6786985 L27.248843,77.8019867 Z" id="Path" fill="#000000" fill-rule="nonzero" opacity="0.1"></path>
                <ellipse id="Oval" fill="#FFFFFF" fill-rule="nonzero" cx="63.6465236" cy="103.540361" rx="1.44565217" ry="1.44615385"></ellipse>
                <ellipse id="Oval" fill="#FFFFFF" fill-rule="nonzero" cx="66.3548863" cy="114.377571" rx="1.44565217" ry="1.44615385"></ellipse>
                <path d="M81.4326697,124.24303 L75.2733978,125.55368 L70.4174303,126.569433 L73.0240395,119.360861 L74.8367576,118.908687 L77.6616869,118.214043 C77.6616869,118.214043 81.723763,98.1086823 89.8412998,99.5503965 C97.9588365,100.992111 81.4326697,124.24303 81.4326697,124.24303 Z" id="Path" fill="#F7A17D" fill-rule="nonzero"></path>
                <path d="M75.7919223,122.782435 L70.4174303,123.86013 L73.3023756,116.211971 L75.3086574,115.732223 C75.757455,118.056507 75.9196359,120.422518 75.7919223,122.782435 Z" id="Path" fill="#000000" fill-rule="nonzero" opacity="0.1"></path>
                <path d="M27.248843,77.8019867 C27.248843,77.8019867 34.362546,100.123342 38.507698,102.877357 C42.65285,105.631372 67.8415797,119.684395 75.252814,116.377062 C75.252814,116.377062 77.0312397,124.645395 74.3669821,126.569433 C74.3669821,126.569433 46.7371433,125.5634 46.5139949,125.469084 C46.5139949,125.469084 28.4389682,123.262099 25.4771793,115.000054 C22.5153905,106.738009 18.9585389,92.6786985 18.9585389,92.6786985 L27.248843,77.8019867 Z" id="Path" fill="#0098C9" fill-rule="nonzero"></path>
            </g>
            <path d="M236,207 C239.3,207 242,204.3 242,201 C242,197.7 239.3,195 236,195 C232.7,195 230,197.7 230,201 C230,204.3 232.7,207 236,207 Z" id="Path" fill="#008AB6" fill-rule="nonzero"></path>
            <path d="M203,292 C209.05,292 214,287.05 214,281 C214,274.95 209.05,270 203,270 C196.95,270 192,274.95 192,281 C192,287.05 196.95,292 203,292 Z" id="Path" fill="#58BADB" fill-rule="nonzero"></path>
            <path d="M371,235 C373.750001,235 376,232.75 376,230 C376,227.25 373.750001,225 371,225 C368.250001,225 366,227.25 366,230 C366,232.75 368.250001,235 371,235 Z" id="Path" fill="#0098C9" fill-rule="nonzero"></path>
        </g>
        <g id="db" transform="translate(173.000000, 291.000000)" fill-rule="nonzero">
            <path d="M102.094582,182.462379 C109.009869,185.408892 116.211837,188.268664 123.675099,191.027205 C133.827908,208.146132 152.973373,226.320639 177.793491,240.642952 C222.638049,266.520258 269.116602,270.07553 282.358101,248.822693 L282.749148,248.171071 L265.516087,278.003804 C252.822669,299.977807 205.857962,296.614377 160.560429,270.475683 C115.71587,244.598375 89.3960064,206.14572 101.190506,184.0579 L101.559601,183.393611 L102.094582,182.462379 Z M144.343575,198.186697 C171.09726,206.86289 200.579167,214.232909 231.807387,219.73637 C253.301912,223.524427 274.321604,226.198694 294.503045,227.821428 L289.289197,236.849376 C276.595777,258.823379 229.631072,255.459949 184.333538,229.321255 C168.479401,220.172711 154.940616,209.452412 144.582796,198.439143 L144.343575,198.186697 Z M166.772309,70.5017042 C154.078889,92.4757083 180.475602,131.445082 225.773136,157.583776 C262.527429,178.792638 300.379329,185.007056 320.130663,174.858326 C320.519954,174.658852 320.902483,174.452283 321.277824,174.23934 C323.281359,173.10248 325.080901,171.783662 326.652982,170.281394 C327.083642,169.869911 327.49695,169.444889 327.89275,169.006093 C328.816724,167.981842 329.645729,166.881807 330.373421,165.706071 L330.728795,165.111897 L313.495733,194.944627 C311.834963,197.819643 309.587524,200.260923 306.83391,202.274206 C305.360895,203.351429 303.742984,204.306196 301.992508,205.139379 C280.136106,203.504605 257.062375,200.633894 233.337261,196.452732 C229.348625,195.7498 225.389962,195.018356 221.463677,194.259656 C217.16068,192.188372 212.840238,189.909828 208.534904,187.425458 C169.096361,164.667662 143.989331,132.176902 146.531783,109.649957 C146.884123,106.527166 147.768179,103.594977 149.219543,100.906734 L149.539247,100.334436 L166.772309,70.5017042 Z M142.565772,112.406452 C132.069972,130.576085 148.300606,160.365674 179.843821,184.913318 C160.106013,179.834885 141.56683,174.09581 124.603163,167.893164 C121.315792,158.533765 121.228623,149.898075 124.963615,142.903472 L125.332711,142.239183 L142.565772,112.406452 Z M189.75231,30.7202535 C177.058891,52.6942576 203.450434,91.672582 248.747966,117.811276 C293.592524,143.688582 340.076146,147.235082 353.317745,125.98207 L353.708795,125.330446 L336.475733,155.163177 C323.782314,177.137182 276.812438,173.782701 231.514904,147.644007 C186.670346,121.7667 160.35555,83.3052717 172.150151,61.2172765 L172.519248,60.552985 L181.763114,44.5469415 L182.119302,44.5689202 C182.07834,44.4244732 182.037967,44.28014 181.998187,44.1359229 L189.75231,30.7202535 Z M118.786667,153.570098 C116.884957,156.863372 115.860195,160.549747 115.649839,164.518751 C114.77624,164.180738 113.91039,163.84157 113.049232,163.501224 L118.786667,153.570098 Z M301.416797,26.6344954 C346.714331,52.7731891 373.111044,91.7425628 360.412454,113.725518 C347.719035,135.699522 300.754329,132.336091 255.456795,106.197397 C210.159261,80.0587032 183.762548,41.0893296 196.455968,19.1153254 C209.154557,-2.86762945 256.119263,0.495801813 301.416797,26.6344954 Z" id="Combined-Shape" fill="#008AB6" transform="translate(230.987134, 148.555860) rotate(-2.000000) translate(-230.987134, -148.555860) "></path>
            <path d="M175.485671,36.1783243 L169.909676,45.9087004 C90.3284191,44.1367855 32.0225098,59.7072091 27.5609014,87.8650157 C21.5593311,125.741727 115.259073,172.051555 236.845132,191.300911 C358.431191,210.550268 461.8614,195.449812 467.862971,157.5731 C471.911298,132.023572 430.594497,102.636887 365.954367,80.3069085 C364.727604,77.257165 363.257938,74.1716116 361.556023,71.0726219 C443.529613,98.9639237 497.034899,138.245124 491.104185,171.865516 C483.019512,217.696412 367.547604,235.652711 233.190461,211.972032 C98.8333181,188.291354 -3.53074284,131.941088 4.55393146,86.1101924 C10.8158412,50.6122955 81.5007894,31.8367423 175.485671,36.1783243 Z" id="Combined-Shape" fill="#84CCE3" transform="translate(247.829058, 128.987854) rotate(-2.000000) translate(-247.829058, -128.987854) "></path>
        </g>
        <g id="woman" transform="translate(397.000000, 282.500000) scale(-1, 1) translate(-397.000000, -282.500000) translate(321.000000, 187.000000)" fill-rule="nonzero">
            <ellipse id="Oval" fill="#B0DDEC" cx="66.2000649" cy="124.070336" rx="14.3341301" ry="14.3277003"></ellipse>
            <path d="M61.1381437,25.7482407 C61.1381437,39.9686017 55.0128622,40.4104308 45.0343848,40.4104308 C35.0559074,40.4104308 25.0028765,39.9686017 25.0028765,25.7482407 C25.0028765,11.5278798 33.0920307,2.97779913e-13 43.070512,2.97779913e-13 C53.0489932,2.97779913e-13 61.1381437,11.5278798 61.1381437,25.7482407 Z" id="Path" fill="#B53D0A"></path>
            <path d="M36.3540922,26.327521 C36.3540922,26.327521 40.6138511,44.1330674 39.0648479,46.0684529 C37.5158445,48.0038384 52.2313751,52.2616865 52.2313751,52.2616865 L58.427388,35.2302942 L54.9421308,34.8432171 C54.9421308,34.8432171 49.9078704,33.6819859 51.4568736,24.0050584 C53.0058767,14.328131 36.3540922,26.327521 36.3540922,26.327521 Z" id="Path" fill="#EF8E65"></path>
            <ellipse id="Oval" fill="#F7A17D" cx="43.1309851" cy="18.7795176" rx="12.5856511" ry="12.5800057"></ellipse>
            <path d="M30.7389555,89.6146264 L21.832187,97.3561684 C21.832187,97.3561684 -5.27536927,107.420173 0.920643594,122.903257 C7.11665646,138.386341 18.7341805,161.22389 18.7341805,161.22389 L21.832187,168.578354 L29.5772032,168.578354 L34.6114636,166.255892 L33.4497112,163.159274 C33.4497112,163.159274 30.7389555,158.901427 30.7389555,156.578964 C30.7389555,154.256502 26.0919459,127.548182 22.9939394,125.612796 C22.9939394,125.612796 38.4839716,110.51679 49.7142449,109.742635 C60.9445183,108.968481 64.0425247,106.258942 70.2385376,109.742635 C76.4345505,113.226329 100.831351,119.80664 100.831351,119.80664 C100.831351,119.80664 113.997878,143.80542 120.581142,148.063268 C127.164406,152.321117 132.585917,166.642968 132.585917,166.642968 L143.42894,164.707584 L138.007428,153.482348 C138.007428,153.482348 132.585917,145.353729 132.585917,141.870035 C132.585917,138.386341 114.77238,104.710633 101.993104,99.2915539 C89.213827,93.8724745 83.019363,88.8899678 83.019363,88.8899678 L54.7485054,90.77585 L30.7389555,89.6146264 Z" id="Path" fill="#D45925"></path>
            <path d="M22.7911892,164.015362 C22.7911892,164.015362 20.3787781,162.292984 18.6556272,165.73774 C16.9324763,169.182495 12.1076538,177.105434 12.1076538,177.105434 C12.1076538,177.105434 -2.0221833,187.784178 8.6613521,190.539982 C8.6613521,190.539982 13.8308047,190.884458 22.7911892,184.683898 C31.7515737,178.483336 38.2995471,175.383056 38.6441773,174.34963 C38.9888075,173.316203 36.5763962,161.604032 34.163985,161.604032 C31.7515737,161.604032 32.4408341,167.115642 29.6837928,167.115642 C27.7137186,167.162899 25.7523358,167.393546 23.8250797,167.804594 L22.7911892,164.015362 Z" id="Path" fill="#84CCE3"></path>
            <path d="M144.411543,163.903435 C143.825002,162.238955 142.596506,160.878283 141,160.124838 C139.403495,159.371396 137.571746,159.287836 135.913219,159.892794 C135.417968,160.07843 135.082642,160.2718 135.018156,160.465171 C134.695727,161.432024 131.77782,161.909597 131.463416,161.348526 C131.149012,160.787455 128.892006,159.176034 130.504151,165.299436 C132.116296,171.422837 136.95273,184.636495 139.532162,186.892486 C142.111593,189.148475 151.139603,188.826191 151.784461,186.570201 C152.429319,184.31421 151.462033,180.124515 150.172317,178.513093 C148.882602,176.901671 146.625598,171.745122 146.30317,169.811416 C146.151444,168.901446 145.285697,166.34997 144.411543,163.903435 Z" id="Path" fill="#84CCE3"></path>
            <path d="M76.6591798,115.826159 C76.6591798,115.826159 80.1385474,130.815902 86.9691734,127.293787 C93.7997993,123.771673 79.4801321,109.742635 79.4801321,109.742635 L76.6591798,115.826159 Z" id="Path" fill="#EF8E65"></path>
            <path d="M43.1309851,106.427393 C43.1309851,106.427393 47.0278767,123.215906 54.6781779,119.271138 C62.3284788,115.32637 46.2904515,99.6138476 46.2904515,99.6138476 L43.1309851,106.427393 Z" id="Path" fill="#EF8E65"></path>
            <path d="M35.3859652,84.9697012 C35.3859652,84.9697012 33.0624604,94.2595515 36.1604668,96.5820141 C39.2584731,98.9044768 44.2927337,98.5173996 52.8122513,101.614016 C61.3317691,104.710633 74.8855471,101.614016 75.272798,97.3561684 C75.6600488,93.0983203 73.336544,76.066928 73.336544,76.066928 L35.3859652,84.9697012 Z" id="Path" fill="#D45925"></path>
            <path d="M73.7237948,83.4213928 C69.2433029,84.7993874 66.2963243,84.9503474 64.882859,86.3360833 C64.7069701,86.5045689 64.5545737,86.6959554 64.4297755,86.9050867 C63.2680231,88.8404722 58.2337626,89.6146264 51.650499,88.0663181 C49.4449064,87.4877574 47.1516315,87.319808 44.8852274,87.5708593 C42.6353002,87.7992348 40.369883,88.2753396 36.1604668,88.0663181 C28.8143191,87.6985947 25.3019542,63.6572362 23.6367758,57.2162734 C23.5477081,56.8640332 23.4625322,56.5659838 23.3811902,56.3259961 C21.832187,51.6810708 29.9644538,47.0361457 31.1262063,45.8749144 C32.2879587,44.7136831 35.7732159,40.0687579 38.9796526,39.5849116 C42.1822167,39.1010652 47.0034892,45.8749144 47.0034892,45.8749144 C47.0034892,45.8749144 54.5548799,36.7786026 53.7803784,34.45614 C53.0058767,32.1336775 61.1381437,33.6819859 62.6871469,33.2949087 C63.5623336,33.0742748 67.2179813,34.0303553 70.234665,34.9051494 C72.8128423,35.6496136 74.6594803,37.9133133 74.8700572,40.5874413 C74.9203997,41.2183769 74.9746149,41.9035035 75.02883,42.6389498 C75.9892121,55.280884 77.5691953,82.2408115 73.7237948,83.4213928 Z" id="Path" fill="#B08814"></path>
            <path d="M44.8852274,87.5708477 C42.6353002,87.7992232 40.369883,88.2753281 36.1604668,88.0663063 C28.8143191,87.6985832 25.3019542,63.6572246 23.6367758,57.2162617 C23.9155963,55.2112024 24.1556919,54.0035219 24.1556919,54.0035219 L26.2855712,56.9066 C26.2855712,56.9066 36.5477176,73.7444538 39.2584731,78.389379 C40.3660106,80.2860568 42.6391727,83.8665199 44.8852274,87.5708477 Z" id="Path" fill="#000000" opacity="0.1"></path>
            <path d="M26.4791966,52.4552251 L22.9939394,54.0035335 C22.9939394,54.0035335 18.3469298,77.2281592 26.4791966,88.8404722 C34.6114636,100.452785 37.70947,102.388171 39.2584731,104.323556 C40.1997611,105.467252 41.6602492,106.051185 43.1309812,105.871864 C43.1309812,105.871864 41.581978,109.742635 44.2927337,109.742635 C47.0034892,109.742635 57.0720102,105.871864 54.3612545,104.710633 C51.650499,103.549402 48.9397433,101.614016 49.7142449,99.6786309 C50.4887465,97.7432454 40.8074765,83.0343157 38.0967208,78.3893906 C35.3859652,73.7444654 26.4791966,52.4552251 26.4791966,52.4552251 Z" id="Path" fill="#B08814"></path>
            <path d="M73.7237948,83.4213928 C69.2433029,84.7993874 66.2963243,84.9503474 64.882859,86.3360833 C64.5265882,82.5117617 64.5420782,78.9080738 65.2042772,76.066928 C67.5844289,65.8708644 69.380657,43.7922925 69.2704105,38.326911 C69.2573292,37.6783556 69.395934,38.7139881 70.0449122,38.7139881 L70.0449122,39.1010652 C72.9105682,39.1010652 73.7160497,38.0830524 74.5215315,40.8312998 C74.6841768,41.3809687 74.8545671,41.9847896 75.02883,42.6389692 C75.9892121,55.280884 77.5691953,82.2408115 73.7237948,83.4213928 Z" id="Path" fill="#000000" opacity="0.1"></path>
            <path d="M68.6895344,36.1979857 L69.8762644,36.1979857 C72.7410234,36.1967079 75.2635604,38.0836942 76.0701474,40.831327 C77.5496759,46.0490986 78.7060053,51.3530725 79.5325569,56.7130731 C81.8560617,71.0349258 84.5668173,106.646019 84.1795664,107.420173 C83.7923158,108.194327 88.8265762,112.065098 86.5030713,112.839252 C84.1795664,113.613406 79.9198077,115.161715 77.9835537,115.548792 C76.0472996,115.935869 72.1747916,112.065098 72.1747916,112.065098 C72.1747916,112.065098 64.0425247,87.6792409 66.7532804,76.066928 C69.4640359,64.454615 68.6895344,36.1979857 68.6895344,36.1979857 Z" id="Path" fill="#B08814"></path>
            <path d="M53.982651,9.83439813 C53.982651,13.6857456 48.6966776,16.8078785 42.1760788,16.8078785 C35.6554801,16.8078785 29.6539368,18.8711542 29.6539368,15.0198068 C29.6539368,11.1684594 35.6554918,2.86092166 42.1760788,2.86092166 C48.696666,2.86092166 53.982651,5.98305069 53.982651,9.83439813 Z" id="Path" fill="#B53D0A"></path>
            <path d="M25.1101102,28.1617285 C25.1101102,28.1617285 24.6282036,41.1256603 37.5165533,40.4104308 C50.4049028,39.6952014 35.7748462,29.3290717 35.7748462,29.3290717 L25.1101102,28.1617285 Z" id="Path" fill="#B53D0A"></path>
        </g>
    </g>
</svg>