<?xml version="1.0" encoding="UTF-8"?>
<svg width="603px" height="285px" viewBox="0 0 603 285" version="1.1" xmlns="http://www.w3.org/2000/svg" xmlns:xlink="http://www.w3.org/1999/xlink">
    <!-- Generator: Sketch 59.1 (86144) - https://sketch.com -->
    <title>Illlustration</title>
    <desc>Created with Sketch.</desc>
    <defs>
        <linearGradient x1="50%" y1="0%" x2="50%" y2="100%" id="linearGradient-1">
            <stop stop-color="#00AFAE" offset="0%"></stop>
            <stop stop-color="#009897" offset="100%"></stop>
        </linearGradient>
    </defs>
    <g id="Vantage-Launcher" stroke="none" stroke-width="1" fill="none" fill-rule="evenodd">
        <g id="Vantage-Launcher---Slide-1" transform="translate(-735.000000, -64.000000)">
            <g id="Illlustration" transform="translate(732.000000, 64.000000)">
                <g id="2-Mens" transform="translate(3.000000, 0.000000)">
                    <path d="M418.428571,0 C513.421548,0 590.428571,77.007023 590.428571,172 C590.428571,202.507455 582.486034,231.15983 568.555975,256.00211 L268.301168,256.00211 C254.371109,231.15983 246.428571,202.507455 246.428571,172 C246.428571,77.007023 323.435594,0 418.428571,0 Z" id="Combined-Shape" fill="#007373" opacity="0.4"></path>
                    <path d="M176.891326,132 C258.061924,132 327.153415,183.716803 353.012613,255.99722 L0.770040087,255.99722 C26.6292373,183.716803 95.7207286,132 176.891326,132 Z" id="Planet" fill="#072A2B" opacity="0.4"></path>
                    <g id="data_report" transform="translate(333.428571, 58.571429)">
                        <g id="Bars" transform="translate(10.500000, 0.021978)">
                            <rect id="Rectangle" fill="#00B2B1" x="35.9120879" y="18.9010989" width="11.3406593" height="56.7032967"></rect>
                            <rect id="Rectangle" fill="#00B2B1" x="103.956044" y="0" width="11.3406593" height="75.6043956"></rect>
                            <rect id="Rectangle" fill="#00B2B1" x="1.687539e-14" y="132.769231" width="11.3406593" height="37.8021978"></rect>
                            <rect id="Rectangle" fill="#00B2B1" x="35.9120879" y="132.769231" width="11.3406593" height="37.8021978"></rect>
                            <rect id="Rectangle" fill="#00B2B1" x="68.043956" y="151.67033" width="11.3406593" height="18.9010989"></rect>
                            <rect id="Rectangle" fill="#00B2B1" x="103.956044" y="94.967033" width="11.3406593" height="75.6043956"></rect>
                            <g id="Group-2" transform="translate(0.439451, 16.890110)" fill="#008383">
                                <rect id="Rectangle" x="0" y="21.1944658" width="12.7865934" height="37.369522"></rect>
                                <rect id="Rectangle" x="66.1585714" y="39.9010989" width="12.7865934" height="18.6065934"></rect>
                                <rect id="Rectangle" x="136.092637" y="0.311540206" width="12.7865934" height="58.2492866"></rect>
                            </g>
                        </g>
                        <rect id="Rectangle" fill="#00A2A2" x="0" y="75.4760757" width="170" height="1"></rect>
                        <rect id="Rectangle" fill="#00A2A2" x="0" y="170.021978" width="170" height="1"></rect>
                    </g>
                    <g id="Men" transform="translate(268.000000, 188.000000) scale(-1, 1) translate(-268.000000, -188.000000) translate(217.000000, 91.000000)">
                        <path d="M15.1496736,46.5893538 C15.0087331,46.1285654 14.9090047,45.6561676 14.8516642,45.1777304 C14.5967877,43.7700281 13.9458725,42.4721187 13.3067207,41.1898941 C13.2050509,40.927254 13.0293312,40.6997718 12.800889,40.5350577 C12.3595024,40.3386944 11.8409052,40.4976193 11.5853244,40.9075694 C11.3532813,41.3166221 11.2610406,41.7902161 11.3226056,42.256454 C11.3578961,42.7740493 11.4363197,43.3661469 11.0716503,43.7308163 C10.920006,43.8654615 10.7385876,43.962218 10.5422915,44.013141 C9.36593861,44.3856528 8.06018692,44.0523528 6.95049404,43.4994669 C5.84080116,42.9465811 4.85266474,42.1701882 3.75865657,41.5859329 C3.17996313,41.282614 2.58426293,41.0129124 1.97452137,40.7781706 C1.343212,40.5232941 0.468789692,40.3586047 0.115883829,40.9389388 C-0.166440861,41.4016376 0.115883829,41.9937352 0.441341458,42.4368282 C0.991549318,43.2018085 1.63132888,43.898194 2.34703312,44.5111304 C4.47231065,46.3423197 7.15831638,47.3618255 9.65610565,48.6362078 C12.4543499,50.0643549 15.062639,51.8374645 17.4200346,53.914111 C17.6484754,53.6430612 17.7856804,53.306909 17.8121523,52.9534229 C18.0003687,51.9535229 18.8277369,49.930196 17.9925264,49.063616 C17.0788923,48.1107702 15.6555053,48.0480314 15.1496736,46.5893538 Z" id="Path" fill="#F8B79D" fill-rule="nonzero"></path>
                        <path d="M54.4751502,181.238625 C56.5685126,182.872476 59.2210695,183.616262 61.8587251,183.309006 C62.4076898,183.242346 63.035078,183.046287 63.2154521,182.524771 C63.2813102,182.208163 63.2456345,181.878848 63.1135015,181.583689 C62.6987935,180.597005 62.3797161,179.572806 62.1606557,178.525171 C62.0234145,177.572325 62.0587051,176.439105 61.2823122,175.866614 C60.1608558,175.039246 57.227816,175.082378 56.4984772,176.364603 C56.3259454,176.639085 55.2280161,181.869935 54.4751502,181.238625 Z" id="Path" fill="#394851" fill-rule="nonzero"></path>
                        <path d="M70.2735694,176.611637 C70.218755,176.82159 70.2576937,177.044997 70.3803057,177.224025 C70.5029178,177.403054 70.6971492,177.520104 70.9127211,177.544877 C72.7134121,178.102473 74.5809878,178.415055 76.4651067,178.474196 L76.072989,174.702024 C76.0883717,174.531385 76.0280793,174.362593 75.9080671,174.240316 C75.7880548,174.11804 75.6204194,174.054603 75.449522,174.066794 C74.3672774,173.88642 72.0929951,173.15316 71.0538834,173.529593 C69.8853729,173.95308 70.2970964,175.48626 70.2735694,176.611637 Z" id="Path" fill="#394851" fill-rule="nonzero"></path>
                        <path d="M59.3217241,26.1521832 C59.6259732,26.9438312 59.7763605,27.786266 59.764817,28.6342877 C59.8628464,31.6731993 59.34133,34.9552239 57.2238948,37.1353979 C59.6001276,36.425665 62.2704486,36.8530732 64.5133614,35.7943556 C65.5524731,35.3042085 66.4268955,34.5238945 67.3993472,33.9161122 C69.1325071,32.8338675 71.1519128,32.3084299 72.9556539,31.3438205 C74.759395,30.3792112 76.4298161,28.751923 76.5317667,26.7129114 C75.7475314,25.8894644 74.4888338,25.7718291 73.4614856,25.2738397 C72.3557139,24.7327174 71.5361881,23.744581 70.755874,22.7917351 C69.8352232,21.7413138 69.0282041,20.5965033 68.3482718,19.3763906 C67.6652381,18.1473266 67.3906014,16.7329477 67.5640366,15.3375791 C65.5603155,15.6983273 64.1055591,17.4471719 62.211631,18.1961166 C61.4744498,18.4862836 60.6784511,18.6196036 59.9608758,18.9529036 C58.9374488,19.4234447 56.8631466,21.0232846 56.8239348,22.278061 C56.827856,23.6465515 58.7884441,24.9444609 59.3217241,26.1521832 Z" id="Path" fill="#F8B79D" fill-rule="nonzero"></path>
                        <path d="M59.3217241,26.1521832 C59.6259732,26.9438312 59.7763605,27.786266 59.764817,28.6342877 C59.8628464,31.6731993 59.34133,34.9552239 57.2238948,37.1353979 C59.6001276,36.425665 62.2704486,36.8530732 64.5133614,35.7943556 C65.5524731,35.3042085 66.4268955,34.5238945 67.3993472,33.9161122 C69.1325071,32.8338675 71.1519128,32.3084299 72.9556539,31.3438205 C74.759395,30.3792112 76.4298161,28.751923 76.5317667,26.7129114 C75.7475314,25.8894644 74.4888338,25.7718291 73.4614856,25.2738397 C72.3557139,24.7327174 71.5361881,23.744581 70.755874,22.7917351 C69.8352232,21.7413138 69.0282041,20.5965033 68.3482718,19.3763906 C67.6652381,18.1473266 67.3906014,16.7329477 67.5640366,15.3375791 C65.5603155,15.6983273 64.1055591,17.4471719 62.211631,18.1961166 C61.4744498,18.4862836 60.6784511,18.6196036 59.9608758,18.9529036 C58.9374488,19.4234447 56.8631466,21.0232846 56.8239348,22.278061 C56.827856,23.6465515 58.7884441,24.9444609 59.3217241,26.1521832 Z" id="Path" fill="#F3753F" fill-rule="nonzero" opacity="0.173683966"></path>
                        <path d="M85.1191427,105.344259 C84.3780403,111.320131 83.8643663,117.531275 82.8879934,123.479699 C82.4958757,125.969646 82.9821016,128.577228 82.2958957,131.008357 C82.0018075,132.047469 81.5116605,133.023842 81.2959958,134.078638 C80.9862229,135.686321 81.3940252,137.329293 81.6881134,138.936976 C82.4096099,142.956181 82.4096099,147.069495 82.3978463,151.155361 C82.3978463,153.355141 82.3978463,155.574527 81.9547534,157.735095 C81.4293158,160.358362 80.300017,162.832624 79.6687077,165.412758 C78.8570242,168.706546 78.9354477,172.439506 79.20993,175.81956 C78.4727489,175.55292 77.6414595,175.81956 76.9434902,176.15286 C76.2455208,176.48616 75.5397091,176.937095 74.759395,176.98807 C73.7045986,177.0861 72.712541,176.529292 71.8028281,175.98817 C71.1048587,175.576447 70.4970764,175.203935 69.8030282,174.780448 C69.1246647,168.898684 68.4463012,162.993392 68.4737495,157.068495 C68.4737495,153.625702 68.7443106,150.175067 68.4737495,146.740116 C68.2031883,143.305166 67.4150319,139.980009 67.5758001,136.58427 C67.6503024,135.039327 67.9130213,133.51791 68.0894742,131.98473 C68.6698083,127.020521 68.5913847,122.260213 68.2424001,117.276398 C67.9012577,117.362664 67.7640166,117.911629 67.8894942,118.237086 C67.3914431,118.688325 66.9910979,119.236798 66.7131413,119.84869 C66.0857531,121.221101 65.9524331,122.88368 65.8700884,124.420781 L65.3642567,134.0159 C65.3507441,134.928655 65.2376678,135.83721 65.0270355,136.725432 C64.8505826,137.356742 64.5839426,137.952761 64.4231744,138.587991 C63.8467615,140.8858 64.7721591,143.254191 65.0662473,145.602975 C65.305439,147.563564 65.1015379,149.524152 64.9015579,151.461213 L63.6428603,163.663913 C63.1840827,168.102685 62.7370686,172.635564 63.6428603,176.995912 C63.701678,177.266474 63.7604956,177.540956 63.8310768,177.815438 C63.6146375,177.878116 63.3946637,177.927872 63.1723192,177.964443 C62.3919207,178.074151 61.6000118,178.074151 60.8196134,177.964443 C60.0902746,177.889941 59.3530935,177.764463 58.6315971,177.678197 C56.8984372,177.482138 55.1691984,177.407636 54.0202938,178.717309 C52.2714492,170.78869 50.5147622,162.738516 50.9813822,154.633444 C51.1460716,151.778828 51.5852433,148.943818 51.8871739,146.100965 C52.3575643,141.701085 52.4991194,137.272248 52.3106609,132.85131 C51.9185433,123.260113 49.9579552,113.774788 49.6324976,104.179669 C49.5658376,102.132815 49.5736799,100.066356 49.1658776,98.0587133 C48.7188635,95.8824605 47.7895447,93.7454194 47.8640471,91.5377972 C47.9385494,89.330175 49.5501529,86.8794398 51.7852233,87.0009963 C57.9532336,87.3421386 63.5879638,83.9385576 69.7402894,83.3582235 C72.5321669,83.0915835 75.3710985,82.6955447 78.1355277,83.1935341 C80.899957,83.6915235 83.6526227,85.2560728 84.7387886,87.8440492 C85.326965,89.2517514 85.3740191,90.8123796 85.417152,92.333796 C85.5426297,96.6784593 85.6563438,101.034886 85.1191427,105.344259 Z" id="Path" fill="#E46732"></path>
                        <path d="M54.1340079,180.619079 C53.1145021,181.246468 52.7655174,182.528692 52.1734198,183.567804 C50.8755104,185.830323 48.3267459,186.990991 46.2328377,188.543777 C45.2290166,189.292721 44.2173532,190.425941 44.5349684,191.637585 C48.1581353,192.645327 52.1028386,193.543276 55.5966066,192.151259 C57.0121513,191.586609 58.34143,190.653369 59.8589252,190.606315 C61.0156722,190.571025 62.211631,191.057251 63.2977968,190.723951 C63.5718376,190.660078 63.8139053,190.500091 63.9800815,190.273015 C64.1073834,190.031738 64.1695543,189.76143 64.1604556,189.48878 C64.255219,187.637622 64.2460552,185.782605 64.1330073,183.932473 C64.0232144,182.124811 64.2663273,180.846508 62.2037886,180.924931 C59.8353982,181.026882 56.1887043,179.352539 54.1340079,180.619079 Z" id="Path" fill="#8F791D" fill-rule="nonzero"></path>
                        <path d="M71.4969763,177.403715 C71.0688167,177.232545 70.6161381,177.130626 70.1559341,177.101784 C69.3631407,177.163958 68.6477318,177.601071 68.2306365,178.278137 C67.8254678,178.947881 67.5314916,179.678849 67.3601354,180.442626 C67.1599092,181.001347 67.0771454,181.595377 67.1170225,182.18755 C67.2699483,183.309006 68.2620059,184.148138 68.5247247,185.25391 C68.9991871,187.249788 66.9562542,189.402514 67.8894942,191.237625 C68.4815918,192.413977 69.9677176,192.743356 71.2656269,192.947257 C73.2497421,193.260952 75.5044185,193.507986 77.0650466,192.241446 C77.9141832,191.542407 78.4037692,190.498437 78.3982928,189.398593 C78.3747195,187.9556 77.5081395,186.673375 77.1160219,185.285279 C76.5709784,183.324691 77.3905043,180.728872 76.5239243,178.936895 C75.782822,177.403715 73.0772104,177.909547 71.4969763,177.403715 Z" id="Path" fill="#8F791D" fill-rule="nonzero"></path>
                        <circle id="Oval" fill="#F8B79D" fill-rule="nonzero" cx="59.9844029" cy="14.580792" r="10.1911371"></circle>
                        <path d="M65.3877837,31.2810817 C64.2887775,30.8137468 63.0664371,30.7214167 61.9097004,31.0183629 L60.9803816,29.3989171 C60.588264,28.685263 60.0040087,27.8775007 59.1844829,27.9088701 C58.5748453,27.9876948 58.0674493,28.4153791 57.8865736,29.0028783 C57.7162378,29.578697 57.6472447,30.1797328 57.6826724,30.7791712 C57.7373343,31.1580515 57.6042222,31.5398348 57.3258454,31.8025982 C57.173303,31.8860676 57.0050332,31.9368156 56.8317772,31.9516029 C56.1983645,32.0631775 55.5573401,32.1261001 54.914322,32.1398193 C53.847762,32.1398193 52.7066997,31.8810217 51.777381,32.3829322 C50.8480622,32.8848428 50.4167328,33.9514027 49.9657975,34.9316968 C49.3082543,36.3277273 48.4495291,37.6197785 47.417033,38.7666072 C46.2681283,40.0409895 44.8447414,41.2487117 44.5192837,42.9348175 C44.3820426,43.6523928 45.0329578,44.1856728 45.5505531,44.703268 C47.6091706,46.7462009 50.4794716,48.0009773 52.0048092,50.4713183 C52.3616362,51.0477312 52.6518033,51.6986465 53.2007679,52.0946853 C52.8596256,52.8357876 53.5928856,53.5964958 53.7458114,54.3924946 C53.8060081,54.9130522 53.820441,55.4378858 53.7889444,55.9609651 C53.8570265,56.7272432 53.9881767,57.4866029 54.181062,58.2313261 C54.3817781,59.4467825 54.47494,60.6775689 54.4594655,61.9093894 L54.5261255,66.0344668 C54.5535738,67.8146809 54.581022,69.6105796 54.1928255,71.3476607 C53.6634667,73.7003664 52.3694786,75.9550428 52.4714292,78.3744085 C52.5470471,78.8279153 52.5010435,79.2933642 52.3381092,79.7232931 C51.2676281,81.6838813 50.4245752,83.8562129 49.2756705,85.793274 C48.9476334,86.2632022 48.6838859,86.7748722 48.4914353,87.3146904 C48.1855835,88.4322256 48.8129717,89.6438691 49.7383693,90.3418384 C50.6637669,91.0398078 51.8322774,91.3260537 52.9694185,91.5417184 C63.5330674,93.5650453 74.5005974,91.1299949 84.4839121,87.1303951 C84.7465493,87.0481184 84.99039,86.9148722 85.2014874,86.7382775 C85.9308261,86.0285446 85.3583344,84.8325858 84.9426897,83.9071882 C83.3742192,80.4604743 84.6250744,76.4569533 84.4015674,72.6926241 C84.2525627,70.1556231 83.4291157,67.595095 84.0486615,65.1169116 C84.4407792,63.4621752 85.4877332,62.0348671 86.2131508,60.4899236 C86.9973861,58.8155814 87.4365578,56.960865 88.463906,55.4316063 C89.2331867,54.3806732 90.1331439,53.4319627 91.1420694,52.6083594 L97.5139808,46.9304961 C96.6709279,45.5620056 96.6356373,43.8445304 96.2395985,42.2878235 C95.894535,40.9467812 95.2083292,39.7155318 94.7966056,38.3980166 C94.2241139,36.5629061 94.1456904,34.4768404 92.9614952,32.9750299 C92.4948752,32.3750899 91.8870929,31.9084699 91.3655764,31.3555841 C90.7695576,30.7203535 90.2990165,29.9792512 89.6912342,29.3557842 C87.930626,27.5520431 85.2759897,26.9795514 82.7703581,26.7364384 C80.2647264,26.4933255 77.6728289,26.481562 75.3514926,25.4777409 C74.2143515,24.9875938 72.9987869,24.2464915 71.822434,24.6150821 C70.889194,24.9052491 70.2892541,25.8188832 69.9089,26.7246749 C69.5285459,27.6304666 69.2619059,28.6068395 68.6384389,29.3636265 C67.8698883,30.2654971 66.5092402,30.8615159 65.3877837,31.2810817 Z" id="Path" fill="url(#linearGradient-1)" fill-rule="nonzero"></path>
                        <path d="M35.0653278,51.6241441 C34.6965126,52.2351313 34.2116191,52.7679812 33.6380196,53.1926146 C32.4616667,53.9180322 30.9676986,53.533757 29.6541045,53.1259546 C26.0113318,51.9927347 22.345032,50.8555936 18.9453722,49.1263548 C18.7770909,49.013625 18.5739824,48.9649346 18.3728805,48.9891137 C18.2157187,49.039608 18.0784979,49.138407 17.9807628,49.2714384 C17.4460893,49.8641157 16.9546778,50.4944329 16.5103217,51.1575241 C16.0409836,51.7726116 15.7457307,52.5026176 15.6555053,53.2710381 C15.6611942,54.2178406 16.0740489,55.1164066 16.7887253,55.737458 C17.4980784,56.342493 18.290339,56.8429376 19.141431,57.2235838 C23.4782519,59.3880731 27.8438282,61.4963589 32.2381597,63.5484411 C32.5197649,63.7050431 32.8309333,63.8011981 33.1517938,63.8307658 C34.045822,63.8503717 34.6143925,62.9210529 35.3280466,62.3877729 C36.0417007,61.854493 36.9788618,61.7054883 37.829757,61.4231636 C39.3668581,60.9173318 40.7039792,59.9527225 42.0136521,58.9998766 L46.2014683,55.9570439 C49.8716893,53.290644 53.7262056,50.3850524 55.3299667,46.1541032 L50.2324375,44.4758398 C48.7031788,43.9700081 47.0954965,43.2014575 45.5074201,42.9073693 C44.3310673,42.6799411 42.9155226,44.2327269 42.033258,44.8954057 C40.7928577,45.8151524 39.6005541,46.7980503 38.4610664,47.840209 C37.3317677,48.8753996 35.7789819,50.2007571 35.0653278,51.6241441 Z" id="Path" fill="#00AFAE" fill-rule="nonzero"></path>
                        <path d="M83.3154016,85.0992258 C81.8763299,85.6717175 80.2451206,84.8090587 78.719783,85.0639352 C78.0046961,85.2236447 77.32275,85.506241 76.7042984,85.8991457 L72.2498422,88.3890927 C71.9753598,88.5380974 71.6773505,88.9027668 71.9165422,89.0988256 C71.9855724,89.1445473 72.0652878,89.1715694 72.1478916,89.1772491 C73.6340174,89.3693867 75.0221138,88.463595 76.5003972,88.2126397 C77.149952,88.1241443 77.8065878,88.0991921 78.4609854,88.1381374 C78.5689693,88.1317493 78.6771071,88.1477697 78.7786006,88.1851915 C78.9997392,88.3118152 79.1280146,88.5546222 79.1079795,88.8086585 C79.1079795,89.0596138 79.0334771,89.3027267 79.0256348,89.553682 C79.0702446,90.1317133 79.2967332,90.6807766 79.6726288,91.1221525 C81.0902555,93.1569702 82.6634356,95.0788718 84.3780403,96.8705969 C84.8128402,96.3206703 85.1887182,95.7266254 85.4994967,95.0982252 L86.9660167,92.3534019 C88.4874331,89.5223126 90.04414,86.5853516 90.287253,83.3817506 C89.1893236,83.0327659 87.150312,81.8760189 86.017092,82.4838012 C84.8838721,83.0915835 84.6211533,84.6796599 83.3154016,85.0992258 Z" id="Path" fill="#F8B79D" fill-rule="nonzero"></path>
                        <path d="M58.6943359,12.9535039 C61.5646369,13.2593557 64.1839826,14.6160826 66.7523531,15.9492826 C66.3131813,16.6394096 66.8699884,17.6314672 67.6503024,17.8667377 C68.4306165,18.1020083 69.2854329,17.7687083 69.9481117,17.2864037 C70.6107905,16.804099 71.155834,16.180632 71.822434,15.7179332 C72.3949257,15.3258155 73.1242645,14.9101709 73.1870033,14.2122015 C73.2497421,13.5142321 72.5909845,12.977031 72.179261,12.3966969 C70.7009776,10.3223946 72.3361081,7.0756607 70.822534,5.02488552 C70.0618258,3.99753734 68.7403894,3.60934089 67.5679577,3.10743033 C65.9445908,2.41730331 64.4663073,1.42132454 62.8390192,0.735118698 C61.211731,0.048912854 59.3374088,-0.307914185 57.6983571,0.343001073 C54.6319973,1.56248689 53.5340679,5.7542243 50.420654,6.84823248 C50.085725,6.91423038 49.7814716,7.08769615 49.554074,7.34230069 C49.1619564,7.93831948 48.6718094,11.4634569 48.7698388,12.1888745 C48.9188435,13.400518 49.2521435,13.8475321 50.444181,14.2082803 C52.9929456,14.9689885 55.9651972,12.6594157 58.6943359,12.9535039 Z" id="Path" fill="#B53D0A"></path>
                        <path d="M95.8553232,45.4678974 C96.7775573,46.3057657 97.4952473,47.3440686 97.9531525,48.5028878 C98.3250483,49.6107794 98.6211274,50.7426925 98.8393384,51.8907841 C99.3765395,54.0944852 100.262725,56.204078 100.737188,58.4156214 C101.545043,62.194297 101.133165,66.1318527 99.5608348,69.6615549 C99.0040278,70.8928042 98.3060584,72.0769995 98.0158913,73.3984359 C97.9060984,73.9042676 97.8551231,74.4297052 97.7100396,74.9276946 C97.4703529,75.6226976 97.1379749,76.2821777 96.7219032,76.8882827 L90.2911741,87.2362668 C89.7920406,86.0148523 88.7923937,85.0666159 87.5463508,84.6326058 C86.3088263,84.214991 84.9822866,84.1351279 83.703598,84.4012564 C84.1819815,83.6483906 84.393725,82.8053377 84.8799509,82.0485507 C85.1470616,81.6466728 85.3918517,81.2303987 85.6132109,80.8016166 C85.8322707,80.3363221 86.0234394,79.8584005 86.1857026,79.3703873 L87.0287555,76.9902333 C88.0168919,74.2101193 88.9893436,71.4300054 89.8559236,68.6067585 C90.3779237,66.9625229 90.7918375,65.2859102 91.0950153,63.5876529 C91.1896094,63.1558509 91.2002593,62.7098839 91.1263847,62.2740588 C90.9950185,61.8440555 90.7936442,61.4386572 90.5303659,61.0741789 C89.5949711,59.4869714 88.7834913,57.829927 88.1031578,56.1178121 C87.5934049,54.9218533 87.0797308,53.5768899 87.5385084,52.3613253 C87.8302986,51.7177748 88.261587,51.1471883 88.8011272,50.6909042 C90.9388098,48.6783866 93.3065926,46.9252533 95.8553232,45.4678974 L95.8553232,45.4678974 Z" id="Path" fill="#00AFAE" fill-rule="nonzero"></path>
                        <path d="M63.1762403,177.956601 L63.6467815,176.98807 C62.7449109,172.635564 63.191925,168.102685 63.6467815,163.656071 L64.9054791,151.45337 C65.1054591,149.492782 65.2975967,147.532194 65.0701685,145.595133 C64.7760802,143.242427 63.8506827,140.889722 64.4270956,138.580149 C64.5878638,137.944918 64.8545038,137.348899 65.0309567,136.71759 C65.241589,135.829368 65.3546653,134.920812 65.3681779,134.008057 L65.8740096,124.412939 C65.9563543,122.875838 66.0896743,121.213259 66.7170625,119.840847 L66.7170625,119.578129 L65.1015379,105.673638 L60.8352981,177.956601 L63.1762403,177.956601 Z" id="Path" fill="#000000" fill-rule="nonzero" opacity="0.1"></path>
                    </g>
                    <g id="men-with-bar" transform="translate(528.500000, 102.000000)">
                        <rect id="Rectangle" fill="#00B2B1" fill-rule="nonzero" x="3.43408799" y="22.9454078" width="8" height="43.5"></rect>
                        <g id="men">
                            <path d="M17.4498894,21.2815472 C13.1423682,20.1629746 8.68841568,19.0321994 4.28734112,19.7074105 C3.75004843,19.7428064 3.2382552,19.9495196 2.82709549,20.2972033 C2.27797806,20.8585234 2.34305864,21.8225295 2.78642013,22.4692678 C3.27821315,23.0883887 3.94844304,23.5413618 4.70629738,23.766812 C6.76447088,24.5152387 9.00161599,24.5803193 11.1899507,24.6169271 C13.3782853,24.653535 15.4771342,24.7023454 17.5434428,24.1898358 C18.0213882,24.1070657 18.4674164,23.8946043 18.8328519,23.5756378 C20.0043024,22.3879171 18.4464359,21.5418695 17.4498894,21.2815472 Z" id="Path" fill="#F8B79D" fill-rule="nonzero"></path>
                            <path d="M49.9251013,31.7920616 C48.4837038,31.850099 47.0401701,31.7587706 45.6175801,31.5195367 C44.3487413,31.2582274 43.0986221,30.9130858 41.8754465,30.4863824 L37.4458991,29.050542 C35.0460423,28.3290469 32.6954977,27.4526878 30.4090609,26.4269809 C26.5001583,24.5762518 22.9369962,21.8225295 18.6986231,20.9683468 C17.9339263,20.8137805 16.9658526,20.8097129 16.5713015,21.4808565 C16.4160796,21.8033917 16.3487311,22.1611806 16.3760598,22.5180783 L16.3516546,25.6419464 C16.3320178,25.8489854 16.3656214,26.0576078 16.4492754,26.2480093 C16.563065,26.4194988 16.71838,26.5594222 16.900772,26.654763 C20.9235656,29.2376487 25.4751391,31.0192297 29.1277869,34.1024224 C30.2341568,35.0338883 31.2469734,36.0792452 32.4102889,36.949698 C33.9337963,38.0774036 35.6792394,38.8690223 37.5313174,39.2722614 C40.1223382,39.8376489 42.933006,39.6464747 45.2799746,40.8748708 C46.3538042,41.4321233 47.3137428,42.2822384 48.505531,42.5018854 C49.5264827,42.680857 50.559637,42.3635891 51.5439809,42.0503888 C53.1709955,41.5338117 54.842753,40.9684241 55.9450554,39.6912176 C57.3524231,38.064203 57.4500439,35.7131669 57.4744492,33.56144 C57.4744492,32.9513095 57.8812028,30.4416395 57.5029219,29.9738728 C56.9619395,29.331202 56.1199595,30.2830056 55.5871122,30.5799357 C53.9072196,31.5032665 51.8246409,31.7920616 49.9251013,31.7920616 Z" id="Path" fill="#007BA3"></path>
                            <path d="M63.2625537,15.8229131 C63.8225409,16.7181888 65.374619,28.6859612 68.6139213,30.9144695 C71.8532235,33.1429778 53.8624767,34.9972804 53.8624767,34.9972804 C53.8624767,34.9972804 57.29141,22.3309716 55.6643954,20.1629746 C54.0373808,17.9949776 62.7025665,14.9276374 63.2625537,15.8229131 Z" id="Path" fill="#F8B79D" fill-rule="nonzero"></path>
                            <path d="M37.1937119,166.992909 C36.3110564,167.127138 35.4080633,166.992909 34.5254079,167.098665 C33.2782987,167.242796 32.1239859,167.82861 31.2713786,168.750085 C30.9768293,169.011445 30.8068508,169.385398 30.8036119,169.779172 C30.8520028,170.050221 30.9843266,170.299218 31.1818928,170.490991 C31.9954002,171.393984 33.1790533,171.857683 34.3627064,172.118005 C36.1261674,172.442938 37.9191995,172.57929 39.711517,172.524759 C44.1695371,172.549164 48.628913,172.569502 53.0896447,172.585772 C53.4121948,170.984154 53.3648947,169.33004 52.9513485,167.749471 C52.8646191,167.313019 52.6734115,166.904086 52.394096,166.557683 C52.1009358,166.274344 51.7555957,166.050563 51.3772119,165.898742 L48.6275571,164.584928 C46.44329,163.539571 44.714587,162.762671 42.5262523,164.05208 C40.7528064,165.060829 39.2600204,166.675641 37.1937119,166.992909 Z" id="Path" fill="#005E7D" fill-rule="nonzero"></path>
                            <path d="M65.6746029,178.121689 C65.7331767,178.610588 65.6902507,179.106314 65.5485092,179.577867 C65.1824309,180.537806 64.0882636,180.9771 63.1079873,181.25776 C58.6336971,182.514629 53.9234897,182.616317 49.278363,182.709871 C45.7924842,182.779019 42.2049169,182.831897 38.9468201,181.595366 C38.2748255,181.378901 37.6612495,181.01159 37.1530365,180.521536 C36.6366962,180.022487 36.4218014,179.288134 36.5876489,178.589456 C36.8439037,177.727138 37.7509644,177.263439 38.5685392,176.893293 L43.0224918,174.887998 L51.6049939,171.023838 C52.674756,170.543869 53.789261,170.055764 54.9607116,170.088305 C56.3802818,170.133048 57.6452857,170.93842 58.9143571,171.577023 C59.8304819,172.038814 60.7827274,172.425153 61.7616327,172.732203 C62.628018,173.000661 63.8442114,173.033201 64.6089083,173.4969 C65.9959382,174.334813 65.6013872,176.746862 65.6746029,178.121689 Z" id="Path" fill="#005E7D" fill-rule="nonzero"></path>
                            <path d="M38.8898746,93.0735674 C36.6405269,99.4270595 34.3789766,105.825295 33.2807417,112.475717 C32.8739881,114.855226 32.646206,117.255072 32.2109796,119.626446 C31.8042259,121.863591 31.2185007,124.141412 31.6252543,126.378557 C31.8896442,127.838802 32.5607877,129.189225 33.0651623,130.580322 C33.7363058,132.431051 34.1186542,134.375334 34.7531899,136.238265 C35.7375338,139.126216 37.3116704,141.77825 38.3122844,144.658066 C39.2844257,147.452464 39.7155845,150.450238 41.0700742,153.077867 C41.8835815,154.639801 42.994019,156.051236 43.5105962,157.722993 C44.2592053,160.249198 43.5680655,162.982555 41.7086775,164.849318 C41.9486621,165.93535 43.213666,166.476332 44.2549553,166.883086 L48.058102,168.286386 C49.506145,168.819233 51.1372272,169.35208 52.5323922,168.733815 C54.5905657,167.834889 54.9729142,165.117775 54.9119011,162.876562 C54.7085243,157.417928 53.3987775,152.06505 52.0930983,146.760982 C50.8728373,141.879939 49.6891842,136.998895 48.2492762,132.170729 C47.6513484,130.177636 47.0290153,128.192678 46.5449784,126.162977 C44.8010446,118.593407 45.3851824,110.673519 48.2208035,103.441718 C49.8478181,99.3741815 48.3997751,94.3629765 48.5828142,89.9659695 L43.1241802,88.961288 C42.0503505,88.7660462 40.7446713,88.6480876 40.0653927,89.5022703 C39.3861141,90.356453 39.2762906,91.9875352 38.8898746,93.0735674 Z" id="Path" fill="#76661D" fill-rule="nonzero"></path>
                            <path d="M64.7390694,90.1571437 C64.5967057,92.1136288 64.4380717,94.1270594 63.5513488,95.8516949 C63.0103664,96.9173895 62.2253319,97.8366527 61.6111338,98.8616719 C59.9841192,101.623529 59.687189,104.962977 59.6221085,108.188533 C59.5570279,111.515778 59.6749864,114.843023 59.7970125,118.1662 C59.7990791,119.192348 59.9040037,120.215704 60.1102128,121.22092 C60.3135897,122.0629 60.6552627,122.868273 60.8505045,123.710253 C61.3182712,125.744021 60.8871123,127.895748 61.1677723,129.970192 C61.3833518,131.548396 61.9812797,133.037114 62.4571814,134.56244 C63.1581838,136.903277 63.4889356,139.339313 63.4374577,141.782318 C63.2910264,148.396132 65.3776727,154.696746 65.4264831,161.306493 C65.4264831,163.584314 65.3451324,165.866202 65.5363066,168.139955 C65.7396834,170.613017 66.2806658,173.045404 66.5491232,175.514398 C66.6101363,176.083853 66.6182713,176.734659 66.1789774,177.11294 C65.8517228,177.330788 65.4602424,177.431167 65.0685399,177.397668 C63.6592781,177.485527 62.2450191,177.348221 60.8789773,176.990914 C59.6587163,176.620768 58.5767516,175.969962 57.3930984,175.542871 C55.1844261,174.729364 52.446974,174.558527 51.1819701,172.581705 C51.0608269,172.414392 50.9864182,172.217841 50.9663907,172.012249 C50.9663907,171.450929 51.5643185,171.105189 51.8490461,170.617084 C52.0106521,170.298508 52.0916574,169.945157 52.0849632,169.587998 C52.1947867,166.984774 51.0274037,164.527982 50.2505042,162.042717 C49.559367,159.617421 49.0481805,157.14442 48.7211105,154.643868 C47.9076032,149.482164 47.0940959,144.210637 47.944211,139.053001 C48.1516554,137.783929 48.4160452,136.348089 47.6391458,135.327137 C47.2821636,134.940419 46.8899916,134.587736 46.4676952,134.273645 C45.5232534,133.422172 44.9788581,132.21388 44.9667742,130.942333 C44.9667742,126.874796 43.1119776,122.80726 42.933006,118.739723 C42.82725,116.388687 42.9696138,114.033583 42.8597903,111.682547 C42.5669277,105.475486 40.5412945,99.5043427 38.6946329,93.5698069 C38.3831459,92.7194539 38.2034555,91.8264885 38.1617856,90.9218406 C38.1158753,89.9966989 38.4894371,89.1001507 39.1786697,88.4813186 C42.2781326,85.9960538 46.8703813,85.1622088 50.3033822,87.1634368 C50.9867283,87.5701905 51.6171965,88.0379572 52.3371505,88.3836978 C56.071149,90.3401828 60.9521929,88.2820094 64.7390694,90.1571437 Z" id="Path" fill="#8F791D" fill-rule="nonzero"></path>
                            <circle id="Oval" fill="#F8B79D" fill-rule="nonzero" cx="58.3815098" cy="17.4499277" r="8.85909462"></circle>
                            <path d="M38.6173497,90.5883026 C38.9888946,90.9630582 39.4370709,91.2530546 39.931164,91.4384177 L42.6320083,92.6586787 C43.0576909,92.8924843 43.5154391,93.0624268 43.9905655,93.1630532 C44.5942772,93.2189242 45.2030696,93.1749482 45.7924842,93.0328921 C52.0185978,91.911236 58.4050328,92.0315 64.5845031,93.3867677 C66.5735284,90.4052634 66.7484325,86.5533063 66.2115177,83.0145495 C65.9227226,81.1353476 65.4549559,79.1951327 65.9756006,77.3647412 C66.1952475,76.5797067 66.5938661,75.8556852 66.8175806,75.0706506 C67.4277111,72.9311264 66.691487,70.6248332 67.0290925,68.4242959 C67.4358462,65.7275191 69.4004663,63.543252 70.4783635,61.0457846 C71.0818247,59.4986615 71.5221485,57.8927744 71.7921778,56.2542265 C72.1907964,54.2557102 72.5975501,52.2612614 73.0124388,50.2708802 C73.4558003,48.0703429 73.8991618,45.8454004 73.8259461,43.6041878 C73.7323928,40.1833895 72.4795915,36.9171577 71.2430604,33.7241415 C70.7224157,32.3818544 70.1163528,30.9338114 68.8635515,30.217925 C67.3300902,29.3434046 65.3980104,29.8721844 63.7628607,30.5311253 C61.6436741,31.3812404 59.5488928,32.4184623 57.2873425,32.8496211 C56.3111337,33.0367278 54.9729142,32.6991223 54.0902587,32.9594446 C53.3336969,33.1831591 52.8171198,34.2041108 52.3696908,34.8264439 C49.8659764,38.2754729 48.0524932,42.1759121 47.0290153,46.3131671 C45.9999285,50.4945947 45.7680789,54.9404122 43.8644718,58.8005044 C43.4285676,59.653997 42.9451271,60.4823642 42.4164288,61.2817017 C41.3181939,62.981932 40.1304733,64.6292843 39.3861141,66.5044186 C38.2390688,69.4005046 38.2472038,72.5772507 38.3204195,75.7133214 C38.3204195,76.2298985 38.3488923,76.7383406 38.3570273,77.2508502 C38.4383781,80.7950304 38.359739,84.3337872 38.1211102,87.8671206 C38.043827,88.8107891 38.0031517,89.8642811 38.6173497,90.5883026 Z" id="Path" fill="#008AB6"></path>
                            <path d="M14.6839646,68.6683481 C10.2340796,68.8229145 5.64183079,68.9571432 1.4929435,67.3382636 C0.975927867,67.1862738 0.521194746,66.8726647 0.195399341,66.4434056 C-0.211354314,65.7763296 0.0571030984,64.8489312 0.630625753,64.3160839 C1.24582807,63.8203011 1.99822521,63.5250207 2.78642013,63.4700363 C4.95441711,63.1853088 7.15088686,63.6205352 9.29447862,64.0557616 C11.4380704,64.490988 13.4962439,64.9058767 15.3957835,65.8536128 C15.8429282,66.0409004 16.2309116,66.3459453 16.5184235,66.7362682 C17.4295517,68.1558385 15.7130513,68.6317402 14.6839646,68.6683481 Z" id="Path" fill="#F8B79D" fill-rule="nonzero"></path>
                            <path d="M38.3082169,75.7051863 C39.2925607,75.7051863 40.2728371,75.6563759 41.2490458,75.5994304 C42.4020794,75.5703546 43.5470395,75.3982007 44.6576415,75.0869208 C46.3253314,74.5540735 47.7530368,73.4599061 49.111594,72.3657388 C53.3809216,68.9106108 57.3426247,65.0918067 60.9521929,60.9522312 C62.1480487,59.5814714 63.3235667,58.1415635 63.96217,56.4372656 C64.743137,54.3587545 64.6617863,52.0646638 64.4990848,49.8478564 C64.3933288,48.3957459 64.2468975,46.8988924 63.5635514,45.6094833 C63.0062375,44.476326 61.9542347,43.6662838 60.7162758,43.4170811 L62.2497371,43.4740266 C60.7772888,42.5588309 58.906222,42.6849245 57.177519,42.8394909 C55.9897983,42.9452469 54.7654698,43.0632054 53.7160454,43.6529982 C52.4144337,44.3607496 51.5643185,45.6867665 50.8687698,46.9721081 C48.5462064,51.2064136 47.0615556,55.9491612 44.0434434,59.7197676 C43.6464614,60.2426819 43.1844649,60.7128795 42.6686161,61.1190002 C42.5872654,61.1800133 42.5018471,61.2369588 42.4164288,61.2939043 C41.3181939,62.9941346 40.1304733,64.6414869 39.3861141,66.5166212 C38.2268662,69.3923696 38.2350012,72.5691156 38.3082169,75.7051863 Z" id="Path" fill="#000000" fill-rule="nonzero" opacity="0.1"></path>
                            <path d="M60.0654699,41.7615937 C61.5175805,41.6517702 62.8680026,42.6930596 63.5472812,43.9824687 C64.2265598,45.2718778 64.3607885,46.7646637 64.4828146,48.2208418 C64.6455161,50.4376492 64.7268668,52.7317398 63.9458998,54.810251 C63.3072966,56.5145488 62.1317785,57.9544568 60.9359228,59.3252166 C57.3304885,63.4631064 53.374339,67.2818045 49.111594,70.7387242 C47.7530368,71.8410266 46.3253314,72.9270588 44.6576415,73.4599061 C43.5470395,73.7711861 42.4020794,73.94334 41.2490458,73.9724157 C36.8886466,74.2286705 32.418424,74.1147795 28.3142796,72.6301287 C25.0602503,71.4627457 22.0624759,69.4533826 18.6335426,69.2418707 C17.7915625,69.1889927 16.900772,69.2418707 16.1523453,68.8351171 C14.7775179,68.0988929 14.5253306,66.2359612 14.6473567,64.6821622 C14.5824306,64.3477491 14.6740119,64.0020065 14.8959699,63.743584 C15.1179279,63.4851615 15.4458852,63.3424413 15.786267,63.3561453 C22.6441336,62.5060302 29.8029979,64.2469358 36.4127449,62.2253702 C37.9133798,61.7296573 39.3818617,61.1414495 40.8097519,60.4641268 C41.4594995,60.1979709 42.0786359,59.8624917 42.6564135,59.4635128 C43.1720055,59.0584378 43.6327823,58.58809 44.0271733,58.0642803 C47.0452854,54.2936739 48.5340038,49.5509262 50.8565672,45.3166207 C51.5683861,44.015009 52.4185012,42.7052622 53.7038428,41.9975109 C54.7532672,41.4280557 55.9775957,41.3100972 57.1653164,41.1840035 C58.8940194,41.0294372 60.7610187,40.9033435 62.2375345,41.8185392" id="Path" fill="#008AB6"></path>
                            <path d="M64.7731552,18.9146209 C64.3664015,19.3813843 64.1101467,19.9506079 63.6627177,20.3756283 C63.2152887,20.8006486 62.4424567,21.0586967 61.9299471,20.7171625 C61.1367775,20.2048612 61.5516662,18.9487743 60.9374682,18.2581163 C60.5917276,17.8786338 60.0019348,17.7534046 59.578911,17.4346394 C58.578297,16.6756745 58.8467544,15.0970276 57.9518963,14.2128335 C57.0570383,13.3286394 55.6537382,13.5259703 54.4985578,13.9168372 C53.3433774,14.3077041 52.1597243,14.8769277 50.9557335,14.6492383 C49.2514356,14.3228834 48.3647127,12.5848538 47.8766083,11.025181 C47.3885039,9.46550816 47.063101,7.75404236 47.8766083,6.34236768 C48.5477518,5.16976695 49.9103766,4.44495549 51.2567312,4.06547305 C52.6030858,3.68599061 54.0673989,3.61768377 55.470699,3.38240466 C57.3376983,3.06743423 59.1314819,2.46785198 61.0391566,2.29329006 C62.9468312,2.11872814 65.0009372,2.44508303 66.3269541,3.70496473 C68.2875067,5.56063386 67.9539687,8.58890372 68.9301775,11.0289758 C69.4914976,12.4140867 70.4961791,13.6094564 71.094107,14.979388 C72.1475989,17.4080756 71.6269543,20.576754 69.3043909,22.0529407 C68.9447449,22.3216733 68.4912849,22.4568353 68.0312519,22.4324231 C67.0672458,22.3033991 66.7133701,21.1649518 66.7662481,20.2579887 C66.9004768,18.6072401 66.485588,16.903364 64.7731552,18.9146209 Z" id="Path" fill="#E46732" transform="translate(59.497878, 12.342483) rotate(7.000000) translate(-59.497878, -12.342483) "></path>
                        </g>
                    </g>
                </g>
                <g id="code-bubble" transform="translate(118.000000, 13.000000)">
                    <g id="Group-2" transform="translate(52.429118, 52.649718) scale(-1, 1) translate(-52.429118, -52.649718) translate(0.429118, 0.649718)">
                        <circle id="Oval" stroke="#046363" cx="51.8671214" cy="51.8578893" r="51.1875"></circle>
                        <path d="M79.5220588,80.8497256 C79.6993413,80.8497256 79.8430571,81.1183555 79.8430571,81.4497256 C79.8430571,81.7810957 79.6993413,82.0497256 79.5220588,82.0497256 L37.9206154,82.0497256 C37.8057726,82.0501767 37.6995498,81.9359166 37.6420585,81.7500906 C37.5845671,81.5642645 37.5845671,81.3351867 37.6420585,81.1493607 C37.6995498,80.9635346 37.8057726,80.8492746 37.9206154,80.8497256 L79.5220588,80.8497256 Z M31.6290393,80.8497256 C31.7438821,80.8492746 31.8501049,80.9635346 31.9075962,81.1493607 C31.9650876,81.3351867 31.9650876,81.5642645 31.9075962,81.7500906 C31.8501049,81.9359166 31.7438821,82.0501767 31.6290393,82.0497256 L24.0534686,82.0497256 C23.9386258,82.0501767 23.832403,81.9359166 23.7749116,81.7500906 C23.7174202,81.5642645 23.7174202,81.3351867 23.7749116,81.1493607 C23.832403,80.9635346 23.9386258,80.8492746 24.0534686,80.8497256 L31.6290393,80.8497256 Z M50.5037677,76.4364075 C50.6186105,76.4359564 50.7248333,76.5502165 50.7823247,76.7360425 C50.8398161,76.9218686 50.8398161,77.1509464 50.7823247,77.3367724 C50.7248333,77.5225985 50.6186105,77.6368585 50.5037677,77.6364075 L24.0534686,77.6364075 C23.9386258,77.6368585 23.832403,77.5225985 23.7749116,77.3367724 C23.7174202,77.1509464 23.7174202,76.9218686 23.7749116,76.7360425 C23.832403,76.5502165 23.9386258,76.4359564 24.0534686,76.4364075 L50.5037677,76.4364075 Z M61.8029255,76.4364083 C61.980208,76.4364083 62.1239238,76.7050375 62.1239238,77.0364083 C62.1239238,77.3677792 61.980208,77.6364083 61.8029255,77.6364083 L54.2273534,77.6364083 C54.050071,77.6364083 53.9063552,77.3677792 53.9063552,77.0364083 C53.9063552,76.7050375 54.050071,76.4364083 54.2273534,76.4364083 L61.8029255,76.4364083 Z M61.8029255,72.1807084 C61.9802084,72.1807084 62.1239245,72.4493376 62.1239245,72.7807084 C62.1239245,73.1120793 61.9802084,73.3807084 61.8029255,73.3807084 L54.2273534,73.3807084 C54.0500706,73.3807084 53.9063544,73.1120793 53.9063544,72.7807084 C53.9063544,72.4493376 54.0500706,72.1807084 54.2273534,72.1807084 L61.8029255,72.1807084 Z M74.5144772,72.1807084 C74.69176,72.1807084 74.8354762,72.4493376 74.8354762,72.7807084 C74.8354762,73.1120793 74.69176,73.3807084 74.5144772,73.3807084 L66.9389065,73.3807084 C66.7616236,73.3807084 66.6179075,73.1120793 66.6179075,72.7807084 C66.6179075,72.4493376 66.7616236,72.1807084 66.9389065,72.1807084 L74.5144772,72.1807084 Z M50.4395688,72.1018984 C50.6168516,72.1018984 50.7605678,72.3705276 50.7605678,72.7018984 C50.7605678,73.0332693 50.6168516,73.3018984 50.4395688,73.3018984 L23.9892682,73.3018984 C23.8119854,73.3018984 23.6682692,73.0332693 23.6682692,72.7018984 C23.6682692,72.3705276 23.8119854,72.1018984 23.9892682,72.1018984 L50.4395688,72.1018984 Z M79.5220588,67.7673903 C79.6993417,67.7673903 79.8430578,68.0360194 79.8430578,68.3673903 C79.8430578,68.6987611 79.6993417,68.9673903 79.5220588,68.9673903 L37.9206154,68.9673903 C37.7433326,68.9673903 37.5996164,68.6987611 37.5996164,68.3673903 C37.5996164,68.0360194 37.7433326,67.7673903 37.9206154,67.7673903 L79.5220588,67.7673903 Z M31.6290393,67.7673903 C31.8063221,67.7673903 31.9500383,68.0360194 31.9500383,68.3673903 C31.9500383,68.6987611 31.8063221,68.9673903 31.6290393,68.9673903 L24.0534686,68.9673903 C23.8761857,68.9673903 23.7324696,68.6987611 23.7324696,68.3673903 C23.7324696,68.0360194 23.8761857,67.7673903 24.0534686,67.7673903 L31.6290393,67.7673903 Z M50.5679681,63.4328803 C50.745251,63.4328803 50.8889671,63.7015095 50.8889671,64.0328803 C50.8889671,64.3642512 50.745251,64.6328803 50.5679681,64.6328803 L24.1176675,64.6328803 C23.9403847,64.6328803 23.7966685,64.3642512 23.7966685,64.0328803 C23.7966685,63.7015095 23.9403847,63.4328803 24.1176675,63.4328803 L50.5679681,63.4328803 Z" id="Combined-Shape" fill="#007373" opacity="0.8" transform="translate(51.755664, 72.741304) scale(-1, 1) translate(-51.755664, -72.741304) "></path>
                        <path d="M68.6368934,29.7892224 L80.0659736,40.8235558 L68.6368934,51.8578893 L65.9665475,49.280338 L74.7252819,40.8235558 L65.9665475,32.3667737 L68.6368934,29.7892224 Z M34.5919188,29.7892224 L37.1461627,32.3667737 L28.7682428,40.8235558 L37.1546768,49.280338 L34.6004329,51.8578893 L23.6682692,40.8235558 L34.5919188,29.7892224 Z M45.3963703,38.3714817 L45.3963703,41.4365744 L42.058825,41.4365744 L42.058825,38.3714817 L45.3963703,38.3714817 Z M59.2233437,38.3714817 L59.2233437,41.4365744 L55.8857984,41.4365744 L55.8857984,38.3714817 L59.2233437,38.3714817 Z M52.5482531,38.3714817 L52.5482531,41.4365744 L49.2107078,41.4365744 L49.2107078,38.3714817 L52.5482531,38.3714817 Z" id="Combined-Shape" fill="#007373" opacity="0.8"></path>
                    </g>
                </g>
                <path d="M118,146 C143.819312,146 164.75,166.930688 164.75,192.75 C164.75,218.569312 143.819312,239.5 118,239.5 L118.363951,239.496003 C118.189444,239.443438 118.0044,239.415186 117.812758,239.415186 C117.624661,239.415186 117.442921,239.442402 117.27126,239.493111 C91.7883001,239.105322 71.25,218.32615 71.25,192.75 C71.25,166.930688 92.1806879,146 118,146 Z M93.3251417,225.835957 C92.2712923,225.835957 91.4169785,226.690271 91.4169785,227.74412 C91.4169785,228.79797 92.2712923,229.652283 93.3251417,229.652283 C94.3789912,229.652283 95.233305,228.79797 95.233305,227.74412 C95.233305,226.690271 94.3789912,225.835957 93.3251417,225.835957 Z M142.300375,225.835957 C141.246525,225.835957 140.392212,226.690271 140.392212,227.74412 C140.392212,228.79797 141.246525,229.652283 142.300375,229.652283 C143.354224,229.652283 144.208538,228.79797 144.208538,227.74412 C144.208538,226.690271 143.354224,225.835957 142.300375,225.835957 Z M130.056567,225.835957 C129.002717,225.835957 128.148403,226.690271 128.148403,227.74412 C128.148403,228.79797 129.002717,229.652283 130.056567,229.652283 C131.110416,229.652283 131.96473,228.79797 131.96473,227.74412 C131.96473,226.690271 131.110416,225.835957 130.056567,225.835957 Z M105.56895,225.835957 C104.515101,225.835957 103.660787,226.690271 103.660787,227.74412 C103.660787,228.79797 104.515101,229.652283 105.56895,229.652283 C106.622799,229.652283 107.477113,228.79797 107.477113,227.74412 C107.477113,226.690271 106.622799,225.835957 105.56895,225.835957 Z M117.812758,225.835957 C116.758909,225.835957 115.904595,226.690271 115.904595,227.74412 C115.904595,228.79797 116.758909,229.652283 117.812758,229.652283 C118.866608,229.652283 119.720922,228.79797 119.720922,227.74412 C119.720922,226.690271 118.866608,225.835957 117.812758,225.835957 Z M130.056567,212.256728 C129.002717,212.256728 128.148403,213.111041 128.148403,214.164891 C128.148403,215.21874 129.002717,216.073054 130.056567,216.073054 C131.110416,216.073054 131.96473,215.21874 131.96473,214.164891 C131.96473,213.111041 131.110416,212.256728 130.056567,212.256728 Z M142.300375,212.256728 C141.246525,212.256728 140.392212,213.111041 140.392212,214.164891 C140.392212,215.21874 141.246525,216.073054 142.300375,216.073054 C143.354224,216.073054 144.208538,215.21874 144.208538,214.164891 C144.208538,213.111041 143.354224,212.256728 142.300375,212.256728 Z M154.544183,212.256728 C153.490334,212.256728 152.63602,213.111041 152.63602,214.164891 C152.63602,215.21874 153.490334,216.073054 154.544183,216.073054 C155.598033,216.073054 156.452346,215.21874 156.452346,214.164891 C156.452346,213.111041 155.598033,212.256728 154.544183,212.256728 Z M105.56895,212.256728 C104.515101,212.256728 103.660787,213.111041 103.660787,214.164891 C103.660787,215.21874 104.515101,216.073054 105.56895,216.073054 C106.622799,216.073054 107.477113,215.21874 107.477113,214.164891 C107.477113,213.111041 106.622799,212.256728 105.56895,212.256728 Z M117.812758,212.256728 C116.758909,212.256728 115.904595,213.111041 115.904595,214.164891 C115.904595,215.21874 116.758909,216.073054 117.812758,216.073054 C118.866608,216.073054 119.720922,215.21874 119.720922,214.164891 C119.720922,213.111041 118.866608,212.256728 117.812758,212.256728 Z M81.0813334,212.256728 C80.027484,212.256728 79.1731702,213.111041 79.1731702,214.164891 C79.1731702,215.21874 80.027484,216.073054 81.0813334,216.073054 C82.1351829,216.073054 82.9894967,215.21874 82.9894967,214.164891 C82.9894967,213.111041 82.1351829,212.256728 81.0813334,212.256728 Z M93.3251417,212.256728 C92.2712923,212.256728 91.4169785,213.111041 91.4169785,214.164891 C91.4169785,215.21874 92.2712923,216.073054 93.3251417,216.073054 C94.3789912,216.073054 95.233305,215.21874 95.233305,214.164891 C95.233305,213.111041 94.3789912,212.256728 93.3251417,212.256728 Z M130.056567,198.211039 C129.002717,198.211039 128.148403,199.065353 128.148403,200.119203 C128.148403,201.173052 129.002717,202.027366 130.056567,202.027366 C131.110416,202.027366 131.96473,201.173052 131.96473,200.119203 C131.96473,199.065353 131.110416,198.211039 130.056567,198.211039 Z M142.300375,198.211039 C141.246525,198.211039 140.392212,199.065353 140.392212,200.119203 C140.392212,201.173052 141.246525,202.027366 142.300375,202.027366 C143.354224,202.027366 144.208538,201.173052 144.208538,200.119203 C144.208538,199.065353 143.354224,198.211039 142.300375,198.211039 Z M154.544183,198.211039 C153.490334,198.211039 152.63602,199.065353 152.63602,200.119203 C152.63602,201.173052 153.490334,202.027366 154.544183,202.027366 C155.598033,202.027366 156.452346,201.173052 156.452346,200.119203 C156.452346,199.065353 155.598033,198.211039 154.544183,198.211039 Z M105.56895,198.211039 C104.515101,198.211039 103.660787,199.065353 103.660787,200.119203 C103.660787,201.173052 104.515101,202.027366 105.56895,202.027366 C106.622799,202.027366 107.477113,201.173052 107.477113,200.119203 C107.477113,199.065353 106.622799,198.211039 105.56895,198.211039 Z M117.812758,198.211039 C116.758909,198.211039 115.904595,199.065353 115.904595,200.119203 C115.904595,201.173052 116.758909,202.027366 117.812758,202.027366 C118.866608,202.027366 119.720922,201.173052 119.720922,200.119203 C119.720922,199.065353 118.866608,198.211039 117.812758,198.211039 Z M81.0813334,198.211039 C80.027484,198.211039 79.1731702,199.065353 79.1731702,200.119203 C79.1731702,201.173052 80.027484,202.027366 81.0813334,202.027366 C82.1351829,202.027366 82.9894967,201.173052 82.9894967,200.119203 C82.9894967,199.065353 82.1351829,198.211039 81.0813334,198.211039 Z M93.3251417,198.211039 C92.2712923,198.211039 91.4169785,199.065353 91.4169785,200.119203 C91.4169785,201.173052 92.2712923,202.027366 93.3251417,202.027366 C94.3789912,202.027366 95.233305,201.173052 95.233305,200.119203 C95.233305,199.065353 94.3789912,198.211039 93.3251417,198.211039 Z M130.056567,184.63181 C129.002717,184.63181 128.148403,185.486124 128.148403,186.539973 C128.148403,187.593823 129.002717,188.448137 130.056567,188.448137 C131.110416,188.448137 131.96473,187.593823 131.96473,186.539973 C131.96473,185.486124 131.110416,184.63181 130.056567,184.63181 Z M142.300375,184.63181 C141.246525,184.63181 140.392212,185.486124 140.392212,186.539973 C140.392212,187.593823 141.246525,188.448137 142.300375,188.448137 C143.354224,188.448137 144.208538,187.593823 144.208538,186.539973 C144.208538,185.486124 143.354224,184.63181 142.300375,184.63181 Z M154.544183,184.63181 C153.490334,184.63181 152.63602,185.486124 152.63602,186.539973 C152.63602,187.593823 153.490334,188.448137 154.544183,188.448137 C155.598033,188.448137 156.452346,187.593823 156.452346,186.539973 C156.452346,185.486124 155.598033,184.63181 154.544183,184.63181 Z M105.56895,184.63181 C104.515101,184.63181 103.660787,185.486124 103.660787,186.539973 C103.660787,187.593823 104.515101,188.448137 105.56895,188.448137 C106.622799,188.448137 107.477113,187.593823 107.477113,186.539973 C107.477113,185.486124 106.622799,184.63181 105.56895,184.63181 Z M117.812758,184.63181 C116.758909,184.63181 115.904595,185.486124 115.904595,186.539973 C115.904595,187.593823 116.758909,188.448137 117.812758,188.448137 C118.866608,188.448137 119.720922,187.593823 119.720922,186.539973 C119.720922,185.486124 118.866608,184.63181 117.812758,184.63181 Z M81.0813334,184.63181 C80.027484,184.63181 79.1731702,185.486124 79.1731702,186.539973 C79.1731702,187.593823 80.027484,188.448137 81.0813334,188.448137 C82.1351829,188.448137 82.9894967,187.593823 82.9894967,186.539973 C82.9894967,185.486124 82.1351829,184.63181 81.0813334,184.63181 Z M93.3251417,184.63181 C92.2712923,184.63181 91.4169785,185.486124 91.4169785,186.539973 C91.4169785,187.593823 92.2712923,188.448137 93.3251417,188.448137 C94.3789912,188.448137 95.233305,187.593823 95.233305,186.539973 C95.233305,185.486124 94.3789912,184.63181 93.3251417,184.63181 Z M130.056567,171.052581 C129.002717,171.052581 128.148403,171.906895 128.148403,172.960744 C128.148403,174.014594 129.002717,174.868908 130.056567,174.868908 C131.110416,174.868908 131.96473,174.014594 131.96473,172.960744 C131.96473,171.906895 131.110416,171.052581 130.056567,171.052581 Z M142.300375,171.052581 C141.246525,171.052581 140.392212,171.906895 140.392212,172.960744 C140.392212,174.014594 141.246525,174.868908 142.300375,174.868908 C143.354224,174.868908 144.208538,174.014594 144.208538,172.960744 C144.208538,171.906895 143.354224,171.052581 142.300375,171.052581 Z M154.544183,171.052581 C153.490334,171.052581 152.63602,171.906895 152.63602,172.960744 C152.63602,174.014594 153.490334,174.868908 154.544183,174.868908 C155.598033,174.868908 156.452346,174.014594 156.452346,172.960744 C156.452346,171.906895 155.598033,171.052581 154.544183,171.052581 Z M105.56895,171.052581 C104.515101,171.052581 103.660787,171.906895 103.660787,172.960744 C103.660787,174.014594 104.515101,174.868908 105.56895,174.868908 C106.622799,174.868908 107.477113,174.014594 107.477113,172.960744 C107.477113,171.906895 106.622799,171.052581 105.56895,171.052581 Z M117.812758,171.052581 C116.758909,171.052581 115.904595,171.906895 115.904595,172.960744 C115.904595,174.014594 116.758909,174.868908 117.812758,174.868908 C118.866608,174.868908 119.720922,174.014594 119.720922,172.960744 C119.720922,171.906895 118.866608,171.052581 117.812758,171.052581 Z M81.0813334,171.052581 C80.027484,171.052581 79.1731702,171.906895 79.1731702,172.960744 C79.1731702,174.014594 80.027484,174.868908 81.0813334,174.868908 C82.1351829,174.868908 82.9894967,174.014594 82.9894967,172.960744 C82.9894967,171.906895 82.1351829,171.052581 81.0813334,171.052581 Z M93.3251417,171.052581 C92.2712923,171.052581 91.4169785,171.906895 91.4169785,172.960744 C91.4169785,174.014594 92.2712923,174.868908 93.3251417,174.868908 C94.3789912,174.868908 95.233305,174.014594 95.233305,172.960744 C95.233305,171.906895 94.3789912,171.052581 93.3251417,171.052581 Z M130.056567,157.473352 C129.002717,157.473352 128.148403,158.327666 128.148403,159.381515 C128.148403,160.435364 129.002717,161.289678 130.056567,161.289678 C131.110416,161.289678 131.96473,160.435364 131.96473,159.381515 C131.96473,158.327666 131.110416,157.473352 130.056567,157.473352 Z M142.300375,157.473352 C141.246525,157.473352 140.392212,158.327666 140.392212,159.381515 C140.392212,160.435364 141.246525,161.289678 142.300375,161.289678 C143.354224,161.289678 144.208538,160.435364 144.208538,159.381515 C144.208538,158.327666 143.354224,157.473352 142.300375,157.473352 Z M105.56895,157.473352 C104.515101,157.473352 103.660787,158.327666 103.660787,159.381515 C103.660787,160.435364 104.515101,161.289678 105.56895,161.289678 C106.622799,161.289678 107.477113,160.435364 107.477113,159.381515 C107.477113,158.327666 106.622799,157.473352 105.56895,157.473352 Z M117.812758,157.473352 C116.758909,157.473352 115.904595,158.327666 115.904595,159.381515 C115.904595,160.435364 116.758909,161.289678 117.812758,161.289678 C118.866608,161.289678 119.720922,160.435364 119.720922,159.381515 C119.720922,158.327666 118.866608,157.473352 117.812758,157.473352 Z M93.3251417,157.473352 C92.2712923,157.473352 91.4169785,158.327666 91.4169785,159.381515 C91.4169785,160.435364 92.2712923,161.289678 93.3251417,161.289678 C94.3789912,161.289678 95.233305,160.435364 95.233305,159.381515 C95.233305,158.327666 94.3789912,157.473352 93.3251417,157.473352 Z" id="Data-bubble" fill="#0D3E40"></path>
            </g>
        </g>
    </g>
</svg>