<?xml version="1.0" encoding="UTF-8"?>
<svg width="586px" height="294px" viewBox="0 0 586 294" version="1.1" xmlns="http://www.w3.org/2000/svg" xmlns:xlink="http://www.w3.org/1999/xlink">
    <!-- Generator: Sketch 59.1 (86144) - https://sketch.com -->
    <title>Illlustration</title>
    <desc>Created with Sketch.</desc>
    <defs>
        <path d="M8.4188493,25.0183443 C8.52101453,29.9109541 8.56941457,33.8948371 8.5640494,36.9699934 C10.8426206,40.7811016 19.9694481,42.2567858 25.5601151,38.3668156 C23.8257221,35.9952197 22.2062397,33.9482304 20.2865361,29.3566534 C18.9387606,26.1330231 16.3279338,29.5411251 8.4188493,25.0183443 Z" id="path-1"></path>
    </defs>
    <g id="Vantage-Launcher" stroke="none" stroke-width="1" fill="none" fill-rule="evenodd">
        <g id="Vantage-Launcher---Slide-1" transform="translate(-732.000000, -68.000000)">
            <g id="Illlustration" transform="translate(732.000000, 64.000000)">
                <path d="M190.056855,135.759074 C274.22881,135.759074 346.806861,185.398481 380.11371,257 L2.48689958e-14,257 C33.3068493,185.398481 105.8849,135.759074 190.056855,135.759074 Z" id="Planet" fill="#102E30" opacity="0.6"></path>
                <g id="Chart" transform="translate(450.000000, 174.000000)">
                    <path d="M6.26388002,0.410254329 C9.57758851,0.410254329 12.26388,3.09654583 12.26388,6.41025433 C12.26388,9.47591834 9.96469645,12.0045793 6.99660345,12.3659629 L6.99626646,82.4102543 L5.49626646,82.4102543 L5.49606847,12.3615859 C2.5449629,11.9846243 0.263880015,9.46382704 0.263880015,6.41025433 C0.263880015,3.09654583 2.95017152,0.410254329 6.26388002,0.410254329 Z M24.9962665,11.8104978 L24.9966035,12.4545457 C27.9646964,12.8159294 30.26388,15.3445903 30.26388,18.4102543 C30.26388,21.4759183 27.9646964,24.0045793 24.9966035,24.3659629 L24.9962665,82.4102543 L23.4962665,82.4102543 L23.4960685,24.3615859 C20.5449629,23.9846243 18.26388,21.463827 18.26388,18.4102543 C18.26388,15.3566816 20.5449629,12.8358844 23.4960685,12.4589228 L23.4962665,11.8104978 L24.9962665,11.8104978 Z M42.26388,8.41025433 C45.5775885,8.41025433 48.26388,11.0965458 48.26388,14.4102543 C48.26388,17.3014402 46.2189588,19.7150092 43.4965777,20.2835 L43.4962665,82.4102543 L41.4962665,82.4102543 L41.4960685,20.3615859 C38.5449629,19.9846243 36.26388,17.463827 36.26388,14.4102543 C36.26388,11.0965458 38.9501715,8.41025433 42.26388,8.41025433 Z M60.26388,21.4102543 C63.5775885,21.4102543 66.26388,24.0965458 66.26388,27.4102543 C66.26388,30.3014402 64.2189588,32.7150092 61.4965777,33.2835 L61.4962665,82.4102543 L59.9962665,82.4102543 L59.9958038,33.4043726 C56.8064969,33.2641443 54.26388,30.6341293 54.26388,27.4102543 C54.26388,24.0965458 56.9501715,21.4102543 60.26388,21.4102543 Z M96.26388,37.4102543 C99.5775885,37.4102543 102.26388,40.0965458 102.26388,43.4102543 C102.26388,46.3014402 100.218959,48.7150092 97.4965777,49.2835 L97.4962665,82.4102543 L95.9962665,82.4102543 L95.9958038,49.4043726 C92.8064969,49.2641443 90.26388,46.6341293 90.26388,43.4102543 C90.26388,40.0965458 92.9501715,37.4102543 96.26388,37.4102543 Z M78.26388,43.4102543 C78.6153339,43.4102543 78.9597302,43.440472 79.2946123,43.4984511 L79.4962665,43.4993995 L79.4965777,43.5370086 C82.2189588,44.1054994 84.26388,46.5190684 84.26388,49.4102543 C84.26388,52.3014402 82.2189588,54.7150092 79.4965777,55.2835 L79.4962665,82.4102543 L77.9962665,82.4102543 L77.9958038,55.4043726 C74.8064969,55.2641443 72.26388,52.6341293 72.26388,49.4102543 C72.26388,46.0965458 74.9501715,43.4102543 78.26388,43.4102543 Z" id="Combined-Shape" fill="#008383" opacity="0.6"></path>
                    <path d="M42.26388,20.4102543 C45.56388,20.4102543 48.26388,17.7102543 48.26388,14.4102543 C48.26388,11.1102543 45.56388,8.41025433 42.26388,8.41025433 C38.96388,8.41025433 36.26388,11.1102543 36.26388,14.4102543 C36.26388,17.7102543 38.96388,20.4102543 42.26388,20.4102543 Z" id="Path" fill="#00B2B1"></path>
                </g>
                <g id="solar-system" transform="translate(123.324701, 35.803660)">
                    <path d="M132.993823,5.85621271 C206.327143,5.85621271 265.987645,65.5170231 265.987645,138.850035 C265.987645,169.464081 255.590137,197.695419 238.14096,220.198096 L236.510577,220.198317 C254.161233,197.786103 264.702681,169.525937 264.702681,138.850035 C264.702681,66.2253855 205.618158,7.14117718 132.993823,7.14117718 C60.3694876,7.14117718 1.28496447,66.2253855 1.28496447,138.850035 C1.28496447,169.525937 11.8264129,197.786103 29.4770688,220.198317 L27.8466879,220.198096 C10.3975092,197.695419 1.13686838e-13,169.464081 1.13686838e-13,138.850035 C1.13686838e-13,65.5170231 59.660502,5.85621271 132.993823,5.85621271 Z M132.993823,43.1201824 C185.779636,43.1201824 228.723676,86.0645366 228.723676,138.850035 C228.723676,173.146868 210.594566,203.289063 183.415976,220.19682 L180.93597,220.19885 C208.747966,203.745352 227.438711,173.43928 227.438711,138.850035 C227.438711,86.772899 185.070651,44.4051468 132.993823,44.4051468 C80.9170011,44.4051468 38.5489341,86.772899 38.5489341,138.850035 C38.5489341,173.43928 57.2396792,203.745352 85.0516751,220.19885 L82.571643,220.196803 C55.3930673,203.289043 37.2639697,173.146857 37.2639697,138.850035 C37.2639697,86.0645366 80.2080091,43.1201824 132.993823,43.1201824 Z" id="Combined-Shape" fill="#055D5D"></path>
                    <path d="M132.966674,80.8230278 C164.999189,80.8230278 190.966674,106.790512 190.966674,138.823028 C190.966674,170.855543 164.999189,196.823028 132.966674,196.823028 C100.934158,196.823028 74.9666738,170.855543 74.9666738,138.823028 C74.9666738,106.790512 100.934158,80.8230278 132.966674,80.8230278 Z M133.202039,186.619519 C132.114638,186.619519 131.233125,187.501032 131.233125,188.588433 C131.233125,189.675834 132.114638,190.557347 133.202039,190.557347 C134.28944,190.557347 135.170952,189.675834 135.170952,188.588433 C135.170952,187.501032 134.28944,186.619519 133.202039,186.619519 Z M145.835654,186.619519 C144.748253,186.619519 143.86674,187.501032 143.86674,188.588433 C143.86674,189.675834 144.748253,190.557347 145.835654,190.557347 C146.923055,190.557347 147.804567,189.675834 147.804567,188.588433 C147.804567,187.501032 146.923055,186.619519 145.835654,186.619519 Z M158.469269,186.619519 C157.381868,186.619519 156.500355,187.501032 156.500355,188.588433 C156.500355,189.675834 157.381868,190.557347 158.469269,190.557347 C159.55667,190.557347 160.438182,189.675834 160.438182,188.588433 C160.438182,187.501032 159.55667,186.619519 158.469269,186.619519 Z M107.934809,186.619519 C106.847408,186.619519 105.965895,187.501032 105.965895,188.588433 C105.965895,189.675834 106.847408,190.557347 107.934809,190.557347 C109.022209,190.557347 109.903722,189.675834 109.903722,188.588433 C109.903722,187.501032 109.022209,186.619519 107.934809,186.619519 Z M120.568424,186.619519 C119.481023,186.619519 118.59951,187.501032 118.59951,188.588433 C118.59951,189.675834 119.481023,190.557347 120.568424,190.557347 C121.655825,190.557347 122.537337,189.675834 122.537337,188.588433 C122.537337,187.501032 121.655825,186.619519 120.568424,186.619519 Z M120.568424,172.607968 C119.481023,172.607968 118.59951,173.48948 118.59951,174.576881 C118.59951,175.664282 119.481023,176.545795 120.568424,176.545795 C121.655825,176.545795 122.537337,175.664282 122.537337,174.576881 C122.537337,173.48948 121.655825,172.607968 120.568424,172.607968 Z M95.3011935,172.607968 C94.2137926,172.607968 93.3322799,173.48948 93.3322799,174.576881 C93.3322799,175.664282 94.2137926,176.545795 95.3011935,176.545795 C96.3885944,176.545795 97.270107,175.664282 97.270107,174.576881 C97.270107,173.48948 96.3885944,172.607968 95.3011935,172.607968 Z M171.102884,172.607968 C170.015483,172.607968 169.13397,173.48948 169.13397,174.576881 C169.13397,175.664282 170.015483,176.545795 171.102884,176.545795 C172.190285,176.545795 173.071797,175.664282 173.071797,174.576881 C173.071797,173.48948 172.190285,172.607968 171.102884,172.607968 Z M133.202039,172.607968 C132.114638,172.607968 131.233125,173.48948 131.233125,174.576881 C131.233125,175.664282 132.114638,176.545795 133.202039,176.545795 C134.28944,176.545795 135.170952,175.664282 135.170952,174.576881 C135.170952,173.48948 134.28944,172.607968 133.202039,172.607968 Z M145.835654,172.607968 C144.748253,172.607968 143.86674,173.48948 143.86674,174.576881 C143.86674,175.664282 144.748253,176.545795 145.835654,176.545795 C146.923055,176.545795 147.804567,175.664282 147.804567,174.576881 C147.804567,173.48948 146.923055,172.607968 145.835654,172.607968 Z M158.469269,172.607968 C157.381868,172.607968 156.500355,173.48948 156.500355,174.576881 C156.500355,175.664282 157.381868,176.545795 158.469269,176.545795 C159.55667,176.545795 160.438182,175.664282 160.438182,174.576881 C160.438182,173.48948 159.55667,172.607968 158.469269,172.607968 Z M107.934809,172.607968 C106.847408,172.607968 105.965895,173.48948 105.965895,174.576881 C105.965895,175.664282 106.847408,176.545795 107.934809,176.545795 C109.022209,176.545795 109.903722,175.664282 109.903722,174.576881 C109.903722,173.48948 109.022209,172.607968 107.934809,172.607968 Z M171.102884,158.596416 C170.015483,158.596416 169.13397,159.477928 169.13397,160.565329 C169.13397,161.65273 170.015483,162.534243 171.102884,162.534243 C172.190285,162.534243 173.071797,161.65273 173.071797,160.565329 C173.071797,159.477928 172.190285,158.596416 171.102884,158.596416 Z M82.6675784,158.596416 C81.5801775,158.596416 80.6986649,159.477928 80.6986649,160.565329 C80.6986649,161.65273 81.5801775,162.534243 82.6675784,162.534243 C83.7549794,162.534243 84.636492,161.65273 84.636492,160.565329 C84.636492,159.477928 83.7549794,158.596416 82.6675784,158.596416 Z M95.3011935,158.596416 C94.2137926,158.596416 93.3322799,159.477928 93.3322799,160.565329 C93.3322799,161.65273 94.2137926,162.534243 95.3011935,162.534243 C96.3885944,162.534243 97.270107,161.65273 97.270107,160.565329 C97.270107,159.477928 96.3885944,158.596416 95.3011935,158.596416 Z M145.835654,158.596416 C144.748253,158.596416 143.86674,159.477928 143.86674,160.565329 C143.86674,161.65273 144.748253,162.534243 145.835654,162.534243 C146.923055,162.534243 147.804567,161.65273 147.804567,160.565329 C147.804567,159.477928 146.923055,158.596416 145.835654,158.596416 Z M158.469269,158.596416 C157.381868,158.596416 156.500355,159.477928 156.500355,160.565329 C156.500355,161.65273 157.381868,162.534243 158.469269,162.534243 C159.55667,162.534243 160.438182,161.65273 160.438182,160.565329 C160.438182,159.477928 159.55667,158.596416 158.469269,158.596416 Z M133.202039,158.596416 C132.114638,158.596416 131.233125,159.477928 131.233125,160.565329 C131.233125,161.65273 132.114638,162.534243 133.202039,162.534243 C134.28944,162.534243 135.170952,161.65273 135.170952,160.565329 C135.170952,159.477928 134.28944,158.596416 133.202039,158.596416 Z M107.934809,158.596416 C106.847408,158.596416 105.965895,159.477928 105.965895,160.565329 C105.965895,161.65273 106.847408,162.534243 107.934809,162.534243 C109.022209,162.534243 109.903722,161.65273 109.903722,160.565329 C109.903722,159.477928 109.022209,158.596416 107.934809,158.596416 Z M183.736499,158.596416 C182.649098,158.596416 181.767585,159.477928 181.767585,160.565329 C181.767585,161.65273 182.649098,162.534243 183.736499,162.534243 C184.8239,162.534243 185.705412,161.65273 185.705412,160.565329 C185.705412,159.477928 184.8239,158.596416 183.736499,158.596416 Z M120.568424,158.596416 C119.481023,158.596416 118.59951,159.477928 118.59951,160.565329 C118.59951,161.65273 119.481023,162.534243 120.568424,162.534243 C121.655825,162.534243 122.537337,161.65273 122.537337,160.565329 C122.537337,159.477928 121.655825,158.596416 120.568424,158.596416 Z M171.102884,144.584864 C170.015483,144.584864 169.13397,145.466376 169.13397,146.553777 C169.13397,147.641178 170.015483,148.522691 171.102884,148.522691 C172.190285,148.522691 173.071797,147.641178 173.071797,146.553777 C173.071797,145.466376 172.190285,144.584864 171.102884,144.584864 Z M183.736499,144.584864 C182.649098,144.584864 181.767585,145.466376 181.767585,146.553777 C181.767585,147.641178 182.649098,148.522691 183.736499,148.522691 C184.8239,148.522691 185.705412,147.641178 185.705412,146.553777 C185.705412,145.466376 184.8239,144.584864 183.736499,144.584864 Z M133.202039,144.584864 C132.114638,144.584864 131.233125,145.466376 131.233125,146.553777 C131.233125,147.641178 132.114638,148.522691 133.202039,148.522691 C134.28944,148.522691 135.170952,147.641178 135.170952,146.553777 C135.170952,145.466376 134.28944,144.584864 133.202039,144.584864 Z M145.835654,144.584864 C144.748253,144.584864 143.86674,145.466376 143.86674,146.553777 C143.86674,147.641178 144.748253,148.522691 145.835654,148.522691 C146.923055,148.522691 147.804567,147.641178 147.804567,146.553777 C147.804567,145.466376 146.923055,144.584864 145.835654,144.584864 Z M158.469269,144.584864 C157.381868,144.584864 156.500355,145.466376 156.500355,146.553777 C156.500355,147.641178 157.381868,148.522691 158.469269,148.522691 C159.55667,148.522691 160.438182,147.641178 160.438182,146.553777 C160.438182,145.466376 159.55667,144.584864 158.469269,144.584864 Z M107.934809,144.584864 C106.847408,144.584864 105.965895,145.466376 105.965895,146.553777 C105.965895,147.641178 106.847408,148.522691 107.934809,148.522691 C109.022209,148.522691 109.903722,147.641178 109.903722,146.553777 C109.903722,145.466376 109.022209,144.584864 107.934809,144.584864 Z M120.568424,144.584864 C119.481023,144.584864 118.59951,145.466376 118.59951,146.553777 C118.59951,147.641178 119.481023,148.522691 120.568424,148.522691 C121.655825,148.522691 122.537337,147.641178 122.537337,146.553777 C122.537337,145.466376 121.655825,144.584864 120.568424,144.584864 Z M82.6675784,144.584864 C81.5801775,144.584864 80.6986649,145.466376 80.6986649,146.553777 C80.6986649,147.641178 81.5801775,148.522691 82.6675784,148.522691 C83.7549794,148.522691 84.636492,147.641178 84.636492,146.553777 C84.636492,145.466376 83.7549794,144.584864 82.6675784,144.584864 Z M95.3011935,144.584864 C94.2137926,144.584864 93.3322799,145.466376 93.3322799,146.553777 C93.3322799,147.641178 94.2137926,148.522691 95.3011935,148.522691 C96.3885944,148.522691 97.270107,147.641178 97.270107,146.553777 C97.270107,145.466376 96.3885944,144.584864 95.3011935,144.584864 Z M171.102884,130.092002 C170.015483,130.092002 169.13397,130.973515 169.13397,132.060916 C169.13397,133.148317 170.015483,134.029829 171.102884,134.029829 C172.190285,134.029829 173.071797,133.148317 173.071797,132.060916 C173.071797,130.973515 172.190285,130.092002 171.102884,130.092002 Z M183.736499,130.092002 C182.649098,130.092002 181.767585,130.973515 181.767585,132.060916 C181.767585,133.148317 182.649098,134.029829 183.736499,134.029829 C184.8239,134.029829 185.705412,133.148317 185.705412,132.060916 C185.705412,130.973515 184.8239,130.092002 183.736499,130.092002 Z M133.202039,130.092002 C132.114638,130.092002 131.233125,130.973515 131.233125,132.060916 C131.233125,133.148317 132.114638,134.029829 133.202039,134.029829 C134.28944,134.029829 135.170952,133.148317 135.170952,132.060916 C135.170952,130.973515 134.28944,130.092002 133.202039,130.092002 Z M145.835654,130.092002 C144.748253,130.092002 143.86674,130.973515 143.86674,132.060916 C143.86674,133.148317 144.748253,134.029829 145.835654,134.029829 C146.923055,134.029829 147.804567,133.148317 147.804567,132.060916 C147.804567,130.973515 146.923055,130.092002 145.835654,130.092002 Z M158.469269,130.092002 C157.381868,130.092002 156.500355,130.973515 156.500355,132.060916 C156.500355,133.148317 157.381868,134.029829 158.469269,134.029829 C159.55667,134.029829 160.438182,133.148317 160.438182,132.060916 C160.438182,130.973515 159.55667,130.092002 158.469269,130.092002 Z M107.934809,130.092002 C106.847408,130.092002 105.965895,130.973515 105.965895,132.060916 C105.965895,133.148317 106.847408,134.029829 107.934809,134.029829 C109.022209,134.029829 109.903722,133.148317 109.903722,132.060916 C109.903722,130.973515 109.022209,130.092002 107.934809,130.092002 Z M120.568424,130.092002 C119.481023,130.092002 118.59951,130.973515 118.59951,132.060916 C118.59951,133.148317 119.481023,134.029829 120.568424,134.029829 C121.655825,134.029829 122.537337,133.148317 122.537337,132.060916 C122.537337,130.973515 121.655825,130.092002 120.568424,130.092002 Z M82.6675784,130.092002 C81.5801775,130.092002 80.6986649,130.973515 80.6986649,132.060916 C80.6986649,133.148317 81.5801775,134.029829 82.6675784,134.029829 C83.7549794,134.029829 84.636492,133.148317 84.636492,132.060916 C84.636492,130.973515 83.7549794,130.092002 82.6675784,130.092002 Z M95.3011935,130.092002 C94.2137926,130.092002 93.3322799,130.973515 93.3322799,132.060916 C93.3322799,133.148317 94.2137926,134.029829 95.3011935,134.029829 C96.3885944,134.029829 97.2701071,133.148317 97.2701071,132.060916 C97.2701071,130.973515 96.3885944,130.092002 95.3011935,130.092002 Z M171.102884,116.08045 C170.015483,116.08045 169.13397,116.961963 169.13397,118.049364 C169.13397,119.136765 170.015483,120.018277 171.102884,120.018277 C172.190285,120.018277 173.071797,119.136765 173.071797,118.049364 C173.071797,116.961963 172.190285,116.08045 171.102884,116.08045 Z M183.736499,116.08045 C182.649098,116.08045 181.767585,116.961963 181.767585,118.049364 C181.767585,119.136765 182.649098,120.018277 183.736499,120.018277 C184.8239,120.018277 185.705412,119.136765 185.705412,118.049364 C185.705412,116.961963 184.8239,116.08045 183.736499,116.08045 Z M133.202039,116.08045 C132.114638,116.08045 131.233125,116.961963 131.233125,118.049364 C131.233125,119.136765 132.114638,120.018277 133.202039,120.018277 C134.28944,120.018277 135.170952,119.136765 135.170952,118.049364 C135.170952,116.961963 134.28944,116.08045 133.202039,116.08045 Z M145.835654,116.08045 C144.748253,116.08045 143.86674,116.961963 143.86674,118.049364 C143.86674,119.136765 144.748253,120.018277 145.835654,120.018277 C146.923055,120.018277 147.804567,119.136765 147.804567,118.049364 C147.804567,116.961963 146.923055,116.08045 145.835654,116.08045 Z M158.469269,116.08045 C157.381868,116.08045 156.500355,116.961963 156.500355,118.049364 C156.500355,119.136765 157.381868,120.018277 158.469269,120.018277 C159.55667,120.018277 160.438182,119.136765 160.438182,118.049364 C160.438182,116.961963 159.55667,116.08045 158.469269,116.08045 Z M107.934809,116.08045 C106.847408,116.08045 105.965895,116.961963 105.965895,118.049364 C105.965895,119.136765 106.847408,120.018277 107.934809,120.018277 C109.022209,120.018277 109.903722,119.136765 109.903722,118.049364 C109.903722,116.961963 109.022209,116.08045 107.934809,116.08045 Z M120.568424,116.08045 C119.481023,116.08045 118.59951,116.961963 118.59951,118.049364 C118.59951,119.136765 119.481023,120.018277 120.568424,120.018277 C121.655825,120.018277 122.537337,119.136765 122.537337,118.049364 C122.537337,116.961963 121.655825,116.08045 120.568424,116.08045 Z M82.6675784,116.08045 C81.5801775,116.08045 80.6986649,116.961963 80.6986649,118.049364 C80.6986649,119.136765 81.5801775,120.018277 82.6675784,120.018277 C83.7549794,120.018277 84.636492,119.136765 84.636492,118.049364 C84.636492,116.961963 83.7549794,116.08045 82.6675784,116.08045 Z M95.3011935,116.08045 C94.2137926,116.08045 93.3322799,116.961963 93.3322799,118.049364 C93.3322799,119.136765 94.2137926,120.018277 95.3011935,120.018277 C96.3885944,120.018277 97.270107,119.136765 97.270107,118.049364 C97.270107,116.961963 96.3885944,116.08045 95.3011935,116.08045 Z M171.102884,102.068898 C170.015483,102.068898 169.13397,102.950411 169.13397,104.037812 C169.13397,105.125213 170.015483,106.006726 171.102884,106.006726 C172.190285,106.006726 173.071797,105.125213 173.071797,104.037812 C173.071797,102.950411 172.190285,102.068898 171.102884,102.068898 Z M133.202039,102.068898 C132.114638,102.068898 131.233125,102.950411 131.233125,104.037812 C131.233125,105.125213 132.114638,106.006726 133.202039,106.006726 C134.28944,106.006726 135.170952,105.125213 135.170952,104.037812 C135.170952,102.950411 134.28944,102.068898 133.202039,102.068898 Z M145.835654,102.068898 C144.748253,102.068898 143.86674,102.950411 143.86674,104.037812 C143.86674,105.125213 144.748253,106.006726 145.835654,106.006726 C146.923055,106.006726 147.804567,105.125213 147.804567,104.037812 C147.804567,102.950411 146.923055,102.068898 145.835654,102.068898 Z M158.469269,102.068898 C157.381868,102.068898 156.500355,102.950411 156.500355,104.037812 C156.500355,105.125213 157.381868,106.006726 158.469269,106.006726 C159.55667,106.006726 160.438182,105.125213 160.438182,104.037812 C160.438182,102.950411 159.55667,102.068898 158.469269,102.068898 Z M107.934809,102.068898 C106.847408,102.068898 105.965895,102.950411 105.965895,104.037812 C105.965895,105.125213 106.847408,106.006726 107.934809,106.006726 C109.022209,106.006726 109.903722,105.125213 109.903722,104.037812 C109.903722,102.950411 109.022209,102.068898 107.934809,102.068898 Z M120.568424,102.068898 C119.481023,102.068898 118.59951,102.950411 118.59951,104.037812 C118.59951,105.125213 119.481023,106.006726 120.568424,106.006726 C121.655825,106.006726 122.537337,105.125213 122.537337,104.037812 C122.537337,102.950411 121.655825,102.068898 120.568424,102.068898 Z M95.3011935,102.068898 C94.2137926,102.068898 93.3322799,102.950411 93.3322799,104.037812 C93.3322799,105.125213 94.2137926,106.006726 95.3011935,106.006726 C96.3885944,106.006726 97.270107,105.125213 97.270107,104.037812 C97.270107,102.950411 96.3885944,102.068898 95.3011935,102.068898 Z M133.202039,88.0573466 C132.114638,88.0573466 131.233125,88.9388592 131.233125,90.0262601 C131.233125,91.1136611 132.114638,91.9951737 133.202039,91.9951737 C134.28944,91.9951737 135.170952,91.1136611 135.170952,90.0262601 C135.170952,88.9388592 134.28944,88.0573466 133.202039,88.0573466 Z M145.835654,88.0573466 C144.748253,88.0573466 143.86674,88.9388592 143.86674,90.0262601 C143.86674,91.1136611 144.748253,91.9951737 145.835654,91.9951737 C146.923055,91.9951737 147.804567,91.1136611 147.804567,90.0262601 C147.804567,88.9388592 146.923055,88.0573466 145.835654,88.0573466 Z M158.469269,88.0573466 C157.381868,88.0573466 156.500355,88.9388592 156.500355,90.0262601 C156.500355,91.1136611 157.381868,91.9951737 158.469269,91.9951737 C159.55667,91.9951737 160.438182,91.1136611 160.438182,90.0262601 C160.438182,88.9388592 159.55667,88.0573466 158.469269,88.0573466 Z M107.934809,88.0573466 C106.847408,88.0573466 105.965895,88.9388592 105.965895,90.0262601 C105.965895,91.1136611 106.847408,91.9951737 107.934809,91.9951737 C109.022209,91.9951737 109.903722,91.1136611 109.903722,90.0262601 C109.903722,88.9388592 109.022209,88.0573466 107.934809,88.0573466 Z M120.568424,88.0573466 C119.481023,88.0573466 118.59951,88.9388592 118.59951,90.0262601 C118.59951,91.1136611 119.481023,91.9951737 120.568424,91.9951737 C121.655825,91.9951737 122.537337,91.1136611 122.537337,90.0262601 C122.537337,88.9388592 121.655825,88.0573466 120.568424,88.0573466 Z" id="Combined-Shape" fill="#055D5D"></path>
                    <path d="M157.991293,122.19634 C160.191293,122.19634 161.991293,120.39634 161.991293,118.19634 C161.991293,115.99634 160.191293,114.19634 157.991293,114.19634 C155.791293,114.19634 153.991293,115.99634 153.991293,118.19634 C153.991293,120.39634 155.791293,122.19634 157.991293,122.19634 Z" id="Path" fill="#00A2A2"></path>
                    <circle id="Oval" fill="#00A2A2" cx="153.263264" cy="8.05715754" r="7.57303405"></circle>
                    <circle id="Oval" fill="#008383" cx="41.4679422" cy="152.639811" r="12.6217234"></circle>
                    <circle id="Oval" fill="#008383" cx="212.436593" cy="85.8900347" r="8.83520639"></circle>
                    <circle id="Oval" fill="#009392" cx="226.695113" cy="160.722684" r="11.3595511"></circle>
                </g>
                <path d="M53.5,43 C55.425,43 57,41.425 57,39.5 C57,37.575 55.425,36 53.5,36 C51.575,36 50,37.575 50,39.5 C50,41.425 51.575,43 53.5,43 Z" id="Path" fill="#2CC0BF"></path>
                <path d="M583,70.9479769 C584.375,70.9479769 585.5,69.8229769 585.5,68.4479769 C585.5,67.0729769 584.375,65.9479769 583,65.9479769 C581.625,65.9479769 580.5,67.0729769 580.5,68.4479769 C580.5,69.8229769 581.625,70.9479769 583,70.9479769 Z" id="Path" fill="#2CC0BF"></path>
                <path d="M307.918647,81.8036602 C309.293647,81.8036602 310.418647,80.6786602 310.418647,79.3036602 C310.418647,77.9286602 309.293647,76.8036602 307.918647,76.8036602 C306.543647,76.8036602 305.418647,77.9286602 305.418647,79.3036602 C305.418647,80.6786602 306.543647,81.8036602 307.918647,81.8036602 Z" id="Path" fill="#2CC0BF"></path>
                <path d="M111,65.9479769 C112.65,65.9479769 114,64.5979769 114,62.9479769 C114,61.2979769 112.65,59.9479769 111,59.9479769 C109.35,59.9479769 108,61.2979769 108,62.9479769 C108,64.5979769 109.35,65.9479769 111,65.9479769 Z" id="Path" fill="#2CC0BF"></path>
                <path d="M188.422832,36 C190.622832,36 192.422832,34.2 192.422832,32 C192.422832,29.8 190.622832,28 188.422832,28 C186.222832,28 184.422832,29.8 184.422832,32 C184.422832,34.2 186.222832,36 188.422832,36 Z" id="Path" fill="#2CC0BF"></path>
                <g id="woman" transform="translate(345.000000, 3.000000)">
                    <g id="code-bubble" transform="translate(21.975449, 0.616332)">
                        <ellipse id="Oval" fill="#C54B17" cx="69.4657399" cy="69.4226892" rx="69.4657399" ry="68.9963768"></ellipse>
                        <path d="M102.303142,101.917894 L102.303142,105.443257 L78.7147666,105.443257 L78.7147666,101.917894 L102.303142,101.917894 Z M72.4559974,101.917894 L72.4559974,105.443257 L45.8562282,105.443257 L45.8562282,101.917894 L72.4559974,101.917894 Z M32.9467623,101.917894 L32.9467623,105.443257 L22.3858436,105.443257 L22.3858436,101.917894 L32.9467623,101.917894 Z M134.647835,93.3561851 C134.204809,94.5473434 133.729632,95.7230287 133.223349,96.882202 L88.0755922,96.8816623 L88.0755922,93.3563 Z M81.8449335,93.3563 L81.8449335,96.8816623 L55.2451644,96.8816623 L55.2451644,93.3563 L81.8449335,93.3563 Z M32.9467623,93.3563 L32.9467623,96.8816623 L22.3858436,96.8816623 L22.3858436,93.3563 L32.9467623,93.3563 Z M137.206698,84.7955891 C136.935255,85.9825106 136.633003,87.1578044 136.300822,88.3205971 L103.676448,88.3200681 L103.676448,84.7947058 Z M97.4926389,84.7947058 L97.4926389,88.3200681 L70.8928698,88.3200681 L70.8928698,84.7947058 L97.4926389,84.7947058 Z M32.9467623,84.7947058 L32.9467623,88.3200681 L22.3858436,88.3200681 L22.3858436,84.7947058 L32.9467623,84.7947058 Z M138.599853,76.2329748 C138.48348,77.4171746 138.336967,78.5925995 138.161084,79.7584829 L105.027917,79.7584739 L105.027917,76.2331116 Z M99.0557666,76.2331116 L99.0557666,79.7584739 L72.4559974,79.7584739 L72.4559974,76.2331116 L99.0557666,76.2331116 Z M32.9467623,76.2331116 L32.9467623,79.7584739 L22.3858436,79.7584739 L22.3858436,76.2331116 L32.9467623,76.2331116 Z M138.908883,67.6707049 C138.923917,68.2613131 138.93148,68.8537655 138.93148,69.4479723 C138.93148,70.0329745 138.92415,70.6162762 138.909576,71.1977918 L85.9509111,71.1968797 L85.9509111,67.6715174 Z M81.8449335,67.6715174 L81.8449335,71.1968797 L55.2451644,71.1968797 L55.2451644,67.6715174 L81.8449335,67.6715174 Z M32.9467623,67.6715174 L32.9467623,71.1968797 L22.3858436,71.1968797 L22.3858436,67.6715174 L32.9467623,67.6715174 Z M138.156879,59.1096246 C138.333239,60.2754253 138.480234,61.4507747 138.59709,62.6349061 L78.7147666,62.6352855 L78.7147666,59.1099232 Z M72.4559974,59.1099232 L72.4559974,62.6352855 L45.8562282,62.6352855 L45.8562282,59.1099232 L72.4559974,59.1099232 Z M32.9467623,59.1099232 L32.9467623,62.6352855 L22.3858436,62.6352855 L22.3858436,59.1099232 L32.9467623,59.1099232 Z M136.292852,50.547472 C136.625666,51.7106027 136.928529,52.8862531 137.200561,54.0735486 L78.7147666,54.0736913 L78.7147666,50.548329 Z M72.4559974,50.548329 L72.4559974,54.0736913 L45.8562282,54.0736913 L45.8562282,50.548329 L72.4559974,50.548329 Z M32.9467623,50.548329 L32.9467623,54.0736913 L22.3858436,54.0736913 L22.3858436,50.548329 L32.9467623,50.548329 Z M133.211297,41.9861634 C133.718109,43.1451579 134.19382,44.3206751 134.637383,45.5116758 L78.7147666,45.5120971 L78.7147666,41.9867348 Z M72.4559974,41.9867348 L72.4559974,45.5120971 L45.8562282,45.5120971 L45.8562282,41.9867348 L72.4559974,41.9867348 Z M32.9467623,41.9867348 L32.9467623,45.5120971 L22.3858436,45.5120971 L22.3858436,41.9867348 L32.9467623,41.9867348 Z M128.722767,33.4236675 C129.435005,34.576998 130.11407,35.7527196 130.758642,36.949522 L84.2027991,36.9505029 L84.2027991,33.4251406 Z M80.0791815,33.4251406 L80.0791815,36.9505029 L53.4794123,36.9505029 L53.4794123,33.4251406 L80.0791815,33.4251406 Z M32.9467623,33.4251406 L32.9467623,36.9505029 L22.3858436,36.9505029 L22.3858436,33.4251406 L32.9467623,33.4251406 Z" id="Combined-Shape" fill="#E46732"></path>
                    </g>
                    <circle id="Oval" fill="#222E33" cx="67.1892529" cy="119.108891" r="14.5675972"></circle>
                    <path d="M60.2352324,126.468559 C60.2352324,126.468559 55.4903109,136.975176 54.1346003,137.314076 C52.7788896,137.652975 65.3190628,143.753617 65.3190628,143.753617 C65.3190628,143.753617 67.6915236,130.874539 68.7082925,130.196693 C69.7250614,129.518847 60.2352324,126.468559 60.2352324,126.468559 Z" id="Path" fill="#F8B79D" fill-rule="nonzero"></path>
                    <polygon id="Path" fill="#F8B79D" points="32.104772 212.554931 23.2926434 237.29628 32.7824112 241.024705 49.0509203 208.826976"></polygon>
                    <path d="M62.9466209,213.232885 C62.9466209,213.232885 80.5706244,237.974271 81.5873933,238.313194 C82.6041622,238.652117 89.7215492,232.551504 89.7215492,232.551504 C89.7215492,232.551504 80.9095474,211.199343 78.198159,210.182574 C75.4867706,209.165805 62.9466209,213.232885 62.9466209,213.232885 Z" id="Path" fill="#F8B79D"></path>
                    <path d="M21.9369186,232.890408 L8.04108643,269.155184 C8.04108643,269.155184 9.05785533,271.188722 8.04108643,271.527645 C7.02431754,271.866568 4.65185208,277.28934 4.65185208,277.628277 C4.65185208,277.967214 2.27939133,278.306123 2.27939133,279.322892 C2.27939133,280.339661 0.245853538,288.47384 0.245853538,288.47384 C0.245853538,288.47384 3.97400615,296.607996 6.34648571,294.235535 C8.71896526,291.863074 9.73569186,287.118129 9.73569186,287.118129 L13.1249215,278.306128 C13.1249215,278.306128 12.7859985,273.561201 15.1584593,272.883356 C17.5309201,272.20551 18.8866166,263.732431 18.8866166,263.732431 C18.8866166,263.732431 22.6147692,260.004278 23.2926152,258.987509 C23.9704611,257.97074 35.8327743,240.007814 34.8160054,239.668891 C33.7992365,239.329968 21.9369186,232.890408 21.9369186,232.890408 Z" id="Path" fill="#007373"></path>
                    <path d="M79.5538556,237.635348 L89.7215492,230.856889 C89.7215492,230.856889 107.345553,263.054585 107.345553,263.732431 C107.345553,264.410277 106.667707,266.443819 107.345553,267.121665 C108.023399,267.799511 113.785089,278.645051 117.513246,279.66182 C121.241404,280.678588 121.919245,284.745669 118.868938,285.423515 C115.818632,286.101361 111.751551,287.795975 110.734782,285.423515 C110.140281,284.027726 109.461174,282.669509 108.701245,281.356434 C108.701245,281.356434 105.31201,282.373203 104.973087,281.695357 C104.581946,280.696743 104.242572,279.678618 103.956318,278.645041 C103.956318,278.645041 101.244935,273.900115 101.244935,272.2055 C101.244935,270.510885 99.5503199,270.171962 99.5503199,270.171962 C99.5503199,270.171962 95.8221626,261.359961 93.4496877,260.004269 C91.0772129,258.648577 89.0436892,251.870113 89.0436892,251.870113 L79.5538556,237.635348 Z" id="Path" fill="#007373"></path>
                    <circle id="Oval" fill="#F8B79D" cx="67.3526194" cy="124.435022" r="9.82877069"></circle>
                    <path d="M38.2052303,184.085492 C38.2052303,184.085492 23.6584087,222.729651 25.6919324,222.729651 C27.7254561,222.729651 83.9835997,223.953771 85.6782145,221.242388 C87.3728293,218.531004 71.0807767,191.541802 70.4029167,191.202879 C69.7250567,190.863956 38.2052303,184.085492 38.2052303,184.085492 Z" id="Path" fill="#B08814"></path>
                    <g id="Group-3" transform="translate(32.484182, 106.407105) rotate(10.000000) translate(-32.484182, -106.407105) translate(11.984182, 70.907105)">
                        <path d="M15.5043182,29.2739054 L5.33662456,13.6834397 C5.33662456,13.6834397 7.85101829,-2.67111363 4.46178864,0.379193055 C1.07255899,3.42949974 1.13686838e-13,15.7475793 1.13686838e-13,15.7475793 L11.7761656,33.679904 L15.5043182,29.2739054 Z" id="Path" fill="#F8B79D" fill-rule="nonzero"></path>
                        <path d="M40.9235641,61.1326783 L40.9235641,57.7434486 C40.9235641,57.7434486 32.1115623,51.9817535 32.4504665,50.9650034 C32.7893706,49.9482533 31.7726205,49.2703886 31.7726205,49.2703886 C31.7726205,49.2703886 30.7558516,47.9146967 30.7558516,47.5757738 C30.7558516,47.2368508 29.4001598,46.8979278 29.4001598,46.8979278 L20.927081,37.0691524 C20.927081,37.0691524 16.1821547,27.5793047 15.1653858,27.9182042 C14.148617,28.2571037 8.72584951,30.2906696 9.40369544,31.6463615 C10.0815414,33.0020534 29.0612368,62.1494425 29.0612368,62.1494425 C29.0612368,62.1494425 30.85182,65.8361131 31.7862057,67.360507 C32.4028989,68.3666047 33.2727218,70.4386453 34.8666746,70.8894096 C37.9837255,71.7709006 40.9235641,61.1326783 40.9235641,61.1326783 Z" id="Path" fill="#009392"></path>
                    </g>
                    <path d="M115.818646,131.891332 L124.96957,131.213486 C124.96957,131.213486 135.81511,119.690095 136.492956,123.418253 C137.170802,127.14641 127.680954,135.280561 127.680954,135.280561 L115.1408,136.636253 L115.818646,131.891332 Z" id="Path" fill="#F8B79D"></path>
                    <path d="M71.7586227,139.347642 C71.7586227,139.347642 79.2149326,139.008714 79.5538556,139.347642 C79.8927785,139.686569 84.6377,139.347642 84.6377,139.347642 C84.6377,139.347642 97.5167821,136.297325 98.5335322,135.280561 C99.5502823,134.263797 116.496459,129.857789 117.174305,131.891332 C117.852151,133.924874 119.546765,137.991964 117.852151,138.669791 C116.157536,139.347618 70.402912,150.871027 70.402912,150.871027 L71.7586227,139.347642 Z" id="Path" fill="#009392"></path>
                    <circle id="Oval" fill="#222E33" cx="62.0932983" cy="103.776609" r="6.02797158"></circle>
                    <path d="M54.0560045,100.51146 C54.0561959,97.4254298 56.3868533,94.8378387 59.4560649,94.516092 C59.2474596,94.4944337 59.0378756,94.4835023 58.828149,94.4835023 C55.4989923,94.4835023 52.8001775,97.1823171 52.8001775,100.511474 C52.8001775,103.840631 55.4989923,106.539445 58.828149,106.539445 C59.0378757,106.539445 59.2474599,106.528513 59.4560649,106.506851 C56.3868433,106.185106 54.0561817,103.5975 54.0560045,100.51146 L54.0560045,100.51146 Z" id="Path" fill="#222E33"></path>
                    <ellipse id="Oval" fill="#222E33" cx="68.8838724" cy="116.020177" rx="10.0466209" ry="6.02797158"></ellipse>
                    <path d="M57.3543872,131.72187 C57.3543872,131.72187 54.3040712,134.094331 53.6262346,134.433254 C52.9483981,134.772177 48.8813084,131.382938 48.2034625,131.382938 C47.5256166,131.382938 38.7136148,141.550631 38.7136148,141.550631 C38.7136148,141.550631 40.3512506,143.436931 38.7136148,153.074017 C38.0994538,156.688221 36.8809674,172.140161 36.8809674,174.173698 C36.8809674,176.207236 30.2405359,181.204637 36.341154,185.61064 C42.4417721,190.016644 71.5891612,194.761565 71.9280841,192.050177 C72.2670071,189.338788 68.5388498,182.221406 70.2334693,178.832176 C71.9280888,175.442947 71.9280841,162.902788 71.9280841,162.902788 L73.9616219,149.684787 L75.6562368,139.178171 C75.6562368,139.178171 67.6915424,136.975167 67.0136964,136.975167 C66.3358505,136.975167 63.2855438,141.720102 57.3543872,131.72187 Z" id="Path" fill="#009392"></path>
                </g>
                <g id="Men-Left" transform="translate(62.000000, 96.000000)">
                    <path d="M3.73788101,177.17443 L0,188.853966 C0,188.853966 10.2354221,197.647556 16.8855297,195.827499 C17.8871708,195.548539 18.9078098,195.363547 19.9368611,195.274443 C21.3144475,195.158804 23.6837167,194.037609 22.2208725,192.604691 C17.5002832,187.979132 11.2091558,179.386654 11.2091558,179.386654 L3.73788101,177.17443 Z" id="Path" fill="#005E7D"></path>
                    <path d="M66.098232,179.605675 L64.2637363,189.791898 C64.2637363,189.791898 73.6503945,189.39083 89.5648776,194.185419 C89.5648776,194.185419 95.6876234,191.58759 90.5845592,188.392717 C90.5845592,188.392717 84.6666809,188.793785 80.9930334,182.600014 C77.3193859,176.406243 75.0751551,177.20838 75.0751551,177.20838 L66.098232,179.605675 Z" id="Path" fill="#005E7D"></path>
                    <path d="M17.8891678,103.745465 L19.6592829,135.01018 C19.8489155,138.34237 18.7463834,141.619057 16.5822176,144.155109 C15.6038363,145.319528 14.4891007,146.36153 13.2621055,147.258592 C9.04317841,150.279315 0,182.114151 0,182.114151 C0,182.114151 10.2492413,182.716457 13.0603307,184.73487 C13.0603307,184.73487 13.6610692,176.67501 15.2706816,175.870404 C16.880294,175.065797 28.7345618,151.502317 28.7345618,151.502317 L40.5980013,120.858299 C40.5980013,120.858299 50.0447292,137.180319 58.0836196,139.998741 L58.0836196,146.849392 C58.0836196,146.849392 62.5043214,166.996742 64.1139338,169.212859 C65.7235462,171.428975 64.1139338,180.293441 64.1139338,180.293441 C64.1139338,180.293441 68.7364104,186.137184 79.3846154,179.888839 C79.3846154,179.888839 75.9682016,176.058912 76.1745622,171.424377 C76.3809228,166.789843 71.5520856,141.405653 71.5520856,141.405653 C71.5520856,141.405653 72.1528241,131.750374 67.3331586,125.690537 C62.513493,119.630699 54.4700168,96.4902126 54.4700168,96.4902126 L48.9395538,84.5590457 L17.8891678,103.745465 Z" id="Path" fill="#B08814"></path>
                    <path d="M44.0000453,69.4162576 L44.3997389,73.2183864 L38.2317387,72.8167209 L32.0364867,67.4033658 L25.8684865,50.0130768 L21.8897176,43.8146484 L18.9010989,40.0170839 L20.095638,35.4161886 C20.095638,35.4161886 20.6406748,35.8726266 21.5626955,36.6029275 C24.5921919,38.9353258 31.7049226,43.7781333 36.9009405,42.4407699 C37.1413612,42.3805247 37.3779689,42.305839 37.6094883,42.2171152 L45.3626374,55.6135715 L44.0000453,69.4162576 Z" id="Path" fill="#F5F5F5" fill-rule="nonzero"></path>
                    <path d="M21.6038329,33.5260787 L20.7949145,38.0673378 C20.7949145,38.0673378 25.4866412,47.0454071 29.5219885,49.234294 C33.5573358,51.4231809 42.6726907,70.7326147 42.6726907,70.7326147 C42.6726907,70.7326147 41.8591499,56.2323743 42.2659203,54.4158706 C42.6726907,52.599367 34.2808529,36.8316 34.2808529,35.3759258 C37.1649317,36.4260776 37.5037713,37.3477252 38.5156035,37.7075315 C39.5274357,38.0673378 42.5953577,39.2028687 43.4725275,39.9248113 C44.3496972,40.6467539 46.2601627,42.5691655 46.5845639,43.9777496 C46.9913343,49.1502437 57.2378445,57.1996625 57.2378445,57.1996625 C58.0414456,58.4511997 59.8818436,59.4648413 62.2313946,60.2834636 C61.8825801,63.8898779 61.6461555,67.5288254 61.524581,71.1968524 C53.7954204,70.2067548 47.3161973,63.5704486 46.9254518,63.1636947 L46.9068008,63.1441707 C44.8821935,65.7326884 47.3135712,75.4827717 47.3135712,75.4827717 C47.7342087,86.2273908 55.6338748,94.5878488 55.6338748,94.5878488 L55.6338748,94.5878488 L57.0529488,102.348861 C54.6215712,101.953771 47.9375939,88.0211881 47.9375939,88.0211881 C47.9375939,88.0211881 48.9545199,103.384268 41.8591499,107.362411 C34.7637798,111.340554 13.5007816,107.362411 13.5007816,107.362411 C13.5007816,107.362411 12.2850928,92.0538262 13.5007816,89.2518694 C14.7164704,86.4499125 13.907552,76.9132683 13.907552,76.9132683 C13.907552,76.9132683 10.6672559,72.7171449 6.21127109,63.1805007 C3.37312307,57.0952135 3.57188588,52.8718425 4.09421605,50.601213 C4.35202439,49.4833715 5.05887625,48.5154066 6.0541098,47.9173288 C8.63802633,46.359677 14.4206374,42.5722668 16.1355444,38.8983882 C18.3681592,34.1209836 21.6038329,33.5260787 21.6038329,33.5260787 L21.6038329,33.5260787 Z" id="Combined-Shape" fill="#00A2A2"></path>
                    <g id="Head" transform="translate(30.977881, 23.138800) rotate(10.000000) translate(-30.977881, -23.138800) translate(14.977881, 2.638800)">
                        <mask id="mask-2" fill="white">
                            <use xlink:href="#path-1"></use>
                        </mask>
                        <use id="Path" fill="#F8B79D" fill-rule="nonzero" xlink:href="#path-1"></use>
                        <path d="M9.37074479,26.5666379 L10.307855,23.6250736 C17.3970021,27.2923534 21.0626099,25.7326489 21.0626099,25.7326489 L23.4929505,30.6772753 C22.4555144,31.4028341 23.0060737,33.3485476 18.8978265,33.0524012 C15.5088683,32.815484 11.3471167,30.1585327 9.37074479,26.5666379 Z" id="Path" fill="#F79E7A" fill-rule="nonzero" mask="url(#mask-2)"></path>
                        <g id="Group-8" transform="translate(0.148640, 0.051405)">
                            <path d="M4.49324909,13.5884648 C3.9609291,19.2517687 8.52086606,30.2397701 14.7051094,30.938044 C20.8893527,31.6363179 24.6476315,20.4130116 25.1799515,14.7497077 C25.7122715,9.08640387 22.8286957,5.29104859 16.6280263,4.58437788 C13.6583268,4.25095421 10.7107473,5.01258134 8.43463106,6.70147503 C6.15851478,8.39036873 4.74059996,10.8679679 4.49324909,13.5884648 Z" id="Path" fill="#F8B79D" fill-rule="nonzero" transform="translate(14.846610, 17.738403) rotate(-10.000000) translate(-14.846610, -17.738403) "></path>
                            <path d="M10.4503768,3.93132134 C10.8275236,3.90592336 10.9851312,3.64626369 11.4985346,3.35151005 C13.4966169,2.19607505 16.0145906,2.37542412 18.1903172,3.02928481 C23.622707,4.67114191 24.2604692,8.76846798 25.8183256,8.43786807 C27.3761819,8.10726816 29.6528088,10.8963807 27.4156457,13.1528356 C25.1784826,15.4092906 22.1184899,15.5590191 18.8087939,13.1539855 C16.6866005,11.6194593 13.6423788,10.1438436 10.9772515,10.2998801 C10.5587496,10.2686278 10.1511622,10.4144337 9.85526252,10.7012483 C9.38469916,11.3274665 9.33290966,12.7190821 9.22985293,13.4826197 C9.01829304,15.3557314 8.94234844,17.2450391 9.00260077,19.1360736 C8.70312809,19.1080221 8.53332289,18.7810058 8.44335676,18.4917251 C8.21855766,17.8025867 8.102097,17.0827965 7.90602978,16.3933975 C7.66793625,15.6109773 7.19279542,14.3527069 6.18391781,14.7640376 C5.66452067,15.0275108 5.27976429,15.4910085 5.11685029,16.049483 C4.65007933,17.2437729 4.55528297,19.0698249 5.45707222,20.141816 C6.18202409,20.9989374 6.20802497,22.3711669 6.24217671,23.4158648 C6.25628488,23.7475899 6.44657674,24.6458231 6.27602351,24.914391 C5.96807312,25.3896904 5.20921714,25.1899896 4.86588007,24.8019128 C4.49765958,24.2678333 4.30661517,23.6358464 4.32028598,22.9970535 C4.04891154,19.9040398 3.42622354,16.842263 2.46414474,13.8703477 C2.21208806,13.1911251 2.02594694,12.4910607 1.90830732,11.77988 C1.80103516,10.2190951 2.16985396,8.67497604 2.96649618,7.34960255 C3.62762536,5.94352314 4.6840541,4.76477238 6.01169676,3.95180359 C7.48547862,3.15715216 8.56743939,3.51984872 10.0414251,3.87129741 C10.1743413,3.91219866 10.3123115,3.93244926 10.4503768,3.93132134 L10.4503768,3.93132134 Z" id="Path" fill="#B53D0A" transform="translate(15.120879, 13.851506) rotate(-10.000000) translate(-15.120879, -13.851506) "></path>
                        </g>
                    </g>
                    <path d="M19.0163997,54.3172875 C19.0163997,54.3172875 23.9809047,69.8894925 26.8737199,71.8107955 C29.7665351,73.7320985 47.3452246,83.5360079 52.5173706,81.2286896 C52.5173706,81.2286896 53.3930212,87.3825222 51.5336914,88.7248024 C51.5336914,88.7248024 32.2875988,88.4050635 32.1318681,88.3392655 C32.1318681,88.3392655 18.4865379,83.2526625 13.907552,76.9132683 C11.7512207,73.9279274 10.0119629,71.8107955 9.70227051,69.9771218 C11.0625,69.171946 10.7365437,68.9472584 11.0625,68.7537331 L19.0163997,54.3172875 Z" id="Path" fill="#000000" fill-rule="nonzero" opacity="0.1"></path>
                    <circle id="Oval" fill="#FFFFFF" fill-rule="nonzero" cx="44.4175824" cy="72.2733314" r="1"></circle>
                    <circle id="Oval" fill="#FFFFFF" fill-rule="nonzero" cx="46.3076923" cy="79.833771" r="1"></circle>
                    <path d="M56.8301631,86.7162808 L52.5317356,87.6306384 L49.1428571,88.1579079 L50.9619554,83.3102989 L52.2270135,82.9948455 L54.1984728,82.510236 C54.1984728,82.510236 57.0333111,68.483991 62.6983708,69.4897843 C68.3634305,70.4955776 56.8301631,86.7162808 56.8301631,86.7162808 Z" id="Path" fill="#F8B79D" fill-rule="nonzero"></path>
                    <path d="M52.8936031,85.6973155 L49.1428571,86.4491556 L51.1562003,81.113516 L52.5563425,80.7788259 C52.8695491,82.4003332 52.9827318,84.0509502 52.8936031,85.6973155 Z" id="Path" fill="#000000" fill-rule="nonzero" opacity="0.1"></path>
                    <path d="M19.0163997,54.3172875 C19.0163997,54.3172875 23.9809047,69.8894925 26.8737199,71.8107955 C29.7665351,73.7320985 47.3452246,83.5360079 52.5173706,81.2286896 C52.5173706,81.2286896 53.7584968,86.9969853 51.899167,88.3392655 C51.899167,88.3392655 32.6168783,87.6374196 32.4611477,87.5716216 C32.4611477,87.5716216 21.652433,83.6228079 17.7799925,80.2680381 C13.907552,76.9132683 9.53735352,69.8352761 9.53735352,69.8352761 L19.0163997,54.3172875 Z" id="Path" fill="#00A2A2"></path>
                </g>
            </g>
        </g>
    </g>
</svg>