<?xml version="1.0" encoding="UTF-8"?>
<svg width="598px" height="292px" viewBox="0 0 598 292" version="1.1" xmlns="http://www.w3.org/2000/svg" xmlns:xlink="http://www.w3.org/1999/xlink">
    <!-- Generator: Sketch 59.1 (86144) - https://sketch.com -->
    <title>illustration</title>
    <desc>Created with Sketch.</desc>
    <defs>
        <circle id="path-1" cx="51.7453162" cy="51.7453162" r="51.7453162"></circle>
        <linearGradient x1="99.982811%" y1="50.0000413%" x2="0.0187255522%" y2="50.0000413%" id="linearGradient-3">
            <stop stop-color="#808080" stop-opacity="0.25" offset="0%"></stop>
            <stop stop-color="#808080" stop-opacity="0.12" offset="54%"></stop>
            <stop stop-color="#808080" stop-opacity="0.1" offset="100%"></stop>
        </linearGradient>
    </defs>
    <g id="Vantage-Launcher" stroke="none" stroke-width="1" fill="none" fill-rule="evenodd">
        <g id="Vantage-Home" transform="translate(-732.000000, -65.000000)">
            <g id="Content" transform="translate(72.000000, 0.000000)">
                <g id="Hero-section">
                    <g id="illustration" transform="translate(659.500000, 64.000000)">
                        <g id="donat-chart" transform="translate(107.960926, 0.898917)" opacity="0.4">
                            <path d="M183.780377,11.7206725 C285.124628,11.7206725 367.280377,93.8764209 367.280377,195.220673 C367.280377,216.188705 363.763516,236.335331 357.287483,255.102864 L308.146684,255.102052 C316.883622,236.989672 321.780377,216.677021 321.780377,195.220673 C321.780377,119.005377 259.995672,57.2206725 183.780377,57.2206725 C107.565081,57.2206725 45.7803765,119.005377 45.7803765,195.220673 C45.7803765,216.677021 50.6771311,236.989672 59.414069,255.102052 L10.2732699,255.102864 C3.79723659,236.335331 0.28037654,216.188705 0.28037654,195.220673 C0.28037654,93.8764209 82.436125,11.7206725 183.780377,11.7206725 Z" id="Combined-Shape" fill="#007373"></path>
                            <path d="M264.956702,1.48545296 C303.187129,17.5232865 335.669189,44.5471495 358.453406,78.6075658 C360.939978,83.1398984 363.249149,87.7694814 365.371494,92.4871701 L300.404329,121.411925 C285.072103,97.2363799 262.429852,78.1542892 235.586499,67.2745736 L254.372607,25.1891849 Z" id="Combined-Shape" fill="#008383"></path>
                            <path d="M232.044934,11.5555953 C240.553406,13.8441699 248.761885,16.7546871 256.574722,20.2625736 L235.586459,67.2745575 C219.590306,60.7912604 202.102319,57.2206725 183.780377,57.2206725 C180.774031,57.2206725 177.790139,57.3168059 174.831607,57.5061664 L168.598782,7.08021848 C189.243889,4.51524911 210.723758,5.81589191 232.044934,11.5555953 Z" id="Combined-Shape" fill="#009392"></path>
                            <path d="M167.828264,0.86377454 L174.832549,57.5061061 C164.892857,58.1422271 155.239402,59.8306373 145.982399,62.4611231 L125.046181,9.22153703 C138.717722,4.90848333 153.039857,2.06112166 167.828264,0.86377454 Z" id="Combined-Shape" fill="#00A2A2"></path>
                        </g>
                        <g id="code" opacity="0.8" transform="translate(494.300276, 45.000000)">
                            <mask id="mask-2" fill="white">
                                <use xlink:href="#path-1"></use>
                            </mask>
                            <use id="Oval" fill-opacity="0.6" fill="#007373" xlink:href="#path-1"></use>
                            <g mask="url(#mask-2)" fill="#009392" id="Combined-Shape">
                                <g transform="translate(74.967575, 51.745316) scale(1, -1) translate(-74.967575, -51.745316) translate(25.967575, 28.745316)">
                                    <path d="M75.9023058,43.5443578 L75.9023058,45.9930545 L29.4347628,45.9930545 L29.4347628,43.5443578 L75.9023058,43.5443578 Z M64.4889104,34.2822984 L64.4889104,36.7309952 L34.3262762,36.7309952 L34.3262762,34.2822984 L64.4889104,34.2822984 Z M91.3895847,27.2082856 L91.3895847,29.6569824 L42.4785268,29.6569824 L42.4785268,27.2082856 L91.3895847,27.2082856 Z M97.0987279,20.1342729 L97.0987279,22.5829696 L50.6307773,22.5829696 L50.6307773,20.1342729 L97.0987279,20.1342729 Z M88.9464774,13.0597159 L88.9464774,15.5084126 L42.4785268,15.5084126 L42.4785268,13.0597159 L88.9464774,13.0597159 Z M80.7938192,5.98570313 L80.7938192,8.43439986 L34.3262762,8.43439986 L34.3262762,5.98570313 L80.7938192,5.98570313 Z M75.9023058,-6.43929354e-15 L75.9023058,2.44869673 L29.4347628,2.44869673 L29.4347628,-6.43929354e-15 L75.9023058,-6.43929354e-15 Z" opacity="0.4"></path>
                                    <path d="M26.1642336,43.5443578 L26.1642336,45.9930545 L12.2644845,45.9930545 L12.2644845,43.5443578 L26.1642336,43.5443578 Z M31.0704362,34.2822984 L31.0704362,36.7309952 L17.1706871,36.7309952 L17.1706871,34.2822984 L31.0704362,34.2822984 Z M39.247168,27.2082856 L39.247168,29.6569824 L25.3474189,29.6569824 L25.3474189,27.2082856 L39.247168,27.2082856 Z M47.4238998,20.1342729 L47.4238998,22.5829696 L33.5241507,22.5829696 L33.5241507,20.1342729 L47.4238998,20.1342729 Z M39.247168,13.0597159 L39.247168,15.5084126 L25.3474189,15.5084126 L25.3474189,13.0597159 L39.247168,13.0597159 Z M31.0704362,5.98570313 L31.0704362,8.43439986 L17.1706871,8.43439986 L17.1706871,5.98570313 L31.0704362,5.98570313 Z M26.1642336,-6.43929354e-15 L26.1642336,2.44869673 L12.2644845,2.44869673 L12.2644845,-6.43929354e-15 L26.1642336,-6.43929354e-15 Z" opacity="0.6"></path>
                                    <path d="M5.51862381,43.5443578 L5.51862381,45.9930545 L-3.87245791e-13,45.9930545 L-3.87245791e-13,43.5443578 L5.51862381,43.5443578 Z M5.51862381,34.2822984 L5.51862381,36.7309952 L-3.87245791e-13,36.7309952 L-3.87245791e-13,34.2822984 L5.51862381,34.2822984 Z M5.51862381,27.2082856 L5.51862381,29.6569824 L-3.87245791e-13,29.6569824 L-3.87245791e-13,27.2082856 L5.51862381,27.2082856 Z M5.51862381,20.1342729 L5.51862381,22.5829696 L-3.87245791e-13,22.5829696 L-3.87245791e-13,20.1342729 L5.51862381,20.1342729 Z M5.51862381,13.0597159 L5.51862381,15.5084126 L-3.87245791e-13,15.5084126 L-3.87245791e-13,13.0597159 L5.51862381,13.0597159 Z M5.51862381,5.98570313 L5.51862381,8.43439986 L-3.87245791e-13,8.43439986 L-3.87245791e-13,5.98570313 L5.51862381,5.98570313 Z M5.51862381,-6.43929354e-15 L5.51862381,2.44869673 L-3.87245791e-13,2.44869673 L-3.87245791e-13,-6.43929354e-15 L5.51862381,-6.43929354e-15 Z" opacity="0.8"></path>
                                </g>
                            </g>
                        </g>
                        <g id="men" transform="translate(74.845704, 212.718360) rotate(4.000000) translate(-74.845704, -212.718360) translate(11.845704, 164.718360)">
                            <polygon id="Path" fill="#007373" opacity="0.8" points="75.9411756 38.7654539 65.8141268 46.7316182 45.8137182 71.1435463 48.0923271 74.7410086 72.3965708 58.0380614 88.8526807 79.8803291 104.549254 71.9144754 93.6629753 56.2393302"></polygon>
                            <path d="M16.4459501,76.9435523 L24.0549137,77.4657652 L27.605702,85.0361162 L18.9822713,88.6906596 L16.4459501,76.9435523 Z M69.8687917,56.3926126 L78.3214084,58.3795842 L88.3108806,59.124699 L95.7389239,67.5693306 L93.433664,69.3079326 L74.7354495,63.0986422 L70.3810707,61.3600432 L61.6723129,63.0986422 L61.6725215,63.0809546 C61.6794033,62.6957905 61.9133858,56.1515451 69.8687917,56.3926126 Z M89.0146285,17.7011952 C93.8495892,20.4895697 84.9430829,25.0523659 84.9430829,25.0523659 L79.5991767,33.4174924 L80.1081192,37.726799 L75.782104,41.529123 L71.9650281,42.289586 L71.1332325,41.3229051 C69.8407251,39.8208052 69.5366259,37.7183842 70.3329215,35.9218045 L70.4381977,35.6988905 L81.1260071,21.7570151 C81.1260071,21.7570151 84.1796678,14.9128208 89.0146285,17.7011952 Z M99.8504114,4.69884289 C105.364997,4.69884289 109.835453,9.16929808 109.835453,14.683884 C109.835453,17.0124454 109.038374,19.154839 107.702176,20.8531046 C108.599132,23.0241346 111.010163,28.5086754 111.010163,28.5086754 L111.010163,28.5086754 L99.8311523,32.8919002 L95.7660283,23.7980628 C92.2878385,22.2369654 89.8653703,18.7433236 89.8653703,14.683884 C89.8653703,9.16929808 94.3358255,4.69884289 99.8504114,4.69884289 Z" id="Combined-Shape" fill="#F7A17D"></path>
                            <path d="M65.9012632,58.7355361 L104.102615,70.7280988 L116.746541,86.2931701 L114.243504,87.8035361 L100.677504,88.7515361 L71.2816712,78.3829457 L23.6647683,86.5482391 L22.3195037,76.8519146 L65.9012632,58.7355361 Z" id="Combined-Shape" fill="#008383"></path>
                            <path d="M110.339394,26.4309913 L112.999819,26.8669819 L122.156134,34.515856 C124.496874,40.8580176 125.694798,47.5666648 125.694047,54.328974 C125.694047,60.3300596 124.750623,66.2936558 122.898827,72.0004183 L122.156152,74.2899924 L119.284131,87.4509913 L111.863131,87.9699913 L106.386924,83.9785807 L102.317448,77.3495482 L98.8278784,71.5211093 L97.7392844,69.7006679 L93.9241484,50.5784825 L79.4266345,42.4196937 L74.5941309,41.6548063 L75.6115015,38.8502201 L79.9353214,32.9860843 L84.259132,32.476145 L85.530843,31.4562971 L86.5482136,31.9662211 L90.61769,29.6715588 L91.889401,30.1814858 L99.3263707,30.8749763 L103.843502,29.9265223 L110.339394,26.4309913 Z" id="Combined-Shape" fill="#D45925"></path>
                            <path d="M18.907129,81.5804754 C18.907129,81.5804754 21.2270553,77.7628067 20.2471694,77.3171014 C19.2672836,76.8713961 15.105862,75.0945787 15.105862,75.0945787 L9.0032094,73.1309127 C9.0032094,73.1309127 0.197448803,60.4239647 0.00416101158,71.4741092 C-0.18912678,82.5242538 6.41582922,85.1804713 6.41582922,85.1804713 C6.41582922,85.1804713 12.3066533,97.4897044 15.6435469,95.5268623 C18.9804405,93.5640202 22.3195037,86.9009874 22.3195037,86.9009874 C22.3195037,86.9009874 16.3020566,83.7601694 18.907129,81.5804754 Z" id="Path" fill="#026A6A"></path>
                            <polygon id="Path" fill="#000000" fill-rule="nonzero" opacity="0.1" points="122.169915 52.2038192 112.719206 58.5913581 98.6131857 71.6573541 97.5487109 69.833093 94.5642132 54.5033703 95.3103376 54.5033703 103.02019 39.9401646"></polygon>
                            <polygon id="Path" fill="#D45925" points="102.423292 38.7654539 94.4731228 53.1509595 91.6522651 53.1509595 89.8571457 58.198516 85.7538828 59.2082714 96.7812663 71.0699987 112.424627 57.1890657 122.169915 50.8794675"></polygon>
                            <path d="M92.1234904,7.7094196 L91.0523593,8.11911544 C90.7195362,7.89509299 90.4914462,7.54730068 90.4195283,7.15417268 C90.3476103,6.76104469 90.4379206,6.35568643 90.6700924,6.02951435 L88.6906596,5.93742874 C91.2609664,2.53425711 95.1756704,0.389994139 99.4426218,0.048085754 C103.709573,-0.293822631 107.919201,1.19944229 111.004609,4.14942471 C111.094728,3.84085825 112.077137,4.44119821 112.478223,5.04992094 C112.612992,4.5478166 113.534123,6.9750162 113.859923,8.69072186 C114.010756,8.11946269 114.590697,9.04168346 114.08262,9.92659297 C114.404547,9.87983282 114.549964,10.6986549 114.300747,11.1548276 C114.652928,10.99034 114.593571,11.9677738 114.211715,12.6209782 C114.71427,12.5765879 110.248241,19.4672394 108.440017,23.4942145 C107.914969,21.0959159 107.324623,18.5704624 105.631598,16.7839875 C105.343827,16.4803283 105.028693,16.2037486 104.714071,15.9276592 L103.012397,14.4343925 C101.033668,12.6980071 99.2336781,10.5549537 96.597673,9.90598938 C94.7861374,9.46000576 93.6407125,9.35931197 94.627947,7.32998947 C93.7360042,7.70001944 92.9030748,8.25029426 92.0031348,8.59397577 C92.0152225,8.31042665 92.1409984,7.99312712 92.1234904,7.7094196 Z" id="Path" fill="#B53D0A"></path>
                        </g>
                        <g id="thought-3" opacity="0.6" transform="translate(475.960926, 34.000000) rotate(-90.000000) translate(-475.960926, -34.000000) translate(455.460926, 11.000000)" stroke="#009392" stroke-width="0.5">
                            <path d="M21.8732376,38.2231447 C14.1680846,38.2231447 7.22163064,33.5816724 4.27299648,26.4630392 C1.32436233,19.344406 2.95423102,11.1505048 8.40259732,5.70213926 C13.8509636,0.25377369 22.044865,-1.37609392 29.1634978,1.57254119 C36.2821307,4.52117629 40.923601,11.4676309 40.923601,19.1727839 C40.9116899,29.689071 32.3895247,38.211235 21.8732376,38.2231447 L21.8732376,38.2231447 Z" id="Path"></path>
                        </g>
                        <g id="code-bubble" transform="translate(0.500000, 103.000000)">
                            <g id="Group-2" transform="translate(45.806645, 45.566507) scale(-1, 1) translate(-45.806645, -45.566507) translate(0.806645, 0.566507)">
                                <circle id="Oval" stroke="#046363" cx="45.2243493" cy="45.2162996" r="44.631769"></circle>
                                <path d="M69.3374389,70.4182239 C69.4920163,70.4182239 69.617326,70.6868538 69.617326,71.0182239 C69.617326,71.349594 69.4920163,71.6182239 69.3374389,71.6182239 L33.0640126,71.6182239 C32.9638781,71.618675 32.8712595,71.5044149 32.8211313,71.3185888 C32.771003,71.1327628 32.771003,70.903685 32.8211313,70.7178589 C32.8712595,70.5320329 32.9638781,70.4177728 33.0640126,70.4182239 L69.3374389,70.4182239 Z M27.5782168,70.4182239 C27.6783513,70.4177728 27.7709699,70.5320329 27.8210982,70.7178589 C27.8712265,70.903685 27.8712265,71.1327628 27.8210982,71.3185888 C27.7709699,71.5044149 27.6783513,71.618675 27.5782168,71.6182239 L20.9728714,71.6182239 C20.8727368,71.618675 20.7801183,71.5044149 20.72999,71.3185888 C20.6798617,71.1327628 20.6798617,70.903685 20.72999,70.7178589 C20.7801183,70.5320329 20.8727368,70.4177728 20.9728714,70.4182239 L27.5782168,70.4182239 Z M44.0356043,66.5701321 C44.1357388,66.5696811 44.2283573,66.6839411 44.2784856,66.8697672 C44.3286139,67.0555932 44.3286139,67.284671 44.2784856,67.4704971 C44.2283573,67.6563231 44.1357388,67.7705832 44.0356043,67.7701321 L20.9728714,67.7701321 C20.8727368,67.7705832 20.7801183,67.6563231 20.72999,67.4704971 C20.6798617,67.284671 20.6798617,67.0555932 20.72999,66.8697672 C20.7801183,66.6839411 20.8727368,66.5696811 20.9728714,66.5701321 L44.0356043,66.5701321 Z M53.8876463,66.5701329 C54.0422236,66.5701329 54.1675334,66.8387621 54.1675334,67.1701329 C54.1675334,67.5015038 54.0422236,67.7701329 53.8876463,67.7701329 L47.2822996,67.7701329 C47.1277222,67.7701329 47.0024125,67.5015038 47.0024125,67.1701329 C47.0024125,66.8387621 47.1277222,66.5701329 47.2822996,66.5701329 L53.8876463,66.5701329 Z M53.8876463,62.8594728 C54.042224,62.8594728 54.167534,63.1281019 54.167534,63.4594728 C54.167534,63.7908436 54.042224,64.0594728 53.8876463,64.0594728 L47.2822996,64.0594728 C47.1277219,64.0594728 47.0024119,63.7908436 47.0024119,63.4594728 C47.0024119,63.1281019 47.1277219,62.8594728 47.2822996,62.8594728 L53.8876463,62.8594728 Z M64.9711927,62.8594728 C65.1257705,62.8594728 65.2510805,63.1281019 65.2510805,63.4594728 C65.2510805,63.7908436 65.1257705,64.0594728 64.9711927,64.0594728 L58.3658473,64.0594728 C58.2112696,64.0594728 58.0859596,63.7908436 58.0859596,63.4594728 C58.0859596,63.1281019 58.2112696,62.8594728 58.3658473,62.8594728 L64.9711927,62.8594728 Z M43.9796275,62.7907562 C44.1342052,62.7907562 44.2595152,63.0593853 44.2595152,63.3907562 C44.2595152,63.722127 44.1342052,63.9907562 43.9796275,63.9907562 L20.9168933,63.9907562 C20.7623156,63.9907562 20.6370056,63.722127 20.6370056,63.3907562 C20.6370056,63.0593853 20.7623156,62.7907562 20.9168933,62.7907562 L43.9796275,62.7907562 Z M69.3374389,59.011381 C69.4920167,59.011381 69.6173267,59.2800102 69.6173267,59.611381 C69.6173267,59.9427519 69.4920167,60.211381 69.3374389,60.211381 L33.0640126,60.211381 C32.9094349,60.211381 32.7841249,59.9427519 32.7841249,59.611381 C32.7841249,59.2800102 32.9094349,59.011381 33.0640126,59.011381 L69.3374389,59.011381 Z M27.5782168,59.011381 C27.7327945,59.011381 27.8581045,59.2800102 27.8581045,59.611381 C27.8581045,59.9427519 27.7327945,60.211381 27.5782168,60.211381 L20.9728714,60.211381 C20.8182936,60.211381 20.6929836,59.9427519 20.6929836,59.611381 C20.6929836,59.2800102 20.8182936,59.011381 20.9728714,59.011381 L27.5782168,59.011381 Z M44.0915823,55.2320043 C44.24616,55.2320043 44.37147,55.5006335 44.37147,55.8320043 C44.37147,56.1633752 44.24616,56.4320043 44.0915823,56.4320043 L21.0288482,56.4320043 C20.8742704,56.4320043 20.7489604,56.1633752 20.7489604,55.8320043 C20.7489604,55.5006335 20.8742704,55.2320043 21.0288482,55.2320043 L44.0915823,55.2320043 Z" id="Combined-Shape" fill="#007373" opacity="0.8" transform="translate(45.127166, 63.425115) scale(-1, 1) translate(-45.127166, -63.425115) "></path>
                                <path d="M59.8463681,25.9740306 L69.811693,35.5951651 L59.8463681,45.2162996 L57.5180212,42.9688627 L65.1549991,35.5951651 L57.5180212,28.2214675 L59.8463681,25.9740306 Z M30.1616318,25.9740306 L32.3887463,28.2214675 L25.0838108,35.5951651 L32.39617,42.9688627 L30.1690555,45.2162996 L20.6370056,35.5951651 L30.1616318,25.9740306 Z M39.582326,33.4571352 L39.582326,36.1296725 L36.6722297,36.1296725 L36.6722297,33.4571352 L39.582326,33.4571352 Z M51.638439,33.4571352 L51.638439,36.1296725 L48.7283427,36.1296725 L48.7283427,33.4571352 L51.638439,33.4571352 Z M45.8182465,33.4571352 L45.8182465,36.1296725 L42.9081503,36.1296725 L42.9081503,33.4571352 L45.8182465,33.4571352 Z" id="Combined-Shape" fill="#007373" opacity="0.8"></path>
                            </g>
                        </g>
                        <g id="men-with-chart" transform="translate(281.334179, 183.944043) scale(-1, 1) translate(-281.334179, -183.944043) translate(194.334179, 74.944043)">
                            <g id="chart">
                                <path d="M47.3279993,85.8811273 C47.77942,85.8811273 48.2123516,86.0388899 48.5315542,86.3197092 C48.8507569,86.6005284 49.030083,86.981401 49.030083,87.3785394 L49.029944,140.235512 L38.030083,140.235512 L38.0302221,87.3785394 C38.0302221,86.5515415 38.7922709,85.8811273 39.7323058,85.8811273 L47.3279993,85.8811273 Z M68.2485815,99.293322 C69.1886046,99.293322 69.9506438,99.9637363 69.9506438,100.790734 L69.9503657,140.235512 L58.9506438,140.235512 L58.9509219,100.790734 C58.9509219,99.9637363 59.7129611,99.293322 60.6529841,99.293322 L68.2485815,99.293322 Z M89.1691638,61.2638078 C90.1091749,61.2638078 90.8712045,61.9342221 90.8712045,62.76122 L90.8707874,140.235512 L79.8712045,140.235512 L79.8716217,62.76122 C79.8716217,61.9342221 80.6336512,61.2638078 81.5736624,61.2638078 L89.1691638,61.2638078 Z M110.089746,91.4552029 C111.029745,91.4552029 111.791765,92.0104492 111.791765,92.6953802 L111.791209,140.235512 L100.791765,140.235512 L100.792321,92.6953802 C100.792321,92.0104492 101.554341,91.4552029 102.494341,91.4552029 L110.089746,91.4552029 Z" id="Shape" fill="#007373" opacity="0.8"></path>
                                <polyline id="Path" stroke="#026A6A" stroke-width="2" stroke-linecap="round" points="5.30814061 50.376608 30.8504909 29.4891316 55.0680794 41.8826786 79.2856678 3.8531644 107.097548 31.3592516"></polyline>
                                <path d="M5.30814061,44.3527617 C8.06956436,44.3527617 10.3081406,46.591338 10.3081406,49.3527617 C10.3081406,52.1141855 8.06956436,54.3527617 5.30814061,54.3527617 C2.54671686,54.3527617 0.308140614,52.1141855 0.308140614,49.3527617 C0.308140614,46.591338 2.54671686,44.3527617 5.30814061,44.3527617 Z M55.2550552,37.7527987 C58.0164789,37.7527987 60.2550552,39.9913749 60.2550552,42.7527987 C60.2550552,45.5142224 58.0164789,47.7527987 55.2550552,47.7527987 C52.4936315,47.7527987 50.2550552,45.5142224 50.2550552,42.7527987 C50.2550552,39.9913749 52.4936315,37.7527987 55.2550552,37.7527987 Z M149.405424,27.0087754 C152.166847,27.0087754 154.405424,29.2473516 154.405424,32.0087754 C154.405424,34.7701991 152.166847,37.0087754 149.405424,37.0087754 C146.644,37.0087754 144.405424,34.7701991 144.405424,32.0087754 C144.405424,29.2473516 146.644,27.0087754 149.405424,27.0087754 Z M31.0539256,25.3592516 C33.8153493,25.3592516 36.0539256,27.5978279 36.0539256,30.3592516 C36.0539256,33.1206754 33.8153493,35.3592516 31.0539256,35.3592516 C28.2925018,35.3592516 26.0539256,33.1206754 26.0539256,30.3592516 C26.0539256,27.5978279 28.2925018,25.3592516 31.0539256,25.3592516 Z M79.4561848,0.723284468 C82.2176086,0.723284468 84.4561848,2.96186072 84.4561848,5.72328447 C84.4561848,8.48470822 82.2176086,10.7232845 79.4561848,10.7232845 C76.6947611,10.7232845 74.4561848,8.48470822 74.4561848,5.72328447 C74.4561848,2.96186072 76.6947611,0.723284468 79.4561848,0.723284468 Z" id="Combined-Shape" fill="#008383"></path>
                            </g>
                            <g id="men" transform="translate(106.435167, 24.170476)">
                                <path d="M0.0690179989,8.38917982 C0.148135328,9.13588254 0.444604421,9.84296132 0.921689461,10.4228013 C1.53987627,11.1219919 2.46502481,11.4417437 3.29637948,11.8595527 C5.44787953,12.9607634 7.09123352,14.8500096 7.88375195,17.1333257 C9.30344994,21.277309 9.4867743,25.6600403 11.2944378,29.6590695 C13.1021013,33.6580986 15.2252532,37.4993836 16.785642,41.5964699 C17.6724203,43.9199997 18.3801377,46.3373233 19.6804616,48.4519485 C20.3099796,49.4919402 21.1131837,50.4162737 22.0551517,51.1847605 C21.9570944,52.6854623 21.9187242,54.1691106 21.9272509,55.6698124 C22.5128041,55.6582704 23.0633161,55.9480135 23.3853191,56.4372167 C23.7008154,56.9232771 23.9180715,57.4664174 24.0248227,58.0359757 C24.6089027,60.4532993 23.8883953,63.0283671 24.4127883,65.4584808 C25.8534721,72.2181454 25.4110645,79.2435793 23.1337811,85.769115 C22.5497011,87.4232977 21.8164036,92.8974485 22.4388538,94.538841 C24.7581202,94.3043564 26.8130584,95.7283177 28.9831073,96.6705197 C29.1585654,97.9567009 29.0538524,99.2656133 28.6761456,100.507541 C27.8959512,102.754331 27.9002145,105.197234 27.9130046,107.571924 L28.0195885,125.162537 C28.0195885,127.392272 28.049432,129.651852 28.6079318,131.813374 C29.2431721,134.247751 30.5776029,136.729025 30.5349694,139.244406 C30.4198587,144.65887 32.9778731,149.817532 32.7732319,155.189362 C32.7348617,156.221095 32.5941709,157.2443 32.4961137,158.267506 C32.2443348,160.993259 32.3130174,163.739132 32.7007549,166.448889 C33.4766859,171.846299 35.5273608,177.154179 35.0157579,182.581433 C34.981651,182.948082 34.8580137,183.434104 34.5126817,183.574795 C34.9390175,184.056555 35.3909333,184.534051 35.8513759,184.99023 C35.758205,185.145584 35.631476,185.27814 35.4804638,185.378195 C34.9766864,185.641286 34.4199305,185.787034 33.8518613,185.804531 C33.1853726,185.822017 32.538237,186.032299 31.9887742,186.409928 C31.5893733,186.79313 31.3183335,187.290532 31.2128432,187.833889 C30.9059016,188.920385 31.0930463,190.08692 31.724446,191.02288 C32.1051149,191.502075 32.602892,191.875041 33.1697242,192.105773 C35.1393952,192.958445 37.3989746,192.340258 39.4539128,191.717808 L47.5031315,189.279167 C47.9940968,189.177187 48.4471665,188.94106 48.8119821,188.59703 C48.9788941,188.399853 49.0893778,188.161208 49.1317339,187.906366 C50.9095539,188.332702 52.8621716,187.808309 54.6740985,187.266863 L62.7233171,184.823959 C63.2149716,184.723917 63.6685463,184.487527 64.0321678,184.141822 C64.3254822,183.785077 64.4456929,183.316723 64.3604463,182.862814 C64.4201333,182.837234 64.4798203,182.820181 64.5395073,182.790337 C65.1534307,182.513219 65.8185145,181.971773 65.669297,181.319479 C65.562713,180.893143 65.1363773,180.645869 64.9530529,180.25364 C64.7775721,179.734625 64.8912322,179.161453 65.2514879,178.748675 C65.5669764,178.322339 65.9933121,177.96848 66.2832204,177.520828 C67.2126323,176.096866 66.5816554,174.225253 66.2320601,172.55828 C65.4774459,168.998376 66.1766365,165.280729 65.6991405,161.673929 C65.5371329,160.458872 65.2429612,159.265132 65.0084766,158.058602 C64.5116009,155.206874 64.1827554,152.328408 64.023641,149.438093 C63.7166793,145.311163 62.5698362,141.24392 63.2263932,137.151097 C63.5452209,134.748982 63.6806188,132.326072 63.6314122,129.90339 C63.6777984,128.360069 63.6108259,126.815425 63.4310344,125.281911 C63.2647634,124.139331 62.9705918,123.018068 62.8426911,121.871225 C62.7389233,120.582126 62.7161406,119.287786 62.7744773,117.995833 C62.8332626,115.11583 62.5672554,112.238376 61.9814929,109.417958 C61.1288214,105.542566 59.5257991,101.833445 58.8436619,97.9495269 C59.0738832,98.0006872 59.3041045,98.0518475 59.5257991,98.1115345 C59.5513792,95.1271843 56.9379412,88.6383545 55.9701591,85.8074853 C55.8284945,85.460729 55.7421754,85.0938729 55.7143576,84.7203291 C55.7728709,84.2276954 55.8625816,83.7392704 55.9829491,83.2579976 C56.1065865,82.2262651 55.5566134,81.2456929 55.4073959,80.2139605 C55.3492635,79.4882117 55.4024598,78.7578409 55.5651401,78.0481749 C56.2515407,74.2324702 57.1042121,70.4466089 57.9568836,66.6650109 C58.3286506,65.2953814 58.4570796,63.8711188 58.3363224,62.4570773 C58.1358371,60.9408305 58.602382,59.4121184 59.6153296,58.266197 C59.9899317,57.9205705 60.3091513,57.5193891 60.5617949,57.0767203 C60.7035802,56.6968517 60.7673787,56.2923107 60.7493826,55.8872436 C60.7324498,54.1335532 60.4742253,52.390538 59.9819783,50.7072645 C60.7323292,49.3472535 61.0094474,47.6760175 61.2268786,46.0985752 C61.7043747,42.6154123 62.1818707,39.115196 62.1648172,35.5979262 C62.202803,33.7215675 61.9438023,31.8510069 61.3974129,30.0555617 C60.9982952,28.9467059 60.5107027,27.8717212 59.9393447,26.8409903 C57.6968188,22.5222093 55.5523501,17.9774704 52.7214808,14.0210748 C51.8688093,12.8188081 52.4059924,11.1603621 52.4656794,9.67671373 C52.5296297,7.88610366 51.8219124,6.16797066 51.1269852,4.52231474 C50.7724526,3.50949163 50.2284368,2.57337942 49.5239628,1.76392256 C49.042441,1.23395374 48.3639943,0.925568856 47.6480856,0.911251099 C46.8358988,1.01048502 46.1065632,1.4567949 45.648571,2.13483465 C44.6071547,3.55339805 44.1758365,5.3293236 44.4505676,7.06753906 C44.7337972,8.79015797 45.4844132,10.4019917 46.6206165,11.7273886 C47.1694388,12.3943026 47.7980049,12.9913688 48.4922303,13.5052086 C49.1971054,15.7448923 49.907665,17.9831549 50.623909,20.2199964 C51.7494353,23.7798997 52.8749617,27.3568565 54.4609306,30.7249088 C54.9256365,31.7012176 55.4372394,32.6945799 55.4926631,33.7732093 C55.5523501,34.9371058 55.0663273,36.0455787 54.6783618,37.1412615 C53.861027,39.4249303 53.3980655,41.8202528 53.3055608,44.2440148 C53.1809233,44.2992783 53.061131,44.3648788 52.9474387,44.4401293 C51.6044812,45.3183809 51.1824088,47.2326283 49.7840276,48.017086 C48.9697264,48.4732653 47.9806275,48.4434218 47.068269,48.6523263 C46.9872652,48.6523263 46.9062614,48.6949599 46.8209943,48.72054 C46.7868874,48.5500057 46.7527806,48.3837348 46.7314638,48.2089371 C46.7183741,48.0999024 46.7183741,47.9896933 46.7314638,47.8806586 C48.9053124,46.6854572 50.7313979,44.9460483 52.0308169,42.8328435 C52.3046169,42.4414889 52.5160363,42.0100208 52.6575304,41.5538364 C52.7726014,41.0071895 52.7942241,40.4449975 52.7214808,39.891127 C52.6502682,38.0424874 52.3859235,36.2063634 51.9327597,34.4127129 C51.4779149,32.6103923 50.4826642,30.9903205 49.0805737,29.7699167 C48.3813831,29.2071536 47.5756085,28.7850812 46.8806813,28.2180547 C45.5249337,27.1223719 44.5955218,25.5022961 43.0436597,24.6879948 C41.0035291,23.6944066 38.5438128,24.3305713 37.2412304,26.1886966 C37.0347978,26.6046455 36.7444805,26.9733484 36.3885589,27.2715894 C36.1170987,27.4000168 35.8524212,27.5423166 35.5955745,27.6979251 C35.1266052,28.0731005 35.101025,28.7936079 35.2545059,29.3776879 C35.5454221,30.5778338 35.7083394,31.8054295 35.7405286,33.0399118 C32.898854,36.3747051 32.8880301,41.2761422 35.7149485,44.6234536 C35.7149485,45.4164381 35.7149485,46.2094225 35.685105,47.002407 C35.685105,47.1516245 35.685105,47.3051054 35.6552615,47.4543229 C35.1635924,47.2830065 34.723496,46.9896089 34.3762543,46.6016514 C33.8987583,46.0047814 33.8134911,45.1265298 33.2294112,44.6362437 C32.8093919,44.3593232 32.3305894,44.1841515 31.83103,44.1246408 C30.5894329,43.8425704 29.4250457,43.290942 28.4203441,42.5088284 C27.631623,41.8991683 26.8130584,41.1189739 25.8921732,40.9399129 C24.3031578,37.9592921 22.4481667,35.1282902 20.3498087,32.481412 C19.8176402,31.8548369 19.3331067,31.1893159 18.9002672,30.4904241 C17.9836454,28.8916651 17.7107906,27.0115246 17.130974,25.2592847 C15.5108982,20.3478971 11.4692355,16.4085549 10.4843999,11.326633 C10.1262779,9.48486265 8.95811799,7.8818403 8.15660682,6.18502409 C7.61516044,5.03818098 7.01829042,3.8273875 5.93539766,3.17083047 C4.54127982,2.31815901 2.61424231,2.71038788 1.45460913,3.857231 C0.317072956,5.07250368 -0.194446935,6.7455672 0.0690179989,8.38917982 L0.0690179989,8.38917982 Z M50.6878594,180.922987 C50.1840819,181.186078 49.627326,181.331826 49.0592569,181.349323 C48.7727472,181.379134 48.4880936,181.424679 48.2065854,181.48575 C48.1000015,180.590445 48.0403145,179.68235 47.9721008,178.799835 C47.7461428,175.905015 47.2942269,173.031513 46.8465744,170.162273 C46.3776051,167.177923 46.1559105,163.912191 45.1412315,161.047215 C43.5083657,156.383102 41.854183,151.578299 42.0630875,146.637067 C42.1099845,145.515804 42.2506752,144.403068 42.3103622,143.286069 C42.4467897,140.51915 42.0588242,137.692544 42.736698,135.002365 C43.0393963,133.778782 43.5552626,132.610622 43.751377,131.365721 C43.8764652,130.241475 43.890745,129.107656 43.7940106,127.980616 C43.6076811,124.068299 43.9330255,120.148399 44.7617927,116.320334 C45.5547772,117.356329 45.814842,118.695024 46.0407999,119.978294 L47.6395589,128.649963 C48.5902876,133.795835 49.430169,139.252933 51.9498131,143.831778 C51.5959545,145.481698 51.2463592,147.242464 51.8304391,148.819906 C52.0819772,149.502043 52.4955229,150.098914 52.7513243,150.789577 C53.17766,151.936421 53.117973,153.198374 53.2458738,154.413431 C53.522992,156.971446 54.5803046,159.486826 53.8043736,161.95531 C53.0062447,164.50066 52.4873271,167.125268 52.2567749,169.782834 C52.2143807,170.521897 52.1289689,171.257862 52.0009734,171.98699 C51.864546,172.643547 51.6428514,173.265997 51.519214,173.939608 C51.3487452,174.884914 51.3909804,175.856323 51.6428514,176.783267 C51.8342734,177.297011 51.9519738,177.835275 51.9924467,178.382026 C51.9924467,178.927736 51.3230996,179.319965 50.7859166,179.405232 C50.9436608,179.609873 51.1141951,179.805987 51.2889927,179.997838 C51.1863697,180.359729 50.9768446,180.682189 50.6878594,180.922987 L50.6878594,180.922987 Z" id="Shape" fill="url(#linearGradient-3)" fill-rule="nonzero"></path>
                                <path d="M51.5405308,179.75909 C52.2397214,178.970369 53.2458738,179.213381 54.2690795,179.213381 C57.018945,179.264541 59.8412875,179.545922 62.3481416,180.765243 C63.030602,181.05353 63.6205826,181.52404 64.0534845,182.125254 C64.486707,182.750494 64.4729853,183.58237 64.0193777,184.192982 C63.654318,184.53583 63.2011848,184.770515 62.710527,184.870856 L62.710527,184.870856 L54.6613084,187.296706 C52.86053,187.838434 50.905875,188.380162 49.1215447,187.932072 C49.0707046,188.175011 48.9669859,188.409571 48.8119821,188.618347 C48.4469225,188.961195 47.9937893,189.19588 47.5031315,189.296221 L47.5031315,189.296221 L39.4539128,191.717808 C37.3989746,192.335994 35.1393952,192.958445 33.1697242,192.105773 C32.6031804,191.876577 32.1053708,191.505055 31.724446,191.027144 C31.0940426,190.100394 30.9066925,188.941946 31.2128432,187.863733 C31.3164829,187.322164 31.5879534,186.826954 31.9887742,186.448298 C32.538237,186.070669 33.1853726,185.860387 33.8518613,185.842901 C34.420389,185.826374 34.978132,185.683662 35.4847272,185.425092 C36.0389636,185.062707 35.9707499,184.606528 36.3373987,184.180192 C37.0323259,183.391471 38.0427416,183.638745 39.0659473,183.638745 C41.5092088,183.684202 44.0096863,183.908037 46.2922644,184.812637 C46.2507524,184.355675 46.2923584,183.890029 46.4202387,183.438368 C46.524972,182.897193 46.7962692,182.402299 47.1961697,182.022933 C47.7464948,181.647056 48.3931002,181.436946 49.0592569,181.417536 C49.6269491,181.404766 50.1841302,181.261824 50.6878594,180.999727 C51.2420958,180.637342 51.1738821,180.185426 51.5405308,179.75909 Z" id="Combined-Shape" fill="#005E7D"></path>
                                <path d="M42.0630875,94.061345 C46.8065939,93.5847116 51.5782976,93.450779 56.3410712,93.6605894 C56.6553512,93.6573715 56.9679848,93.7063556 57.2662197,93.8055436 C58.3150056,94.2318793 58.4770132,95.6046804 58.5750704,96.7259433 C59.0014061,101.279209 60.9881306,105.521249 61.9857562,109.980721 C62.5716123,112.783837 62.8376407,115.644358 62.7787407,118.507436 C62.7211143,119.78661 62.7438971,121.06814 62.8469544,122.344457 C62.9748551,123.482774 63.2732901,124.599773 63.4352977,125.733826 C63.6151649,127.257341 63.68214,128.79207 63.6356755,130.325462 C63.6844497,132.729714 63.5490475,135.134171 63.2306566,137.517746 C62.5740996,141.580726 63.7209427,145.618125 64.0279044,149.728001 C64.1808842,152.602478 64.5040445,155.465365 64.9956865,158.301613 C65.2301712,159.499616 65.5243428,160.68483 65.6863504,161.89136 C66.1638464,165.476843 65.4646558,169.168911 66.2192701,172.707497 C66.5688654,174.36168 67.1998422,176.220504 66.2704303,177.635938 C65.980522,178.062274 65.5541863,178.42466 65.2386979,178.855259 C64.878302,179.264579 64.7644548,179.835441 64.9402629,180.351697 C65.1235872,180.739663 65.549923,180.995464 65.6565069,181.40901 C65.8227778,182.061303 65.1406407,182.594223 64.5267172,182.871341 C59.9009745,184.960386 53.9365376,183.489528 50.8157601,179.486235 C51.3529431,179.400968 52.0095001,179.013003 52.0222902,178.467293 C51.9813047,177.92477 51.8636015,177.3908 51.6726949,176.881324 C51.4216014,175.961523 51.3793584,174.997216 51.5490575,174.058982 C51.6726949,173.402425 51.8943895,172.779974 52.0308169,172.119154 C52.1588081,171.394321 52.2442216,170.662613 52.2866184,169.927788 C52.5172176,167.286966 53.036174,164.679318 53.8342171,162.151425 C54.6101481,159.699994 53.5528355,157.21872 53.2757173,154.660706 C53.1478165,153.449912 53.2032402,152.200749 52.7811678,151.058169 C52.5253664,150.384558 52.1118207,149.779162 51.8602826,149.105551 C51.2762027,147.532372 51.625798,145.784396 51.9796566,144.147267 C49.4600125,139.598264 48.6201311,134.175274 47.6694024,129.063509 L46.0706434,120.451527 C45.8318954,119.17252 45.5718306,117.846615 44.7916362,116.814883 C43.9629063,120.616983 43.6375254,124.511519 43.8238541,128.398425 C43.9205414,129.518353 43.9062607,130.645096 43.7812205,131.762214 C43.5851061,132.998587 43.0692398,134.162484 42.7665415,135.373277 C42.1057211,138.046402 42.4936866,140.851692 42.3402057,143.601557 C42.2805187,144.714293 42.139828,145.818503 42.092931,146.931239 C41.8840265,151.842627 43.5382092,156.617587 45.171075,161.251856 C46.172964,164.095516 46.3946586,167.32714 46.8764179,170.302964 C47.3027537,173.15515 47.7759863,176.007336 48.0019443,178.885102 C48.2108488,181.528384 48.3046426,184.389096 49.9502985,186.465351 C48.4453334,187.44166 46.8934714,188.435022 45.1327048,188.771828 C43.0807824,189.092855 40.9812138,188.685611 39.1981114,187.620721 C37.4251051,186.560587 35.8403418,185.213538 34.5084184,183.634482 C34.8537503,183.515108 34.9773877,183.012032 35.0114945,182.649647 C35.5230974,177.252236 33.4724225,171.991253 32.6964915,166.619423 C32.3086183,163.928271 32.2399288,161.200728 32.4918504,158.493464 C32.5899076,157.474522 32.7305984,156.455579 32.7689686,155.432374 C32.9736097,150.098914 30.4028053,144.961568 30.4965991,139.623845 C30.5392327,137.121254 29.2175919,134.657033 28.5695616,132.23971 C28.0110618,130.108031 27.9940084,127.848452 27.9812183,125.631506 L27.8746344,108.151741 C27.8746344,105.789841 27.8746344,103.368254 28.6377753,101.138518 C29.575714,98.452603 28.5013479,95.3701957 28.3393403,92.5307997 C32.7695323,93.9348725 37.4324143,94.4549019 42.0630875,94.061345 L42.0630875,94.061345 Z" id="Path" fill="#008AB6"></path>
                                <path d="M42.4126828,30.9977637 C47.2984513,30.9977637 51.2591492,34.9584616 51.2591492,39.8442301 C51.2591492,43.0630992 49.5400039,45.8804404 46.9697933,47.4281737 C46.8023283,48.0562235 46.634651,48.7028083 46.6973569,49.1596658 C46.9105248,50.7584248 47.7674596,52.1909128 48.6030776,53.5722406 C49.1061538,54.4249121 49.7499208,55.3330072 50.7347563,55.426801 C48.171632,56.7719423 45.4791469,57.8546498 42.6983278,58.6584259 C41.7531715,58.9759816 40.7622058,59.1358612 39.7651379,59.1317393 C38.9202216,59.0686238 38.093147,58.8564424 37.3222342,58.504945 C33.9059912,57.0172396 31.3616115,54.04382 30.4198587,50.438673 C31.5212744,50.4680142 32.6227805,50.3837226 33.7069072,50.1871349 C34.3259972,50.1395876 34.9030521,49.8556399 35.3184563,49.3941505 C35.565499,48.9619658 35.681069,48.4670889 35.6509981,47.9701891 C35.6739406,47.1763793 35.6857716,46.3813349 35.684498,45.5863846 C34.3631874,44.041358 33.5662164,42.0358653 33.5662164,39.8442301 C33.5662164,34.9584616 37.5269143,30.9977637 42.4126828,30.9977637 Z M1.44181905,5.10213134 C2.60145224,3.95975849 4.52848975,3.5673227 5.92260759,4.41999417 C7.00550035,5.06376112 7.60237037,6.26602788 8.14381675,7.40434429 C8.94532792,9.10968721 10.1134878,10.6871294 10.4716098,12.5203731 C11.4564454,17.5639248 15.4981081,21.4819501 17.1181839,26.3592309 C17.6980005,28.0986807 17.9708554,29.9660312 18.8874772,31.5562635 C19.3204262,32.2510396 19.8049709,32.9123005 20.3370187,33.5344613 C22.8833942,36.7200195 25.0722468,40.1755758 26.8642187,43.8389959 C27.6358864,45.4292282 26.6894211,47.4074259 26.1565014,49.0871887 C25.679668,50.5572624 25.4449651,52.0950707 25.4615741,53.6404543 C23.0101437,53.3207025 20.9807856,51.5343558 19.6804616,49.4026772 C18.3801377,47.2709985 17.6724203,44.8877818 16.785642,42.5813055 C15.2252532,38.5183259 13.1021013,34.7068845 11.2944378,30.7334355 C9.4867743,26.7599865 9.30344994,22.4028353 7.88375195,18.2886955 C7.0883603,16.0154365 5.44456564,14.1379052 3.29637948,13.0490294 C2.46502481,12.6312203 1.53987627,12.3157319 0.921689461,11.6208047 C0.445381321,11.0454241 0.148849483,10.3426436 0.0690179989,9.5999733 C-0.196072653,7.96890047 0.311104672,6.30718595 1.44181905,5.10213134 Z M47.6139787,2.17320486 C48.3295462,2.18902138 49.0074293,2.49715006 49.489856,3.02587633 C50.1931091,3.82819727 50.7371403,4.75710169 51.0928783,5.76295172 C51.7878056,7.40008093 52.4955229,9.10542385 52.4315725,10.8789805 C52.3718855,12.3541021 51.8219124,13.999758 52.6873739,15.1977615 C55.5182432,19.1285769 57.6627119,23.6434723 59.9052379,27.9366731 C60.4772685,28.9596801 60.9649078,30.0276387 61.3633061,31.1299277 C61.9109702,32.9163199 62.1700295,34.7786685 62.1307104,36.6467121 C62.1307104,40.1384017 61.6702678,43.6173013 61.1927718,47.0791474 C60.8900734,49.2491963 60.4935812,51.6110963 58.8521886,53.0478477 C57.1468457,50.8650087 55.4329761,48.7333301 53.2586638,47.0279871 C53.1490959,44.0134286 53.6194781,41.0058773 54.644255,38.1687306 C55.0364838,37.0815745 55.4969264,35.977365 55.4585562,34.8219952 C55.4031326,33.7476291 54.8915297,32.7627936 54.4268237,31.7907481 C52.8238014,28.4440126 51.698275,24.8968993 50.5898021,21.3583128 L48.4581235,14.6861586 C47.7631151,14.1765062 47.1343905,13.5821538 46.5865096,12.9168653 C45.4501993,11.6030689 44.6991914,10.0007219 44.4164608,8.28685925 C44.141666,6.56070481 44.5734699,4.79660918 45.6144642,3.39252505 C46.0741117,2.71692982 46.802903,2.27250698 47.6139787,2.17320486 Z" id="Combined-Shape" fill="#F7A17D"></path>
                                <path d="M42.8091751,54.5357594 C43.0080614,52.1452378 44.7156122,50.1508048 47.0469522,49.5860015 C47.9593107,49.3813604 48.9484096,49.4069405 49.7627108,48.9550246 C51.161092,48.1748303 51.5831644,46.2733729 52.926122,45.3993847 C54.2690795,44.5253964 56.1748002,45.0114191 57.3429601,46.1156287 C58.51112,47.2198382 59.1037267,48.7930171 59.5812227,50.3320891 C60.2940802,52.4131171 60.6809299,54.5918433 60.7280658,56.7910754 C60.7458474,57.1933495 60.6820376,57.5950617 60.5404781,57.9720254 C60.2876725,58.4120564 59.9684209,58.8104019 59.5940128,59.1529753 C58.5816976,60.2890449 58.1147126,61.8098594 58.3150056,63.3182754 C58.4361615,64.7224514 58.3076985,66.1369882 57.9355668,67.4963656 C57.0828953,71.2566467 56.2302239,75.0126645 55.5438233,78.8070525 C55.3827648,79.5053983 55.3295671,80.2242852 55.3860791,80.9387312 C55.5182432,81.9662003 56.0852697,82.9382458 55.9616324,83.9657149 C55.8408925,84.4440278 55.7511752,84.9296404 55.6930408,85.4195197 C55.7208989,85.7903019 55.8072329,86.1543436 55.9488423,86.4981491 C56.9166244,89.3077016 59.5300624,95.7453711 59.5044823,98.7211946 C54.9640067,97.557298 48.2705358,97.2972332 43.5808427,97.2759164 C42.2911647,97.2624197 41.0017116,97.3193492 39.718241,97.4464507 C36.6358337,97.7789926 33.4809493,98.678561 30.4923358,97.8472063 C27.7168902,97.0755386 25.2611964,94.8628562 22.3919569,95.1399744 C21.7695067,93.5113719 22.5028042,88.0755913 23.0868841,86.4299354 C25.3639465,79.9500335 25.8065634,72.9670148 24.3658913,66.2514653 C23.8414984,63.838405 24.5620058,61.2761273 23.9779258,58.8801205 C23.8711745,58.3132144 23.6538761,57.7728656 23.3384222,57.2898882 C23.0154186,56.8023093 22.4650837,56.5142685 21.880354,56.5267472 C21.8272189,52.672695 22.1845118,48.8239361 22.9461933,45.045526 C23.2275749,43.7025684 23.7988648,42.1165995 25.1759292,41.8863782 C26.3952494,41.6774737 27.4184552,42.7092062 28.3990273,43.4638204 C29.4044431,44.2420875 30.5689151,44.7893893 31.8097132,45.0668428 C32.3092726,45.1263535 32.7880751,45.3015251 33.2080944,45.5784457 C33.7921743,46.0644684 33.8774415,46.9384566 34.3549375,47.5310633 C35.207609,48.5926393 37.1133297,48.5031088 37.7187264,49.7266923 C37.8510846,50.09116 37.9579264,50.4643942 38.0384782,50.8436919 C38.3248522,51.5707556 38.8129739,52.2008763 39.4453861,52.6598822 C40.3950346,53.552679 41.5505249,54.1970589 42.8091751,54.5357594 Z" id="Path" fill="#B08814"></path>
                                <path d="M35.2246624,30.4392638 C35.0711815,29.8551839 35.0967617,29.1602566 35.565731,28.7680278 C35.8002156,28.5847034 36.1071774,28.5164897 36.3587154,28.341692 C36.713215,28.0437606 37.003333,27.6767614 37.2113869,27.2630626 C38.5250714,25.4247153 40.9738117,24.8030704 43.0052895,25.7922044 C44.5443615,26.5979789 45.4737734,28.209528 46.8423111,29.2966841 C47.5372383,29.8594472 48.3430128,30.2772563 49.0422034,30.8400194 C50.4425203,32.0496252 51.438037,33.6597136 51.8943895,35.452972 C52.3475195,37.233608 52.6118842,39.0570099 52.6831106,40.893016 C52.7558743,41.4440414 52.7342483,42.0034354 52.6191602,42.5471986 C52.4774741,43.0033068 52.2660688,43.4347462 51.9924467,43.8262058 C50.5855388,45.9578845 48.7309784,47.8934487 46.4074486,48.9933949 C44.0839189,50.0933411 41.257313,50.2724021 38.9636268,49.1212956 C38.7328688,49.0280583 38.5343268,48.8695211 38.3923369,48.6651164 C38.2619619,48.3538472 38.2306992,48.0099574 38.3028064,47.6802808 C38.4271366,46.3772401 38.1693709,45.0661903 37.5609822,43.9072096 C37.1346465,43.0545381 36.4951429,42.3212407 36.1540743,41.4387257 C35.8369218,40.4508927 35.701149,39.4138196 35.7533187,38.3776352 C35.7149485,35.6959834 35.8982728,33.0228584 35.2246624,30.4392638 Z" id="Path" fill="#D45925"></path>
                            </g>
                        </g>
                        <g id="men-with-bar" transform="translate(342.619485, 123.934518)">
                            <path d="M11.6226566,21.1961899 C12.074083,21.1961899 12.5070201,21.4108757 12.8262268,21.793019 C13.1454334,22.1751622 13.3247619,22.6934597 13.3247619,23.2338919 L13.3247619,60.276665 L2.32476187,60.276665 L2.32476187,23.2338919 C2.32476187,22.6934597 2.5040903,22.1751622 2.82329696,21.793019 C3.14250361,21.4108757 3.57544075,21.1961899 4.02686713,21.1961899 L11.6226566,21.1961899 Z" id="Path" fill="#007373"></path>
                            <g id="men" transform="translate(0.000000, -0.000000)">
                                <path d="M16.1196163,19.6591718 C12.1404742,18.6258724 8.02606387,17.5813007 3.96050039,18.2050378 C3.46416762,18.2377353 2.99139038,18.4286899 2.61157498,18.7498684 C2.10431891,19.2683968 2.16443815,20.158913 2.57400046,20.7563479 C3.02830218,21.3282708 3.64743783,21.746712 4.34751798,21.9549752 C6.24878889,22.6463465 8.3153877,22.7064657 10.3368971,22.7402828 C12.3584065,22.7740999 14.2972519,22.8191893 16.2060377,22.3457503 C16.6475475,22.2692901 17.0595732,22.0730255 17.3971501,21.778375 C18.4792964,20.6811989 17.0401921,19.8996488 16.1196163,19.6591718 Z" id="Path" fill="#F8B79D" fill-rule="nonzero"></path>
                                <path d="M46.1191162,29.3684288 C44.787602,29.4220417 43.4541145,29.3376757 42.1399741,29.1166795 C40.9678638,28.8752908 39.8130461,28.5564607 38.6831179,28.1622866 L34.5912522,26.8359059 C32.3743458,26.1694132 30.2029925,25.3598624 28.0908596,24.4123491 C24.4799479,22.7027083 21.1884196,20.158913 17.2731542,19.369848 C16.5667531,19.2270648 15.6724795,19.2233074 15.3080066,19.843287 C15.1646178,20.1412341 15.1024035,20.4717474 15.1276489,20.8014374 L15.1051042,23.6871608 C15.0869644,23.8784164 15.1180062,24.0711347 15.195283,24.2470212 C15.3003979,24.4054374 15.4438727,24.5346939 15.6123602,24.6227664 C19.3284806,27.0087487 23.5330699,28.6545129 26.9072621,31.5026618 C27.9292892,32.3631184 28.8648948,33.3287836 29.9395262,34.1328784 C31.3468907,35.1746146 32.9592718,35.9058852 34.6701587,36.2783837 C37.0636559,36.8006696 39.6600555,36.6240694 41.8281055,37.75882 C42.820073,38.273591 43.7068317,39.0588985 44.8077653,39.2618009 C45.7508858,39.4271288 46.7052787,39.1340476 47.6145822,38.8447237 C49.1175632,38.3675273 50.6618761,37.8452414 51.6801457,36.6654013 C52.9802242,35.1624204 53.0704031,32.9906129 53.0929478,31.0029206 C53.0929478,30.4393027 53.468693,28.1209546 53.11925,27.6888476 C52.6195088,27.0951701 51.8417161,27.974414 51.3494899,28.248708 C49.797662,29.1016497 47.8738464,29.3684288 46.1191162,29.3684288 Z" id="Path" fill="#00A2A2"></path>
                                <path d="M58.4398025,14.6166707 C58.9570997,15.4436961 60.3908569,26.4991185 63.3832145,28.5577389 C66.3755721,30.6163594 49.7563301,32.3293013 49.7563301,32.3293013 C49.7563301,32.3293013 52.9238624,20.6285946 51.4208815,18.6258724 C49.9179005,16.6231503 57.9225053,13.7896454 58.4398025,14.6166707 Z" id="Path" fill="#F8B79D" fill-rule="nonzero"></path>
                                <path d="M34.3582902,154.262389 C33.542923,154.386385 32.7087686,154.262389 31.8934014,154.360082 C30.7413642,154.493226 29.6750492,155.034381 28.8874395,155.885608 C28.6153448,156.127044 28.4583245,156.472488 28.4553325,156.836244 C28.5000343,157.08663 28.6222706,157.316644 28.8047756,157.493798 C29.556266,158.327952 30.6496847,158.756302 31.7431033,158.996779 C33.3721288,159.29694 35.028471,159.422898 36.6841532,159.372524 C40.802321,159.395069 44.9217413,159.413856 49.0424141,159.428886 C49.3403749,157.949365 49.2966807,156.421351 48.9146607,154.961275 C48.8345431,154.558095 48.657912,154.180337 48.3998898,153.860341 C48.1290783,153.598602 47.8100649,153.391881 47.4605267,153.251634 L44.9204888,152.037977 C42.9027369,151.072312 41.3058197,150.354638 39.2843103,151.545751 C37.646061,152.477599 36.267076,153.969307 34.3582902,154.262389 Z" id="Path" fill="#005E7D" fill-rule="nonzero"></path>
                                <path d="M60.6679718,164.542778 C60.7220803,164.994407 60.6824267,165.452342 60.5514908,165.887946 C60.2133201,166.774705 59.2025654,167.18051 58.2970193,167.439774 C54.1638217,168.600827 49.8126919,168.694763 45.5216812,168.781185 C42.3015445,168.845061 38.9874715,168.893908 35.9777522,167.751643 C35.3569863,167.55168 34.7901856,167.212371 34.3207157,166.759675 C33.843738,166.298671 33.6452254,165.620301 33.7984298,164.974885 C34.0351493,164.178306 34.8730612,163.749956 35.6283091,163.408028 L39.7427195,161.555604 L47.670944,157.986024 C48.659154,157.542645 49.6886959,157.09175 50.7708422,157.12181 C52.0821931,157.163142 53.2507608,157.907117 54.4230859,158.497038 C55.2693709,158.923624 56.1490231,159.280512 57.0533026,159.564154 C57.85364,159.812146 58.9771182,159.842205 59.6835193,160.270555 C60.9648105,161.04459 60.6003377,163.272759 60.6679718,164.542778 Z" id="Path" fill="#005E7D" fill-rule="nonzero"></path>
                                <path d="M35.9251478,85.9782065 C33.8472767,91.8473471 31.7581331,97.7578197 30.743621,103.901254 C30.3678758,106.099364 30.1574584,108.316261 29.755411,110.506856 C29.3796658,112.573454 28.8385926,114.677628 29.2143379,116.744227 C29.4585723,118.093152 30.0785519,119.340626 30.544476,120.625675 C31.1644557,122.335316 31.5176562,124.131378 32.1038188,125.852291 C33.0131222,128.520082 34.4672563,130.969941 35.3915896,133.630218 C36.2896207,136.211587 36.6879107,138.98083 37.9391423,141.408144 C38.6906328,142.851006 39.7164173,144.154842 40.1936137,145.699155 C40.8851535,148.032777 40.246702,150.557759 38.5290623,152.282211 C38.750752,153.285451 39.9193197,153.785192 40.8812275,154.160937 L44.3944455,155.457259 C45.7320986,155.949485 47.238837,156.441711 48.5276431,155.870578 C50.428914,155.040181 50.7821146,152.530203 50.7257528,150.459847 C50.5378802,145.417346 49.3279805,140.472538 48.1218383,135.57282 C46.9946026,131.063878 45.9011839,126.554935 44.5710458,122.094839 C44.0187003,120.253687 43.4438101,118.42005 42.9966732,116.545082 C41.3856863,109.552569 41.925293,102.236445 44.5447436,95.5559526 C46.0477246,91.7985002 44.7100715,87.1693189 44.8791569,83.1075128 L39.8366558,82.1794221 C38.8446883,81.9990644 37.6385461,81.8900983 37.0110516,82.6791633 C36.383557,83.4682283 36.2821058,84.9749667 35.9251478,85.9782065 Z" id="Path" fill="#76661D" fill-rule="nonzero"></path>
                                <path d="M59.8037577,83.2841131 C59.6722469,85.0914477 59.5257063,86.9513866 58.7065817,88.5445464 C58.2068405,89.528999 57.4816522,90.3781832 56.9142769,91.3250612 C55.4112959,93.8763714 55.1370019,96.9612398 55.0768826,99.9408995 C55.0167634,103.014496 55.1257295,106.088092 55.2384531,109.15793 C55.2403621,110.10585 55.3372879,111.051192 55.5277769,111.979777 C55.7156496,112.75757 56.0312756,113.501545 56.2116333,114.279338 C56.6437403,116.158064 56.2454503,118.145756 56.5047146,120.062057 C56.7038595,121.519949 57.256205,122.895176 57.695827,124.304221 C58.3433892,126.466607 58.6489265,128.716934 58.601373,130.973699 C58.4661047,137.083316 60.3936778,142.90361 60.4387672,149.00947 C60.4387672,151.113644 60.3636182,153.221574 60.5402184,155.32199 C60.728091,157.606521 61.2278322,159.853478 61.4758241,162.134251 C61.5321858,162.660295 61.5397008,163.261487 61.1338959,163.61093 C60.8315892,163.81217 60.4699529,163.904898 60.1081114,163.873952 C58.8062831,163.955114 57.4998386,163.828274 56.2379354,163.498207 C55.1106997,163.156278 54.1112174,162.555086 53.0177987,162.160554 C50.9775021,161.409063 48.4487366,161.25125 47.2801689,159.425128 C47.168261,159.270571 47.0995247,159.089003 47.081024,158.899085 C47.081024,158.380556 47.6333695,158.061173 47.8963911,157.610279 C48.0456773,157.315988 48.1205072,156.989575 48.1143234,156.659643 C48.2157746,154.254874 47.1373858,151.985373 46.4197124,149.689569 C45.7812632,147.449162 45.3090464,145.164688 45.0069103,142.854763 C44.2554198,138.086556 43.5039293,133.216898 44.2892368,128.452448 C44.4808669,127.280123 44.7251013,125.953742 44.0074279,125.010622 C43.6776599,124.653384 43.3153847,124.327588 42.9252816,124.037442 C42.0528383,123.250879 41.5499443,122.1347 41.5387817,120.960088 C41.5387817,117.202636 39.8253834,113.445183 39.6600555,109.687731 C39.5623617,107.515924 39.6938726,105.340359 39.5924214,103.168551 C39.3218848,97.4346788 37.4506735,91.9187387 35.7447901,86.4366156 C35.457049,85.6510884 35.2910571,84.8261972 35.2525639,83.9905141 C35.2101535,83.1358997 35.5552372,82.3076988 36.191927,81.7360427 C39.0551057,79.4402393 43.2972694,78.6699616 46.4685592,80.5186281 C47.0998112,80.8943734 47.6822164,81.3264804 48.3472854,81.6458639 C51.7966267,83.4531984 56.3055696,81.5519275 59.8037577,83.2841131 Z" id="Path" fill="#8F791D" fill-rule="nonzero"></path>
                                <circle id="Oval" fill="#F8B79D" fill-rule="nonzero" cx="53.9308597" cy="16.1196517" r="8.1837313"></circle>
                                <path d="M35.6733985,83.682403 C36.0166192,84.0285896 36.4306292,84.2964784 36.8870556,84.4677106 L39.382004,85.5949463 C39.7752352,85.810928 40.1980875,85.9679151 40.6369931,86.0608704 C41.1946816,86.1124821 41.7570634,86.0718586 42.3015445,85.9406319 C48.0530173,84.9044841 53.9525894,85.0155799 59.6609746,86.2675303 C61.4983688,83.5133177 61.6599392,79.9550103 61.1639555,76.6860267 C60.8971764,74.9500837 60.4650694,73.1577789 60.9460233,71.4669253 C61.1489257,70.741737 61.517156,70.0729105 61.7238159,69.3477222 C62.2874338,67.3713022 61.6073349,65.2408267 61.9192034,63.208045 C62.2949487,60.7168541 64.1097982,58.6991021 65.1055231,56.3920264 C65.66298,54.9628465 66.0697363,53.4793825 66.3191802,51.9657475 C66.6874105,50.1195858 67.0631558,48.2771817 67.4464159,46.438535 C67.8559782,44.4057533 68.2655405,42.3504268 68.1979064,40.2800705 C68.111485,37.1200531 66.9541896,34.1028188 65.8119241,31.1532187 C65.3309702,29.9132594 64.7711098,28.5756064 63.6138145,27.9142947 C62.1972549,27.1064425 60.412465,27.5949113 58.9019692,28.2036186 C56.9443365,28.9889261 55.0092485,29.9470765 52.920105,30.3453664 C52.0183164,30.5182092 50.7821146,30.2063407 49.9667474,30.4468176 C49.2678613,30.6534775 48.7906648,31.5965981 48.377345,32.1714883 C46.0644986,35.3575843 44.3892642,38.9606779 43.4438101,42.7825338 C42.4931746,46.6451949 42.2789998,50.7520903 40.5205121,54.3179126 C40.1178385,55.1063402 39.6712526,55.8715577 39.1828591,56.6099586 C38.1683469,58.1805737 37.0711708,59.7023419 36.383557,61.4345275 C35.3239555,64.1098336 35.3314704,67.0444039 35.3991045,69.9413997 C35.3991045,70.4185961 35.4254067,70.8882777 35.4329216,71.3617167 C35.5080706,74.6357102 35.4354265,77.9046938 35.2149893,81.1686674 C35.1435977,82.0403964 35.1060232,83.0135765 35.6733985,83.682403 Z" id="Path" fill="#00A2A2"></path>
                                <path d="M13.5645487,63.4334921 C9.45389578,63.5762753 5.21173203,63.7002713 1.3791306,62.2048052 C0.901529081,62.0644022 0.481462038,61.7747007 0.180503288,61.3781657 C-0.195241951,60.7619435 0.0527499065,59.9052443 0.582550693,59.4130181 C1.15085374,58.9550307 1.84589271,58.6822607 2.57400046,58.631468 C4.57672258,58.3684463 6.60574687,58.7704937 8.58592428,59.1725411 C10.5661017,59.5745885 12.4673726,59.9578487 14.2221029,60.8333351 C14.63516,61.006345 14.9935659,61.2881352 15.2591597,61.6487023 C16.100829,62.9600531 14.5151841,63.3996751 13.5645487,63.4334921 Z" id="Path" fill="#F8B79D" fill-rule="nonzero"></path>
                                <path d="M35.3878321,69.9338848 C36.2971356,69.9338848 37.2026816,69.8887953 38.1044702,69.836191 C39.1696036,69.8093318 40.2272789,69.6503019 41.2532153,69.362752 C42.7937708,68.8705257 44.1126366,67.859771 45.3676257,66.8490164 C49.3114858,63.6572862 52.9711728,60.1296045 56.3055696,56.305605 C57.4102606,55.0393435 58.4961643,53.7092054 59.0860843,52.1348328 C59.8075152,50.2147746 59.7323662,48.0955715 59.5820681,46.0477599 C59.4843743,44.7063494 59.349106,43.323607 58.717854,42.1324946 C58.2030263,41.0857223 57.2312218,40.3374328 56.0876373,40.1072277 L57.5041969,40.1598321 C56.1439991,39.3144053 54.415571,39.4308863 52.8186538,39.5736695 C51.7214777,39.6713632 50.5904845,39.7803294 49.6210618,40.32516 C48.418677,40.9789567 47.6333695,42.2038862 46.9908451,43.3912411 C44.8453398,47.302749 43.4738697,51.6839385 40.68584,55.1670969 C40.3191215,55.6501474 39.8923448,56.0845 39.4158211,56.4596605 C39.3406721,56.5160223 39.2617656,56.5686266 39.1828591,56.621231 C38.1683469,58.1918461 37.0711708,59.7136143 36.383557,61.4457998 C35.3126831,64.1023187 35.320198,67.036889 35.3878321,69.9338848 Z" id="Path" fill="#000000" fill-rule="nonzero" opacity="0.1"></path>
                                <path d="M55.486445,38.5779446 C56.8278555,38.4764934 58.0753297,39.4384012 58.7028242,40.6295136 C59.3303187,41.820626 59.4543147,43.199611 59.5670382,44.544779 C59.7173363,46.5925905 59.7924854,48.7117937 59.0710545,50.6318519 C58.4811345,52.2062244 57.3952308,53.5363626 56.2905398,54.802624 C52.9599618,58.6250663 49.305405,62.1526502 45.3676257,65.3460354 C44.1126366,66.364305 42.7937708,67.3675448 41.2532153,67.859771 C40.2272789,68.1473209 39.1696036,68.3063508 38.1044702,68.33321 C34.0764813,68.5699295 29.9470411,68.4647209 26.1557716,67.0932508 C23.1498097,66.0148619 20.3805673,64.1586804 17.213035,63.9632929 C16.4352423,63.914446 15.6123602,63.9632929 14.920989,63.5875477 C13.6509701,62.9074488 13.418008,61.1865356 13.5307316,59.7511888 C13.4707551,59.4422693 13.5553547,59.122884 13.760392,58.884162 C13.9654293,58.6454401 14.2683851,58.5136 14.5828183,58.5262593 C20.917883,57.7409518 27.5309992,59.3491414 33.6368593,57.4816876 C35.023095,57.0237648 36.3796288,56.4803984 37.6986654,55.8547107 C38.2988802,55.6088448 38.8708174,55.2989405 39.4045487,54.9303774 C39.8808352,54.5561828 40.3064851,54.1216915 40.6708102,53.6378138 C43.4588399,50.1546554 44.8340674,45.7734659 46.9795728,41.861958 C47.6371269,40.6595732 48.4224345,39.4496736 49.6097894,38.7958768 C50.5792121,38.2698335 51.7102053,38.1608674 52.8073814,38.0443864 C54.4042987,37.9016032 56.1289693,37.7851221 57.4929245,38.6305489" id="Path" fill="#00A2A2"></path>
                                <path d="M59.835245,17.4726856 C59.4594997,17.9038658 59.2227802,18.4296953 58.8094605,18.8223147 C58.3961407,19.2149341 57.6822248,19.4533101 57.2087858,19.1378124 C56.4760825,18.6645658 56.8593427,17.5042354 56.2919674,16.8662289 C55.9725839,16.5156759 55.4277533,16.3999934 55.0369783,16.1055288 C54.112645,15.4044228 54.3606368,13.9461223 53.5339973,13.1293338 C52.7073578,12.3125452 51.4110367,12.4948328 50.3439202,12.8559024 C49.2768038,13.216972 48.1833851,13.7428015 47.0711792,13.5324697 C45.4968067,13.2309941 44.677682,11.6254613 44.2267878,10.1846884 C43.7758935,8.74391556 43.4752973,7.16292147 44.2267878,5.85886426 C44.8467674,4.77565545 46.105514,4.1060992 47.3492307,3.75554619 C48.5929474,3.40499317 49.9456303,3.34189363 51.2419514,3.12455076 C52.966622,2.83359176 54.6236585,2.279718 56.3859037,2.11846361 C58.1481488,1.95720923 60.0456623,2.25868482 61.2705918,3.42252082 C63.0816838,5.13672506 62.7735727,7.9341381 63.6753613,10.188194 C64.1938897,11.4677125 65.1219805,12.5719545 65.674326,13.8374508 C66.6475061,16.0809901 66.1665522,19.0081078 64.0210469,20.371759 C63.6888182,20.6200051 63.2699272,20.7448632 62.8449643,20.722312 C61.9544481,20.603124 61.6275498,19.551465 61.6763966,18.7136433 C61.8003926,17.1887376 61.4171324,15.6147546 59.835245,17.4726856 Z" id="Path" fill="#DA9808" transform="translate(54.962123, 11.401567) rotate(7.000000) translate(-54.962123, -11.401567) "></path>
                            </g>
                        </g>
                        <g id="programmer" transform="translate(462.800276, 172.026717)">
                            <g id="notebook" opacity="0.8" transform="translate(66.857725, 50.169516)">
                                <path d="M41.0850936,0.393730203 L43.0843184,8.64051429 C43.1066067,8.73245403 43.1031453,8.82875611 43.0743137,8.91885842 L34.0054385,37.2590592 C33.9314325,37.4903285 33.7059612,37.6385048 33.4643111,37.6146798 C33.2226609,37.5908548 33.0304678,37.4014997 33.0030508,37.1602307 L31.7484798,26.1199984 C31.7401476,26.0466765 31.7476675,25.9724202 31.7705303,25.9022574 L40.0947517,0.355516572 C40.1661122,0.136512077 40.374197,-0.00849489658 40.6043631,0.000386360409 C40.8345291,0.0092676174 41.0308213,0.169878003 41.0850936,0.393730203 Z" id="Path" fill="#009392"></path>
                                <path d="M0.0492625551,39.5447435 C0.356900525,40.4676528 32.0434734,39.2371056 32.3511091,38.9294699 C32.6193294,38.5442158 32.846179,38.131753 33.0278953,37.6989227 C33.3170928,37.0836491 33.5816563,36.4683755 33.5816563,36.4683755 L32.3511138,26.5071008 L0.972167112,25.3934577 C0.972167112,25.3934577 0.187677079,33.8350088 0.0277007521,37.6989227 C-0.0122500751,38.6741279 -0.0122500751,39.3601495 0.0492625551,39.5447435 Z" id="Path" fill="#009392"></path>
                                <polygon id="Path" fill="#000000" fill-rule="nonzero" opacity="0.1" points="28.3518552 27.8546597 28.9670049 36.4683919 15.1234482 36.4683919 15.1234482 27.8546597"></polygon>
                                <polygon id="Path" fill="#000000" fill-rule="nonzero" opacity="0.1" points="10.5090073 30.623184 10.5915416 30.6068174 10.2013156 34.3150173 2.51042476 34.3150173 2.51042476 30.623184"></polygon>
                                <path d="M0.0492625551,39.5447435 C0.356900525,40.4676528 32.0434734,39.2371056 32.3511091,38.9294699 C32.6193294,38.5442158 32.846179,38.131753 33.0278953,37.6989227 L0.0277077663,37.6989227 C-0.0122500751,38.6741279 -0.0122500751,39.3601495 0.0492625551,39.5447435 Z" id="Path" fill="#000000" fill-rule="nonzero" opacity="0.1"></path>
                            </g>
                            <path d="M27.8405989,61.559749 L34.9272968,61.559749 L52.3909462,54.7261465 C52.3909462,54.7261465 64.7926676,49.6642205 63.7802816,59.2818815 C62.7678957,68.8995424 60.9962212,81.807453 60.9962212,81.807453 C60.9962212,81.807453 55.4281022,79.27649 52.3909423,80.0357785 C49.3537825,80.795067 51.3785564,64.5969011 51.3785564,64.5969011 C51.3785564,64.5969011 26.5751135,76.4924295 24.297246,74.9738525 C22.0193786,73.4552755 21.5131875,62.8252266 21.5131875,62.8252266 L27.8405989,61.559749 Z" id="Path" fill="#B08814" fill-rule="nonzero" opacity="0.8"></path>
                            <path d="M39.0057366,39.3667587 L47.5821157,51.6889905 L67.5767262,68.3933475 C67.5767262,68.3933475 86.0527615,72.695987 83.5217966,75.7331429 C80.9908316,78.7702989 65.5519561,72.695987 65.5519561,72.695987 C65.5519561,72.695987 42.5201878,55.991628 41.7608992,54.7261446 C41.0016107,53.4606612 32.6494313,41.5651366 32.6494313,41.5651366 L39.0057366,39.3667587 Z" id="Path" fill="#F1A88B" fill-rule="nonzero"></path>
                            <path d="M31.3284811,28.4985444 L40.4706109,40.2996551 C40.4706109,40.2996551 39.1153495,45.6146785 36.9469296,46.1208715 C34.7785097,46.6270645 25.5627333,39.5403666 25.5627333,39.5403666 L31.3284811,28.4985444 Z" id="Path" fill="#006D90"></path>
                            <circle id="Oval" fill="#F8B79D" fill-rule="nonzero" cx="35.175746" cy="14.4118451" r="9.79349616"></circle>
                            <path d="M34.5228467,23.1171752 C34.5228467,23.1171752 31.2583469,28.7756397 30.6054476,31.8225053 C29.9525483,34.8693709 20.8119514,25.728774 20.8119514,25.728774 L19.6149691,22.5730922 C19.6149691,22.5730922 28.2114813,18.5468768 27.558582,15.2823769 C26.9056826,12.0178771 34.5228467,23.1171752 34.5228467,23.1171752 Z" id="Path" fill="#F8B79D" fill-rule="nonzero"></path>
                            <path d="M38.9768388,44.349197 L49.3537902,58.0164 L74.1572331,76.4924334 C74.1572331,76.4924334 92.1270735,80.2888798 88.0775257,83.0729384 C84.027978,85.8569969 72.3855528,80.5419754 72.3855528,80.5419754 C72.3855528,80.5419754 47.3290182,67.127868 42.0139929,61.559749 C36.6989675,55.9916299 26.8282129,46.6270645 26.8282129,46.6270645 L38.9768388,44.349197 Z" id="Path" fill="#F8B79D" fill-rule="nonzero"></path>
                            <path d="M25.0565403,65.6092909 L28.0937002,70.4181214 L46.2197421,64.7155449 C50.1968771,63.4643132 54.5579968,63.9247195 58.0856168,66.1471208 C61.2493225,68.1402539 63.2740925,71.3039577 58.7183575,75.9862404 C49.6068896,85.3508058 43.5325776,80.2888798 43.5325776,80.2888798 C43.5325776,80.2888798 12.9079144,94.7153713 7.8459884,87.6286733 C2.78406239,80.5419754 2.53097455,76.9986264 2.53097455,76.9986264 C2.53097455,76.9986264 22.0193843,64.8500005 25.0565403,65.6092909 Z" id="Path" fill="#B08814" fill-rule="nonzero"></path>
                            <path d="M63.0209931,80.9502649 C63.0209931,80.9502649 71.1200751,86.2652884 61.5024142,88.7962514 C51.8847532,91.3272144 44.7980552,87.7838654 44.7980552,87.7838654 C44.7980552,87.7838654 36.4458758,87.7838654 36.4458758,83.481226 C36.4458758,79.1785866 39.2299362,78.6723955 39.2299362,78.6723955 L47.8352151,79.937877 C47.8352151,79.937877 58.2121626,77.1538204 63.0209931,80.9502649 Z" id="Path" fill="#006D90"></path>
                            <path d="M43.2098086,11.9482352 C43.8763885,12.2453893 44.5373794,12.597102 45.2620725,12.6833587 C45.9867656,12.7696155 46.8120031,12.5165996 47.1549213,11.8723807 C47.3401445,11.5244145 47.3613096,11.1151162 47.3699471,10.7210186 C47.396162,9.52594339 47.3097299,8.23401229 46.5524124,7.30915501 C46.0704404,6.72055668 45.3668811,6.34950655 44.8679766,5.7751942 C44.5105376,5.36373246 44.2726463,4.86500002 44.0164977,4.38390962 C43.0462352,2.56160752 41.6096513,0.810249044 39.6131089,0.284898069 C38.7794027,0.0655238107 37.9048118,0.0762287863 37.0428148,0.0883975911 L32.0149746,0.159329632 C31.2013402,0.170808701 30.375155,0.184148569 29.5962654,0.419648107 C27.9779484,0.908952491 26.7996419,2.26984732 25.7204821,3.57130902 C24.9131116,4.54499204 24.103604,5.52874655 23.4976746,6.63904041 C22.6289335,8.25930107 22.1896534,10.0750644 22.2217067,11.9132505 C22.2149733,12.3846868 22.2758413,12.8546548 22.4024541,13.3088207 C22.5505724,13.7253552 22.7340846,14.1284421 22.9509799,14.5136647 C23.8938662,16.3656536 24.4537173,18.6789108 23.3918538,20.4653433 C25.2364227,19.7118566 27.0615019,18.7239075 28.2782848,17.1460566 C28.8226192,16.4401965 29.2495083,15.6138888 29.9749341,15.0959148 C30.7003599,14.5779409 31.8823781,14.5330088 32.347813,15.2932093 C32.5077937,15.6007338 32.5901743,15.9427041 32.5877818,16.2893443 C32.621774,16.8599615 32.6208461,17.4525643 32.8627799,17.970472 C33.1047137,18.4883798 33.6810125,18.9062609 34.231232,18.7512819 C35.1787828,18.4843886 35.0880419,17.0300833 35.8178758,16.3694579 C36.3721362,15.8677565 37.2272441,15.9636646 37.9393102,15.7359159 C38.7689491,15.4705609 39.391457,14.7518273 39.7461536,13.956265 C40.0157628,13.3515563 40.0118676,11.7691221 40.5220394,11.4416494 C41.1618205,11.0309716 42.6167692,11.6838627 43.2098086,11.9482352 Z" id="Path" fill="#F3753F"></path>
                            <path d="M18.710857,22.7743803 C19.2232306,22.6376741 19.7626629,22.6390472 20.274334,22.7783602 C21.8990151,23.2145353 25.5411066,24.3692192 26.3220141,26.1262592 C27.3344001,28.4041266 30.8777491,31.9474756 30.8777491,31.9474756 C30.8777491,31.9474756 35.6865796,36.7563061 34.6741936,40.0465595 C33.6618076,43.336813 29.8653631,47.1332575 29.8653631,47.1332575 C29.8653631,47.1332575 30.8777491,62.8252305 25.8158211,66.8747724 C20.7538932,70.9243144 18.7291232,68.1402539 18.7291232,71.9366984 C18.7291232,75.7331429 3.03715792,87.6286733 0,80.2888798 C0,80.2888798 1.51857896,66.621675 1.01238597,61.8128445 C0.513492931,57.0733664 1.2438452,27.503148 18.710857,22.7743803 Z" id="Path" fill="#008AB6"></path>
                            <path d="M26.8282148,29.1634151 C26.8282148,29.1634151 42.2670922,40.5527525 39.4830318,45.361583 C39.4830318,45.361583 30.1184663,49.917316 28.0936963,49.6642224 C26.0689263,49.4111288 18.2229379,40.5527544 16.1981679,39.793464 C14.1733978,39.0341736 13.1610119,25.3669706 26.8282148,29.1634151 Z" id="Path" fill="#008AB6"></path>
                        </g>
                    </g>
                </g>
            </g>
        </g>
    </g>
</svg>