<?xml version="1.0" encoding="UTF-8"?>
<svg width="559px" height="288px" viewBox="0 0 559 288" version="1.1" xmlns="http://www.w3.org/2000/svg" xmlns:xlink="http://www.w3.org/1999/xlink">
    <!-- Generator: Sketch 59.1 (86144) - https://sketch.com -->
    <title>Illlustration</title>
    <desc>Created with Sketch.</desc>
    <defs>
        <circle id="path-1" cx="41.6417109" cy="41.7412061" r="41.5427958"></circle>
    </defs>
    <g id="Vantage-Launcher" stroke="none" stroke-width="1" fill="none" fill-rule="evenodd">
        <g id="Vantage-Launcher---Slide-4" transform="translate(-778.000000, -64.000000)">
            <g id="Illlustration" transform="translate(732.000000, 64.000000)">
                <path d="M442.431078,148 C509.104942,148 564.997188,194.046194 579.89133,255.997638 L304.970826,255.997638 C319.864968,194.046194 375.757213,148 442.431078,148 Z" id="Combined-Shape" fill="#007373" opacity="0.6"></path>
                <path d="M223.057644,69 C320.780209,69 400,148.021742 400,245.5 C400,249.025514 399.896375,252.526886 399.691998,256.001251 L46.4232898,256.001251 C46.2189129,252.526886 46.1152882,249.025514 46.1152882,245.5 C46.1152882,148.021742 125.335079,69 223.057644,69 Z" id="Combined-Shape" fill="#072A2B" opacity="0.4"></path>
                <g id="analysis" transform="translate(373.000000, 48.498672)">
                    <circle id="Oval" fill="#009392" cx="78.4823894" cy="72.9088934" r="16.6989252"></circle>
                    <circle id="Oval" stroke="#026868" cx="81.9373395" cy="67.9184112" r="16.6989252"></circle>
                    <path d="M58.7123999,41.6224038 L45.2679309,19.1029278 C48.6045234,14.8671667 48.2821364,8.81378616 44.5145232,4.95637609 C40.74691,1.09896601 34.7028005,0.634111768 30.3896376,3.87002696 C26.0764746,7.10594215 24.8322201,13.0388318 27.4818556,17.7349955 C30.131491,22.4311592 35.853088,24.4338266 40.8530401,22.4151635 L58.7123999,41.6224038 Z" id="Path" fill="#009392"></path>
                    <circle id="Oval" fill="#85DDDC" cx="36.8310497" cy="12.4472713" r="4.99048222"></circle>
                    <path d="M101.833621,39.0217705 L120.431662,20.5287052 C125.348799,22.7414701 131.144381,20.9642193 133.975748,16.3753285 C136.807116,11.7864376 135.795965,5.80940057 131.612723,2.40718894 C127.429481,-0.995022689 121.371806,-0.767028049 117.456137,2.94000494 C113.540468,6.64703792 112.981461,12.6831715 116.149756,17.0462511 L101.833621,39.0217705 Z" id="Path" fill="#009392"></path>
                    <circle id="Oval" fill="#85DDDC" cx="124.84855" cy="10.7322864" r="4.99048222"></circle>
                    <path d="M114.788974,80.232958 L137.23199,93.8046813 C136.274525,99.1110718 139.401068,104.304536 144.538618,105.941638 C149.676168,107.57874 155.231034,105.151642 157.520159,100.269591 C159.809284,95.3875395 158.122571,89.5649676 153.578366,86.6624309 C149.034161,83.7598942 143.042096,84.6777722 139.575106,88.8074816 L114.788974,80.232958 Z" id="Path" fill="#009392"></path>
                    <circle id="Oval" fill="#85DDDC" cx="147.805951" cy="95.7204005" r="4.99048222"></circle>
                    <path d="M77.9361322,102.773371 L70.1969967,127.833027 C64.8165947,128.187732 60.5337736,132.477816 60.1881842,137.858811 C59.8425949,143.239807 63.5414407,148.042505 68.8322655,149.08256 C74.1230903,150.122616 79.3646571,147.077398 81.0816352,141.965986 C82.7986133,136.854575 80.4583885,131.262552 75.6126067,128.897612 L77.9361322,102.773371 Z" id="Path" fill="#009392"></path>
                    <circle id="Oval" fill="#85DDDC" cx="70.8962484" cy="138.556353" r="4.99048222"></circle>
                    <path d="M47.1497424,72.4682183 L20.9622,71.0214591 C19.3163945,65.8866928 14.1176402,62.768957 8.81288159,63.7354128 C3.50812295,64.7018686 -0.257080957,69.4527171 0.0137233972,74.8379902 C0.284527751,80.2232632 4.50733568,84.5724258 9.88228721,85.0018407 C15.2572387,85.4312555 20.1170006,81.8077163 21.2393915,76.5337482 L47.1497424,72.4682183 Z" id="Path" fill="#009392"></path>
                    <circle id="Oval" fill="#85DDDC" cx="10.7265633" cy="74.2941537" r="4.99048222"></circle>
                </g>
                <g id="woman" transform="translate(549.208001, 89.000000)">
                    <path d="M30.4071264,176.647913 C30.4071264,176.647913 29.3995144,183.029455 27.7201612,184.037067 C26.040808,185.044679 36.452798,187.395774 36.452798,187.395774 L38.1321513,177.319654 L30.4071264,176.647913 Z" id="Path" fill="#FECDBA" fill-rule="nonzero"></path>
                    <path d="M42.8343403,103.763983 L46.5289175,108.130301 L44.8495642,123.24448 L43.5060816,153.136968 C43.5060816,153.136968 46.1930468,178.999008 43.5060816,179.670749 C40.8191164,180.34249 28.7277731,180.00662 29.0636438,178.327266 C29.3995144,176.647913 29.7353851,175.304431 30.4071264,172.953336 C31.0788677,170.602242 29.7353851,162.205475 29.7353851,162.205475 L31.4147383,152.801097 L25.3690667,112.160749 L42.8343403,103.763983 Z" id="Path" fill="#008AB6" fill-rule="nonzero"></path>
                    <path d="M30.742997,183.029455 C30.742997,183.029455 27.0484199,182.357714 26.7125492,183.029455 C26.3766786,183.701197 19.9951363,190.75448 18.9875244,190.75448 C17.9799124,190.75448 10.5907582,197.471893 18.3157831,197.807764 C26.040808,198.143635 38.8038926,192.097963 38.8038926,192.097963 C38.8038926,192.097963 36.9256166,183.551237 37.025078,183.962088 C37.1245393,184.372938 30.742997,184.708809 30.742997,183.029455 Z" id="Path" fill="#006D90" fill-rule="nonzero"></path>
                    <path d="M26.7125492,167.579406 C26.7125492,167.579406 36.1169274,177.991396 36.452798,178.999008 C36.7886687,180.00662 41.8267284,178.999008 41.8267284,178.999008 L43.8419523,172.281595 L42.162599,169.9305 L32.7582209,162.205475 L26.7125492,167.579406 Z" id="Path" fill="#FECDBA" fill-rule="nonzero"></path>
                    <path d="M40.1473752,175.304431 L35.2772508,179.88843 C35.2772508,179.88843 41.4908577,189.410998 41.4908577,190.41861 C41.4908577,191.426222 41.8267284,199.822988 45.1854349,198.479505 C48.5441413,197.136023 48.880012,183.701197 48.880012,183.701197 C48.880012,183.701197 48.5441413,169.9305 46.5289175,168.922888 C44.5136936,167.915276 40.0968333,168.233621 40.0968333,168.233621 C40.0968333,168.233621 42.8343403,174.96856 40.1473752,175.304431 Z" id="Path" fill="#006D90" fill-rule="nonzero"></path>
                    <path d="M12.2701114,73.871495 C12.2701114,73.871495 10.5907582,79.2454254 10.2548875,80.588908 C9.91901687,81.9323906 7.90379298,85.6269677 7.90379298,91.3367687 C7.90379298,97.0465697 8.57553428,103.763983 7.90379298,104.435724 C7.23205169,105.107465 -3.51580903,142.724978 1.18638003,146.755426 C5.8885691,150.785873 21.3386189,164.220699 22.3462308,165.900052 C23.3538428,167.579406 23.6897134,171.609853 25.7049373,170.938112 C27.7201612,170.266371 35.4451861,163.548958 35.7810567,162.205475 C36.1169274,160.861993 31.4147383,158.510898 31.4147383,158.510898 C31.4147383,158.510898 22.0103602,144.740202 19.6592656,145.076072 C17.3081711,145.411943 17.6440418,143.396719 17.9799124,142.389107 C18.3157831,141.381495 18.9875244,140.709754 17.9799124,140.709754 C16.9723005,140.709754 17.6440418,138.022789 17.9799124,136.679306 C18.3157831,135.335824 26.040808,117.198809 26.040808,117.198809 L46.5289175,108.130301 C46.5289175,108.130301 45.5213055,83.6117438 38.1321513,76.8943308 L36.452798,72.8638831 C36.452798,72.8638831 17.6440418,71.5204005 12.2701114,73.871495 Z" id="Path" fill="#008AB6" fill-rule="nonzero"></path>
                    <path d="M20.6668776,20.8039327 C20.6668776,20.8039327 22.3462308,32.5594054 18.3157831,33.2311467 C14.2853353,33.9028879 10.9266288,33.5670173 10.9266288,33.9028879 C10.9266288,34.2387586 21.0027482,44.6507487 21.0027482,44.6507487 L30.4071264,43.9790074 L38.8038926,34.9104999 C38.8038926,34.9104999 31.0788677,33.5670173 31.0788677,28.8648282 C31.0788677,24.1626392 30.742997,20.8039327 30.742997,20.8039327 L20.6668776,20.8039327 Z" id="Path" fill="#FECDBA" fill-rule="nonzero"></path>
                    <path d="M20.6668776,20.8039327 C20.6668776,20.8039327 22.3462308,32.5594054 18.3157831,33.2311467 C14.2853353,33.9028879 10.9266288,33.5670173 10.9266288,33.9028879 C10.9266288,34.2387586 21.0027482,44.6507487 21.0027482,44.6507487 L30.4071264,43.9790074 L38.8038926,34.9104999 C38.8038926,34.9104999 31.0788677,33.5670173 31.0788677,28.8648282 C31.0788677,24.1626392 30.742997,20.8039327 30.742997,20.8039327 L20.6668776,20.8039327 Z" id="Path" fill="#000000" fill-rule="nonzero" opacity="0.1"></path>
                    <circle id="Oval" fill="#FBBEBE" fill-rule="nonzero" cx="25.8728693" cy="15.262067" r="10.4119901"></circle>
                    <path d="M16.6364298,32.2235347 C16.6364298,32.2235347 3.53747456,33.9028879 2.52986262,38.2692064 C1.52225068,42.6355248 9.24727557,69.8410472 10.2548875,72.1921418 C11.2624995,74.5432363 10.9266288,76.2225895 10.9266288,76.2225895 C14.0013827,73.9230385 17.9204505,73.0657424 21.6744895,73.871495 C28.0560318,75.2149776 37.1245393,74.5432363 37.1245393,74.5432363 C37.1245393,74.5432363 40.1473752,62.1160223 40.8191164,60.7725398 C41.4908577,59.4290572 44.1778229,52.0399029 44.1778229,50.024679 C44.1778229,48.0094551 48.2082707,39.612689 48.2082707,39.612689 C48.2082707,39.612689 46.1930468,33.5670173 38.8038926,33.9028879 C38.8038926,33.9028879 35.580814,32.4603034 34.6733218,33.5174663 C33.7658295,34.5746292 28.7277731,39.2768183 22.3462308,37.2615944 C15.9646885,35.2463705 16.6364298,32.2235347 16.6364298,32.2235347 Z" id="Path" fill="#B08814" fill-rule="nonzero"></path>
                    <path d="M6.22443975,37.9333357 L2.52986262,37.9333357 L0.514638736,64.4671169 C0.514638736,64.4671169 7.90379298,66.4823408 8.91140493,65.1388582 C9.91901687,63.7953756 6.22443975,37.9333357 6.22443975,37.9333357 Z" id="Path" fill="#B08814" fill-rule="nonzero"></path>
                    <path d="M1.52225068,61.7801517 L0.514638736,64.4671169 C0.514638736,64.4671169 -0.157102559,73.1997537 3.87334521,72.8638831 C7.90379298,72.5280124 10.2548875,67.4899527 10.2548875,67.4899527 C10.2548875,67.4899527 7.90379298,61.1084104 5.2168278,61.7801517 C2.52986262,62.451893 1.52225068,61.7801517 1.52225068,61.7801517 Z" id="Path" fill="#B08814" fill-rule="nonzero"></path>
                    <path d="M41.8267284,37.9333357 L48.2082707,39.612689 C48.2082707,39.612689 52.9104598,56.742092 53.2463304,57.0779626 C53.5822011,57.4138333 53.9180717,59.4290572 53.9180717,59.4290572 C53.9180717,59.4290572 53.9180717,59.7649278 54.589813,60.7725398 C55.2615543,61.7801517 56.2691662,61.1084104 55.5974249,62.451893 C54.9256836,63.7953756 53.9180717,63.1236343 54.589813,64.4671169 C55.2615543,65.8105995 54.9256836,69.5051766 54.9256836,69.5051766 C54.9256836,69.5051766 53.2463304,63.1236343 47.2006588,64.8029875 L43.170211,46.6659726 L41.8267284,37.9333357 Z" id="Path" fill="#B08814" fill-rule="nonzero"></path>
                    <path d="M14.0132162,6.68312457 C11.8959313,10.4031708 11.4190622,14.8094645 11.1269118,19.0798616 C11.0016321,20.911334 10.9074036,22.7910979 11.4506206,24.5446416 C12.0234111,26.3936465 13.297842,28.2723188 12.6443049,30.0943466 C12.0121963,31.8565826 9.89831044,32.5617665 8.71781916,34.0148538 C7.717415,35.2462731 7.46613674,36.9334824 7.55294922,38.5176734 C7.63976171,40.1018644 8.02388018,41.6571202 8.1365547,43.2396788 C8.36919469,46.7159367 7.29622044,50.1538961 5.1276172,52.8807349 C10.1865009,52.6856646 15.5952577,50.4423577 17.7286308,45.8511604 C18.3663988,44.4786318 18.6766727,42.9765544 19.2522072,41.57679 C19.9032891,39.9932875 20.8857544,38.56003 21.5023793,36.9627938 C22.432741,34.5529018 22.4830948,31.9066777 22.52173,29.3237216 C22.544858,27.7775511 22.561309,26.1901156 22.0262401,24.7392955 C20.8483754,21.5455552 17.1853365,19.4820298 16.8216289,16.0975016 C16.7589268,15.7396066 16.8118989,15.371042 16.972858,15.0452927 C17.1437103,14.8073111 17.3509627,14.5977102 17.5870042,14.4241873 C19.8743068,12.4054133 19.4971409,8.13146934 22.2198629,6.7552528 C23.4416595,6.13768744 24.9144254,6.35494201 26.2264269,6.74587865 C27.6833229,7.17999146 29.1369005,7.85228694 30.084751,9.04080889 C31.9934602,11.434156 31.2402233,14.89138 30.6496082,17.8951182 C29.7936616,22.2521119 29.4901561,26.6996 29.7462639,31.1324824 C29.7628238,31.8415079 29.8673755,32.5457323 30.0575186,33.228987 C30.4082247,34.3375986 31.1558526,35.268941 31.7202295,36.285551 C32.8704358,38.3753027 33.2436677,40.8047842 32.7737784,43.143425 C32.3571443,45.1786332 31.3222093,47.3460636 32.2332618,49.2130543 C32.6343084,49.9340551 33.1929414,50.5552219 33.8675076,51.0302388 C36.8440941,53.3631963 40.6225112,54.8086996 42.835667,57.8754136 C43.2168164,55.3704903 42.4897203,52.8496971 41.9529452,50.3734605 C41.4161702,47.897224 41.0895293,45.2013414 42.192636,42.9203263 C42.6765752,41.91964 43.4162564,41.0489827 43.8118683,40.0102019 C44.7255272,37.6111787 43.6365674,34.9798437 42.9752515,32.4993685 C42.5025133,30.5514929 42.161254,28.5740411 41.9537815,26.5803872 L41.2717257,21.1991181 C40.7078761,16.7504711 40.1179126,12.2112196 38.1644452,8.17482352 C34.4831249,0.568206466 26.1522263,-2.25685865 18.6930901,1.95806608 C16.7384979,3.08603604 15.1223534,4.71778453 14.0132162,6.68312457 Z" id="Path" fill="#B53D0A"></path>
                    <path d="M4.88095716,63.4595049 C4.88095716,63.4595049 2.86573327,69.5051766 5.2168278,69.5051766 C7.56792234,69.5051766 11.9342408,65.8105995 12.2701114,62.7877636 C12.6059821,59.7649278 18.6516537,48.3453258 14.2853353,49.3529377 C9.91901687,50.3605497 7.90379298,58.7573159 7.90379298,58.7573159 L4.88095716,63.4595049 Z" id="Path" fill="#FECDBA" fill-rule="nonzero"></path>
                    <polygon id="Path" fill="#006D90" fill-rule="nonzero" points="38.8037582 37.9333021 27.7200268 73.8714614 42.834206 77.2301679 53.9179374 42.2996205"></polygon>
                    <path d="M52.9104598,63.7953756 L55.0087176,67.3019693 C55.0087176,67.3019693 55.9332956,73.871495 51.2311065,73.871495 C46.5289175,73.871495 39.8115045,67.4899527 39.8115045,67.4899527 C39.8115045,67.4899527 36.452798,66.1464701 34.4375741,66.4823408 C32.4223503,66.8182114 21.3386189,66.4823408 26.040808,60.7725398 C30.742997,55.0627387 38.8038926,60.7725398 38.8038926,60.7725398 L47.2006588,64.8029875 L51.5669772,62.451893 L52.9104598,63.7953756 Z" id="Path" fill="#FECDBA" fill-rule="nonzero"></path>
                    <path d="M50.0555593,59.2611218 L46.6968528,64.6350522 C46.6968528,64.6350522 54.4218777,65.6426641 55.093619,67.3220174 C55.7653603,69.0013706 52.0707831,58.5893805 52.0707831,58.5893805 L50.0555593,59.2611218 Z" id="Path" fill="#B08814" fill-rule="nonzero"></path>
                </g>
                <g id="solar-system" opacity="0.56" transform="translate(138.500000, 81.000000)">
                    <path d="M74.0430729,151.346713 C33.2154292,151.346713 0,118.130937 0,77.3034648 C0,36.4759928 33.2154292,3.26039192 74.0430729,3.26039192 C114.870717,3.26039192 148.086146,36.4759928 148.086146,77.3034648 C148.086146,118.130937 114.87072,151.346713 74.0430729,151.346713 Z M74.0430729,3.97578392 C33.6101503,3.97578392 0.715392009,36.870367 0.715392009,77.3034648 C0.715392009,117.736563 33.6101503,150.631321 74.0430729,150.631321 C114.475996,150.631321 147.370754,117.736563 147.370754,77.3034648 C147.370754,36.870367 114.475996,3.97578392 74.0430729,3.97578392 Z" id="Shape" fill="#009392"></path>
                    <path d="M74.0430729,130.600345 C44.6550625,130.600345 20.7463683,106.691475 20.7463683,77.3034648 C20.7463683,47.9156297 44.6550625,24.0067602 74.0430729,24.0067602 C103.431083,24.0067602 127.339778,47.9156297 127.339778,77.3034648 C127.339778,106.691475 103.431083,130.600345 74.0430729,130.600345 Z M74.0430729,24.7221522 C45.0497872,24.7221522 21.4617603,48.3100038 21.4617603,77.3034648 C21.4617603,106.296926 45.0497872,129.884953 74.0430729,129.884953 C103.036359,129.884953 126.624386,106.296926 126.624386,77.3034648 C126.624386,48.3100038 103.036362,24.7221522 74.0430729,24.7221522 Z" id="Shape" fill="#009392"></path>
                    <path d="M74.0430729,109.618366 C56.1961157,109.618366 41.7283437,95.1504793 41.7283437,77.3035221 C41.7283437,59.4565649 56.196173,44.9887356 74.0431302,44.9887356 C91.8900873,44.9887356 106.357974,59.4565076 106.357974,77.3034648 C106.337759,95.1421118 91.8817199,109.598151 74.0430729,109.618366 Z M74.0430729,45.7041312 C61.262299,45.7041312 49.7400234,53.4031499 44.8490654,65.2110587 C39.9581074,77.0189676 42.6616575,90.6104357 51.6990544,99.6477825 C60.7364514,108.685129 74.3279345,111.388604 86.1358162,106.497581 C97.9436979,101.606557 105.642582,90.0842387 105.642582,77.3034648 C105.622804,59.859765 91.4867729,45.7238119 74.0430729,45.7041312 L74.0430729,45.7041312 Z" id="Shape" fill="#009392"></path>
                    <circle id="Oval" fill="#2CC0BF" cx="74.0430801" cy="77.3035507" r="16.4087283"></circle>
                    <circle id="Oval" fill="#00A2A2" cx="85.3278957" cy="4.48574747" r="4.21621622"></circle>
                    <circle id="Oval" fill="#00A2A2" cx="20.5472389" cy="127.868535" r="5.20276708"></circle>
                    <circle id="Oval" fill="#00B2B1" cx="23.0868909" cy="84.9807939" r="7.02702703"></circle>
                    <circle id="Oval" fill="#00B2B1" cx="118.272096" cy="47.8184774" r="4.91891892"></circle>
                    <circle id="Oval" fill="#00A2A2" cx="126.210394" cy="89.4808583" r="6.32432432"></circle>
                    <circle id="Oval" fill="#009392" cx="94.2845059" cy="147.885883" r="6.32432432"></circle>
                </g>
                <path d="M469.459454,23.5388042 C471.813511,23.5388042 473.739557,21.6175732 473.739557,19.2694021 C473.739557,16.9212309 471.813511,15 469.459454,15 C467.105398,15 465.179352,16.9212309 465.179352,19.2694021 C465.179352,21.6175732 467.105398,23.5388042 469.459454,23.5388042 Z" id="Path" fill="#59CECD"></path>
                <path d="M570.745832,48 C574.300025,48 577.208001,45.099294 577.208001,41.5539867 C577.208001,38.0086794 574.300025,35.1079734 570.745832,35.1079734 C567.19164,35.1079734 564.283664,38.0086794 564.283664,41.5539867 C564.283664,45.099294 567.19164,48 570.745832,48 Z" id="Path" fill="#009392"></path>
                <path d="M316.541328,141 C319.548722,141 322.009317,138.545556 322.009317,135.545681 C322.009317,132.545806 319.548722,130.091362 316.541328,130.091362 C313.533934,130.091362 311.073339,132.545806 311.073339,135.545681 C311.073339,138.545556 313.533934,141 316.541328,141 Z" id="Path" fill="#2CC0BF"></path>
                <g id="data-bubble" transform="translate(291.073339, 0.000000)">
                    <mask id="mask-2" fill="white">
                        <use xlink:href="#path-1"></use>
                    </mask>
                    <use id="Oval" fill="#007373" opacity="0.4" xlink:href="#path-1"></use>
                    <path d="M84.9954983,95.2753547 C85.9319658,95.2753547 86.6911227,96.0345116 86.6911227,96.970979 C86.6911227,97.9074465 85.9319658,98.6666033 84.9954983,98.6666033 C84.0590309,98.6666033 83.299874,97.9074465 83.299874,96.970979 C83.299874,96.0345116 84.0590309,95.2753547 84.9954983,95.2753547 Z M95.8755417,95.2753547 C96.8120092,95.2753547 97.571166,96.0345116 97.571166,96.970979 C97.571166,97.9074465 96.8120092,98.6666033 95.8755417,98.6666033 C94.9390743,98.6666033 94.1799174,97.9074465 94.1799174,96.970979 C94.1799174,96.0345116 94.9390743,95.2753547 95.8755417,95.2753547 Z M52.3553682,95.2753547 C53.2918357,95.2753547 54.0509926,96.0345116 54.0509926,96.970979 C54.0509926,97.9074465 53.2918357,98.6666033 52.3553682,98.6666033 C51.4189008,98.6666033 50.6597439,97.9074465 50.6597439,96.970979 C50.6597439,96.0345116 51.4189008,95.2753547 52.3553682,95.2753547 Z M63.2354116,95.2753547 C64.1718791,95.2753547 64.9310359,96.0345116 64.9310359,96.970979 C64.9310359,97.9074465 64.1718791,98.6666033 63.2354116,98.6666033 C62.2989442,98.6666033 61.5397873,97.9074465 61.5397873,96.970979 C61.5397873,96.0345116 62.2989442,95.2753547 63.2354116,95.2753547 Z M74.115455,95.2753547 C75.0519224,95.2753547 75.8110793,96.0345116 75.8110793,96.970979 C75.8110793,97.9074465 75.0519224,98.6666033 74.115455,98.6666033 C73.1789875,98.6666033 72.4198307,97.9074465 72.4198307,96.970979 C72.4198307,96.0345116 73.1789875,95.2753547 74.115455,95.2753547 Z M30.5952815,95.2753547 C31.531749,95.2753547 32.2909058,96.0345116 32.2909058,96.970979 C32.2909058,97.9074465 31.531749,98.6666033 30.5952815,98.6666033 C29.6588141,98.6666033 28.8996572,97.9074465 28.8996572,96.970979 C28.8996572,96.0345116 29.6588141,95.2753547 30.5952815,95.2753547 Z M41.4753249,95.2753547 C42.4117923,95.2753547 43.1709492,96.0345116 43.1709492,96.970979 C43.1709492,97.9074465 42.4117923,98.6666033 41.4753249,98.6666033 C40.5388574,98.6666033 39.7797006,97.9074465 39.7797006,96.970979 C39.7797006,96.0345116 40.5388574,95.2753547 41.4753249,95.2753547 Z M8.83519478,95.2753547 C9.77166224,95.2753547 10.5308191,96.0345116 10.5308191,96.970979 C10.5308191,97.9074465 9.77166224,98.6666033 8.83519478,98.6666033 C7.89872733,98.6666033 7.13957047,97.9074465 7.13957047,96.970979 C7.13957047,96.0345116 7.89872733,95.2753547 8.83519478,95.2753547 Z M19.7152382,95.2753547 C20.6517056,95.2753547 21.4108625,96.0345116 21.4108625,96.970979 C21.4108625,97.9074465 20.6517056,98.6666033 19.7152382,98.6666033 C18.7787707,98.6666033 18.0196138,97.9074465 18.0196138,96.970979 C18.0196138,96.0345116 18.7787707,95.2753547 19.7152382,95.2753547 Z M41.4753249,83.208635 C42.4117923,83.208635 43.1709492,83.9677918 43.1709492,84.9042593 C43.1709492,85.8407267 42.4117923,86.5998836 41.4753249,86.5998836 C40.5388574,86.5998836 39.7797006,85.8407267 39.7797006,84.9042593 C39.7797006,83.9677918 40.5388574,83.208635 41.4753249,83.208635 Z M8.83519478,83.208635 C9.77166224,83.208635 10.5308191,83.9677918 10.5308191,84.9042593 C10.5308191,85.8407267 9.77166224,86.5998836 8.83519478,86.5998836 C7.89872733,86.5998836 7.13957047,85.8407267 7.13957047,84.9042593 C7.13957047,83.9677918 7.89872733,83.208635 8.83519478,83.208635 Z M19.7152382,83.208635 C20.6517056,83.208635 21.4108625,83.9677918 21.4108625,84.9042593 C21.4108625,85.8407267 20.6517056,86.5998836 19.7152382,86.5998836 C18.7787707,86.5998836 18.0196138,85.8407267 18.0196138,84.9042593 C18.0196138,83.9677918 18.7787707,83.208635 19.7152382,83.208635 Z M84.9954983,83.208635 C85.9319658,83.208635 86.6911227,83.9677918 86.6911227,84.9042593 C86.6911227,85.8407267 85.9319658,86.5998836 84.9954983,86.5998836 C84.0590309,86.5998836 83.299874,85.8407267 83.299874,84.9042593 C83.299874,83.9677918 84.0590309,83.208635 84.9954983,83.208635 Z M95.8755417,83.208635 C96.8120092,83.208635 97.571166,83.9677918 97.571166,84.9042593 C97.571166,85.8407267 96.8120092,86.5998836 95.8755417,86.5998836 C94.9390743,86.5998836 94.1799174,85.8407267 94.1799174,84.9042593 C94.1799174,83.9677918 94.9390743,83.208635 95.8755417,83.208635 Z M52.3553682,83.208635 C53.2918357,83.208635 54.0509926,83.9677918 54.0509926,84.9042593 C54.0509926,85.8407267 53.2918357,86.5998836 52.3553682,86.5998836 C51.4189008,86.5998836 50.6597439,85.8407267 50.6597439,84.9042593 C50.6597439,83.9677918 51.4189008,83.208635 52.3553682,83.208635 Z M63.2354116,83.208635 C64.1718791,83.208635 64.9310359,83.9677918 64.9310359,84.9042593 C64.9310359,85.8407267 64.1718791,86.5998836 63.2354116,86.5998836 C62.2989442,86.5998836 61.5397873,85.8407267 61.5397873,84.9042593 C61.5397873,83.9677918 62.2989442,83.208635 63.2354116,83.208635 Z M74.115455,83.208635 C75.0519224,83.208635 75.8110793,83.9677918 75.8110793,84.9042593 C75.8110793,85.8407267 75.0519224,86.5998836 74.115455,86.5998836 C73.1789875,86.5998836 72.4198307,85.8407267 72.4198307,84.9042593 C72.4198307,83.9677918 73.1789875,83.208635 74.115455,83.208635 Z M30.5952815,83.208635 C31.531749,83.208635 32.2909058,83.9677918 32.2909058,84.9042593 C32.2909058,85.8407267 31.531749,86.5998836 30.5952815,86.5998836 C29.6588141,86.5998836 28.8996572,85.8407267 28.8996572,84.9042593 C28.8996572,83.9677918 29.6588141,83.208635 30.5952815,83.208635 Z M84.9954983,71.1419152 C85.9319658,71.1419152 86.6911227,71.9010721 86.6911227,72.8375396 C86.6911227,73.774007 85.9319658,74.5331639 84.9954983,74.5331639 C84.0590309,74.5331639 83.299874,73.774007 83.299874,72.8375396 C83.299874,71.9010721 84.0590309,71.1419152 84.9954983,71.1419152 Z M8.83519478,71.1419152 C9.77166224,71.1419152 10.5308191,71.9010721 10.5308191,72.8375396 C10.5308191,73.774007 9.77166224,74.5331639 8.83519478,74.5331639 C7.89872733,74.5331639 7.13957047,73.774007 7.13957047,72.8375396 C7.13957047,71.9010721 7.89872733,71.1419152 8.83519478,71.1419152 Z M19.7152382,71.1419152 C20.6517056,71.1419152 21.4108625,71.9010721 21.4108625,72.8375396 C21.4108625,73.774007 20.6517056,74.5331639 19.7152382,74.5331639 C18.7787707,74.5331639 18.0196138,73.774007 18.0196138,72.8375396 C18.0196138,71.9010721 18.7787707,71.1419152 19.7152382,71.1419152 Z M63.2354116,71.1419152 C64.1718791,71.1419152 64.9310359,71.9010721 64.9310359,72.8375396 C64.9310359,73.774007 64.1718791,74.5331639 63.2354116,74.5331639 C62.2989442,74.5331639 61.5397873,73.774007 61.5397873,72.8375396 C61.5397873,71.9010721 62.2989442,71.1419152 63.2354116,71.1419152 Z M74.115455,71.1419152 C75.0519224,71.1419152 75.8110793,71.9010721 75.8110793,72.8375396 C75.8110793,73.774007 75.0519224,74.5331639 74.115455,74.5331639 C73.1789875,74.5331639 72.4198307,73.774007 72.4198307,72.8375396 C72.4198307,71.9010721 73.1789875,71.1419152 74.115455,71.1419152 Z M52.3553682,71.1419152 C53.2918357,71.1419152 54.0509926,71.9010721 54.0509926,72.8375396 C54.0509926,73.774007 53.2918357,74.5331639 52.3553682,74.5331639 C51.4189008,74.5331639 50.6597439,73.774007 50.6597439,72.8375396 C50.6597439,71.9010721 51.4189008,71.1419152 52.3553682,71.1419152 Z M30.5952815,71.1419152 C31.531749,71.1419152 32.2909058,71.9010721 32.2909058,72.8375396 C32.2909058,73.774007 31.531749,74.5331639 30.5952815,74.5331639 C29.6588141,74.5331639 28.8996572,73.774007 28.8996572,72.8375396 C28.8996572,71.9010721 29.6588141,71.1419152 30.5952815,71.1419152 Z M95.8755417,71.1419152 C96.8120092,71.1419152 97.571166,71.9010721 97.571166,72.8375396 C97.571166,73.774007 96.8120092,74.5331639 95.8755417,74.5331639 C94.9390743,74.5331639 94.1799174,73.774007 94.1799174,72.8375396 C94.1799174,71.9010721 94.9390743,71.1419152 95.8755417,71.1419152 Z M41.4753249,71.1419152 C42.4117923,71.1419152 43.1709492,71.9010721 43.1709492,72.8375396 C43.1709492,73.774007 42.4117923,74.5331639 41.4753249,74.5331639 C40.5388574,74.5331639 39.7797006,73.774007 39.7797006,72.8375396 C39.7797006,71.9010721 40.5388574,71.1419152 41.4753249,71.1419152 Z M84.9954983,59.0751955 C85.9319658,59.0751955 86.6911227,59.8343524 86.6911227,60.7708198 C86.6911227,61.7072873 85.9319658,62.4664441 84.9954983,62.4664441 C84.0590309,62.4664441 83.299874,61.7072873 83.299874,60.7708198 C83.299874,59.8343524 84.0590309,59.0751955 84.9954983,59.0751955 Z M95.8755417,59.0751955 C96.8120092,59.0751955 97.571166,59.8343524 97.571166,60.7708198 C97.571166,61.7072873 96.8120092,62.4664441 95.8755417,62.4664441 C94.9390743,62.4664441 94.1799174,61.7072873 94.1799174,60.7708198 C94.1799174,59.8343524 94.9390743,59.0751955 95.8755417,59.0751955 Z M52.3553682,59.0751955 C53.2918357,59.0751955 54.0509926,59.8343524 54.0509926,60.7708198 C54.0509926,61.7072873 53.2918357,62.4664441 52.3553682,62.4664441 C51.4189008,62.4664441 50.6597439,61.7072873 50.6597439,60.7708198 C50.6597439,59.8343524 51.4189008,59.0751955 52.3553682,59.0751955 Z M63.2354116,59.0751955 C64.1718791,59.0751955 64.9310359,59.8343524 64.9310359,60.7708198 C64.9310359,61.7072873 64.1718791,62.4664441 63.2354116,62.4664441 C62.2989442,62.4664441 61.5397873,61.7072873 61.5397873,60.7708198 C61.5397873,59.8343524 62.2989442,59.0751955 63.2354116,59.0751955 Z M74.115455,59.0751955 C75.0519224,59.0751955 75.8110793,59.8343524 75.8110793,60.7708198 C75.8110793,61.7072873 75.0519224,62.4664441 74.115455,62.4664441 C73.1789875,62.4664441 72.4198307,61.7072873 72.4198307,60.7708198 C72.4198307,59.8343524 73.1789875,59.0751955 74.115455,59.0751955 Z M30.5952815,59.0751955 C31.531749,59.0751955 32.2909058,59.8343524 32.2909058,60.7708198 C32.2909058,61.7072873 31.531749,62.4664441 30.5952815,62.4664441 C29.6588141,62.4664441 28.8996572,61.7072873 28.8996572,60.7708198 C28.8996572,59.8343524 29.6588141,59.0751955 30.5952815,59.0751955 Z M41.4753249,59.0751955 C42.4117923,59.0751955 43.1709492,59.8343524 43.1709492,60.7708198 C43.1709492,61.7072873 42.4117923,62.4664441 41.4753249,62.4664441 C40.5388574,62.4664441 39.7797006,61.7072873 39.7797006,60.7708198 C39.7797006,59.8343524 40.5388574,59.0751955 41.4753249,59.0751955 Z M8.83519478,59.0751955 C9.77166224,59.0751955 10.5308191,59.8343524 10.5308191,60.7708198 C10.5308191,61.7072873 9.77166224,62.4664441 8.83519478,62.4664441 C7.89872733,62.4664441 7.13957047,61.7072873 7.13957047,60.7708198 C7.13957047,59.8343524 7.89872733,59.0751955 8.83519478,59.0751955 Z M19.7152382,59.0751955 C20.6517056,59.0751955 21.4108625,59.8343524 21.4108625,60.7708198 C21.4108625,61.7072873 20.6517056,62.4664441 19.7152382,62.4664441 C18.7787707,62.4664441 18.0196138,61.7072873 18.0196138,60.7708198 C18.0196138,59.8343524 18.7787707,59.0751955 19.7152382,59.0751955 Z M84.9954983,46.5939729 C85.9319658,46.5939729 86.6911227,47.3531297 86.6911227,48.2895972 C86.6911227,49.2260646 85.9319658,49.9852215 84.9954983,49.9852215 C84.0590309,49.9852215 83.299874,49.2260646 83.299874,48.2895972 C83.299874,47.3531297 84.0590309,46.5939729 84.9954983,46.5939729 Z M95.8755417,46.5939729 C96.8120092,46.5939729 97.571166,47.3531297 97.571166,48.2895972 C97.571166,49.2260646 96.8120092,49.9852215 95.8755417,49.9852215 C94.9390743,49.9852215 94.1799174,49.2260646 94.1799174,48.2895972 C94.1799174,47.3531297 94.9390743,46.5939729 95.8755417,46.5939729 Z M52.3553682,46.5939729 C53.2918357,46.5939729 54.0509926,47.3531297 54.0509926,48.2895972 C54.0509926,49.2260646 53.2918357,49.9852215 52.3553682,49.9852215 C51.4189008,49.9852215 50.6597439,49.2260646 50.6597439,48.2895972 C50.6597439,47.3531297 51.4189008,46.5939729 52.3553682,46.5939729 Z M63.2354116,46.5939729 C64.1718791,46.5939729 64.9310359,47.3531297 64.9310359,48.2895972 C64.9310359,49.2260646 64.1718791,49.9852215 63.2354116,49.9852215 C62.2989442,49.9852215 61.5397873,49.2260646 61.5397873,48.2895972 C61.5397873,47.3531297 62.2989442,46.5939729 63.2354116,46.5939729 Z M74.115455,46.5939729 C75.0519224,46.5939729 75.8110793,47.3531297 75.8110793,48.2895972 C75.8110793,49.2260646 75.0519224,49.9852215 74.115455,49.9852215 C73.1789875,49.9852215 72.4198307,49.2260646 72.4198307,48.2895972 C72.4198307,47.3531297 73.1789875,46.5939729 74.115455,46.5939729 Z M30.5952815,46.5939729 C31.531749,46.5939729 32.2909058,47.3531297 32.2909058,48.2895972 C32.2909058,49.2260646 31.531749,49.9852215 30.5952815,49.9852215 C29.6588141,49.9852215 28.8996572,49.2260646 28.8996572,48.2895972 C28.8996572,47.3531297 29.6588141,46.5939729 30.5952815,46.5939729 Z M41.4753249,46.5939729 C42.4117923,46.5939729 43.1709492,47.3531297 43.1709492,48.2895972 C43.1709492,49.2260646 42.4117923,49.9852215 41.4753249,49.9852215 C40.5388574,49.9852215 39.7797006,49.2260646 39.7797006,48.2895972 C39.7797006,47.3531297 40.5388574,46.5939729 41.4753249,46.5939729 Z M8.83519479,46.5939729 C9.77166224,46.5939729 10.5308191,47.3531297 10.5308191,48.2895972 C10.5308191,49.2260646 9.77166224,49.9852215 8.83519479,49.9852215 C7.89872733,49.9852215 7.13957047,49.2260646 7.13957047,48.2895972 C7.13957047,47.3531297 7.89872733,46.5939729 8.83519479,46.5939729 Z M19.7152382,46.5939729 C20.6517056,46.5939729 21.4108625,47.3531297 21.4108625,48.2895972 C21.4108625,49.2260646 20.6517056,49.9852215 19.7152382,49.9852215 C18.7787707,49.9852215 18.0196138,49.2260646 18.0196138,48.2895972 C18.0196138,47.3531297 18.7787707,46.5939729 19.7152382,46.5939729 Z M84.9954983,34.5272531 C85.9319658,34.5272531 86.6911227,35.28641 86.6911227,36.2228775 C86.6911227,37.1593449 85.9319658,37.9185018 84.9954983,37.9185018 C84.0590309,37.9185018 83.299874,37.1593449 83.299874,36.2228775 C83.299874,35.28641 84.0590309,34.5272531 84.9954983,34.5272531 Z M95.8755417,34.5272531 C96.8120092,34.5272531 97.571166,35.28641 97.571166,36.2228775 C97.571166,37.1593449 96.8120092,37.9185018 95.8755417,37.9185018 C94.9390743,37.9185018 94.1799174,37.1593449 94.1799174,36.2228775 C94.1799174,35.28641 94.9390743,34.5272531 95.8755417,34.5272531 Z M52.3553682,34.5272531 C53.2918357,34.5272531 54.0509926,35.28641 54.0509926,36.2228775 C54.0509926,37.1593449 53.2918357,37.9185018 52.3553682,37.9185018 C51.4189008,37.9185018 50.6597439,37.1593449 50.6597439,36.2228775 C50.6597439,35.28641 51.4189008,34.5272531 52.3553682,34.5272531 Z M63.2354116,34.5272531 C64.1718791,34.5272531 64.9310359,35.28641 64.9310359,36.2228775 C64.9310359,37.1593449 64.1718791,37.9185018 63.2354116,37.9185018 C62.2989442,37.9185018 61.5397873,37.1593449 61.5397873,36.2228775 C61.5397873,35.28641 62.2989442,34.5272531 63.2354116,34.5272531 Z M74.115455,34.5272531 C75.0519224,34.5272531 75.8110793,35.28641 75.8110793,36.2228775 C75.8110793,37.1593449 75.0519224,37.9185018 74.115455,37.9185018 C73.1789875,37.9185018 72.4198307,37.1593449 72.4198307,36.2228775 C72.4198307,35.28641 73.1789875,34.5272531 74.115455,34.5272531 Z M30.5952815,34.5272531 C31.531749,34.5272531 32.2909058,35.28641 32.2909058,36.2228775 C32.2909058,37.1593449 31.531749,37.9185018 30.5952815,37.9185018 C29.6588141,37.9185018 28.8996572,37.1593449 28.8996572,36.2228775 C28.8996572,35.28641 29.6588141,34.5272531 30.5952815,34.5272531 Z M41.4753249,34.5272531 C42.4117923,34.5272531 43.1709492,35.28641 43.1709492,36.2228775 C43.1709492,37.1593449 42.4117923,37.9185018 41.4753249,37.9185018 C40.5388574,37.9185018 39.7797006,37.1593449 39.7797006,36.2228775 C39.7797006,35.28641 40.5388574,34.5272531 41.4753249,34.5272531 Z M8.83519478,34.5272531 C9.77166224,34.5272531 10.5308191,35.28641 10.5308191,36.2228775 C10.5308191,37.1593449 9.77166224,37.9185018 8.83519478,37.9185018 C7.89872733,37.9185018 7.13957047,37.1593449 7.13957047,36.2228775 C7.13957047,35.28641 7.89872733,34.5272531 8.83519478,34.5272531 Z M19.7152382,34.5272531 C20.6517056,34.5272531 21.4108625,35.28641 21.4108625,36.2228775 C21.4108625,37.1593449 20.6517056,37.9185018 19.7152382,37.9185018 C18.7787707,37.9185018 18.0196138,37.1593449 18.0196138,36.2228775 C18.0196138,35.28641 18.7787707,34.5272531 19.7152382,34.5272531 Z M84.9954983,22.4605334 C85.9319658,22.4605334 86.6911227,23.2196903 86.6911227,24.1561577 C86.6911227,25.0926252 85.9319658,25.851782 84.9954983,25.851782 C84.0590309,25.851782 83.299874,25.0926252 83.299874,24.1561577 C83.299874,23.2196903 84.0590309,22.4605334 84.9954983,22.4605334 Z M95.8755417,22.4605334 C96.8120092,22.4605334 97.571166,23.2196903 97.571166,24.1561577 C97.571166,25.0926252 96.8120092,25.851782 95.8755417,25.851782 C94.9390743,25.851782 94.1799174,25.0926252 94.1799174,24.1561577 C94.1799174,23.2196903 94.9390743,22.4605334 95.8755417,22.4605334 Z M52.3553682,22.4605334 C53.2918357,22.4605334 54.0509926,23.2196903 54.0509926,24.1561577 C54.0509926,25.0926252 53.2918357,25.851782 52.3553682,25.851782 C51.4189008,25.851782 50.6597439,25.0926252 50.6597439,24.1561577 C50.6597439,23.2196903 51.4189008,22.4605334 52.3553682,22.4605334 Z M63.2354116,22.4605334 C64.1718791,22.4605334 64.9310359,23.2196903 64.9310359,24.1561577 C64.9310359,25.0926252 64.1718791,25.851782 63.2354116,25.851782 C62.2989442,25.851782 61.5397873,25.0926252 61.5397873,24.1561577 C61.5397873,23.2196903 62.2989442,22.4605334 63.2354116,22.4605334 Z M74.115455,22.4605334 C75.0519224,22.4605334 75.8110793,23.2196903 75.8110793,24.1561577 C75.8110793,25.0926252 75.0519224,25.851782 74.115455,25.851782 C73.1789875,25.851782 72.4198307,25.0926252 72.4198307,24.1561577 C72.4198307,23.2196903 73.1789875,22.4605334 74.115455,22.4605334 Z M30.5952815,22.4605334 C31.531749,22.4605334 32.2909058,23.2196903 32.2909058,24.1561577 C32.2909058,25.0926252 31.531749,25.851782 30.5952815,25.851782 C29.6588141,25.851782 28.8996572,25.0926252 28.8996572,24.1561577 C28.8996572,23.2196903 29.6588141,22.4605334 30.5952815,22.4605334 Z M41.4753249,22.4605334 C42.4117923,22.4605334 43.1709492,23.2196903 43.1709492,24.1561577 C43.1709492,25.0926252 42.4117923,25.851782 41.4753249,25.851782 C40.5388574,25.851782 39.7797006,25.0926252 39.7797006,24.1561577 C39.7797006,23.2196903 40.5388574,22.4605334 41.4753249,22.4605334 Z M8.83519478,22.4605334 C9.77166224,22.4605334 10.5308191,23.2196903 10.5308191,24.1561577 C10.5308191,25.0926252 9.77166224,25.851782 8.83519478,25.851782 C7.89872733,25.851782 7.13957047,25.0926252 7.13957047,24.1561577 C7.13957047,23.2196903 7.89872733,22.4605334 8.83519478,22.4605334 Z M19.7152382,22.4605334 C20.6517056,22.4605334 21.4108625,23.2196903 21.4108625,24.1561577 C21.4108625,25.0926252 20.6517056,25.851782 19.7152382,25.851782 C18.7787707,25.851782 18.0196138,25.0926252 18.0196138,24.1561577 C18.0196138,23.2196903 18.7787707,22.4605334 19.7152382,22.4605334 Z M84.9954983,10.3938137 C85.9319658,10.3938137 86.6911227,11.1529705 86.6911227,12.089438 C86.6911227,13.0259054 85.9319658,13.7850623 84.9954983,13.7850623 C84.0590309,13.7850623 83.299874,13.0259054 83.299874,12.089438 C83.299874,11.1529705 84.0590309,10.3938137 84.9954983,10.3938137 Z M95.8755417,10.3938137 C96.8120092,10.3938137 97.571166,11.1529705 97.571166,12.089438 C97.571166,13.0259054 96.8120092,13.7850623 95.8755417,13.7850623 C94.9390743,13.7850623 94.1799174,13.0259054 94.1799174,12.089438 C94.1799174,11.1529705 94.9390743,10.3938137 95.8755417,10.3938137 Z M52.3553682,10.3938137 C53.2918357,10.3938137 54.0509926,11.1529705 54.0509926,12.089438 C54.0509926,13.0259054 53.2918357,13.7850623 52.3553682,13.7850623 C51.4189008,13.7850623 50.6597439,13.0259054 50.6597439,12.089438 C50.6597439,11.1529705 51.4189008,10.3938137 52.3553682,10.3938137 Z M63.2354116,10.3938137 C64.1718791,10.3938137 64.9310359,11.1529705 64.9310359,12.089438 C64.9310359,13.0259054 64.1718791,13.7850623 63.2354116,13.7850623 C62.2989442,13.7850623 61.5397873,13.0259054 61.5397873,12.089438 C61.5397873,11.1529705 62.2989442,10.3938137 63.2354116,10.3938137 Z M74.115455,10.3938137 C75.0519224,10.3938137 75.8110793,11.1529705 75.8110793,12.089438 C75.8110793,13.0259054 75.0519224,13.7850623 74.115455,13.7850623 C73.1789875,13.7850623 72.4198307,13.0259054 72.4198307,12.089438 C72.4198307,11.1529705 73.1789875,10.3938137 74.115455,10.3938137 Z M30.5952815,10.3938137 C31.531749,10.3938137 32.2909058,11.1529705 32.2909058,12.089438 C32.2909058,13.0259054 31.531749,13.7850623 30.5952815,13.7850623 C29.6588141,13.7850623 28.8996572,13.0259054 28.8996572,12.089438 C28.8996572,11.1529705 29.6588141,10.3938137 30.5952815,10.3938137 Z M41.4753249,10.3938137 C42.4117923,10.3938137 43.1709492,11.1529705 43.1709492,12.089438 C43.1709492,13.0259054 42.4117923,13.7850623 41.4753249,13.7850623 C40.5388574,13.7850623 39.7797006,13.0259054 39.7797006,12.089438 C39.7797006,11.1529705 40.5388574,10.3938137 41.4753249,10.3938137 Z M8.83519478,10.3938137 C9.77166224,10.3938137 10.5308191,11.1529705 10.5308191,12.089438 C10.5308191,13.0259054 9.77166224,13.7850623 8.83519478,13.7850623 C7.89872733,13.7850623 7.13957047,13.0259054 7.13957047,12.089438 C7.13957047,11.1529705 7.89872733,10.3938137 8.83519478,10.3938137 Z M19.7152382,10.3938137 C20.6517056,10.3938137 21.4108625,11.1529705 21.4108625,12.089438 C21.4108625,13.0259054 20.6517056,13.7850623 19.7152382,13.7850623 C18.7787707,13.7850623 18.0196138,13.0259054 18.0196138,12.089438 C18.0196138,11.1529705 18.7787707,10.3938137 19.7152382,10.3938137 Z" id="Combined-Shape" fill="#007373" mask="url(#mask-2)"></path>
                    <path d="M18.3973259,51.6511829 C20.0033111,51.6511829 21.3172989,50.337195 21.3172989,48.7312098 C21.3172989,47.1252246 20.0033111,45.8112367 18.3973259,45.8112367 C16.7913407,45.8112367 15.4773528,47.1252246 15.4773528,48.7312098 C15.4773528,50.337195 16.7913407,51.6511829 18.3973259,51.6511829 Z" id="Path" fill="#00A2A2" mask="url(#mask-2)"></path>
                </g>
            </g>
        </g>
    </g>
</svg>