<?xml version="1.0" encoding="UTF-8"?>
<svg width="606px" height="295px" viewBox="0 0 606 295" version="1.1" xmlns="http://www.w3.org/2000/svg" xmlns:xlink="http://www.w3.org/1999/xlink">
    <!-- Generator: Sketch 59.1 (86144) - https://sketch.com -->
    <title>Illlustration</title>
    <desc>Created with Sketch.</desc>
    <defs>
        <path d="M19.9329664,31.6457069 C19.9329664,31.6457069 40.3573547,33.9242373 36.5438388,32.7016112 C33.8864203,31.8441852 32.8266643,30.1769678 32.6098961,28.3192114 C32.4976587,26.7239851 32.7557963,25.1245021 33.3645708,23.6430637 C33.8495322,22.370714 34.4627864,21.1498723 35.1950584,19.999003 C35.1950584,19.999003 19.5797144,11.5041337 22.7027832,19.20509 C23.1848371,20.3704257 23.4826986,21.60217 23.5859132,22.8570898 C23.6846863,24.1068557 23.5485844,25.3639039 23.1844905,26.5646636 C22.5979302,28.5236661 21.4721748,30.2828448 19.9329664,31.6457069 Z" id="path-1"></path>
    </defs>
    <g id="Vantage-Launcher" stroke="none" stroke-width="1" fill="none" fill-rule="evenodd">
        <g id="Vantage-Launcher---Slide-2" transform="translate(-732.000000, -64.000000)">
            <g id="Illlustration" transform="translate(732.000000, 64.000000)">
                <path d="M243,9 C377.205194,9 486,117.794806 486,252 C486,253.335706 485.989223,254.668894 485.967752,255.999484 L1,256 L0.993051551,274.117842 C0.335783024,266.833186 0,259.455806 0,252 C0,117.794806 108.794806,9 243,9 Z" id="Planet" fill="#072A2B" opacity="0.4"></path>
                <path d="M166.322477,83.6400409 L167.667483,83.6061059 C116.234234,95.0842173 81.7082464,117.379165 79.2340097,145.65982 C75.0379019,193.621551 164.616263,240.636911 279.312879,250.671564 C296.077503,252.138279 312.450841,252.733748 328.202219,252.531559 L330.253201,252.500669 L332.139248,243.628381 C313.943534,244.319702 294.738317,243.867419 274.952394,242.136375 C167.108756,232.701279 82.8515873,188.849368 86.7587416,144.190391 C89.2659047,115.533385 127.466379,93.507517 183.014549,83.8953307 C272.876076,89.575372 344,164.255797 344,255.548105 L343.998,255.999106 L0.000581534997,256.000202 C0.00019392362,255.849548 0,255.698849 0,255.548105 C0,162.454987 73.9575449,86.6355799 166.322477,83.6400409 L167.667483,83.6061059 Z" id="Planet" fill="#055D5D" opacity="0.8"></path>
                <g id="rocket" transform="translate(266.797944, 63.636333) rotate(74.000000) translate(-266.797944, -63.636333) translate(248.797944, 29.136333)">
                    <path d="M10.0465405,53.4887234 C9.8039254,53.5315039 9.56635215,53.5987976 9.33752683,53.6895548 C4.23830019,55.7110074 4.32338184,68.943357 4.32338184,68.943357 L2.82216346,68.943357 C2.82216346,68.943357 2.34948765,63.2647082 0.289566474,55.1629441 C-1.56615876,47.8738902 6.04486714,41.3412387 7.59051704,40.1024656 C7.76446174,39.9645113 7.8608876,39.8913111 7.8608876,39.8913111 C15.5267439,42.6879353 10.0465405,53.4887234 10.0465405,53.4887234 Z" id="Path" fill="#00A2A2"></path>
                    <path d="M35.3384778,55.164821 C33.2738299,63.2665852 32.8087169,68.943357 32.8087169,68.943357 L31.3046624,68.943357 C31.3046624,68.943357 31.3991976,55.1141439 25.9416827,53.5703698 C25.8234806,53.5351536 25.7031894,53.5072587 25.5815037,53.4868465 C25.5815037,53.4868465 20.0984643,42.6860584 27.7671567,39.8913111 C27.7671567,39.8913111 27.8446755,39.9485574 27.9845875,40.0602347 C29.405451,41.1892075 37.2150008,47.7913053 35.3384778,55.164821 Z" id="Path" fill="#00A2A2"></path>
                    <path d="M25.1806746,55.536453 C24.6512777,57.6098339 24.030812,59.7370201 23.3192773,61.9180117 C23.3192773,61.9180117 19.9424813,65.4100381 11.7859875,61.9180117 C11.7859875,61.9180117 10.9710944,59.6375429 10.0749011,55.760746 C8.10195226,47.2366728 5.73573716,30.9927905 10.7772974,14.30783 C12.2786137,9.29199637 14.4124783,4.48462963 17.1281695,-2.7456445e-14 C17.1281695,-2.7456445e-14 21.4351915,4.90910787 24.5964473,14.3050146 C27.7577032,23.7009213 29.7694114,37.5855038 25.1806746,55.536453 Z" id="Path" fill="#008383"></path>
                    <ellipse id="Oval" fill="#00A2A2" cx="17.8135495" cy="27.5533181" rx="6.77155366" ry="6.72222131"></ellipse>
                    <path d="M22.6159357,27.557072 C22.6159357,29.3998157 21.5460642,31.0775241 19.8682838,31.8659548 C18.1905034,32.6543855 16.2052455,32.4123374 14.7695172,31.244299 C14.4261899,30.9636251 14.1233631,30.6374264 13.8695425,30.2748652 C13.7555598,30.112903 13.6519952,29.9439559 13.5594672,29.7690328 C13.1993057,29.0865794 13.0114711,28.3275104 13.012107,27.557072 C13.012107,27.5185949 13.012107,27.4810563 13.012107,27.4435178 C13.0626567,25.3508165 14.4808815,23.5350153 16.5099096,22.9651651 C16.8873335,22.8619049 17.2757338,22.8033133 17.66702,22.7906099 L17.8107134,22.7906099 C19.084713,22.7898638 20.3068041,23.2916834 21.2080125,24.1856223 C22.1092209,25.0795611 22.6156851,26.2923536 22.6159357,27.557072 L22.6159357,27.557072 Z" id="Path" fill="#0F3436" fill-rule="nonzero" opacity="0.7"></path>
                    <path d="M24.595502,14.3050146 C16.9126294,17.95658 10.7725706,14.3050146 10.7725706,14.3050146 C12.2756033,9.28992805 14.4110545,4.48351062 17.1281695,-1.37282225e-14 C17.1281695,-1.37282225e-14 21.4351915,4.90910787 24.595502,14.3050146 Z" id="Path" fill="#00A2A2"></path>
                    <path d="M25.1806746,55.536453 C24.821441,56.9403959 24.4212422,58.368426 23.9800781,59.8205435 C23.7708403,60.5131303 23.5502582,61.2113479 23.3183319,61.9151963 C23.3183319,61.9151963 19.941536,65.4072227 11.7850422,61.9151963 C11.7850422,61.9151963 11.5203437,61.1747478 11.123296,59.8205435 C10.8264556,58.7976171 10.4568232,57.4265205 10.0711197,55.7579306 C10.0711197,55.7579306 13.1075891,57.0445654 17.4174471,57.0445654 C20.0799201,57.0536212 22.7180345,56.5411316 25.1806746,55.536453 Z" id="Path" fill="#00A2A2"></path>
                    <path d="M23.9800781,59.8205435 C23.7708403,60.5131303 23.5502582,61.2113479 23.3183319,61.9151963 C23.3183319,61.9151963 19.941536,65.4072227 11.7850422,61.9151963 C11.7850422,61.9151963 11.5203437,61.1747478 11.123296,59.8205435 C11.1223507,59.8205435 19.4357728,62.1948587 23.9800781,59.8205435 Z" id="Path" fill="#008383"></path>
                </g>
                <path d="M393,-4.90274488e-13 C413.434536,-4.90274488e-13 430,16.5654643 430,37 C430,57.4345357 413.434536,74 393,74 L393.287884,73.9967875 C393.149819,73.9552165 393.003423,73.9328746 392.851809,73.9328746 C392.702501,73.9328746 392.558254,73.9545418 392.422041,73.9949035 C372.254068,73.6867819 356,57.2415615 356,37 C356,16.5654643 372.565464,-4.90274488e-13 393,-4.90274488e-13 Z M373.471235,63.1856771 C372.637172,63.1856771 371.961031,63.8618185 371.961031,64.6958812 C371.961031,65.5299439 372.637172,66.2060853 373.471235,66.2060853 C374.305298,66.2060853 374.981439,65.5299439 374.981439,64.6958812 C374.981439,63.8618185 374.305298,63.1856771 373.471235,63.1856771 Z M412.232382,63.1856771 C411.39832,63.1856771 410.722178,63.8618185 410.722178,64.6958812 C410.722178,65.5299439 411.39832,66.2060853 412.232382,66.2060853 C413.066445,66.2060853 413.742586,65.5299439 413.742586,64.6958812 C413.742586,63.8618185 413.066445,63.1856771 412.232382,63.1856771 Z M402.542095,63.1856771 C401.708033,63.1856771 401.031891,63.8618185 401.031891,64.6958812 C401.031891,65.5299439 401.708033,66.2060853 402.542095,66.2060853 C403.376158,66.2060853 404.0523,65.5299439 404.0523,64.6958812 C404.0523,63.8618185 403.376158,63.1856771 402.542095,63.1856771 Z M383.161522,63.1856771 C382.327459,63.1856771 381.651318,63.8618185 381.651318,64.6958812 C381.651318,65.5299439 382.327459,66.2060853 383.161522,66.2060853 C383.995585,66.2060853 384.671726,65.5299439 384.671726,64.6958812 C384.671726,63.8618185 383.995585,63.1856771 383.161522,63.1856771 Z M392.851809,63.1856771 C392.017746,63.1856771 391.341605,63.8618185 391.341605,64.6958812 C391.341605,65.5299439 392.017746,66.2060853 392.851809,66.2060853 C393.685871,66.2060853 394.362013,65.5299439 394.362013,64.6958812 C394.362013,63.8618185 393.685871,63.1856771 392.851809,63.1856771 Z M402.542095,52.4384797 C401.708033,52.4384797 401.031891,53.1146211 401.031891,53.9486838 C401.031891,54.7827464 401.708033,55.4588878 402.542095,55.4588878 C403.376158,55.4588878 404.0523,54.7827464 404.0523,53.9486838 C404.0523,53.1146211 403.376158,52.4384797 402.542095,52.4384797 Z M412.232382,52.4384797 C411.39832,52.4384797 410.722178,53.1146211 410.722178,53.9486838 C410.722178,54.7827464 411.39832,55.4588878 412.232382,55.4588878 C413.066445,55.4588878 413.742586,54.7827464 413.742586,53.9486838 C413.742586,53.1146211 413.066445,52.4384797 412.232382,52.4384797 Z M421.922669,52.4384797 C421.088606,52.4384797 420.412465,53.1146211 420.412465,53.9486838 C420.412465,54.7827464 421.088606,55.4588878 421.922669,55.4588878 C422.756732,55.4588878 423.432873,54.7827464 423.432873,53.9486838 C423.432873,53.1146211 422.756732,52.4384797 421.922669,52.4384797 Z M383.161522,52.4384797 C382.327459,52.4384797 381.651318,53.1146211 381.651318,53.9486838 C381.651318,54.7827464 382.327459,55.4588878 383.161522,55.4588878 C383.995585,55.4588878 384.671726,54.7827464 384.671726,53.9486838 C384.671726,53.1146211 383.995585,52.4384797 383.161522,52.4384797 Z M392.851809,52.4384797 C392.017746,52.4384797 391.341605,53.1146211 391.341605,53.9486838 C391.341605,54.7827464 392.017746,55.4588878 392.851809,55.4588878 C393.685871,55.4588878 394.362013,54.7827464 394.362013,53.9486838 C394.362013,53.1146211 393.685871,52.4384797 392.851809,52.4384797 Z M363.780948,52.4384797 C362.946886,52.4384797 362.270744,53.1146211 362.270744,53.9486838 C362.270744,54.7827464 362.946886,55.4588878 363.780948,55.4588878 C364.615011,55.4588878 365.291152,54.7827464 365.291152,53.9486838 C365.291152,53.1146211 364.615011,52.4384797 363.780948,52.4384797 Z M373.471235,52.4384797 C372.637172,52.4384797 371.961031,53.1146211 371.961031,53.9486838 C371.961031,54.7827464 372.637172,55.4588878 373.471235,55.4588878 C374.305298,55.4588878 374.981439,54.7827464 374.981439,53.9486838 C374.981439,53.1146211 374.305298,52.4384797 373.471235,52.4384797 Z M402.542095,41.3221061 C401.708033,41.3221061 401.031891,41.9982475 401.031891,42.8323102 C401.031891,43.6663729 401.708033,44.3425143 402.542095,44.3425143 C403.376158,44.3425143 404.0523,43.6663729 404.0523,42.8323102 C404.0523,41.9982475 403.376158,41.3221061 402.542095,41.3221061 Z M412.232382,41.3221061 C411.39832,41.3221061 410.722178,41.9982475 410.722178,42.8323102 C410.722178,43.6663729 411.39832,44.3425143 412.232382,44.3425143 C413.066445,44.3425143 413.742586,43.6663729 413.742586,42.8323102 C413.742586,41.9982475 413.066445,41.3221061 412.232382,41.3221061 Z M421.922669,41.3221061 C421.088606,41.3221061 420.412465,41.9982475 420.412465,42.8323102 C420.412465,43.6663729 421.088606,44.3425143 421.922669,44.3425143 C422.756732,44.3425143 423.432873,43.6663729 423.432873,42.8323102 C423.432873,41.9982475 422.756732,41.3221061 421.922669,41.3221061 Z M383.161522,41.3221061 C382.327459,41.3221061 381.651318,41.9982475 381.651318,42.8323102 C381.651318,43.6663729 382.327459,44.3425143 383.161522,44.3425143 C383.995585,44.3425143 384.671726,43.6663729 384.671726,42.8323102 C384.671726,41.9982475 383.995585,41.3221061 383.161522,41.3221061 Z M392.851809,41.3221061 C392.017746,41.3221061 391.341605,41.9982475 391.341605,42.8323102 C391.341605,43.6663729 392.017746,44.3425143 392.851809,44.3425143 C393.685871,44.3425143 394.362013,43.6663729 394.362013,42.8323102 C394.362013,41.9982475 393.685871,41.3221061 392.851809,41.3221061 Z M363.780948,41.3221061 C362.946886,41.3221061 362.270744,41.9982475 362.270744,42.8323102 C362.270744,43.6663729 362.946886,44.3425143 363.780948,44.3425143 C364.615011,44.3425143 365.291152,43.6663729 365.291152,42.8323102 C365.291152,41.9982475 364.615011,41.3221061 363.780948,41.3221061 Z M373.471235,41.3221061 C372.637172,41.3221061 371.961031,41.9982475 371.961031,42.8323102 C371.961031,43.6663729 372.637172,44.3425143 373.471235,44.3425143 C374.305298,44.3425143 374.981439,43.6663729 374.981439,42.8323102 C374.981439,41.9982475 374.305298,41.3221061 373.471235,41.3221061 Z M402.542095,30.5749086 C401.708033,30.5749086 401.031891,31.25105 401.031891,32.0851127 C401.031891,32.9191754 401.708033,33.5953168 402.542095,33.5953168 C403.376158,33.5953168 404.0523,32.9191754 404.0523,32.0851127 C404.0523,31.25105 403.376158,30.5749086 402.542095,30.5749086 Z M412.232382,30.5749086 C411.39832,30.5749086 410.722178,31.25105 410.722178,32.0851127 C410.722178,32.9191754 411.39832,33.5953168 412.232382,33.5953168 C413.066445,33.5953168 413.742586,32.9191754 413.742586,32.0851127 C413.742586,31.25105 413.066445,30.5749086 412.232382,30.5749086 Z M421.922669,30.5749086 C421.088606,30.5749086 420.412465,31.25105 420.412465,32.0851127 C420.412465,32.9191754 421.088606,33.5953168 421.922669,33.5953168 C422.756732,33.5953168 423.432873,32.9191754 423.432873,32.0851127 C423.432873,31.25105 422.756732,30.5749086 421.922669,30.5749086 Z M383.161522,30.5749086 C382.327459,30.5749086 381.651318,31.25105 381.651318,32.0851127 C381.651318,32.9191754 382.327459,33.5953168 383.161522,33.5953168 C383.995585,33.5953168 384.671726,32.9191754 384.671726,32.0851127 C384.671726,31.25105 383.995585,30.5749086 383.161522,30.5749086 Z M392.851809,30.5749086 C392.017746,30.5749086 391.341605,31.25105 391.341605,32.0851127 C391.341605,32.9191754 392.017746,33.5953168 392.851809,33.5953168 C393.685871,33.5953168 394.362013,32.9191754 394.362013,32.0851127 C394.362013,31.25105 393.685871,30.5749086 392.851809,30.5749086 Z M363.780948,30.5749086 C362.946886,30.5749086 362.270744,31.25105 362.270744,32.0851127 C362.270744,32.9191754 362.946886,33.5953168 363.780948,33.5953168 C364.615011,33.5953168 365.291152,32.9191754 365.291152,32.0851127 C365.291152,31.25105 364.615011,30.5749086 363.780948,30.5749086 Z M373.471235,30.5749086 C372.637172,30.5749086 371.961031,31.25105 371.961031,32.0851127 C371.961031,32.9191754 372.637172,33.5953168 373.471235,33.5953168 C374.305298,33.5953168 374.981439,32.9191754 374.981439,32.0851127 C374.981439,31.25105 374.305298,30.5749086 373.471235,30.5749086 Z M402.542095,19.8277112 C401.708033,19.8277112 401.031891,20.5038526 401.031891,21.3379152 C401.031891,22.1719779 401.708033,22.8481193 402.542095,22.8481193 C403.376158,22.8481193 404.0523,22.1719779 404.0523,21.3379152 C404.0523,20.5038526 403.376158,19.8277112 402.542095,19.8277112 Z M412.232382,19.8277112 C411.39832,19.8277112 410.722178,20.5038526 410.722178,21.3379152 C410.722178,22.1719779 411.39832,22.8481193 412.232382,22.8481193 C413.066445,22.8481193 413.742586,22.1719779 413.742586,21.3379152 C413.742586,20.5038526 413.066445,19.8277112 412.232382,19.8277112 Z M421.922669,19.8277112 C421.088606,19.8277112 420.412465,20.5038526 420.412465,21.3379152 C420.412465,22.1719779 421.088606,22.8481193 421.922669,22.8481193 C422.756732,22.8481193 423.432873,22.1719779 423.432873,21.3379152 C423.432873,20.5038526 422.756732,19.8277112 421.922669,19.8277112 Z M383.161522,19.8277112 C382.327459,19.8277112 381.651318,20.5038526 381.651318,21.3379152 C381.651318,22.1719779 382.327459,22.8481193 383.161522,22.8481193 C383.995585,22.8481193 384.671726,22.1719779 384.671726,21.3379152 C384.671726,20.5038526 383.995585,19.8277112 383.161522,19.8277112 Z M392.851809,19.8277112 C392.017746,19.8277112 391.341605,20.5038526 391.341605,21.3379152 C391.341605,22.1719779 392.017746,22.8481193 392.851809,22.8481193 C393.685871,22.8481193 394.362013,22.1719779 394.362013,21.3379152 C394.362013,20.5038526 393.685871,19.8277112 392.851809,19.8277112 Z M363.780948,19.8277112 C362.946886,19.8277112 362.270744,20.5038526 362.270744,21.3379152 C362.270744,22.1719779 362.946886,22.8481193 363.780948,22.8481193 C364.615011,22.8481193 365.291152,22.1719779 365.291152,21.3379152 C365.291152,20.5038526 364.615011,19.8277112 363.780948,19.8277112 Z M373.471235,19.8277112 C372.637172,19.8277112 371.961031,20.5038526 371.961031,21.3379152 C371.961031,22.1719779 372.637172,22.8481193 373.471235,22.8481193 C374.305298,22.8481193 374.981439,22.1719779 374.981439,21.3379152 C374.981439,20.5038526 374.305298,19.8277112 373.471235,19.8277112 Z M402.542095,9.08051369 C401.708033,9.08051369 401.031891,9.75665509 401.031891,10.5907178 C401.031891,11.4247805 401.708033,12.1009219 402.542095,12.1009219 C403.376158,12.1009219 404.0523,11.4247805 404.0523,10.5907178 C404.0523,9.75665509 403.376158,9.08051369 402.542095,9.08051369 Z M412.232382,9.08051369 C411.39832,9.08051369 410.722178,9.75665509 410.722178,10.5907178 C410.722178,11.4247805 411.39832,12.1009219 412.232382,12.1009219 C413.066445,12.1009219 413.742586,11.4247805 413.742586,10.5907178 C413.742586,9.75665509 413.066445,9.08051369 412.232382,9.08051369 Z M383.161522,9.08051369 C382.327459,9.08051369 381.651318,9.75665509 381.651318,10.5907178 C381.651318,11.4247805 382.327459,12.1009219 383.161522,12.1009219 C383.995585,12.1009219 384.671726,11.4247805 384.671726,10.5907178 C384.671726,9.75665509 383.995585,9.08051369 383.161522,9.08051369 Z M392.851809,9.08051369 C392.017746,9.08051369 391.341605,9.75665509 391.341605,10.5907178 C391.341605,11.4247805 392.017746,12.1009219 392.851809,12.1009219 C393.685871,12.1009219 394.362013,11.4247805 394.362013,10.5907178 C394.362013,9.75665509 393.685871,9.08051369 392.851809,9.08051369 Z M373.471235,9.08051369 C372.637172,9.08051369 371.961031,9.75665509 371.961031,10.5907178 C371.961031,11.4247805 372.637172,12.1009219 373.471235,12.1009219 C374.305298,12.1009219 374.981439,11.4247805 374.981439,10.5907178 C374.981439,9.75665509 374.305298,9.08051369 373.471235,9.08051369 Z" id="Data-bubble" fill="#007373" opacity="0.4"></path>
                <g id="code-bubble" transform="translate(414.500000, 83.000000)">
                    <circle id="Oval" fill-opacity="0.4" fill="#007373" cx="68.5" cy="68.9232453" r="68.5"></circle>
                    <g id="code" transform="translate(21.269736, 31.863295)" fill="#009392">
                        <g transform="translate(85.804891, 37.059950) scale(1, -1) translate(-85.804891, -37.059950) translate(0.804891, 0.559950)" id="Combined-Shape">
                            <path d="M78.8062573,68.7389511 L78.8062573,72.2389511 L55.5458162,72.2389511 L55.5458162,68.7389511 L78.8062573,68.7389511 Z M120.997447,60.2389511 L120.997447,63.7389511 L64.7765039,63.7389511 L64.7765039,60.2389511 L120.997447,60.2389511 Z M152.205622,51.7389511 L152.205622,55.2389511 L80.1604707,55.2389511 L80.1604707,51.7389511 L152.205622,51.7389511 Z M169.181992,43.2389511 L169.181992,46.7389511 L81.4931505,46.7389511 L81.4931505,43.2389511 L169.181992,43.2389511 Z M150.370202,34.7389511 L150.370202,38.2389511 L62.681361,38.2389511 L62.681361,34.7389511 L150.370202,34.7389511 Z M152.464576,26.2389511 L152.464576,29.7389511 L55.5458162,29.7389511 L55.5458162,26.2389511 L152.464576,26.2389511 Z M143.233888,17.7389511 L143.233888,21.2389511 L55.5458162,21.2389511 L55.5458162,17.7389511 L143.233888,17.7389511 Z M143.233888,9.23895111 L143.233888,12.7389511 L55.5458162,12.7389511 L55.5458162,9.23895111 L143.233888,9.23895111 Z M148.645624,0.73895111 L148.645624,4.23895111 L60.957552,4.23895111 L60.957552,0.73895111 L148.645624,0.73895111 Z" opacity="0.4"></path>
                            <path d="M49.3740589,68.7389511 L49.3740589,72.2389511 L23.1440901,72.2389511 L23.1440901,68.7389511 L49.3740589,68.7389511 Z M58.6324664,60.2389511 L58.6324664,63.7389511 L32.4024976,63.7389511 L32.4024976,60.2389511 L58.6324664,60.2389511 Z M74.0626312,51.7389511 L74.0626312,55.2389511 L47.8326625,55.2389511 L47.8326625,51.7389511 L74.0626312,51.7389511 Z M75.6040276,43.2389511 L75.6040276,46.7389511 L49.3740589,46.7389511 L49.3740589,43.2389511 L75.6040276,43.2389511 Z M58.6324664,34.7389511 L58.6324664,38.2389511 L32.4024976,38.2389511 L32.4024976,34.7389511 L58.6324664,34.7389511 Z M49.3740589,26.2389511 L49.3740589,29.7389511 L23.1440901,29.7389511 L23.1440901,26.2389511 L49.3740589,26.2389511 Z M49.3740589,17.7389511 L49.3740589,21.2389511 L23.1440901,21.2389511 L23.1440901,17.7389511 L49.3740589,17.7389511 Z M49.3740589,9.23895111 L49.3740589,12.7389511 L23.1440901,12.7389511 L23.1440901,9.23895111 L49.3740589,9.23895111 Z M56.8912624,0.73895111 L56.8912624,4.23895111 L30.6612937,4.23895111 L30.6612937,0.73895111 L56.8912624,0.73895111 Z" opacity="0.6"></path>
                            <path d="M10.4140966,68.7389511 L10.4140966,72.2389511 L0,72.2389511 L0,68.7389511 L10.4140966,68.7389511 Z M10.4140966,60.2389511 L10.4140966,63.7389511 L0,63.7389511 L0,60.2389511 L10.4140966,60.2389511 Z M10.4140966,51.7389511 L10.4140966,55.2389511 L0,55.2389511 L0,51.7389511 L10.4140966,51.7389511 Z M10.4140966,43.2389511 L10.4140966,46.7389511 L9.09494702e-13,46.7389511 L9.09494702e-13,43.2389511 L10.4140966,43.2389511 Z M10.4140966,34.7389511 L10.4140966,38.2389511 L0,38.2389511 L0,34.7389511 L10.4140966,34.7389511 Z M10.4140966,26.2389511 L10.4140966,29.7389511 L1.8189894e-12,29.7389511 L1.8189894e-12,26.2389511 L10.4140966,26.2389511 Z M10.4140966,17.7389511 L10.4140966,21.2389511 L0,21.2389511 L0,17.7389511 L10.4140966,17.7389511 Z M10.4140966,9.23895111 L10.4140966,12.7389511 L0,12.7389511 L0,9.23895111 L10.4140966,9.23895111 Z M10.4140966,0.73895111 L10.4140966,4.23895111 L0,4.23895111 L0,0.73895111 L10.4140966,0.73895111 Z" opacity="0.8"></path>
                        </g>
                    </g>
                </g>
                <g id="db" transform="translate(101.647817, 109.160187)">
                    <path d="M84.4854812,126.535271 C109.963926,133.655455 138.442485,138.867245 168.665063,141.511378 C170.668104,141.686621 172.66556,141.849427 174.657037,141.999921 L171.861813,146.839523 L109.610117,146.840988 C109.582102,146.824846 109.554089,146.808688 109.526077,146.792515 C99.2916902,140.883689 90.748379,133.826281 84.6114619,126.677602 Z M181.989793,129.298171 L179.247268,134.04913 C178.671131,134.016842 178.094391,133.983463 177.517057,133.948991 C179.270389,132.798821 180.705596,131.374113 181.76668,129.670151 L181.989793,129.298171 Z M104.862813,46.8530335 C97.6206097,59.3968979 112.678249,81.6476818 138.522661,96.56896 C164.108628,111.341025 190.62976,113.365545 198.184727,101.233259 L198.397813,100.877523 L185.826353,122.653053 C178.58415,135.196918 151.788536,133.276902 125.944124,118.355624 C100.358156,103.583558 85.3414136,81.6328524 92.0707402,69.0240164 L104.862813,46.8530335 Z M88.4447663,75.2899251 C81.2025628,87.8337895 96.2602016,110.084573 122.104614,125.005852 C124.272758,126.25763 126.447617,127.417871 128.617082,128.485717 C110.55314,125.500279 93.4667386,121.547702 77.7182112,116.817553 C73.8136174,109.542668 72.8584875,102.696451 75.6526932,97.460908 L88.4447663,75.2899251 Z M121.282196,18.413829 C114.039992,30.9576935 129.097631,53.2084773 154.942043,68.1297555 C180.528011,82.901821 207.049143,84.9263408 214.604109,72.7940549 L214.815813,72.4405231 L202.245736,94.2138486 C195.003532,106.757713 168.207919,104.837698 142.363507,89.9164195 C116.777539,75.144354 101.760796,53.193648 108.490123,40.5848119 L121.282196,18.413829 Z M184.992133,16.0814733 C210.836545,31.0027515 225.897134,53.2484258 218.65198,65.7973998 C211.409777,78.3412642 184.614163,76.4212489 158.769751,61.4999706 C132.925339,46.5786924 117.86475,24.3330181 125.106954,11.7891537 C132.352107,-0.759820296 159.147721,1.16019507 184.992133,16.0814733 Z" id="Combined-Shape" fill="#00A2A2"></path>
                    <g id="woman" transform="translate(301.306773, 87.290497) scale(-1, 1) translate(-301.306773, -87.290497) translate(256.306773, 0.790497)">
                        <g transform="translate(36.275951, 10.939914)" fill-rule="nonzero" id="Path">
                            <path d="M10.5733594,41.068798 C10.5733594,41.068798 0.791598635,33.6420067 0.049123477,36.3644156 C-0.693351681,39.0868245 7.22637699,45.274108 7.22637699,45.274108 L10.5733594,41.068798 Z" fill="#F8A584"></path>
                            <path d="M42.865156,17.5550608 C42.865156,17.5550608 31.2330547,38.3443462 30.985563,41.3142532 C30.7380713,44.2841601 30.7380681,44.5316423 29.7481044,44.2841506 C28.7581407,44.0366589 15.1461057,42.5517118 13.9086471,43.0466952 C12.6711885,43.5416786 10.1962744,40.0767977 10.1962744,40.0767977 C10.1962744,40.0767977 5.49393813,44.7791341 6.48390183,45.7691009 C7.47386553,46.7590678 10.443763,47.2540417 10.9387528,48.4915003 C11.4337426,49.7289589 12.1762114,50.9664175 14.4036337,50.7189258 C16.631056,50.4714341 31.7280381,54.6787869 33.7079655,53.9363118 C35.6878929,53.1938366 36.1828796,51.956378 37.1728464,51.956378 C38.1628133,51.956378 40.1427439,50.9664143 40.1427439,50.7189226 C40.1427439,50.4714309 47.0725057,37.3543793 47.0725057,37.3543793 C47.0725057,37.3543793 55.2397292,19.5349914 42.865156,17.5550608 Z" fill="#007DA4"></path>
                            <polygon fill="#F7A17D" points="24.3031595 140.310896 24.3031595 147.488248 28.0155829 151.942839 31.2330166 150.457869 30.243037 140.063402"></polygon>
                            <path d="M25.2885621,147.146039 C25.2885621,147.146039 24.3717529,143.937251 22.7673723,146.22923 C21.1629916,148.521209 19.5585844,153.563603 18.641787,153.792802 C17.7249897,154.022002 11.3074139,161.127175 17.7249779,161.127175 C24.1425418,161.127175 26.2053477,158.147587 26.2053477,158.147587 C26.2053477,158.147587 32.6229234,155.626394 32.6229234,155.167995 C32.6229234,154.709597 31.7061143,146.22923 31.2477273,146.22923 C30.7893404,146.22923 30.5601205,147.833625 29.4141355,147.833625 C28.2681506,147.833625 25.2885621,147.146039 25.2885621,147.146039 Z" fill="#046162"></path>
                            <polygon fill="#F8B79D" points="40.8853175 141.548371 40.6378226 148.230733 46.5773825 150.705364 46.5773825 141.053381"></polygon>
                            <path d="M46.0672393,148.544463 C46.0672393,148.544463 43.1746556,145.429373 41.6171118,146.096893 C40.8465815,146.407008 40.1024561,146.779071 39.3920452,147.209426 C39.3920452,147.209426 38.5020214,150.10201 38.0570081,152.54958 C37.6119947,154.997151 37.3894795,156.109684 36.9444747,156.99971 C36.49947,157.889737 36.0544367,161.227334 40.5045785,161.672348 C44.9547203,162.117361 46.289746,159.669788 46.289746,159.669788 L47.4022793,153.88462 C47.4022793,153.88462 46.957266,148.544463 46.0672393,148.544463 Z" fill="#046162"></path>
                            <path d="M27.5206821,70.2707494 C27.5206821,70.2707494 20.3434286,86.3576984 21.3333923,100.959697 C21.3333923,100.959697 18.8584783,106.652004 20.3434286,115.561696 C21.8283789,124.471388 23.8083095,142.290795 23.8083095,142.290795 C23.8083095,142.290795 30.4905795,143.03328 30.985563,141.795805 C30.985563,141.795805 31.4805528,129.421232 31.9755267,128.926249 C32.4705006,128.431265 31.7280318,117.046656 30.985563,114.81923 C30.2430942,112.591805 37.9153248,90.5650481 37.9153248,90.5650481 L35.935391,63.0934895 L27.5206821,70.2707494 Z" fill="#B6491B"></path>
                            <path d="M25.5407483,69.2807857 L30.2430878,79.4279366 C30.2430878,79.4279366 32.4705101,102.444644 33.7079687,105.414545 C33.7079687,105.414545 34.2029585,113.829257 36.4303745,116.551663 C38.6577904,119.274069 40.3902388,143.280746 40.3902388,143.280746 C40.3902388,143.280746 46.5775286,145.013185 47.0725089,143.280746 C47.5674891,141.548307 49.0524426,129.668711 49.0524426,129.668711 C49.0524426,129.668711 49.5474324,119.52156 46.8250171,112.83929 C44.1026019,106.15702 50.0424095,82.1503424 50.0424095,82.1503424 C50.0424095,82.1503424 56.2296961,70.5182411 47.3200006,61.1135653 L25.5407483,69.2807857 Z" fill="#D45925"></path>
                            <path d="M48.0624757,19.7824831 C48.0624757,19.7824831 39.4456097,18.0058533 35.935391,21.0199417 C35.1729651,21.7455356 33.9754112,21.7455356 33.2129853,21.0199417 C33.2129853,21.0199417 29.5006127,21.2674366 28.5106458,24.2373309 C27.5206789,27.2072252 24.5507815,31.1670927 24.5507815,31.1670927 C24.5507815,31.1670927 20.0959369,34.3844818 22.5708509,42.7991939 C25.0457649,51.2139061 23.0658407,64.825922 23.0658407,64.825922 C23.0658407,64.825922 21.0859069,67.7958195 23.0658407,69.0332781 C25.0457744,70.2707367 25.7882464,70.7657169 25.5407547,71.7556838 C25.293263,72.7456507 48.0624726,63.5884634 48.0624726,61.8560246 C48.0624726,60.1235857 47.5674828,58.6386354 48.0624726,57.8961602 C48.5574624,57.1536851 49.0524521,55.9162265 48.5574624,54.6787711 C48.0624726,53.4413156 49.0524521,53.1938207 48.8049573,51.9563621 C48.5574624,50.7189035 50.0424317,41.5617195 51.0323795,37.6018551 C52.0223274,33.6419908 51.7748484,20.0299748 48.0624757,19.7824831 Z" fill="#008AB6"></path>
                        </g>
                        <polygon id="Fill-21" fill="#00B2B1" points="0.834960938 52.2293164 41.4258335 52.2293164 41.4258335 48.7293164 0.834960938 48.7293164"></polygon>
                        <g id="Woman's-arm" transform="translate(36.275951, 0.790545)">
                            <path d="M10.5733594,54.1880641 C10.5733594,54.1880641 0.791598635,46.761276 0.049123477,49.4836817 C-0.693351681,52.2060874 7.22637699,58.3933741 7.22637699,58.3933741 L10.5733594,54.1880641 Z" id="Path" fill="#F8B79D"></path>
                            <path d="M43.7162077,32.3746456 C43.7162077,32.3746456 31.8130218,52.7147354 31.5597623,55.6204714 C31.3065028,58.5262074 31.3064996,58.7683422 30.2934649,58.5262012 C29.2804302,58.2840601 15.3511684,56.8311921 14.084871,57.3154804 C12.8185736,57.7997687 10.285982,54.4097538 10.285982,54.4097538 C10.285982,54.4097538 5.47405837,59.010477 6.48709305,59.9790661 C7.50012773,60.9476551 10.5392415,61.431931 11.0457605,62.6426486 C11.5522794,63.8533662 12.3120579,65.0640901 14.59139,64.8219459 C16.8707221,64.5798018 32.3195408,68.6962368 34.3456101,67.9698043 C36.3716795,67.2433719 36.8782017,66.0326511 37.8912396,66.0326511 C38.9042776,66.0326511 40.9303502,65.0640776 40.9303502,64.8219335 C40.9303502,64.5797893 48.0216092,51.7461588 48.0216092,51.7461588 C48.0216092,51.7461588 56.3791689,34.3117956 43.7162077,32.3746456 Z" id="Path" fill="#007DA4" fill-rule="nonzero"></path>
                            <path d="M42.865156,31.1693103 C42.865156,31.1693103 31.2330547,51.9585957 30.985563,54.9285027 C30.7380713,57.8984097 30.7380681,58.1458919 29.7481044,57.8984033 C28.7581407,57.6509148 15.1461057,56.1659613 13.9086471,56.6609447 C12.6711885,57.1559282 10.1962744,53.6910473 10.1962744,53.6910473 C10.1962744,53.6910473 5.49393813,58.3933741 6.48390183,59.3833536 C7.47386553,60.3733332 10.4437662,60.868304 10.9387496,62.1057594 C11.433733,63.3432148 12.1762082,64.5806766 14.4036305,64.3331849 C16.6310528,64.0856931 31.7280381,68.2930365 33.7079655,67.5505613 C35.6878929,66.8080862 36.1828796,65.5706276 37.1728464,65.5706276 C38.1628133,65.5706276 40.1427439,64.5806639 40.1427439,64.3331722 C40.1427439,64.0856804 47.0725057,50.9686288 47.0725057,50.9686288 C47.0725057,50.9686288 55.2397292,33.1492409 42.865156,31.1693103 Z" id="Path" fill="#008AB6" fill-rule="nonzero"></path>
                            <g id="Head" transform="translate(35.807671, 22.703572) scale(-1, 1) translate(-35.807671, -22.703572) translate(20.307671, 0.203572)" fill-rule="nonzero">
                                <path d="M18.3386452,2.02543762 C19.2154374,1.12813181 20.5160125,0.802894748 21.7639801,0.753528408 C23.5877078,0.683834753 25.481579,1.14845912 26.8873692,2.30711614 C27.6486962,2.97210358 28.2884526,3.76298773 28.7783177,4.6447575 C30.1404052,6.92580085 30.8685899,9.52524755 30.8885189,12.1774801 C30.8961866,14.8348874 30.0853958,17.4310229 28.5649649,19.6172778 C27.2556219,21.4583519 26.115792,23.3923508 24.1810039,24.574239 C22.2303105,25.7608453 19.947875,26.2942063 17.6693605,26.0958838 C17.5037221,26.089148 17.3405337,26.0537715 17.1871247,25.9913434 C16.9121357,25.8268316 16.7049591,25.5705504 16.6025966,25.2682717 C16.0381543,23.8995055 15.8368854,22.4096657 16.0180685,20.9414572 C16.2026323,19.4806828 16.5076117,18.0374336 16.9299324,16.6262584 C17.9791604,12.7001825 18.9757808,8.66085439 18.5753791,4.61862238 C18.4730866,3.66904632 18.2480433,2.97501367 18.3386452,2.02543762 Z" id="Path" fill="#A23405"></path>
                                <path d="M24.2097905,5.30611522 C25.0065557,6.37438158 25.3123253,7.70825514 25.7209982,8.97207845 C26.1296711,10.2359018 26.7265099,11.537669 27.8613857,12.2352527 C28.155395,12.4103784 28.4788052,12.5679914 28.6022891,12.8773801 C28.8169158,13.4290258 28.220077,13.9368901 28.0436714,14.5002109 C27.8672659,15.0635317 28.1318742,15.6852277 28.0642521,16.2777361 C28.028971,16.6046373 27.8907866,16.9169446 27.8319848,17.2438458 C27.7673027,17.6232847 27.8143442,18.0173174 27.7349617,18.3938375 C27.5262151,19.4154037 26.4883624,20.0458559 25.4975511,20.3931884 C24.5067399,20.7405209 23.4189056,20.9769406 22.6486013,21.6716056 C21.8283154,22.421727 21.5343062,23.5687999 21.2814582,24.6487413 L19.7379095,31.2159525 C19.5762044,31.8989425 19.4439002,32.6753328 19.8408127,33.2590849 C22.0870436,36.4230213 23.4659471,40.2144913 23.1601774,44.0584989 C21.2608775,38.8835365 17.4534575,34.6367399 13.4578714,30.8044073 C12.5758436,29.9579667 11.6732352,29.1115262 11.0440553,28.0695287 C9.77099517,25.9709398 9.76805508,23.3207053 10.3648939,20.9419154 C11.4909494,16.461618 14.5016044,12.7139295 16.5390886,8.55177694 C17.0183237,7.5710734 17.4740381,6.50864456 18.3501857,5.86359848 C19.1645914,5.25065877 20.2142045,5.07553314 21.2226563,4.91792007 C22.2810897,4.75738824 23.5806107,4.44799962 24.2097905,5.30611522 Z" id="Path" fill="#F8B79D"></path>
                                <path d="M20.7896349,21.684312 C20.5625497,22.6606662 20.267974,23.6199099 19.9080526,24.5550583 C18.2629569,28.4417609 14.7347194,31.1968201 10.5809125,31.8382479 C7.64230506,32.2635436 2.9758714,33.0610619 0.269413923,34.3221819 C-0.115543655,29.965854 1.10096484,23.7162806 3.65167612,20.1721494 C4.48624064,19.008493 5.60291148,18.02795 6.17887854,16.7166215 C7.21326837,14.3538673 6.26409816,11.6455604 6.38751967,9.0760653 C6.56971333,5.38721541 9.18213537,1.98780291 12.6203061,0.682381254 C14.9711921,-0.221372201 17.9568173,-0.265673841 20.2900716,0.779844861 C21.9885867,1.54183307 22.270693,2.72321013 22.4587639,4.46278786 C23.1052575,10.2781165 22.2236753,16.0432365 20.7896349,21.684312 Z" id="Path" fill="#B53D0A"></path>
                            </g>
                        </g>
                    </g>
                    <path d="M113.094688,22.0162505 L110.995184,25.5735386 C56.2933684,23.3438566 15.7920301,33.640101 12.3154463,53.3567873 C7.68811498,79.5996875 70.4046243,112.593811 152.396691,127.051224 C234.388757,141.508638 304.607653,131.954613 309.234984,105.711713 C311.045951,95.4412087 302.54219,84.1366526 286.605069,73.3138838 C286.479156,71.9946388 286.353873,70.3462618 286.280956,68.5280687 C308.428478,82.1652528 320.650081,96.9694073 318.285558,110.379284 C313.029122,140.190011 237.679748,151.821615 149.988019,136.359197 C62.296291,120.896779 -4.53071756,84.1956437 0.725718009,54.3849162 C4.81560966,31.189988 51.3396198,19.0006635 113.094688,22.0162505 Z M218.941583,40.0702063 C233.991567,44.5248016 247.858691,49.5712026 260.16402,55.0013043 C260.410008,56.4095823 260.640718,57.8419135 260.825715,59.1304565 C249.265535,53.8421579 236.015421,48.8747033 221.493059,44.4461516 C220.732668,42.9915159 219.880889,41.5303913 218.941583,40.0702063 Z" id="Orbit" fill="#85DDDC"></path>
                </g>
                <g id="men" transform="translate(564.000000, 204.000000) scale(-1, 1) translate(-564.000000, -204.000000) translate(522.000000, 113.000000)">
                    <path d="M35.5439739,180.761334 L41.615079,178.759067 C43.2961603,177.504312 42.7582143,176.089377 41.9128706,175.0304 C41.3273923,174.349839 40.4501341,173.940251 39.5113258,173.90913 C39.0992257,173.858389 38.7032267,173.728022 38.3489782,173.526474 C37.9608318,173.331082 37.6308392,173.049839 37.3883603,172.707769 C36.9419617,172.058154 36.699182,171.306413 36.6871092,170.536422 C36.6871092,170.536422 30.020421,168.756628 28.195247,170.536422 C27.8725952,170.864712 27.6010005,171.233126 27.388328,171.630995 C26.7905002,172.882138 26.5016962,174.24113 26.5429842,175.608833 C26.5429842,175.608833 26.206768,177.575504 25.6496096,179.818044 C25.0924512,182.060583 35.5439739,180.761334 35.5439739,180.761334 Z" id="Path" fill="#006D90" fill-rule="nonzero"></path>
                    <path d="M9.91776115,179.337843 L15.9904529,177.328247 C17.6623649,176.074472 17.133887,174.660641 16.2883223,173.602491 C15.7008442,172.925792 14.8236272,172.519898 13.8861499,172.490988 C13.644475,172.462481 13.4083439,172.402613 13.1847156,172.313148 C13.026304,172.25101 12.8722622,172.179734 12.7234985,172.099739 C11.0227604,171.210537 11.0611952,169.112021 11.0611952,169.112021 C11.0611952,169.112021 4.39276466,167.333617 2.56711364,169.112021 C2.32598645,169.360675 2.11345243,169.631857 1.93294013,169.921195 C1.21497212,171.243333 0.864888505,172.710378 0.91441904,174.189364 C0.91441904,174.189364 0.568506217,176.1545 0.0208109121,178.395289 C-0.526884392,180.636078 9.91776115,179.337843 9.91776115,179.337843 Z" id="Path" fill="#006D90" fill-rule="nonzero"></path>
                    <polygon id="Fill-28" fill="#00B2B1" transform="translate(45.180988, 7.933294) rotate(-6.000000) translate(-45.180988, -7.933294) " points="9.64797413 9.68329414 80.7140017 9.68329414 80.7140017 6.18329414 9.64797413 6.18329414"></polygon>
                    <path d="M1.74382842,162.518989 C2.13183443,163.207871 2.46441492,163.927253 2.73834685,164.670161 L2.73834685,170.352503 C4.15794169,172.714734 11.5606877,171.927323 12.5231249,170.63662 C13.4855621,169.345917 14.5763242,165.968982 13.4454605,165.400748 C12.3145968,164.832514 11.3842409,161.950755 11.3842409,161.950755 C11.3842409,161.950755 12.5953077,162.242989 14.5041414,159.9457 C16.4129752,157.64841 15.8515535,152.550538 15.4986598,151.332893 C15.1457662,150.115248 15.4986598,146.023962 15.4986598,146.023962 C15.4986598,146.023962 15.426477,143.150321 15.995919,142.216793 C16.565361,141.283266 17.7684075,135.974335 17.7684075,135.974335 C17.7703515,134.97465 18.122775,134.008109 18.762926,133.246811 C19.7574444,132.313283 20.3669879,128.652231 20.3669879,128.652231 C20.9482845,127.737832 21.1977608,126.647476 21.0727752,125.567532 C20.8642471,123.773535 22.283842,121.841539 22.283842,121.841539 L24.6899349,114.089201 L26.9596826,108.276977 L28.2349119,111.645794 C28.2349119,111.645794 28.5958258,119.544249 28.3070947,121.192128 C28.0183635,122.840008 27.6013074,127.223528 27.6013074,127.223528 C27.6013074,127.223528 29.0209023,130.089052 28.4033384,132.532459 C27.7857745,134.975866 27.978262,140.211738 27.978262,140.211738 C27.978262,140.211738 27.3366372,151.048776 27.9060792,151.909245 C28.4755212,152.769714 28.4033384,154.920886 28.4033384,154.920886 C28.4033384,154.920886 25.4999862,161.236403 26.4223219,162.096872 C27.3446575,162.957341 27.0559263,165.343924 27.0559263,165.343924 C27.0559263,165.343924 25.0749098,165.343924 25.9250627,166.204393 C26.7752155,167.064862 27.40882,171.586383 27.40882,171.586383 L35.9825312,172.592969 C36.7594038,171.450543 37.4051904,170.222277 37.9074056,168.931917 C39.0382693,166.277452 37.6908572,166.561569 36.5519732,166.277452 C35.4130892,165.993335 36.1349171,165.270866 37.4823292,164.410397 C38.8297412,163.549928 38.0437509,161.609814 38.0437509,161.609814 C38.0437509,161.609814 35.9905515,158.09488 36.6963388,157.810763 C37.4021261,157.526646 37.4983698,152.566773 37.4983698,152.566773 C37.4983698,152.566773 38.9099443,146.68149 38.5570507,145.10667 C38.2041571,143.531849 39.6959347,139.72468 39.6959347,139.72468 L40.1931939,135.20316 C41.7118281,132.63048 42.2615099,129.589282 41.7411137,126.639059 L41.7411137,119.674131 C41.7411137,119.674131 43.7301506,106.182628 44.0108614,99.3800534 C44.1953285,95.0127679 44.1391864,89.0544266 44.0830442,85.3365515 C44.0830442,83.2503203 44.0108614,81.870323 44.0108614,81.870323 L13.381298,78.6232705 C13.3350596,80.1713095 13.1498298,81.7118856 12.8278967,83.2259674 C12.5151046,84.9306699 12.0258657,87.130548 11.2238347,89.8905426 C9.891792,94.3624442 9.60080941,99.0857737 10.3736818,103.690516 L10.6543927,113.667084 C10.6543927,113.667084 7.95956857,120.339777 8.52901057,122.596479 C8.86553029,123.959738 9.05378923,125.356149 9.09043226,126.760823 C9.09043226,126.760823 3.06717955,141.323854 3.70880434,145.561257 C4.35042913,149.798661 1.7197675,156.471354 1.7197675,156.471354 C1.7197675,156.471354 1.03804116,161.228285 1.74382842,162.518989 Z" id="Path" fill="#B08814" fill-rule="nonzero"></path>
                    <path d="M7.24438794,13.9995452 L7.77194692,16.5501489 L7.77194692,17.6872601 L7.77194692,18.5243004 L10.7214812,18.8243714 L11.0492072,18.2163327 L11.0492072,18.2163327 C11.7131453,16.9386675 12.4803273,15.715993 13.3432895,14.5602042 C13.8868351,14.1100977 14.8540266,7.01894562 13.6870021,7.45325894 C12.9765775,7.72717107 12.3932136,8.25006311 12.048372,8.92202763 C12.048372,8.92202763 6.1972633,9.56954931 7.24438794,13.9995452 Z" id="Path" fill="#FECDBA" fill-rule="nonzero"></path>
                    <path d="M5.69513325,21.5085296 L10.9772607,23.0957213 L11.096815,22.0844133 L11.3902665,19.2752245 C10.807431,18.271996 9.93796029,17.6122397 8.97606981,17.4433267 C8.01417933,17.2744137 7.04001132,17.6104174 6.27116772,18.376284 L6.01032192,19.7808785 L5.69513325,21.5085296 Z" id="Path" fill="#FFFFFF" fill-rule="nonzero"></path>
                    <path d="M73.7519756,14.8134187 L78.156734,17.4005881 C78.156734,17.4005881 78.3179872,17.0190271 78.5556235,16.4699516 C78.971487,15.5393152 79.5995258,14.0596032 79.769266,13.5384468 C80.0323634,12.7380994 81.8655576,11.6771738 81.8655576,11.6771738 C86.4824914,6.84717061 81.0168566,2.69653199 81.0168566,2.69653199 C78.114299,-3.7248596 74.872261,4.87422131 74.872261,4.87422131 C74.872261,4.87422131 74.4139624,9.39711451 74.7364688,9.70422454 C75.0589752,10.0113346 75.0504882,11.2490811 75.0504882,11.2490811 C74.6316218,12.1482695 74.2769344,13.0817006 73.9896119,14.0409905 C73.8198716,14.5249214 73.7519756,14.8134187 73.7519756,14.8134187 Z" id="Path" fill="#FECDBA" fill-rule="nonzero"></path>
                    <path d="M72.6129489,15.8259687 L78.532493,17.6141556 L78.6541275,16.8353286 L78.7352172,16.293265 C78.7352172,16.293265 75.3091796,14.4863863 74.2955591,14.554923 C73.7845989,14.5999116 73.265816,14.5999116 72.7548558,14.554923 L72.6839024,15.1779847 L72.6129489,15.8259687 Z" id="Path" fill="#FFFFFF" fill-rule="nonzero"></path>
                    <mask id="mask-2" fill="white">
                        <use xlink:href="#path-1"></use>
                    </mask>
                    <use id="Path" fill="#FECDBA" fill-rule="nonzero" xlink:href="#path-1"></use>
                    <path d="M23.0839907,20.1925191 C23.6053957,22.5696046 32.5505912,26.0470581 33.9500714,25.2466908 C34.4851097,23.9105518 35.4985884,21.4010874 36.3064745,20.1925191 C36.3064745,20.1925191 23.0839907,15.508564 23.0839907,20.1925191 Z" id="Path" fill="#F3753F" fill-rule="nonzero" opacity="0.2" mask="url(#mask-2)"></path>
                    <circle id="Oval" fill="#FECDBA" fill-rule="nonzero" cx="32.7470162" cy="14.5530215" r="8.54269987"></circle>
                    <path d="M19.9329664,31.6899726 C19.9329664,31.6899726 40.3573547,33.8972987 36.5438388,32.7128798 C33.8864203,31.8822483 32.8266643,30.2671317 32.6098961,28.4674302 C31.5902823,27.4137589 29.5430264,26.6523467 28.2343884,26.244722 C27.0359065,25.862087 25.7433273,25.8432849 24.5332708,26.1908848 C24.0561672,26.3283433 23.6019918,26.5303481 23.1844905,26.7907853 C22.593904,28.6802419 21.4684395,30.3760194 19.9329664,31.6899726 L19.9329664,31.6899726 Z" id="Path" fill="#000000" fill-rule="nonzero" opacity="0.1"></path>
                    <path d="M2.84756662,80.5324662 C2.84756662,80.5324662 29.6992005,85.0186174 32.5879861,84.1648795 C35.4767716,83.3111416 50.2600694,84.2293126 50.2600694,84.2293126 C56.9233139,88.5785435 54.1421336,82.1674549 54.1421336,82.1674549 C54.4690751,80.1560717 54.393186,78.1021475 53.9186459,76.1188022 C53.3822869,74.1329123 53.0168218,72.1070093 52.8260393,70.0620953 C52.8260393,70.0620953 52.9750312,65.7934057 52.1638536,64.7946934 C51.352676,63.7959811 50.4090612,56.6761289 50.4090612,56.6761289 C50.4090612,56.6761289 49.6806568,51.84365 49.7551527,50.7643964 C49.8296486,49.6851428 49.531665,46.7373307 49.531665,46.7373307 L48.579773,41.7518233 C54.0676377,41.0350056 70.7547197,31.072045 70.7547197,31.072045 C71.5824519,27.7215264 77.7738891,19.8929106 77.7738891,19.8929106 C77.8640536,19.2333806 78.0363855,18.5869815 78.2870831,17.9679732 C78.7257812,16.8323407 72.1453099,14.5530215 72.1453099,14.5530215 C72.1453099,14.5530215 67.2368577,20.3922668 66.218747,21.9547683 C65.2006364,23.5172697 61.6827743,26.4409195 61.6827743,26.4409195 C61.1223695,26.3819012 60.5555413,26.4508442 60.0273098,26.6422727 L59.9445366,26.6422727 L59.9445366,26.6422727 C58.7551557,27.0913046 57.6396978,27.7072581 56.6336077,28.4705606 C54.9884922,28.4268921 53.3897846,29.0041091 52.1721309,30.0813869 C52.1721309,30.0813869 49.1757402,29.6545179 48.6625462,30.1538741 C48.1493522,30.6532302 45.5916596,30.1538741 45.5916596,30.1538741 C45.5916596,30.1538741 43.0256896,24.878418 41.3453932,26.4087029 C39.6650967,27.9389879 32.5548768,27.9148255 32.5548768,27.9148255 C31.6029847,26.6825434 29.2853344,25.7965889 27.836803,25.3455576 C26.6020252,24.9422233 25.2693739,24.9197206 24.0209574,25.2811245 C23.480514,25.4309826 22.9708252,25.6707804 22.5144847,25.9898881 L18.1771677,30.1216575 C18.1771677,30.1216575 16.9355694,28.5108312 17.0845612,28.1967201 C17.233553,27.882609 15.6194751,27.5523896 15.6194751,27.5523896 C15.6194751,27.5523896 13.5004806,26.9161132 12.689303,26.6986517 C11.8781254,26.4811901 11.149721,27.3349281 11.0835024,27.4074152 C11.4091785,26.3979975 11.5328136,25.3371578 11.4477046,24.2824122 C11.385904,23.3500306 11.7007288,22.4310232 12.3251008,21.7211984 C9.76740816,15.5920044 3.98155979,20.7224861 3.98155979,20.7224861 C3.98155979,20.7224861 3.32765132,24.0649507 3.90706389,25.3455576 C4.48647646,26.6261645 3.32765132,29.3726233 3.4683658,30.0491703 C3.60908029,30.7257174 3.17865952,31.9741078 3.17865952,33.3272018 C3.33281143,35.0546631 3.72824485,36.7536162 4.3540393,38.3771423 C4.79273739,39.5208289 8.30232209,42.0820427 8.30232209,42.0820427 C8.30232209,42.0820427 8.51753248,46.1091084 10.0571144,48.5253479 C11.5966964,50.9415873 10.6448043,58.9151774 10.6448043,58.9151774 C10.6448043,58.9151774 9.17971827,65.1812917 7.33387537,67.1787163 C5.48803247,69.1761409 2.84756662,80.5324662 2.84756662,80.5324662 Z" id="Path" fill="#008AB6"></path>
                    <path d="M33.2098675,20.2066781 C33.1410864,20.670039 32.8983534,21.0898935 32.5309452,21.381008 C32.2741018,21.5086342 31.9897451,21.5711201 31.7029911,21.5629464 C29.0452584,21.728345 26.2798917,21.844124 23.8208681,20.8269227 C23.3631636,20.6500703 22.9543946,20.3665324 22.6286142,19.9999298 C22.2610586,19.4149139 22.023861,18.7577368 21.9331327,18.0730363 C21.485622,16.8045427 20.9488732,15.5692428 20.3269018,14.376378 C19.4375945,12.2917648 19.1369325,10.0036662 19.45755,7.76043466 C19.5308352,7.07024719 19.7601544,6.40571093 20.1281928,5.81700131 C20.8319538,4.81633988 22.1152826,4.41111335 23.0425912,3.60893022 C23.9698998,2.80674709 24.5743063,1.58279757 25.6672057,0.987362674 C26.7051031,0.513837346 27.8745638,0.41162833 28.9790221,0.697915153 C31.1528549,1.0638055 33.2358189,1.84436117 35.1141619,2.99695546 C35.6935307,3.46610988 36.4219362,3.71254147 37.1674881,3.69162951 C37.787081,3.48827964 38.3186607,3.07984687 38.6743646,2.53383943 C39.1930476,3.72857646 39.4146195,5.03092819 39.3201688,6.32973692 C39.2870716,6.51850886 39.2870716,6.71159008 39.3201688,6.90036203 C39.408896,7.12916315 39.5474766,7.33538027 39.7258663,7.50406686 C40.37995,8.26490034 40.7856475,9.46404007 40.1398433,10.2331435 C39.8583389,10.5639407 39.4278028,10.7458791 39.1545779,11.0601364 C38.6578055,11.6721112 38.8233963,12.5569936 38.8399554,13.3343669 C38.8651673,13.6060063 38.7949096,13.8779387 38.6412464,14.1034703 C38.3572082,14.37441 37.9494617,14.4722819 37.5731856,14.3598381 C37.2000262,14.2505782 36.8093008,14.214078 36.4223294,14.2523291 C36.0144709,14.3907139 35.6647137,14.661461 35.4287845,15.0214325 C34.332955,16.5751156 33.576917,18.3418526 33.2098675,20.2066781 Z" id="Path" fill="#D45925" fill-rule="nonzero"></path>
                </g>
                <path d="M383,57 C384.925,57 386.5,55.425 386.5,53.5 C386.5,51.575 384.925,50 383,50 C381.075,50 379.5,51.575 379.5,53.5 C379.5,55.425 381.075,57 383,57 Z" id="Path" fill="#2CC0BF"></path>
                <path d="M583,70.9479769 C584.375,70.9479769 585.5,69.8229769 585.5,68.4479769 C585.5,67.0729769 584.375,65.9479769 583,65.9479769 C581.625,65.9479769 580.5,67.0729769 580.5,68.4479769 C580.5,69.8229769 581.625,70.9479769 583,70.9479769 Z" id="Path" fill="#2CC0BF"></path>
                <path d="M295,94.3036602 C296.375,94.3036602 297.5,93.1786602 297.5,91.8036602 C297.5,90.4286602 296.375,89.3036602 295,89.3036602 C293.625,89.3036602 292.5,90.4286602 292.5,91.8036602 C292.5,93.1786602 293.625,94.3036602 295,94.3036602 Z" id="Path" fill="#2CC0BF"></path>
                <path d="M44.5,69.6363329 C46.15,69.6363329 47.5,68.2863329 47.5,66.6363329 C47.5,64.9863329 46.15,63.6363329 44.5,63.6363329 C42.85,63.6363329 41.5,64.9863329 41.5,66.6363329 C41.5,68.2863329 42.85,69.6363329 44.5,69.6363329 Z" id="Path" fill="#2CC0BF"></path>
                <path d="M165.5,46.6061059 C167.7,46.6061059 169.5,44.8061059 169.5,42.6061059 C169.5,40.4061059 167.7,38.6061059 165.5,38.6061059 C163.3,38.6061059 161.5,40.4061059 161.5,42.6061059 C161.5,44.8061059 163.3,46.6061059 165.5,46.6061059 Z" id="Path" fill="#2CC0BF"></path>
            </g>
        </g>
    </g>
</svg>