<?xml version="1.0" encoding="UTF-8"?>
<svg width="789px" height="284px" viewBox="0 0 789 284" version="1.1" xmlns="http://www.w3.org/2000/svg" xmlns:xlink="http://www.w3.org/1999/xlink">
    <!-- Generator: Sketch 64 (93537) - https://sketch.com -->
    <title>illustration-editor</title>
    <desc>Created with Sketch.</desc>
    <defs>
        <circle id="path-1" cx="49.8610318" cy="49.2340262" r="49"></circle>
        <linearGradient x1="99.982811%" y1="50.0000413%" x2="0.0187255522%" y2="50.0000413%" id="linearGradient-3">
            <stop stop-color="#808080" stop-opacity="0.25" offset="0%"></stop>
            <stop stop-color="#808080" stop-opacity="0.12" offset="54%"></stop>
            <stop stop-color="#808080" stop-opacity="0.1" offset="100%"></stop>
        </linearGradient>
        <linearGradient x1="37.8985797%" y1="28.8867188%" x2="68.0751217%" y2="100%" id="linearGradient-4">
            <stop stop-color="#0098C9" offset="0%"></stop>
            <stop stop-color="#008BB8" offset="100%"></stop>
        </linearGradient>
        <path d="M8.34466089,24.7781843 C8.44592582,29.6276796 8.49389934,33.5764559 8.48858145,36.6245133 C10.7470734,40.4020373 19.7934737,41.8647175 25.3348748,38.0090264 C23.6157656,35.6583295 22.0105543,33.6293786 20.1077674,29.0782635 C18.7718688,25.8830404 16.1840491,29.2611095 8.34466089,24.7781843 Z" id="path-5"></path>
    </defs>
    <g id="Page-1" stroke="none" stroke-width="1" fill="none" fill-rule="evenodd">
        <g id="illustration-editor" transform="translate(0.860635, 0.465346)">
            <path d="M201.933784,124.622281 C290.343211,124.622281 366.874303,175.479479 403.867569,249.534385 L1.77635684e-15,249.534385 C36.9932653,175.479479 113.524357,124.622281 201.933784,124.622281 Z" id="Combined-Shape" fill="#005E7D" opacity="0.3"></path>
            <g id="data-bubble" transform="translate(461.139365, 0.000000)">
                <mask id="mask-2" fill="white">
                    <use xlink:href="#path-1"></use>
                </mask>
                <use id="Oval" fill="#005E7D" opacity="0.3" xlink:href="#path-1"></use>
                <path d="M100.997108,112.377905 C102.101678,112.377905 102.997108,113.273336 102.997108,114.377905 C102.997108,115.482475 102.101678,116.377905 100.997108,116.377905 C99.8925389,116.377905 98.9971084,115.482475 98.9971084,114.377905 C98.9971084,113.273336 99.8925389,112.377905 100.997108,112.377905 Z M113.830191,112.377905 C114.93476,112.377905 115.830191,113.273336 115.830191,114.377905 C115.830191,115.482475 114.93476,116.377905 113.830191,116.377905 C112.725621,116.377905 111.830191,115.482475 111.830191,114.377905 C111.830191,113.273336 112.725621,112.377905 113.830191,112.377905 Z M62.497861,112.377905 C63.6024305,112.377905 64.497861,113.273336 64.497861,114.377905 C64.497861,115.482475 63.6024305,116.377905 62.497861,116.377905 C61.3932915,116.377905 60.497861,115.482475 60.497861,114.377905 C60.497861,113.273336 61.3932915,112.377905 62.497861,112.377905 Z M75.3309434,112.377905 C76.4355129,112.377905 77.3309434,113.273336 77.3309434,114.377905 C77.3309434,115.482475 76.4355129,116.377905 75.3309434,116.377905 C74.2263739,116.377905 73.3309434,115.482475 73.3309434,114.377905 C73.3309434,113.273336 74.2263739,112.377905 75.3309434,112.377905 Z M88.1640259,112.377905 C89.2685954,112.377905 90.1640259,113.273336 90.1640259,114.377905 C90.1640259,115.482475 89.2685954,116.377905 88.1640259,116.377905 C87.0594564,116.377905 86.1640259,115.482475 86.1640259,114.377905 C86.1640259,113.273336 87.0594564,112.377905 88.1640259,112.377905 Z M36.831696,112.377905 C37.9362655,112.377905 38.831696,113.273336 38.831696,114.377905 C38.831696,115.482475 37.9362655,116.377905 36.831696,116.377905 C35.7271265,116.377905 34.831696,115.482475 34.831696,114.377905 C34.831696,113.273336 35.7271265,112.377905 36.831696,112.377905 Z M49.6647785,112.377905 C50.769348,112.377905 51.6647785,113.273336 51.6647785,114.377905 C51.6647785,115.482475 50.769348,116.377905 49.6647785,116.377905 C48.560209,116.377905 47.6647785,115.482475 47.6647785,114.377905 C47.6647785,113.273336 48.560209,112.377905 49.6647785,112.377905 Z M11.1655311,112.377905 C12.2701006,112.377905 13.1655311,113.273336 13.1655311,114.377905 C13.1655311,115.482475 12.2701006,116.377905 11.1655311,116.377905 C10.0609616,116.377905 9.16553107,115.482475 9.16553107,114.377905 C9.16553107,113.273336 10.0609616,112.377905 11.1655311,112.377905 Z M23.9986135,112.377905 C25.103183,112.377905 25.9986135,113.273336 25.9986135,114.377905 C25.9986135,115.482475 25.103183,116.377905 23.9986135,116.377905 C22.894044,116.377905 21.9986135,115.482475 21.9986135,114.377905 C21.9986135,113.273336 22.894044,112.377905 23.9986135,112.377905 Z M49.6647785,98.1451304 C50.769348,98.1451304 51.6647785,99.0405609 51.6647785,100.14513 C51.6647785,101.2497 50.769348,102.14513 49.6647785,102.14513 C48.560209,102.14513 47.6647785,101.2497 47.6647785,100.14513 C47.6647785,99.0405609 48.560209,98.1451304 49.6647785,98.1451304 Z M11.1655311,98.1451304 C12.2701006,98.1451304 13.1655311,99.0405609 13.1655311,100.14513 C13.1655311,101.2497 12.2701006,102.14513 11.1655311,102.14513 C10.0609616,102.14513 9.16553107,101.2497 9.16553107,100.14513 C9.16553107,99.0405609 10.0609616,98.1451304 11.1655311,98.1451304 Z M23.9986135,98.1451304 C25.103183,98.1451304 25.9986135,99.0405609 25.9986135,100.14513 C25.9986135,101.2497 25.103183,102.14513 23.9986135,102.14513 C22.894044,102.14513 21.9986135,101.2497 21.9986135,100.14513 C21.9986135,99.0405609 22.894044,98.1451304 23.9986135,98.1451304 Z M100.997108,98.1451304 C102.101678,98.1451304 102.997108,99.0405609 102.997108,100.14513 C102.997108,101.2497 102.101678,102.14513 100.997108,102.14513 C99.8925389,102.14513 98.9971084,101.2497 98.9971084,100.14513 C98.9971084,99.0405609 99.8925389,98.1451304 100.997108,98.1451304 Z M113.830191,98.1451304 C114.93476,98.1451304 115.830191,99.0405609 115.830191,100.14513 C115.830191,101.2497 114.93476,102.14513 113.830191,102.14513 C112.725621,102.14513 111.830191,101.2497 111.830191,100.14513 C111.830191,99.0405609 112.725621,98.1451304 113.830191,98.1451304 Z M62.497861,98.1451304 C63.6024305,98.1451304 64.497861,99.0405609 64.497861,100.14513 C64.497861,101.2497 63.6024305,102.14513 62.497861,102.14513 C61.3932915,102.14513 60.497861,101.2497 60.497861,100.14513 C60.497861,99.0405609 61.3932915,98.1451304 62.497861,98.1451304 Z M75.3309434,98.1451304 C76.4355129,98.1451304 77.3309434,99.0405609 77.3309434,100.14513 C77.3309434,101.2497 76.4355129,102.14513 75.3309434,102.14513 C74.2263739,102.14513 73.3309434,101.2497 73.3309434,100.14513 C73.3309434,99.0405609 74.2263739,98.1451304 75.3309434,98.1451304 Z M88.1640259,98.1451304 C89.2685954,98.1451304 90.1640259,99.0405609 90.1640259,100.14513 C90.1640259,101.2497 89.2685954,102.14513 88.1640259,102.14513 C87.0594564,102.14513 86.1640259,101.2497 86.1640259,100.14513 C86.1640259,99.0405609 87.0594564,98.1451304 88.1640259,98.1451304 Z M36.831696,98.1451304 C37.9362655,98.1451304 38.831696,99.0405609 38.831696,100.14513 C38.831696,101.2497 37.9362655,102.14513 36.831696,102.14513 C35.7271265,102.14513 34.831696,101.2497 34.831696,100.14513 C34.831696,99.0405609 35.7271265,98.1451304 36.831696,98.1451304 Z M100.997108,83.9123554 C102.101678,83.9123554 102.997108,84.8077859 102.997108,85.9123554 C102.997108,87.0169249 102.101678,87.9123554 100.997108,87.9123554 C99.8925389,87.9123554 98.9971084,87.0169249 98.9971084,85.9123554 C98.9971084,84.8077859 99.8925389,83.9123554 100.997108,83.9123554 Z M11.1655311,83.9123554 C12.2701006,83.9123554 13.1655311,84.8077859 13.1655311,85.9123554 C13.1655311,87.0169249 12.2701006,87.9123554 11.1655311,87.9123554 C10.0609616,87.9123554 9.16553107,87.0169249 9.16553107,85.9123554 C9.16553107,84.8077859 10.0609616,83.9123554 11.1655311,83.9123554 Z M23.9986135,83.9123554 C25.103183,83.9123554 25.9986135,84.8077859 25.9986135,85.9123554 C25.9986135,87.0169249 25.103183,87.9123554 23.9986135,87.9123554 C22.894044,87.9123554 21.9986135,87.0169249 21.9986135,85.9123554 C21.9986135,84.8077859 22.894044,83.9123554 23.9986135,83.9123554 Z M75.3309434,83.9123554 C76.4355129,83.9123554 77.3309434,84.8077859 77.3309434,85.9123554 C77.3309434,87.0169249 76.4355129,87.9123554 75.3309434,87.9123554 C74.2263739,87.9123554 73.3309434,87.0169249 73.3309434,85.9123554 C73.3309434,84.8077859 74.2263739,83.9123554 75.3309434,83.9123554 Z M88.1640259,83.9123554 C89.2685954,83.9123554 90.1640259,84.8077859 90.1640259,85.9123554 C90.1640259,87.0169249 89.2685954,87.9123554 88.1640259,87.9123554 C87.0594564,87.9123554 86.1640259,87.0169249 86.1640259,85.9123554 C86.1640259,84.8077859 87.0594564,83.9123554 88.1640259,83.9123554 Z M62.497861,83.9123554 C63.6024305,83.9123554 64.497861,84.8077859 64.497861,85.9123554 C64.497861,87.0169249 63.6024305,87.9123554 62.497861,87.9123554 C61.3932915,87.9123554 60.497861,87.0169249 60.497861,85.9123554 C60.497861,84.8077859 61.3932915,83.9123554 62.497861,83.9123554 Z M36.831696,83.9123554 C37.9362655,83.9123554 38.831696,84.8077859 38.831696,85.9123554 C38.831696,87.0169249 37.9362655,87.9123554 36.831696,87.9123554 C35.7271265,87.9123554 34.831696,87.0169249 34.831696,85.9123554 C34.831696,84.8077859 35.7271265,83.9123554 36.831696,83.9123554 Z M113.830191,83.9123554 C114.93476,83.9123554 115.830191,84.8077859 115.830191,85.9123554 C115.830191,87.0169249 114.93476,87.9123554 113.830191,87.9123554 C112.725621,87.9123554 111.830191,87.0169249 111.830191,85.9123554 C111.830191,84.8077859 112.725621,83.9123554 113.830191,83.9123554 Z M49.6647785,83.9123554 C50.769348,83.9123554 51.6647785,84.8077859 51.6647785,85.9123554 C51.6647785,87.0169249 50.769348,87.9123554 49.6647785,87.9123554 C48.560209,87.9123554 47.6647785,87.0169249 47.6647785,85.9123554 C47.6647785,84.8077859 48.560209,83.9123554 49.6647785,83.9123554 Z M100.997108,69.6795804 C102.101678,69.6795804 102.997108,70.5750109 102.997108,71.6795804 C102.997108,72.7841499 102.101678,73.6795804 100.997108,73.6795804 C99.8925389,73.6795804 98.9971084,72.7841499 98.9971084,71.6795804 C98.9971084,70.5750109 99.8925389,69.6795804 100.997108,69.6795804 Z M113.830191,69.6795804 C114.93476,69.6795804 115.830191,70.5750109 115.830191,71.6795804 C115.830191,72.7841499 114.93476,73.6795804 113.830191,73.6795804 C112.725621,73.6795804 111.830191,72.7841499 111.830191,71.6795804 C111.830191,70.5750109 112.725621,69.6795804 113.830191,69.6795804 Z M62.497861,69.6795804 C63.6024305,69.6795804 64.497861,70.5750109 64.497861,71.6795804 C64.497861,72.7841499 63.6024305,73.6795804 62.497861,73.6795804 C61.3932915,73.6795804 60.497861,72.7841499 60.497861,71.6795804 C60.497861,70.5750109 61.3932915,69.6795804 62.497861,69.6795804 Z M75.3309434,69.6795804 C76.4355129,69.6795804 77.3309434,70.5750109 77.3309434,71.6795804 C77.3309434,72.7841499 76.4355129,73.6795804 75.3309434,73.6795804 C74.2263739,73.6795804 73.3309434,72.7841499 73.3309434,71.6795804 C73.3309434,70.5750109 74.2263739,69.6795804 75.3309434,69.6795804 Z M88.1640259,69.6795804 C89.2685954,69.6795804 90.1640259,70.5750109 90.1640259,71.6795804 C90.1640259,72.7841499 89.2685954,73.6795804 88.1640259,73.6795804 C87.0594564,73.6795804 86.1640259,72.7841499 86.1640259,71.6795804 C86.1640259,70.5750109 87.0594564,69.6795804 88.1640259,69.6795804 Z M36.831696,69.6795804 C37.9362655,69.6795804 38.831696,70.5750109 38.831696,71.6795804 C38.831696,72.7841499 37.9362655,73.6795804 36.831696,73.6795804 C35.7271265,73.6795804 34.831696,72.7841499 34.831696,71.6795804 C34.831696,70.5750109 35.7271265,69.6795804 36.831696,69.6795804 Z M49.6647785,69.6795804 C50.769348,69.6795804 51.6647785,70.5750109 51.6647785,71.6795804 C51.6647785,72.7841499 50.769348,73.6795804 49.6647785,73.6795804 C48.560209,73.6795804 47.6647785,72.7841499 47.6647785,71.6795804 C47.6647785,70.5750109 48.560209,69.6795804 49.6647785,69.6795804 Z M11.1655311,69.6795804 C12.2701006,69.6795804 13.1655311,70.5750109 13.1655311,71.6795804 C13.1655311,72.7841499 12.2701006,73.6795804 11.1655311,73.6795804 C10.0609616,73.6795804 9.16553107,72.7841499 9.16553107,71.6795804 C9.16553107,70.5750109 10.0609616,69.6795804 11.1655311,69.6795804 Z M23.9986135,69.6795804 C25.103183,69.6795804 25.9986135,70.5750109 25.9986135,71.6795804 C25.9986135,72.7841499 25.103183,73.6795804 23.9986135,73.6795804 C22.894044,73.6795804 21.9986135,72.7841499 21.9986135,71.6795804 C21.9986135,70.5750109 22.894044,69.6795804 23.9986135,69.6795804 Z M100.997108,54.9578964 C102.101678,54.9578964 102.997108,55.8533269 102.997108,56.9578964 C102.997108,58.0624659 102.101678,58.9578964 100.997108,58.9578964 C99.8925389,58.9578964 98.9971084,58.0624659 98.9971084,56.9578964 C98.9971084,55.8533269 99.8925389,54.9578964 100.997108,54.9578964 Z M113.830191,54.9578964 C114.93476,54.9578964 115.830191,55.8533269 115.830191,56.9578964 C115.830191,58.0624659 114.93476,58.9578964 113.830191,58.9578964 C112.725621,58.9578964 111.830191,58.0624659 111.830191,56.9578964 C111.830191,55.8533269 112.725621,54.9578964 113.830191,54.9578964 Z M62.497861,54.9578964 C63.6024305,54.9578964 64.497861,55.8533269 64.497861,56.9578964 C64.497861,58.0624659 63.6024305,58.9578964 62.497861,58.9578964 C61.3932915,58.9578964 60.497861,58.0624659 60.497861,56.9578964 C60.497861,55.8533269 61.3932915,54.9578964 62.497861,54.9578964 Z M75.3309434,54.9578964 C76.4355129,54.9578964 77.3309434,55.8533269 77.3309434,56.9578964 C77.3309434,58.0624659 76.4355129,58.9578964 75.3309434,58.9578964 C74.2263739,58.9578964 73.3309434,58.0624659 73.3309434,56.9578964 C73.3309434,55.8533269 74.2263739,54.9578964 75.3309434,54.9578964 Z M88.1640259,54.9578964 C89.2685954,54.9578964 90.1640259,55.8533269 90.1640259,56.9578964 C90.1640259,58.0624659 89.2685954,58.9578964 88.1640259,58.9578964 C87.0594564,58.9578964 86.1640259,58.0624659 86.1640259,56.9578964 C86.1640259,55.8533269 87.0594564,54.9578964 88.1640259,54.9578964 Z M36.831696,54.9578964 C37.9362655,54.9578964 38.831696,55.8533269 38.831696,56.9578964 C38.831696,58.0624659 37.9362655,58.9578964 36.831696,58.9578964 C35.7271265,58.9578964 34.831696,58.0624659 34.831696,56.9578964 C34.831696,55.8533269 35.7271265,54.9578964 36.831696,54.9578964 Z M49.6647785,54.9578964 C50.769348,54.9578964 51.6647785,55.8533269 51.6647785,56.9578964 C51.6647785,58.0624659 50.769348,58.9578964 49.6647785,58.9578964 C48.560209,58.9578964 47.6647785,58.0624659 47.6647785,56.9578964 C47.6647785,55.8533269 48.560209,54.9578964 49.6647785,54.9578964 Z M11.1655311,54.9578964 C12.2701006,54.9578964 13.1655311,55.8533269 13.1655311,56.9578964 C13.1655311,58.0624659 12.2701006,58.9578964 11.1655311,58.9578964 C10.0609616,58.9578964 9.16553107,58.0624659 9.16553107,56.9578964 C9.16553107,55.8533269 10.0609616,54.9578964 11.1655311,54.9578964 Z M23.9986135,54.9578964 C25.103183,54.9578964 25.9986135,55.8533269 25.9986135,56.9578964 C25.9986135,58.0624659 25.103183,58.9578964 23.9986135,58.9578964 C22.894044,58.9578964 21.9986135,58.0624659 21.9986135,56.9578964 C21.9986135,55.8533269 22.894044,54.9578964 23.9986135,54.9578964 Z M100.997108,40.7251214 C102.101678,40.7251214 102.997108,41.6205519 102.997108,42.7251214 C102.997108,43.8296909 102.101678,44.7251214 100.997108,44.7251214 C99.8925389,44.7251214 98.9971084,43.8296909 98.9971084,42.7251214 C98.9971084,41.6205519 99.8925389,40.7251214 100.997108,40.7251214 Z M113.830191,40.7251214 C114.93476,40.7251214 115.830191,41.6205519 115.830191,42.7251214 C115.830191,43.8296909 114.93476,44.7251214 113.830191,44.7251214 C112.725621,44.7251214 111.830191,43.8296909 111.830191,42.7251214 C111.830191,41.6205519 112.725621,40.7251214 113.830191,40.7251214 Z M62.497861,40.7251214 C63.6024305,40.7251214 64.497861,41.6205519 64.497861,42.7251214 C64.497861,43.8296909 63.6024305,44.7251214 62.497861,44.7251214 C61.3932915,44.7251214 60.497861,43.8296909 60.497861,42.7251214 C60.497861,41.6205519 61.3932915,40.7251214 62.497861,40.7251214 Z M75.3309434,40.7251214 C76.4355129,40.7251214 77.3309434,41.6205519 77.3309434,42.7251214 C77.3309434,43.8296909 76.4355129,44.7251214 75.3309434,44.7251214 C74.2263739,44.7251214 73.3309434,43.8296909 73.3309434,42.7251214 C73.3309434,41.6205519 74.2263739,40.7251214 75.3309434,40.7251214 Z M88.1640259,40.7251214 C89.2685954,40.7251214 90.1640259,41.6205519 90.1640259,42.7251214 C90.1640259,43.8296909 89.2685954,44.7251214 88.1640259,44.7251214 C87.0594564,44.7251214 86.1640259,43.8296909 86.1640259,42.7251214 C86.1640259,41.6205519 87.0594564,40.7251214 88.1640259,40.7251214 Z M36.831696,40.7251214 C37.9362655,40.7251214 38.831696,41.6205519 38.831696,42.7251214 C38.831696,43.8296909 37.9362655,44.7251214 36.831696,44.7251214 C35.7271265,44.7251214 34.831696,43.8296909 34.831696,42.7251214 C34.831696,41.6205519 35.7271265,40.7251214 36.831696,40.7251214 Z M49.6647785,40.7251214 C50.769348,40.7251214 51.6647785,41.6205519 51.6647785,42.7251214 C51.6647785,43.8296909 50.769348,44.7251214 49.6647785,44.7251214 C48.560209,44.7251214 47.6647785,43.8296909 47.6647785,42.7251214 C47.6647785,41.6205519 48.560209,40.7251214 49.6647785,40.7251214 Z M11.1655311,40.7251214 C12.2701006,40.7251214 13.1655311,41.6205519 13.1655311,42.7251214 C13.1655311,43.8296909 12.2701006,44.7251214 11.1655311,44.7251214 C10.0609616,44.7251214 9.16553107,43.8296909 9.16553107,42.7251214 C9.16553107,41.6205519 10.0609616,40.7251214 11.1655311,40.7251214 Z M23.9986135,40.7251214 C25.103183,40.7251214 25.9986135,41.6205519 25.9986135,42.7251214 C25.9986135,43.8296909 25.103183,44.7251214 23.9986135,44.7251214 C22.894044,44.7251214 21.9986135,43.8296909 21.9986135,42.7251214 C21.9986135,41.6205519 22.894044,40.7251214 23.9986135,40.7251214 Z M100.997108,26.4923464 C102.101678,26.4923464 102.997108,27.3877769 102.997108,28.4923464 C102.997108,29.5969159 102.101678,30.4923464 100.997108,30.4923464 C99.8925389,30.4923464 98.9971084,29.5969159 98.9971084,28.4923464 C98.9971084,27.3877769 99.8925389,26.4923464 100.997108,26.4923464 Z M113.830191,26.4923464 C114.93476,26.4923464 115.830191,27.3877769 115.830191,28.4923464 C115.830191,29.5969159 114.93476,30.4923464 113.830191,30.4923464 C112.725621,30.4923464 111.830191,29.5969159 111.830191,28.4923464 C111.830191,27.3877769 112.725621,26.4923464 113.830191,26.4923464 Z M62.497861,26.4923464 C63.6024305,26.4923464 64.497861,27.3877769 64.497861,28.4923464 C64.497861,29.5969159 63.6024305,30.4923464 62.497861,30.4923464 C61.3932915,30.4923464 60.497861,29.5969159 60.497861,28.4923464 C60.497861,27.3877769 61.3932915,26.4923464 62.497861,26.4923464 Z M75.3309434,26.4923464 C76.4355129,26.4923464 77.3309434,27.3877769 77.3309434,28.4923464 C77.3309434,29.5969159 76.4355129,30.4923464 75.3309434,30.4923464 C74.2263739,30.4923464 73.3309434,29.5969159 73.3309434,28.4923464 C73.3309434,27.3877769 74.2263739,26.4923464 75.3309434,26.4923464 Z M88.1640259,26.4923464 C89.2685954,26.4923464 90.1640259,27.3877769 90.1640259,28.4923464 C90.1640259,29.5969159 89.2685954,30.4923464 88.1640259,30.4923464 C87.0594564,30.4923464 86.1640259,29.5969159 86.1640259,28.4923464 C86.1640259,27.3877769 87.0594564,26.4923464 88.1640259,26.4923464 Z M36.831696,26.4923464 C37.9362655,26.4923464 38.831696,27.3877769 38.831696,28.4923464 C38.831696,29.5969159 37.9362655,30.4923464 36.831696,30.4923464 C35.7271265,30.4923464 34.831696,29.5969159 34.831696,28.4923464 C34.831696,27.3877769 35.7271265,26.4923464 36.831696,26.4923464 Z M49.6647785,26.4923464 C50.769348,26.4923464 51.6647785,27.3877769 51.6647785,28.4923464 C51.6647785,29.5969159 50.769348,30.4923464 49.6647785,30.4923464 C48.560209,30.4923464 47.6647785,29.5969159 47.6647785,28.4923464 C47.6647785,27.3877769 48.560209,26.4923464 49.6647785,26.4923464 Z M11.1655311,26.4923464 C12.2701006,26.4923464 13.1655311,27.3877769 13.1655311,28.4923464 C13.1655311,29.5969159 12.2701006,30.4923464 11.1655311,30.4923464 C10.0609616,30.4923464 9.16553107,29.5969159 9.16553107,28.4923464 C9.16553107,27.3877769 10.0609616,26.4923464 11.1655311,26.4923464 Z M23.9986135,26.4923464 C25.103183,26.4923464 25.9986135,27.3877769 25.9986135,28.4923464 C25.9986135,29.5969159 25.103183,30.4923464 23.9986135,30.4923464 C22.894044,30.4923464 21.9986135,29.5969159 21.9986135,28.4923464 C21.9986135,27.3877769 22.894044,26.4923464 23.9986135,26.4923464 Z M100.997108,12.2595714 C102.101678,12.2595714 102.997108,13.1550019 102.997108,14.2595714 C102.997108,15.3641409 102.101678,16.2595714 100.997108,16.2595714 C99.8925389,16.2595714 98.9971084,15.3641409 98.9971084,14.2595714 C98.9971084,13.1550019 99.8925389,12.2595714 100.997108,12.2595714 Z M113.830191,12.2595714 C114.93476,12.2595714 115.830191,13.1550019 115.830191,14.2595714 C115.830191,15.3641409 114.93476,16.2595714 113.830191,16.2595714 C112.725621,16.2595714 111.830191,15.3641409 111.830191,14.2595714 C111.830191,13.1550019 112.725621,12.2595714 113.830191,12.2595714 Z M62.497861,12.2595714 C63.6024305,12.2595714 64.497861,13.1550019 64.497861,14.2595714 C64.497861,15.3641409 63.6024305,16.2595714 62.497861,16.2595714 C61.3932915,16.2595714 60.497861,15.3641409 60.497861,14.2595714 C60.497861,13.1550019 61.3932915,12.2595714 62.497861,12.2595714 Z M75.3309434,12.2595714 C76.4355129,12.2595714 77.3309434,13.1550019 77.3309434,14.2595714 C77.3309434,15.3641409 76.4355129,16.2595714 75.3309434,16.2595714 C74.2263739,16.2595714 73.3309434,15.3641409 73.3309434,14.2595714 C73.3309434,13.1550019 74.2263739,12.2595714 75.3309434,12.2595714 Z M88.1640259,12.2595714 C89.2685954,12.2595714 90.1640259,13.1550019 90.1640259,14.2595714 C90.1640259,15.3641409 89.2685954,16.2595714 88.1640259,16.2595714 C87.0594564,16.2595714 86.1640259,15.3641409 86.1640259,14.2595714 C86.1640259,13.1550019 87.0594564,12.2595714 88.1640259,12.2595714 Z M36.831696,12.2595714 C37.9362655,12.2595714 38.831696,13.1550019 38.831696,14.2595714 C38.831696,15.3641409 37.9362655,16.2595714 36.831696,16.2595714 C35.7271265,16.2595714 34.831696,15.3641409 34.831696,14.2595714 C34.831696,13.1550019 35.7271265,12.2595714 36.831696,12.2595714 Z M49.6647785,12.2595714 C50.769348,12.2595714 51.6647785,13.1550019 51.6647785,14.2595714 C51.6647785,15.3641409 50.769348,16.2595714 49.6647785,16.2595714 C48.560209,16.2595714 47.6647785,15.3641409 47.6647785,14.2595714 C47.6647785,13.1550019 48.560209,12.2595714 49.6647785,12.2595714 Z M11.1655311,12.2595714 C12.2701006,12.2595714 13.1655311,13.1550019 13.1655311,14.2595714 C13.1655311,15.3641409 12.2701006,16.2595714 11.1655311,16.2595714 C10.0609616,16.2595714 9.16553107,15.3641409 9.16553107,14.2595714 C9.16553107,13.1550019 10.0609616,12.2595714 11.1655311,12.2595714 Z M23.9986135,12.2595714 C25.103183,12.2595714 25.9986135,13.1550019 25.9986135,14.2595714 C25.9986135,15.3641409 25.103183,16.2595714 23.9986135,16.2595714 C22.894044,16.2595714 21.9986135,15.3641409 21.9986135,14.2595714 C21.9986135,13.1550019 22.894044,12.2595714 23.9986135,12.2595714 Z" id="Combined-Shape" fill="#006D90" mask="url(#mask-2)"></path>
            </g>
            <g id="db" transform="translate(239.956498, 78.775083)">
                <path d="M69.8471657,126.131712 C74.6250004,128.168563 79.6009058,130.145452 84.7573414,132.052363 C91.7720091,143.886252 104.999785,156.449838 122.14823,166.350497 C153.131743,184.238836 185.244198,186.696507 194.39287,172.004949 L194.663048,171.554499 L182.756569,192.177126 C173.986571,207.367209 141.538228,205.042153 110.241751,186.973123 C79.2582377,169.084783 61.0736044,142.503417 69.2225311,127.234656 L69.4775427,126.775449 Z M99.037379,137.001542 C117.521743,142.999179 137.891061,148.09389 159.466922,151.898296 C174.317685,154.516886 188.840381,156.36554 202.783922,157.487296 L199.181627,163.728092 C190.411628,178.918175 157.963286,176.593119 126.666808,158.524089 C115.713041,152.199928 106.358971,144.789251 99.2026592,137.176052 Z M114.533595,48.7360774 C105.763596,63.9261608 124.001325,90.8647211 155.297803,108.933751 C180.691678,123.594911 206.8439,127.890784 220.490276,120.875219 C220.759241,120.737327 221.023534,120.594531 221.28286,120.447329 C222.667121,119.661446 223.910441,118.74978 224.996606,117.711299 C225.294153,117.426851 225.579711,117.133044 225.853173,116.829715 C226.491555,116.121676 227.064322,115.361249 227.567091,114.548492 L227.812622,114.137754 L215.906143,134.76038 C214.758702,136.747807 213.205926,138.435403 211.303429,139.827136 C210.285709,140.571793 209.16788,141.2318 207.95846,141.807759 C192.857673,140.67768 176.915823,138.693229 160.523926,135.802895 C157.768141,135.316976 155.033065,134.811347 152.320359,134.286876 C149.347379,132.855049 146.362346,131.279948 143.387752,129.562565 C116.139304,113.830666 98.7926286,91.3706099 100.549232,75.7982926 C100.792667,73.6395849 101.403469,71.6126352 102.40623,69.7543197 L102.627116,69.3587039 L114.533595,48.7360774 Z M97.8090791,77.7037889 C90.5574351,90.2640049 101.771328,110.856808 123.564822,127.825985 C109.927791,124.31539 97.1189004,120.34811 85.3985491,116.060375 C83.1272747,109.590455 83.0670486,103.620817 85.6475886,98.7856218 L85.9026002,98.3264153 L97.8090791,77.7037889 Z M130.410687,21.2361484 C121.640688,36.4262318 139.874845,63.3709795 171.171322,81.4400094 C202.154835,99.3283489 234.270792,101.779956 243.419533,87.0882765 L243.689713,86.6378249 L231.783234,107.260451 C223.013235,122.450535 190.561321,120.131666 159.264843,102.062636 C128.28133,84.1742963 110.100198,57.5868657 118.249195,42.3179831 L118.504208,41.8587749 L124.890879,30.7941945 L125.136972,30.8093878 C125.108671,30.7095352 125.080777,30.6097612 125.053293,30.5100675 L130.410687,21.2361484 Z M81.3798792,106.159195 C80.0659705,108.435754 79.3579527,110.984053 79.2126157,113.727727 C78.6090384,113.494067 78.0108147,113.259609 77.4158332,113.024336 L81.3798792,106.159195 Z M207.560696,18.4117653 C238.857174,36.4807952 257.094903,63.4193555 248.321332,78.6156263 C239.551333,93.8057097 207.102991,91.4806532 175.806513,73.4116234 C144.510035,55.3425935 126.272306,28.4040332 135.042305,13.2139498 C143.815876,-1.98232101 176.264218,0.342735501 207.560696,18.4117653 Z" id="Combined-Shape" fill="#008AB6" transform="translate(158.900201, 102.692977) rotate(-2.000000) translate(-158.900201, -102.692977) "></path>
                <path d="M120.554889,25.0101423 L116.702257,31.7365765 C61.71883,30.5127126 21.4345224,41.2768973 18.3515951,60.7417342 C14.2045693,86.9250242 78.9420232,118.936641 162.946745,132.241682 C246.951467,145.546723 318.412578,135.106839 322.559604,108.923549 C325.356958,91.2617541 296.811161,70.9480097 252.150964,55.5126851 C251.303421,53.4044902 250.288054,51.2715439 249.112224,49.1293124 C305.748203,68.4088176 342.715014,95.5622353 338.616998,118.803238 C333.030635,150.485081 253.249763,162.899291 160.421434,146.531152 C67.5931052,130.163013 -3.13048121,91.2108061 2.45588254,59.528963 C6.78274894,34.9900842 55.6198935,22.0101164 120.554889,25.0101423 Z" id="Combined-Shape" fill="#84CCE3" transform="translate(170.536440, 89.166100) rotate(-2.000000) translate(-170.536440, -89.166100) "></path>
            </g>
            <g id="men-with-chart" transform="translate(590.534722, 34.433991)">
                <g id="chart" transform="translate(0.554105, 0.000000)">
                    <polyline id="Path" stroke="#008AB6" stroke-width="2" stroke-linecap="round" points="6.59975824 58.4498667 35.7826517 34.5853048 63.4519654 48.7453002 91.1212792 5.29545125 122.897178 36.7219725"></polyline>
                    <path d="M7.09975824,51.2800919 C10.6896091,51.2800919 13.5997582,54.190241 13.5997582,57.7800919 C13.5997582,61.3699428 10.6896091,64.2800919 7.09975824,64.2800919 C3.50990736,64.2800919 0.599758236,61.3699428 0.599758236,57.7800919 C0.599758236,54.190241 3.50990736,51.2800919 7.09975824,51.2800919 Z M63.1114257,41.749132 C66.7012766,41.749132 69.6114257,44.6592811 69.6114257,48.249132 C69.6114257,51.8389828 66.7012766,54.749132 63.1114257,54.749132 C59.5215748,54.749132 56.6114257,51.8389828 56.6114257,48.249132 C56.6114257,44.6592811 59.5215748,41.749132 63.1114257,41.749132 Z M166.592652,29.749132 C170.182503,29.749132 173.092652,32.6592811 173.092652,36.249132 C173.092652,39.8389828 170.182503,42.749132 166.592652,42.749132 C163.002801,42.749132 160.092652,39.8389828 160.092652,36.249132 C160.092652,32.6592811 163.002801,29.749132 166.592652,29.749132 Z M36.6114257,28.749132 C40.2012766,28.749132 43.1114257,31.6592811 43.1114257,35.249132 C43.1114257,38.8389828 40.2012766,41.749132 36.6114257,41.749132 C33.0215748,41.749132 30.1114257,38.8389828 30.1114257,35.249132 C30.1114257,31.6592811 33.0215748,28.749132 36.6114257,28.749132 Z M92.6114257,0.0346540418 C96.2012766,0.0346540418 99.1114257,2.94480317 99.1114257,6.53465404 C99.1114257,10.1245049 96.2012766,13.034654 92.6114257,13.034654 C89.0215748,13.034654 86.1114257,10.1245049 86.1114257,6.53465404 C86.1114257,2.94480317 89.0215748,0.0346540418 92.6114257,0.0346540418 Z" id="Combined-Shape" fill="#008AB6"></path>
                </g>
                <path d="M13.2478252,128.324408 C13.7402841,128.324408 14.2125732,128.578981 14.5607942,129.032125 C14.9090152,129.48527 15.1046438,130.099865 15.1046438,130.740707 L15.1044921,216.033376 L3.10464379,216.033376 L3.10479548,130.740707 C3.10479548,129.406222 3.9361215,128.324408 4.96161412,128.324408 L13.2478252,128.324408 Z M42.379085,149.966999 C43.4045647,149.966999 44.2358802,151.048814 44.2358802,152.383299 L44.2355768,216.033376 L32.2358802,216.033376 L32.2361836,152.383299 C32.2361836,151.048814 33.0674991,149.966999 34.0929787,149.966999 L42.379085,149.966999 Z M71.4944,88.6006634 C72.5198667,88.6006634 73.3511717,89.6824775 73.3511717,91.0169629 L73.3507167,216.033376 L61.3511717,216.033376 L61.3516268,91.0169629 C61.3516268,89.6824775 62.1829318,88.6006634 63.2083985,88.6006634 L71.4944,88.6006634 Z M100.626063,137.319016 C101.651517,137.319016 102.482811,138.21499 102.482811,139.320229 L102.482205,216.033376 L90.4828113,216.033376 L90.483418,139.320229 C90.483418,138.21499 91.3147125,137.319016 92.3401662,137.319016 L100.626063,137.319016 Z" id="Shape" fill="#006D90" opacity="0.6"></path>
                <g id="men" transform="translate(120.665531, 29.534654)">
                    <path d="M0.0788551126,8.58654278 C0.169249009,9.43967279 0.507973749,10.2475313 1.05305757,10.9100156 C1.75935435,11.7088617 2.81636402,12.0741876 3.76621142,12.5515468 C6.22436408,13.8097128 8.10194481,15.9682326 9.00742064,18.576989 C10.6294677,23.3116129 10.8389213,28.3190136 12.9042305,32.8880231 C14.9695397,37.4570326 17.3953038,41.8458147 19.1780943,46.5268575 C20.1912649,49.1815592 20.9998529,51.9434232 22.4855117,54.3594453 C23.2047546,55.5476667 24.1224391,56.6037452 25.1986655,57.4817642 C25.0866322,59.1963605 25.0427931,60.8914728 25.0525351,62.6060691 C25.721547,62.592882 26.3505233,62.9239221 26.7184213,63.4828513 C27.0788851,64.0381896 27.3271067,64.6587436 27.4490732,65.3094809 C28.1164019,68.0713449 27.2932008,71.0134363 27.8923353,73.7899133 C29.5383594,81.5130308 29.0328955,89.5397976 26.4310316,96.9954159 C25.7637029,98.8853686 24.9258888,105.139748 25.6370566,107.015088 C28.2868873,106.747182 30.6347152,108.374101 33.1140605,109.450594 C33.3145266,110.920094 33.1948889,112.415566 32.7633476,113.834505 C31.8719523,116.401529 31.8768233,119.192619 31.8914364,121.905773 L32.0132117,142.003569 C32.0132117,144.551109 32.0473088,147.132745 32.6854114,149.602349 C33.4111922,152.383697 34.9358191,155.218626 34.8871089,158.092523 C34.7555916,164.278709 37.678199,170.172634 37.4443904,176.310109 C37.4005513,177.488894 37.2398079,178.657937 37.1277746,179.82698 C36.8401097,182.941233 36.9185817,186.078475 37.3615832,189.174452 C38.2481074,195.341154 40.5910643,201.405564 40.0065429,207.606363 C39.9675748,208.02527 39.8263154,208.580565 39.4317634,208.741309 C39.9188646,209.291733 40.4351919,209.837287 40.9612613,210.358485 C40.8548108,210.535982 40.7100191,210.687431 40.5374832,210.801747 C39.9619025,211.102337 39.3257924,211.268858 38.6767565,211.288848 C37.9152733,211.308826 37.1759017,211.54908 36.5481241,211.980532 C36.0917968,212.418351 35.7821257,212.986649 35.6615999,213.60745 C35.31091,214.848804 35.5247284,216.181605 36.2461214,217.250967 C36.6810468,217.798461 37.2497719,218.224586 37.8973945,218.488204 C40.1478022,219.462407 42.7294387,218.75611 45.0772667,218.044942 L54.2737379,215.258723 C54.8346803,215.142208 55.3523259,214.872425 55.7691386,214.479361 C55.9598405,214.254081 56.0860714,213.981422 56.1344646,213.690257 C58.1656767,214.177359 60.3966003,213.578224 62.4667805,212.959605 L71.6632517,210.168515 C72.2249817,210.054215 72.7432042,209.784132 73.1586525,209.389153 C73.493773,208.981562 73.6311172,208.446454 73.5337205,207.92785 C73.6019146,207.898624 73.6701088,207.87914 73.738303,207.845043 C74.4397288,207.528427 75.1996067,206.909808 75.0291212,206.164543 C74.9073459,205.677442 74.4202447,205.394923 74.2107912,204.94679 C74.0102991,204.3538 74.1401592,203.698934 74.551762,203.227323 C74.9122169,202.740222 75.3993182,202.335928 75.730547,201.824471 C76.7924277,200.197553 76.0715179,198.059179 75.6720949,196.154613 C74.8099257,192.087318 75.6087717,187.839795 75.0632183,183.718919 C74.8781199,182.33068 74.54202,180.966797 74.2741143,179.5883 C73.7064191,176.330116 73.3307034,173.041384 73.1489105,169.739113 C72.7981976,165.023974 71.4878953,160.377028 72.2380312,155.700856 C72.6023013,152.956368 72.7569974,150.188121 72.7007774,147.420135 C72.753775,145.656845 72.6772569,143.892043 72.4718398,142.139958 C72.2818703,140.834526 71.9457705,139.55345 71.7996401,138.243148 C71.6810824,136.770314 71.6550525,135.291492 71.7217039,133.815398 C71.7888678,130.524908 71.4849467,127.237332 70.8156956,124.014921 C69.8414931,119.587171 68.0099925,115.34939 67.2306306,110.911898 C67.4936652,110.97035 67.7566999,111.028802 68.0099925,111.096996 C68.0392186,107.687288 65.0532881,100.273607 63.9475683,97.039255 C63.7857123,96.6430757 63.6870902,96.2239316 63.6553075,95.7971468 C63.7221607,95.2342981 63.8246578,94.6762581 63.9621813,94.1263896 C64.1034407,92.9476046 63.4750801,91.8272718 63.3045947,90.6484868 C63.2381767,89.8192974 63.2989551,88.984827 63.4848221,88.1740126 C64.2690551,83.8144566 65.2432575,79.4889977 66.21746,75.1684098 C66.6422149,73.6035674 66.7889488,71.9763051 66.6509801,70.3607207 C66.4219197,68.6283638 66.9549611,66.8817647 68.1122838,65.5725156 C68.5402778,65.177627 68.9049957,64.7192653 69.1936485,64.2135031 C69.3556424,63.779492 69.4285341,63.3172919 69.4079731,62.8544907 C69.3886268,60.8508474 69.0935976,58.8594007 68.5311908,56.9362108 C69.388489,55.3823579 69.7051048,53.472921 69.9535264,51.6706465 C70.4990798,47.6910295 71.0446332,43.6919284 71.0251491,39.6733432 C71.068549,37.5295477 70.772633,35.3923767 70.1483669,33.3410272 C69.692363,32.0741265 69.1352741,30.8459247 68.4824807,29.668284 C65.9203283,24.7339485 63.4702091,19.5414494 60.2358569,15.02115 C59.2616545,13.6475245 59.875402,11.7527008 59.9435962,10.0575885 C60.0166614,8.01176333 59.2080733,6.04874537 58.4140983,4.16853463 C58.0090343,3.01135415 57.3874802,1.94181816 56.5825977,1.01698968 C56.0324447,0.411484564 55.2572992,0.0591456812 54.4393523,0.0427872188 C53.5114048,0.156164924 52.6781172,0.666087202 52.1548475,1.44076775 C50.9649984,3.06151854 50.4722046,5.09056621 50.7860931,7.07652897 C51.1096912,9.04467222 51.9672924,10.8862401 53.2654383,12.4005454 C53.8924841,13.1625145 54.6106396,13.8446803 55.4038127,14.4317575 C56.2091534,16.9906627 57.0209888,19.5479441 57.8393189,22.1036019 C59.1252661,26.1708971 60.4112134,30.2576765 62.2232299,34.1057762 C62.7541703,35.221238 63.3386917,36.3561838 63.4020149,37.58855 C63.4702091,38.9183363 62.9149137,40.1847995 62.4716516,41.4366497 C61.5378223,44.045809 61.008875,46.7825361 60.9031856,49.5517561 C60.7607836,49.6148963 60.6239173,49.6898469 60.4940206,49.7758227 C58.9596517,50.7792512 58.4774215,52.9663358 56.8797294,53.862602 C55.9493661,54.3838003 54.8192912,54.3497033 53.7768946,54.5883829 C53.6843454,54.5883829 53.5917961,54.637093 53.4943759,54.6663191 C53.4554078,54.4714786 53.4164397,54.2815091 53.3920846,54.0817976 C53.3771292,53.9572222 53.3771292,53.831305 53.3920846,53.7067296 C55.8757712,52.3411765 57.9621281,50.3538503 59.4467529,47.9394511 C59.7595776,47.4923168 60.0011305,46.9993517 60.1627917,46.4781474 C60.2942637,45.8535871 60.3189683,45.2112661 60.2358569,44.5784526 C60.1544944,42.466327 59.8524727,40.3685008 59.3347196,38.3192018 C58.815046,36.2599971 57.6779425,34.4090169 56.0760124,33.0146694 C55.2771664,32.3716958 54.3565451,31.8894656 53.5625701,31.2416209 C52.0135882,29.9897708 50.9517075,28.1387861 49.178659,27.2084228 C46.8477492,26.0732187 44.0374503,26.8000558 42.5492113,28.9230191 C42.3133559,29.398253 41.9816598,29.819507 41.5750088,30.1602562 C41.2648575,30.3069884 40.9624555,30.4695701 40.6690005,30.6473574 C40.1331892,31.0760065 40.1039631,31.8992076 40.2793196,32.5665363 C40.6117,33.9377387 40.7978378,35.3403032 40.834615,36.7507358 C37.5879174,40.5608362 37.5755507,46.1608736 40.8053889,49.9852762 C40.8053889,50.8912845 40.8053889,51.7972928 40.7712918,52.7033011 C40.7712918,52.8737865 40.7712918,53.049143 40.7371947,53.2196284 C40.1754482,53.0238944 39.6726249,52.6886789 39.275891,52.2454259 C38.7303376,51.5634842 38.6329174,50.5600557 37.9655887,49.9998893 C37.4857043,49.6834994 36.9386581,49.4833606 36.3678967,49.4153678 C34.9493352,49.093094 33.6189883,48.4628421 32.4710868,47.5692541 C31.5699496,46.8726994 30.6347152,45.9813041 29.5825766,45.7767216 C27.7670793,42.3712739 25.6476968,39.1367702 23.2502606,36.1126332 C22.6422422,35.3967525 22.0886484,34.6363751 21.5941164,33.8378705 C20.5468488,32.0112409 20.235104,29.8631245 19.5726463,27.8611384 C17.7216616,22.2497323 13.103942,17.7489169 11.9787381,11.9426702 C11.5695731,9.83839294 10.2349157,8.00689231 9.31916543,6.06822942 C8.70054687,4.75792712 8.01860515,3.37455963 6.78136803,2.62442373 C5.18854701,1.65022127 2.98684945,2.09835441 1.66193411,3.40865671 C0.362265265,4.79714183 -0.222161395,6.70866656 0.0788551126,8.58654278 L0.0788551126,8.58654278 Z M57.912384,205.711539 C57.3368034,206.012129 56.7006932,206.17865 56.0516574,206.19864 C55.7243115,206.232701 55.3990864,206.284737 55.0774549,206.354513 C54.9556796,205.3316 54.8874854,204.294075 54.8095492,203.285775 C54.5513856,199.978358 54.0350583,196.695295 53.523602,193.417104 C52.9877906,190.007396 52.734498,186.2762 51.5751971,183.00288 C49.7095993,177.673992 47.8196466,172.184362 48.0583262,166.538858 C48.1119073,165.257782 48.2726507,163.986448 48.3408449,162.710243 C48.4967173,159.548956 48.0534552,156.319475 48.8279461,153.245866 C49.173788,151.847885 49.7631805,150.513228 49.987247,149.090892 C50.130164,147.806408 50.1464792,146.510985 50.0359572,145.223309 C49.8230701,140.75337 50.1947859,136.274769 51.141677,131.90109 C52.0476852,133.084746 52.344817,134.614244 52.6029806,136.080418 L54.4296103,145.988057 C55.515846,151.867369 56.4754354,158.102265 59.3542037,163.333732 C58.9499097,165.218814 58.5504867,167.230542 59.2178153,169.032817 C59.5052051,169.812179 59.9776933,170.49412 60.269954,171.283224 C60.7570552,172.593527 60.6888611,174.035346 60.8349914,175.423585 C61.1516072,178.346192 62.3596183,181.220089 61.473094,184.040406 C60.5612081,186.948543 59.9683294,189.947235 59.7049166,192.983584 C59.65648,193.827985 59.5588944,194.668847 59.4126558,195.501897 C59.2567834,196.252033 59.0034908,196.963201 58.8622314,197.732821 C58.6674657,198.812862 58.7157206,199.922725 59.0034908,200.981786 C59.2221961,201.568754 59.3566723,202.183736 59.4029138,202.808416 C59.4029138,203.431905 58.6381649,203.880039 58.0244173,203.977459 C58.2046448,204.211267 58.3994853,204.435334 58.5991968,204.65453 C58.4819469,205.068 58.2425582,205.436421 57.912384,205.711539 L57.912384,205.711539 Z" id="Shape" fill="url(#linearGradient-3)" fill-rule="nonzero"></path>
                    <path d="M58.8865865,204.381753 C59.6854325,203.480616 60.8349914,203.758263 62.0040344,203.758263 C65.1458373,203.816715 68.3704474,204.138202 71.2346027,205.531312 C72.0143339,205.860689 72.6884042,206.39826 73.1830076,207.085165 C73.6779771,207.799521 73.6622997,208.749963 73.1440395,209.447606 C72.726948,209.83932 72.2092298,210.107454 71.6486387,210.222097 L71.6486387,210.222097 L62.4521675,212.993703 C60.3951101,213.612527 58.1623099,214.231351 56.1239685,213.719914 C56.0643788,213.998001 55.9459677,214.265544 55.7691386,214.503716 C55.3520471,214.895431 54.834329,215.163565 54.2737379,215.278207 L54.2737379,215.278207 L45.0772667,218.044942 C42.7294387,218.751239 40.1478022,219.462407 37.8973945,218.488204 C37.2501015,218.226341 36.6813392,217.801866 36.2461214,217.255838 C35.5258667,216.197 35.3118136,214.873438 35.6615999,213.641547 C35.7800114,213.022789 36.0901744,212.456997 36.5481241,212.024371 C37.1759017,211.592919 37.9152733,211.352665 38.6767565,211.332687 C39.3263163,211.313805 39.9635542,211.150752 40.5423542,210.855328 C41.1755858,210.441292 41.0976496,209.920094 41.5165567,209.432993 C42.3105317,208.531855 43.4649616,208.814374 44.6340045,208.814374 C47.4260864,208.86632 50.2835666,209.122154 52.8919205,210.156227 C52.8427544,209.634644 52.8902348,209.102034 53.0365007,208.585436 C53.1561616,207.967128 53.4661267,207.401697 53.923025,206.96826 C54.5517877,206.538809 55.2905536,206.298753 56.0516574,206.276577 C56.7002626,206.261986 57.3368586,206.09867 57.912384,205.799217 C58.5456156,205.385181 58.4676794,204.868854 58.8865865,204.381753 Z" id="Combined-Shape" fill="#005E7D"></path>
                    <path d="M48.0583262,106.469535 C53.477923,105.924967 58.9297362,105.771945 64.3713463,106.01166 C64.7304206,106.007983 65.0876138,106.063949 65.428356,106.177274 C66.626625,106.664375 66.8117235,108.232841 66.9237568,109.513917 C67.410858,114.716159 69.6807497,119.562816 70.8205666,124.657895 C71.4899245,127.860538 71.7938699,131.128768 71.7265749,134.399919 C71.660735,135.861413 71.686765,137.3256 71.8045111,138.78383 C71.9506415,140.084391 72.2916123,141.360596 72.4767108,142.656285 C72.6822143,144.396946 72.7587355,146.150419 72.7056484,147.902365 C72.7613743,150.649294 72.6066733,153.396457 72.2429022,156.119763 C71.4927663,160.761838 72.8030686,165.374686 73.1537815,170.070342 C73.3285655,173.354517 73.6977857,176.62545 74.2595013,179.865948 C74.527407,181.234702 74.8635068,182.588844 75.0486053,183.96734 C75.5941587,188.063862 74.7953126,192.282158 75.6574818,196.325099 C76.0569048,198.215051 76.7778146,200.338813 75.715934,201.955989 C75.3847051,202.44309 74.8976039,202.857126 74.537149,203.349098 C74.125386,203.816759 73.9953122,204.468986 74.1961781,205.058824 C74.4056317,205.502086 74.8927329,205.794346 75.0145082,206.266835 C75.2044777,207.012099 74.4251157,207.620976 73.7236899,207.937592 C68.4386416,210.324388 61.6240954,208.643889 58.0585144,204.070008 C58.672262,203.972588 59.4223979,203.529326 59.4370109,202.905836 C59.3901838,202.285988 59.2557043,201.67591 59.0375879,201.09382 C58.7507061,200.04292 58.7024422,198.94117 58.8963285,197.869209 C59.0375879,197.119074 59.2908805,196.407906 59.4467529,195.652899 C59.5929867,194.824756 59.6905742,193.988757 59.7390137,193.149198 C60.0024802,190.131981 60.5954033,187.152665 61.5071911,184.264472 C62.3937154,181.46364 61.1857043,178.628711 60.8690885,175.706103 C60.7229581,174.322736 60.7862813,172.895529 60.3040511,171.590098 C60.0117903,170.820478 59.5393022,170.128794 59.2519124,169.359174 C58.5845837,167.561771 58.9840068,165.564656 59.3883008,163.694187 C56.5095325,158.496817 55.5499431,152.300889 54.4637073,146.460546 L52.6370777,136.621101 C52.364301,135.159797 52.0671693,133.644912 51.175774,132.466127 C50.2289255,136.810139 49.8571682,141.259763 50.0700543,145.700668 C50.1805223,146.980218 50.1642063,148.267557 50.0213441,149.543896 C49.7972776,150.95649 49.2078851,152.286276 48.8620432,153.669644 C48.1070363,156.723769 48.5502984,159.928895 48.374942,163.070698 C48.3067478,164.342032 48.1460044,165.603624 48.0924233,166.874958 C47.8537437,172.486364 49.7436964,177.941898 51.6092941,183.236688 C52.753982,186.485654 53.0072747,190.177881 53.5576991,193.577848 C54.0448003,196.836555 54.5854827,200.095262 54.8436463,203.383195 C55.0823259,206.403223 55.1894882,209.671672 57.0696989,212.043855 C55.3502316,213.159317 53.5771831,214.294263 51.565455,214.679073 C49.2210728,215.045856 46.8222533,214.580567 44.7850059,213.363899 C42.7592935,212.152664 40.9486545,210.613621 39.4268924,208.809503 C39.8214444,208.673115 39.9627038,208.098335 40.0016719,207.684299 C40.5861933,201.517598 38.2432364,195.506768 37.3567122,189.369293 C36.9135555,186.294572 36.8350758,183.178273 37.1229036,180.085144 C37.2349369,178.920972 37.3956803,177.7568 37.4395194,176.587757 C37.673328,170.49412 34.7361076,164.624551 34.8432698,158.526043 C34.89198,155.666759 33.3819661,152.851314 32.6415723,150.08945 C32.0034697,147.653944 31.9839856,145.072307 31.9693726,142.539381 L31.8475973,122.56823 C31.8475973,119.86969 31.8475973,117.102955 32.7195085,114.555415 C33.7911312,111.486677 32.5636361,107.964936 32.3785376,104.720841 C37.4401634,106.325036 42.7676446,106.919185 48.0583262,106.469535 L48.0583262,106.469535 Z" id="Path" fill="#008AB6"></path>
                    <path d="M48.4577492,34.417521 C54.0398847,34.417521 58.5650997,38.9427359 58.5650997,44.5248715 C58.5650997,48.2027109 56.6007265,51.4217464 53.6639378,53.1900204 C53.4729869,53.9075587 53.2814848,54.6461452 53.3531165,55.1680333 C53.5966672,56.9946629 54.5757406,58.6313231 55.530459,60.209531 C56.1052385,61.1837335 56.8407613,62.2212591 57.9659652,62.3284214 C55.0375196,63.8652851 51.9612754,65.1023107 48.784107,66.0206487 C47.7042379,66.3834655 46.5720302,66.5661327 45.4328506,66.5614233 C44.4675086,66.489312 43.5225513,66.2468884 42.6417605,65.8452923 C38.7386015,64.1455447 35.8315722,60.7483245 34.7555916,56.629337 C36.0139917,56.6628602 37.2724952,56.5665545 38.5111421,56.3419473 C39.2184708,56.287623 39.8777731,55.9632044 40.3523847,55.435939 C40.6346384,54.9421552 40.7666806,54.3767436 40.7323237,53.8090209 C40.75853,52.9022817 40.7720471,51.9941326 40.7705993,51.0860907 C39.2609652,49.3202237 38.3503987,47.0288847 38.3503987,44.5248715 C38.3503987,38.9427359 42.8756136,34.417521 48.4577492,34.417521 Z M1.64732107,4.8309923 C2.97223641,3.52579741 5.17393397,3.07742788 6.76675499,4.05163033 C8.00399211,4.78715319 8.68593383,6.16077866 9.30455239,7.46133894 C10.2203027,9.40974385 11.5549601,11.2120184 11.9641251,13.3065537 C13.0893289,19.0689612 17.7070486,23.5454215 19.5580333,29.1178596 C20.2204909,31.1052326 20.5322357,33.238736 21.5795034,35.0556236 C22.0741605,35.849426 22.6277672,36.6049362 23.2356475,37.3157733 C26.1449572,40.9553682 28.6457862,44.9034438 30.6931674,49.08901 C31.5748206,50.9058976 30.4934559,53.1660473 29.8845793,55.0852261 C29.339783,56.7648289 29.0716279,58.5218205 29.0906043,60.2874672 C26.2897723,59.9221413 23.9711704,57.8811872 22.4855117,55.445681 C20.9998529,53.0101749 20.1912649,50.287279 19.1780943,47.6520614 C17.3953038,43.0099866 14.9695397,38.6553017 12.9042305,34.1155182 C10.8389213,29.5757347 10.6294677,24.5975602 9.00742064,19.8970333 C8.09866207,17.2997674 6.22057788,15.1546322 3.76621142,13.9105592 C2.81636402,13.4332 1.75935435,13.0727451 1.05305757,12.2787701 C0.50886138,11.6213807 0.170064953,10.8184332 0.0788551126,9.96991027 C-0.224018826,8.10636114 0.355446323,6.20780297 1.64732107,4.8309923 Z M54.4003842,1.48460686 C55.2179413,1.5026777 55.9924428,1.85472386 56.5436296,2.45880932 C57.3471171,3.37548481 57.968689,4.43678568 58.3751302,5.58599921 C59.1691052,7.45646793 59.9776933,9.40487284 59.9046281,11.431214 C59.8364339,13.1165842 59.2080733,14.996795 60.1968888,16.3655494 C63.431241,20.8566227 65.8813602,26.0150248 68.4435126,30.9201341 C69.0970745,32.08895 69.654217,33.3091244 70.1093988,34.5685223 C70.7351213,36.6095284 71.0311043,38.737317 70.986181,40.8716122 C70.986181,44.8609713 70.4601117,48.8357173 69.9145583,52.7909793 C69.5687165,55.2703246 69.1157123,57.9688654 67.2403726,59.6103965 C65.2919677,57.1164382 63.3338207,54.6809321 60.8496045,52.7325272 C60.7244199,49.2883045 61.2618455,45.8520879 62.4326835,42.6105636 C62.8808166,41.3684555 63.4068859,40.1068633 63.3630468,38.786819 C63.2997236,37.5593239 62.7152022,36.43412 62.1842618,35.3235292 C60.3527612,31.4997846 59.066814,27.4471024 57.8003508,23.4041622 L55.3648446,15.7810279 C54.5707769,15.1987349 53.8524404,14.5196697 53.2264702,13.7595578 C51.928202,12.2585065 51.0701531,10.4277775 50.747125,8.46963848 C50.4331638,6.49745579 50.9265125,4.48192416 52.1158794,2.87771637 C52.6410404,2.10582876 53.4737061,1.59806247 54.4003842,1.48460686 Z" id="Combined-Shape" fill="#F7A17D"></path>
                    <path d="M48.9107533,61.3103798 C49.1379869,58.579138 51.0889143,56.3004391 53.7525395,55.6551345 C54.7949362,55.421326 55.925011,55.450552 56.8553744,54.9342247 C58.4530664,54.0428295 58.9352966,51.870358 60.4696655,50.8718005 C62.0040344,49.873243 64.1813769,50.4285384 65.5160342,51.6901305 C66.8506916,52.9517227 67.5277623,54.7491263 68.0733157,56.5075617 C68.8877765,58.885198 69.3297638,61.3744574 69.383618,63.8871453 C69.403934,64.3467554 69.3310293,64.8057236 69.1692935,65.2364157 C68.8804556,65.7391642 68.5157011,66.1942858 68.0879287,66.5856861 C66.9313285,67.8836794 66.3977843,69.621255 66.626625,71.3446651 C66.7650493,72.9489779 66.6182764,74.5651281 66.1931049,76.1182572 C65.2189025,80.41449 64.2447,84.7058519 63.460467,89.0410528 C63.2764528,89.8389335 63.215673,90.6602832 63.2802396,91.4765589 C63.431241,92.6504729 64.0790856,93.7610637 63.9378263,94.9349777 C63.7998774,95.4814644 63.6973727,96.0362912 63.6309525,96.5959929 C63.6627812,97.0196225 63.7614203,97.4355509 63.9232132,97.828359 C65.028933,101.038356 68.0148635,108.393585 67.9856375,111.793551 C62.7980094,110.463765 55.1505201,110.166633 49.7924066,110.142278 C48.3189111,110.126858 46.8456727,110.191901 45.3792694,110.337119 C41.8575275,110.717057 38.2529784,111.744841 34.8383988,110.794994 C31.6673698,109.91334 28.8616667,107.385285 25.5834755,107.701901 C24.8723077,105.841174 25.7101218,99.6306335 26.3774505,97.7504228 C28.9790618,90.3469425 29.4847647,82.3686363 27.8387542,74.6959216 C27.2396196,71.9389286 28.0628207,69.0114502 27.395492,66.2739413 C27.2735255,65.6262343 27.0252556,65.0088698 26.6648402,64.4570538 C26.295799,63.8999804 25.667025,63.5708852 24.998954,63.5851426 C24.9382456,59.1817735 25.3464633,54.7844522 26.2167071,50.4675065 C26.5381939,48.9331376 27.1909095,47.121121 28.7642465,46.8580863 C30.157356,46.6194067 31.326399,47.7981917 32.4467318,48.6603609 C33.5954492,49.5495541 34.9258929,50.1748626 36.3435416,50.4918615 C36.9143031,50.5598543 37.4613492,50.7599931 37.9412337,51.076383 C38.6085623,51.6316784 38.7059826,52.6302359 39.251536,53.3073066 C40.2257384,54.5201887 42.4030809,54.4178974 43.0947647,55.815878 C43.2459878,56.2322931 43.3680578,56.6587243 43.4600906,57.0920832 C43.7872813,57.922775 44.3449748,58.6427066 45.0675246,59.1671344 C46.1525262,60.1871813 47.4727081,60.9234044 48.9107533,61.3103798 Z" id="Path" fill="#00A2A2"></path>
                    <path d="M40.2452225,33.7794183 C40.069866,33.1120897 40.0990921,32.3181147 40.6349034,31.8699815 C40.9028091,31.660528 41.253522,31.5825918 41.5409117,31.3828803 C41.945938,31.0424848 42.2774064,30.6231773 42.5151142,30.1505142 C44.0160377,28.0501478 46.8137963,27.3399 49.1348199,28.470015 C50.8932553,29.3906363 51.955136,31.2318789 53.518731,32.4739871 C54.312706,33.1169607 55.2333273,33.5943199 56.0321733,34.2372935 C57.6320768,35.619304 58.7694843,37.4588778 59.2908805,39.5077288 C59.808595,41.5421583 60.1106395,43.6254491 60.1920178,45.7231405 C60.2751526,46.3527034 60.2504441,46.9918277 60.1189526,47.6130933 C59.957072,48.1342104 59.7155352,48.6271428 59.4029138,49.0743969 C57.7954798,51.5099031 55.6765894,53.7213427 53.0218877,54.9780638 C50.367186,56.234785 47.1377049,56.4393675 44.5171002,55.1241942 C44.2534524,55.0176679 44.0266123,54.8365343 43.8643846,54.6029959 C43.7154274,54.2473617 43.6797088,53.8544573 43.7620933,53.4777921 C43.9041443,51.9890294 43.6096393,50.491116 42.9145372,49.1669462 C42.427436,48.1927437 41.6967841,47.3549296 41.3071031,46.3466301 C40.944747,45.2180015 40.7896226,44.0331147 40.849228,42.8492432 C40.8053889,39.7853765 41.0148424,36.7312518 40.2452225,33.7794183 Z" id="Path" fill="#D45925"></path>
                </g>
            </g>
            <g id="Men-Left" transform="translate(180.407988, 81.330844)">
                <path d="M3.70494213,175.57375 L0,187.150364 C0,187.150364 10.1452257,195.866462 16.7367314,194.062444 C17.7295458,193.785942 18.7411908,193.602581 19.7611739,193.514262 C21.1266208,193.399642 23.4750115,192.288327 22.0250581,190.868036 C17.3460676,186.283239 11.1103787,177.766479 11.1103787,177.766479 L3.70494213,175.57375 Z" id="Path" fill="#005E7D" fill-rule="nonzero"></path>
                <path d="M65.5157625,177.983569 L63.6974326,188.08003 C63.6974326,188.08003 73.001374,187.682496 88.7756158,192.434835 C88.7756158,192.434835 94.8444069,189.859898 89.7863118,186.693179 C89.7863118,186.693179 83.9205829,187.090713 80.2793082,180.951522 C76.6380336,174.812332 74.4135794,175.6074 74.4135794,175.6074 L65.5157625,177.983569 Z" id="Path" fill="#005E7D" fill-rule="nonzero"></path>
                <path d="M17.7315253,102.791854 L19.4860418,133.781059 C19.6740033,137.083885 18.5811869,140.331697 16.4360921,142.845401 C15.4663325,143.999559 14.3614201,145.032378 13.1452374,145.921535 C8.9634883,148.915639 0,180.469941 0,180.469941 C0,180.469941 10.1589231,181.066939 12.9452407,183.067565 C12.9452407,183.067565 13.5406854,175.078731 15.1361136,174.281214 C16.7315418,173.483698 28.4813477,150.127864 28.4813477,150.127864 L40.2402444,119.753886 C40.2402444,119.753886 49.6037261,135.932074 57.5717763,138.72566 L57.5717763,145.515941 C57.5717763,145.515941 61.9535221,165.485749 63.5489503,167.682337 C65.1443784,169.878924 63.5489503,178.665275 63.5489503,178.665275 C63.5489503,178.665275 68.1306927,184.457522 78.6850639,178.264239 C78.6850639,178.264239 75.2987562,174.468061 75.5032982,169.874367 C75.7078403,165.280673 70.9215557,140.120174 70.9215557,140.120174 C70.9215557,140.120174 71.5170004,130.549978 66.7398066,124.543541 C61.9626128,118.537104 53.9900172,95.6005358 53.9900172,95.6005358 L48.5082896,83.7745085 L17.7315253,102.791854 Z" id="Path" fill="#8F791D" fill-rule="nonzero"></path>
                <path d="M43.6123089,68.7651613 L44.0084805,72.5337851 L37.8948338,72.1356592 L31.7541754,66.7700076 L25.6405287,49.5329649 L21.6968214,43.3891581 L18.734539,39.6250585 L19.9185516,35.0647071 C19.9185516,35.0647071 20.4587855,35.5171229 21.3726811,36.2409882 C24.3754811,38.552833 31.4255331,43.3529648 36.5757627,42.0273865 C36.8140648,41.9676722 37.0485875,41.8936446 37.2780668,41.8057027 L44.9628936,55.084107 L43.6123089,68.7651613 Z" id="Path" fill="#F5F5F5" fill-rule="nonzero"></path>
                <path d="M21.413456,33.1912532 L20.6116659,37.6924939 C20.6116659,37.6924939 25.2620484,46.5914468 29.2618354,48.7610448 C33.2616225,50.9306429 42.2966513,70.0699184 42.2966513,70.0699184 C42.2966513,70.0699184 41.4902795,55.6974568 41.8934654,53.8969605 C42.2966513,52.0964642 33.9787639,36.4676456 33.9787639,35.0247991 C36.8374277,36.0656968 37.1732813,36.9792226 38.1761971,37.3358583 C39.1791129,37.6924939 42.2199998,38.8180183 43.0894397,39.533599 C43.9588797,40.2491797 45.8525098,42.1546506 46.1740523,43.550822 C46.5772382,48.6777352 56.7334543,56.6562211 56.7334543,56.6562211 C57.5300217,57.8968039 59.3543726,58.9015591 61.6834189,59.712993 C61.3372532,63.2874441 61.1028869,66.8947694 60.9823868,70.5309246 C53.0781785,69.5171651 46.4934496,62.5483452 46.4934496,62.5483452 C44.5887225,64.9835927 46.6629749,73.8137727 46.8788404,74.7054609 L46.8966355,74.7782162 C47.3135663,85.4281518 55.1436191,93.714936 55.1436191,93.714936 L55.1436191,93.714936 L56.550188,101.407556 C54.1402361,101.015948 47.5151592,87.2061419 47.5151592,87.2061419 C47.5151592,87.2061419 48.5231239,102.433839 41.4902795,106.376926 C34.4574351,110.320013 13.3818103,106.376926 13.3818103,106.376926 C13.3818103,106.376926 12.1768343,91.2032437 13.3818103,88.4259781 C14.5867862,85.6487126 13.7849961,76.1961071 13.7849961,76.1961071 C13.7849961,76.1961071 10.5732542,72.0369606 6.15653625,62.5843551 C3.3433985,56.5526925 3.54040977,52.3665387 4.05813708,50.1159183 C4.31367356,49.0079275 5.01429652,48.0484924 6.00075989,47.455685 C8.56190648,45.9117595 14.2935601,42.1577247 15.9933551,38.5162209 C18.2062957,33.7809157 21.413456,33.1912532 21.413456,33.1912532 L21.413456,33.1912532 Z" id="Combined-Shape" fill="url(#linearGradient-4)" fill-rule="nonzero"></path>
                <g id="Head" transform="translate(30.297177, 22.992584) rotate(10.000000) translate(-30.297177, -22.992584) translate(14.822842, 2.526527)">
                    <mask id="mask-6" fill="white">
                        <use xlink:href="#path-5"></use>
                    </mask>
                    <use id="Path" fill="#F8B79D" fill-rule="nonzero" xlink:href="#path-5"></use>
                    <path d="M9.2881681,26.3128341 L10.2170203,23.3971913 C17.2436966,27.0321544 20.8770024,25.4861943 20.8770024,25.4861943 L23.2859264,30.3872478 C22.2576323,31.1064128 22.80334,33.0349803 18.7312954,32.7414436 C15.3722014,32.5066142 11.2471239,29.8730764 9.2881681,26.3128341 Z" id="Path" fill="#F79E7A" fill-rule="nonzero" mask="url(#mask-6)"></path>
                    <g id="Group-8" transform="translate(0.147330, 0.050952)" fill-rule="nonzero">
                        <path d="M4.45365377,13.4490269 C3.92602468,19.0624248 8.44577865,29.9535979 14.5755253,30.6457185 C20.7052719,31.3378391 24.4304322,20.2134346 24.9580613,14.6000368 C25.4856903,8.986639 22.6275251,5.22472907 16.4814972,4.52428567 C13.5379672,4.1938002 10.6163623,4.94871573 8.36030357,6.62272659 C6.10424484,8.29673745 4.69882494,10.7525036 4.45365377,13.4490269 Z" id="Path" fill="#F8B79D" transform="translate(14.715779, 17.562395) rotate(-10.000000) translate(-14.715779, -17.562395) "></path>
                        <path d="M10.3582862,3.87698399 C10.7321095,3.85180982 10.8883282,3.59443832 11.3972074,3.3022821 C13.3776822,2.157029 15.8734671,2.33479761 18.0300209,2.98289637 C23.4145394,4.61028513 24.0466815,8.67150482 25.5908098,8.34381821 C27.1349381,8.01613161 29.3915029,10.7806659 27.1740541,13.0172366 C24.9566053,15.2538073 21.9235777,15.4022164 18.6430474,13.0183764 C16.5395552,11.4973727 13.5221597,10.0347604 10.880518,10.1894219 C10.465704,10.1584449 10.0617083,10.302966 9.76841617,10.5872532 C9.30199951,11.207953 9.25066638,12.5873054 9.1485178,13.3441146 C8.93882221,15.2007201 8.86354686,17.0733789 8.92326823,18.9477492 C8.62643455,18.919945 8.45812572,18.5958104 8.36895238,18.3090788 C8.14613425,17.6260132 8.03069986,16.912566 7.83636043,16.2292421 C7.60036502,15.4537167 7.12941121,14.2065344 6.12942401,14.6142404 C5.61460389,14.8753918 5.23323806,15.3348051 5.07175969,15.8883582 C4.60910199,17.0721239 4.51514099,18.8820843 5.40898351,19.9446288 C6.12754698,20.7941971 6.15331873,22.1543343 6.18716953,23.1898261 C6.20115338,23.518628 6.38976835,24.4089458 6.22071806,24.6751471 C5.91548138,25.146258 5.16331258,24.9483171 4.82300106,24.5636601 C4.45802539,24.0342869 4.2686645,23.4078693 4.28221485,22.7747055 C4.01323181,19.708948 3.39603104,16.6741521 2.44243025,13.7284259 C2.19259475,13.0551887 2.00809393,12.3612934 1.89149097,11.6563797 C1.78516411,10.1093488 2.15073281,8.57883675 2.94035488,7.26514269 C3.59565807,5.8714539 4.64277737,4.70309051 5.9587206,3.89728574 C7.41951523,3.10963693 8.49194157,3.46913734 9.95293825,3.817489 C10.0846832,3.85802982 10.2214376,3.87810196 10.3582862,3.87698399 L10.3582862,3.87698399 Z" id="Path" fill="#D45925" transform="translate(14.987631, 13.709751) rotate(-10.000000) translate(-14.987631, -13.709751) "></path>
                    </g>
                </g>
                <path d="M18.8488237,53.7992461 C18.8488237,53.7992461 23.7695807,69.234226 26.6369039,71.1385982 C29.5042271,73.0429703 46.92801,82.7604859 52.0545781,80.4735001 C52.0545781,80.4735001 53.2847673,86.1909645 51.4418222,87.5214163 C51.4418222,87.5214163 32.3294525,86.8257552 32.1750942,86.760537 C32.1750942,86.760537 19.6720682,85.2344305 17.623312,79.521314 C15.5745558,73.8081975 13.1141773,64.0863341 13.1141773,64.0863341 L18.8488237,53.7992461 Z" id="Path" fill="#000000" fill-rule="nonzero" opacity="0.1"></path>
                <circle id="Oval" fill="#FFFFFF" fill-rule="nonzero" cx="44.0261667" cy="71.5970581" r="1"></circle>
                <circle id="Oval" fill="#FFFFFF" fill-rule="nonzero" cx="45.8996206" cy="79.0908737" r="1"></circle>
                <path d="M56.3293655,85.9127337 L52.0688165,86.8190337 L48.7098014,87.5214163 L50.5128694,82.5367659 L51.7667797,82.2240923 L53.7208661,81.7437533 C53.7208661,81.7437533 56.5307233,67.8411101 62.1458615,68.8380401 C67.7609997,69.8349702 56.3293655,85.9127337 56.3293655,85.9127337 Z" id="Path" fill="#F7A17D" fill-rule="nonzero"></path>
                <path d="M52.4274951,84.9027476 L48.7098014,85.6479624 L50.7054027,80.3593415 L52.0932066,80.0276007 C52.4036531,81.634819 52.5158384,83.2708904 52.4274951,84.9027476 Z" id="Path" fill="#000000" fill-rule="nonzero" opacity="0.1"></path>
                <path d="M18.8488237,53.7992461 C18.8488237,53.7992461 23.7695807,69.234226 26.6369039,71.1385982 C29.5042271,73.0429703 46.92801,82.7604859 52.0545781,80.4735001 C52.0545781,80.4735001 53.2847673,86.1909645 51.4418222,87.5214163 C51.4418222,87.5214163 32.3294525,86.8257552 32.1750942,86.760537 C32.1750942,86.760537 19.6720682,85.2344305 17.623312,79.521314 C15.5745558,73.8081975 13.1141773,64.0863341 13.1141773,64.0863341 L18.8488237,53.7992461 Z" id="Path" fill="#0098C9" fill-rule="nonzero"></path>
            </g>
            <g id="woman" transform="translate(394.132264, 73.309440) scale(-1, 1) translate(-394.132264, -73.309440) translate(341.632264, 7.309440)">
                <circle id="Oval" fill="#B0DDEC" cx="45.730308" cy="85.7449441" r="9.9018662"></circle>
                <path d="M42.2335861,17.7945957 C42.2335861,27.6222797 38.0023061,27.9276276 31.109279,27.9276276 C24.2162518,27.9276276 17.2717239,27.6222797 17.2717239,17.7945957 C17.2717239,7.96691169 22.8596265,2.05795542e-13 29.7526563,2.05795542e-13 C36.6456861,2.05795542e-13 42.2335861,7.96691169 42.2335861,17.7945957 Z" id="Path" fill="#B53D0A" fill-rule="nonzero"></path>
                <path d="M25.1130242,18.194936 C25.1130242,18.194936 28.0556208,30.5003398 26.9855857,31.8378837 C25.9155505,33.1754276 36.0808841,36.1180242 36.0808841,36.1180242 L40.3610246,24.3476379 L37.9534456,24.0801291 C37.9534456,24.0801291 34.4758315,23.2776028 35.5458666,16.5898833 C36.6159017,9.90216382 25.1130242,18.194936 25.1130242,18.194936 Z" id="Path" fill="#EF8E65" fill-rule="nonzero"></path>
                <circle id="Oval" fill="#F7A17D" fill-rule="nonzero" cx="29.7944305" cy="12.9785148" r="8.69403532"></circle>
                <path d="M21.2341469,61.9326214 L15.081445,67.282797 C15.081445,67.282797 -3.64416956,74.2380252 0.635970904,84.9383764 C4.91611137,95.6387276 12.9413747,111.421746 12.9413747,111.421746 L15.081445,116.504412 L20.4316206,116.504412 L23.9092347,114.89936 L23.1067084,112.759289 C23.1067084,112.759289 21.2341469,109.816693 21.2341469,108.21164 C21.2341469,106.606588 18.0240416,88.1484817 15.8839713,86.8109378 C15.8839713,86.8109378 26.5843225,76.3780955 34.3420771,75.8430779 C42.0998317,75.3080603 44.2399019,73.4354989 48.5200424,75.8430779 C52.8001829,78.2506569 69.6532359,82.7983062 69.6532359,82.7983062 C69.6532359,82.7983062 78.7485344,99.3838505 83.2961837,102.326447 C87.8438329,105.269044 91.5889558,115.166868 91.5889558,115.166868 L99.0792017,113.829325 L95.3340787,106.07157 C95.3340787,106.07157 91.5889558,100.453886 91.5889558,98.0463066 C91.5889558,95.6387276 79.283552,72.3654638 70.4557623,68.6203409 C61.6279726,64.875218 57.3489021,61.4318102 57.3489021,61.4318102 L37.8196912,62.7351424 L21.2341469,61.9326214 Z" id="Path" fill="#D45925" fill-rule="nonzero"></path>
                <path d="M15.7439136,113.350931 C15.7439136,113.350931 14.0774454,112.160596 12.8871109,114.541265 C11.6967764,116.921934 8.36383983,122.397473 8.36383983,122.397473 C8.36383983,122.397473 -1.39690294,129.777547 5.98317086,131.682082 C5.98317086,131.682082 9.55417431,131.920149 15.7439136,127.634945 C21.9336529,123.34974 26.456924,121.207138 26.6949909,120.492938 C26.9330578,119.778737 25.2665895,111.684462 23.6001212,111.684462 C21.9336529,111.684462 22.4097867,115.493533 20.5052516,115.493533 C19.1443451,115.526192 17.7894425,115.685592 16.4581143,115.969667 L15.7439136,113.350931 Z" id="Path" fill="#84CCE3"></path>
                <path d="M99.7579741,113.273578 C99.3527971,112.123257 98.504165,111.182897 97.4013161,110.662192 C96.2984672,110.141488 95.0331143,110.08374 93.8874212,110.501826 C93.5453071,110.630119 93.3136673,110.763757 93.2691212,110.897396 C93.0463907,111.565587 91.0307307,111.895638 90.813544,111.507882 C90.5963572,111.120126 89.0372413,110.006474 90.1508939,114.238354 C91.2645465,118.470233 94.6055044,127.602185 96.3873486,129.161299 C98.1691927,130.720412 104.405647,130.497682 104.851108,128.938568 C105.296569,127.379454 104.628378,124.483958 103.737456,123.370305 C102.846534,122.256652 101.28742,118.692964 101.06469,117.356581 C100.959879,116.727701 100.36183,114.964377 99.7579741,113.273578 Z" id="Path" fill="#84CCE3"></path>
                <path d="M52.9553545,80.0473975 C52.9553545,80.0473975 55.358865,90.4068011 60.0773895,87.9726697 C64.795914,85.5385383 54.9040386,75.8430779 54.9040386,75.8430779 L52.9553545,80.0473975 Z" id="Path" fill="#EF8E65" fill-rule="nonzero"></path>
                <path d="M29.7944305,73.5519159 C29.7944305,73.5519159 32.4863622,85.1544479 37.7711097,82.4282207 C43.0558571,79.7019936 31.9769566,68.8430779 31.9769566,68.8430779 L29.7944305,73.5519159 Z" id="Path" fill="#EF8E65" fill-rule="nonzero"></path>
                <path d="M24.4442523,58.722516 C24.4442523,58.722516 22.8391996,65.1427267 24.9792698,66.7477794 C27.11934,68.3528321 30.5969542,68.0853233 36.4821473,70.2253935 C42.3673405,72.3654638 51.7301477,70.2253935 51.9976565,67.282797 C52.2651653,64.3402004 50.6601126,52.5698141 50.6601126,52.5698141 L24.4442523,58.722516 Z" id="Path" fill="#D45925" fill-rule="nonzero"></path>
                <path d="M50.9276214,57.6524809 C47.8325448,58.6048122 45.796803,58.7091406 44.820396,59.666822 C44.6988938,59.7832623 44.59362,59.9155294 44.5074107,60.0600599 C43.7048844,61.3976038 40.2272702,61.9326214 35.679621,60.8625863 C34.1560209,60.4627433 32.5718507,60.3466736 31.0062426,60.520175 C29.4520166,60.6780052 27.8870902,61.007041 24.9792698,60.8625863 C19.9046283,60.6084529 17.4783236,43.9934826 16.3280359,39.5421366 C16.2665089,39.2987036 16.2076703,39.0927218 16.1514801,38.9268664 C15.081445,35.716761 20.6991293,32.5066557 21.5016557,31.7041293 C22.304182,30.901603 24.711761,27.6914976 26.9267337,27.3571117 C29.1390313,27.0227257 32.4695156,31.7041293 32.4695156,31.7041293 C32.4695156,31.7041293 37.6859368,25.417673 37.1509193,23.8126203 C36.6159017,22.2075677 42.2335861,23.2776028 43.3036212,23.010094 C43.908191,22.857614 46.4334739,23.5183607 48.5173673,24.1229305 C50.298345,24.6374293 51.5739831,26.201871 51.7194474,28.0499594 C51.7542235,28.4859987 51.7916748,28.9594893 51.829126,29.4677559 C52.4925478,38.20459 53.5839836,56.8365818 50.9276214,57.6524809 Z" id="Path" fill="#B08814" fill-rule="nonzero"></path>
                <path d="M31.0062426,60.520167 C29.4520166,60.6779972 27.8870902,61.007033 24.9792698,60.8625782 C19.9046283,60.6084449 17.4783236,43.9934746 16.3280359,39.5421285 C16.5206422,38.1564331 16.6864977,37.3218057 16.6864977,37.3218057 L18.1577959,39.3281215 C18.1577959,39.3281215 25.2467786,50.9647534 27.11934,54.1748588 C27.8844152,55.4856518 29.4546917,57.960108 31.0062426,60.520167 Z" id="Path" fill="#000000" fill-rule="nonzero" opacity="0.1"></path>
                <path d="M18.2915503,36.2517786 L15.8839713,37.3218137 C15.8839713,37.3218137 12.673866,53.3723404 18.2915503,61.3976038 C23.9092347,69.4228672 26.0493049,70.7604111 27.11934,72.097955 C27.7695718,72.8883626 28.7784616,73.2919185 29.7944278,73.1679901 C29.7944278,73.1679901 28.7243927,75.8430779 30.5969542,75.8430779 C32.4695156,75.8430779 39.4247439,73.1679901 37.5521824,72.3654638 C35.679621,71.5629374 33.8070595,70.2253935 34.3420771,68.8878496 C34.8770946,67.5503057 28.1893752,57.3849721 26.3168137,54.1748668 C24.4442523,50.9647614 18.2915503,36.2517786 18.2915503,36.2517786 Z" id="Path" fill="#B08814" fill-rule="nonzero"></path>
                <path d="M50.9276214,57.6524809 C47.8325448,58.6048122 45.796803,58.7091406 44.820396,59.666822 C44.5742879,57.0238353 44.5849882,54.5333285 45.0424283,52.5698141 C46.6866121,45.5233199 47.9274275,30.2648304 47.8512704,26.4877081 C47.842234,26.0394918 47.9379807,26.7552169 48.386288,26.7552169 L48.386288,27.0227257 C50.365853,27.0227257 50.9222712,26.3191776 51.4786895,28.2184899 C51.5910432,28.5983658 51.708747,29.0156661 51.829126,29.4677693 C52.4925478,38.20459 53.5839836,56.8365818 50.9276214,57.6524809 Z" id="Path" fill="#000000" fill-rule="nonzero" opacity="0.1"></path>
                <path d="M47.4500073,25.0164094 L48.2697879,25.0164094 C50.2487333,25.0155259 51.9912753,26.3196211 52.5484571,28.2185087 C53.5704998,31.8245079 54.36928,35.4900815 54.9402531,39.1943751 C56.5453058,49.0922 58.4178672,73.7030077 58.1503584,74.2380252 C57.8828497,74.7730428 61.3604638,77.4481306 59.7554111,77.9831481 C58.1503584,78.5181657 55.2077619,79.5882008 53.870218,79.8557096 C52.5326741,80.1232184 49.8575863,77.4481306 49.8575863,77.4481306 C49.8575863,77.4481306 44.2399019,60.5950775 46.1124634,52.5698141 C47.9850248,44.5445507 47.4500073,25.0164094 47.4500073,25.0164094 Z" id="Path" fill="#B08814" fill-rule="nonzero"></path>
                <path d="M37.2906471,6.7965474 C37.2906471,9.4582116 33.6391523,11.615916 29.1347913,11.615916 C24.6304303,11.615916 20.4846274,13.0418448 20.4846274,10.3801806 C20.4846274,7.71851641 24.6304384,1.97718146 29.1347913,1.97718146 C33.6391443,1.97718146 37.2906471,4.1348832 37.2906471,6.7965474 Z" id="Path" fill="#B53D0A" fill-rule="nonzero"></path>
                <path d="M17.3457998,19.4625558 C17.3457998,19.4625558 17.0129038,28.4219223 25.9160401,27.9276276 C34.8191763,27.4333329 24.7128872,20.2693061 24.7128872,20.2693061 L17.3457998,19.4625558 Z" id="Path" fill="#B53D0A" fill-rule="nonzero"></path>
            </g>
            <path d="M306.284073,28.8352358 C308.651911,28.8352358 310.589233,26.8979141 310.589233,24.5300765 C310.589233,22.162239 308.651911,20.2249173 306.284073,20.2249173 C303.916236,20.2249173 301.978914,22.162239 301.978914,24.5300765 C301.978914,26.8979141 303.916236,28.8352358 306.284073,28.8352358 Z" id="Path" fill="#008AB6"></path>
            <path d="M283.749033,86.8868279 C287.874033,86.8868279 291.249033,83.5118279 291.249033,79.3868279 C291.249033,75.2618279 287.874033,71.8868279 283.749033,71.8868279 C279.624033,71.8868279 276.249033,75.2618279 276.249033,79.3868279 C276.249033,83.5118279 279.624033,86.8868279 283.749033,86.8868279 Z" id="Path" fill="#58BADB"></path>
            <path d="M497.583493,60.9229088 C499.477763,60.9229088 501.02762,59.3730515 501.02762,57.4787814 C501.02762,55.5845114 499.477763,54.034654 497.583493,54.034654 C495.689223,54.034654 494.139365,55.5845114 494.139365,57.4787814 C494.139365,59.3730515 495.689223,60.9229088 497.583493,60.9229088 Z" id="Path" fill="#0098C9"></path>
        </g>
    </g>
</svg>