<?xml version="1.0" encoding="UTF-8"?>
<svg width="484px" height="249px" viewBox="0 0 484 249" version="1.1" xmlns="http://www.w3.org/2000/svg" xmlns:xlink="http://www.w3.org/1999/xlink">
    <!-- Generator: Sketch 59.1 (86144) - https://sketch.com -->
    <title>Personas</title>
    <desc>Created with Sketch.</desc>
    <defs>
        <circle id="path-1" cx="47.8245506" cy="47.8245506" r="47.8245506"></circle>
        <linearGradient x1="99.982811%" y1="50.0000413%" x2="0.0187255522%" y2="50.0000413%" id="linearGradient-3">
            <stop stop-color="#808080" stop-opacity="0.25" offset="0%"></stop>
            <stop stop-color="#808080" stop-opacity="0.12" offset="54%"></stop>
            <stop stop-color="#808080" stop-opacity="0.1" offset="100%"></stop>
        </linearGradient>
    </defs>
    <g id="--layout-exploration" stroke="none" stroke-width="1" fill="none" fill-rule="evenodd">
        <g id="Home---illustration" transform="translate(-968.000000, -27.000000)">
            <g id="illustration" transform="translate(958.000000, 0.000000)">
                <g id="Personas">
                    <g id="donat-chart" transform="translate(103.921620, 27.000000)">
                        <path d="M140.653009,14.1739 C145.332411,14.1739 150.041296,14.4095869 154.764663,14.8899753 L154.76459,14.5602117 C158.001242,14.881236 161.247014,15.318133 164.493166,15.8709027 L164.493972,16.2257819 C167.817192,16.8012296 171.142479,17.5001954 174.464652,18.3257934 L174.4644,17.9433141 C175.488621,18.194055 176.510751,18.4580927 177.534212,18.7335278 C221.693441,30.6111234 255.259473,62.2828565 271.16305,101.643026 L271.664456,102.902684 C275.962382,113.771921 278.896328,125.201526 280.366531,136.942658 L280.3595,136.967352 L280.366531,137.014841 C281.065433,142.66031 281.423055,148.379862 281.423055,154.145003 C281.423055,166.19956 279.858981,178.449772 276.576725,190.639198 C274.637546,197.840401 272.175806,204.779465 269.206517,211.389906 L269.206517,211.393705 C267.746729,214.674153 266.169892,217.877579 264.482473,221.00025 L209.130596,221.000946 C209.600072,220.517443 210.064054,220.029305 210.522488,219.53664 L211.393043,218.590424 L211.597483,218.364535 C211.950799,217.971188 212.302217,217.574041 212.647935,217.176895 C213.316577,216.409204 213.966224,215.635813 214.608273,214.849121 C224.269395,203.001225 230.974814,188.969973 234.122372,174.015212 C234.515579,172.143492 234.8537,170.254669 235.134833,168.356346 C237.072377,155.298008 236.316355,141.669413 232.488757,128.281767 C231.911293,126.260689 231.259747,124.246642 230.543616,122.240005 C221.410569,96.7439431 202.546117,77.5349611 179.637518,67.2984557 C167.518375,61.882818 154.272798,58.9771858 140.730891,58.9771858 C136.846306,58.9771858 132.935128,59.216614 129.022051,59.7044014 C122.176065,60.5566518 115.316782,62.1726021 108.548678,64.5986178 C107.625496,64.9292567 106.713711,65.2737673 105.807624,65.6289191 C104.550691,66.1226964 103.309855,66.6405016 102.085456,67.1816151 C99.0878624,68.5240873 96.1880906,70.0056914 93.3957239,71.6151601 C91.9420527,72.4528626 90.5149847,73.3247571 89.1183202,74.2308435 C88.4342397,74.6753387 87.7596602,75.1255325 87.0888812,75.5852241 C86.5853219,75.9309426 86.0836629,76.2823598 85.5877045,76.637576 C61.5840779,93.7981302 46.9751576,121.193471 45.7780166,150.3364 C45.7628148,150.687818 45.7514135,151.037335 45.7400122,151.388752 C45.7115088,152.334729 45.6982072,153.282606 45.6982072,154.232382 C45.6982072,164.913564 47.5072203,175.782801 51.3190691,186.414594 C56.1209123,199.808713 63.6129755,211.468726 72.9659909,221.001068 L17.6517956,221.000062 C6.70889932,200.808237 0.681906314,177.926232 0.681906314,154.276072 C0.681906314,149.817862 0.896119189,145.332173 1.33192205,140.83222 L1.06821803,140.832365 C1.38924235,137.595714 1.82613934,134.349941 2.37890902,131.103789 L2.6192171,131.103458 C3.17755927,127.780629 3.85886939,124.455222 4.66609075,121.13251 L4.45132042,121.132555 C4.7020613,120.108334 4.96609905,119.086204 5.24153411,118.062743 C11.9885792,92.9781792 25.1227684,71.3118131 42.4251639,54.3594183 C44.6522392,52.164712 46.9489665,50.048496 49.3105326,48.0132246 L49.3535216,48.0121141 C60.9765943,38.0588378 74.157529,30.0652597 88.3319636,24.3609453 L89.41069,23.9324991 C100.279927,19.634573 111.709533,16.7006275 123.450665,15.2304244 L123.475359,15.2374552 L123.522848,15.2304244 C129.168317,14.5315221 134.887868,14.1739 140.653009,14.1739 Z" id="Combined-Shape" fill="#046363"></path>
                        <g id="Pie-pieses" transform="translate(84.546103, -0.000000)" opacity="0.4">
                            <path d="M125.189985,-5.68434189e-14 C163.951697,17.2474359 193.784302,48.0663974 210.443564,85.0978287 L143.225023,115.025202 C133.33103,93.065175 115.915717,76.460439 95.1903575,67.1993231 L113.450752,26.291496 L125.189985,-5.68434189e-14 Z" id="Combined-Shape" fill="#007373"></path>
                            <path d="M115.374999,21.986539 L95.1903575,67.1993231 C79.5950343,60.2302525 62.1286523,57.4173512 44.5748908,59.6052689 L38.500123,10.4675726 C56.5401698,8.22625869 75.3096446,9.36278252 93.9404522,14.3782331 C101.375299,16.3780286 108.548008,18.9212881 115.374999,21.986539" id="Fill-56" fill="#008383"></path>
                            <path d="M44.5748908,59.6052689 C37.7289049,60.4577092 30.869622,62.0738496 24.1015177,64.4998652 C23.1783354,64.8301241 22.2665503,65.1746347 21.360464,65.5299765 L-3.48165941e-13,11.2134104 C11.9329866,6.48565372 24.4852272,3.26059395 37.3812868,1.64787405 L37.4097801,1.65528492 L44.5748908,59.6052689" id="Fill-57" fill="#009392"></path>
                        </g>
                    </g>
                    <g id="code" transform="translate(45.921620, 114.575089)">
                        <mask id="mask-2" fill="white">
                            <use xlink:href="#path-1"></use>
                        </mask>
                        <use id="Oval" fill-opacity="0.6" fill="#007373" xlink:href="#path-1"></use>
                        <g mask="url(#mask-2)" fill="#009392" id="Combined-Shape">
                            <g transform="translate(69.000000, 42.167485) scale(1, -1) translate(-69.000000, -42.167485) translate(24.000000, 20.667485)">
                                <path d="M70.1511544,40.2449825 L70.1511544,42.5081404 L27.2044777,42.5081404 L27.2044777,40.2449825 L70.1511544,40.2449825 Z M59.602557,31.6847135 L59.602557,33.9478713 L31.725359,33.9478713 L31.725359,31.6847135 L59.602557,31.6847135 Z M84.4649553,25.1467018 L84.4649553,27.4098596 L39.2599099,27.4098596 L39.2599099,25.1467018 L84.4649553,25.1467018 Z M89.7415142,18.6086901 L89.7415142,20.871848 L46.7944609,20.871848 L46.7944609,18.6086901 L89.7415142,18.6086901 Z M82.2069633,12.0701754 L82.2069633,14.3333333 L39.2599099,14.3333333 L39.2599099,12.0701754 L82.2069633,12.0701754 Z M74.6720356,5.53216374 L74.6720356,7.79532164 L31.725359,7.79532164 L31.725359,5.53216374 L74.6720356,5.53216374 Z M70.1511544,-6.43929354e-15 L70.1511544,2.26315789 L27.2044777,2.26315789 L27.2044777,-6.43929354e-15 L70.1511544,-6.43929354e-15 Z" opacity="0.4"></path>
                                <path d="M24.181758,40.2449825 L24.181758,42.5081404 L11.3351991,42.5081404 L11.3351991,40.2449825 L24.181758,40.2449825 Z M28.7162155,31.6847135 L28.7162155,33.9478713 L15.8696565,33.9478713 L15.8696565,31.6847135 L28.7162155,31.6847135 Z M36.2733927,25.1467018 L36.2733927,27.4098596 L23.4268337,27.4098596 L23.4268337,25.1467018 L36.2733927,25.1467018 Z M43.8305699,18.6086901 L43.8305699,20.871848 L30.984011,20.871848 L30.984011,18.6086901 L43.8305699,18.6086901 Z M36.2733927,12.0701754 L36.2733927,14.3333333 L23.4268337,14.3333333 L23.4268337,12.0701754 L36.2733927,12.0701754 Z M28.7162155,5.53216374 L28.7162155,7.79532164 L15.8696565,7.79532164 L15.8696565,5.53216374 L28.7162155,5.53216374 Z M24.181758,-6.43929354e-15 L24.181758,2.26315789 L11.3351991,2.26315789 L11.3351991,-6.43929354e-15 L24.181758,-6.43929354e-15 Z" opacity="0.6"></path>
                                <path d="M5.10047523,40.2449825 L5.10047523,42.5081404 L-3.87245791e-13,42.5081404 L-3.87245791e-13,40.2449825 L5.10047523,40.2449825 Z M5.10047523,31.6847135 L5.10047523,33.9478713 L-3.87245791e-13,33.9478713 L-3.87245791e-13,31.6847135 L5.10047523,31.6847135 Z M5.10047523,25.1467018 L5.10047523,27.4098596 L-3.87245791e-13,27.4098596 L-3.87245791e-13,25.1467018 L5.10047523,25.1467018 Z M5.10047523,18.6086901 L5.10047523,20.871848 L-3.87245791e-13,20.871848 L-3.87245791e-13,18.6086901 L5.10047523,18.6086901 Z M5.10047523,12.0701754 L5.10047523,14.3333333 L-3.87245791e-13,14.3333333 L-3.87245791e-13,12.0701754 L5.10047523,12.0701754 Z M5.10047523,5.53216374 L5.10047523,7.79532164 L-3.87245791e-13,7.79532164 L-3.87245791e-13,5.53216374 L5.10047523,5.53216374 Z M5.10047523,-6.43929354e-15 L5.10047523,2.26315789 L-3.87245791e-13,2.26315789 L-3.87245791e-13,-6.43929354e-15 L5.10047523,-6.43929354e-15 Z" opacity="0.8"></path>
                            </g>
                        </g>
                    </g>
                    <g id="men" transform="translate(86.957499, 215.433434) rotate(4.000000) translate(-86.957499, -215.433434) translate(39.957499, 179.433434)">
                        <polygon id="Path" fill="#007373" opacity="0.8" points="56.6813835 28.9339682 49.1227023 34.8797968 34.1946896 53.1005031 35.89541 55.7855964 54.0357423 43.3187607 66.3183422 59.6215101 78.0340353 53.6759133 69.9086758 41.9762141"></polygon>
                        <path d="M12.2750168,57.4295428 L17.954236,57.8193149 L20.6044925,63.4697142 L14.1680898,66.197412 L12.2750168,57.4295428 Z M52.1490449,42.0906218 L58.4579545,43.5736684 L65.9139505,44.1298111 L71.4581335,50.4327608 L69.7375211,51.7304279 L55.7814472,47.0959043 L52.5314025,45.7982394 L46.031313,47.0959043 L46.0315638,47.0778215 C46.0385873,46.7443199 46.2422692,41.9116326 52.1490449,42.0906218 Z M66.4392176,13.2119134 C70.0479616,15.2931153 63.4002756,18.6987198 63.4002756,18.6987198 L59.4116621,24.9423279 L59.7915293,28.1587313 L56.5626547,30.9967304 L53.7136451,31.5643289 L53.092805,30.8428124 C52.1357528,29.7305649 51.9047704,28.1773306 52.4814687,26.8434798 L52.5740413,26.6451301 L60.5512659,16.2391181 C60.5512659,16.2391181 62.8304736,11.1307114 66.4392176,13.2119134 Z M74.5268877,3.50714765 C78.642894,3.50714765 81.9795764,6.84383007 81.9795764,10.9598364 C81.9795764,12.6977669 81.3846988,14.2967563 80.387457,15.5642913 C81.0565772,17.1843598 82.8563633,21.2784586 82.8563633,21.2784586 L82.8563633,21.2784586 L74.5125129,24.5500336 L71.4780629,17.7623912 C68.882154,16.5971444 67.0741989,13.9896257 67.0741989,10.9598364 C67.0741989,6.84383007 70.4108813,3.50714765 74.5268877,3.50714765 Z" id="Combined-Shape" fill="#F7A17D"></path>
                        <path d="M49.1877397,43.8393457 L77.7006701,52.7904192 L87.1379118,64.4079609 L84.4539514,66.0263457 L76.1739514,66.6063457 L53.2035975,58.503885 L17.6630372,64.5983407 L16.6589514,57.3611458 L49.1877397,43.8393457 Z" id="Combined-Shape" fill="#008383"></path>
                        <path d="M82.355711,19.7277056 L84.3414136,20.0531226 L91.1755527,25.7621305 C92.9226471,30.4958271 93.8167602,35.5030634 93.8161998,40.5503521 C93.8161998,45.0294747 93.112042,49.4806157 91.7298883,53.7400598 L91.1755664,55.4489645 L88.934969,65.7137056 L83.851969,66.0687056 L83.5820699,65.7251764 L79.4056452,62.6803852 L76.3682475,57.7325722 L73.7636839,53.3823106 L72.9511733,52.0235598 L70.1036116,37.7510401 L59.2828791,31.6614394 L55.675969,31.0905386 L56.4353196,28.9972365 L59.6625555,24.6203312 L62.8897845,24.2397199 L63.838971,23.4785204 L64.5983216,23.8591202 L67.6357193,22.1464178 L68.5849058,22.5270199 L74.1357513,23.044631 L77.5072722,22.3367188 L82.355711,19.7277056 Z" id="Combined-Shape" fill="#D45925"></path>
                        <path d="M14.1120048,60.8904744 C14.1120048,60.8904744 15.8435638,58.0410223 15.1121913,57.7083544 C14.3808189,57.3756865 11.2747946,56.0494959 11.2747946,56.0494959 L6.7198639,54.5838444 C6.7198639,54.5838444 0.147372901,45.0995641 0.00310571823,53.3472304 C-0.141161464,61.5948968 4.78868116,63.5774588 4.78868116,63.5774588 C4.78868116,63.5774588 9.18550612,72.7648905 11.6761147,71.2998538 C14.1667233,69.8348171 16.6589514,64.8616268 16.6589514,64.8616268 C16.6589514,64.8616268 12.1676168,62.5173662 14.1120048,60.8904744 Z" id="Path" fill="#026A6A"></path>
                        <polygon id="Path" fill="#000000" fill-rule="nonzero" opacity="0.1" points="91.185839 38.9641676 84.1319679 43.7317333 73.6034405 53.4840017 72.808932 52.1223999 70.5813465 40.6805189 71.1382429 40.6805189 76.8927639 29.8107551"></polygon>
                        <polygon id="Path" fill="#D45925" points="76.4472478 28.9339682 70.513358 39.6710993 68.4079111 39.6710993 67.0680602 43.4385217 64.0054447 44.1921884 72.2361226 53.0456083 83.9120983 42.6850828 91.185839 37.9756909"></polygon>
                        <path d="M68.7596268,5.75419811 L67.9601502,6.0599891 C67.7117358,5.89278201 67.5414928,5.63319492 67.4878143,5.33976992 C67.4341358,5.04634493 67.5015421,4.74379145 67.6748317,4.50034138 L66.197412,4.43161003 C68.1158514,1.89153247 71.0377293,0.291085925 74.2225194,0.035890504 C77.4073096,-0.219304917 80.5493141,0.895246191 82.8522175,3.09706995 C82.9194815,2.86676046 83.6527369,3.31484543 83.9521019,3.76918718 C84.0526914,3.39442384 84.74021,5.20605014 84.9833821,6.48662777 C85.0959621,6.06024828 85.5288213,6.74858038 85.1496004,7.4090639 C85.3898818,7.37416281 85.4984185,7.98531963 85.3124066,8.32580027 C85.5752694,8.20302917 85.5309664,8.93257144 85.2459545,9.42011368 C85.6210542,9.38698139 82.2876754,14.530063 80.9380439,17.5357383 C80.5461556,15.7456833 80.1055299,13.8607217 78.8418811,12.527323 C78.6270925,12.3006761 78.3918812,12.0942411 78.157052,11.8881721 L76.8869471,10.7736196 C75.4100534,9.47760693 74.0665669,7.87806316 72.0990912,7.39368569 C70.7469876,7.06081003 69.8920591,6.98565365 70.6289166,5.470997 C69.9631835,5.74718197 69.3414972,6.15789905 68.6697951,6.4144179 C68.6788172,6.20278098 68.7726944,5.96595325 68.7596268,5.75419811 Z" id="Path" fill="#B53D0A"></path>
                    </g>
                    <g id="thought-3" opacity="0.8" transform="translate(116.921620, 42.899640)">
                        <circle id="Oval" fill="#007373" opacity="0.6" cx="10.3755414" cy="19.3503603" r="10.25"></circle>
                        <path d="M15.560075,23.8976849 C10.908827,23.8976849 6.71557086,21.0958406 4.93561546,16.7986477 C3.15566006,12.5014549 4.13953715,7.55517203 7.42846636,4.26624327 C10.7173956,0.977314501 15.6636785,-0.00656192857 19.9608712,1.77339404 C24.2580638,3.55335001 27.0599069,7.74660651 27.0599069,12.3978545 C27.0527167,18.7460554 21.9082758,23.8904955 15.560075,23.8976849 L15.560075,23.8976849 Z" id="Path" stroke="#009392" stroke-width="0.5" opacity="0.6"></path>
                    </g>
                    <g id="thought-3" opacity="0.6" transform="translate(35.000000, 105.899640) rotate(-90.000000) translate(-35.000000, -105.899640) translate(19.000000, 88.899640)">
                        <circle id="Oval" fill="#007373" cx="19.9372293" cy="11.5627707" r="11.5627707"></circle>
                        <path d="M13.9644816,33.8976849 C8.34077028,33.8976849 3.27080587,30.5100428 1.11870491,25.314411 C-1.03339605,20.1187792 0.156185911,14.1383484 4.13275055,10.1617843 C8.10931519,6.1852202 14.0897461,4.99563904 19.2853777,7.14774069 C24.4810092,9.29984234 27.8686498,14.3698072 27.8686498,19.9935185 C27.8599563,27.6689744 21.6399375,33.8889924 13.9644816,33.8976849 L13.9644816,33.8976849 Z" id="Path" stroke="#009392" stroke-width="0.5"></path>
                    </g>
                    <g id="thought-3" opacity="0.6" transform="translate(423.921620, 67.899640) rotate(-90.000000) translate(-423.921620, -67.899640) translate(402.921620, 44.399640)" stroke="#009392" stroke-width="0.5">
                        <path d="M22.0217392,38.482649 C14.2642744,38.482649 7.27065967,33.8096649 4.30200667,26.6427019 C1.33335368,19.4757388 2.97428787,11.2262077 8.45964416,5.74085217 C13.9450005,0.255496608 22.1945318,-1.38543648 29.3614944,1.58321747 C36.528457,4.55187143 41.2014392,11.5454868 41.2014392,19.3029516 C41.1894472,29.8906358 32.6094234,38.4706585 22.0217392,38.482649 L22.0217392,38.482649 Z" id="Path"></path>
                    </g>
                    <g id="thought-3" transform="translate(35.000000, 181.267912) rotate(45.000000) translate(-35.000000, -181.267912) translate(15.000000, 152.267912)" opacity="0.6">
                        <circle id="Oval" fill="#007373" cx="20.5783102" cy="41.7858433" r="16.1178016"></circle>
                        <path d="M19.8895587,38.8668667 C12.050446,38.8668667 4.98322291,34.144699 1.9833246,26.9023031 C-1.0165737,19.6599073 0.641631451,11.3235492 6.18472156,5.78045982 C11.7278117,0.23737045 20.06417,-1.42083359 27.3065654,1.57906568 C34.5489609,4.57896495 39.2711266,11.6461887 39.2711266,19.4853014 C39.2590084,30.1844218 30.5886791,38.8547499 19.8895587,38.8668667 L19.8895587,38.8668667 Z" id="Path" stroke="#009392" stroke-width="0.5"></path>
                    </g>
                    <g id="code-bubble" transform="translate(413.921620, 100.899640)">
                        <g id="Group-2" transform="translate(40.065042, 39.995023) scale(-1, 1) translate(-40.065042, -39.995023) translate(0.565042, 0.495023)">
                            <circle id="Oval" stroke="#046363" cx="39.5178068" cy="39.5107728" r="39"></circle>
                            <path d="M60.5882353,61.4569338 C60.7233076,61.4569338 60.8328054,61.7255637 60.8328054,62.0569338 C60.8328054,62.3883039 60.7233076,62.6569338 60.5882353,62.6569338 L28.8918975,62.6569338 C28.8043982,62.6573849 28.7234665,62.5431248 28.6796636,62.3572988 C28.6358606,62.1714727 28.6358606,61.9423949 28.6796636,61.7565689 C28.7234665,61.5707428 28.8043982,61.4564827 28.8918975,61.4569338 L60.5882353,61.4569338 Z M24.0983156,61.4569338 C24.1858149,61.4564827 24.2667466,61.5707428 24.3105495,61.7565689 C24.3543525,61.9423949 24.3543525,62.1714727 24.3105495,62.3572988 C24.2667466,62.5431248 24.1858149,62.6573849 24.0983156,62.6569338 L18.3264523,62.6569338 C18.238953,62.6573849 18.1580213,62.5431248 18.1142184,62.3572988 C18.0704154,62.1714727 18.0704154,61.9423949 18.1142184,61.7565689 C18.1580213,61.5707428 18.238953,61.4564827 18.3264523,61.4569338 L24.0983156,61.4569338 Z M38.4790611,58.0944057 C38.5665604,58.0939546 38.6474921,58.2082147 38.691295,58.3940407 C38.735098,58.5798668 38.735098,58.8089446 38.691295,58.9947706 C38.6474921,59.1805967 38.5665604,59.2948567 38.4790611,59.2944057 L18.3264523,59.2944057 C18.238953,59.2948567 18.1580213,59.1805967 18.1142184,58.9947706 C18.0704154,58.8089446 18.0704154,58.5798668 18.1142184,58.3940407 C18.1580213,58.2082147 18.238953,58.0939546 18.3264523,58.0944057 L38.4790611,58.0944057 Z M47.0879433,58.0944064 C47.2230156,58.0944064 47.3325134,58.3630355 47.3325134,58.6944064 C47.3325134,59.0257772 47.2230156,59.2944064 47.0879433,59.2944064 L41.3160788,59.2944064 C41.1810065,59.2944064 41.0715087,59.0257772 41.0715087,58.6944064 C41.0715087,58.3630355 41.1810065,58.0944064 41.3160788,58.0944064 L47.0879433,58.0944064 Z M47.0879433,54.8519683 C47.2230159,54.8519683 47.3325139,55.1205975 47.3325139,55.4519683 C47.3325139,55.7833392 47.2230159,56.0519683 47.0879433,56.0519683 L41.3160788,56.0519683 C41.1810062,56.0519683 41.0715081,55.7833392 41.0715081,55.4519683 C41.0715081,55.1205975 41.1810062,54.8519683 41.3160788,54.8519683 L47.0879433,54.8519683 Z M56.772935,54.8519683 C56.9080076,54.8519683 57.0175056,55.1205975 57.0175056,55.4519683 C57.0175056,55.7833392 56.9080076,56.0519683 56.772935,56.0519683 L51.0010716,56.0519683 C50.865999,56.0519683 50.756501,55.7833392 50.756501,55.4519683 C50.756501,55.1205975 50.865999,54.8519683 51.0010716,54.8519683 L56.772935,54.8519683 Z M38.4301477,54.7919226 C38.5652203,54.7919226 38.6747183,55.0605518 38.6747183,55.3919226 C38.6747183,55.7232935 38.5652203,55.9919226 38.4301477,55.9919226 L18.2775377,55.9919226 C18.142465,55.9919226 18.032967,55.7232935 18.032967,55.3919226 C18.032967,55.0605518 18.142465,54.7919226 18.2775377,54.7919226 L38.4301477,54.7919226 Z M60.5882353,51.4894402 C60.7233079,51.4894402 60.8328059,51.7580693 60.8328059,52.0894402 C60.8328059,52.420811 60.7233079,52.6894402 60.5882353,52.6894402 L28.8918975,52.6894402 C28.7568248,52.6894402 28.6473268,52.420811 28.6473268,52.0894402 C28.6473268,51.7580693 28.7568248,51.4894402 28.8918975,51.4894402 L60.5882353,51.4894402 Z M24.0983156,51.4894402 C24.2333883,51.4894402 24.3428863,51.7580693 24.3428863,52.0894402 C24.3428863,52.420811 24.2333883,52.6894402 24.0983156,52.6894402 L18.3264523,52.6894402 C18.1913796,52.6894402 18.0818816,52.420811 18.0818816,52.0894402 C18.0818816,51.7580693 18.1913796,51.4894402 18.3264523,51.4894402 L24.0983156,51.4894402 Z M38.5279757,48.1869565 C38.6630484,48.1869565 38.7725464,48.4555856 38.7725464,48.7869565 C38.7725464,49.1183273 38.6630484,49.3869565 38.5279757,49.3869565 L18.3753657,49.3869565 C18.2402931,49.3869565 18.1307951,49.1183273 18.1307951,48.7869565 C18.1307951,48.4555856 18.2402931,48.1869565 18.3753657,48.1869565 L38.5279757,48.1869565 Z" id="Combined-Shape" fill="#007373" opacity="0.8" transform="translate(39.432886, 55.421946) scale(-1, 1) translate(-39.432886, -55.421946) "></path>
                            <path d="M52.2947759,22.6965504 L61.0026466,31.1036616 L52.2947759,39.5107728 L50.2602267,37.5469242 L56.9335481,31.1036616 L50.2602267,24.660399 L52.2947759,22.6965504 Z M26.3557477,22.6965504 L28.3018382,24.660399 L21.9186612,31.1036616 L28.3083252,37.5469242 L26.3622346,39.5107728 L18.032967,31.1036616 L26.3557477,22.6965504 Z M34.5877107,29.2354147 L34.5877107,31.5707233 L32.0448191,31.5707233 L32.0448191,29.2354147 L34.5877107,29.2354147 Z M45.1225476,29.2354147 L45.1225476,31.5707233 L42.5796559,31.5707233 L42.5796559,29.2354147 L45.1225476,29.2354147 Z M40.0367643,29.2354147 L40.0367643,31.5707233 L37.4938726,31.5707233 L37.4938726,29.2354147 L40.0367643,29.2354147 Z" id="Combined-Shape" fill="#007373" opacity="0.8"></path>
                        </g>
                    </g>
                    <g id="men-with-chart" transform="translate(245.921620, 191.000000) scale(-1, 1) translate(-245.921620, -191.000000) translate(179.421620, 108.500000)">
                        <g id="chart">
                            <path d="M30.062758,65.5824487 C30.4731456,65.5824487 30.8667248,65.7015362 31.1569127,65.9135134 C31.4471006,66.1254905 31.6101264,66.4129932 31.6101264,66.7127742 L31.61,106.612 L21.61,106.612 L21.6101264,66.7127742 C21.6101264,66.0885127 22.3029069,65.5824487 23.1574948,65.5824487 L30.062758,65.5824487 Z M48.3328844,75.7066794 C49.1874724,75.7066794 49.8802528,76.2127433 49.8802528,76.8370049 L49.88,106.612 L39.88,106.612 L39.8802528,76.8370049 C39.8802528,76.2127433 40.5730333,75.7066794 41.4276212,75.7066794 L48.3328844,75.7066794 Z M66.5930108,47 C67.4475988,47 68.1403792,47.506064 68.1403792,48.1303255 L68.14,106.612 L58.14,106.612 L58.1403792,48.1303255 C58.1403792,47.506064 58.8331597,47 59.6877477,47 L66.5930108,47 Z M84.8633901,69.7900544 C85.717978,69.7900544 86.4107585,70.2091835 86.4107585,70.7262055 L86.4102528,106.612 L76.4102528,106.612 L76.4107585,70.7262055 C76.4107585,70.2091835 77.1035389,69.7900544 77.9581269,69.7900544 L84.8633901,69.7900544 Z" id="Shape" fill="#007373" opacity="0.8"></path>
                            <polyline id="Path" stroke="#026A6A" stroke-width="2" stroke-linecap="round" points="5.66399675 38.7817684 24.9447074 23.0148016 43.2254181 32.3701033 61.5061288 3.66342398 82.5 24.4264667"></polyline>
                            <path d="M5.66399675,33.0089154 C8.4254205,33.0089154 10.6639968,35.2474916 10.6639968,38.0089154 C10.6639968,40.7703391 8.4254205,43.0089154 5.66399675,43.0089154 C2.90257301,43.0089154 0.663996754,40.7703391 0.663996754,38.0089154 C0.663996754,35.2474916 2.90257301,33.0089154 5.66399675,33.0089154 Z M44.8762626,28.7817684 C47.6376863,28.7817684 49.8762626,31.0203447 49.8762626,33.7817684 C49.8762626,36.5431922 47.6376863,38.7817684 44.8762626,38.7817684 C42.1148389,38.7817684 39.8762626,36.5431922 39.8762626,33.7817684 C39.8762626,31.0203447 42.1148389,28.7817684 44.8762626,28.7817684 Z M113.681359,21.4264667 C116.442783,21.4264667 118.681359,23.6650429 118.681359,26.4264667 C118.681359,29.1878904 116.442783,31.4264667 113.681359,31.4264667 C110.919936,31.4264667 108.681359,29.1878904 108.681359,26.4264667 C108.681359,23.6650429 110.919936,21.4264667 113.681359,21.4264667 Z M26.6079759,19.4264667 C29.3693997,19.4264667 31.6079759,21.6650429 31.6079759,24.4264667 C31.6079759,27.1878904 29.3693997,29.4264667 26.6079759,29.4264667 C23.8465522,29.4264667 21.6079759,27.1878904 21.6079759,24.4264667 C21.6079759,21.6650429 23.8465522,19.4264667 26.6079759,19.4264667 Z M63.1445493,0.0750890604 C65.905973,0.0750890604 68.1445493,2.31366531 68.1445493,5.07508906 C68.1445493,7.83651281 65.905973,10.0750891 63.1445493,10.0750891 C60.3831255,10.0750891 58.1445493,7.83651281 58.1445493,5.07508906 C58.1445493,2.31366531 60.3831255,0.0750890604 63.1445493,0.0750890604 Z" id="Combined-Shape" fill="#008383"></path>
                        </g>
                        <g id="men" transform="translate(82.000000, 19.000000)">
                            <path d="M0.052098419,6.33259458 C0.111820344,6.89624509 0.335610823,7.42998538 0.695739727,7.8676791 C1.16237968,8.39546497 1.8607305,8.63683046 2.48828077,8.9522147 C4.11234627,9.78346656 5.35283638,11.209569 5.95107101,12.9331362 C7.02273379,16.0612329 7.16111667,19.3695493 8.52563624,22.388227 C9.89015582,25.4069047 11.4928227,28.3065088 12.6706863,31.3992053 C13.3400732,33.1531279 13.8742955,34.977851 14.8558485,36.5740814 C15.3310418,37.3591219 15.9373425,38.0568576 16.6483896,38.6369518 C16.5743708,39.7697605 16.5454069,40.8896964 16.5518434,42.0225051 C16.9938497,42.0137926 17.4094051,42.232506 17.65247,42.6017823 C17.8906231,42.9686862 18.0546195,43.3786771 18.135201,43.8086097 C18.5760953,45.6333329 18.0322184,47.5771296 18.4280578,49.4115073 C19.5155618,54.5140581 19.1816092,59.8172254 17.4625958,64.7430433 C17.0217015,65.9917074 16.46817,70.1238846 16.9380281,71.3628942 C18.6887325,71.1858928 20.2399081,72.2607738 21.8779752,72.9719974 C22.0104202,73.9428747 21.9313773,74.9309107 21.6462643,75.8683833 C21.0573325,77.5643782 21.0605507,79.4084105 21.0702053,81.2009515 L21.1506605,94.4792717 C21.1506605,96.1623938 21.1731879,97.8680432 21.594773,99.4996739 C22.0742858,101.33727 23.0815844,103.210266 23.0494024,105.109008 C22.9625108,109.19613 24.8934347,113.09016 24.7389608,117.1451 C24.7099969,117.923906 24.6037961,118.696276 24.5297774,119.468646 C24.3397214,121.526187 24.3915667,123.598917 24.6842513,125.644384 C25.2699649,129.718633 26.8179222,133.725301 26.4317374,137.822077 C26.4059918,138.098843 26.3126638,138.465719 26.0519891,138.57192 C26.3738097,138.935577 26.7149396,139.296016 27.0625059,139.640364 C26.9921756,139.757634 26.8965139,139.857694 26.782522,139.933221 C26.4022442,140.131816 25.9819755,140.241834 25.5531671,140.255042 C25.0500662,140.268241 24.5615743,140.426973 24.1468108,140.712027 C23.845322,141.001288 23.6407268,141.376754 23.5610972,141.786908 C23.3294015,142.607052 23.4706682,143.487614 23.947282,144.194126 C24.2346309,144.555848 24.6103792,144.837382 25.038254,145.011551 C26.5250654,145.655192 28.2307149,145.188552 29.7818904,144.718694 L35.8578644,142.87788 C36.2284709,142.8009 36.5704717,142.622659 36.8458538,142.362967 C36.9718477,142.214127 37.0552466,142.033985 37.0872193,141.841617 C38.4292114,142.163438 39.90315,141.767599 41.2708878,141.358886 L47.3468617,139.514854 C47.7179885,139.439337 48.0603705,139.260897 48.3348512,138.999941 C48.5562604,138.730651 48.6470017,138.377113 48.5826531,138.034479 C48.627708,138.01517 48.6727628,138.002297 48.7178177,137.97977 C49.1812395,137.770586 49.6832797,137.361874 49.5706425,136.869488 C49.4901873,136.547668 49.1683667,136.361012 49.0299838,136.064937 C48.8975216,135.673157 48.9833183,135.240497 49.2552582,134.92891 C49.4934055,134.607089 49.8152262,134.339978 50.0340642,134.002066 C50.7356332,132.927185 50.2593387,131.514393 49.9954457,130.256074 C49.4258232,127.568871 49.953609,124.762595 49.5931699,122.039993 C49.4708781,121.122804 49.2488218,120.221706 49.0718205,119.310953 C48.6967525,117.158319 48.4485227,114.985502 48.3284147,112.80374 C48.0967039,109.688516 47.2310063,106.618347 47.7266101,103.528869 C47.967278,101.715626 48.0694835,99.8866851 48.0323397,98.0579174 C48.0673545,96.8929375 48.0168001,95.7269589 47.881084,94.5693815 C47.755574,93.7069022 47.5335177,92.8605138 47.4369715,91.9948163 C47.3586422,91.0217363 47.3414446,90.0447003 47.3854802,89.0694665 C47.4298544,86.8954884 47.2290582,84.7234349 46.7868938,82.594435 C46.1432525,79.6690852 44.9332068,76.8692455 44.4182938,73.9374594 C44.5920769,73.9760779 44.7658601,74.0146963 44.9332068,74.0597512 C44.9525161,71.8070067 42.9797555,66.9088963 42.2492226,64.7720072 C42.1422867,64.5102573 42.0771285,64.233335 42.0561302,63.9513645 C42.1002991,63.5794986 42.1680174,63.2108097 42.2588772,62.8475196 C42.3522052,62.0687137 41.9370566,61.3285262 41.8244193,60.5497202 C41.780538,60.0018868 41.8206933,59.4505644 41.943493,58.9148713 C42.4616242,56.0345764 43.1052655,53.176809 43.7489068,50.3222598 C44.0295362,49.2883913 44.1264811,48.2132829 44.0353272,47.1458899 C43.8839904,46.0013471 44.236163,44.8473947 45.0007892,43.9823929 C45.2835586,43.7214958 45.5245224,43.418663 45.715231,43.0845133 C45.822258,42.7977684 45.8704165,42.4923996 45.8568321,42.1866337 C45.8440503,40.8628558 45.6491289,39.5471362 45.2775549,38.2765127 C45.8439593,37.2499048 46.0531427,35.9883679 46.2172713,34.7976314 C46.5777104,32.1683567 46.9381495,29.5262091 46.9252767,26.8711887 C46.9539503,25.4548144 46.758443,24.0428168 46.3459995,22.6875202 C46.0447244,21.8504975 45.6766639,21.0390425 45.2453729,20.2609925 C43.5525962,17.0009493 41.9338383,13.5703411 39.7969492,10.5838454 C39.1533079,9.67631117 39.5588019,8.42442883 39.6038568,7.30449295 C39.6521299,5.9528462 39.1179076,4.65590897 38.59334,3.41368124 C38.3257201,2.64914903 37.9150684,1.94252226 37.3832943,1.33150161 C37.0198163,0.931453243 36.507689,0.698668099 35.9672834,0.687860302 C35.3542021,0.762767293 34.8036611,1.09966548 34.4579446,1.61148558 C33.6718287,2.68229191 33.346247,4.02285401 33.5536285,5.33495055 C33.7674251,6.63527399 34.3340296,7.85197091 35.1916956,8.8524503 C35.6059756,9.35587211 36.0804504,9.80656912 36.6044883,10.1944424 C37.1365651,11.8850736 37.6729329,13.574632 38.2135916,15.2631177 C39.0631981,17.9503202 39.9128046,20.6503955 41.1099775,23.1927786 C41.460762,23.9297479 41.8469468,24.6795901 41.8887835,25.4937963 C41.9338383,26.3723667 41.5669628,27.2091004 41.274106,28.0361795 C40.6571387,29.7600129 40.307671,31.5681285 40.2378435,33.3977116 C40.1437606,33.4394273 40.053335,33.4889461 39.9675141,33.5457491 C38.9537791,34.2086996 38.6351766,35.6536744 37.5796049,36.2458244 C36.9649274,36.5901725 36.2183035,36.567645 35.5296073,36.7253372 C35.4684614,36.7253372 35.4073155,36.7575192 35.3429513,36.7768285 C35.3172057,36.6481002 35.29146,36.5225901 35.275369,36.3906437 C35.2654882,36.3083385 35.2654882,36.2251469 35.275369,36.1428418 C36.9163044,35.2406408 38.2947298,33.9276434 39.2755997,32.3324852 C39.4822784,32.0370702 39.6418689,31.7113753 39.7486761,31.3670233 C39.8355377,30.9543854 39.8518597,30.5300133 39.7969492,30.1119227 C39.7431942,28.7164722 39.5436529,27.3304691 39.201581,25.9765273 C38.8582402,24.6160409 38.1069726,23.3931254 37.0486008,22.4719004 C36.5208149,22.0470971 35.9125739,21.7284947 35.3880062,21.3004732 C34.3646166,20.4733941 33.6630475,19.2504756 32.4916204,18.6357982 C30.9516224,17.8857855 29.094899,18.3659961 28.1116413,19.7686069 C27.955815,20.082587 27.7366683,20.3609033 27.4679999,20.5860313 C27.2630875,20.6829752 27.063295,20.7903905 26.8694135,20.907852 C26.5154108,21.1910542 26.4961016,21.7349311 26.611957,22.1758254 C26.8315559,23.0817587 26.9545344,24.0084126 26.9788325,24.9402648 C24.833787,27.4575424 24.8256165,31.1574051 26.9595233,33.684132 C26.9595233,34.2827184 26.9595233,34.8813048 26.9369959,35.4798912 C26.9369959,35.5925284 26.9369959,35.7083839 26.9144684,35.8210211 C26.5433307,35.6917025 26.2111227,35.4702306 25.9490065,35.1773798 C25.5885673,34.7268309 25.5242032,34.0638803 25.0833089,33.6937866 C24.7662563,33.4847524 24.4048309,33.3525236 24.0277372,33.3076018 C23.0905143,33.0946802 22.2115736,32.678282 21.4531719,32.0879015 C20.8578037,31.627698 20.2399081,31.0387662 19.5447754,30.9036015 C18.3453029,28.653672 16.945058,26.5166828 15.3611069,24.5186797 C14.9593981,24.0457078 14.5936467,23.5433376 14.2669167,23.0157773 C13.5750023,21.8089498 13.3690371,20.3897207 12.931361,19.0670379 C11.7084425,15.3596639 8.65758271,12.3860411 7.914177,8.54993888 C7.64384765,7.15967366 6.76205906,5.949628 6.15703623,4.66878179 C5.748324,3.80308423 5.29777508,2.88911358 4.48035062,2.39350977 C3.42799708,1.74986846 1.97336772,2.04594346 1.09801554,2.91164102 C0.239343359,3.82899282 -0.146778783,5.09190924 0.052098419,6.33259458 L0.052098419,6.33259458 Z M38.2618647,136.570195 C37.8815869,136.76879 37.4613183,136.878808 37.0325098,136.892016 C36.8162372,136.914519 36.6013657,136.948899 36.3888685,136.994998 C36.3084133,136.319175 36.2633584,135.633697 36.2118671,134.967528 C36.0413022,132.782366 35.7001723,130.613295 35.3622606,128.447442 C35.0082579,126.194697 34.8409111,123.729551 34.074978,121.566916 C32.8424049,118.046198 31.5937407,114.419279 31.7514328,110.689378 C31.7868331,109.84299 31.8930339,109.003038 31.9380888,108.159868 C32.0410714,106.071252 31.7482146,103.937581 32.2599095,101.906892 C32.4884021,100.983267 32.8778051,100.101479 33.0258426,99.1617623 C33.1202658,98.313122 33.131045,97.4572554 33.0580247,96.6065063 C32.9173734,93.6532835 33.1629605,90.6943369 33.7885576,87.8047114 C34.387144,88.5867356 34.5834546,89.5972524 34.7540196,90.5659326 L35.960847,97.1117647 C36.6785071,100.99614 37.3124938,105.115444 39.2144538,108.571798 C38.9473427,109.817244 38.6834497,111.146363 39.124344,112.3371 C39.3142182,112.852013 39.6263843,113.302562 39.8194766,113.823911 C40.1412973,114.689609 40.0962424,115.642198 40.1927886,116.559387 C40.401972,118.490311 41.2000873,120.389053 40.6143737,122.252394 C40.011904,124.173758 39.6201977,126.15495 39.4461647,128.161021 C39.4141633,128.718905 39.34969,129.27445 39.2530723,129.824834 C39.1500897,130.320438 38.9827429,130.790296 38.889415,131.298773 C38.7607361,132.01234 38.7926174,132.74561 38.9827429,133.445317 C39.1272383,133.833117 39.2160848,134.239427 39.2466359,134.652144 C39.2466359,135.064074 38.7413775,135.360149 38.3358834,135.424514 C38.4549571,135.578987 38.5836853,135.727025 38.7156318,135.871844 C38.6381665,136.145018 38.4800059,136.388428 38.2618647,136.570195 L38.2618647,136.570195 Z" id="Shape" fill="url(#linearGradient-3)" fill-rule="nonzero"></path>
                            <path d="M38.905506,135.691625 C39.4332919,135.096256 40.1927886,135.279694 40.9651582,135.279694 C43.0409014,135.318313 45.1713541,135.530714 47.0636596,136.451121 C47.5788166,136.668736 48.024165,137.023902 48.3509422,137.477729 C48.6779613,137.949694 48.6676035,138.577637 48.3251965,139.03856 C48.0496303,139.297359 47.7075815,139.474512 47.3372071,139.550254 L47.3372071,139.550254 L41.2612332,141.381414 C39.9018588,141.790354 38.4263215,142.199295 37.0793733,141.860983 C37.0414935,142.04363 36.9631148,142.221118 36.8458538,142.379058 C36.5702875,142.637858 36.2282388,142.81501 35.8578644,142.890753 L35.8578644,142.890753 L29.7818904,144.718694 C28.2307149,145.185334 26.5250654,145.655192 25.038254,145.011551 C24.610597,144.838541 24.234824,144.558097 23.947282,144.197345 C23.4714203,143.497785 23.3299985,142.623328 23.5610972,141.809435 C23.6393299,141.400631 23.8442501,141.02682 24.1468108,140.740991 C24.5615743,140.455937 25.0500662,140.297205 25.5531671,140.284005 C25.9823217,140.27153 26.4033354,140.163803 26.7857402,139.968621 C27.204107,139.695074 27.1526157,139.350726 27.4293815,139.028905 C27.9539491,138.433537 28.7166641,138.620193 29.4890337,138.620193 C31.3335412,138.654509 33.2212481,138.823506 34.9444132,139.506535 C34.9123893,139.162641 34.9437344,138.810492 35.0404399,138.468937 C35.1194981,138.06043 35.3242875,137.686858 35.6261535,137.400492 C36.0415679,137.11676 36.5296597,136.958159 37.0325098,136.943507 C37.4610338,136.933867 37.8816234,136.825967 38.2618647,136.628123 C38.6802315,136.354575 38.6287402,136.013445 38.905506,135.691625 Z" id="Combined-Shape" fill="#005E7D"></path>
                            <path d="M31.7514328,71.002455 C35.3320812,70.642667 38.9340144,70.5415677 42.5292066,70.6999436 C42.7664417,70.6975145 43.002434,70.7344903 43.2275574,70.8093626 C44.0192362,71.1311833 44.141528,72.1674458 44.2155468,73.0138341 C44.5373674,76.4508787 46.0370517,79.6529942 46.790112,83.0192382 C47.232347,85.1351775 47.4331593,87.2944493 47.3886984,89.4556513 C47.345199,90.4212391 47.3623966,91.3886058 47.4401897,92.3520372 C47.5367359,93.2112984 47.7620104,94.0544685 47.8843022,94.9105114 C48.0200754,96.0605407 48.0706318,97.2190349 48.0355579,98.3765199 C48.0723752,100.191376 47.9701666,102.006386 47.7298283,103.805634 C47.2342245,106.872585 48.0999221,109.920227 48.3316329,113.022578 C48.4471102,115.192384 48.6910486,117.353442 49.0621658,119.494391 C49.2391672,120.398707 49.4612234,121.293369 49.5835153,122.204121 C49.9439544,124.910633 49.4161686,127.6976 49.9857911,130.368711 C50.249684,131.617375 50.7259786,133.020513 50.0244096,134.088958 C49.8055715,134.410779 49.4837509,134.684326 49.2456036,135.009365 C48.9735578,135.318341 48.8876199,135.749259 49.0203291,136.138955 C49.158712,136.431812 49.4805327,136.624905 49.5609878,136.937071 C49.6864979,137.429456 49.1715849,137.831732 48.7081631,138.040915 C45.216409,139.617837 40.7141381,138.507555 38.3584109,135.485659 C38.7639049,135.421295 39.2595087,135.128439 39.2691633,134.716508 C39.2382253,134.306983 39.1493767,133.903914 39.0052704,133.519335 C38.8157318,132.825021 38.7838445,132.097111 38.9119424,131.388883 C39.0052704,130.893279 39.1726171,130.423421 39.2755997,129.924599 C39.3722143,129.377457 39.4366889,128.825124 39.4686921,128.27044 C39.6427606,126.277009 40.0344962,124.308619 40.6369011,122.400432 C41.2226147,120.549963 40.4244995,118.676967 40.2153161,116.746043 C40.1187699,115.832072 40.1606065,114.889138 39.8420041,114.026658 C39.6489117,113.518182 39.3367457,113.061196 39.1468715,112.55272 C38.7059772,111.365201 38.9698701,110.045737 39.2369813,108.809945 C37.3350212,105.376119 36.7010345,101.28256 35.9833745,97.4239307 L34.776547,90.9231535 C34.5963274,89.9576915 34.4000168,88.9568293 33.811085,88.1780233 C33.1855161,91.0480483 32.9399015,93.9878494 33.0805522,96.9218905 C33.1535368,97.7672709 33.142757,98.6177964 33.0483701,99.4610555 C32.9003326,100.394335 32.5109296,101.272906 32.2824369,102.186876 C31.7836149,104.204692 32.0764717,106.322272 31.9606163,108.398015 C31.9155614,109.237967 31.8093606,110.071482 31.7739603,110.911434 C31.6162682,114.618808 32.8649323,118.2232 34.0975054,121.72139 C34.853784,123.867934 35.0211307,126.307334 35.384788,128.553643 C35.7066087,130.706623 36.0638296,132.859603 36.2343946,135.031892 C36.3920867,137.02718 36.4628872,139.186597 37.705115,140.753864 C36.569088,141.490833 35.3976609,142.240675 34.0685416,142.494913 C32.5196425,142.737241 30.9347776,142.429832 29.5887981,141.625998 C28.2504395,140.825752 27.0541768,139.808929 26.0487709,138.616974 C26.3094456,138.526865 26.4027736,138.147116 26.4285192,137.873569 C26.814704,133.799319 25.2667467,129.828052 24.6810331,125.773112 C24.3882459,123.741689 24.3363955,121.682796 24.5265592,119.63921 C24.6005779,118.870059 24.7067787,118.100908 24.7357426,117.328538 C24.8902165,113.302562 22.949638,109.424623 23.0204385,105.395428 C23.0526206,103.506341 22.0549765,101.646218 21.5658091,99.8214946 C21.1442241,98.2123913 21.1313513,96.5067419 21.1216966,94.8332745 L21.0412415,81.6386276 C21.0412415,79.8557412 21.0412415,78.0277999 21.6173005,76.3446779 C22.3253059,74.3172078 21.5143178,71.9904444 21.392026,69.8471189 C24.7361681,70.9069869 28.255957,71.2995325 31.7514328,71.002455 L31.7514328,71.002455 Z" id="Path" fill="#008AB6"></path>
                            <path d="M32.0153258,23.3987439 C35.7033611,23.3987439 38.6931044,26.3884872 38.6931044,30.0765224 C38.6931044,32.5065251 37.3951564,34.6333758 35.4547198,35.8016152 C35.328793,36.2756307 35.2023024,36.7635367 35.2496234,37.1083037 C35.4105337,38.3151312 36.0573932,39.3964486 36.6881617,40.4391475 C37.0679101,41.0827888 37.5538592,41.7682668 38.297265,41.8390673 C36.3624838,42.8544507 34.3300543,43.6717354 32.2309456,44.2784679 C31.5174919,44.5181756 30.7694588,44.6388612 30.0168195,44.6357498 C29.3790322,44.5881069 28.7547128,44.4279412 28.1727872,44.1626125 C25.5940271,43.0396141 23.6733954,40.7951205 22.9625108,38.0737657 C23.7939173,38.095914 24.6253921,38.0322862 25.443748,37.8838915 C25.9110697,37.8480003 26.3466612,37.6336616 26.6602301,37.2853051 C26.8467109,36.9590694 26.9339493,36.5855102 26.9112502,36.2104241 C26.9285716,35.6111033 26.9375024,35.0108502 26.9365372,34.4106684 C25.939246,33.2449952 25.3375472,31.7310259 25.3375472,30.0765224 C25.3375472,26.3884872 28.3272905,23.3987439 32.0153258,23.3987439 Z M1.08836093,3.85135733 C1.9637131,2.98903417 3.41834246,2.69280298 4.470696,3.33644429 C5.28812046,3.82239347 5.73866938,4.72992772 6.14738161,5.58918886 C6.75240444,6.87647148 7.63419303,8.0672079 7.90452238,9.45103671 C8.64792809,13.2581751 11.6987879,16.2157069 12.9217064,19.8973351 C13.3593825,21.2103634 13.5653477,22.6199379 14.2572621,23.8203289 C14.5840748,24.3447825 14.9498346,24.8439371 15.3514523,25.3135768 C17.2735906,27.7182038 18.9258518,30.3266397 20.2785265,33.091982 C20.8610219,34.292373 20.1465801,35.7856208 19.7443042,37.0535942 C19.3843653,38.1632832 19.2071992,39.3241018 19.2197366,40.4906388 C17.3692678,40.2492733 15.8374015,38.9008448 14.8558485,37.2917415 C13.8742955,35.6826382 13.3400732,33.8836608 12.6706863,32.142611 C11.4928227,29.0756602 9.89015582,26.1985836 8.52563624,23.1992151 C7.16111667,20.1998466 7.02273379,16.9108395 5.95107101,13.8052702 C5.35066752,12.0892946 4.10984477,10.6720352 2.48828077,9.85009432 C1.8607305,9.53471008 1.16237968,9.2965628 0.695739727,8.77199513 C0.336197268,8.33766757 0.112359426,7.80717189 0.052098419,7.24656523 C-0.14800596,6.0153456 0.234838184,4.76099599 1.08836093,3.85135733 Z M35.9415378,1.64044944 C36.4816858,1.65238858 36.9933876,1.88498032 37.3575486,2.28409075 C37.8884011,2.88972483 38.2990645,3.59091079 38.5675943,4.35017935 C39.092162,5.58597066 39.6263843,6.87325327 39.5781112,8.2120272 C39.5330563,9.32552666 39.1179076,10.5677544 39.7712036,11.4720704 C41.9080927,14.4392569 43.5268506,17.8473376 45.2196272,21.0880716 C45.651426,21.8602911 46.0195219,22.6664425 46.3202539,23.4985083 C46.7336596,24.8469711 46.9292112,26.2527699 46.899531,27.6628675 C46.899531,30.2985787 46.5519647,32.9246352 46.1915256,35.5378189 C45.9630329,37.1758861 45.6637397,38.9587725 44.4247302,40.0433081 C43.1374476,38.3955863 41.8437286,36.7864831 40.2024432,35.4992005 C40.1197356,33.223653 40.4748048,30.9533949 41.2483604,28.8117673 C41.5444354,27.9911246 41.8920017,27.1576091 41.8630378,26.2854751 C41.8212011,25.4744871 41.4350163,24.7310814 41.0842318,23.9973303 C39.8741862,21.4710381 39.0245796,18.7934903 38.1878459,16.1223789 L36.5787427,11.0858856 C36.0541137,10.7011732 35.5795193,10.2525247 35.16595,9.75032992 C34.3082032,8.75860728 33.7413028,7.5490714 33.5278829,6.25535762 C33.3204533,4.95236537 33.6464016,3.62073312 34.4321989,2.56085651 C34.7791651,2.05088166 35.3292951,1.7154079 35.9415378,1.64044944 Z" id="Combined-Shape" fill="#F7A17D"></path>
                            <path d="M32.314619,41.1664622 C32.4647489,39.3619707 33.7536981,37.8564676 35.5135163,37.4301244 C36.2022125,37.2756505 36.9488364,37.2949597 37.5635139,36.9538298 C38.6190856,36.364898 38.9376881,34.9295779 39.9514231,34.2698456 C40.9651582,33.6101132 42.4036965,33.9769888 43.2854851,34.8105043 C44.1672737,35.6440198 44.6146044,36.831538 44.9750435,37.9933105 C45.5131459,39.5641801 45.8051604,41.2087973 45.8407411,42.8688934 C45.8541636,43.1725511 45.8059965,43.4757847 45.69914,43.7603366 C45.508309,44.0924952 45.2673211,44.3931874 44.9846981,44.6517799 C44.2205493,45.509345 43.8680445,46.6573358 44.0192362,47.7959677 C44.110691,48.8559136 44.0137204,49.9236804 43.7328158,50.9498101 C43.0891745,53.7882682 42.4455332,56.6235082 41.9274019,59.487712 C41.8058264,60.0148601 41.7656701,60.5575139 41.8083283,61.0968153 C41.9080927,61.8724031 42.3361142,62.6061542 42.2427862,63.3817419 C42.1516454,63.7427977 42.083922,64.1093637 42.0400392,64.4791504 C42.0610679,64.7590363 42.1262374,65.0338341 42.2331316,65.2933566 C42.9636644,67.4141547 44.936425,72.2736466 44.9171158,74.5199548 C41.4897258,73.6413844 36.4371416,73.4450738 32.8971144,73.4289828 C31.9235975,73.4187947 30.9502504,73.4617681 29.9814193,73.557711 C27.6546559,73.8087311 25.2731831,74.4877727 23.0172203,73.8602224 C20.9221678,73.277727 19.0684809,71.6074779 16.9026279,71.8166613 C16.4327697,70.5873064 16.9863012,66.484093 17.4271955,65.2418653 C19.1460421,60.3504942 19.4801526,55.0793441 18.3926575,50.0100938 C17.9968181,48.1885888 18.540695,46.2544467 18.0998007,44.4458146 C18.0192192,44.0178841 17.8551909,43.6100004 17.6170697,43.2454236 C17.3732496,42.8773734 16.9578278,42.659945 16.5164431,42.6693646 C16.4763339,39.7601231 16.7460374,36.8548773 17.3209947,34.0027344 C17.5333964,32.9889994 17.964636,31.7918265 19.0041167,31.6180434 C19.9245238,31.4603512 20.6968934,32.2391572 21.4370809,32.8087798 C22.1960216,33.3962567 23.0750264,33.8093889 24.0116461,34.0188254 C24.3887399,34.0637473 24.7501652,34.1959761 25.0672179,34.4050102 C25.5081122,34.7718858 25.5724763,35.4316181 25.9329154,35.8789488 C26.5765567,36.6802823 28.0150951,36.6126999 28.4720804,37.5363252 C28.5719913,37.8114446 28.6526411,38.0931814 28.7134459,38.3794953 C28.929616,38.9283212 29.298076,39.4039695 29.775454,39.7504513 C30.4922987,40.4243813 31.3645236,40.9107932 32.314619,41.1664622 Z" id="Path" fill="#B08814"></path>
                            <path d="M26.5894296,22.9771588 C26.4735741,22.5362645 26.4928834,22.0116968 26.8468861,21.7156218 C27.0238874,21.577239 27.2555983,21.5257477 27.4454725,21.3938012 C27.7130674,21.1689069 27.9320637,20.8918765 28.0891138,20.5795949 C29.080752,19.1919136 30.9291901,18.7226633 32.4626565,19.4693137 C33.6244291,20.0775547 34.3259981,21.2940368 35.3590424,22.1146795 C35.88361,22.5394827 36.4918511,22.854867 37.019637,23.2796702 C38.0766698,24.1927444 38.8281383,25.4081238 39.1726171,26.7617697 C39.5146635,28.1058875 39.7142199,29.4822872 39.7679853,30.8682012 C39.8229113,31.2841443 39.8065868,31.7064043 39.7197122,32.1168654 C39.6127601,32.4611599 39.4531802,32.7868331 39.2466359,33.0823273 C38.1846277,34.6914306 36.7847079,36.1524964 35.0307853,36.9827937 C33.2768628,37.813091 31.1431918,37.9482556 29.4117967,37.0793399 C29.2376084,37.0089595 29.0877385,36.8892872 28.980557,36.7349918 C28.8821432,36.5000295 28.8585444,36.2404433 28.9129747,35.9915861 C29.0068257,35.0079823 28.8122505,34.0183329 28.3530067,33.1434733 C28.0311861,32.499832 27.5484551,31.9463004 27.2909986,31.2801317 C27.0515952,30.5344633 26.9491067,29.7516259 26.9884872,28.9694594 C26.9595233,26.9452075 27.0979062,24.927392 26.5894296,22.9771588 Z" id="Path" fill="#D45925"></path>
                        </g>
                    </g>
                    <g id="men-with-bar" transform="translate(301.921620, 148.500000)">
                        <path d="M9.45263158,16 C9.8630192,16 10.2565984,16.1620562 10.5467863,16.450518 C10.8369742,16.7389799 11,17.1302181 11,17.5381647 L11,45.5 L1,45.5 L1,17.5381647 C1,17.1302181 1.16302585,16.7389799 1.45321372,16.450518 C1.74340159,16.1620562 2.1369808,16 2.54736842,16 L9.45263158,16 Z" id="Path" fill="#007373"></path>
                        <g id="men">
                            <path d="M12.167935,14.8397779 C9.16426908,14.0597891 6.05849554,13.2712913 2.98959419,13.7421209 C2.61493609,13.7668027 2.25805894,13.9109453 1.97135428,14.1533877 C1.58845069,14.5448003 1.63383186,15.2170088 1.94299105,15.6679841 C2.28592191,16.0997016 2.75327809,16.4155631 3.28173545,16.5727711 C4.71691482,17.0946545 6.2768924,17.1400357 7.8028341,17.1655626 C9.32877581,17.1910895 10.7923184,17.2251254 12.2331704,16.8677487 C12.5664453,16.8100325 12.8774639,16.6618817 13.1322848,16.4394639 C13.9491458,15.6112577 12.8628341,15.0213025 12.167935,14.8397779 Z" id="Path" fill="#F8B79D" fill-rule="nonzero"></path>
                            <path d="M34.8131368,22.1688361 C33.8080398,22.209306 32.8014533,22.1456221 31.8094709,21.9788025 C30.9247003,21.7965896 30.0529831,21.5559199 29.2000538,21.2583765 L26.1112982,20.2571545 C24.4378606,19.7540507 22.7988087,19.1429592 21.2044597,18.4277263 C18.4787534,17.1371994 15.9941345,15.2170088 13.0386861,14.621381 C12.5054574,14.5136007 11.8304126,14.5107644 11.5552893,14.9787577 C11.4470519,15.2036638 11.4000893,15.4531526 11.4191458,15.70202 L11.4021278,17.880316 C11.3884349,18.0246858 11.411867,18.1701597 11.4701996,18.3029281 C11.5495458,18.4225089 11.6578481,18.5200786 11.7850314,18.5865604 C14.5901547,20.3876254 17.764,21.6299348 20.311018,23.7798675 C21.0824978,24.4293855 21.7887422,25.1583205 22.5999305,25.7652935 C23.6622833,26.5516509 24.8793935,27.1036524 26.170861,27.3848339 C27.9775987,27.7790828 29.9374978,27.6457756 31.5740561,28.5023451 C32.3228453,28.8909213 32.9922175,29.4837128 33.8232601,29.6368743 C34.5351772,29.7616725 35.2556032,29.5404393 35.9419933,29.3220424 C37.0765224,28.9618294 38.2422511,28.5675805 39.0108946,27.6769752 C39.9922624,26.542446 40.0603341,24.9030514 40.077352,23.4026366 C40.077352,22.9771882 40.3609843,21.227177 40.0972063,20.9009998 C39.7199754,20.4528608 39.1328565,21.1165604 38.7612982,21.3236119 C37.5898969,21.9674572 36.1376996,22.1688361 34.8131368,22.1688361 Z" id="Path" fill="#00A2A2"></path>
                            <path d="M44.1134395,11.0334326 C44.5039226,11.6577148 45.586198,20.0029297 47.8449871,21.5568848 C50.1037762,23.1108398 37.5586973,24.4038586 37.5586973,24.4038586 C37.5586973,24.4038586 39.9497175,15.5715492 38.8151884,14.0597891 C37.6806592,12.548029 43.7229563,10.4091503 44.1134395,11.0334326 Z" id="Path" fill="#F8B79D" fill-rule="nonzero"></path>
                            <path d="M25.9354462,116.445372 C25.3199641,116.538971 24.6903005,116.445372 24.0748184,116.519116 C23.2052001,116.61962 22.4002893,117.028112 21.8057601,117.670664 C21.6003687,117.852912 21.4818415,118.113672 21.479583,118.388253 C21.5133263,118.577258 21.6055967,118.750885 21.743361,118.88461 C22.3106256,119.514273 23.1359955,119.837614 23.9613655,120.019139 C25.1910397,120.245717 26.441334,120.340796 27.6911301,120.302771 C30.7997399,120.319789 33.9092952,120.333971 37.019796,120.345316 C37.2447125,119.228496 37.2117298,118.07507 36.923361,116.972928 C36.862884,116.668587 36.7295535,116.383435 36.5347848,116.141885 C36.330362,115.944311 36.0895539,115.788267 35.8257041,115.682401 L33.9083498,114.766269 C32.3852444,114.037334 31.1798072,113.495596 29.6538655,114.394711 C28.4172287,115.098119 27.3762982,116.224139 25.9354462,116.445372 Z" id="Path" fill="#005E7D" fill-rule="nonzero"></path>
                            <path d="M45.7953789,124.205551 C45.8362229,124.546464 45.8062903,124.892138 45.7074529,125.220955 C45.4521839,125.890327 44.689213,126.19665 44.0056592,126.392356 C40.8857041,127.26878 37.6012422,127.339688 34.3621615,127.404924 C31.9314328,127.453141 29.429796,127.490013 27.1579014,126.627771 C26.6893146,126.476829 26.2614636,126.2207 25.907083,125.878982 C25.5470351,125.530992 25.3971874,125.018922 25.5128341,124.531729 C25.6915224,123.930428 26.3240224,123.607087 26.8941233,123.348982 L29.9998969,121.950675 L35.9845381,119.256168 C36.7304911,118.921482 37.5076435,118.581123 38.3245045,118.603814 C39.3143812,118.635013 40.1964776,119.196605 41.0814103,119.641908 C41.7202308,119.963918 42.3842385,120.233315 43.0668363,120.447424 C43.6709731,120.634621 44.5190337,120.657311 45.0522624,120.980652 C46.0194485,121.564935 45.7443251,123.246874 45.7953789,124.205551 Z" id="Path" fill="#005E7D" fill-rule="nonzero"></path>
                            <path d="M27.1181928,64.9008765 C25.5497063,69.3312128 23.9727108,73.7927487 23.2069036,78.4301366 C22.9232713,80.0893855 22.7644372,81.762816 22.4609507,83.4163922 C22.1773184,84.9763698 21.7688879,86.5647106 22.0525202,88.1246882 C22.2368812,89.1429281 22.7048745,90.0845873 23.0565785,91.0546097 C23.5245718,92.3451366 23.7911861,93.7008989 24.2336525,94.9999348 C24.9200426,97.013724 26.0176996,98.8630066 26.715435,100.871123 C27.3933162,102.819677 27.6939664,104.910047 28.6384619,106.742311 C29.2057265,107.831459 29.9800426,108.815664 30.3402556,109.981392 C30.8622662,111.742933 30.3803294,113.648923 29.0837646,114.95063 C29.2511076,115.707928 30.1332041,116.085159 30.8593027,116.368791 L33.5112646,117.347323 C34.5209955,117.718881 35.658361,118.090439 36.6312198,117.659318 C38.0663991,117.032491 38.3330135,115.137827 38.2904686,113.575013 C38.1486525,109.768668 37.2353565,106.036067 36.3248969,102.337502 C35.474,98.9339146 34.6486301,95.5303272 33.6445718,92.1636119 C33.2276323,90.7738137 32.7936749,89.3896882 32.4561525,87.9743631 C31.2400947,82.6960467 31.6474183,77.1734512 33.6247175,72.1306635 C34.7592467,69.2943406 33.7495157,65.7999909 33.8771502,62.7339258 L30.070805,62.0333541 C29.3220157,61.8972106 28.4115561,61.8149572 27.9378902,62.410585 C27.4642242,63.0062128 27.3876435,64.1435783 27.1181928,64.9008765 Z" id="Path" fill="#76661D" fill-rule="nonzero"></path>
                            <path d="M45.1430247,62.867233 C45.0437534,64.2315043 44.9331368,65.6354841 44.3148184,66.838085 C43.9375875,67.5812016 43.3901772,68.2222106 42.9618924,68.9369639 C41.8273632,70.8628272 41.6203117,73.1914483 41.5749305,75.4406523 C41.5295493,77.7607644 41.6118027,80.0808765 41.6968924,82.3981523 C41.6983334,83.1136923 41.7714981,83.8272859 41.9152893,84.5282308 C42.0571054,85.1153496 42.2953565,85.6769415 42.4315,86.2640604 C42.7576772,87.6822218 42.4570269,89.1826366 42.6527332,90.6291613 C42.8030583,91.7296545 43.2199978,92.7677487 43.5518476,93.8313698 C44.0406616,95.4636525 44.2712973,97.1623178 44.2354014,98.8658429 C44.1332937,103.477704 45.5883274,107.871168 45.6223632,112.480193 C45.6223632,114.068533 45.5656368,115.659711 45.698944,117.245215 C45.8407601,118.969699 46.2179911,120.66582 46.4051884,122.387468 C46.4477332,122.784554 46.4534059,123.238365 46.147083,123.502143 C45.918886,123.65405 45.6459038,123.724045 45.3727668,123.700686 C44.3900783,123.761951 43.4039052,123.666206 42.4513543,123.417054 C41.6004574,123.158948 40.8459955,122.705137 40.0206256,122.407323 C38.4805023,121.840058 36.571657,121.720933 35.6895606,120.34248 C35.6050865,120.225812 35.5532008,120.088755 35.5392354,119.945394 C35.5392354,119.553982 35.9561749,119.312894 36.1547175,118.972536 C36.2674066,118.75039 36.3238921,118.503996 36.3192242,118.254946 C36.395805,116.439699 35.5817803,114.72656 35.0400426,112.993567 C34.5581076,111.30239 34.2016535,109.577949 33.9735852,107.834296 C33.4063206,104.235002 32.8390561,100.559128 33.4318476,96.9626702 C33.5765,96.0777375 33.760861,95.0765155 33.2191233,94.3645985 C32.9701971,94.0949369 32.6967327,93.8490089 32.4022624,93.6299909 C31.7436962,93.0362522 31.3640853,92.1937013 31.3556592,91.3070424 C31.3556592,88.4707196 30.062296,85.6343967 29.9374978,82.7980738 C29.8637534,81.1586792 29.9630247,79.5164483 29.886444,77.8770536 C29.6822287,73.5488249 28.2697399,69.385103 26.9820493,65.2469079 C26.7648472,64.6539506 26.6395478,64.0312793 26.6104911,63.4004617 C26.5784775,62.7553537 26.8389648,62.1301841 27.3195718,61.698668 C29.4808498,59.9656747 32.6830583,59.3842285 35.0769148,60.7796994 C35.5534171,61.0633317 35.9930471,61.3895088 36.4950763,61.6305962 C39.0988206,62.9948675 42.5024081,61.5596882 45.1430247,62.867233 Z" id="Path" fill="#8F791D" fill-rule="nonzero"></path>
                            <circle id="Oval" fill="#F8B79D" fill-rule="nonzero" cx="40.709852" cy="12.1679617" r="6.17751121"></circle>
                            <path d="M26.9281592,63.1678832 C27.1872402,63.4292031 27.4997568,63.6314197 27.8442915,63.7606747 L29.7276099,64.6115716 C30.0244415,64.7746059 30.3436326,64.893108 30.6749417,64.9632756 C31.0959143,65.0022349 31.5204297,64.9715701 31.9314328,64.8725133 C36.2729472,64.0903743 40.7262548,64.1742353 45.0352444,65.1192734 C46.4222063,63.0402487 46.5441682,60.3542509 46.1697736,57.88665 C45.9683946,56.5762689 45.6422175,55.2233429 46.0052668,53.9469976 C46.1584283,53.3995873 46.4363879,52.8947218 46.5923857,52.3473115 C47.0178341,50.8554057 46.5044597,49.2472106 46.7398745,47.7127599 C47.0235067,45.8322779 48.3934507,44.3091725 49.1450763,42.5676702 C49.5658741,41.48885 49.8729151,40.3690533 50.0612085,39.2264819 C50.3391682,37.8329019 50.6228005,36.4421583 50.9121054,35.0542509 C51.2212646,33.5198003 51.5304238,31.9683317 51.47937,30.4055178 C51.4141345,28.0201702 50.5405471,25.742603 49.678305,23.5160895 C49.3152556,22.580103 48.8926435,21.570372 48.0190561,21.0711792 C46.9497624,20.4613698 45.602509,20.8300918 44.4623072,21.2895761 C42.984583,21.8823675 41.5238767,22.6056299 39.9468812,22.9062801 C39.2661637,23.0367509 38.3330135,22.8013361 37.7175314,22.9828608 C37.1899754,23.1388586 36.8297624,23.8507756 36.5177668,24.284733 C34.7719086,26.689766 33.5073535,29.4095707 32.7936749,32.2945088 C32.0760852,35.2102487 31.9144148,38.3103496 30.5870157,41.00202 C30.2830565,41.5971667 29.9459499,42.1747931 29.5772848,42.732177 C28.8114776,43.9177599 27.9832713,45.0664707 27.4642242,46.3740155 C26.6643812,48.3934774 26.6700538,50.6086456 26.7211076,52.7954505 C26.7211076,53.1556635 26.7409619,53.5102039 26.7466345,53.8675805 C26.803361,56.3389632 26.7485254,58.8065641 26.5821278,61.2703832 C26.5282377,61.9284101 26.4998745,62.6630178 26.9281592,63.1678832 Z" id="Path" fill="#00A2A2"></path>
                            <path d="M10.2392354,47.8829393 C7.13629823,47.9907196 3.93408971,48.0843182 1.04104038,46.9554617 C0.680521611,46.8494781 0.363432892,46.6307962 0.136253384,46.3314707 C-0.147378903,45.8663137 0.0398184064,45.2196321 0.439739931,44.8480738 C0.868724987,44.5023608 1.39337699,44.2964597 1.94299105,44.2581187 C3.45475114,44.0595761 4.98636549,44.3630626 6.48110764,44.6665492 C7.9758498,44.9700357 9.41102917,45.2593406 10.7355919,45.9202039 C11.0473893,46.0508009 11.3179329,46.2635109 11.5184171,46.5356859 C12.1537534,47.5255626 10.9568251,47.8574124 10.2392354,47.8829393 Z" id="Path" fill="#F8B79D" fill-rule="nonzero"></path>
                            <path d="M26.7125987,52.7897779 C27.3989888,52.7897779 28.0825426,52.755742 28.7632601,52.7160335 C29.5672788,52.6957587 30.3656679,52.5757145 31.1400987,52.3586568 C32.3029911,51.9870985 33.2985404,51.2241276 34.2458722,50.4611568 C37.2229055,48.0518708 39.9854299,45.3889909 42.5024081,42.5024348 C43.336287,41.546594 44.1559843,40.5425357 44.601287,39.3541164 C45.145861,37.9047554 45.0891345,36.3050693 44.9756816,34.7592734 C44.9019372,33.7467061 44.7998296,32.7029393 44.3233274,31.8038249 C43.9347083,31.0136661 43.2011391,30.4488178 42.3379014,30.2750469 L43.4071951,30.3147554 C42.3804462,29.6765828 41.0757377,29.7645088 39.8703005,29.8722891 C39.0420942,29.9460335 38.188361,30.0282868 37.4565897,30.4395536 C36.5489664,30.9330738 35.9561749,31.8577151 35.4711637,32.7539931 C33.8516233,35.7066052 32.8163655,39.0137577 30.7118139,41.643029 C30.4349955,42.0076609 30.112842,42.3355331 29.7531368,42.618724 C29.6964103,42.6612689 29.6368476,42.7009774 29.5772848,42.7406859 C28.8114776,43.9262689 27.9832713,45.0749796 27.4642242,46.3825245 C26.6558722,48.3878048 26.6615449,50.6029729 26.7125987,52.7897779 Z" id="Path" fill="#000000" fill-rule="nonzero" opacity="0.1"></path>
                            <path d="M41.8840897,29.1206635 C42.896657,29.0440828 43.8383162,29.7701814 44.3119821,30.6692958 C44.785648,31.5684101 44.8792467,32.6093406 44.9643363,33.6247442 C45.0777893,35.1705402 45.1345157,36.7702263 44.5899417,38.2195873 C44.144639,39.4080066 43.3249417,40.4120648 42.4910628,41.3679057 C39.9769672,44.2532863 37.2183153,46.9160924 34.2458722,49.3266276 C33.2985404,50.0952711 32.3029911,50.8525693 31.1400987,51.2241276 C30.3656679,51.4411854 29.5672788,51.5612296 28.7632601,51.5815043 C25.722722,51.7601926 22.6056032,51.6807756 19.7437534,50.6455178 C17.4746951,49.8314931 15.3843251,48.4303496 12.993305,48.2828608 C12.4061861,48.2459886 11.7850314,48.2828608 11.263148,47.9992285 C10.3044709,47.4858541 10.1286189,46.1868182 10.2137085,45.1033429 C10.1684351,44.8701541 10.2322954,44.6290653 10.3870683,44.4488654 C10.5418412,44.2686655 10.7705283,44.1691457 11.0078789,44.1787016 C15.7899193,43.5859101 20.7818476,44.7998563 25.3908722,43.3902039 C26.4372759,43.0445397 27.461259,42.6343781 28.4569372,42.1620761 C28.910011,41.9764836 29.3417393,41.7425515 29.7446278,41.4643406 C30.1041539,41.1818789 30.4254569,40.8539019 30.7004686,40.4886456 C32.8050202,37.8593743 33.8431144,34.5522218 35.4626547,31.5996097 C35.9590112,30.6919864 36.5518027,29.7786904 37.4480807,29.2851702 C38.179852,28.888085 39.0335852,28.8058317 39.8617915,28.7179057 C41.0672287,28.6101254 42.3691009,28.5221994 43.3986861,29.160372" id="Path" fill="#00A2A2"></path>
                            <path d="M45.1667929,13.1893029 C44.8831606,13.5147804 44.7044723,13.9117042 44.3924768,14.208074 C44.0804812,14.5044438 43.5415799,14.6843826 43.1842032,14.4462283 C42.6311202,14.0889969 42.9204252,13.2131183 42.4921404,12.7315175 C42.251053,12.4669016 41.8397862,12.3795784 41.5448086,12.157301 C40.8470732,11.6280693 41.0342705,10.5272673 40.4102794,9.9107123 C39.7862884,9.29415733 38.807757,9.43175758 38.0022413,9.70431193 C37.1967256,9.97686627 36.3713557,10.3737901 35.5318041,10.2150206 C34.3433848,9.98745091 33.7250664,8.77551023 33.3847077,7.68793901 C33.0443489,6.60036778 32.8174431,5.40695022 33.3847077,4.42257918 C33.852701,3.60491615 34.8028691,3.09949984 35.741692,2.83488397 C36.6805149,2.5702681 37.7015911,2.52263724 38.6801225,2.35857541 C39.9819947,2.13894423 41.2328131,1.72085116 42.5630485,1.59912786 C43.8932839,1.47740456 45.325627,1.70497421 46.2502682,2.58349889 C47.6173759,3.87747049 47.3847974,5.98910513 48.0655149,7.69058516 C48.4569274,8.65643309 49.1574992,9.48997307 49.5744386,10.4452364 C50.3090463,12.1387779 49.9459969,14.3483204 48.3264566,15.3776762 C48.0756728,15.5650654 47.7594719,15.6593149 47.4386875,15.642292 C46.766479,15.5523226 46.5197189,14.758475 46.5565911,14.1260431 C46.6501898,12.9749641 46.3608848,11.7868388 45.1667929,13.1893029 Z" id="Path" fill="#DA9808" transform="translate(41.488304, 8.606503) rotate(7.000000) translate(-41.488304, -8.606503) "></path>
                        </g>
                    </g>
                    <g id="programmer" transform="translate(369.421620, 168.000000)">
                        <g id="notebook" opacity="0.8" transform="translate(49.433509, 37.996799)">
                            <path d="M30.3776462,0.291117673 L31.8558403,6.38865495 C31.87232,6.45663369 31.8697606,6.52783787 31.8484431,6.59445804 L25.1430651,27.548739 C25.0883463,27.7197357 24.9216364,27.8292949 24.7429643,27.8116791 C24.5642921,27.7940632 24.4221877,27.6540572 24.401916,27.4756668 L23.4743067,19.3126996 C23.468146,19.2584866 23.4737061,19.2035827 23.4906105,19.1517055 L29.6454036,0.262863139 C29.6981664,0.100934797 29.8520209,-0.0062809876 30.022202,0.000285668567 C30.192383,0.00685232473 30.3375182,0.125605017 30.3776462,0.291117673 Z" id="Path" fill="#009392"></path>
                            <path d="M0.0364239275,29.2387366 C0.263886411,29.9211206 23.6924202,29.0112741 23.9198809,28.7838134 C24.1181987,28.4989628 24.2859275,28.1939945 24.4202856,27.8739669 C24.6341135,27.4190437 24.8297274,26.9641204 24.8297274,26.9641204 L23.9198844,19.5989168 L0.718804462,18.7755073 C0.718804462,18.7755073 0.138765363,25.0170521 0.020481483,27.8739669 C-0.00905750518,28.5950176 -0.00905750518,29.1022508 0.0364239275,29.2387366 Z" id="Path" fill="#009392"></path>
                            <polygon id="Path" fill="#000000" fill-rule="nonzero" opacity="0.1" points="20.962898 20.5952798 21.4177297 26.9641325 11.1820303 26.9641325 11.1820303 20.5952798"></polygon>
                            <polygon id="Path" fill="#000000" fill-rule="nonzero" opacity="0.1" points="7.77018812 22.6422814 7.83121266 22.6301802 7.54268587 25.3719626 1.85616701 25.3719626 1.85616701 22.6422814"></polygon>
                            <path d="M0.0364239275,29.2387366 C0.263886411,29.9211206 23.6924202,29.0112741 23.9198809,28.7838134 C24.1181987,28.4989628 24.2859275,28.1939945 24.4202856,27.8739669 L0.0204866692,27.8739669 C-0.00905750518,28.5950176 -0.00905750518,29.1022508 0.0364239275,29.2387366 Z" id="Path" fill="#000000" fill-rule="nonzero" opacity="0.1"></path>
                        </g>
                        <path d="M20.5848835,46.4185517 L25.824672,46.4185517 L38.7370087,41.3658978 C38.7370087,41.3658978 47.9066387,37.6231925 47.1580971,44.7343337 C46.4095555,51.8454749 45.0996083,61.3893729 45.0996083,61.3893729 C45.0996083,61.3893729 40.9826322,59.5180203 38.7370059,60.0794258 C36.4913796,60.6408313 37.9884643,48.6641723 37.9884643,48.6641723 C37.9884643,48.6641723 19.6492043,57.4595315 17.9649863,56.3367205 C16.2807684,55.2139094 15.906499,47.3542252 15.906499,47.3542252 L20.5848835,46.4185517 Z" id="Path" fill="#B08814" fill-rule="nonzero" opacity="0.8"></path>
                        <path d="M28.8402037,30.0094176 L35.1814381,39.1202743 L49.9651261,51.4712027 C49.9651261,51.4712027 63.6260044,54.6525039 61.7546504,56.8981274 C59.8832963,59.1437509 48.4680442,54.6525039 48.4680442,54.6525039 C48.4680442,54.6525039 31.4387314,42.3015741 30.8773259,41.3658964 C30.3159204,40.4302186 24.1404555,31.6348623 24.1404555,31.6348623 L28.8402037,30.0094176 Z" id="Path" fill="#F1A88B" fill-rule="nonzero"></path>
                        <path d="M23.1637665,21.9736378 L29.9233078,30.699186 C29.9233078,30.699186 28.9212497,34.6290274 27.3179555,35.0032982 C25.7146612,35.377569 18.9006669,30.1377805 18.9006669,30.1377805 L23.1637665,21.9736378 Z" id="Path" fill="#006D90"></path>
                        <circle id="Oval" fill="#F8B79D" fill-rule="nonzero" cx="26.0083713" cy="11.5581627" r="7.24115089"></circle>
                        <path d="M25.5256282,17.9947414 C25.5256282,17.9947414 23.1119104,22.1785175 22.6291674,24.4313201 C22.1464243,26.6841227 15.3880165,19.9257149 15.3880165,19.9257149 L14.5029873,17.5924553 C14.5029873,17.5924553 20.8591078,14.6155375 20.3763648,12.2018197 C19.8936217,9.78810191 25.5256282,17.9947414 25.5256282,17.9947414 Z" id="Path" fill="#F8B79D" fill-rule="nonzero"></path>
                        <path d="M28.8188371,33.6933511 L36.4913853,43.7986574 L54.8306453,57.4595343 C54.8306453,57.4595343 68.1172514,60.2665647 65.123082,62.3250521 C62.1289126,64.3835394 53.5206938,60.4536994 53.5206938,60.4536994 C53.5206938,60.4536994 34.994302,50.5355278 31.0644592,46.4185517 C27.1346163,42.3015756 19.8363418,35.377569 19.8363418,35.377569 L28.8188371,33.6933511 Z" id="Path" fill="#F8B79D" fill-rule="nonzero"></path>
                        <path d="M18.5263961,49.4127168 L20.7720224,52.9682874 L34.1741214,48.7518956 C37.1147499,47.8267553 40.3392906,48.1671722 42.9475551,49.8103794 C45.2867473,51.2840694 46.7838291,53.6232602 43.4153932,57.0852635 C36.6785228,64.00927 32.1872759,60.2665647 32.1872759,60.2665647 C32.1872759,60.2665647 9.54390081,70.9332766 5.8011955,65.693488 C2.05849019,60.4536994 1.87136119,57.8338051 1.87136119,57.8338051 C1.87136119,57.8338051 16.2807726,48.8513098 18.5263961,49.4127168 Z" id="Path" fill="#B08814" fill-rule="nonzero"></path>
                        <path d="M46.5966916,60.755582 C46.5966916,60.755582 52.5850204,64.6854235 45.4738791,66.5567761 C38.3627379,68.4281288 33.1229494,65.8082345 33.1229494,65.8082345 C33.1229494,65.8082345 26.9474845,65.8082345 26.9474845,62.6269333 C26.9474845,59.4456321 29.0059732,59.0713627 29.0059732,59.0713627 L35.3685757,60.007039 C35.3685757,60.007039 43.041121,57.9485531 46.5966916,60.755582 Z" id="Path" fill="#006D90"></path>
                        <path d="M31.9486258,9.73660983 C32.4414841,9.95632067 32.9302099,10.2163713 33.4660362,10.2801481 C34.0018624,10.343925 34.6120295,10.1568492 34.8655776,9.68052427 C35.0025286,9.42324369 35.0181777,9.12061526 35.0245641,8.82922595 C35.043947,7.94560687 34.9800405,6.99037415 34.4200924,6.3065498 C34.0637302,5.87134982 33.5435299,5.59700142 33.1746481,5.17236427 C32.9103635,4.86813618 32.7344706,4.49938158 32.5450785,4.1436712 C31.8276823,2.79629084 30.7654957,1.50136502 29.2892848,1.1129291 C28.6728561,0.950727364 28.0261979,0.958642448 27.3888514,0.967639863 L23.6713486,1.02008585 C23.0697607,1.02857329 22.4588928,1.03843657 21.8829946,1.21256108 C20.6864374,1.57434474 19.8152169,2.58056811 19.0173038,3.54284761 C18.4203472,4.26277291 17.8218106,4.9901449 17.3737963,5.81107803 C16.7314633,7.00907226 16.4066668,8.35161796 16.4303665,9.71074272 C16.425388,10.059315 16.4703927,10.4068017 16.5640081,10.7426045 C16.6735244,11.0505833 16.8092103,11.3486192 16.9695791,11.6334465 C17.6667339,13.0027768 18.0806786,14.7131613 17.2955541,16.0340203 C18.6593982,15.4769045 20.0088319,14.7464311 20.9085013,13.579794 C21.3109733,13.0578925 21.626608,12.4469341 22.162976,12.0639527 C22.699344,11.6809712 23.573309,11.6477491 23.9174439,12.2098289 C24.035731,12.4372076 24.0966418,12.6900548 24.0948729,12.9463549 C24.1200062,13.3682599 24.1193201,13.8064207 24.298202,14.1893532 C24.4770838,14.5722858 24.9031898,14.8812602 25.3100131,14.7666713 C26.0106167,14.5693347 25.9435243,13.4940452 26.4831516,13.0055896 C26.8929626,12.6346398 27.5252154,12.7055526 28.0517055,12.537159 C28.6651269,12.3409598 29.1253991,11.80954 29.3876559,11.2213142 C29.5870006,10.7742025 29.5841205,9.60417649 29.9613332,9.36204855 C30.4343768,9.05840015 31.5101421,9.5411371 31.9486258,9.73660983 Z" id="Path" fill="#F3753F"></path>
                        <path d="M13.8345016,17.7412845 C14.2133423,17.6402061 14.6121898,17.6412214 14.9905109,17.7442271 C16.1917736,18.0667278 18.8846765,18.9204822 19.4620667,20.2196088 C20.2106084,21.9038268 22.8305027,24.5237211 22.8305027,24.5237211 C22.8305027,24.5237211 26.3860733,28.0792917 25.6375316,30.5120513 C24.88899,32.9448109 22.081961,35.7518398 22.081961,35.7518398 C22.081961,35.7518398 22.8305027,47.354228 19.0877959,50.3483931 C15.3450892,53.3425582 13.8480074,51.2840694 13.8480074,54.0910984 C13.8480074,56.8981274 2.24562489,65.693488 0,60.2665647 C0,60.2665647 1.12281245,50.161257 0.74854163,46.6056864 C0.379668275,43.1013938 0.919678796,21.2376579 13.8345016,17.7412845 Z" id="Path" fill="#008AB6"></path>
                        <path d="M19.8363432,22.4652323 C19.8363432,22.4652323 31.2515967,30.8863221 29.1931079,34.4418927 C29.1931079,34.4418927 22.2691014,37.8103272 20.7720196,37.6231939 C19.2749377,37.4360607 13.4737422,30.8863235 11.9766604,30.3249166 C10.4795786,29.7635097 9.73103693,19.6582033 19.8363432,22.4652323 Z" id="Path" fill="#008AB6"></path>
                    </g>
                </g>
            </g>
        </g>
    </g>
</svg>