<?xml version="1.0" encoding="UTF-8"?>
<svg width="605px" height="279px" viewBox="0 0 605 279" version="1.1" xmlns="http://www.w3.org/2000/svg" xmlns:xlink="http://www.w3.org/1999/xlink">
    <!-- Generator: Sketch 64 (93537) - https://sketch.com -->
    <title>Illlustration</title>
    <desc>Created with Sketch.</desc>
    <defs>
        <linearGradient x1="99.982811%" y1="50.0000413%" x2="0.0187255522%" y2="50.0000413%" id="linearGradient-1">
            <stop stop-color="#808080" stop-opacity="0.25" offset="0%"></stop>
            <stop stop-color="#808080" stop-opacity="0.12" offset="54%"></stop>
            <stop stop-color="#808080" stop-opacity="0.1" offset="100%"></stop>
        </linearGradient>
        <circle id="path-2" cx="39.8215472" cy="39.8215472" r="39.5292057"></circle>
        <circle id="path-4" cx="45.9430601" cy="46.0528326" r="45.8339277"></circle>
    </defs>
    <g id="--Product-logos-explorations" stroke="none" stroke-width="1" fill="none" fill-rule="evenodd">
        <g id="Vantage-Editor---1x2-illustration" transform="translate(-732.000000, -64.000000)">
            <g id="Illlustration" transform="translate(732.000000, 64.000000)">
                <path d="M392.5,134.756381 C476.671955,134.756381 549.250006,184.395789 582.556855,255.997307 L202.443145,255.997307 C235.749994,184.395789 308.328045,134.756381 392.5,134.756381 Z" id="Combined-Shape" fill="#102E30" opacity="0.6"></path>
                <path d="M160.430423,78.6555073 C249.032706,78.6555073 320.859048,150.481849 320.859048,239.084132 C320.859048,245.02213 320.536441,250.884779 319.907797,256.655507 L0.95304839,256.655507 C0.324405032,250.884779 0.00179790894,245.02213 0.00179790894,239.084132 C0.00179790894,150.481849 71.8281399,78.6555073 160.430423,78.6555073 Z" id="Combined-Shape" fill="#055D5D"></path>
                <g id="logo" transform="translate(53.862220, 52.677741)">
                    <path d="M100.06386,126.687268 C94.1488161,136.932425 106.447089,155.105672 127.555419,167.292573 C148.452667,179.357604 170.113706,181.011123 176.284198,171.102122 L176.466424,170.798309 L166.19054,188.596662 C160.275497,198.841818 138.390276,197.273653 117.281945,185.086752 C96.3846976,173.021721 84.1198268,155.09356 89.6159801,144.795339 L100.06386,126.687268 Z M113.473241,103.461539 C107.558197,113.706695 119.85647,131.879943 140.9648,144.066844 C161.862048,156.131875 183.523087,157.785394 189.693579,147.876393 L189.875805,147.57258 L179.599921,165.370933 C173.684878,175.616089 151.799657,174.047924 130.691326,161.861023 C109.794078,149.795992 97.5292077,131.867831 103.025361,121.56961 L113.473241,103.461539 Z M126.883712,80.2339211 C120.968669,90.4790773 133.266941,108.652325 154.375272,120.839226 C175.272519,132.904257 196.933558,134.557776 203.10405,124.648775 L203.286277,124.344962 L193.010393,142.143315 C187.095349,152.388471 165.210128,150.820305 144.101797,138.633405 C123.20455,126.568374 110.939679,108.640213 116.435833,98.3419918 L126.883712,80.2339211 Z M130.00757,74.8232413 C135.925023,64.5739119 157.810244,66.1420776 178.918575,78.328978 C200.026905,90.5158784 212.327587,108.684953 206.410134,118.934282 C200.49509,129.179439 178.609869,127.611273 157.501539,115.424373 C136.393208,103.237472 124.092526,85.0683975 130.00757,74.8232413 Z" id="Combined-Shape" fill="#00B2B1" transform="translate(148.099571, 131.708225) rotate(7.000000) translate(-148.099571, -131.708225) "></path>
                    <path d="M211.74577,14.6170901 L211.745676,18.7992086 C195.491403,17.2499503 178.03852,17.1528687 159.965957,18.7340131 C78.6683797,25.8466295 15.6169549,64.2257241 19.1366584,104.45612 C22.656362,144.686516 91.4143539,171.533781 172.711932,164.421164 C186.309034,163.231572 199.395738,161.167366 211.745957,158.366164 L211.746327,166.271576 C200.233284,168.639034 188.169844,170.413912 175.707024,171.504268 C88.418513,179.141023 14.5928955,150.306749 10.8128923,107.101115 C7.03288907,63.8954808 74.7299105,22.6795807 162.018422,15.0428255 C179.265277,13.5339212 195.986546,13.4488322 211.74577,14.6170901 Z" id="Rocket-trajectory" fill="#0D3E40" transform="translate(111.204160, 93.273547) rotate(8.000000) translate(-111.204160, -93.273547) "></path>
                    <path d="M115.999072,95.9995205 L113.233084,99.6959509 C75.5490286,97.9881275 47.8002826,104.508574 45.5273522,117.399003 C42.4814348,134.673259 86.3390481,156.845478 143.486073,166.92204 C189.471815,175.030567 230.05004,172.835974 245.733531,162.668484 C247.700678,165.708055 251.014844,167.796688 254.831765,168.094179 C238.016324,181.012178 192.790936,184.600378 141.626161,175.578648 C79.0168451,164.538936 31.2228074,138.797718 34.8751899,118.084027 C37.739891,101.8375 71.4028323,93.5092601 115.999072,95.9995205 Z M256.339836,148.634055 C260.66495,148.634055 264.171148,152.140253 264.171148,156.465366 C264.171148,160.79048 260.66495,164.296678 256.339836,164.296678 C252.014722,164.296678 248.508525,160.79048 248.508525,156.465366 C248.508525,152.140253 252.014722,148.634055 256.339836,148.634055 Z M211.890971,116.056804 C233.575066,124.448627 249.796159,134.452277 257.258924,144.292708 C256.771428,144.232692 256.276541,144.201762 255.774429,144.201762 C253.896921,144.201762 252.120419,144.634221 250.5391,145.404962 C245.608358,137.103578 232.206212,128.350951 213.423029,120.708921 C213.028506,119.186766 212.516141,117.632357 211.890971,116.056804 Z" id="Orbit" fill="#85DDDC"></path>
                </g>
                <g id="men-with-chart" transform="translate(406.000000, 27.358229)">
                    <g id="chart" transform="translate(0.559628, 0.000000)">
                        <polyline id="Path" stroke="#009392" stroke-width="2" stroke-linecap="round" points="6.66553656 59.0324235 36.1392894 34.9300088 64.0843771 49.2311337 92.0294647 5.34822983 124.122067 37.0879722"></polyline>
                        <path d="M7.17051995,51.8559732 C10.7603708,51.8559732 13.6705199,54.7661224 13.6705199,58.3559732 C13.6705199,61.9458241 10.7603708,64.8559732 7.17051995,64.8559732 C3.58066907,64.8559732 0.670519946,61.9458241 0.670519946,58.3559732 C0.670519946,54.7661224 3.58066907,51.8559732 7.17051995,51.8559732 Z M63.7404433,42.2300203 C67.3302941,42.2300203 70.2404433,45.1401695 70.2404433,48.7300203 C70.2404433,52.3198712 67.3302941,55.2300203 63.7404433,55.2300203 C60.1505924,55.2300203 57.2404433,52.3198712 57.2404433,48.7300203 C57.2404433,45.1401695 60.1505924,42.2300203 63.7404433,42.2300203 Z M168.253044,30.110419 C171.842895,30.110419 174.753044,33.0205681 174.753044,36.610419 C174.753044,40.2002699 171.842895,43.110419 168.253044,43.110419 C164.663193,43.110419 161.753044,40.2002699 161.753044,36.610419 C161.753044,33.0205681 164.663193,30.110419 168.253044,30.110419 Z M36.9763237,29.1004522 C40.5661745,29.1004522 43.4763237,32.0106014 43.4763237,35.6004522 C43.4763237,39.1903031 40.5661745,42.1004522 36.9763237,42.1004522 C33.3864728,42.1004522 30.4763237,39.1903031 30.4763237,35.6004522 C30.4763237,32.0106014 33.3864728,29.1004522 36.9763237,29.1004522 Z M93.5344632,0.0997834841 C97.1243141,0.0997834841 100.034463,3.00993261 100.034463,6.59978348 C100.034463,10.1896344 97.1243141,13.0997835 93.5344632,13.0997835 C89.9446123,13.0997835 87.0344632,10.1896344 87.0344632,6.59978348 C87.0344632,3.00993261 89.9446123,0.0997834841 93.5344632,0.0997834841 Z" id="Combined-Shape" fill="#009392"></path>
                    </g>
                    <g id="men" transform="translate(121.868178, 29.829019)">
                        <path d="M0.0796410439,8.67212294 C0.170935877,9.53375591 0.513036611,10.3496662 1.06355316,11.0187533 C1.77688945,11.8255613 2.84443409,12.1945283 3.80374841,12.6766453 C6.28640094,13.9473511 8.18269509,16.1273844 9.0971956,18.7621417 C10.7354093,23.5439546 10.9469504,28.6012629 13.0328441,33.2158107 C15.1187378,37.8303585 17.5686789,42.2628826 19.3692381,46.9905803 C20.3925067,49.6717409 21.2091538,52.4611317 22.7096197,54.9012338 C23.4360313,56.1012979 24.3628621,57.1679021 25.449815,58.0546721 C25.3366651,59.7863574 25.292389,61.4983645 25.3022282,63.2300498 C25.977908,63.2167313 26.6131531,63.5510708 26.9847179,64.1155707 C27.3487743,64.676444 27.5994699,65.3031829 27.722652,65.960406 C28.3966318,68.7497968 27.565226,71.7212114 28.170332,74.5253609 C29.8327617,82.3254531 29.3222599,90.4322208 26.6944638,97.9621476 C26.020484,99.8709371 25.1743196,106.187653 25.8925754,108.081684 C28.5688164,107.811108 30.9400446,109.454241 33.4441009,110.541464 C33.6465651,112.02561 33.525735,113.535987 33.0898926,114.969069 C32.189613,117.561677 32.1945326,120.380585 32.2092912,123.12078 L32.3322802,143.418887 C32.3322802,145.991818 32.3667172,148.599185 33.0111796,151.093402 C33.7441941,153.902471 35.2840166,156.765655 35.234821,159.668196 C35.1019929,165.916038 38.0537292,171.868706 37.8175903,178.067353 C37.7733143,179.257886 37.6109688,180.438581 37.4978189,181.619275 C37.2072869,184.764568 37.286541,187.933078 37.7339578,191.059912 C38.6293178,197.288076 40.9956264,203.412929 40.4052792,209.675529 C40.3659227,210.098612 40.2232554,210.659441 39.824771,210.821787 C40.3167271,211.377697 40.8382005,211.928688 41.369513,212.455081 C41.2620016,212.634347 41.1157668,212.787305 40.9415113,212.902761 C40.3601939,213.206347 39.7177438,213.374527 39.0622391,213.394717 C38.2931664,213.414894 37.5464257,213.657542 36.9123912,214.093295 C36.4515157,214.535478 36.1387582,215.10944 36.0170311,215.736428 C35.662846,216.990154 35.8787954,218.336239 36.6073784,219.416259 C37.0466387,219.96921 37.6210321,220.399582 38.2751094,220.665828 C40.5479464,221.64974 43.1553135,220.936404 45.5265417,220.218148 L54.8146721,217.404159 C55.3812054,217.286483 55.9040102,217.014011 56.3249772,216.617029 C56.5175797,216.389503 56.6450688,216.114127 56.6939443,215.820061 C58.745401,216.312017 60.9985598,215.706911 63.089373,215.082126 L72.3775034,212.263218 C72.944832,212.147779 73.4682195,211.875003 73.8878085,211.476089 C74.2262691,211.064434 74.3649822,210.523994 74.2666147,210.00022 C74.3354885,209.970703 74.4043624,209.951025 74.4732362,209.916588 C75.181653,209.596816 75.9491044,208.972032 75.7769198,208.219339 C75.6539308,207.727383 75.1619747,207.442049 74.9504336,206.989449 C74.7479433,206.390549 74.8790977,205.729156 75.2948029,205.252844 C75.6588503,204.760888 76.1508064,204.352565 76.4853365,203.836011 C77.5578007,202.192878 76.8297058,200.033191 76.4263018,198.109642 C75.5555396,194.001809 76.3623475,189.711953 75.8113567,185.550004 C75.6244134,184.147929 75.2849637,182.770453 75.0143879,181.378217 C74.4410346,178.087559 74.0615742,174.766049 73.8779694,171.430865 C73.523761,166.668731 72.2003992,161.97547 72.9580116,157.252692 C73.3259122,154.48085 73.4821502,151.685012 73.4253698,148.889439 C73.4788957,147.108574 73.4016149,145.326183 73.1941505,143.556635 C73.0022876,142.238193 72.6628379,140.944348 72.5152511,139.620987 C72.3955117,138.133473 72.3692224,136.639912 72.4365381,135.149106 C72.5043714,131.825821 72.1974213,128.505478 71.5214999,125.25095 C70.5375878,120.77907 68.687833,116.499052 67.9007033,112.017332 C68.1663596,112.076367 68.4320158,112.135402 68.687833,112.204275 C68.7173503,108.760583 65.7016597,101.273012 64.5849195,98.0064236 C64.4214503,97.6062957 64.3218453,97.1829741 64.2897458,96.7519357 C64.3572653,96.1834772 64.460784,95.6198753 64.5996781,95.0645264 C64.7423454,93.8739927 64.1077221,92.7424938 63.9355375,91.5519601 C63.8684575,90.7145063 63.9298416,89.8717189 64.1175612,89.0528234 C64.9096105,84.6498166 65.8935226,80.2812468 66.8774347,75.9175966 C67.306423,74.3371578 67.4546194,72.6936769 67.3152756,71.0619903 C67.0839322,69.3123674 67.6222863,67.5483604 68.7911438,66.2260622 C69.2234035,65.827238 69.5917565,65.3643079 69.8832862,64.8535048 C70.0468946,64.415168 70.1205129,63.9483613 70.0997469,63.4809474 C70.0802078,61.4573342 69.7822381,59.4460393 69.214226,57.5036813 C70.0800686,55.9343415 70.3998401,54.0058737 70.6507377,52.1856363 C71.2017284,48.1663553 71.7527192,44.1273961 71.733041,40.0687586 C71.7768734,37.9035963 71.4780081,35.7451247 70.8475201,33.6733298 C70.3869713,32.3938022 69.82433,31.1533592 69.1650304,29.9639812 C66.5773415,24.9804663 64.1028025,19.7362147 60.8362143,15.1708625 C59.8523022,13.7835464 60.4721668,11.8698373 60.5410407,10.1578302 C60.6148341,8.09161479 59.798187,6.10903187 58.9962986,4.21008149 C58.5871974,3.04136765 57.9594484,1.96117183 57.1465438,1.02712579 C56.5909076,0.415585739 55.8080364,0.0597351731 54.9819372,0.0432136695 C54.044741,0.157721385 53.2031482,0.672725945 52.6746633,1.45512756 C51.4729552,3.09203202 50.9752499,5.14130275 51.2922667,7.14705916 C51.6190902,9.13481845 52.4852388,10.9947408 53.7963231,12.5241389 C54.4296185,13.2937023 55.1549316,13.9826672 55.9560102,14.5755956 C56.7693775,17.1600048 57.5893043,19.7427741 58.4157905,22.3239036 C59.7145545,26.4317367 61.0133185,30.559248 62.843395,34.4457009 C63.3796271,35.5722802 63.9699744,36.7185378 64.0339287,37.9631867 C64.1028025,39.3062267 63.5419726,40.5853125 63.0942926,41.8496395 C62.1511561,44.4848038 61.6169369,47.2488073 61.5101941,50.0456275 C61.3663728,50.1093969 61.2281424,50.1850945 61.096951,50.2719273 C59.5472894,51.2853567 59.0602529,53.4942394 57.446637,54.3994386 C56.507001,54.9258316 55.3656629,54.8913946 54.3128769,55.1324531 C54.2194053,55.1324531 54.1259336,55.1816487 54.0275424,55.2111661 C53.988186,55.0143837 53.9488295,54.8225208 53.9242317,54.6208188 C53.9091272,54.4950018 53.9091272,54.3678297 53.9242317,54.2420127 C56.4326726,52.8628494 58.5398237,50.8557159 60.0392455,48.4172529 C60.355188,47.9656622 60.5991484,47.4677838 60.7624209,46.9413847 C60.8952032,46.3105996 60.920154,45.6618767 60.8362143,45.0227561 C60.7540408,42.8895794 60.4490089,40.7708446 59.9260956,38.7011208 C59.4012424,36.6213924 58.2528057,34.7519639 56.6349095,33.3437193 C55.8281016,32.6943373 54.8983047,32.2073008 54.0964163,31.5529992 C52.531996,30.2886722 51.4595318,28.4192391 49.6688118,27.4796031 C47.3146703,26.3330847 44.4763618,27.067166 42.9732898,29.2112884 C42.7350837,29.6912589 42.4000817,30.1167114 41.9893777,30.4608568 C41.6761351,30.6090514 41.3707192,30.7732535 41.0743394,30.9528128 C40.5331877,31.3857342 40.5036704,32.2171399 40.6807746,32.8911197 C41.0164678,34.2759886 41.2044608,35.6925322 41.2416045,37.1170222 C37.9625478,40.965097 37.9500579,46.6209488 41.2120871,50.4834684 C41.2120871,51.3985066 41.2120871,52.3135449 41.1776502,53.2285832 C41.1776502,53.4007678 41.1776502,53.577872 41.1432133,53.7500566 C40.5758679,53.5523717 40.0680332,53.2138152 39.6673451,52.7661445 C39.1163543,52.077406 39.0179631,51.0639765 38.3439833,50.498227 C37.8593159,50.1786838 37.3068175,49.9765502 36.7303674,49.9078798 C35.2976674,49.5823939 33.9540613,48.9458605 32.7947189,48.0433663 C31.8846002,47.3398691 30.9400446,46.4395896 29.8774195,46.232968 C28.0438276,42.7935789 25.9033217,39.5268377 23.4819908,36.4725598 C22.8679124,35.7495441 22.308801,34.9815882 21.8093402,34.175125 C20.7516346,32.3302898 20.4367828,30.1607636 19.7677225,28.1388242 C17.8982895,22.4714904 13.2345461,17.9258164 12.0981276,12.0617002 C11.6848845,9.93645001 10.3369249,8.08669523 9.41204748,6.12871011 C8.78726328,4.80534832 8.0985248,3.40819311 6.84895641,2.65058078 C5.2402601,1.66666866 3.01661871,2.11926824 1.67849823,3.44263003 C0.365875882,4.84495387 -0.224375628,6.77553035 0.0796410439,8.67212294 L0.0796410439,8.67212294 Z M58.4895839,207.76182 C57.9082665,208.065406 57.2658164,208.233586 56.6103117,208.253776 C56.2797033,208.288177 55.9512367,208.340731 55.6263996,208.411202 C55.5034106,207.378095 55.4345368,206.330228 55.3558238,205.311879 C55.0950871,201.971498 54.5736137,198.655714 54.0570598,195.344849 C53.5159081,191.901157 53.260091,188.132774 52.0892356,184.826829 C50.2050439,179.44483 48.2962544,173.900485 48.5373128,168.198714 C48.591428,166.90487 48.7537735,165.620864 48.8226473,164.331939 C48.9800733,161.139145 48.5323933,157.877476 49.3146034,154.773233 C49.6638922,153.361319 50.259159,152.01336 50.4854588,150.576848 C50.6298002,149.279561 50.646278,147.971228 50.5346544,146.670717 C50.3196456,142.156228 50.6950661,137.632989 51.6513947,133.215719 C52.5664329,134.411172 52.8665261,135.955914 53.1272628,137.436702 L54.9720981,147.443088 C56.0691601,153.380998 57.0383135,159.678035 59.9457738,164.961643 C59.5374503,166.865513 59.1340463,168.897292 59.8080261,170.717529 C60.0982802,171.504659 60.5754776,172.193397 60.8706512,172.990366 C61.3626073,174.313728 61.2937334,175.769918 61.4413202,177.171993 C61.7610917,180.123729 62.9811427,183.02627 62.0857827,185.874695 C61.1648082,188.811818 60.5660203,191.840397 60.2999822,194.907008 C60.2510628,195.759825 60.1525047,196.609068 60.0048085,197.450421 C59.8473826,198.208034 59.5915655,198.926289 59.4488982,199.70358 C59.2521913,200.794386 59.3009272,201.91531 59.5915655,202.984927 C59.8124505,203.577745 59.9482671,204.198857 59.9949694,204.829762 C59.9949694,205.459466 59.2225984,205.912066 58.6027338,206.010457 C58.7847575,206.246596 58.9815399,206.472895 59.1832419,206.694276 C59.0648234,207.111867 58.8230488,207.48396 58.4895839,207.76182 L58.4895839,207.76182 Z" id="Shape" fill="url(#linearGradient-1)" fill-rule="nonzero"></path>
                        <path d="M59.473496,206.41878 C60.2803039,205.508662 61.4413202,205.789077 62.6220148,205.789077 C65.7951314,205.848111 69.0518805,206.172802 71.9445821,207.579797 C72.7320848,207.912457 73.4128734,208.455386 73.9124063,209.149136 C74.4123091,209.870612 74.3964754,210.830527 73.8730498,211.535123 C73.4518013,211.930742 72.9289232,212.201548 72.3627447,212.317333 L72.3627447,212.317333 L63.0746144,215.116563 C60.9969827,215.741577 58.7418445,216.366591 56.6831297,215.84996 C56.6236618,216.129737 56.5039436,216.400576 56.3249772,216.641627 C55.9037287,217.037246 55.3808506,217.308052 54.8146721,217.423837 L54.8146721,217.423837 L45.5265417,220.218148 C43.1553135,220.931484 40.5479464,221.64974 38.2751094,220.665828 C37.621365,220.401354 37.0469339,219.972649 36.6073784,219.421179 C35.8799451,218.351787 35.6637586,217.015034 36.0170311,215.770865 C36.1366228,215.14594 36.4498772,214.574509 36.9123912,214.137571 C37.5464257,213.701818 38.2931664,213.45917 39.0622391,213.438993 C39.7182729,213.419922 40.361862,213.255244 40.9464308,212.956876 C41.5859737,212.538714 41.5072607,212.012321 41.930343,211.520365 C42.7322313,210.610246 43.8981672,210.89558 45.0788617,210.89558 C47.8987379,210.948043 50.7846625,211.206422 53.4189877,212.25077 C53.3694326,211.723957 53.4173896,211.186074 53.5651037,210.664361 C53.6859572,210.03989 53.9990117,209.468824 54.4604638,209.031067 C55.0954933,208.597336 55.8416222,208.354887 56.6103117,208.332489 C57.2653815,208.317753 57.9083223,208.15281 58.4895839,207.850372 C59.1291268,207.43221 59.0504138,206.910736 59.473496,206.41878 Z" id="Combined-Shape" fill="#005E7D"></path>
                        <path d="M48.5373128,107.530693 C54.0109256,106.980697 59.5170757,106.82615 65.0129212,107.068254 C65.3755743,107.064541 65.7363276,107.121065 66.0804659,107.235519 C67.2906778,107.727475 67.4776211,109.311574 67.590771,110.605418 C68.082727,115.859509 70.3752423,120.754472 71.5264194,125.900332 C72.2024487,129.134895 72.5094234,132.435699 72.4414577,135.739453 C72.3749616,137.215514 72.401251,138.694294 72.5201707,140.167058 C72.6677575,141.480581 73.0121267,142.769505 73.19907,144.078109 C73.4066218,145.836118 73.4839056,147.607068 73.4302894,149.376475 C73.4865707,152.150782 73.3303279,154.925326 72.9629311,157.675774 C72.2053188,162.364115 73.5286806,167.022939 73.882889,171.765396 C74.059415,175.082303 74.4323152,178.385837 74.9996292,181.658632 C75.270205,183.041028 75.6096547,184.408666 75.796598,185.800902 C76.3475888,189.938252 75.5407809,194.198592 76.4115431,198.281827 C76.8149471,200.190617 77.543042,202.335545 76.4705778,203.968839 C76.1360477,204.460795 75.6440917,204.878958 75.2800442,205.375833 C74.8641772,205.848155 74.732807,206.506883 74.9356749,207.102599 C75.147216,207.550279 75.6391721,207.845453 75.7621611,208.32265 C75.954024,209.075343 75.1668943,209.690288 74.4584776,210.010059 C69.1207543,212.420644 62.2382891,210.723396 58.6371707,206.103928 C59.2570353,206.005537 60.0146477,205.557857 60.0294064,204.928153 C59.9821125,204.302127 59.8462927,203.685969 59.6260024,203.098077 C59.3362614,202.036703 59.2875164,200.923972 59.4833351,199.841328 C59.6260024,199.083715 59.8818195,198.36546 60.0392455,197.602928 C60.1869367,196.766531 60.2854968,195.9222 60.3344191,195.074274 C60.6005115,192.026984 61.1993441,189.017974 62.1202196,186.100995 C63.0155796,183.272248 61.7955286,180.409063 61.4757572,177.457327 C61.3281703,176.060172 61.3921246,174.618741 60.9050881,173.300298 C60.6099145,172.523008 60.1327171,171.82443 59.842463,171.04714 C59.1684832,169.231822 59.5718872,167.214802 59.9802107,165.325691 C57.0727504,160.07652 56.103597,153.818838 55.006535,147.920285 L53.1616998,137.982773 C52.8862044,136.506905 52.5861112,134.976921 51.6858316,133.786388 C50.729546,138.173695 50.3540835,142.667667 50.5690913,147.152834 C50.6806604,148.445138 50.6641817,149.745306 50.5198957,151.034367 C50.2935959,152.46104 49.6983291,153.80408 49.3490403,155.201235 C48.5865084,158.285799 49.0341884,161.52287 48.8570843,164.695987 C48.7882104,165.979992 48.6258649,167.254158 48.5717497,168.538164 C48.3306913,174.205498 50.2394808,179.715405 52.1236725,185.062968 C53.2797692,188.344315 53.5355864,192.073342 54.0914967,195.507195 C54.5834528,198.798381 55.129524,202.089567 55.3902607,205.41027 C55.6313192,208.460398 55.7395495,211.761423 57.6384999,214.157249 C55.901895,215.283828 54.111175,216.430086 52.0793964,216.818731 C49.7116483,217.18917 47.2889203,216.719244 45.2313681,215.49045 C43.1854659,214.267143 41.3567806,212.71276 39.8198515,210.890661 C40.2183359,210.752913 40.3610031,210.172405 40.4003596,209.754242 C40.9907069,203.526079 38.6243982,197.455341 37.7290382,191.256695 C37.2814647,188.151329 37.2022028,185.00397 37.4928993,181.880012 C37.6060492,180.704237 37.7683947,179.528462 37.8126707,178.347768 C38.0488097,172.193397 35.0823146,166.265327 35.1905449,160.106037 C35.2397406,157.218255 33.7146768,154.374749 32.9669036,151.585358 C32.3224411,149.125578 32.3027629,146.518211 32.2880042,143.960039 L32.1650152,123.789841 C32.1650152,121.064404 32.1650152,118.270094 33.0456165,115.697163 C34.1279199,112.59784 32.8881906,109.040998 32.7012473,105.764571 C37.8133212,107.384754 43.1939002,107.984825 48.5373128,107.530693 L48.5373128,107.530693 Z" id="Path" fill="#B08814"></path>
                        <path d="M48.9407168,34.7605527 C54.5784882,34.7605527 59.148805,39.3308695 59.148805,44.9686409 C59.148805,48.6828883 57.1651186,51.9338209 54.1993892,53.7197953 C54.0059671,54.4447399 53.8125245,55.1907546 53.8848752,55.7178808 C54.1308532,57.562716 55.1196849,59.2156884 56.0839188,60.809626 C56.6644269,61.7935382 57.4072806,62.8414046 58.5436991,62.9496349 C55.5860663,64.5018162 52.4791618,65.7511709 49.2703273,66.6786618 C48.1796955,67.0450947 47.0362032,67.2295826 45.8856697,67.2248262 C44.9107063,67.1519962 43.9563309,66.9071564 43.0667614,66.5015576 C39.1247005,64.784869 36.1886975,61.3537895 35.1019929,57.193749 C36.3729352,57.2276064 37.6439818,57.1303408 38.8949741,56.9034949 C39.6093525,56.8486292 40.275226,56.5209772 40.754568,55.9884567 C41.0396348,55.4897515 41.172993,54.9187045 41.1382937,54.3453234 C41.1647622,53.4295138 41.178414,52.5122801 41.1769507,51.5951547 C39.6523286,49.8119336 38.7326286,47.497691 38.7326286,44.9686409 C38.7326286,39.3308695 43.3029453,34.7605527 48.9407168,34.7605527 Z M1.66373955,4.87914173 C3.00186003,3.56093825 5.22550142,3.10809991 6.83419773,4.09201203 C8.08376612,4.83486568 8.7725046,6.22218177 9.39728879,7.53570444 C10.3221662,9.50352868 11.6701258,11.3237661 12.0833689,13.4391771 C13.2197874,19.2590173 17.8835308,23.7800935 19.7529638,29.4080708 C20.4220241,31.4152515 20.7368759,33.5700191 21.7945815,35.4050152 C22.2941688,36.2067292 22.8532931,36.9697694 23.4672321,37.6876913 C26.4055381,41.3635612 28.9312924,45.3509865 30.9990793,49.5782692 C31.8895198,51.4132653 30.7973773,53.6959414 30.1824323,55.6342483 C29.6322061,57.3305913 29.3613784,59.1050945 29.3805439,60.888339 C26.5517966,60.519372 24.2100857,58.4580761 22.7096197,55.9982958 C21.2091538,53.5385155 20.3925067,50.7884811 19.3692381,48.1269988 C17.5686789,43.4386576 15.1187378,39.0405704 13.0328441,34.45554 C10.9469504,29.8705095 10.7354093,24.8427186 9.0971956,20.0953426 C8.17937963,17.4721903 6.28257699,15.3056751 3.80374841,14.0492027 C2.84443409,13.5670857 1.77688945,13.2030382 1.06355316,12.4011499 C0.513933088,11.7372084 0.171759952,10.9262581 0.0796410439,10.0692781 C-0.226251572,8.18715544 0.358988977,6.26967476 1.66373955,4.87914173 Z M54.9425807,1.4994036 C55.7682862,1.51765455 56.550507,1.87320948 57.1071874,2.48331572 C57.9186831,3.40912751 58.54645,4.48100614 58.9569421,5.64167362 C59.7588305,7.53078488 60.5754776,9.49860912 60.5016842,11.5451463 C60.4328103,13.2473143 59.798187,15.1462647 60.7968578,16.5286612 C64.063446,21.0644961 66.537985,26.2743107 69.1256739,31.2283082 C69.7857497,32.4087734 70.348445,33.6411091 70.8081636,34.9130591 C71.4401225,36.9744074 71.7390555,39.1234032 71.6936845,41.2789705 C71.6936845,45.3080906 71.162372,49.3224521 70.6113812,53.3171353 C70.2620924,55.8211916 69.8045732,58.5466282 67.9105424,60.2045201 C65.9427182,57.6857051 63.9650548,55.2259248 61.4560789,53.2581005 C61.3296467,49.7795501 61.8724287,46.3090854 63.0549361,43.0352536 C63.5075357,41.7807657 64.0388482,40.5065995 63.9945722,39.1733986 C63.9306179,37.9336693 63.3402706,36.7972508 62.8040385,35.675591 C60.9542837,31.8137359 59.6555197,27.7206615 58.376434,23.6374262 L55.9166537,15.9383139 C55.1146717,15.3502173 54.3891757,14.664384 53.7569666,13.8966963 C52.4457588,12.3806843 51.579158,10.5317088 51.2529103,8.55405348 C50.9358199,6.56221448 51.4340858,4.5265945 52.6353068,2.90639793 C53.1657019,2.12681709 54.0066666,1.61399 54.9425807,1.4994036 Z" id="Combined-Shape" fill="#F7A17D"></path>
                        <path d="M49.3982359,61.9214467 C49.6277343,59.1629832 51.5981062,56.861573 54.2882791,56.2098369 C55.3410651,55.973698 56.4824032,56.0032153 57.4220392,55.4817419 C59.0356551,54.5814623 59.5226916,52.3873383 61.0723532,51.3788284 C62.6220148,50.3703185 64.8210584,50.9311484 66.169018,52.2053146 C67.5169776,53.4794808 68.2007965,55.2947986 68.7517873,57.07076 C69.5743656,59.4720937 70.0207581,61.9861629 70.0751491,64.5238943 C70.0956676,64.9880852 70.0220363,65.4516278 69.8586884,65.8866126 C69.5669717,66.3943719 69.1985818,66.8540295 68.766546,67.2493308 C67.5984182,68.5602609 67.0595563,70.3151546 67.2906778,72.0557415 C67.4304816,73.6760441 67.282246,75.3083022 66.8528369,76.8769109 C65.8689248,81.2159633 64.8850126,85.5500962 64.0929634,89.9285051 C63.9071152,90.7343382 63.8457295,91.5638741 63.9109397,92.3882854 C64.063446,93.5738995 64.7177476,94.6955594 64.5750803,95.8811735 C64.4357565,96.4331069 64.3322302,96.9934635 64.265148,97.5587436 C64.2972939,97.9865955 64.3969162,98.4066693 64.5603217,98.8033924 C65.6770619,102.045383 68.6927525,109.473919 68.6632352,112.907773 C63.4239032,111.564733 55.700193,111.264639 50.2886764,111.240042 C48.8004949,111.224467 47.3125731,111.290159 45.8315545,111.436824 C42.2747122,111.82055 38.6342374,112.858577 35.1856254,111.899263 C31.9829914,111.008822 29.1493245,108.45557 25.8384603,108.775342 C25.1202044,106.89607 25.9663688,100.62363 26.6403487,98.7246795 C29.2678897,91.2474103 29.7786328,83.1895862 28.1162168,75.4403992 C27.5111109,72.6559279 28.3425166,69.699272 27.6685368,66.934479 C27.5453546,66.2803164 27.2946103,65.6567988 26.9306027,65.0994829 C26.5578834,64.5368573 25.9228425,64.204482 25.248113,64.2188815 C25.1867995,59.7716251 25.5990859,55.3304766 26.4780032,50.9705049 C26.8026941,49.4208433 27.4619153,47.5907667 29.0509333,47.3251105 C30.4579277,47.084052 31.6386222,48.2745857 32.7701211,49.1453479 C33.9302875,50.0434035 35.2739915,50.6749443 36.7057696,50.9951027 C37.2822197,51.0637731 37.8347181,51.2659066 38.3193855,51.5854499 C38.9933653,52.1462798 39.0917565,53.1547898 39.6427473,53.8386087 C40.6266594,55.0635793 42.825703,54.9602685 43.5242806,56.3721824 C43.6770109,56.7927478 43.8002976,57.2234292 43.8932476,57.6611073 C44.2236994,58.5000784 44.7869513,59.2271854 45.5167026,59.7568401 C46.6125181,60.7870535 47.945858,61.5306145 49.3982359,61.9214467 Z" id="Path" fill="#008AB6"></path>
                        <path d="M40.6463376,34.1160903 C40.4692335,33.4421105 40.4987508,32.6402221 41.0399025,32.1876225 C41.3104783,31.9760814 41.6646867,31.8973685 41.9549408,31.6956665 C42.3640038,31.3518783 42.6987759,30.9283917 42.9388529,30.4510177 C44.4547357,28.3297173 47.2803789,27.6123907 49.6245357,28.7537693 C51.4004971,29.6835662 52.4729613,31.5431601 54.0521402,32.7976481 C54.8540286,33.4470301 55.7838256,33.929147 56.5906335,34.578529 C58.2064829,35.9743137 59.3552266,37.8322221 59.8818195,39.9014935 C60.4046939,41.9561997 60.7097489,44.0602542 60.7919382,46.1788528 C60.8759016,46.8146905 60.8509469,47.4601848 60.7181448,48.0876424 C60.5546508,48.6139534 60.3107066,49.1117987 59.9949694,49.5635105 C58.3715144,52.0232908 56.2315056,54.2567713 53.5503451,55.526018 C50.8691845,56.7952646 47.6075159,57.0018861 44.9607923,55.6736048 C44.6945167,55.5660167 44.4654157,55.3830779 44.3015712,55.1472118 C44.1511293,54.7880331 44.1150547,54.3912127 44.1982604,54.0107933 C44.3417271,52.5071925 44.0442869,50.9943498 43.3422568,49.6569822 C42.8503008,48.6730701 42.1123667,47.8269056 41.7188018,46.8085566 C41.3528342,45.6686792 41.1961637,44.4719829 41.2563632,43.2763121 C41.2120871,40.1819085 41.4236282,37.097344 40.6463376,34.1160903 Z" id="Path" fill="#D45925"></path>
                    </g>
                </g>
                <path d="M232,19.6623355 C234.2,19.6623355 236,17.8623355 236,15.6623355 C236,13.4623355 234.2,11.6623355 232,11.6623355 C229.8,11.6623355 228,13.4623355 228,15.6623355 C228,17.8623355 229.8,19.6623355 232,19.6623355 Z" id="Path" fill="#2CC0BF"></path>
                <path d="M136.5,44.0104032 C140.625,44.0104032 144,40.6354032 144,36.5104032 C144,32.3854032 140.625,29.0104032 136.5,29.0104032 C132.375,29.0104032 129,32.3854032 129,36.5104032 C129,40.6354032 132.375,44.0104032 136.5,44.0104032 Z" id="Path" fill="#009392"></path>
                <path d="M444.83314,29.0104032 C448.40814,29.0104032 451.33314,26.0854032 451.33314,22.5104032 C451.33314,18.9354032 448.40814,16.0104032 444.83314,16.0104032 C441.25814,16.0104032 438.33314,18.9354032 438.33314,22.5104032 C438.33314,26.0854032 441.25814,29.0104032 444.83314,29.0104032 Z" id="Path" fill="#00A2A2"></path>
                <path d="M309,131 C311.75,131 314,128.75 314,126 C314,123.25 311.75,121 309,121 C306.25,121 304,123.25 304,126 C304,128.75 306.25,131 309,131 Z" id="Path" fill="#00A2A2"></path>
                <g id="code-bubble" opacity="0.8" transform="translate(311.908185, 30.000000)">
                    <mask id="mask-3" fill="white">
                        <use xlink:href="#path-2"></use>
                    </mask>
                    <use id="Oval" fill="#055D5D" xlink:href="#path-2"></use>
                    <g id="code" mask="url(#mask-3)" fill="#008383">
                        <g transform="translate(64.119606, 37.581673) scale(1, -1) translate(-64.119606, -37.581673) translate(19.119606, 16.081673)" id="Combined-Shape">
                            <path d="M69.8164792,40.0529828 L69.8164792,42.3053437 L27.0746914,42.3053437 L27.0746914,40.0529828 L69.8164792,40.0529828 Z M59.3182068,31.5335529 L59.3182068,33.7859138 L31.5740045,33.7859138 L31.5740045,31.5335529 L59.3182068,31.5335529 Z M84.0619922,25.0267326 L84.0619922,27.2790934 L39.0726098,27.2790934 L39.0726098,25.0267326 L84.0619922,25.0267326 Z M89.3133779,18.5199122 L89.3133779,20.7722731 L46.5712151,20.7722731 L46.5712151,18.5199122 L89.3133779,18.5199122 Z M81.8147726,12.0125914 L81.8147726,14.2649523 L39.0726098,14.2649523 L39.0726098,12.0125914 L81.8147726,12.0125914 Z M74.3157923,5.50577105 L74.3157923,7.75813193 L31.5740045,7.75813193 L31.5740045,5.50577105 L74.3157923,5.50577105 Z M69.8164792,2.46683602e-15 L69.8164792,2.25236088 L27.0746914,2.25236088 L27.0746914,2.46683602e-15 L69.8164792,2.46683602e-15 Z"></path>
                            <path d="M24.0663923,40.0529828 L24.0663923,42.3053437 L11.2811214,42.3053437 L11.2811214,40.0529828 L24.0663923,40.0529828 Z M28.5792169,31.5335529 L28.5792169,33.7859138 L15.793946,33.7859138 L15.793946,31.5335529 L28.5792169,31.5335529 Z M36.1003406,25.0267326 L36.1003406,27.2790934 L23.3150696,27.2790934 L23.3150696,25.0267326 L36.1003406,25.0267326 Z M43.6214642,18.5199122 L43.6214642,20.7722731 L30.8361933,20.7722731 L30.8361933,18.5199122 L43.6214642,18.5199122 Z M36.1003406,12.0125914 L36.1003406,14.2649523 L23.3150696,14.2649523 L23.3150696,12.0125914 L36.1003406,12.0125914 Z M28.5792169,5.50577105 L28.5792169,7.75813193 L15.793946,7.75813193 L15.793946,5.50577105 L28.5792169,5.50577105 Z M24.0663923,2.46683602e-15 L24.0663923,2.25236088 L11.2811214,2.25236088 L11.2811214,2.46683602e-15 L24.0663923,2.46683602e-15 Z"></path>
                            <path d="M5.07614203,40.0529828 L5.07614203,42.3053437 L-2.6770887e-12,42.3053437 L-2.6770887e-12,40.0529828 L5.07614203,40.0529828 Z M5.07614203,31.5335529 L5.07614203,33.7859138 L-2.6770887e-12,33.7859138 L-2.6770887e-12,31.5335529 L5.07614203,31.5335529 Z M5.07614203,25.0267326 L5.07614203,27.2790934 L-2.6770887e-12,27.2790934 L-2.6770887e-12,25.0267326 L5.07614203,25.0267326 Z M5.07614203,18.5199122 L5.07614203,20.7722731 L-2.6770887e-12,20.7722731 L-2.6770887e-12,18.5199122 L5.07614203,18.5199122 Z M5.07614203,12.0125914 L5.07614203,14.2649523 L-2.6770887e-12,14.2649523 L-2.6770887e-12,12.0125914 L5.07614203,12.0125914 Z M5.07614203,5.50577105 L5.07614203,7.75813193 L-2.6770887e-12,7.75813193 L-2.6770887e-12,5.50577105 L5.07614203,5.50577105 Z M5.07614203,2.46683602e-15 L5.07614203,2.25236088 L-2.6770887e-12,2.25236088 L-2.6770887e-12,2.46683602e-15 L5.07614203,2.46683602e-15 Z"></path>
                        </g>
                    </g>
                </g>
                <g id="data-bubble">
                    <mask id="mask-5" fill="white">
                        <use xlink:href="#path-4"></use>
                    </mask>
                    <use id="Oval" fill="#007373" opacity="0.4" xlink:href="#path-4"></use>
                    <path d="M93.7750445,105.116751 C94.8082437,105.116751 95.6458171,105.954324 95.6458171,106.987523 C95.6458171,108.020723 94.8082437,108.858296 93.7750445,108.858296 C92.7418454,108.858296 91.904272,108.020723 91.904272,106.987523 C91.904272,105.954324 92.7418454,105.116751 93.7750445,105.116751 Z M105.778934,105.116751 C106.812133,105.116751 107.649706,105.954324 107.649706,106.987523 C107.649706,108.020723 106.812133,108.858296 105.778934,108.858296 C104.745735,108.858296 103.908161,108.020723 103.908161,106.987523 C103.908161,105.954324 104.745735,105.116751 105.778934,105.116751 Z M57.7633767,105.116751 C58.7965758,105.116751 59.6341493,105.954324 59.6341493,106.987523 C59.6341493,108.020723 58.7965758,108.858296 57.7633767,108.858296 C56.7301775,108.858296 55.8926041,108.020723 55.8926041,106.987523 C55.8926041,105.954324 56.7301775,105.116751 57.7633767,105.116751 Z M69.767266,105.116751 C70.8004651,105.116751 71.6380385,105.954324 71.6380385,106.987523 C71.6380385,108.020723 70.8004651,108.858296 69.767266,108.858296 C68.7340668,108.858296 67.8964934,108.020723 67.8964934,106.987523 C67.8964934,105.954324 68.7340668,105.116751 69.767266,105.116751 Z M81.7711552,105.116751 C82.8043544,105.116751 83.6419278,105.954324 83.6419278,106.987523 C83.6419278,108.020723 82.8043544,108.858296 81.7711552,108.858296 C80.7379561,108.858296 79.9003827,108.020723 79.9003827,106.987523 C79.9003827,105.954324 80.7379561,105.116751 81.7711552,105.116751 Z M33.7555981,105.116751 C34.7887973,105.116751 35.6263707,105.954324 35.6263707,106.987523 C35.6263707,108.020723 34.7887973,108.858296 33.7555981,108.858296 C32.722399,108.858296 31.8848256,108.020723 31.8848256,106.987523 C31.8848256,105.954324 32.722399,105.116751 33.7555981,105.116751 Z M45.7594874,105.116751 C46.7926866,105.116751 47.63026,105.954324 47.63026,106.987523 C47.63026,108.020723 46.7926866,108.858296 45.7594874,108.858296 C44.7262883,108.858296 43.8887149,108.020723 43.8887149,106.987523 C43.8887149,105.954324 44.7262883,105.116751 45.7594874,105.116751 Z M9.7478196,105.116751 C10.7810188,105.116751 11.6185922,105.954324 11.6185922,106.987523 C11.6185922,108.020723 10.7810188,108.858296 9.7478196,108.858296 C8.71462044,108.858296 7.87704704,108.020723 7.87704704,106.987523 C7.87704704,105.954324 8.71462044,105.116751 9.7478196,105.116751 Z M21.7517089,105.116751 C22.784908,105.116751 23.6224814,105.954324 23.6224814,106.987523 C23.6224814,108.020723 22.784908,108.858296 21.7517089,108.858296 C20.7185097,108.858296 19.8809363,108.020723 19.8809363,106.987523 C19.8809363,105.954324 20.7185097,105.116751 21.7517089,105.116751 Z M45.7594874,91.8036084 C46.7926866,91.8036084 47.63026,92.6411818 47.63026,93.674381 C47.63026,94.7075802 46.7926866,95.5451536 45.7594874,95.5451536 C44.7262883,95.5451536 43.8887149,94.7075802 43.8887149,93.674381 C43.8887149,92.6411818 44.7262883,91.8036084 45.7594874,91.8036084 Z M9.7478196,91.8036084 C10.7810188,91.8036084 11.6185922,92.6411818 11.6185922,93.674381 C11.6185922,94.7075802 10.7810188,95.5451536 9.7478196,95.5451536 C8.71462044,95.5451536 7.87704704,94.7075802 7.87704704,93.674381 C7.87704704,92.6411818 8.71462044,91.8036084 9.7478196,91.8036084 Z M21.7517089,91.8036084 C22.784908,91.8036084 23.6224814,92.6411818 23.6224814,93.674381 C23.6224814,94.7075802 22.784908,95.5451536 21.7517089,95.5451536 C20.7185097,95.5451536 19.8809363,94.7075802 19.8809363,93.674381 C19.8809363,92.6411818 20.7185097,91.8036084 21.7517089,91.8036084 Z M93.7750445,91.8036084 C94.8082437,91.8036084 95.6458171,92.6411818 95.6458171,93.674381 C95.6458171,94.7075802 94.8082437,95.5451536 93.7750445,95.5451536 C92.7418454,95.5451536 91.904272,94.7075802 91.904272,93.674381 C91.904272,92.6411818 92.7418454,91.8036084 93.7750445,91.8036084 Z M105.778934,91.8036084 C106.812133,91.8036084 107.649706,92.6411818 107.649706,93.674381 C107.649706,94.7075802 106.812133,95.5451536 105.778934,95.5451536 C104.745735,95.5451536 103.908161,94.7075802 103.908161,93.674381 C103.908161,92.6411818 104.745735,91.8036084 105.778934,91.8036084 Z M57.7633767,91.8036084 C58.7965758,91.8036084 59.6341493,92.6411818 59.6341493,93.674381 C59.6341493,94.7075802 58.7965758,95.5451536 57.7633767,95.5451536 C56.7301775,95.5451536 55.8926041,94.7075802 55.8926041,93.674381 C55.8926041,92.6411818 56.7301775,91.8036084 57.7633767,91.8036084 Z M69.767266,91.8036084 C70.8004651,91.8036084 71.6380385,92.6411818 71.6380385,93.674381 C71.6380385,94.7075802 70.8004651,95.5451536 69.767266,95.5451536 C68.7340668,95.5451536 67.8964934,94.7075802 67.8964934,93.674381 C67.8964934,92.6411818 68.7340668,91.8036084 69.767266,91.8036084 Z M81.7711552,91.8036084 C82.8043544,91.8036084 83.6419278,92.6411818 83.6419278,93.674381 C83.6419278,94.7075802 82.8043544,95.5451536 81.7711552,95.5451536 C80.7379561,95.5451536 79.9003827,94.7075802 79.9003827,93.674381 C79.9003827,92.6411818 80.7379561,91.8036084 81.7711552,91.8036084 Z M33.7555981,91.8036084 C34.7887973,91.8036084 35.6263707,92.6411818 35.6263707,93.674381 C35.6263707,94.7075802 34.7887973,95.5451536 33.7555981,95.5451536 C32.722399,95.5451536 31.8848256,94.7075802 31.8848256,93.674381 C31.8848256,92.6411818 32.722399,91.8036084 33.7555981,91.8036084 Z M93.7750445,78.490466 C94.8082437,78.490466 95.6458171,79.3280394 95.6458171,80.3612385 C95.6458171,81.3944377 94.8082437,82.2320111 93.7750445,82.2320111 C92.7418454,82.2320111 91.904272,81.3944377 91.904272,80.3612385 C91.904272,79.3280394 92.7418454,78.490466 93.7750445,78.490466 Z M9.7478196,78.490466 C10.7810188,78.490466 11.6185922,79.3280394 11.6185922,80.3612385 C11.6185922,81.3944377 10.7810188,82.2320111 9.7478196,82.2320111 C8.71462044,82.2320111 7.87704704,81.3944377 7.87704704,80.3612385 C7.87704704,79.3280394 8.71462044,78.490466 9.7478196,78.490466 Z M21.7517089,78.490466 C22.784908,78.490466 23.6224814,79.3280394 23.6224814,80.3612385 C23.6224814,81.3944377 22.784908,82.2320111 21.7517089,82.2320111 C20.7185097,82.2320111 19.8809363,81.3944377 19.8809363,80.3612385 C19.8809363,79.3280394 20.7185097,78.490466 21.7517089,78.490466 Z M69.767266,78.490466 C70.8004651,78.490466 71.6380385,79.3280394 71.6380385,80.3612385 C71.6380385,81.3944377 70.8004651,82.2320111 69.767266,82.2320111 C68.7340668,82.2320111 67.8964934,81.3944377 67.8964934,80.3612385 C67.8964934,79.3280394 68.7340668,78.490466 69.767266,78.490466 Z M81.7711552,78.490466 C82.8043544,78.490466 83.6419278,79.3280394 83.6419278,80.3612385 C83.6419278,81.3944377 82.8043544,82.2320111 81.7711552,82.2320111 C80.7379561,82.2320111 79.9003827,81.3944377 79.9003827,80.3612385 C79.9003827,79.3280394 80.7379561,78.490466 81.7711552,78.490466 Z M57.7633767,78.490466 C58.7965758,78.490466 59.6341493,79.3280394 59.6341493,80.3612385 C59.6341493,81.3944377 58.7965758,82.2320111 57.7633767,82.2320111 C56.7301775,82.2320111 55.8926041,81.3944377 55.8926041,80.3612385 C55.8926041,79.3280394 56.7301775,78.490466 57.7633767,78.490466 Z M33.7555981,78.490466 C34.7887973,78.490466 35.6263707,79.3280394 35.6263707,80.3612385 C35.6263707,81.3944377 34.7887973,82.2320111 33.7555981,82.2320111 C32.722399,82.2320111 31.8848256,81.3944377 31.8848256,80.3612385 C31.8848256,79.3280394 32.722399,78.490466 33.7555981,78.490466 Z M105.778934,78.490466 C106.812133,78.490466 107.649706,79.3280394 107.649706,80.3612385 C107.649706,81.3944377 106.812133,82.2320111 105.778934,82.2320111 C104.745735,82.2320111 103.908161,81.3944377 103.908161,80.3612385 C103.908161,79.3280394 104.745735,78.490466 105.778934,78.490466 Z M45.7594874,78.490466 C46.7926866,78.490466 47.63026,79.3280394 47.63026,80.3612385 C47.63026,81.3944377 46.7926866,82.2320111 45.7594874,82.2320111 C44.7262883,82.2320111 43.8887149,81.3944377 43.8887149,80.3612385 C43.8887149,79.3280394 44.7262883,78.490466 45.7594874,78.490466 Z M93.7750445,65.1773235 C94.8082437,65.1773235 95.6458171,66.0148969 95.6458171,67.048096 C95.6458171,68.0812952 94.8082437,68.9188686 93.7750445,68.9188686 C92.7418454,68.9188686 91.904272,68.0812952 91.904272,67.048096 C91.904272,66.0148969 92.7418454,65.1773235 93.7750445,65.1773235 Z M105.778934,65.1773235 C106.812133,65.1773235 107.649706,66.0148969 107.649706,67.048096 C107.649706,68.0812952 106.812133,68.9188686 105.778934,68.9188686 C104.745735,68.9188686 103.908161,68.0812952 103.908161,67.048096 C103.908161,66.0148969 104.745735,65.1773235 105.778934,65.1773235 Z M57.7633767,65.1773235 C58.7965758,65.1773235 59.6341493,66.0148969 59.6341493,67.048096 C59.6341493,68.0812952 58.7965758,68.9188686 57.7633767,68.9188686 C56.7301775,68.9188686 55.8926041,68.0812952 55.8926041,67.048096 C55.8926041,66.0148969 56.7301775,65.1773235 57.7633767,65.1773235 Z M69.767266,65.1773235 C70.8004651,65.1773235 71.6380385,66.0148969 71.6380385,67.048096 C71.6380385,68.0812952 70.8004651,68.9188686 69.767266,68.9188686 C68.7340668,68.9188686 67.8964934,68.0812952 67.8964934,67.048096 C67.8964934,66.0148969 68.7340668,65.1773235 69.767266,65.1773235 Z M81.7711552,65.1773235 C82.8043544,65.1773235 83.6419278,66.0148969 83.6419278,67.048096 C83.6419278,68.0812952 82.8043544,68.9188686 81.7711552,68.9188686 C80.7379561,68.9188686 79.9003827,68.0812952 79.9003827,67.048096 C79.9003827,66.0148969 80.7379561,65.1773235 81.7711552,65.1773235 Z M33.7555981,65.1773235 C34.7887973,65.1773235 35.6263707,66.0148969 35.6263707,67.048096 C35.6263707,68.0812952 34.7887973,68.9188686 33.7555981,68.9188686 C32.722399,68.9188686 31.8848256,68.0812952 31.8848256,67.048096 C31.8848256,66.0148969 32.722399,65.1773235 33.7555981,65.1773235 Z M45.7594874,65.1773235 C46.7926866,65.1773235 47.63026,66.0148969 47.63026,67.048096 C47.63026,68.0812952 46.7926866,68.9188686 45.7594874,68.9188686 C44.7262883,68.9188686 43.8887149,68.0812952 43.8887149,67.048096 C43.8887149,66.0148969 44.7262883,65.1773235 45.7594874,65.1773235 Z M9.7478196,65.1773235 C10.7810188,65.1773235 11.6185922,66.0148969 11.6185922,67.048096 C11.6185922,68.0812952 10.7810188,68.9188686 9.7478196,68.9188686 C8.71462044,68.9188686 7.87704704,68.0812952 7.87704704,67.048096 C7.87704704,66.0148969 8.71462044,65.1773235 9.7478196,65.1773235 Z M21.7517089,65.1773235 C22.784908,65.1773235 23.6224814,66.0148969 23.6224814,67.048096 C23.6224814,68.0812952 22.784908,68.9188686 21.7517089,68.9188686 C20.7185097,68.9188686 19.8809363,68.0812952 19.8809363,67.048096 C19.8809363,66.0148969 20.7185097,65.1773235 21.7517089,65.1773235 Z M93.7750445,51.4068623 C94.8082437,51.4068623 95.6458171,52.2444357 95.6458171,53.2776349 C95.6458171,54.310834 94.8082437,55.1484074 93.7750445,55.1484074 C92.7418454,55.1484074 91.904272,54.310834 91.904272,53.2776349 C91.904272,52.2444357 92.7418454,51.4068623 93.7750445,51.4068623 Z M105.778934,51.4068623 C106.812133,51.4068623 107.649706,52.2444357 107.649706,53.2776349 C107.649706,54.310834 106.812133,55.1484074 105.778934,55.1484074 C104.745735,55.1484074 103.908161,54.310834 103.908161,53.2776349 C103.908161,52.2444357 104.745735,51.4068623 105.778934,51.4068623 Z M57.7633767,51.4068623 C58.7965758,51.4068623 59.6341493,52.2444357 59.6341493,53.2776349 C59.6341493,54.310834 58.7965758,55.1484074 57.7633767,55.1484074 C56.7301775,55.1484074 55.8926041,54.310834 55.8926041,53.2776349 C55.8926041,52.2444357 56.7301775,51.4068623 57.7633767,51.4068623 Z M69.767266,51.4068623 C70.8004651,51.4068623 71.6380385,52.2444357 71.6380385,53.2776349 C71.6380385,54.310834 70.8004651,55.1484074 69.767266,55.1484074 C68.7340668,55.1484074 67.8964934,54.310834 67.8964934,53.2776349 C67.8964934,52.2444357 68.7340668,51.4068623 69.767266,51.4068623 Z M81.7711552,51.4068623 C82.8043544,51.4068623 83.6419278,52.2444357 83.6419278,53.2776349 C83.6419278,54.310834 82.8043544,55.1484074 81.7711552,55.1484074 C80.7379561,55.1484074 79.9003827,54.310834 79.9003827,53.2776349 C79.9003827,52.2444357 80.7379561,51.4068623 81.7711552,51.4068623 Z M33.7555981,51.4068623 C34.7887973,51.4068623 35.6263707,52.2444357 35.6263707,53.2776349 C35.6263707,54.310834 34.7887973,55.1484074 33.7555981,55.1484074 C32.722399,55.1484074 31.8848256,54.310834 31.8848256,53.2776349 C31.8848256,52.2444357 32.722399,51.4068623 33.7555981,51.4068623 Z M45.7594874,51.4068623 C46.7926866,51.4068623 47.63026,52.2444357 47.63026,53.2776349 C47.63026,54.310834 46.7926866,55.1484074 45.7594874,55.1484074 C44.7262883,55.1484074 43.8887149,54.310834 43.8887149,53.2776349 C43.8887149,52.2444357 44.7262883,51.4068623 45.7594874,51.4068623 Z M9.7478196,51.4068623 C10.7810188,51.4068623 11.6185922,52.2444357 11.6185922,53.2776349 C11.6185922,54.310834 10.7810188,55.1484074 9.7478196,55.1484074 C8.71462044,55.1484074 7.87704704,54.310834 7.87704704,53.2776349 C7.87704704,52.2444357 8.71462044,51.4068623 9.7478196,51.4068623 Z M21.7517089,51.4068623 C22.784908,51.4068623 23.6224814,52.2444357 23.6224814,53.2776349 C23.6224814,54.310834 22.784908,55.1484074 21.7517089,55.1484074 C20.7185097,55.1484074 19.8809363,54.310834 19.8809363,53.2776349 C19.8809363,52.2444357 20.7185097,51.4068623 21.7517089,51.4068623 Z M93.7750445,38.0937198 C94.8082437,38.0937198 95.6458171,38.9312932 95.6458171,39.9644924 C95.6458171,40.9976915 94.8082437,41.8352649 93.7750445,41.8352649 C92.7418454,41.8352649 91.904272,40.9976915 91.904272,39.9644924 C91.904272,38.9312932 92.7418454,38.0937198 93.7750445,38.0937198 Z M105.778934,38.0937198 C106.812133,38.0937198 107.649706,38.9312932 107.649706,39.9644924 C107.649706,40.9976915 106.812133,41.8352649 105.778934,41.8352649 C104.745735,41.8352649 103.908161,40.9976915 103.908161,39.9644924 C103.908161,38.9312932 104.745735,38.0937198 105.778934,38.0937198 Z M57.7633767,38.0937198 C58.7965758,38.0937198 59.6341493,38.9312932 59.6341493,39.9644924 C59.6341493,40.9976915 58.7965758,41.8352649 57.7633767,41.8352649 C56.7301775,41.8352649 55.8926041,40.9976915 55.8926041,39.9644924 C55.8926041,38.9312932 56.7301775,38.0937198 57.7633767,38.0937198 Z M69.767266,38.0937198 C70.8004651,38.0937198 71.6380385,38.9312932 71.6380385,39.9644924 C71.6380385,40.9976915 70.8004651,41.8352649 69.767266,41.8352649 C68.7340668,41.8352649 67.8964934,40.9976915 67.8964934,39.9644924 C67.8964934,38.9312932 68.7340668,38.0937198 69.767266,38.0937198 Z M81.7711552,38.0937198 C82.8043544,38.0937198 83.6419278,38.9312932 83.6419278,39.9644924 C83.6419278,40.9976915 82.8043544,41.8352649 81.7711552,41.8352649 C80.7379561,41.8352649 79.9003827,40.9976915 79.9003827,39.9644924 C79.9003827,38.9312932 80.7379561,38.0937198 81.7711552,38.0937198 Z M33.7555981,38.0937198 C34.7887973,38.0937198 35.6263707,38.9312932 35.6263707,39.9644924 C35.6263707,40.9976915 34.7887973,41.8352649 33.7555981,41.8352649 C32.722399,41.8352649 31.8848256,40.9976915 31.8848256,39.9644924 C31.8848256,38.9312932 32.722399,38.0937198 33.7555981,38.0937198 Z M45.7594874,38.0937198 C46.7926866,38.0937198 47.63026,38.9312932 47.63026,39.9644924 C47.63026,40.9976915 46.7926866,41.8352649 45.7594874,41.8352649 C44.7262883,41.8352649 43.8887149,40.9976915 43.8887149,39.9644924 C43.8887149,38.9312932 44.7262883,38.0937198 45.7594874,38.0937198 Z M9.74781959,38.0937198 C10.7810188,38.0937198 11.6185922,38.9312932 11.6185922,39.9644924 C11.6185922,40.9976915 10.7810188,41.8352649 9.74781959,41.8352649 C8.71462044,41.8352649 7.87704703,40.9976915 7.87704703,39.9644924 C7.87704703,38.9312932 8.71462044,38.0937198 9.74781959,38.0937198 Z M21.7517089,38.0937198 C22.784908,38.0937198 23.6224814,38.9312932 23.6224814,39.9644924 C23.6224814,40.9976915 22.784908,41.8352649 21.7517089,41.8352649 C20.7185097,41.8352649 19.8809363,40.9976915 19.8809363,39.9644924 C19.8809363,38.9312932 20.7185097,38.0937198 21.7517089,38.0937198 Z M93.7750445,24.7805773 C94.8082437,24.7805773 95.6458171,25.6181507 95.6458171,26.6513499 C95.6458171,27.6845491 94.8082437,28.5221225 93.7750445,28.5221225 C92.7418454,28.5221225 91.904272,27.6845491 91.904272,26.6513499 C91.904272,25.6181507 92.7418454,24.7805773 93.7750445,24.7805773 Z M105.778934,24.7805773 C106.812133,24.7805773 107.649706,25.6181507 107.649706,26.6513499 C107.649706,27.6845491 106.812133,28.5221225 105.778934,28.5221225 C104.745735,28.5221225 103.908161,27.6845491 103.908161,26.6513499 C103.908161,25.6181507 104.745735,24.7805773 105.778934,24.7805773 Z M57.7633767,24.7805773 C58.7965758,24.7805773 59.6341493,25.6181507 59.6341493,26.6513499 C59.6341493,27.6845491 58.7965758,28.5221225 57.7633767,28.5221225 C56.7301775,28.5221225 55.8926041,27.6845491 55.8926041,26.6513499 C55.8926041,25.6181507 56.7301775,24.7805773 57.7633767,24.7805773 Z M69.767266,24.7805773 C70.8004651,24.7805773 71.6380385,25.6181507 71.6380385,26.6513499 C71.6380385,27.6845491 70.8004651,28.5221225 69.767266,28.5221225 C68.7340668,28.5221225 67.8964934,27.6845491 67.8964934,26.6513499 C67.8964934,25.6181507 68.7340668,24.7805773 69.767266,24.7805773 Z M81.7711552,24.7805773 C82.8043544,24.7805773 83.6419278,25.6181507 83.6419278,26.6513499 C83.6419278,27.6845491 82.8043544,28.5221225 81.7711552,28.5221225 C80.7379561,28.5221225 79.9003827,27.6845491 79.9003827,26.6513499 C79.9003827,25.6181507 80.7379561,24.7805773 81.7711552,24.7805773 Z M33.7555981,24.7805773 C34.7887973,24.7805773 35.6263707,25.6181507 35.6263707,26.6513499 C35.6263707,27.6845491 34.7887973,28.5221225 33.7555981,28.5221225 C32.722399,28.5221225 31.8848256,27.6845491 31.8848256,26.6513499 C31.8848256,25.6181507 32.722399,24.7805773 33.7555981,24.7805773 Z M45.7594874,24.7805773 C46.7926866,24.7805773 47.63026,25.6181507 47.63026,26.6513499 C47.63026,27.6845491 46.7926866,28.5221225 45.7594874,28.5221225 C44.7262883,28.5221225 43.8887149,27.6845491 43.8887149,26.6513499 C43.8887149,25.6181507 44.7262883,24.7805773 45.7594874,24.7805773 Z M9.7478196,24.7805773 C10.7810188,24.7805773 11.6185922,25.6181507 11.6185922,26.6513499 C11.6185922,27.6845491 10.7810188,28.5221225 9.7478196,28.5221225 C8.71462044,28.5221225 7.87704704,27.6845491 7.87704704,26.6513499 C7.87704704,25.6181507 8.71462044,24.7805773 9.7478196,24.7805773 Z M21.7517089,24.7805773 C22.784908,24.7805773 23.6224814,25.6181507 23.6224814,26.6513499 C23.6224814,27.6845491 22.784908,28.5221225 21.7517089,28.5221225 C20.7185097,28.5221225 19.8809363,27.6845491 19.8809363,26.6513499 C19.8809363,25.6181507 20.7185097,24.7805773 21.7517089,24.7805773 Z M93.7750445,11.4674348 C94.8082437,11.4674348 95.6458171,12.3050083 95.6458171,13.3382074 C95.6458171,14.3714066 94.8082437,15.20898 93.7750445,15.20898 C92.7418454,15.20898 91.904272,14.3714066 91.904272,13.3382074 C91.904272,12.3050083 92.7418454,11.4674348 93.7750445,11.4674348 Z M105.778934,11.4674348 C106.812133,11.4674348 107.649706,12.3050083 107.649706,13.3382074 C107.649706,14.3714066 106.812133,15.20898 105.778934,15.20898 C104.745735,15.20898 103.908161,14.3714066 103.908161,13.3382074 C103.908161,12.3050083 104.745735,11.4674348 105.778934,11.4674348 Z M57.7633767,11.4674348 C58.7965758,11.4674348 59.6341493,12.3050083 59.6341493,13.3382074 C59.6341493,14.3714066 58.7965758,15.20898 57.7633767,15.20898 C56.7301775,15.20898 55.8926041,14.3714066 55.8926041,13.3382074 C55.8926041,12.3050083 56.7301775,11.4674348 57.7633767,11.4674348 Z M69.767266,11.4674348 C70.8004651,11.4674348 71.6380385,12.3050083 71.6380385,13.3382074 C71.6380385,14.3714066 70.8004651,15.20898 69.767266,15.20898 C68.7340668,15.20898 67.8964934,14.3714066 67.8964934,13.3382074 C67.8964934,12.3050083 68.7340668,11.4674348 69.767266,11.4674348 Z M81.7711552,11.4674348 C82.8043544,11.4674348 83.6419278,12.3050083 83.6419278,13.3382074 C83.6419278,14.3714066 82.8043544,15.20898 81.7711552,15.20898 C80.7379561,15.20898 79.9003827,14.3714066 79.9003827,13.3382074 C79.9003827,12.3050083 80.7379561,11.4674348 81.7711552,11.4674348 Z M33.7555981,11.4674348 C34.7887973,11.4674348 35.6263707,12.3050083 35.6263707,13.3382074 C35.6263707,14.3714066 34.7887973,15.20898 33.7555981,15.20898 C32.722399,15.20898 31.8848256,14.3714066 31.8848256,13.3382074 C31.8848256,12.3050083 32.722399,11.4674348 33.7555981,11.4674348 Z M45.7594874,11.4674348 C46.7926866,11.4674348 47.63026,12.3050083 47.63026,13.3382074 C47.63026,14.3714066 46.7926866,15.20898 45.7594874,15.20898 C44.7262883,15.20898 43.8887149,14.3714066 43.8887149,13.3382074 C43.8887149,12.3050083 44.7262883,11.4674348 45.7594874,11.4674348 Z M9.7478196,11.4674348 C10.7810188,11.4674348 11.6185922,12.3050083 11.6185922,13.3382074 C11.6185922,14.3714066 10.7810188,15.20898 9.7478196,15.20898 C8.71462044,15.20898 7.87704704,14.3714066 7.87704704,13.3382074 C7.87704704,12.3050083 8.71462044,11.4674348 9.7478196,11.4674348 Z M21.7517089,11.4674348 C22.784908,11.4674348 23.6224814,12.3050083 23.6224814,13.3382074 C23.6224814,14.3714066 22.784908,15.20898 21.7517089,15.20898 C20.7185097,15.20898 19.8809363,14.3714066 19.8809363,13.3382074 C19.8809363,12.3050083 20.7185097,11.4674348 21.7517089,11.4674348 Z" id="Combined-Shape" fill="#007373" mask="url(#mask-5)"></path>
                    <path d="M20.2976638,56.986453 C22.0695381,56.986453 23.5192533,55.5367377 23.5192533,53.7648635 C23.5192533,51.9929893 22.0695381,50.543274 20.2976638,50.543274 C18.5257896,50.543274 17.0760743,51.9929893 17.0760743,53.7648635 C17.0760743,55.5367377 18.5257896,56.986453 20.2976638,56.986453 Z" id="Path" fill="#2CC0BF" mask="url(#mask-5)"></path>
                </g>
                <g id="rocket" transform="translate(227.954093, 64.455125) rotate(68.000000) translate(-227.954093, -64.455125) translate(206.954093, 24.455125)">
                    <path d="M11.5841269,61.6749771 C11.3043804,61.7243049 11.0304474,61.8018977 10.7666012,61.906545 C4.88695655,64.2373735 4.98505963,79.4948859 4.98505963,79.4948859 L3.25408527,79.4948859 C3.25408527,79.4948859 2.70906816,72.9471407 0.333883564,63.6054311 C-1.80585363,55.2008142 6.97001197,47.6683643 8.75221794,46.2400014 C8.95278424,46.0809337 9.06396773,45.9965305 9.06396773,45.9965305 C17.9030553,49.2211679 11.5841269,61.6749771 11.5841269,61.6749771 Z" id="Path" fill="#00A2A2"></path>
                    <path d="M40.7469027,63.6075953 C38.366268,72.9493049 37.8299711,79.4948859 37.8299711,79.4948859 L36.0957267,79.4948859 C36.0957267,79.4948859 36.2047301,63.5491623 29.9119625,61.7691192 C29.7756699,61.7285132 29.6369686,61.6963492 29.4966594,61.6728129 C29.4966594,61.6728129 23.1744609,49.2190037 32.0168186,45.9965305 C32.0168186,45.9965305 32.1062014,46.0625382 32.2675264,46.1913072 C33.9058479,47.4930652 42.9106207,55.10559 40.7469027,63.6075953 Z" id="Path" fill="#00A2A2"></path>
                    <path d="M29.0344849,64.0361042 C28.4240657,66.4268085 27.7086399,68.8795528 26.8882075,71.3943371 C26.8882075,71.3943371 22.9946052,75.4208055 13.5897899,71.3943371 C13.5897899,71.3943371 12.6501804,68.7648509 11.6168279,64.2947244 C9.34192646,54.466073 6.61357078,35.7361239 12.4267233,16.4975911 C14.1578107,10.7141025 16.6182555,5.17098581 19.7495733,-3.66085934e-14 C19.7495733,-3.66085934e-14 24.7157693,5.66042889 28.3608437,16.4943448 C32.0059182,27.3282607 34.3255111,43.3378278 29.0344849,64.0361042 Z" id="Path" fill="#008383"></path>
                    <ellipse id="Oval" fill="#00A2A2" cx="20.5398481" cy="31.7702528" rx="7.8079152" ry="7.75103272"></ellipse>
                    <path d="M26.077222,31.7745812 C26.077222,33.8993501 24.8436106,35.8338256 22.9090521,36.7429228 C20.9744935,37.6520199 18.6853992,37.3729272 17.0299379,36.0261249 C16.6340656,35.7024948 16.2848923,35.3263726 15.9922253,34.9083227 C15.8607979,34.7215727 15.7413832,34.5267689 15.6346941,34.3250745 C15.2194113,33.5381741 15.0028292,32.6629324 15.0035624,31.7745812 C15.0035624,31.7302153 15.0035624,31.6869316 15.0035624,31.6436479 C15.0618486,29.2306663 16.6971275,27.1369635 19.0366909,26.4798997 C19.4718782,26.3608359 19.9197218,26.2932771 20.3708928,26.2786294 L20.536578,26.2786294 C22.0055585,26.2777692 23.4146863,26.8563904 24.4538213,27.8871434 C25.4929564,28.9178963 26.0769331,30.3163023 26.077222,31.7745812 L26.077222,31.7745812 Z" id="Path" fill="#0F3436" fill-rule="nonzero" opacity="0.7"></path>
                    <path d="M28.3597537,16.4943448 C19.5010455,20.704769 12.4212732,16.4943448 12.4212732,16.4943448 C14.1543395,10.7117176 16.6166138,5.16969554 19.7495733,-1.83042967e-14 C19.7495733,-1.83042967e-14 24.7157693,5.66042889 28.3597537,16.4943448 Z" id="Path" fill="#00A2A2"></path>
                    <path d="M29.0344849,64.0361042 C28.6202719,65.6549154 28.1588241,67.3015004 27.6501414,68.9758591 C27.4088805,69.7744438 27.1545392,70.579521 26.8871175,71.3910908 C26.8871175,71.3910908 22.9935152,75.4175592 13.5886998,71.3910908 C13.5886998,71.3910908 13.2834902,70.5373194 12.8256759,68.9758591 C12.4834051,67.7963776 12.0572017,66.2154396 11.6124678,64.2914782 C11.6124678,64.2914782 15.1136577,65.7750278 20.0831238,65.7750278 C23.1530785,65.7854695 26.1949466,65.1945453 29.0344849,64.0361042 Z" id="Path" fill="#00A2A2"></path>
                    <path d="M27.6501414,68.9758591 C27.4088805,69.7744438 27.1545392,70.579521 26.8871175,71.3910908 C26.8871175,71.3910908 22.9935152,75.4175592 13.5886998,71.3910908 C13.5886998,71.3910908 13.2834902,70.5373194 12.8256759,68.9758591 C12.8245858,68.9758591 22.4103469,71.7135546 27.6501414,68.9758591 Z" id="Path" fill="#008383"></path>
                </g>
                <path d="M446.128276,173.406795 C446.620735,173.406795 447.093024,173.64652 447.441245,174.073234 C447.789466,174.499947 447.985094,175.078695 447.985094,175.68216 L447.984943,256 L435.985094,256 L435.985246,175.68216 C435.985246,174.42551 436.816572,173.406795 437.842065,173.406795 L446.128276,173.406795 Z M475.476789,193.787048 C476.502268,193.787048 477.333584,194.805764 477.333584,196.062413 L477.333281,256 L465.333584,256 L465.333887,196.062413 C465.333887,194.805764 466.165203,193.787048 467.190683,193.787048 L475.476789,193.787048 Z M504.809238,136 C505.834705,136 506.66601,137.018716 506.66601,138.275365 L506.665555,256 L494.66601,256 L494.666465,138.275365 C494.666465,137.018716 495.49777,136 496.523237,136 L504.809238,136 Z M534.158157,181.876779 C535.183611,181.876779 536.014906,182.720493 536.014906,183.761267 L536.014299,256 L524.014906,256 L524.015512,183.761267 C524.015512,182.720493 524.846807,181.876779 525.872261,181.876779 L534.158157,181.876779 Z" id="Bar-chart" fill="#008383" opacity="0.4"></path>
                <g id="woman" transform="translate(370.877386, 214.000000) scale(-1, 1) translate(-370.877386, -214.000000) translate(303.877386, 149.000000)">
                    <polygon id="Path" fill="#F7A17D" fill-rule="nonzero" points="114.060433 104.986832 113.179007 116.445364 121.699454 117.32679 119.642795 103.517789"></polygon>
                    <path d="M84.3743876,0.63982936 L84.3744053,0.63982936 C91.6371079,2.87789517 95.5112171,11.2261292 93.0274451,19.2861283 L89.8718035,29.5264481 L86.7223496,28.5559163 L86.0681879,24.1999113 L85.3548413,28.1345038 L65.1113699,21.8963026 L64.516675,17.9362986 L63.8681662,21.5131998 L61.5889701,20.8108447 L64.0667161,12.7703604 C66.9248648,3.49544248 76.016925,-1.93559621 84.3743876,0.63982936 Z" id="Path" fill="#B53D0A" fill-rule="nonzero"></path>
                    <path d="M73.094447,31.3754762 C71.7668754,31.1551968 70.4080295,31.5060633 69.3530627,32.3415358 C68.298096,33.1770083 67.6452165,34.4193118 67.5554542,35.7620374 C67.4288228,37.5374312 68.0416074,39.6159237 70.7938323,41.1552159 C76.6723325,44.4430008 89.4201611,51.6105036 89.4201611,51.6105036 L113.742729,56.2816683 C113.742729,56.2816683 126.033738,66.0892463 127.573624,60.5109919 C129.11351,54.9327375 115.910989,51.5269592 115.910989,51.5269592 L93.5657993,45.7963386 L79.3274448,35.4976273 C79.3274448,35.4976273 76.7183547,32.0149622 73.094447,31.3754762 Z" id="Path" fill="#F7A17D" fill-rule="nonzero"></path>
                    <polygon id="Path" fill="#F7A17D" fill-rule="nonzero" points="65.320538 54.2281788 67.7650249 61.1176948 82.4334151 57.5617303 78.6550376 52.4500497"></polygon>
                    <polygon id="Path" fill="#F7A17D" fill-rule="nonzero" points="26.0938691 119.012957 14.9817372 117.901479 22.7603177 110.345312 28.3165306 114.123396"></polygon>
                    <circle id="Oval" fill="#F7A17D" fill-rule="nonzero" cx="81.8054288" cy="14.5708718" r="9.12657103"></circle>
                    <path d="M74.6547347,16.0017252 C74.6547347,16.0017252 69.5430718,22.0023734 66.876119,22.8913557 C64.2091662,23.780338 57.5417783,32.2256964 60.8754708,37.7818505 C64.2091633,43.3380046 76.4327052,36.4483741 76.4327052,36.4483741 L75.9882111,30.89222 C75.9882111,30.89222 81.0998741,22.0023734 82.2111049,21.3356337 C83.3223357,20.6688941 74.6547347,16.0017252 74.6547347,16.0017252 Z" id="Path" fill="#F7A17D" fill-rule="nonzero"></path>
                    <path d="M73.7661314,26.7320588 C70.3680832,21.6158654 62.4859587,22.5312346 60.5308393,28.353588 C60.4960367,28.45723 60.4627501,28.562623 60.4309796,28.6697671 C58.6530091,34.6704124 61.3199649,44.8937383 61.3199649,44.8937383 L65.3203941,56.8950229 C65.3203941,56.8950229 75.7659626,52.0056056 83.3223357,60.2287154 L82.2111049,51.7833717 C82.2111049,51.7833717 85.3225371,44.6714927 81.3221197,39.5598327 C78.7761925,36.3066908 76.4102935,30.7131877 73.7661314,26.7320588 Z" id="Path" fill="#00A2A2" fill-rule="nonzero"></path>
                    <path d="M21.6768961,115.985578 L21.2796387,118.964997 C21.2796387,118.964997 8.17019696,116.382833 5.38940565,118.76637 C2.60861434,121.149906 2.60861434,122.738928 0.423707825,121.149904 C-0.504877774,120.474568 0.288639205,118.830551 1.50820081,117.163213 C3.43959675,114.547215 5.97776073,112.439734 8.90423049,111.022162 C12.1823321,109.417183 16.7111956,107.085148 16.7111956,106.451438 C16.7111956,105.458298 20.2864991,102.478879 21.6768961,104.067904 C23.0672931,105.656928 25.6494544,110.026752 25.6494544,110.026752 L21.6768961,115.985578 Z" id="Path" fill="#008AB6"></path>
                    <path d="M112.447453,113.019991 C112.447453,113.019991 109.526552,123.375927 110.588697,123.906999 C111.650843,124.43807 113.775134,126.03129 116.961571,126.03129 C118.844397,126.03129 121.654339,127.051117 123.638361,127.885564 C125.951451,128.873671 128.463935,129.305884 130.974246,129.147529 C132.646803,129.032349 134.068747,128.640185 133.955893,127.62451 C133.69035,125.23468 128.645165,124.703609 128.645165,124.703609 L123.334445,117.799658 C123.334445,117.799658 122.405068,113.418306 121.608459,113.418306 C121.174449,113.43897 120.748348,113.296933 120.413544,113.019991 L112.447453,113.019991 Z" id="Path" fill="#008AB6"></path>
                    <path d="M79.3971597,3.50795578 C81.2105558,2.18082691 83.5386706,1.77415268 85.6945956,2.40792201 L85.952774,2.48748241 C90.9306454,4.02145668 93.5779159,9.76937961 91.865641,15.3258451 L91.865641,15.3258657 L90.1976901,14.8118712 L90.5601558,12.6785129 L89.5333714,14.6071572 L79.6408386,11.5586852 L79.3465747,9.56864669 L79.0192397,11.3671338 L77.0730961,10.7674119 C74.7751433,14.997614 74.6901778,19.9097663 76.8181996,25.5038687 L73.5029907,24.4822583 L72.9144922,20.5021842 L72.2597987,24.0991555 L65.9401978,22.1517163 L67.1559011,13.7892677 C68.9973695,7.81347868 74.0310263,3.81608747 79.3971597,3.50795578 Z" id="Path" fill="#B53D0A" fill-rule="nonzero"></path>
                    <path d="M83.43346,60.7843308 C83.43346,60.7843308 78.0995515,53.6724518 67.2094888,57.8951295 L65.2092728,63.4512836 C65.2092728,63.4512836 53.6524705,72.5633787 60.0976098,86.5648853 L59.6531216,107.456028 L57.8751511,113.456673 L25.6494573,110.789721 L24.5382265,121.013044 L30.316635,121.457535 C30.316635,121.457535 62.9868229,134.347814 68.0984858,126.346952 C73.2101488,118.346091 83.8779511,86.7871308 83.8779511,86.7871308 L111.549366,90.9306859 C111.549366,90.9306859 110.739504,99.5907272 111.628486,100.701958 C112.517468,101.813189 112.07298,106.480358 112.517471,107.369355 C112.961962,108.258352 112.591511,110.569326 112.591511,110.569326 L121.772698,110.266116 L121.772698,105.821184 C121.772698,105.821184 122.883929,99.8205354 122.883929,98.2648134 C122.883929,96.7090915 129.551325,76.2624397 117.994514,74.4844721 C106.437703,72.7065046 86.5449157,69.4519318 86.5449157,69.4519318 L83.43346,60.7843308 Z" id="Path" fill="#D45925" fill-rule="nonzero"></path>
                    <path d="M73.0497705,26.0457868 C72.4816247,24.5985341 71.328467,23.4586829 69.874718,22.907372 C68.420969,22.3560611 66.8019594,22.4446124 65.4170101,23.1511853 C63.58108,24.0775635 61.8826523,25.9169106 61.9867046,29.5587406 C62.2089501,37.3373593 62.6534413,54.228079 62.6534413,54.228079 L72.4322702,81.1198672 C72.4322702,81.1198672 69.9875629,99.1218088 76.4327023,97.3438383 C82.8778416,95.5658678 78.4329183,80.4531275 78.4329183,80.4531275 L70.8765511,54.8948039 L72.6545187,34.6704006 C72.6545187,34.6704006 74.5627785,30.019024 73.0497705,26.0457868 Z" id="Path" fill="#F7A17D" fill-rule="nonzero"></path>
                </g>
            </g>
        </g>
    </g>
</svg>