<?xml version="1.0" encoding="UTF-8"?>
<svg width="41px" height="123px" viewBox="0 0 41 123" version="1.1" xmlns="http://www.w3.org/2000/svg" xmlns:xlink="http://www.w3.org/1999/xlink">
    <!-- Generator: Sketch 59.1 (86144) - https://sketch.com -->
    <title>woman</title>
    <desc>Created with Sketch.</desc>
    <g id="--layout-exploration" stroke="none" stroke-width="1" fill="none" fill-rule="evenodd">
        <g id="Home---fixed-layout" transform="translate(-1291.000000, -780.000000)">
            <g id="Group-3">
                <g id="Content" transform="translate(96.000000, 287.000000)">
                    <g id="Right" transform="translate(840.000000, 0.500000)">
                        <g id="video" transform="translate(0.000000, 453.500000)">
                            <g id="woman" transform="translate(355.494964, 39.220000)">
                                <polygon id="Path" fill="#F7A17D" points="6.8771992 102.686357 3.89052792 114.37303 4.79959221 115.282094 10.2532661 109.828243 11.8115603 104.504308"></polygon>
                                <polygon id="Path" fill="#F7A17D" points="29.4715757 102.686357 26.4849044 114.37303 27.3939687 115.282094 32.8478205 109.828243 34.4059368 104.504308"></polygon>
                                <path d="M31.8089138,42.8241464 L13.8892207,46.0704741 L13.7593694,47.7585609 L5.57863966,103.205715 C5.57863966,103.205715 15.0578969,108.010271 21.1609804,105.67292 L23.6281841,67.3663319 L27.0043577,105.67292 C27.0043577,105.67292 34.665675,109.698357 39.8597886,104.244543 C39.8597886,104.244538 36.613468,45.9406139 31.8089138,42.8241464 Z" id="Path" fill="#005D7E"></path>
                                <path d="M11.1623072,107.620711 L5.31892811,107.101301 L2.72187666,115.671588 C2.72187666,115.671588 1.09043728,117.865602 0.160335311,119.920832 C-0.108889316,120.521305 -0.0353542913,121.220046 0.352974659,121.75132 C0.741303609,122.282593 1.38475353,122.56476 2.03861732,122.490511 C3.80321112,122.295458 5.93055326,121.924309 6.22790698,121.255259 C6.62933879,120.279771 6.9761498,119.28269 7.26673005,118.268645 L8.6951071,119.177615 L9.73392839,118.658202 L10.3831939,113.593942 C10.3831939,113.593942 11.5518683,112.295414 10.5130453,109.958064 L11.1623072,107.620711 Z" id="Path" fill="#394851" fill-rule="nonzero"></path>
                                <path d="M33.756705,107.620711 L27.9133277,107.101301 L25.3162709,115.671588 C25.3162709,115.671588 23.6848315,117.865602 22.7547296,119.920832 C22.4855037,120.521305 22.5590382,121.220047 22.9473674,121.751321 C23.3356967,122.282594 23.9791474,122.564761 24.6330116,122.490511 C26.3976054,122.295458 28.5249457,121.924309 28.8223012,121.255259 C29.2237322,120.279771 29.5705432,119.28269 29.8611243,118.268645 L31.2895014,119.177615 L32.3283244,118.658202 L32.9775882,113.593942 C32.9775882,113.593942 34.1462644,112.295414 33.1074413,109.958064 L33.756705,107.620711 Z" id="Path" fill="#394851" fill-rule="nonzero"></path>
                                <circle id="Oval" fill="#F7A17D" cx="20.7064945" cy="10.2960109" r="6.49264109"></circle>
                                <path d="M20.2520104,15.4251979 C20.2520104,15.4251979 21.6803875,19.3207822 19.8624511,20.2297522 C18.74296,20.7853045 17.5677144,21.2205811 16.3564261,21.5282815 L16.6161306,27.5015119 L23.1087734,36.2016433 L30.7700907,21.5282743 C30.7700907,21.5282743 26.6148002,22.6969487 25.9655347,13.4773978 L20.2520104,15.4251979 Z" id="Path" fill="#F7A17D"></path>
                                <path d="M8.95481331,45.0316439 L7.52643626,61.6528077 C7.52643626,61.6528077 4.66967326,71.5216224 8.56525933,70.352948 C12.4608454,69.1842736 10.3831993,61.1333953 10.3831993,61.1333953 L13.8892242,45.0316439 L8.95481331,45.0316439 Z" id="Path" fill="#F7A17D"></path>
                                <path d="M22.7192141,33.085183 L19.9923042,24.3850427 L19.2131874,25.2940126 C19.2131874,25.2940126 14.8691486,23.178808 18.5993981,20.795319 C18.5993981,20.795319 10.3831957,21.3984372 10.3831957,23.995494 C10.3831957,26.5925508 14.0190738,34.6434256 14.0190738,34.6434256 C14.0190738,34.6434256 12.9802525,46.5898865 13.6295162,46.5898865 C14.27878,46.5898865 31.5492076,43.0838598 31.5492076,43.0838598 L32.0686182,36.980778 C32.0686182,36.980778 37.1328787,25.5537278 35.7044981,23.7357878 C34.2761175,21.9178479 29.2733203,20.7295756 28.8530293,21.1289374 C28.8530293,21.1289374 31.5492076,23.3462285 24.5371541,26.4626977 L25.0565647,27.5015208 L22.7192141,33.085183 Z" id="Path" fill="#009392"></path>
                                <path d="M11.0324595,23.4760727 C11.0324595,23.4760727 9.47422574,24.9044498 9.47422574,28.9298925 C9.47422574,32.9553352 8.56525577,41.136056 8.56525577,41.136056 L7.13687872,45.8107608 L12.4608454,46.070467 L14.0190791,47.10929 C14.0190791,47.10929 16.0967253,32.6956255 16.3564315,32.3060662 C16.6161377,31.9165068 11.0324595,23.4760727 11.0324595,23.4760727 Z" id="Path" fill="#009392"></path>
                                <path d="M34.2761175,23.3462196 C34.2761175,23.3462196 36.4836149,22.9566621 36.8731743,26.722395 C37.2627336,30.488128 37.522438,43.6032633 37.522438,43.6032633 C37.522438,43.6032633 39.3403779,44.5122332 38.431408,46.070467 C37.522438,47.6287007 36.4836149,48.01826 36.4836149,48.01826 L32.5880306,45.6809076 L31.8089138,33.7344468 L34.2761175,23.3462196 Z" id="Path" fill="#009392"></path>
                                <path d="M33.3671475,45.4212032 C33.3671475,45.4212032 27.7834746,47.7585538 28.5625915,48.7973769 C29.3417083,49.8361999 31.2895031,48.5376706 31.2895031,48.5376706 C31.2895031,48.5376706 33.3671493,53.9914904 34.5358308,52.8228143 C35.7045123,51.6541381 36.4836238,47.10929 36.4836238,47.10929 L33.3671475,45.4212032 Z" id="Path" fill="#F7A17D"></path>
                                <path d="M32.4858232,42.8241464 C32.4858232,42.8241464 34.5678901,40.03231 37.5060079,42.8241464 C37.5060079,42.8241464 34.3963353,41.4606906 32.4858232,42.8241464 Z" id="Path" fill="#000000" fill-rule="nonzero" opacity="0.2"></path>
                                <path d="M19.9158061,11.5031265 C19.5057751,10.9042706 19.6855146,10.0721422 19.3920442,9.40833665 C18.9312226,8.36595421 17.5723139,8.15205537 16.4346754,8.08348757 C15.6784863,8.037908 14.9109071,7.99315598 14.1696389,8.14441339 C13.4988892,8.27267924 12.9273446,8.70856783 12.6262246,9.32149859 C12.4664087,9.66243507 12.4832357,8.60593971 12.558027,7.24843514 C12.7128741,4.40618183 14.6853535,1.98915754 17.4388498,1.26760366 C17.4547993,1.26345105 17.4706053,1.25936489 17.4862678,1.25534517 C18.8608182,0.902990216 20.2804036,0.633803609 21.6932991,0.765197924 C23.1061947,0.89659224 24.5252373,1.47075853 25.4314647,2.56268213 C25.8456496,3.06173849 26.1443399,3.65483531 26.6042787,4.11207792 C27.4123795,4.91543946 28.5880962,5.18641287 29.6706604,5.54203178 C30.8949927,5.9442162 32.0893747,6.50769012 33.0394554,7.37836833 C33.9895362,8.24904655 34.677275,9.45703424 34.727916,10.7447359 C34.7869892,12.2468205 33.868683,13.8206977 32.3356407,14.1542609 C32.0689428,14.2074546 31.8185453,14.3227837 31.604773,14.490887 C30.1617188,15.66681 31.8682806,16.8198766 31.8877432,18.1038818 C31.9039847,19.1752945 30.7284175,19.9023111 29.6595747,19.9781738 C27.6688983,20.1194667 25.690516,18.6244653 25.2828964,16.6708527 C25.1003005,15.795679 25.2029885,14.889779 25.2864398,13.999663 C25.3819627,12.9807546 23.1360436,10.641393 24.6238302,12.3599214 C24.9139741,12.6863747 25.1141234,13.0827453 25.2045831,13.5100301 C25.4790643,14.9050505 24.2156945,15.4071234 23.430605,16.2028074 C22.55185,17.1203166 22.27133,18.4577006 22.70734,19.6509854 C21.3232772,18.525132 20.9539102,16.3360508 21.8919318,14.8183886 C22.141266,14.4149744 22.4665412,14.0613879 22.7022857,13.6498815 C23.0701471,13.0077703 23.1424772,11.6287351 22.0708669,11.6925102 C21.3059804,11.7380168 20.5261944,12.3946075 19.9158061,11.5031265 Z" id="Path" fill="#C54B17"></path>
                                <rect id="Rectangle" fill="#009392" x="20.1052592" y="5.31130695e-13" width="3.55937466" height="10.678124" rx="1.77968733"></rect>
                                <circle id="Oval" fill="#009392" cx="21.8849465" cy="12.2798426" r="3.2034372"></circle>
                                <circle id="Oval" fill="#AFB6B9" cx="21.8849465" cy="12.2798426" r="1.6017186"></circle>
                                <circle id="Oval" fill="#009392" cx="21.8849465" cy="12.2798426" r="1"></circle>
                            </g>
                        </g>
                    </g>
                </g>
            </g>
        </g>
    </g>
</svg>